M48
; DRILL file KiCad 10.0.6-1.fc44 date 2026-09-10T12:40:04
; FORMAT={-:-/ absolute / metric / decimal}
; #@! TF.CreationDate,2026-09-10T12:40:04+07:00
; #@! TF.GenerationSoftware,Kicad,Pcbnew,10.0.6-1.fc44
; #@! TF.FileFunction,MixedPlating,1,4
FMAT,2
METRIC
; #@! TA.AperFunction,Plated,PTH,ViaDrill
T1C0.200
; #@! TA.AperFunction,Plated,PTH,ComponentDrill
T2C0.200
; #@! TA.AperFunction,Plated,PTH,ViaDrill
T3C0.250
; #@! TA.AperFunction,Plated,PTH,ViaDrill
T4C0.300
; #@! TA.AperFunction,Plated,PTH,ComponentDrill
T5C0.600
; #@! TA.AperFunction,Plated,PTH,ComponentDrill
T6C1.000
; #@! TA.AperFunction,Plated,PTH,ComponentDrill
T7C1.500
; #@! TA.AperFunction,NonPlated,NPTH,ComponentDrill
T8C0.650
; #@! TA.AperFunction,NonPlated,NPTH,ComponentDrill
T9C0.900
; #@! TA.AperFunction,NonPlated,NPTH,ComponentDrill
T10C2.200
%
G90
G05
T1
X31.861Y-14.338
X50.809Y-13.9
X51.172Y-17.953
T2
X60.1Y-16.76
X60.1Y-18.16
X60.8Y-16.06
X60.8Y-17.46
X60.8Y-18.86
X61.5Y-16.76
X61.5Y-18.16
X62.2Y-16.06
X62.2Y-17.46
X62.2Y-18.86
X62.9Y-16.76
X62.9Y-18.16
X73.525Y-32.0
X74.5Y-31.275
X74.5Y-32.0
X74.5Y-32.725
X75.475Y-32.0
T3
X1.2Y-3.8
X1.2Y-6.4
X1.2Y-9.0
X1.2Y-11.6
X1.2Y-14.2
X1.2Y-16.8
X1.2Y-19.4
X1.2Y-22.0
X1.2Y-24.6
X1.2Y-29.8
X1.2Y-32.4
X1.2Y-35.0
X1.2Y-37.6
X1.2Y-40.2
X1.2Y-42.8
X1.2Y-45.4
X1.2Y-48.0
X1.2Y-50.6
X3.8Y-1.2
X3.8Y-9.0
X3.8Y-11.6
X3.8Y-14.2
X3.8Y-16.8
X3.8Y-19.4
X3.8Y-22.0
X3.8Y-35.0
X3.8Y-37.6
X3.8Y-40.2
X3.8Y-42.8
X3.8Y-45.4
X3.8Y-50.6
X6.4Y-1.2
X6.4Y-9.0
X6.4Y-11.6
X6.4Y-14.2
X6.4Y-16.8
X6.4Y-19.4
X6.4Y-37.6
X6.4Y-40.2
X6.4Y-42.8
X6.4Y-45.4
X6.4Y-50.6
X9.0Y-1.2
X9.0Y-3.8
X9.0Y-6.4
X9.0Y-9.0
X9.0Y-11.6
X9.0Y-14.2
X9.0Y-16.8
X9.0Y-19.4
X9.0Y-48.0
X11.6Y-1.2
X11.6Y-3.8
X11.6Y-9.0
X11.6Y-14.2
X11.6Y-19.4
X11.6Y-50.6
X12.35Y-25.982
X14.2Y-1.2
X14.2Y-3.8
X14.2Y-11.6
X14.2Y-19.4
X16.8Y-1.2
X16.8Y-9.0
X16.8Y-11.6
X16.8Y-14.2
X16.8Y-16.8
X16.8Y-19.4
X16.8Y-50.6
X19.4Y-1.2
X19.4Y-9.0
X19.4Y-11.6
X19.4Y-14.2
X19.4Y-16.8
X19.4Y-19.4
X21.766Y-14.525
X22.0Y-1.2
X23.851Y-10.708
X24.6Y-1.2
X27.2Y-1.2
X27.362Y-10.675
X29.8Y-1.2
X31.251Y-24.49
X32.146Y-15.832
X32.4Y-1.2
X32.4Y-6.4
X32.4Y-50.6
X35.0Y-1.2
X37.6Y-1.2
X40.2Y-1.2
X40.2Y-3.8
X40.2Y-6.4
X42.8Y-1.2
X42.8Y-3.8
X42.8Y-6.4
X44.616Y-8.154
X45.4Y-1.2
X45.4Y-3.8
X45.4Y-6.4
X45.526Y-27.231
X48.0Y-1.2
X48.0Y-3.8
X48.0Y-6.4
X50.6Y-1.2
X50.6Y-3.8
X50.6Y-6.4
X52.43Y-45.401
X53.2Y-50.6
X58.4Y-50.6
X61.0Y-50.6
X66.2Y-50.6
X68.8Y-42.8
X68.8Y-45.4
X68.8Y-48.0
X68.8Y-50.6
X71.4Y-42.8
X71.4Y-45.4
X71.4Y-48.0
X71.4Y-50.6
X74.0Y-19.4
X74.0Y-22.0
X74.0Y-24.6
X74.0Y-27.2
X74.0Y-37.6
X74.0Y-42.8
X74.0Y-45.4
X74.0Y-50.6
X76.6Y-1.2
X76.6Y-9.0
X76.6Y-11.6
X76.6Y-14.2
X76.6Y-16.8
X76.6Y-19.4
X76.6Y-22.0
X76.6Y-24.6
X76.6Y-27.2
X76.6Y-42.8
X76.6Y-45.4
X76.6Y-50.6
T4
X7.922Y-29.849
X8.494Y-26.663
X8.496Y-28.601
X8.606Y-25.779
X9.076Y-24.087
X9.351Y-33.197
X9.952Y-27.893
X10.167Y-26.16
X10.247Y-35.602
X14.127Y-44.944
X18.88Y-33.159
X19.021Y-29.74
X21.698Y-21.377
X23.553Y-12.16
X24.49Y-19.409
X25.21Y-30.118
X26.617Y-46.931
X27.75Y-24.5
X27.856Y-33.856
X28.48Y-46.968
X29.106Y-8.885
X29.193Y-25.085
X29.398Y-14.543
X29.964Y-17.537
X32.056Y-13.706
X32.087Y-10.979
X32.295Y-12.5
X33.485Y-34.52
X33.596Y-25.024
X34.555Y-10.025
X36.019Y-30.738
X37.116Y-25.057
X37.539Y-13.109
X40.462Y-26.67
X40.464Y-15.178
X41.424Y-9.835
X42.11Y-47.637
X42.926Y-30.637
X45.327Y-23.872
X45.74Y-18.432
X45.743Y-49.103
X46.14Y-26.604
X50.279Y-22.895
X50.402Y-26.482
X52.525Y-14.536
X52.892Y-16.604
X52.993Y-18.291
X54.85Y-45.953
X55.484Y-23.25
X55.517Y-17.444
X55.577Y-15.529
X55.669Y-11.139
X55.669Y-13.609
X56.139Y-14.828
X56.634Y-23.274
X57.823Y-21.294
X58.056Y-17.979
X58.744Y-25.915
X59.776Y-26.269
X60.863Y-45.449
X61.862Y-26.262
X63.09Y-25.823
X63.856Y-19.692
X64.442Y-25.973
X67.302Y-29.458
X68.47Y-24.455
X68.552Y-22.992
X69.756Y-29.888
X69.907Y-26.162
X70.311Y-17.823
X73.33Y-12.811
X73.443Y-39.84
X74.717Y-35.767
T6
X23.0Y-5.5
X25.54Y-5.5
X28.08Y-5.5
X30.0Y-36.0
X30.62Y-5.5
X32.54Y-36.0
X35.08Y-36.0
X37.62Y-36.0
X52.0Y-33.2
X52.0Y-35.7
X52.0Y-38.2
X66.5Y-33.2
X66.5Y-38.2
T8
X57.11Y-47.695
X62.89Y-47.695
T9
X22.5Y-50.83
X25.5Y-50.83
T10
X5.0Y-5.0
X5.0Y-48.0
X75.0Y-5.0
X75.0Y-48.0
T5
X55.68Y-46.645G85X55.68Y-47.745
G05
X55.68Y-51.075G85X55.68Y-51.675
G05
X64.32Y-46.645G85X64.32Y-47.745
G05
X64.32Y-51.075G85X64.32Y-51.675
G05
T6
X11.5Y-5.25G85X12.5Y-5.25
G05
X11.5Y-11.35G85X12.5Y-11.35
G05
X11.5Y-16.85G85X12.5Y-16.85
G05
X13.5Y-7.65G85X14.5Y-7.65
G05
X13.5Y-13.15G85X14.5Y-13.15
G05
T7
X58.85Y-30.1G85X60.15Y-30.1
G05
X58.85Y-41.3G85X60.15Y-41.3
G05
M30
