%TF.GenerationSoftware,KiCad,Pcbnew,10.0.6-1.fc44*%
%TF.CreationDate,2026-09-14T18:45:26+07:00*%
%TF.ProjectId,poket,706f6b65-742e-46b6-9963-61645f706362,rev?*%
%TF.SameCoordinates,Original*%
%TF.FileFunction,Legend,Bot*%
%TF.FilePolarity,Positive*%
%FSLAX46Y46*%
G04 Gerber Fmt 4.6, Leading zero omitted, Abs format (unit mm)*
G04 Created by KiCad (PCBNEW 10.0.6-1.fc44) date 2026-09-14 18:45:26*
%MOMM*%
%LPD*%
G01*
G04 APERTURE LIST*
%ADD10C,0.200000*%
%ADD11C,0.250000*%
%ADD12C,0.500000*%
%ADD13C,0.150000*%
%ADD14C,0.120000*%
G04 APERTURE END LIST*
D10*
X29399999Y-30544742D02*
X29399999Y-29744742D01*
X29399999Y-29859028D02*
X29342856Y-29801885D01*
X29342856Y-29801885D02*
X29228571Y-29744742D01*
X29228571Y-29744742D02*
X29057142Y-29744742D01*
X29057142Y-29744742D02*
X28942856Y-29801885D01*
X28942856Y-29801885D02*
X28885714Y-29916171D01*
X28885714Y-29916171D02*
X28885714Y-30544742D01*
X28885714Y-29916171D02*
X28828571Y-29801885D01*
X28828571Y-29801885D02*
X28714285Y-29744742D01*
X28714285Y-29744742D02*
X28542856Y-29744742D01*
X28542856Y-29744742D02*
X28428571Y-29801885D01*
X28428571Y-29801885D02*
X28371428Y-29916171D01*
X28371428Y-29916171D02*
X28371428Y-30544742D01*
X27799999Y-30544742D02*
X27799999Y-29744742D01*
X27799999Y-29344742D02*
X27857142Y-29401885D01*
X27857142Y-29401885D02*
X27799999Y-29459028D01*
X27799999Y-29459028D02*
X27742856Y-29401885D01*
X27742856Y-29401885D02*
X27799999Y-29344742D01*
X27799999Y-29344742D02*
X27799999Y-29459028D01*
X26714285Y-30487600D02*
X26828570Y-30544742D01*
X26828570Y-30544742D02*
X27057142Y-30544742D01*
X27057142Y-30544742D02*
X27171427Y-30487600D01*
X27171427Y-30487600D02*
X27228570Y-30430457D01*
X27228570Y-30430457D02*
X27285713Y-30316171D01*
X27285713Y-30316171D02*
X27285713Y-29973314D01*
X27285713Y-29973314D02*
X27228570Y-29859028D01*
X27228570Y-29859028D02*
X27171427Y-29801885D01*
X27171427Y-29801885D02*
X27057142Y-29744742D01*
X27057142Y-29744742D02*
X26828570Y-29744742D01*
X26828570Y-29744742D02*
X26714285Y-29801885D01*
X26199999Y-30544742D02*
X26199999Y-29744742D01*
X26199999Y-29973314D02*
X26142856Y-29859028D01*
X26142856Y-29859028D02*
X26085714Y-29801885D01*
X26085714Y-29801885D02*
X25971428Y-29744742D01*
X25971428Y-29744742D02*
X25857142Y-29744742D01*
X25285714Y-30544742D02*
X25399999Y-30487600D01*
X25399999Y-30487600D02*
X25457142Y-30430457D01*
X25457142Y-30430457D02*
X25514285Y-30316171D01*
X25514285Y-30316171D02*
X25514285Y-29973314D01*
X25514285Y-29973314D02*
X25457142Y-29859028D01*
X25457142Y-29859028D02*
X25399999Y-29801885D01*
X25399999Y-29801885D02*
X25285714Y-29744742D01*
X25285714Y-29744742D02*
X25114285Y-29744742D01*
X25114285Y-29744742D02*
X24999999Y-29801885D01*
X24999999Y-29801885D02*
X24942857Y-29859028D01*
X24942857Y-29859028D02*
X24885714Y-29973314D01*
X24885714Y-29973314D02*
X24885714Y-30316171D01*
X24885714Y-30316171D02*
X24942857Y-30430457D01*
X24942857Y-30430457D02*
X24999999Y-30487600D01*
X24999999Y-30487600D02*
X25114285Y-30544742D01*
X25114285Y-30544742D02*
X25285714Y-30544742D01*
X24428571Y-30487600D02*
X24257143Y-30544742D01*
X24257143Y-30544742D02*
X23971428Y-30544742D01*
X23971428Y-30544742D02*
X23857143Y-30487600D01*
X23857143Y-30487600D02*
X23800000Y-30430457D01*
X23800000Y-30430457D02*
X23742857Y-30316171D01*
X23742857Y-30316171D02*
X23742857Y-30201885D01*
X23742857Y-30201885D02*
X23800000Y-30087600D01*
X23800000Y-30087600D02*
X23857143Y-30030457D01*
X23857143Y-30030457D02*
X23971428Y-29973314D01*
X23971428Y-29973314D02*
X24200000Y-29916171D01*
X24200000Y-29916171D02*
X24314285Y-29859028D01*
X24314285Y-29859028D02*
X24371428Y-29801885D01*
X24371428Y-29801885D02*
X24428571Y-29687600D01*
X24428571Y-29687600D02*
X24428571Y-29573314D01*
X24428571Y-29573314D02*
X24371428Y-29459028D01*
X24371428Y-29459028D02*
X24314285Y-29401885D01*
X24314285Y-29401885D02*
X24200000Y-29344742D01*
X24200000Y-29344742D02*
X23914285Y-29344742D01*
X23914285Y-29344742D02*
X23742857Y-29401885D01*
X23228571Y-30544742D02*
X23228571Y-29344742D01*
X23228571Y-29344742D02*
X22942857Y-29344742D01*
X22942857Y-29344742D02*
X22771428Y-29401885D01*
X22771428Y-29401885D02*
X22657143Y-29516171D01*
X22657143Y-29516171D02*
X22600000Y-29630457D01*
X22600000Y-29630457D02*
X22542857Y-29859028D01*
X22542857Y-29859028D02*
X22542857Y-30030457D01*
X22542857Y-30030457D02*
X22600000Y-30259028D01*
X22600000Y-30259028D02*
X22657143Y-30373314D01*
X22657143Y-30373314D02*
X22771428Y-30487600D01*
X22771428Y-30487600D02*
X22942857Y-30544742D01*
X22942857Y-30544742D02*
X23228571Y-30544742D01*
X39628571Y-46416171D02*
X39457143Y-46473314D01*
X39457143Y-46473314D02*
X39400000Y-46530457D01*
X39400000Y-46530457D02*
X39342857Y-46644742D01*
X39342857Y-46644742D02*
X39342857Y-46816171D01*
X39342857Y-46816171D02*
X39400000Y-46930457D01*
X39400000Y-46930457D02*
X39457143Y-46987600D01*
X39457143Y-46987600D02*
X39571428Y-47044742D01*
X39571428Y-47044742D02*
X40028571Y-47044742D01*
X40028571Y-47044742D02*
X40028571Y-45844742D01*
X40028571Y-45844742D02*
X39628571Y-45844742D01*
X39628571Y-45844742D02*
X39514286Y-45901885D01*
X39514286Y-45901885D02*
X39457143Y-45959028D01*
X39457143Y-45959028D02*
X39400000Y-46073314D01*
X39400000Y-46073314D02*
X39400000Y-46187600D01*
X39400000Y-46187600D02*
X39457143Y-46301885D01*
X39457143Y-46301885D02*
X39514286Y-46359028D01*
X39514286Y-46359028D02*
X39628571Y-46416171D01*
X39628571Y-46416171D02*
X40028571Y-46416171D01*
X38600000Y-45844742D02*
X38371428Y-45844742D01*
X38371428Y-45844742D02*
X38257143Y-45901885D01*
X38257143Y-45901885D02*
X38142857Y-46016171D01*
X38142857Y-46016171D02*
X38085714Y-46244742D01*
X38085714Y-46244742D02*
X38085714Y-46644742D01*
X38085714Y-46644742D02*
X38142857Y-46873314D01*
X38142857Y-46873314D02*
X38257143Y-46987600D01*
X38257143Y-46987600D02*
X38371428Y-47044742D01*
X38371428Y-47044742D02*
X38600000Y-47044742D01*
X38600000Y-47044742D02*
X38714286Y-46987600D01*
X38714286Y-46987600D02*
X38828571Y-46873314D01*
X38828571Y-46873314D02*
X38885714Y-46644742D01*
X38885714Y-46644742D02*
X38885714Y-46244742D01*
X38885714Y-46244742D02*
X38828571Y-46016171D01*
X38828571Y-46016171D02*
X38714286Y-45901885D01*
X38714286Y-45901885D02*
X38600000Y-45844742D01*
X37342857Y-45844742D02*
X37114285Y-45844742D01*
X37114285Y-45844742D02*
X37000000Y-45901885D01*
X37000000Y-45901885D02*
X36885714Y-46016171D01*
X36885714Y-46016171D02*
X36828571Y-46244742D01*
X36828571Y-46244742D02*
X36828571Y-46644742D01*
X36828571Y-46644742D02*
X36885714Y-46873314D01*
X36885714Y-46873314D02*
X37000000Y-46987600D01*
X37000000Y-46987600D02*
X37114285Y-47044742D01*
X37114285Y-47044742D02*
X37342857Y-47044742D01*
X37342857Y-47044742D02*
X37457143Y-46987600D01*
X37457143Y-46987600D02*
X37571428Y-46873314D01*
X37571428Y-46873314D02*
X37628571Y-46644742D01*
X37628571Y-46644742D02*
X37628571Y-46244742D01*
X37628571Y-46244742D02*
X37571428Y-46016171D01*
X37571428Y-46016171D02*
X37457143Y-45901885D01*
X37457143Y-45901885D02*
X37342857Y-45844742D01*
X36485714Y-45844742D02*
X35800000Y-45844742D01*
X36142857Y-47044742D02*
X36142857Y-45844742D01*
X31971427Y-47044742D02*
X32371427Y-46473314D01*
X32657141Y-47044742D02*
X32657141Y-45844742D01*
X32657141Y-45844742D02*
X32199998Y-45844742D01*
X32199998Y-45844742D02*
X32085713Y-45901885D01*
X32085713Y-45901885D02*
X32028570Y-45959028D01*
X32028570Y-45959028D02*
X31971427Y-46073314D01*
X31971427Y-46073314D02*
X31971427Y-46244742D01*
X31971427Y-46244742D02*
X32028570Y-46359028D01*
X32028570Y-46359028D02*
X32085713Y-46416171D01*
X32085713Y-46416171D02*
X32199998Y-46473314D01*
X32199998Y-46473314D02*
X32657141Y-46473314D01*
X31514284Y-46987600D02*
X31342856Y-47044742D01*
X31342856Y-47044742D02*
X31057141Y-47044742D01*
X31057141Y-47044742D02*
X30942856Y-46987600D01*
X30942856Y-46987600D02*
X30885713Y-46930457D01*
X30885713Y-46930457D02*
X30828570Y-46816171D01*
X30828570Y-46816171D02*
X30828570Y-46701885D01*
X30828570Y-46701885D02*
X30885713Y-46587600D01*
X30885713Y-46587600D02*
X30942856Y-46530457D01*
X30942856Y-46530457D02*
X31057141Y-46473314D01*
X31057141Y-46473314D02*
X31285713Y-46416171D01*
X31285713Y-46416171D02*
X31399998Y-46359028D01*
X31399998Y-46359028D02*
X31457141Y-46301885D01*
X31457141Y-46301885D02*
X31514284Y-46187600D01*
X31514284Y-46187600D02*
X31514284Y-46073314D01*
X31514284Y-46073314D02*
X31457141Y-45959028D01*
X31457141Y-45959028D02*
X31399998Y-45901885D01*
X31399998Y-45901885D02*
X31285713Y-45844742D01*
X31285713Y-45844742D02*
X30999998Y-45844742D01*
X30999998Y-45844742D02*
X30828570Y-45901885D01*
X30485713Y-45844742D02*
X29799999Y-45844742D01*
X30142856Y-47044742D02*
X30142856Y-45844742D01*
D11*
X42704762Y-31227190D02*
X42704762Y-30160523D01*
X42704762Y-30465285D02*
X42628572Y-30312904D01*
X42628572Y-30312904D02*
X42552381Y-30236714D01*
X42552381Y-30236714D02*
X42400000Y-30160523D01*
X42400000Y-30160523D02*
X42247619Y-30160523D01*
X41104762Y-31151000D02*
X41257143Y-31227190D01*
X41257143Y-31227190D02*
X41561905Y-31227190D01*
X41561905Y-31227190D02*
X41714286Y-31151000D01*
X41714286Y-31151000D02*
X41790477Y-30998619D01*
X41790477Y-30998619D02*
X41790477Y-30389095D01*
X41790477Y-30389095D02*
X41714286Y-30236714D01*
X41714286Y-30236714D02*
X41561905Y-30160523D01*
X41561905Y-30160523D02*
X41257143Y-30160523D01*
X41257143Y-30160523D02*
X41104762Y-30236714D01*
X41104762Y-30236714D02*
X41028572Y-30389095D01*
X41028572Y-30389095D02*
X41028572Y-30541476D01*
X41028572Y-30541476D02*
X41790477Y-30693857D01*
X40495238Y-30160523D02*
X40114286Y-31227190D01*
X40114286Y-31227190D02*
X39733333Y-30160523D01*
X37980952Y-30770047D02*
X37219047Y-30770047D01*
X38133333Y-31227190D02*
X37599999Y-29627190D01*
X37599999Y-29627190D02*
X37066666Y-31227190D01*
D12*
X47416666Y-27593167D02*
X47416666Y-24093167D01*
X47416666Y-24093167D02*
X46083333Y-24093167D01*
X46083333Y-24093167D02*
X45750000Y-24259834D01*
X45750000Y-24259834D02*
X45583333Y-24426501D01*
X45583333Y-24426501D02*
X45416666Y-24759834D01*
X45416666Y-24759834D02*
X45416666Y-25259834D01*
X45416666Y-25259834D02*
X45583333Y-25593167D01*
X45583333Y-25593167D02*
X45750000Y-25759834D01*
X45750000Y-25759834D02*
X46083333Y-25926501D01*
X46083333Y-25926501D02*
X47416666Y-25926501D01*
X43250000Y-24093167D02*
X42583333Y-24093167D01*
X42583333Y-24093167D02*
X42250000Y-24259834D01*
X42250000Y-24259834D02*
X41916666Y-24593167D01*
X41916666Y-24593167D02*
X41750000Y-25259834D01*
X41750000Y-25259834D02*
X41750000Y-26426501D01*
X41750000Y-26426501D02*
X41916666Y-27093167D01*
X41916666Y-27093167D02*
X42250000Y-27426501D01*
X42250000Y-27426501D02*
X42583333Y-27593167D01*
X42583333Y-27593167D02*
X43250000Y-27593167D01*
X43250000Y-27593167D02*
X43583333Y-27426501D01*
X43583333Y-27426501D02*
X43916666Y-27093167D01*
X43916666Y-27093167D02*
X44083333Y-26426501D01*
X44083333Y-26426501D02*
X44083333Y-25259834D01*
X44083333Y-25259834D02*
X43916666Y-24593167D01*
X43916666Y-24593167D02*
X43583333Y-24259834D01*
X43583333Y-24259834D02*
X43250000Y-24093167D01*
X40249999Y-27593167D02*
X40249999Y-24093167D01*
X38249999Y-27593167D02*
X39749999Y-25593167D01*
X38249999Y-24093167D02*
X40249999Y-26093167D01*
X36749999Y-25759834D02*
X35583333Y-25759834D01*
X35083333Y-27593167D02*
X36749999Y-27593167D01*
X36749999Y-27593167D02*
X36749999Y-24093167D01*
X36749999Y-24093167D02*
X35083333Y-24093167D01*
X34083332Y-24093167D02*
X32083332Y-24093167D01*
X33083332Y-27593167D02*
X33083332Y-24093167D01*
D13*
X49495238Y-47550057D02*
X49590476Y-47502438D01*
X49590476Y-47502438D02*
X49685714Y-47407200D01*
X49685714Y-47407200D02*
X49828571Y-47264342D01*
X49828571Y-47264342D02*
X49923809Y-47216723D01*
X49923809Y-47216723D02*
X50019047Y-47216723D01*
X49971428Y-47454819D02*
X50066666Y-47407200D01*
X50066666Y-47407200D02*
X50161904Y-47311961D01*
X50161904Y-47311961D02*
X50209523Y-47121485D01*
X50209523Y-47121485D02*
X50209523Y-46788152D01*
X50209523Y-46788152D02*
X50161904Y-46597676D01*
X50161904Y-46597676D02*
X50066666Y-46502438D01*
X50066666Y-46502438D02*
X49971428Y-46454819D01*
X49971428Y-46454819D02*
X49780952Y-46454819D01*
X49780952Y-46454819D02*
X49685714Y-46502438D01*
X49685714Y-46502438D02*
X49590476Y-46597676D01*
X49590476Y-46597676D02*
X49542857Y-46788152D01*
X49542857Y-46788152D02*
X49542857Y-47121485D01*
X49542857Y-47121485D02*
X49590476Y-47311961D01*
X49590476Y-47311961D02*
X49685714Y-47407200D01*
X49685714Y-47407200D02*
X49780952Y-47454819D01*
X49780952Y-47454819D02*
X49971428Y-47454819D01*
X49209523Y-46454819D02*
X48590476Y-46454819D01*
X48590476Y-46454819D02*
X48923809Y-46835771D01*
X48923809Y-46835771D02*
X48780952Y-46835771D01*
X48780952Y-46835771D02*
X48685714Y-46883390D01*
X48685714Y-46883390D02*
X48638095Y-46931009D01*
X48638095Y-46931009D02*
X48590476Y-47026247D01*
X48590476Y-47026247D02*
X48590476Y-47264342D01*
X48590476Y-47264342D02*
X48638095Y-47359580D01*
X48638095Y-47359580D02*
X48685714Y-47407200D01*
X48685714Y-47407200D02*
X48780952Y-47454819D01*
X48780952Y-47454819D02*
X49066666Y-47454819D01*
X49066666Y-47454819D02*
X49161904Y-47407200D01*
X49161904Y-47407200D02*
X49209523Y-47359580D01*
X50084819Y-40357142D02*
X49608628Y-40023809D01*
X50084819Y-39785714D02*
X49084819Y-39785714D01*
X49084819Y-39785714D02*
X49084819Y-40166666D01*
X49084819Y-40166666D02*
X49132438Y-40261904D01*
X49132438Y-40261904D02*
X49180057Y-40309523D01*
X49180057Y-40309523D02*
X49275295Y-40357142D01*
X49275295Y-40357142D02*
X49418152Y-40357142D01*
X49418152Y-40357142D02*
X49513390Y-40309523D01*
X49513390Y-40309523D02*
X49561009Y-40261904D01*
X49561009Y-40261904D02*
X49608628Y-40166666D01*
X49608628Y-40166666D02*
X49608628Y-39785714D01*
X49084819Y-40690476D02*
X49084819Y-41309523D01*
X49084819Y-41309523D02*
X49465771Y-40976190D01*
X49465771Y-40976190D02*
X49465771Y-41119047D01*
X49465771Y-41119047D02*
X49513390Y-41214285D01*
X49513390Y-41214285D02*
X49561009Y-41261904D01*
X49561009Y-41261904D02*
X49656247Y-41309523D01*
X49656247Y-41309523D02*
X49894342Y-41309523D01*
X49894342Y-41309523D02*
X49989580Y-41261904D01*
X49989580Y-41261904D02*
X50037200Y-41214285D01*
X50037200Y-41214285D02*
X50084819Y-41119047D01*
X50084819Y-41119047D02*
X50084819Y-40833333D01*
X50084819Y-40833333D02*
X50037200Y-40738095D01*
X50037200Y-40738095D02*
X49989580Y-40690476D01*
X49084819Y-42166666D02*
X49084819Y-41976190D01*
X49084819Y-41976190D02*
X49132438Y-41880952D01*
X49132438Y-41880952D02*
X49180057Y-41833333D01*
X49180057Y-41833333D02*
X49322914Y-41738095D01*
X49322914Y-41738095D02*
X49513390Y-41690476D01*
X49513390Y-41690476D02*
X49894342Y-41690476D01*
X49894342Y-41690476D02*
X49989580Y-41738095D01*
X49989580Y-41738095D02*
X50037200Y-41785714D01*
X50037200Y-41785714D02*
X50084819Y-41880952D01*
X50084819Y-41880952D02*
X50084819Y-42071428D01*
X50084819Y-42071428D02*
X50037200Y-42166666D01*
X50037200Y-42166666D02*
X49989580Y-42214285D01*
X49989580Y-42214285D02*
X49894342Y-42261904D01*
X49894342Y-42261904D02*
X49656247Y-42261904D01*
X49656247Y-42261904D02*
X49561009Y-42214285D01*
X49561009Y-42214285D02*
X49513390Y-42166666D01*
X49513390Y-42166666D02*
X49465771Y-42071428D01*
X49465771Y-42071428D02*
X49465771Y-41880952D01*
X49465771Y-41880952D02*
X49513390Y-41785714D01*
X49513390Y-41785714D02*
X49561009Y-41738095D01*
X49561009Y-41738095D02*
X49656247Y-41690476D01*
X3729819Y-29591666D02*
X4444104Y-29591666D01*
X4444104Y-29591666D02*
X4586961Y-29544047D01*
X4586961Y-29544047D02*
X4682200Y-29448809D01*
X4682200Y-29448809D02*
X4729819Y-29305952D01*
X4729819Y-29305952D02*
X4729819Y-29210714D01*
X3825057Y-30020238D02*
X3777438Y-30067857D01*
X3777438Y-30067857D02*
X3729819Y-30163095D01*
X3729819Y-30163095D02*
X3729819Y-30401190D01*
X3729819Y-30401190D02*
X3777438Y-30496428D01*
X3777438Y-30496428D02*
X3825057Y-30544047D01*
X3825057Y-30544047D02*
X3920295Y-30591666D01*
X3920295Y-30591666D02*
X4015533Y-30591666D01*
X4015533Y-30591666D02*
X4158390Y-30544047D01*
X4158390Y-30544047D02*
X4729819Y-29972619D01*
X4729819Y-29972619D02*
X4729819Y-30591666D01*
X46042857Y-45789580D02*
X46090476Y-45837200D01*
X46090476Y-45837200D02*
X46233333Y-45884819D01*
X46233333Y-45884819D02*
X46328571Y-45884819D01*
X46328571Y-45884819D02*
X46471428Y-45837200D01*
X46471428Y-45837200D02*
X46566666Y-45741961D01*
X46566666Y-45741961D02*
X46614285Y-45646723D01*
X46614285Y-45646723D02*
X46661904Y-45456247D01*
X46661904Y-45456247D02*
X46661904Y-45313390D01*
X46661904Y-45313390D02*
X46614285Y-45122914D01*
X46614285Y-45122914D02*
X46566666Y-45027676D01*
X46566666Y-45027676D02*
X46471428Y-44932438D01*
X46471428Y-44932438D02*
X46328571Y-44884819D01*
X46328571Y-44884819D02*
X46233333Y-44884819D01*
X46233333Y-44884819D02*
X46090476Y-44932438D01*
X46090476Y-44932438D02*
X46042857Y-44980057D01*
X45709523Y-44884819D02*
X45090476Y-44884819D01*
X45090476Y-44884819D02*
X45423809Y-45265771D01*
X45423809Y-45265771D02*
X45280952Y-45265771D01*
X45280952Y-45265771D02*
X45185714Y-45313390D01*
X45185714Y-45313390D02*
X45138095Y-45361009D01*
X45138095Y-45361009D02*
X45090476Y-45456247D01*
X45090476Y-45456247D02*
X45090476Y-45694342D01*
X45090476Y-45694342D02*
X45138095Y-45789580D01*
X45138095Y-45789580D02*
X45185714Y-45837200D01*
X45185714Y-45837200D02*
X45280952Y-45884819D01*
X45280952Y-45884819D02*
X45566666Y-45884819D01*
X45566666Y-45884819D02*
X45661904Y-45837200D01*
X45661904Y-45837200D02*
X45709523Y-45789580D01*
X44709523Y-44980057D02*
X44661904Y-44932438D01*
X44661904Y-44932438D02*
X44566666Y-44884819D01*
X44566666Y-44884819D02*
X44328571Y-44884819D01*
X44328571Y-44884819D02*
X44233333Y-44932438D01*
X44233333Y-44932438D02*
X44185714Y-44980057D01*
X44185714Y-44980057D02*
X44138095Y-45075295D01*
X44138095Y-45075295D02*
X44138095Y-45170533D01*
X44138095Y-45170533D02*
X44185714Y-45313390D01*
X44185714Y-45313390D02*
X44757142Y-45884819D01*
X44757142Y-45884819D02*
X44138095Y-45884819D01*
X44842857Y-47589580D02*
X44890476Y-47637200D01*
X44890476Y-47637200D02*
X45033333Y-47684819D01*
X45033333Y-47684819D02*
X45128571Y-47684819D01*
X45128571Y-47684819D02*
X45271428Y-47637200D01*
X45271428Y-47637200D02*
X45366666Y-47541961D01*
X45366666Y-47541961D02*
X45414285Y-47446723D01*
X45414285Y-47446723D02*
X45461904Y-47256247D01*
X45461904Y-47256247D02*
X45461904Y-47113390D01*
X45461904Y-47113390D02*
X45414285Y-46922914D01*
X45414285Y-46922914D02*
X45366666Y-46827676D01*
X45366666Y-46827676D02*
X45271428Y-46732438D01*
X45271428Y-46732438D02*
X45128571Y-46684819D01*
X45128571Y-46684819D02*
X45033333Y-46684819D01*
X45033333Y-46684819D02*
X44890476Y-46732438D01*
X44890476Y-46732438D02*
X44842857Y-46780057D01*
X44509523Y-46684819D02*
X43890476Y-46684819D01*
X43890476Y-46684819D02*
X44223809Y-47065771D01*
X44223809Y-47065771D02*
X44080952Y-47065771D01*
X44080952Y-47065771D02*
X43985714Y-47113390D01*
X43985714Y-47113390D02*
X43938095Y-47161009D01*
X43938095Y-47161009D02*
X43890476Y-47256247D01*
X43890476Y-47256247D02*
X43890476Y-47494342D01*
X43890476Y-47494342D02*
X43938095Y-47589580D01*
X43938095Y-47589580D02*
X43985714Y-47637200D01*
X43985714Y-47637200D02*
X44080952Y-47684819D01*
X44080952Y-47684819D02*
X44366666Y-47684819D01*
X44366666Y-47684819D02*
X44461904Y-47637200D01*
X44461904Y-47637200D02*
X44509523Y-47589580D01*
X43557142Y-46684819D02*
X42938095Y-46684819D01*
X42938095Y-46684819D02*
X43271428Y-47065771D01*
X43271428Y-47065771D02*
X43128571Y-47065771D01*
X43128571Y-47065771D02*
X43033333Y-47113390D01*
X43033333Y-47113390D02*
X42985714Y-47161009D01*
X42985714Y-47161009D02*
X42938095Y-47256247D01*
X42938095Y-47256247D02*
X42938095Y-47494342D01*
X42938095Y-47494342D02*
X42985714Y-47589580D01*
X42985714Y-47589580D02*
X43033333Y-47637200D01*
X43033333Y-47637200D02*
X43128571Y-47684819D01*
X43128571Y-47684819D02*
X43414285Y-47684819D01*
X43414285Y-47684819D02*
X43509523Y-47637200D01*
X43509523Y-47637200D02*
X43557142Y-47589580D01*
X51242857Y-49284819D02*
X51576190Y-48808628D01*
X51814285Y-49284819D02*
X51814285Y-48284819D01*
X51814285Y-48284819D02*
X51433333Y-48284819D01*
X51433333Y-48284819D02*
X51338095Y-48332438D01*
X51338095Y-48332438D02*
X51290476Y-48380057D01*
X51290476Y-48380057D02*
X51242857Y-48475295D01*
X51242857Y-48475295D02*
X51242857Y-48618152D01*
X51242857Y-48618152D02*
X51290476Y-48713390D01*
X51290476Y-48713390D02*
X51338095Y-48761009D01*
X51338095Y-48761009D02*
X51433333Y-48808628D01*
X51433333Y-48808628D02*
X51814285Y-48808628D01*
X50909523Y-48284819D02*
X50290476Y-48284819D01*
X50290476Y-48284819D02*
X50623809Y-48665771D01*
X50623809Y-48665771D02*
X50480952Y-48665771D01*
X50480952Y-48665771D02*
X50385714Y-48713390D01*
X50385714Y-48713390D02*
X50338095Y-48761009D01*
X50338095Y-48761009D02*
X50290476Y-48856247D01*
X50290476Y-48856247D02*
X50290476Y-49094342D01*
X50290476Y-49094342D02*
X50338095Y-49189580D01*
X50338095Y-49189580D02*
X50385714Y-49237200D01*
X50385714Y-49237200D02*
X50480952Y-49284819D01*
X50480952Y-49284819D02*
X50766666Y-49284819D01*
X50766666Y-49284819D02*
X50861904Y-49237200D01*
X50861904Y-49237200D02*
X50909523Y-49189580D01*
X49909523Y-48380057D02*
X49861904Y-48332438D01*
X49861904Y-48332438D02*
X49766666Y-48284819D01*
X49766666Y-48284819D02*
X49528571Y-48284819D01*
X49528571Y-48284819D02*
X49433333Y-48332438D01*
X49433333Y-48332438D02*
X49385714Y-48380057D01*
X49385714Y-48380057D02*
X49338095Y-48475295D01*
X49338095Y-48475295D02*
X49338095Y-48570533D01*
X49338095Y-48570533D02*
X49385714Y-48713390D01*
X49385714Y-48713390D02*
X49957142Y-49284819D01*
X49957142Y-49284819D02*
X49338095Y-49284819D01*
X53642857Y-45684819D02*
X53976190Y-45208628D01*
X54214285Y-45684819D02*
X54214285Y-44684819D01*
X54214285Y-44684819D02*
X53833333Y-44684819D01*
X53833333Y-44684819D02*
X53738095Y-44732438D01*
X53738095Y-44732438D02*
X53690476Y-44780057D01*
X53690476Y-44780057D02*
X53642857Y-44875295D01*
X53642857Y-44875295D02*
X53642857Y-45018152D01*
X53642857Y-45018152D02*
X53690476Y-45113390D01*
X53690476Y-45113390D02*
X53738095Y-45161009D01*
X53738095Y-45161009D02*
X53833333Y-45208628D01*
X53833333Y-45208628D02*
X54214285Y-45208628D01*
X53309523Y-44684819D02*
X52690476Y-44684819D01*
X52690476Y-44684819D02*
X53023809Y-45065771D01*
X53023809Y-45065771D02*
X52880952Y-45065771D01*
X52880952Y-45065771D02*
X52785714Y-45113390D01*
X52785714Y-45113390D02*
X52738095Y-45161009D01*
X52738095Y-45161009D02*
X52690476Y-45256247D01*
X52690476Y-45256247D02*
X52690476Y-45494342D01*
X52690476Y-45494342D02*
X52738095Y-45589580D01*
X52738095Y-45589580D02*
X52785714Y-45637200D01*
X52785714Y-45637200D02*
X52880952Y-45684819D01*
X52880952Y-45684819D02*
X53166666Y-45684819D01*
X53166666Y-45684819D02*
X53261904Y-45637200D01*
X53261904Y-45637200D02*
X53309523Y-45589580D01*
X52357142Y-44684819D02*
X51690476Y-44684819D01*
X51690476Y-44684819D02*
X52119047Y-45684819D01*
X41761904Y-43754819D02*
X41761904Y-44564342D01*
X41761904Y-44564342D02*
X41714285Y-44659580D01*
X41714285Y-44659580D02*
X41666666Y-44707200D01*
X41666666Y-44707200D02*
X41571428Y-44754819D01*
X41571428Y-44754819D02*
X41380952Y-44754819D01*
X41380952Y-44754819D02*
X41285714Y-44707200D01*
X41285714Y-44707200D02*
X41238095Y-44659580D01*
X41238095Y-44659580D02*
X41190476Y-44564342D01*
X41190476Y-44564342D02*
X41190476Y-43754819D01*
X40571428Y-44183390D02*
X40666666Y-44135771D01*
X40666666Y-44135771D02*
X40714285Y-44088152D01*
X40714285Y-44088152D02*
X40761904Y-43992914D01*
X40761904Y-43992914D02*
X40761904Y-43945295D01*
X40761904Y-43945295D02*
X40714285Y-43850057D01*
X40714285Y-43850057D02*
X40666666Y-43802438D01*
X40666666Y-43802438D02*
X40571428Y-43754819D01*
X40571428Y-43754819D02*
X40380952Y-43754819D01*
X40380952Y-43754819D02*
X40285714Y-43802438D01*
X40285714Y-43802438D02*
X40238095Y-43850057D01*
X40238095Y-43850057D02*
X40190476Y-43945295D01*
X40190476Y-43945295D02*
X40190476Y-43992914D01*
X40190476Y-43992914D02*
X40238095Y-44088152D01*
X40238095Y-44088152D02*
X40285714Y-44135771D01*
X40285714Y-44135771D02*
X40380952Y-44183390D01*
X40380952Y-44183390D02*
X40571428Y-44183390D01*
X40571428Y-44183390D02*
X40666666Y-44231009D01*
X40666666Y-44231009D02*
X40714285Y-44278628D01*
X40714285Y-44278628D02*
X40761904Y-44373866D01*
X40761904Y-44373866D02*
X40761904Y-44564342D01*
X40761904Y-44564342D02*
X40714285Y-44659580D01*
X40714285Y-44659580D02*
X40666666Y-44707200D01*
X40666666Y-44707200D02*
X40571428Y-44754819D01*
X40571428Y-44754819D02*
X40380952Y-44754819D01*
X40380952Y-44754819D02*
X40285714Y-44707200D01*
X40285714Y-44707200D02*
X40238095Y-44659580D01*
X40238095Y-44659580D02*
X40190476Y-44564342D01*
X40190476Y-44564342D02*
X40190476Y-44373866D01*
X40190476Y-44373866D02*
X40238095Y-44278628D01*
X40238095Y-44278628D02*
X40285714Y-44231009D01*
X40285714Y-44231009D02*
X40380952Y-44183390D01*
X44842857Y-49484819D02*
X45176190Y-49008628D01*
X45414285Y-49484819D02*
X45414285Y-48484819D01*
X45414285Y-48484819D02*
X45033333Y-48484819D01*
X45033333Y-48484819D02*
X44938095Y-48532438D01*
X44938095Y-48532438D02*
X44890476Y-48580057D01*
X44890476Y-48580057D02*
X44842857Y-48675295D01*
X44842857Y-48675295D02*
X44842857Y-48818152D01*
X44842857Y-48818152D02*
X44890476Y-48913390D01*
X44890476Y-48913390D02*
X44938095Y-48961009D01*
X44938095Y-48961009D02*
X45033333Y-49008628D01*
X45033333Y-49008628D02*
X45414285Y-49008628D01*
X44509523Y-48484819D02*
X43890476Y-48484819D01*
X43890476Y-48484819D02*
X44223809Y-48865771D01*
X44223809Y-48865771D02*
X44080952Y-48865771D01*
X44080952Y-48865771D02*
X43985714Y-48913390D01*
X43985714Y-48913390D02*
X43938095Y-48961009D01*
X43938095Y-48961009D02*
X43890476Y-49056247D01*
X43890476Y-49056247D02*
X43890476Y-49294342D01*
X43890476Y-49294342D02*
X43938095Y-49389580D01*
X43938095Y-49389580D02*
X43985714Y-49437200D01*
X43985714Y-49437200D02*
X44080952Y-49484819D01*
X44080952Y-49484819D02*
X44366666Y-49484819D01*
X44366666Y-49484819D02*
X44461904Y-49437200D01*
X44461904Y-49437200D02*
X44509523Y-49389580D01*
X43557142Y-48484819D02*
X42938095Y-48484819D01*
X42938095Y-48484819D02*
X43271428Y-48865771D01*
X43271428Y-48865771D02*
X43128571Y-48865771D01*
X43128571Y-48865771D02*
X43033333Y-48913390D01*
X43033333Y-48913390D02*
X42985714Y-48961009D01*
X42985714Y-48961009D02*
X42938095Y-49056247D01*
X42938095Y-49056247D02*
X42938095Y-49294342D01*
X42938095Y-49294342D02*
X42985714Y-49389580D01*
X42985714Y-49389580D02*
X43033333Y-49437200D01*
X43033333Y-49437200D02*
X43128571Y-49484819D01*
X43128571Y-49484819D02*
X43414285Y-49484819D01*
X43414285Y-49484819D02*
X43509523Y-49437200D01*
X43509523Y-49437200D02*
X43557142Y-49389580D01*
X41642857Y-48189580D02*
X41690476Y-48237200D01*
X41690476Y-48237200D02*
X41833333Y-48284819D01*
X41833333Y-48284819D02*
X41928571Y-48284819D01*
X41928571Y-48284819D02*
X42071428Y-48237200D01*
X42071428Y-48237200D02*
X42166666Y-48141961D01*
X42166666Y-48141961D02*
X42214285Y-48046723D01*
X42214285Y-48046723D02*
X42261904Y-47856247D01*
X42261904Y-47856247D02*
X42261904Y-47713390D01*
X42261904Y-47713390D02*
X42214285Y-47522914D01*
X42214285Y-47522914D02*
X42166666Y-47427676D01*
X42166666Y-47427676D02*
X42071428Y-47332438D01*
X42071428Y-47332438D02*
X41928571Y-47284819D01*
X41928571Y-47284819D02*
X41833333Y-47284819D01*
X41833333Y-47284819D02*
X41690476Y-47332438D01*
X41690476Y-47332438D02*
X41642857Y-47380057D01*
X41309523Y-47284819D02*
X40690476Y-47284819D01*
X40690476Y-47284819D02*
X41023809Y-47665771D01*
X41023809Y-47665771D02*
X40880952Y-47665771D01*
X40880952Y-47665771D02*
X40785714Y-47713390D01*
X40785714Y-47713390D02*
X40738095Y-47761009D01*
X40738095Y-47761009D02*
X40690476Y-47856247D01*
X40690476Y-47856247D02*
X40690476Y-48094342D01*
X40690476Y-48094342D02*
X40738095Y-48189580D01*
X40738095Y-48189580D02*
X40785714Y-48237200D01*
X40785714Y-48237200D02*
X40880952Y-48284819D01*
X40880952Y-48284819D02*
X41166666Y-48284819D01*
X41166666Y-48284819D02*
X41261904Y-48237200D01*
X41261904Y-48237200D02*
X41309523Y-48189580D01*
X39785714Y-47284819D02*
X40261904Y-47284819D01*
X40261904Y-47284819D02*
X40309523Y-47761009D01*
X40309523Y-47761009D02*
X40261904Y-47713390D01*
X40261904Y-47713390D02*
X40166666Y-47665771D01*
X40166666Y-47665771D02*
X39928571Y-47665771D01*
X39928571Y-47665771D02*
X39833333Y-47713390D01*
X39833333Y-47713390D02*
X39785714Y-47761009D01*
X39785714Y-47761009D02*
X39738095Y-47856247D01*
X39738095Y-47856247D02*
X39738095Y-48094342D01*
X39738095Y-48094342D02*
X39785714Y-48189580D01*
X39785714Y-48189580D02*
X39833333Y-48237200D01*
X39833333Y-48237200D02*
X39928571Y-48284819D01*
X39928571Y-48284819D02*
X40166666Y-48284819D01*
X40166666Y-48284819D02*
X40261904Y-48237200D01*
X40261904Y-48237200D02*
X40309523Y-48189580D01*
X53642857Y-47389580D02*
X53690476Y-47437200D01*
X53690476Y-47437200D02*
X53833333Y-47484819D01*
X53833333Y-47484819D02*
X53928571Y-47484819D01*
X53928571Y-47484819D02*
X54071428Y-47437200D01*
X54071428Y-47437200D02*
X54166666Y-47341961D01*
X54166666Y-47341961D02*
X54214285Y-47246723D01*
X54214285Y-47246723D02*
X54261904Y-47056247D01*
X54261904Y-47056247D02*
X54261904Y-46913390D01*
X54261904Y-46913390D02*
X54214285Y-46722914D01*
X54214285Y-46722914D02*
X54166666Y-46627676D01*
X54166666Y-46627676D02*
X54071428Y-46532438D01*
X54071428Y-46532438D02*
X53928571Y-46484819D01*
X53928571Y-46484819D02*
X53833333Y-46484819D01*
X53833333Y-46484819D02*
X53690476Y-46532438D01*
X53690476Y-46532438D02*
X53642857Y-46580057D01*
X53309523Y-46484819D02*
X52690476Y-46484819D01*
X52690476Y-46484819D02*
X53023809Y-46865771D01*
X53023809Y-46865771D02*
X52880952Y-46865771D01*
X52880952Y-46865771D02*
X52785714Y-46913390D01*
X52785714Y-46913390D02*
X52738095Y-46961009D01*
X52738095Y-46961009D02*
X52690476Y-47056247D01*
X52690476Y-47056247D02*
X52690476Y-47294342D01*
X52690476Y-47294342D02*
X52738095Y-47389580D01*
X52738095Y-47389580D02*
X52785714Y-47437200D01*
X52785714Y-47437200D02*
X52880952Y-47484819D01*
X52880952Y-47484819D02*
X53166666Y-47484819D01*
X53166666Y-47484819D02*
X53261904Y-47437200D01*
X53261904Y-47437200D02*
X53309523Y-47389580D01*
X51833333Y-46484819D02*
X52023809Y-46484819D01*
X52023809Y-46484819D02*
X52119047Y-46532438D01*
X52119047Y-46532438D02*
X52166666Y-46580057D01*
X52166666Y-46580057D02*
X52261904Y-46722914D01*
X52261904Y-46722914D02*
X52309523Y-46913390D01*
X52309523Y-46913390D02*
X52309523Y-47294342D01*
X52309523Y-47294342D02*
X52261904Y-47389580D01*
X52261904Y-47389580D02*
X52214285Y-47437200D01*
X52214285Y-47437200D02*
X52119047Y-47484819D01*
X52119047Y-47484819D02*
X51928571Y-47484819D01*
X51928571Y-47484819D02*
X51833333Y-47437200D01*
X51833333Y-47437200D02*
X51785714Y-47389580D01*
X51785714Y-47389580D02*
X51738095Y-47294342D01*
X51738095Y-47294342D02*
X51738095Y-47056247D01*
X51738095Y-47056247D02*
X51785714Y-46961009D01*
X51785714Y-46961009D02*
X51833333Y-46913390D01*
X51833333Y-46913390D02*
X51928571Y-46865771D01*
X51928571Y-46865771D02*
X52119047Y-46865771D01*
X52119047Y-46865771D02*
X52214285Y-46913390D01*
X52214285Y-46913390D02*
X52261904Y-46961009D01*
X52261904Y-46961009D02*
X52309523Y-47056247D01*
X54884819Y-47357142D02*
X54408628Y-47023809D01*
X54884819Y-46785714D02*
X53884819Y-46785714D01*
X53884819Y-46785714D02*
X53884819Y-47166666D01*
X53884819Y-47166666D02*
X53932438Y-47261904D01*
X53932438Y-47261904D02*
X53980057Y-47309523D01*
X53980057Y-47309523D02*
X54075295Y-47357142D01*
X54075295Y-47357142D02*
X54218152Y-47357142D01*
X54218152Y-47357142D02*
X54313390Y-47309523D01*
X54313390Y-47309523D02*
X54361009Y-47261904D01*
X54361009Y-47261904D02*
X54408628Y-47166666D01*
X54408628Y-47166666D02*
X54408628Y-46785714D01*
X53884819Y-47690476D02*
X53884819Y-48309523D01*
X53884819Y-48309523D02*
X54265771Y-47976190D01*
X54265771Y-47976190D02*
X54265771Y-48119047D01*
X54265771Y-48119047D02*
X54313390Y-48214285D01*
X54313390Y-48214285D02*
X54361009Y-48261904D01*
X54361009Y-48261904D02*
X54456247Y-48309523D01*
X54456247Y-48309523D02*
X54694342Y-48309523D01*
X54694342Y-48309523D02*
X54789580Y-48261904D01*
X54789580Y-48261904D02*
X54837200Y-48214285D01*
X54837200Y-48214285D02*
X54884819Y-48119047D01*
X54884819Y-48119047D02*
X54884819Y-47833333D01*
X54884819Y-47833333D02*
X54837200Y-47738095D01*
X54837200Y-47738095D02*
X54789580Y-47690476D01*
X54218152Y-49166666D02*
X54884819Y-49166666D01*
X53837200Y-48928571D02*
X54551485Y-48690476D01*
X54551485Y-48690476D02*
X54551485Y-49309523D01*
X40642857Y-46389580D02*
X40690476Y-46437200D01*
X40690476Y-46437200D02*
X40833333Y-46484819D01*
X40833333Y-46484819D02*
X40928571Y-46484819D01*
X40928571Y-46484819D02*
X41071428Y-46437200D01*
X41071428Y-46437200D02*
X41166666Y-46341961D01*
X41166666Y-46341961D02*
X41214285Y-46246723D01*
X41214285Y-46246723D02*
X41261904Y-46056247D01*
X41261904Y-46056247D02*
X41261904Y-45913390D01*
X41261904Y-45913390D02*
X41214285Y-45722914D01*
X41214285Y-45722914D02*
X41166666Y-45627676D01*
X41166666Y-45627676D02*
X41071428Y-45532438D01*
X41071428Y-45532438D02*
X40928571Y-45484819D01*
X40928571Y-45484819D02*
X40833333Y-45484819D01*
X40833333Y-45484819D02*
X40690476Y-45532438D01*
X40690476Y-45532438D02*
X40642857Y-45580057D01*
X40309523Y-45484819D02*
X39690476Y-45484819D01*
X39690476Y-45484819D02*
X40023809Y-45865771D01*
X40023809Y-45865771D02*
X39880952Y-45865771D01*
X39880952Y-45865771D02*
X39785714Y-45913390D01*
X39785714Y-45913390D02*
X39738095Y-45961009D01*
X39738095Y-45961009D02*
X39690476Y-46056247D01*
X39690476Y-46056247D02*
X39690476Y-46294342D01*
X39690476Y-46294342D02*
X39738095Y-46389580D01*
X39738095Y-46389580D02*
X39785714Y-46437200D01*
X39785714Y-46437200D02*
X39880952Y-46484819D01*
X39880952Y-46484819D02*
X40166666Y-46484819D01*
X40166666Y-46484819D02*
X40261904Y-46437200D01*
X40261904Y-46437200D02*
X40309523Y-46389580D01*
X38833333Y-45818152D02*
X38833333Y-46484819D01*
X39071428Y-45437200D02*
X39309523Y-46151485D01*
X39309523Y-46151485D02*
X38690476Y-46151485D01*
X48550057Y-40904761D02*
X48502438Y-40809523D01*
X48502438Y-40809523D02*
X48407200Y-40714285D01*
X48407200Y-40714285D02*
X48264342Y-40571428D01*
X48264342Y-40571428D02*
X48216723Y-40476190D01*
X48216723Y-40476190D02*
X48216723Y-40380952D01*
X48454819Y-40428571D02*
X48407200Y-40333333D01*
X48407200Y-40333333D02*
X48311961Y-40238095D01*
X48311961Y-40238095D02*
X48121485Y-40190476D01*
X48121485Y-40190476D02*
X47788152Y-40190476D01*
X47788152Y-40190476D02*
X47597676Y-40238095D01*
X47597676Y-40238095D02*
X47502438Y-40333333D01*
X47502438Y-40333333D02*
X47454819Y-40428571D01*
X47454819Y-40428571D02*
X47454819Y-40619047D01*
X47454819Y-40619047D02*
X47502438Y-40714285D01*
X47502438Y-40714285D02*
X47597676Y-40809523D01*
X47597676Y-40809523D02*
X47788152Y-40857142D01*
X47788152Y-40857142D02*
X48121485Y-40857142D01*
X48121485Y-40857142D02*
X48311961Y-40809523D01*
X48311961Y-40809523D02*
X48407200Y-40714285D01*
X48407200Y-40714285D02*
X48454819Y-40619047D01*
X48454819Y-40619047D02*
X48454819Y-40428571D01*
X47550057Y-41238095D02*
X47502438Y-41285714D01*
X47502438Y-41285714D02*
X47454819Y-41380952D01*
X47454819Y-41380952D02*
X47454819Y-41619047D01*
X47454819Y-41619047D02*
X47502438Y-41714285D01*
X47502438Y-41714285D02*
X47550057Y-41761904D01*
X47550057Y-41761904D02*
X47645295Y-41809523D01*
X47645295Y-41809523D02*
X47740533Y-41809523D01*
X47740533Y-41809523D02*
X47883390Y-41761904D01*
X47883390Y-41761904D02*
X48454819Y-41190476D01*
X48454819Y-41190476D02*
X48454819Y-41809523D01*
X48042857Y-49084819D02*
X48376190Y-48608628D01*
X48614285Y-49084819D02*
X48614285Y-48084819D01*
X48614285Y-48084819D02*
X48233333Y-48084819D01*
X48233333Y-48084819D02*
X48138095Y-48132438D01*
X48138095Y-48132438D02*
X48090476Y-48180057D01*
X48090476Y-48180057D02*
X48042857Y-48275295D01*
X48042857Y-48275295D02*
X48042857Y-48418152D01*
X48042857Y-48418152D02*
X48090476Y-48513390D01*
X48090476Y-48513390D02*
X48138095Y-48561009D01*
X48138095Y-48561009D02*
X48233333Y-48608628D01*
X48233333Y-48608628D02*
X48614285Y-48608628D01*
X47709523Y-48084819D02*
X47090476Y-48084819D01*
X47090476Y-48084819D02*
X47423809Y-48465771D01*
X47423809Y-48465771D02*
X47280952Y-48465771D01*
X47280952Y-48465771D02*
X47185714Y-48513390D01*
X47185714Y-48513390D02*
X47138095Y-48561009D01*
X47138095Y-48561009D02*
X47090476Y-48656247D01*
X47090476Y-48656247D02*
X47090476Y-48894342D01*
X47090476Y-48894342D02*
X47138095Y-48989580D01*
X47138095Y-48989580D02*
X47185714Y-49037200D01*
X47185714Y-49037200D02*
X47280952Y-49084819D01*
X47280952Y-49084819D02*
X47566666Y-49084819D01*
X47566666Y-49084819D02*
X47661904Y-49037200D01*
X47661904Y-49037200D02*
X47709523Y-48989580D01*
X46138095Y-49084819D02*
X46709523Y-49084819D01*
X46423809Y-49084819D02*
X46423809Y-48084819D01*
X46423809Y-48084819D02*
X46519047Y-48227676D01*
X46519047Y-48227676D02*
X46614285Y-48322914D01*
X46614285Y-48322914D02*
X46709523Y-48370533D01*
X43284819Y-48157142D02*
X42808628Y-47823809D01*
X43284819Y-47585714D02*
X42284819Y-47585714D01*
X42284819Y-47585714D02*
X42284819Y-47966666D01*
X42284819Y-47966666D02*
X42332438Y-48061904D01*
X42332438Y-48061904D02*
X42380057Y-48109523D01*
X42380057Y-48109523D02*
X42475295Y-48157142D01*
X42475295Y-48157142D02*
X42618152Y-48157142D01*
X42618152Y-48157142D02*
X42713390Y-48109523D01*
X42713390Y-48109523D02*
X42761009Y-48061904D01*
X42761009Y-48061904D02*
X42808628Y-47966666D01*
X42808628Y-47966666D02*
X42808628Y-47585714D01*
X42284819Y-48490476D02*
X42284819Y-49109523D01*
X42284819Y-49109523D02*
X42665771Y-48776190D01*
X42665771Y-48776190D02*
X42665771Y-48919047D01*
X42665771Y-48919047D02*
X42713390Y-49014285D01*
X42713390Y-49014285D02*
X42761009Y-49061904D01*
X42761009Y-49061904D02*
X42856247Y-49109523D01*
X42856247Y-49109523D02*
X43094342Y-49109523D01*
X43094342Y-49109523D02*
X43189580Y-49061904D01*
X43189580Y-49061904D02*
X43237200Y-49014285D01*
X43237200Y-49014285D02*
X43284819Y-48919047D01*
X43284819Y-48919047D02*
X43284819Y-48633333D01*
X43284819Y-48633333D02*
X43237200Y-48538095D01*
X43237200Y-48538095D02*
X43189580Y-48490476D01*
X42284819Y-50014285D02*
X42284819Y-49538095D01*
X42284819Y-49538095D02*
X42761009Y-49490476D01*
X42761009Y-49490476D02*
X42713390Y-49538095D01*
X42713390Y-49538095D02*
X42665771Y-49633333D01*
X42665771Y-49633333D02*
X42665771Y-49871428D01*
X42665771Y-49871428D02*
X42713390Y-49966666D01*
X42713390Y-49966666D02*
X42761009Y-50014285D01*
X42761009Y-50014285D02*
X42856247Y-50061904D01*
X42856247Y-50061904D02*
X43094342Y-50061904D01*
X43094342Y-50061904D02*
X43189580Y-50014285D01*
X43189580Y-50014285D02*
X43237200Y-49966666D01*
X43237200Y-49966666D02*
X43284819Y-49871428D01*
X43284819Y-49871428D02*
X43284819Y-49633333D01*
X43284819Y-49633333D02*
X43237200Y-49538095D01*
X43237200Y-49538095D02*
X43189580Y-49490476D01*
%TO.C,SW5*%
D14*
X30350000Y-48600000D02*
X30350000Y-48900000D01*
X30350000Y-51400000D02*
X30350000Y-51100000D01*
X33650000Y-48600000D02*
X30350000Y-48600000D01*
X33650000Y-48900000D02*
X33650000Y-48600000D01*
X33650000Y-51100000D02*
X33650000Y-51400000D01*
X33650000Y-51400000D02*
X30350000Y-51400000D01*
%TO.C,SW6*%
X36350000Y-48600000D02*
X36350000Y-48900000D01*
X36350000Y-51400000D02*
X36350000Y-51100000D01*
X39650000Y-48600000D02*
X36350000Y-48600000D01*
X39650000Y-48900000D02*
X39650000Y-48600000D01*
X39650000Y-51100000D02*
X39650000Y-51400000D01*
X39650000Y-51400000D02*
X36350000Y-51400000D01*
%TO.C,Q3*%
X48640000Y-43040000D02*
X48640000Y-43090000D01*
X48640000Y-44210000D02*
X48640000Y-44990000D01*
X48640000Y-46110000D02*
X48640000Y-46160000D01*
X48640000Y-46160000D02*
X50160000Y-46160000D01*
X50160000Y-43040000D02*
X48640000Y-43040000D01*
X50160000Y-44040000D02*
X50160000Y-43040000D01*
X50160000Y-46160000D02*
X50160000Y-45160000D01*
X48100000Y-44980000D02*
X48340000Y-44650000D01*
X47860000Y-44650000D01*
X48100000Y-44980000D01*
G36*
X48100000Y-44980000D02*
G01*
X47860000Y-44650000D01*
X48340000Y-44650000D01*
X48100000Y-44980000D01*
G37*
%TO.C,R36*%
X47677500Y-41237258D02*
X47677500Y-40762742D01*
X48722500Y-41237258D02*
X48722500Y-40762742D01*
%TO.C,J2*%
X5915000Y-23025000D02*
X9525000Y-23025000D01*
X5915000Y-23475000D02*
X5915000Y-23025000D01*
X5915000Y-35075000D02*
X5915000Y-36995000D01*
X5915000Y-36995000D02*
X19925000Y-36995000D01*
X11225000Y-23025000D02*
X15925000Y-23025000D01*
X17225000Y-23025000D02*
X19025000Y-23025000D01*
X21835000Y-26125000D02*
X21835000Y-32495000D01*
X21835000Y-26125000D02*
X21985000Y-26125000D01*
X21985000Y-35515000D02*
X21985000Y-35775000D01*
X22185000Y-24055000D02*
X21985000Y-23855000D01*
X22185000Y-24055000D02*
X22185000Y-25915000D01*
X22185000Y-25915000D02*
X21985000Y-26125000D01*
X22185000Y-33005000D02*
X21835000Y-32495000D01*
X22185000Y-35315000D02*
X21985000Y-35515000D01*
X22185000Y-35315000D02*
X22185000Y-33005000D01*
%TO.C,C32*%
X45259420Y-43490000D02*
X45540580Y-43490000D01*
X45259420Y-44510000D02*
X45540580Y-44510000D01*
%TO.C,C33*%
X44059420Y-45290000D02*
X44340580Y-45290000D01*
X44059420Y-46310000D02*
X44340580Y-46310000D01*
%TO.C,R32*%
X50362742Y-46877500D02*
X50837258Y-46877500D01*
X50362742Y-47922500D02*
X50837258Y-47922500D01*
%TO.C,R37*%
X52762742Y-43277500D02*
X53237258Y-43277500D01*
X52762742Y-44322500D02*
X53237258Y-44322500D01*
%TO.C,U8*%
X38890000Y-38890000D02*
X38890000Y-39365000D01*
X38890000Y-42635000D02*
X38890000Y-43110000D01*
X38890000Y-43110000D02*
X39365000Y-43110000D01*
X39365000Y-38890000D02*
X38890000Y-38890000D01*
X42635000Y-43110000D02*
X43110000Y-43110000D01*
X43110000Y-38890000D02*
X42635000Y-38890000D01*
X43110000Y-39365000D02*
X43110000Y-38890000D01*
X43110000Y-43110000D02*
X43110000Y-42635000D01*
X38390000Y-42250000D02*
X38060000Y-42010000D01*
X38060000Y-42490000D01*
X38390000Y-42250000D01*
G36*
X38390000Y-42250000D02*
G01*
X38060000Y-42490000D01*
X38060000Y-42010000D01*
X38390000Y-42250000D01*
G37*
%TO.C,R33*%
X43962742Y-47077500D02*
X44437258Y-47077500D01*
X43962742Y-48122500D02*
X44437258Y-48122500D01*
%TO.C,C35*%
X40859420Y-45890000D02*
X41140580Y-45890000D01*
X40859420Y-46910000D02*
X41140580Y-46910000D01*
%TO.C,C36*%
X52859420Y-45090000D02*
X53140580Y-45090000D01*
X52859420Y-46110000D02*
X53140580Y-46110000D01*
%TO.C,R34*%
X52477500Y-48237258D02*
X52477500Y-47762742D01*
X53522500Y-48237258D02*
X53522500Y-47762742D01*
%TO.C,C34*%
X39859420Y-44090000D02*
X40140580Y-44090000D01*
X39859420Y-45110000D02*
X40140580Y-45110000D01*
%TO.C,Q2*%
X44040000Y-40240000D02*
X44040000Y-41760000D01*
X44040000Y-41760000D02*
X44090000Y-41760000D01*
X45040000Y-40240000D02*
X44040000Y-40240000D01*
X45210000Y-41760000D02*
X45990000Y-41760000D01*
X47110000Y-41760000D02*
X47160000Y-41760000D01*
X47160000Y-40240000D02*
X46160000Y-40240000D01*
X47160000Y-41760000D02*
X47160000Y-40240000D01*
X45980000Y-42300000D02*
X45650000Y-42060000D01*
X45650000Y-42540000D01*
X45980000Y-42300000D01*
G36*
X45980000Y-42300000D02*
G01*
X45650000Y-42540000D01*
X45650000Y-42060000D01*
X45980000Y-42300000D01*
G37*
%TO.C,R31*%
X47162742Y-46677500D02*
X47637258Y-46677500D01*
X47162742Y-47722500D02*
X47637258Y-47722500D01*
%TO.C,R35*%
X40877500Y-49037258D02*
X40877500Y-48562742D01*
X41922500Y-49037258D02*
X41922500Y-48562742D01*
%TD*%
M02*
