M48
; DRILL file KiCad 10.0.6-1.fc44 date 2026-09-14T18:45:27
; FORMAT={-:-/ absolute / metric / decimal}
; #@! TF.CreationDate,2026-09-14T18:45:27+07:00
; #@! TF.GenerationSoftware,Kicad,Pcbnew,10.0.6-1.fc44
; #@! TF.FileFunction,MixedPlating,1,4
FMAT,2
METRIC
; #@! TA.AperFunction,Plated,PTH,ComponentDrill
T1C0.200
; #@! TA.AperFunction,Plated,PTH,ViaDrill
T2C0.250
; #@! TA.AperFunction,Plated,PTH,ComponentDrill
T3C0.600
; #@! TA.AperFunction,Plated,PTH,ComponentDrill
T4C1.000
; #@! TA.AperFunction,Plated,PTH,ComponentDrill
T5C1.500
; #@! TA.AperFunction,NonPlated,NPTH,ComponentDrill
T6C0.650
; #@! TA.AperFunction,NonPlated,NPTH,ComponentDrill
T7C0.900
; #@! TA.AperFunction,NonPlated,NPTH,ComponentDrill
T8C2.200
%
G90
G05
T1
X60.1Y-14.51
X60.1Y-15.91
X60.8Y-13.81
X60.8Y-15.21
X60.8Y-16.61
X61.5Y-14.51
X61.5Y-15.91
X62.2Y-13.81
X62.2Y-15.21
X62.2Y-16.61
X62.9Y-14.51
X62.9Y-15.91
X73.525Y-32.0
X74.5Y-31.275
X74.5Y-32.0
X74.5Y-32.725
X75.475Y-32.0
T2
X1.2Y-3.7
X1.2Y-6.2
X1.2Y-8.7
X1.2Y-11.2
X1.2Y-13.7
X1.2Y-16.2
X1.2Y-18.7
X1.2Y-21.2
X1.2Y-31.2
X1.2Y-33.7
X1.2Y-36.2
X1.2Y-38.7
X1.2Y-41.2
X1.2Y-43.7
X1.2Y-46.2
X1.2Y-48.7
X1.2Y-51.2
X3.45Y-30.272
X3.543Y-25.86
X3.7Y-1.2
X3.7Y-8.7
X3.7Y-11.2
X3.7Y-13.7
X3.7Y-16.2
X3.7Y-18.7
X3.7Y-21.2
X3.7Y-33.7
X3.7Y-36.2
X3.7Y-38.7
X3.7Y-41.2
X3.7Y-43.7
X3.7Y-51.2
X4.524Y-25.507
X5.118Y-33.35
X6.2Y-1.2
X6.2Y-8.7
X6.2Y-11.2
X6.2Y-13.7
X6.2Y-16.2
X6.2Y-18.7
X6.2Y-21.2
X6.2Y-36.2
X6.2Y-38.7
X6.2Y-41.2
X6.2Y-43.7
X6.2Y-51.2
X7.327Y-31.851
X7.335Y-25.652
X7.965Y-30.106
X8.406Y-45.477
X8.5Y-24.793
X8.5Y-26.703
X8.7Y-1.2
X8.7Y-3.7
X8.7Y-6.2
X8.7Y-8.7
X8.7Y-11.2
X8.7Y-13.7
X8.7Y-16.2
X8.7Y-18.7
X8.7Y-21.2
X8.7Y-36.2
X8.7Y-38.7
X8.7Y-41.2
X8.7Y-43.7
X8.7Y-48.7
X8.824Y-24.03
X8.961Y-33.347
X9.005Y-30.233
X10.06Y-47.205
X10.625Y-32.069
X11.2Y-1.2
X11.2Y-3.7
X11.2Y-8.7
X11.2Y-13.7
X11.2Y-18.7
X11.2Y-21.2
X11.2Y-51.2
X12.869Y-48.437
X13.7Y-1.2
X13.7Y-3.7
X13.7Y-18.7
X13.7Y-21.2
X13.7Y-51.2
X13.936Y-47.646
X14.259Y-30.495
X15.512Y-33.433
X15.698Y-43.013
X16.2Y-1.2
X16.2Y-3.7
X16.2Y-6.2
X16.2Y-8.7
X16.2Y-11.2
X16.2Y-18.7
X17.705Y-27.883
X18.7Y-1.2
X18.7Y-3.7
X18.7Y-6.2
X18.7Y-8.7
X18.7Y-11.2
X18.7Y-18.7
X18.7Y-46.2
X18.7Y-51.2
X21.2Y-1.2
X21.2Y-3.7
X21.2Y-6.2
X21.2Y-46.2
X21.456Y-21.73
X22.989Y-46.143
X23.576Y-11.541
X23.7Y-1.2
X23.7Y-3.7
X23.7Y-18.7
X23.7Y-33.7
X23.7Y-36.2
X23.7Y-51.2
X24.099Y-10.244
X25.441Y-18.481
X26.0Y-23.933
X26.147Y-30.711
X26.2Y-1.2
X26.2Y-33.7
X26.2Y-36.2
X26.2Y-41.2
X26.338Y-10.073
X27.307Y-13.965
X27.651Y-23.735
X28.0Y-20.098
X28.141Y-14.526
X28.7Y-1.2
X28.7Y-41.2
X28.823Y-9.551
X29.325Y-15.325
X30.28Y-47.616
X30.779Y-16.737
X31.2Y-1.2
X31.2Y-41.2
X31.2Y-46.2
X31.715Y-15.63
X32.035Y-17.185
X32.037Y-11.534
X32.042Y-12.505
X32.108Y-10.158
X32.498Y-25.798
X32.653Y-11.25
X32.71Y-43.013
X32.71Y-45.477
X33.5Y-32.142
X33.7Y-1.2
X33.7Y-3.7
X34.303Y-12.616
X34.779Y-14.271
X34.973Y-13.612
X35.141Y-46.143
X35.307Y-32.324
X35.625Y-33.489
X35.791Y-40.986
X36.2Y-1.2
X36.2Y-3.7
X36.914Y-25.767
X37.349Y-44.512
X37.415Y-38.682
X37.498Y-43.06
X37.55Y-12.931
X37.571Y-33.435
X37.806Y-17.225
X37.881Y-14.196
X38.165Y-39.423
X38.363Y-44.569
X38.683Y-10.439
X38.7Y-33.7
X38.826Y-38.11
X39.226Y-46.101
X39.553Y-17.982
X39.766Y-37.962
X40.706Y-37.483
X40.789Y-50.868
X41.2Y-33.7
X41.2Y-36.2
X41.593Y-43.902
X41.75Y-23.786
X42.048Y-10.3
X42.12Y-8.642
X42.16Y-44.268
X42.25Y-27.673
X42.425Y-47.488
X42.511Y-12.803
X43.408Y-44.235
X43.7Y-36.2
X43.7Y-51.2
X44.104Y-49.233
X44.473Y-40.674
X44.689Y-21.278
X45.325Y-38.075
X45.402Y-23.529
X45.67Y-48.621
X45.676Y-44.188
X46.276Y-46.245
X46.364Y-17.014
X47.331Y-42.631
X47.341Y-46.276
X48.16Y-44.81
X48.7Y-51.2
X49.086Y-42.564
X49.141Y-46.536
X49.391Y-11.704
X49.504Y-25.767
X49.952Y-45.805
X50.749Y-10.342
X50.797Y-17.809
X52.158Y-12.973
X52.234Y-14.196
X52.424Y-15.911
X52.464Y-20.216
X52.699Y-18.655
X52.807Y-11.09
X52.964Y-10.297
X53.7Y-28.7
X53.7Y-33.7
X53.7Y-36.2
X53.7Y-51.2
X54.262Y-48.501
X54.894Y-45.481
X55.4Y-15.745
X56.2Y-11.2
X56.2Y-28.7
X56.2Y-33.7
X56.2Y-36.2
X56.2Y-38.7
X56.2Y-41.2
X56.356Y-20.173
X56.357Y-18.164
X57.014Y-15.913
X57.246Y-44.558
X58.1Y-31.513
X58.7Y-11.2
X58.7Y-16.2
X58.7Y-36.2
X58.7Y-38.7
X58.7Y-51.2
X60.074Y-12.787
X60.218Y-45.487
X61.2Y-11.2
X61.2Y-51.2
X61.368Y-33.682
X61.875Y-21.726
X63.7Y-11.2
X63.7Y-28.7
X63.7Y-41.2
X64.306Y-20.121
X65.618Y-22.931
X66.2Y-11.2
X66.2Y-13.7
X66.2Y-28.7
X66.736Y-50.404
X68.509Y-26.498
X68.51Y-21.068
X68.7Y-51.2
X69.164Y-10.987
X69.166Y-40.965
X69.495Y-18.376
X69.808Y-7.871
X69.916Y-8.944
X70.515Y-24.748
X71.2Y-41.2
X71.2Y-43.7
X71.2Y-46.2
X71.2Y-48.7
X71.2Y-51.2
X71.341Y-30.593
X72.556Y-30.181
X73.174Y-12.983
X73.643Y-40.55
X73.7Y-43.7
X73.7Y-51.2
X74.027Y-13.449
X75.484Y-33.9
X76.2Y-8.7
X76.2Y-11.2
X76.2Y-13.7
X76.2Y-16.2
X76.2Y-18.7
X76.2Y-21.2
X76.2Y-23.7
X76.2Y-26.2
X76.2Y-28.7
X76.2Y-43.7
X76.2Y-51.2
X78.7Y-8.7
X78.7Y-11.2
X78.7Y-13.7
X78.7Y-16.2
X78.7Y-18.7
X78.7Y-21.2
X78.7Y-23.7
X78.7Y-26.2
X78.7Y-28.7
X78.7Y-31.2
X78.7Y-33.7
X78.7Y-36.2
X78.7Y-43.7
X78.7Y-46.2
X78.7Y-48.7
X78.7Y-51.2
T4
X23.0Y-5.5
X25.54Y-5.5
X28.08Y-5.5
X30.0Y-36.0
X30.62Y-5.5
X32.54Y-36.0
X35.08Y-36.0
X37.62Y-36.0
X52.0Y-33.2
X52.0Y-35.7
X52.0Y-38.2
X66.5Y-33.2
X66.5Y-38.2
T6
X57.11Y-47.695
X62.89Y-47.695
T7
X22.5Y-50.83
X25.5Y-50.83
T8
X5.0Y-5.0
X5.0Y-48.0
X75.0Y-5.0
X75.0Y-48.0
T3
X55.68Y-46.645G85X55.68Y-47.745
G05
X55.68Y-51.075G85X55.68Y-51.675
G05
X64.32Y-46.645G85X64.32Y-47.745
G05
X64.32Y-51.075G85X64.32Y-51.675
G05
T4
X11.5Y-5.25G85X12.5Y-5.25
G05
X11.5Y-11.35G85X12.5Y-11.35
G05
X11.5Y-16.85G85X12.5Y-16.85
G05
X13.5Y-7.65G85X14.5Y-7.65
G05
X13.5Y-13.15G85X14.5Y-13.15
G05
T5
X58.85Y-30.1G85X60.15Y-30.1
G05
X58.85Y-41.3G85X60.15Y-41.3
G05
M30
