%TF.GenerationSoftware,KiCad,Pcbnew,10.0.6-1.fc44*%
%TF.CreationDate,2026-09-14T18:45:26+07:00*%
%TF.ProjectId,poket,706f6b65-742e-46b6-9963-61645f706362,rev?*%
%TF.SameCoordinates,Original*%
%TF.FileFunction,Soldermask,Bot*%
%TF.FilePolarity,Negative*%
%FSLAX46Y46*%
G04 Gerber Fmt 4.6, Leading zero omitted, Abs format (unit mm)*
G04 Created by KiCad (PCBNEW 10.0.6-1.fc44) date 2026-09-14 18:45:26*
%MOMM*%
%LPD*%
G01*
G04 APERTURE LIST*
G04 Aperture macros list*
%AMRoundRect*
0 Rectangle with rounded corners*
0 $1 Rounding radius*
0 $2 $3 $4 $5 $6 $7 $8 $9 X,Y pos of 4 corners*
0 Add a 4 corners polygon primitive as box body*
4,1,4,$2,$3,$4,$5,$6,$7,$8,$9,$2,$3,0*
0 Add four circle primitives for the rounded corners*
1,1,$1+$1,$2,$3*
1,1,$1+$1,$4,$5*
1,1,$1+$1,$6,$7*
1,1,$1+$1,$8,$9*
0 Add four rect primitives between the rounded corners*
20,1,$1+$1,$2,$3,$4,$5,0*
20,1,$1+$1,$4,$5,$6,$7,0*
20,1,$1+$1,$6,$7,$8,$9,0*
20,1,$1+$1,$8,$9,$2,$3,0*%
G04 Aperture macros list end*
%ADD10O,2.800000X1.800000*%
%ADD11C,0.900000*%
%ADD12C,3.200000*%
%ADD13C,0.600000*%
%ADD14R,2.000000X2.000000*%
%ADD15C,2.000000*%
%ADD16R,3.200000X2.000000*%
%ADD17C,0.650000*%
%ADD18O,1.000000X2.100000*%
%ADD19O,1.000000X1.600000*%
%ADD20R,1.700000X1.700000*%
%ADD21C,1.700000*%
%ADD22R,0.900000X1.700000*%
%ADD23RoundRect,0.150000X-0.587500X-0.150000X0.587500X-0.150000X0.587500X0.150000X-0.587500X0.150000X0*%
%ADD24RoundRect,0.200000X0.275000X-0.200000X0.275000X0.200000X-0.275000X0.200000X-0.275000X-0.200000X0*%
%ADD25R,1.200000X0.700000*%
%ADD26R,0.800000X1.000000*%
%ADD27R,2.800000X1.000000*%
%ADD28R,1.200000X1.000000*%
%ADD29R,1.900000X1.300000*%
%ADD30RoundRect,0.225000X-0.225000X-0.250000X0.225000X-0.250000X0.225000X0.250000X-0.225000X0.250000X0*%
%ADD31RoundRect,0.200000X-0.200000X-0.275000X0.200000X-0.275000X0.200000X0.275000X-0.200000X0.275000X0*%
%ADD32RoundRect,0.062500X-0.350000X-0.062500X0.350000X-0.062500X0.350000X0.062500X-0.350000X0.062500X0*%
%ADD33RoundRect,0.062500X-0.062500X-0.350000X0.062500X-0.350000X0.062500X0.350000X-0.062500X0.350000X0*%
%ADD34R,2.600000X2.600000*%
%ADD35RoundRect,0.150000X0.150000X-0.587500X0.150000X0.587500X-0.150000X0.587500X-0.150000X-0.587500X0*%
G04 APERTURE END LIST*
D10*
%TO.C,J3*%
X14000000Y-13150000D03*
X12000000Y-11350000D03*
X12000000Y-5250000D03*
X14000000Y-7650000D03*
X12000000Y-16850000D03*
%TD*%
D11*
%TO.C,SW7*%
X22500000Y-50830000D03*
X25500000Y-50830000D03*
%TD*%
D12*
%TO.C,MH1*%
X5000000Y-5000000D03*
%TD*%
D13*
%TO.C,U1*%
X60100000Y-14510000D03*
X60100000Y-15910000D03*
X60800000Y-13810000D03*
X60800000Y-15210000D03*
X60800000Y-16610000D03*
X61500000Y-14510000D03*
X61500000Y-15910000D03*
X62200000Y-13810000D03*
X62200000Y-15210000D03*
X62200000Y-16610000D03*
X62900000Y-14510000D03*
X62900000Y-15910000D03*
%TD*%
D14*
%TO.C,SW1*%
X52000000Y-33200000D03*
D15*
X52000000Y-38200000D03*
X52000000Y-35700000D03*
D16*
X59500000Y-30100000D03*
X59500000Y-41300000D03*
D15*
X66500000Y-38200000D03*
X66500000Y-33200000D03*
%TD*%
D17*
%TO.C,J1*%
X57110000Y-47695000D03*
X62890000Y-47695000D03*
D18*
X55680000Y-47195000D03*
D19*
X55680000Y-51375000D03*
D18*
X64320000Y-47195000D03*
D19*
X64320000Y-51375000D03*
%TD*%
D20*
%TO.C,J6*%
X30000000Y-36000000D03*
D21*
X32540000Y-36000000D03*
X35080000Y-36000000D03*
X37620000Y-36000000D03*
%TD*%
D20*
%TO.C,J4*%
X23000000Y-5500000D03*
D21*
X25540000Y-5500000D03*
X28080000Y-5500000D03*
X30620000Y-5500000D03*
%TD*%
D12*
%TO.C,MH4*%
X75000000Y-48000000D03*
%TD*%
%TO.C,MH3*%
X5000000Y-48000000D03*
%TD*%
%TO.C,MH2*%
X75000000Y-5000000D03*
%TD*%
D22*
%TO.C,SW5*%
X33700000Y-50000000D03*
X30300000Y-50000000D03*
%TD*%
%TO.C,SW6*%
X39700000Y-50000000D03*
X36300000Y-50000000D03*
%TD*%
D23*
%TO.C,Q3*%
X48462500Y-45550000D03*
X48462500Y-43650000D03*
X50337500Y-44600000D03*
%TD*%
D24*
%TO.C,R36*%
X48200000Y-41825000D03*
X48200000Y-40175000D03*
%TD*%
D25*
%TO.C,J2*%
X6075000Y-32775000D03*
X6075000Y-31675000D03*
X6075000Y-30575000D03*
X6075000Y-29475000D03*
X6075000Y-28375000D03*
X6075000Y-27275000D03*
X6075000Y-26175000D03*
X6075000Y-25075000D03*
X6075000Y-24125000D03*
D26*
X16575000Y-23175000D03*
D27*
X20725000Y-23175000D03*
D28*
X10375000Y-23175000D03*
X6075000Y-34325000D03*
D29*
X21175000Y-36675000D03*
%TD*%
D30*
%TO.C,C32*%
X44625000Y-44000000D03*
X46175000Y-44000000D03*
%TD*%
%TO.C,C33*%
X43425000Y-45800000D03*
X44975000Y-45800000D03*
%TD*%
D31*
%TO.C,R32*%
X49775000Y-47400000D03*
X51425000Y-47400000D03*
%TD*%
%TO.C,R37*%
X52175000Y-43800000D03*
X53825000Y-43800000D03*
%TD*%
D32*
%TO.C,U8*%
X39062500Y-42250000D03*
X39062500Y-41750000D03*
X39062500Y-41250000D03*
X39062500Y-40750000D03*
X39062500Y-40250000D03*
X39062500Y-39750000D03*
D33*
X39750000Y-39062500D03*
X40250000Y-39062500D03*
X40750000Y-39062500D03*
X41250000Y-39062500D03*
X41750000Y-39062500D03*
X42250000Y-39062500D03*
D32*
X42937500Y-39750000D03*
X42937500Y-40250000D03*
X42937500Y-40750000D03*
X42937500Y-41250000D03*
X42937500Y-41750000D03*
X42937500Y-42250000D03*
D33*
X42250000Y-42937500D03*
X41750000Y-42937500D03*
X41250000Y-42937500D03*
X40750000Y-42937500D03*
X40250000Y-42937500D03*
X39750000Y-42937500D03*
D34*
X41000000Y-41000000D03*
%TD*%
D31*
%TO.C,R33*%
X43375000Y-47600000D03*
X45025000Y-47600000D03*
%TD*%
D30*
%TO.C,C35*%
X40225000Y-46400000D03*
X41775000Y-46400000D03*
%TD*%
%TO.C,C36*%
X52225000Y-45600000D03*
X53775000Y-45600000D03*
%TD*%
D24*
%TO.C,R34*%
X53000000Y-48825000D03*
X53000000Y-47175000D03*
%TD*%
D30*
%TO.C,C34*%
X39225000Y-44600000D03*
X40775000Y-44600000D03*
%TD*%
D35*
%TO.C,Q2*%
X46550000Y-41937500D03*
X44650000Y-41937500D03*
X45600000Y-40062500D03*
%TD*%
D31*
%TO.C,R31*%
X46575000Y-47200000D03*
X48225000Y-47200000D03*
%TD*%
D24*
%TO.C,R35*%
X41400000Y-49625000D03*
X41400000Y-47975000D03*
%TD*%
M02*
