%TF.GenerationSoftware,KiCad,Pcbnew,10.0.6-1.fc44*%
%TF.CreationDate,2026-09-10T12:49:51+07:00*%
%TF.ProjectId,poket,706f6b65-742e-46b6-9963-61645f706362,rev?*%
%TF.SameCoordinates,Original*%
%TF.FileFunction,Copper,L3,Inr*%
%TF.FilePolarity,Positive*%
%FSLAX46Y46*%
G04 Gerber Fmt 4.6, Leading zero omitted, Abs format (unit mm)*
G04 Created by KiCad (PCBNEW 10.0.6-1.fc44) date 2026-09-10 12:49:51*
%MOMM*%
%LPD*%
G01*
G04 APERTURE LIST*
%TA.AperFunction,ComponentPad*%
%ADD10O,2.800000X1.800000*%
%TD*%
%TA.AperFunction,HeatsinkPad*%
%ADD11C,0.600000*%
%TD*%
%TA.AperFunction,HeatsinkPad*%
%ADD12C,0.500000*%
%TD*%
%TA.AperFunction,ComponentPad*%
%ADD13R,2.000000X2.000000*%
%TD*%
%TA.AperFunction,ComponentPad*%
%ADD14C,2.000000*%
%TD*%
%TA.AperFunction,ComponentPad*%
%ADD15R,3.200000X2.000000*%
%TD*%
%TA.AperFunction,ComponentPad*%
%ADD16O,1.000000X2.100000*%
%TD*%
%TA.AperFunction,ComponentPad*%
%ADD17O,1.000000X1.600000*%
%TD*%
%TA.AperFunction,ComponentPad*%
%ADD18R,1.700000X1.700000*%
%TD*%
%TA.AperFunction,ComponentPad*%
%ADD19C,1.700000*%
%TD*%
%TA.AperFunction,ViaPad*%
%ADD20C,0.500000*%
%TD*%
%TA.AperFunction,ViaPad*%
%ADD21C,0.400000*%
%TD*%
%TA.AperFunction,Conductor*%
%ADD22C,0.200000*%
%TD*%
G04 APERTURE END LIST*
D10*
%TO.N,HP_R*%
%TO.C,J3*%
X14000000Y-13150000D03*
%TO.N,N/C*%
X12000000Y-11350000D03*
%TO.N,GND*%
X12000000Y-5250000D03*
%TO.N,HP_L*%
X14000000Y-7650000D03*
%TO.N,JACK_TN*%
X12000000Y-16850000D03*
%TD*%
D11*
%TO.N,GND*%
%TO.C,U1*%
X60100000Y-16760000D03*
X60100000Y-18160000D03*
X60800000Y-16060000D03*
X60800000Y-17460000D03*
X60800000Y-18860000D03*
X61500000Y-16760000D03*
X61500000Y-18160000D03*
X62200000Y-16060000D03*
X62200000Y-17460000D03*
X62200000Y-18860000D03*
X62900000Y-16760000D03*
X62900000Y-18160000D03*
%TD*%
D12*
%TO.N,GND*%
%TO.C,U6*%
X73525000Y-32000000D03*
X74500000Y-31275000D03*
X74500000Y-32000000D03*
X74500000Y-32725000D03*
X75475000Y-32000000D03*
%TD*%
D13*
%TO.N,ENC_A*%
%TO.C,SW1*%
X52000000Y-33200000D03*
D14*
%TO.N,ENC_B*%
X52000000Y-38200000D03*
%TO.N,GND*%
X52000000Y-35700000D03*
D15*
X59500000Y-30100000D03*
X59500000Y-41300000D03*
D14*
%TO.N,ENC_SW*%
X66500000Y-38200000D03*
%TO.N,GND*%
X66500000Y-33200000D03*
%TD*%
D16*
%TO.N,GND*%
%TO.C,J1*%
X55680000Y-47195000D03*
D17*
X55680000Y-51375000D03*
D16*
X64320000Y-47195000D03*
D17*
X64320000Y-51375000D03*
%TD*%
D18*
%TO.N,3V3*%
%TO.C,J6*%
X30000000Y-36000000D03*
D19*
%TO.N,UART_TX*%
X32540000Y-36000000D03*
%TO.N,UART_RX*%
X35080000Y-36000000D03*
%TO.N,GND*%
X37620000Y-36000000D03*
%TD*%
D18*
%TO.N,GND*%
%TO.C,J4*%
X23000000Y-5500000D03*
D19*
%TO.N,3V3*%
X25540000Y-5500000D03*
%TO.N,I2C_SCL*%
X28080000Y-5500000D03*
%TO.N,I2C_SDA*%
X30620000Y-5500000D03*
%TD*%
D20*
%TO.N,BTN_NEXT*%
X61665500Y-23639800D03*
X55248000Y-40711400D03*
%TO.N,GND*%
X9000000Y-11600000D03*
X3800000Y-22000000D03*
X76600000Y-11600000D03*
X68800000Y-32400000D03*
X16800000Y-50600000D03*
D21*
X14873800Y-22938900D03*
X44416432Y-8053700D03*
D20*
X16800000Y-14200000D03*
X1200000Y-3800000D03*
D21*
X16025500Y-27822000D03*
D20*
X76600000Y-19400000D03*
X45400000Y-3800000D03*
X19400000Y-1200000D03*
X50600000Y-3800000D03*
X3800000Y-35000000D03*
X76600000Y-22000000D03*
X58400000Y-35000000D03*
X16800000Y-19400000D03*
X42800000Y-1200000D03*
D21*
X28951570Y-32915900D03*
X8383176Y-28406097D03*
D20*
X68800000Y-35000000D03*
D21*
X35095058Y-12750600D03*
D20*
X50600000Y-6400000D03*
X3800000Y-40200000D03*
X16800000Y-1200000D03*
X1200000Y-50600000D03*
X1200000Y-45400000D03*
X3800000Y-42800000D03*
X45400000Y-1200000D03*
X1200000Y-40200000D03*
X40200000Y-1200000D03*
X74000000Y-22000000D03*
X19400000Y-9000000D03*
X29800000Y-1200000D03*
X50600000Y-1200000D03*
X1200000Y-19400000D03*
X1200000Y-48000000D03*
X40200000Y-6400000D03*
X6400000Y-9000000D03*
X16800000Y-9000000D03*
X3800000Y-19400000D03*
X3800000Y-27200000D03*
X1200000Y-9000000D03*
X3800000Y-50600000D03*
D21*
X52458100Y-45100500D03*
D20*
X48000000Y-6400000D03*
X76600000Y-14200000D03*
X74000000Y-27200000D03*
X1200000Y-6400000D03*
X74000000Y-50600000D03*
X76600000Y-1200000D03*
X6400000Y-19400000D03*
X74000000Y-11600000D03*
X76600000Y-9000000D03*
X71400000Y-50600000D03*
X11600000Y-14200000D03*
X68800000Y-22000000D03*
X66200000Y-22000000D03*
X76600000Y-16800000D03*
X76600000Y-50600000D03*
D21*
X21148689Y-19236687D03*
D20*
X3800000Y-1200000D03*
X68800000Y-45400000D03*
X68800000Y-48000000D03*
D21*
X23992100Y-10300882D03*
D20*
X1200000Y-16800000D03*
X45400000Y-6400000D03*
X1200000Y-22000000D03*
X37600000Y-1200000D03*
X58400000Y-16800000D03*
X76600000Y-27200000D03*
X71400000Y-48000000D03*
X6400000Y-50600000D03*
X58400000Y-50600000D03*
X1200000Y-24600000D03*
D21*
X22842700Y-13925500D03*
D20*
X11600000Y-50600000D03*
X1200000Y-35000000D03*
X11600000Y-3800000D03*
X76600000Y-42800000D03*
X1200000Y-11600000D03*
X1200000Y-32400000D03*
X9000000Y-9000000D03*
X74000000Y-14200000D03*
D21*
X27214464Y-28913400D03*
D20*
X35000000Y-37600000D03*
X35000000Y-1200000D03*
X11600000Y-1200000D03*
X3800000Y-45400000D03*
X37600000Y-50600000D03*
X66200000Y-50600000D03*
D21*
X29036663Y-9764375D03*
D20*
X9000000Y-14200000D03*
X11600000Y-19400000D03*
X3800000Y-37600000D03*
X76600000Y-24600000D03*
X14200000Y-1200000D03*
X22000000Y-1200000D03*
X32400000Y-50600000D03*
X42800000Y-6400000D03*
X14200000Y-11600000D03*
X74000000Y-16800000D03*
X3800000Y-16800000D03*
X48000000Y-1200000D03*
X32400000Y-6400000D03*
X3800000Y-9000000D03*
X6400000Y-14200000D03*
X11600000Y-9000000D03*
X74000000Y-19400000D03*
X61000000Y-50600000D03*
X9000000Y-3800000D03*
X1200000Y-14200000D03*
X74000000Y-45400000D03*
X3800000Y-14200000D03*
D21*
X49950500Y-18154089D03*
D20*
X9000000Y-6400000D03*
X9000000Y-16800000D03*
X14200000Y-3800000D03*
X74000000Y-24600000D03*
X19400000Y-14200000D03*
X35000000Y-40200000D03*
X9000000Y-19400000D03*
X6400000Y-1200000D03*
X24600000Y-1200000D03*
X6400000Y-11600000D03*
X19400000Y-11600000D03*
X6400000Y-16800000D03*
D21*
X74404619Y-35775800D03*
D20*
X68800000Y-37600000D03*
X58400000Y-37600000D03*
X14200000Y-19400000D03*
X1200000Y-42800000D03*
X1200000Y-37600000D03*
D21*
X30199023Y-25425887D03*
D20*
X1200000Y-29800000D03*
X40200000Y-3800000D03*
X42800000Y-3800000D03*
X68800000Y-50600000D03*
X3800000Y-11600000D03*
X9000000Y-1200000D03*
X66200000Y-29800000D03*
X16800000Y-11600000D03*
X48000000Y-3800000D03*
X27200000Y-1200000D03*
D21*
X51632100Y-9600000D03*
D20*
X32400000Y-1200000D03*
D21*
X12501339Y-24572800D03*
D20*
X71400000Y-45400000D03*
X76600000Y-45400000D03*
%TO.N,3V3*%
X35140800Y-47683800D03*
X32130600Y-29731100D03*
X5367900Y-22489000D03*
X29549200Y-9317600D03*
%TO.N,HP_R*%
X38071900Y-13434200D03*
%TO.N,JACK_TN*%
X46553100Y-17689500D03*
%TO.N,AMP_EN*%
X41582700Y-10355400D03*
X40000000Y-17251300D03*
X65240900Y-25646400D03*
%TO.N,DAC_VNEG*%
X34425300Y-12845400D03*
X26293300Y-11542900D03*
%TO.N,I2S_BCK*%
X34545900Y-15110800D03*
X50419700Y-17770800D03*
%TO.N,I2S_DIN*%
X52032100Y-19240000D03*
X34425900Y-14093200D03*
%TO.N,I2S_LRCK*%
X52970500Y-19147100D03*
X33641900Y-12541000D03*
%TO.N,DAC_XSMT*%
X68910600Y-16138800D03*
X29423200Y-16958500D03*
X32062300Y-11644300D03*
%TO.N,VBAT_SENSE*%
X27219400Y-27852600D03*
X66736000Y-10985200D03*
%TO.N,VSYS*%
X20477500Y-46379400D03*
X4593600Y-30376000D03*
X7397600Y-32235100D03*
%TO.N,ESP_EN*%
X52624200Y-22382900D03*
X40683400Y-50556100D03*
X56472400Y-19170300D03*
%TO.N,ENC_A*%
X56082900Y-15221000D03*
%TO.N,ENC_B*%
X53097800Y-16679100D03*
%TO.N,ENC_SW*%
X56375200Y-18010100D03*
%TO.N,BTN_PREV*%
X52906600Y-17729600D03*
X38487800Y-30912900D03*
%TO.N,SD_D3*%
X8785400Y-31132000D03*
X39912700Y-23300000D03*
X52625900Y-23500200D03*
%TO.N,I2C_SDA*%
X22026400Y-20151900D03*
X71340700Y-30381500D03*
X57014400Y-22973000D03*
%TO.N,USB_DM*%
X54596700Y-43383300D03*
X55458700Y-24900400D03*
%TO.N,USB_DP*%
X60077400Y-45432100D03*
X53918600Y-27494900D03*
X54740300Y-45812000D03*
%TO.N,I2C_SCL*%
X44017900Y-22440300D03*
X25852100Y-20243200D03*
%TO.N,SD_D2*%
X37312300Y-25511100D03*
X57503700Y-25477000D03*
X20147600Y-33709500D03*
%TO.N,SD_CMD*%
X7501900Y-29960200D03*
X13963000Y-25596500D03*
X60270500Y-25257400D03*
%TO.N,SD_CLK*%
X61677100Y-25765500D03*
%TO.N,SD_D0*%
X10442700Y-26194600D03*
X32148900Y-26453300D03*
X62925600Y-26010700D03*
%TO.N,SD_D1*%
X62689600Y-25304800D03*
X10412000Y-24105300D03*
X34715500Y-24054200D03*
%TO.N,LED_DIN*%
X45671300Y-49536300D03*
X67473100Y-28856500D03*
%TO.N,ESP_IO0*%
X50293800Y-27976000D03*
X35818500Y-47878900D03*
%TO.N,BTN_PLAY*%
X35250000Y-32013300D03*
X69166400Y-21035900D03*
%TO.N,SD_CD*%
X57855000Y-15402200D03*
X43213300Y-23147600D03*
%TO.N,UART_RX*%
X56779500Y-16030900D03*
%TO.N,UART_TX*%
X66228800Y-13556400D03*
%TO.N,VBUS*%
X55091300Y-44862200D03*
X23622400Y-30320600D03*
%TO.N,EN_LDO*%
X7399400Y-25662800D03*
X26267200Y-47855600D03*
%TO.N,CHG_LED_A*%
X33228500Y-46830300D03*
X17018000Y-28969400D03*
%TO.N,CHG_STAT*%
X4529800Y-29608400D03*
X21711800Y-47267900D03*
%TD*%
%TO.N,BTN_NEXT*%
D22*
X61665500Y-24642500D02*
X55248000Y-31060000D01*
X61665500Y-23639800D02*
X61665500Y-24642500D01*
X55248000Y-31060000D02*
X55248000Y-40711400D01*
%TO.N,3V3*%
X32130600Y-29731100D02*
X32130600Y-32767700D01*
X32130600Y-32767700D02*
X30000000Y-34898300D01*
X30875800Y-43418800D02*
X30875800Y-36000000D01*
X30000000Y-36000000D02*
X30875800Y-36000000D01*
X30000000Y-36000000D02*
X30000000Y-34898300D01*
X35140800Y-47683800D02*
X30875800Y-43418800D01*
%TO.N,AMP_EN*%
X40000000Y-17251300D02*
X41582700Y-15668600D01*
X41582700Y-15668600D02*
X41582700Y-10355400D01*
%TO.N,DAC_XSMT*%
X29423200Y-16958500D02*
X29423200Y-14283400D01*
X29423200Y-14283400D02*
X32062300Y-11644300D01*
%TO.N,VBAT_SENSE*%
X32765900Y-27852600D02*
X27219400Y-27852600D01*
X49633300Y-10985200D02*
X32765900Y-27852600D01*
X66736000Y-10985200D02*
X49633300Y-10985200D01*
%TO.N,VSYS*%
X7397600Y-32235100D02*
X20477500Y-45315000D01*
X4593600Y-30376000D02*
X6452700Y-32235100D01*
X6452700Y-32235100D02*
X7397600Y-32235100D01*
X20477500Y-45315000D02*
X20477500Y-46379400D01*
%TO.N,ESP_EN*%
X53272600Y-22382900D02*
X53272600Y-38744700D01*
X53272600Y-22370100D02*
X53272600Y-22382900D01*
X53272600Y-22382900D02*
X52624200Y-22382900D01*
X53272600Y-38744700D02*
X41461200Y-50556100D01*
X41461200Y-50556100D02*
X40683400Y-50556100D01*
X56472400Y-19170300D02*
X53272600Y-22370100D01*
%TO.N,ENC_A*%
X52000000Y-33200000D02*
X52000000Y-21646200D01*
X57281300Y-16364900D02*
X57281300Y-15807100D01*
X56695200Y-15221000D02*
X56082900Y-15221000D01*
X57281300Y-15807100D02*
X56695200Y-15221000D01*
X52000000Y-21646200D02*
X57281300Y-16364900D01*
%TO.N,ENC_B*%
X50724100Y-36924100D02*
X50724100Y-28255200D01*
X52000000Y-38200000D02*
X50724100Y-36924100D01*
X50795500Y-22330400D02*
X53472200Y-19653700D01*
X53472200Y-17053500D02*
X53097800Y-16679100D01*
X50724100Y-28255200D02*
X50795500Y-28183800D01*
X53472200Y-19653700D02*
X53472200Y-17053500D01*
X50795500Y-28183800D02*
X50795500Y-22330400D01*
%TO.N,ENC_SW*%
X62187800Y-23452600D02*
X56745300Y-18010100D01*
X66500000Y-38200000D02*
X62187800Y-33887800D01*
X56745300Y-18010100D02*
X56375200Y-18010100D01*
X62187800Y-33887800D02*
X62187800Y-23452600D01*
%TO.N,BTN_PREV*%
X52833100Y-17729600D02*
X39649800Y-30912900D01*
X52906600Y-17729600D02*
X52833100Y-17729600D01*
X39649800Y-30912900D02*
X38487800Y-30912900D01*
%TO.N,SD_D3*%
X32754900Y-28360900D02*
X37815800Y-23300000D01*
X8785400Y-31132000D02*
X11556500Y-28360900D01*
X37815800Y-23300000D02*
X39912700Y-23300000D01*
X11556500Y-28360900D02*
X32754900Y-28360900D01*
%TO.N,I2C_SDA*%
X26810000Y-5179300D02*
X26810000Y-6205600D01*
X22026400Y-10989200D02*
X22026400Y-20151900D01*
X29485100Y-4365100D02*
X27624200Y-4365100D01*
X26810000Y-6205600D02*
X22026400Y-10989200D01*
X27624200Y-4365100D02*
X26810000Y-5179300D01*
X30620000Y-5500000D02*
X29485100Y-4365100D01*
%TO.N,USB_DM*%
X54596700Y-25762400D02*
X55458700Y-24900400D01*
X54596700Y-43383300D02*
X54596700Y-25762400D01*
%TO.N,USB_DP*%
X53918600Y-44990300D02*
X54740300Y-45812000D01*
X53918600Y-27494900D02*
X53918600Y-44990300D01*
%TO.N,I2C_SCL*%
X25791600Y-7788400D02*
X28080000Y-5500000D01*
X25791600Y-20182700D02*
X25791600Y-7788400D01*
X25852100Y-20243200D02*
X25791600Y-20182700D01*
%TO.N,SD_D2*%
X27442800Y-33709500D02*
X20147600Y-33709500D01*
X33594000Y-29229400D02*
X31922900Y-29229400D01*
X37312300Y-25511100D02*
X33594000Y-29229400D01*
X31922900Y-29229400D02*
X27442800Y-33709500D01*
%TO.N,SD_CMD*%
X11865600Y-25596500D02*
X13963000Y-25596500D01*
X7501900Y-29960200D02*
X11865600Y-25596500D01*
%TO.N,SD_D1*%
X10463100Y-24054200D02*
X34715500Y-24054200D01*
X10412000Y-24105300D02*
X10463100Y-24054200D01*
%TO.N,LED_DIN*%
X67797700Y-29181100D02*
X67473100Y-28856500D01*
X45671300Y-49536300D02*
X56982500Y-49536300D01*
X67797700Y-38721100D02*
X67797700Y-29181100D01*
X56982500Y-49536300D02*
X67797700Y-38721100D01*
%TO.N,ESP_IO0*%
X50293800Y-33403600D02*
X50293800Y-27976000D01*
X35818500Y-47878900D02*
X50293800Y-33403600D01*
%TO.N,BTN_PLAY*%
X35250000Y-30373200D02*
X35250000Y-32013300D01*
X62461800Y-14331300D02*
X51291900Y-14331300D01*
X51291900Y-14331300D02*
X35250000Y-30373200D01*
X69166400Y-21035900D02*
X62461800Y-14331300D01*
%TO.N,SD_CD*%
X43213300Y-23147600D02*
X44073700Y-23147600D01*
X52509600Y-14711700D02*
X57164500Y-14711700D01*
X44073700Y-23147600D02*
X52509600Y-14711700D01*
X57164500Y-14711700D02*
X57855000Y-15402200D01*
%TO.N,UART_RX*%
X53004500Y-16030900D02*
X38624200Y-30411200D01*
X35080000Y-33611300D02*
X35080000Y-36000000D01*
X56779500Y-16030900D02*
X53004500Y-16030900D01*
X38624200Y-30411200D02*
X38280100Y-30411200D01*
X38280100Y-30411200D02*
X35080000Y-33611300D01*
%TO.N,UART_TX*%
X51539100Y-13556400D02*
X32540000Y-32555500D01*
X32540000Y-32555500D02*
X32540000Y-36000000D01*
X66228800Y-13556400D02*
X51539100Y-13556400D01*
%TO.N,EN_LDO*%
X7000200Y-30167900D02*
X24687900Y-47855600D01*
X7399400Y-25662800D02*
X7000200Y-26062000D01*
X7000200Y-26062000D02*
X7000200Y-30167900D01*
X24687900Y-47855600D02*
X26267200Y-47855600D01*
%TO.N,CHG_LED_A*%
X33228500Y-46830300D02*
X32538300Y-46830300D01*
X32538300Y-46830300D02*
X17018000Y-31310000D01*
X17018000Y-31310000D02*
X17018000Y-28969400D01*
%TO.N,CHG_STAT*%
X5484200Y-29608500D02*
X21711800Y-45836100D01*
X4529800Y-29608500D02*
X5484200Y-29608500D01*
X4529800Y-29608400D02*
X4529800Y-29608500D01*
X21711800Y-45836100D02*
X21711800Y-47267900D01*
%TD*%
%TA.AperFunction,Conductor*%
%TO.N,GND*%
G36*
X49965145Y-17707158D02*
G01*
X50008410Y-17750423D01*
X50019200Y-17795368D01*
X50019200Y-17823527D01*
X50039825Y-17900500D01*
X50046494Y-17925389D01*
X50046494Y-17925390D01*
X50095333Y-18009981D01*
X50099220Y-18016713D01*
X50173787Y-18091280D01*
X50173789Y-18091281D01*
X50265109Y-18144005D01*
X50265113Y-18144007D01*
X50314016Y-18157110D01*
X50365329Y-18190432D01*
X50387257Y-18247553D01*
X50371422Y-18306654D01*
X50358397Y-18322740D01*
X38549435Y-30131704D01*
X38494918Y-30159481D01*
X38479431Y-30160700D01*
X38230271Y-30160700D01*
X38138203Y-30198835D01*
X38067735Y-30269302D01*
X38067736Y-30269303D01*
X38067735Y-30269304D01*
X34938103Y-33398935D01*
X34938103Y-33398936D01*
X34938102Y-33398935D01*
X34867635Y-33469403D01*
X34829500Y-33561471D01*
X34829500Y-34954677D01*
X34810593Y-35012868D01*
X34768386Y-35046141D01*
X34606085Y-35113368D01*
X34442218Y-35222861D01*
X34442214Y-35222864D01*
X34302864Y-35362214D01*
X34302861Y-35362218D01*
X34193367Y-35526086D01*
X34117949Y-35708163D01*
X34117949Y-35708165D01*
X34079500Y-35901456D01*
X34079500Y-36098543D01*
X34117949Y-36291834D01*
X34117949Y-36291836D01*
X34193367Y-36473913D01*
X34193368Y-36473914D01*
X34302861Y-36637782D01*
X34442218Y-36777139D01*
X34606086Y-36886632D01*
X34788165Y-36962051D01*
X34981459Y-37000500D01*
X34981460Y-37000500D01*
X35178540Y-37000500D01*
X35178541Y-37000500D01*
X35371835Y-36962051D01*
X35553914Y-36886632D01*
X35717782Y-36777139D01*
X35857139Y-36637782D01*
X35966632Y-36473914D01*
X36042051Y-36291835D01*
X36080500Y-36098541D01*
X36080500Y-35901459D01*
X36042051Y-35708165D01*
X35966632Y-35526086D01*
X35857139Y-35362218D01*
X35717782Y-35222861D01*
X35553914Y-35113368D01*
X35391614Y-35046141D01*
X35345089Y-35006404D01*
X35330500Y-34954677D01*
X35330500Y-33756068D01*
X35349407Y-33697877D01*
X35359496Y-33686064D01*
X36659055Y-32386505D01*
X37973394Y-31072165D01*
X38027909Y-31044390D01*
X38088341Y-31053961D01*
X38129132Y-31092670D01*
X38147951Y-31125265D01*
X38167320Y-31158813D01*
X38241887Y-31233380D01*
X38333213Y-31286107D01*
X38435073Y-31313400D01*
X38435075Y-31313400D01*
X38540525Y-31313400D01*
X38540527Y-31313400D01*
X38642387Y-31286107D01*
X38733713Y-31233380D01*
X38763772Y-31203321D01*
X38774698Y-31192396D01*
X38829215Y-31164619D01*
X38844701Y-31163400D01*
X39699629Y-31163400D01*
X39768764Y-31134763D01*
X39791697Y-31125264D01*
X51517694Y-19399265D01*
X51572209Y-19371490D01*
X51632641Y-19381061D01*
X51673432Y-19419770D01*
X51711620Y-19485913D01*
X51786187Y-19560480D01*
X51877513Y-19613207D01*
X51979373Y-19640500D01*
X51979375Y-19640500D01*
X52084825Y-19640500D01*
X52084827Y-19640500D01*
X52186687Y-19613207D01*
X52278013Y-19560480D01*
X52352580Y-19485913D01*
X52405307Y-19394587D01*
X52421306Y-19334874D01*
X52454628Y-19283562D01*
X52511749Y-19261634D01*
X52570850Y-19277469D01*
X52602668Y-19310998D01*
X52650018Y-19393010D01*
X52650020Y-19393013D01*
X52724587Y-19467580D01*
X52815913Y-19520307D01*
X52917773Y-19547600D01*
X52917775Y-19547600D01*
X52985031Y-19547600D01*
X53043222Y-19566507D01*
X53079186Y-19616007D01*
X53079186Y-19677193D01*
X53055035Y-19716604D01*
X50653603Y-22118036D01*
X50653602Y-22118035D01*
X50583135Y-22188503D01*
X50545000Y-22280571D01*
X50545000Y-27499661D01*
X50526093Y-27557852D01*
X50476593Y-27593816D01*
X50420378Y-27595288D01*
X50346527Y-27575500D01*
X50241073Y-27575500D01*
X50139213Y-27602793D01*
X50139212Y-27602793D01*
X50139210Y-27602794D01*
X50139209Y-27602794D01*
X50047889Y-27655518D01*
X49973318Y-27730089D01*
X49920594Y-27821409D01*
X49920594Y-27821410D01*
X49920593Y-27821412D01*
X49920593Y-27821413D01*
X49893300Y-27923273D01*
X49893300Y-28028727D01*
X49911999Y-28098513D01*
X49920594Y-28130589D01*
X49920594Y-28130590D01*
X49973318Y-28221910D01*
X49973320Y-28221913D01*
X50014305Y-28262898D01*
X50042081Y-28317413D01*
X50043300Y-28332900D01*
X50043300Y-33258831D01*
X50024393Y-33317022D01*
X50014304Y-33328835D01*
X35893735Y-47449404D01*
X35839218Y-47477181D01*
X35823731Y-47478400D01*
X35765773Y-47478400D01*
X35719693Y-47490747D01*
X35663912Y-47505693D01*
X35627033Y-47526985D01*
X35567185Y-47539704D01*
X35511289Y-47514817D01*
X35491799Y-47490747D01*
X35461281Y-47437889D01*
X35461280Y-47437887D01*
X35386713Y-47363320D01*
X35349160Y-47341639D01*
X35295389Y-47310594D01*
X35295388Y-47310593D01*
X35295387Y-47310593D01*
X35193527Y-47283300D01*
X35193525Y-47283300D01*
X35135568Y-47283300D01*
X35077377Y-47264393D01*
X35065564Y-47254304D01*
X31155296Y-43344035D01*
X31127519Y-43289518D01*
X31126300Y-43274031D01*
X31126300Y-35950171D01*
X31088165Y-35858105D01*
X31088164Y-35858104D01*
X31088164Y-35858103D01*
X31029494Y-35799433D01*
X31001719Y-35744919D01*
X31000500Y-35729432D01*
X31000500Y-35135181D01*
X31000499Y-35135172D01*
X30991767Y-35091279D01*
X30991765Y-35091275D01*
X30991323Y-35090614D01*
X30958504Y-35041496D01*
X30957840Y-35041052D01*
X30908724Y-35008234D01*
X30908720Y-35008232D01*
X30864827Y-34999500D01*
X30864820Y-34999500D01*
X30492069Y-34999500D01*
X30433878Y-34980593D01*
X30397914Y-34931093D01*
X30397914Y-34869907D01*
X30422065Y-34830496D01*
X32120496Y-33132065D01*
X32175013Y-33104288D01*
X32235445Y-33113859D01*
X32278710Y-33157124D01*
X32289500Y-33202069D01*
X32289500Y-34954677D01*
X32270593Y-35012868D01*
X32228386Y-35046141D01*
X32066085Y-35113368D01*
X31902218Y-35222861D01*
X31902214Y-35222864D01*
X31762864Y-35362214D01*
X31762861Y-35362218D01*
X31653367Y-35526086D01*
X31577949Y-35708163D01*
X31577949Y-35708165D01*
X31539500Y-35901456D01*
X31539500Y-36098543D01*
X31577949Y-36291834D01*
X31577949Y-36291836D01*
X31653367Y-36473913D01*
X31653368Y-36473914D01*
X31762861Y-36637782D01*
X31902218Y-36777139D01*
X32066086Y-36886632D01*
X32248165Y-36962051D01*
X32441459Y-37000500D01*
X32441460Y-37000500D01*
X32638540Y-37000500D01*
X32638541Y-37000500D01*
X32831835Y-36962051D01*
X33013914Y-36886632D01*
X33177782Y-36777139D01*
X33317139Y-36637782D01*
X33426632Y-36473914D01*
X33502051Y-36291835D01*
X33540500Y-36098541D01*
X33540500Y-35901459D01*
X33502051Y-35708165D01*
X33426632Y-35526086D01*
X33317139Y-35362218D01*
X33177782Y-35222861D01*
X33013914Y-35113368D01*
X32851614Y-35046141D01*
X32805089Y-35006404D01*
X32790500Y-34954677D01*
X32790500Y-32700268D01*
X32809407Y-32642077D01*
X32819496Y-32630264D01*
X34830496Y-30619264D01*
X34885013Y-30591487D01*
X34945445Y-30601058D01*
X34988710Y-30644323D01*
X34999500Y-30689268D01*
X34999500Y-31656399D01*
X34980593Y-31714590D01*
X34970504Y-31726402D01*
X34929519Y-31767387D01*
X34876794Y-31858709D01*
X34876794Y-31858710D01*
X34876793Y-31858712D01*
X34876793Y-31858713D01*
X34849500Y-31960573D01*
X34849500Y-32066027D01*
X34864265Y-32121131D01*
X34876794Y-32167889D01*
X34876794Y-32167890D01*
X34890215Y-32191135D01*
X34929520Y-32259213D01*
X35004087Y-32333780D01*
X35095413Y-32386507D01*
X35197273Y-32413800D01*
X35197275Y-32413800D01*
X35302725Y-32413800D01*
X35302727Y-32413800D01*
X35404587Y-32386507D01*
X35495913Y-32333780D01*
X35570480Y-32259213D01*
X35623207Y-32167887D01*
X35650500Y-32066027D01*
X35650500Y-31960573D01*
X35623207Y-31858713D01*
X35609285Y-31834600D01*
X35570480Y-31767387D01*
X35529496Y-31726402D01*
X35501719Y-31671885D01*
X35500500Y-31656399D01*
X35500500Y-30517968D01*
X35519407Y-30459777D01*
X35529496Y-30447964D01*
X38888149Y-27089311D01*
X42688536Y-23288923D01*
X42743051Y-23261148D01*
X42803483Y-23270719D01*
X42844273Y-23309427D01*
X42892820Y-23393513D01*
X42967387Y-23468080D01*
X43058713Y-23520807D01*
X43160573Y-23548100D01*
X43160575Y-23548100D01*
X43266025Y-23548100D01*
X43266027Y-23548100D01*
X43367887Y-23520807D01*
X43459213Y-23468080D01*
X43479705Y-23447588D01*
X43500198Y-23427096D01*
X43554715Y-23399319D01*
X43570201Y-23398100D01*
X44123529Y-23398100D01*
X44182918Y-23373500D01*
X44215597Y-23359964D01*
X49850198Y-17725362D01*
X49904713Y-17697587D01*
X49965145Y-17707158D01*
G37*
%TD.AperFunction*%
%TA.AperFunction,Conductor*%
G36*
X31731142Y-29872161D02*
G01*
X31771931Y-29910868D01*
X31810120Y-29977013D01*
X31851105Y-30017998D01*
X31878881Y-30072513D01*
X31880100Y-30088000D01*
X31880100Y-32622931D01*
X31861193Y-32681122D01*
X31851104Y-32692935D01*
X29858103Y-34685936D01*
X29858102Y-34685935D01*
X29787635Y-34756403D01*
X29749500Y-34848471D01*
X29749500Y-34900500D01*
X29730593Y-34958691D01*
X29681093Y-34994655D01*
X29650500Y-34999500D01*
X29135172Y-34999500D01*
X29091279Y-35008232D01*
X29091275Y-35008234D01*
X29041498Y-35041494D01*
X29041494Y-35041498D01*
X29008234Y-35091275D01*
X29008232Y-35091279D01*
X28999500Y-35135172D01*
X28999500Y-36864827D01*
X29008232Y-36908720D01*
X29008233Y-36908722D01*
X29041496Y-36958504D01*
X29091278Y-36991767D01*
X29102327Y-36993964D01*
X29135172Y-37000499D01*
X29135178Y-37000499D01*
X29135180Y-37000500D01*
X30526300Y-37000500D01*
X30584491Y-37019407D01*
X30620455Y-37068907D01*
X30625300Y-37099500D01*
X30625300Y-43468628D01*
X30663434Y-43560694D01*
X30663435Y-43560695D01*
X30663436Y-43560697D01*
X32710972Y-45608232D01*
X33364417Y-46261677D01*
X33392194Y-46316194D01*
X33382623Y-46376626D01*
X33339358Y-46419891D01*
X33287716Y-46428766D01*
X33287716Y-46429800D01*
X33281705Y-46429800D01*
X33281501Y-46429835D01*
X33281235Y-46429800D01*
X33281227Y-46429800D01*
X33175773Y-46429800D01*
X33073913Y-46457093D01*
X33073912Y-46457093D01*
X33073910Y-46457094D01*
X33073909Y-46457094D01*
X32982587Y-46509819D01*
X32941602Y-46550804D01*
X32887085Y-46578581D01*
X32871599Y-46579800D01*
X32683068Y-46579800D01*
X32624877Y-46560893D01*
X32613064Y-46550804D01*
X20293744Y-34231483D01*
X20265967Y-34176966D01*
X20275538Y-34116534D01*
X20314246Y-34075744D01*
X20393513Y-34029980D01*
X20393799Y-34029694D01*
X20434498Y-33988996D01*
X20489015Y-33961219D01*
X20504501Y-33960000D01*
X27492629Y-33960000D01*
X27550685Y-33935951D01*
X27584697Y-33921864D01*
X31616195Y-29890365D01*
X31670710Y-29862590D01*
X31731142Y-29872161D01*
G37*
%TD.AperFunction*%
%TA.AperFunction,Conductor*%
G36*
X52981291Y-34369407D02*
G01*
X53017255Y-34418907D01*
X53022100Y-34449500D01*
X53022100Y-37356039D01*
X53003193Y-37414230D01*
X52953693Y-37450194D01*
X52892507Y-37450194D01*
X52853098Y-37426044D01*
X52749501Y-37322447D01*
X52602994Y-37216004D01*
X52602993Y-37216003D01*
X52602991Y-37216002D01*
X52441637Y-37133788D01*
X52269406Y-37077828D01*
X52090549Y-37049500D01*
X52090546Y-37049500D01*
X51909454Y-37049500D01*
X51909451Y-37049500D01*
X51730593Y-37077828D01*
X51558362Y-37133788D01*
X51443379Y-37192375D01*
X51382947Y-37201946D01*
X51328430Y-37174169D01*
X51003596Y-36849335D01*
X50975819Y-36794818D01*
X50974600Y-36779331D01*
X50974600Y-34449500D01*
X50993507Y-34391309D01*
X51043007Y-34355345D01*
X51073600Y-34350500D01*
X52923100Y-34350500D01*
X52981291Y-34369407D01*
G37*
%TD.AperFunction*%
%TA.AperFunction,Conductor*%
G36*
X51459191Y-519407D02*
G01*
X51495155Y-568907D01*
X51500000Y-599500D01*
X51500000Y-9500000D01*
X74499999Y-9500000D01*
X74500000Y-9500000D01*
X74500000Y-6393801D01*
X74518907Y-6335610D01*
X74568407Y-6299646D01*
X74629590Y-6299646D01*
X74646364Y-6305096D01*
X74683755Y-6317246D01*
X74893710Y-6350500D01*
X74893713Y-6350500D01*
X75106290Y-6350500D01*
X75316238Y-6317247D01*
X75316239Y-6317246D01*
X75316243Y-6317246D01*
X75518412Y-6251557D01*
X75707816Y-6155051D01*
X75879792Y-6030104D01*
X76030104Y-5879792D01*
X76155051Y-5707816D01*
X76251557Y-5518412D01*
X76317246Y-5316243D01*
X76334364Y-5208165D01*
X76350500Y-5106290D01*
X76350500Y-4893709D01*
X76317247Y-4683761D01*
X76312664Y-4669655D01*
X76251557Y-4481588D01*
X76155051Y-4292184D01*
X76155049Y-4292180D01*
X76030108Y-4120213D01*
X76030106Y-4120211D01*
X76030104Y-4120208D01*
X75879792Y-3969896D01*
X75879788Y-3969893D01*
X75879786Y-3969891D01*
X75707819Y-3844950D01*
X75707815Y-3844948D01*
X75518412Y-3748443D01*
X75316238Y-3682752D01*
X75106290Y-3649500D01*
X75106287Y-3649500D01*
X74893713Y-3649500D01*
X74893710Y-3649500D01*
X74683759Y-3682753D01*
X74629592Y-3700353D01*
X74568407Y-3700353D01*
X74518907Y-3664389D01*
X74500000Y-3606198D01*
X74500000Y-599500D01*
X74518907Y-541309D01*
X74568407Y-505345D01*
X74599000Y-500500D01*
X75934108Y-500500D01*
X75997564Y-500500D01*
X76002421Y-500619D01*
X76031158Y-502030D01*
X76338173Y-517113D01*
X76347815Y-518063D01*
X76677915Y-567029D01*
X76687421Y-568919D01*
X77011144Y-650008D01*
X77020415Y-652820D01*
X77334625Y-765246D01*
X77343594Y-768961D01*
X77645263Y-911640D01*
X77653826Y-916218D01*
X77940049Y-1087773D01*
X77948127Y-1093171D01*
X78216150Y-1291951D01*
X78223660Y-1298114D01*
X78470921Y-1522218D01*
X78477781Y-1529078D01*
X78603484Y-1667770D01*
X78701885Y-1776339D01*
X78708048Y-1783849D01*
X78906828Y-2051872D01*
X78912226Y-2059950D01*
X79083781Y-2346173D01*
X79088361Y-2354741D01*
X79231036Y-2656402D01*
X79234754Y-2665378D01*
X79347175Y-2979571D01*
X79349995Y-2988868D01*
X79431077Y-3312567D01*
X79432972Y-3322096D01*
X79481934Y-3652170D01*
X79482887Y-3661838D01*
X79499381Y-3997577D01*
X79499500Y-4002435D01*
X79499500Y-49997564D01*
X79499381Y-50002422D01*
X79482887Y-50338161D01*
X79481934Y-50347829D01*
X79432972Y-50677903D01*
X79431077Y-50687432D01*
X79349995Y-51011131D01*
X79347175Y-51020428D01*
X79234754Y-51334621D01*
X79231036Y-51343597D01*
X79088361Y-51645258D01*
X79083781Y-51653826D01*
X78912226Y-51940049D01*
X78906828Y-51948127D01*
X78708048Y-52216150D01*
X78701885Y-52223660D01*
X78477786Y-52470916D01*
X78470916Y-52477786D01*
X78223660Y-52701885D01*
X78216150Y-52708048D01*
X77948127Y-52906828D01*
X77940049Y-52912226D01*
X77653826Y-53083781D01*
X77645258Y-53088361D01*
X77343597Y-53231036D01*
X77334621Y-53234754D01*
X77020428Y-53347175D01*
X77011131Y-53349995D01*
X76687432Y-53431077D01*
X76677903Y-53432972D01*
X76347829Y-53481934D01*
X76338161Y-53482887D01*
X76002422Y-53499381D01*
X75997564Y-53499500D01*
X4002436Y-53499500D01*
X3997578Y-53499381D01*
X3661838Y-53482887D01*
X3652170Y-53481934D01*
X3322096Y-53432972D01*
X3312567Y-53431077D01*
X2988868Y-53349995D01*
X2979571Y-53347175D01*
X2665378Y-53234754D01*
X2656402Y-53231036D01*
X2354741Y-53088361D01*
X2346173Y-53083781D01*
X2059950Y-52912226D01*
X2051872Y-52906828D01*
X1783849Y-52708048D01*
X1776339Y-52701885D01*
X1529083Y-52477786D01*
X1522218Y-52470921D01*
X1298114Y-52223660D01*
X1291951Y-52216150D01*
X1093171Y-51948127D01*
X1087773Y-51940049D01*
X958223Y-51723908D01*
X916216Y-51653823D01*
X911638Y-51645258D01*
X844629Y-51503580D01*
X768961Y-51343594D01*
X765245Y-51334621D01*
X744464Y-51276542D01*
X652820Y-51020415D01*
X650008Y-51011144D01*
X587351Y-50761004D01*
X21799500Y-50761004D01*
X21799500Y-50898995D01*
X21826420Y-51034327D01*
X21826420Y-51034329D01*
X21879222Y-51161806D01*
X21879228Y-51161817D01*
X21955885Y-51276541D01*
X22053458Y-51374114D01*
X22168182Y-51450771D01*
X22168193Y-51450777D01*
X22215283Y-51470282D01*
X22295672Y-51503580D01*
X22431007Y-51530500D01*
X22431008Y-51530500D01*
X22568992Y-51530500D01*
X22568993Y-51530500D01*
X22704328Y-51503580D01*
X22831811Y-51450775D01*
X22946542Y-51374114D01*
X23044114Y-51276542D01*
X23120775Y-51161811D01*
X23173580Y-51034328D01*
X23200500Y-50898993D01*
X23200500Y-50761007D01*
X23200499Y-50761004D01*
X24799500Y-50761004D01*
X24799500Y-50898995D01*
X24826420Y-51034327D01*
X24826420Y-51034329D01*
X24879222Y-51161806D01*
X24879228Y-51161817D01*
X24955885Y-51276541D01*
X25053458Y-51374114D01*
X25168182Y-51450771D01*
X25168193Y-51450777D01*
X25215283Y-51470282D01*
X25295672Y-51503580D01*
X25431007Y-51530500D01*
X25431008Y-51530500D01*
X25568992Y-51530500D01*
X25568993Y-51530500D01*
X25704328Y-51503580D01*
X25831811Y-51450775D01*
X25946542Y-51374114D01*
X26044114Y-51276542D01*
X26120775Y-51161811D01*
X26173580Y-51034328D01*
X26200500Y-50898993D01*
X26200500Y-50761007D01*
X26173580Y-50625672D01*
X26122923Y-50503374D01*
X26120777Y-50498193D01*
X26120771Y-50498182D01*
X26044114Y-50383458D01*
X25946541Y-50285885D01*
X25831817Y-50209228D01*
X25831806Y-50209222D01*
X25704328Y-50156420D01*
X25568995Y-50129500D01*
X25568993Y-50129500D01*
X25431007Y-50129500D01*
X25431004Y-50129500D01*
X25295672Y-50156420D01*
X25295670Y-50156420D01*
X25168193Y-50209222D01*
X25168182Y-50209228D01*
X25053458Y-50285885D01*
X24955885Y-50383458D01*
X24879228Y-50498182D01*
X24879222Y-50498193D01*
X24826420Y-50625670D01*
X24826420Y-50625672D01*
X24799500Y-50761004D01*
X23200499Y-50761004D01*
X23173580Y-50625672D01*
X23122923Y-50503374D01*
X23120777Y-50498193D01*
X23120771Y-50498182D01*
X23044114Y-50383458D01*
X22946541Y-50285885D01*
X22831817Y-50209228D01*
X22831806Y-50209222D01*
X22704328Y-50156420D01*
X22568995Y-50129500D01*
X22568993Y-50129500D01*
X22431007Y-50129500D01*
X22431004Y-50129500D01*
X22295672Y-50156420D01*
X22295670Y-50156420D01*
X22168193Y-50209222D01*
X22168182Y-50209228D01*
X22053458Y-50285885D01*
X21955885Y-50383458D01*
X21879228Y-50498182D01*
X21879222Y-50498193D01*
X21826420Y-50625670D01*
X21826420Y-50625672D01*
X21799500Y-50761004D01*
X587351Y-50761004D01*
X568919Y-50687421D01*
X567029Y-50677915D01*
X518063Y-50347815D01*
X517113Y-50338173D01*
X500619Y-50002421D01*
X500500Y-49997564D01*
X500500Y-47893709D01*
X3649500Y-47893709D01*
X3649500Y-48106290D01*
X3682752Y-48316238D01*
X3748443Y-48518412D01*
X3844948Y-48707815D01*
X3844950Y-48707819D01*
X3969891Y-48879786D01*
X3969893Y-48879788D01*
X3969896Y-48879792D01*
X4120208Y-49030104D01*
X4120211Y-49030106D01*
X4120213Y-49030108D01*
X4292180Y-49155049D01*
X4292184Y-49155051D01*
X4481588Y-49251557D01*
X4683757Y-49317246D01*
X4683758Y-49317246D01*
X4683761Y-49317247D01*
X4893710Y-49350500D01*
X4893713Y-49350500D01*
X5106290Y-49350500D01*
X5316238Y-49317247D01*
X5316239Y-49317246D01*
X5316243Y-49317246D01*
X5518412Y-49251557D01*
X5707816Y-49155051D01*
X5879792Y-49030104D01*
X6030104Y-48879792D01*
X6155051Y-48707816D01*
X6251557Y-48518412D01*
X6317246Y-48316243D01*
X6317247Y-48316238D01*
X6350500Y-48106290D01*
X6350500Y-47893709D01*
X6317247Y-47683761D01*
X6303387Y-47641105D01*
X6251557Y-47481588D01*
X6155051Y-47292184D01*
X6155049Y-47292180D01*
X6030108Y-47120213D01*
X6030106Y-47120211D01*
X6030104Y-47120208D01*
X5879792Y-46969896D01*
X5879788Y-46969893D01*
X5879786Y-46969891D01*
X5707819Y-46844950D01*
X5707815Y-46844948D01*
X5518412Y-46748443D01*
X5316238Y-46682752D01*
X5106290Y-46649500D01*
X5106287Y-46649500D01*
X4893713Y-46649500D01*
X4893710Y-46649500D01*
X4683761Y-46682752D01*
X4481587Y-46748443D01*
X4292184Y-46844948D01*
X4292180Y-46844950D01*
X4120213Y-46969891D01*
X3969891Y-47120213D01*
X3844950Y-47292180D01*
X3844948Y-47292184D01*
X3748443Y-47481587D01*
X3682752Y-47683761D01*
X3649500Y-47893709D01*
X500500Y-47893709D01*
X500500Y-29555673D01*
X4129300Y-29555673D01*
X4129300Y-29661127D01*
X4156593Y-29762987D01*
X4156594Y-29762989D01*
X4156594Y-29762990D01*
X4209318Y-29854310D01*
X4209320Y-29854313D01*
X4283887Y-29928880D01*
X4292887Y-29934076D01*
X4333827Y-29979544D01*
X4340224Y-30040394D01*
X4313391Y-30089815D01*
X4273119Y-30130087D01*
X4220394Y-30221409D01*
X4220394Y-30221410D01*
X4220393Y-30221412D01*
X4220393Y-30221413D01*
X4193100Y-30323273D01*
X4193100Y-30428727D01*
X4205550Y-30475190D01*
X4220394Y-30530589D01*
X4220394Y-30530590D01*
X4273118Y-30621910D01*
X4273120Y-30621913D01*
X4347687Y-30696480D01*
X4439013Y-30749207D01*
X4540873Y-30776500D01*
X4598831Y-30776500D01*
X4657022Y-30795407D01*
X4668835Y-30805496D01*
X6240336Y-32376997D01*
X6240335Y-32376997D01*
X6310803Y-32447464D01*
X6402871Y-32485600D01*
X6402872Y-32485600D01*
X7040699Y-32485600D01*
X7098890Y-32504507D01*
X7110702Y-32514596D01*
X7151687Y-32555580D01*
X7243013Y-32608307D01*
X7344873Y-32635600D01*
X7402831Y-32635600D01*
X7461022Y-32654507D01*
X7472835Y-32664596D01*
X20198004Y-45389765D01*
X20225781Y-45444282D01*
X20227000Y-45459769D01*
X20227000Y-46022499D01*
X20208093Y-46080690D01*
X20198004Y-46092502D01*
X20157019Y-46133487D01*
X20104294Y-46224809D01*
X20104294Y-46224810D01*
X20104293Y-46224812D01*
X20104293Y-46224813D01*
X20077000Y-46326673D01*
X20077000Y-46432127D01*
X20097818Y-46509820D01*
X20104294Y-46533989D01*
X20104294Y-46533990D01*
X20114002Y-46550804D01*
X20157020Y-46625313D01*
X20231587Y-46699880D01*
X20322913Y-46752607D01*
X20424773Y-46779900D01*
X20424775Y-46779900D01*
X20530225Y-46779900D01*
X20530227Y-46779900D01*
X20632087Y-46752607D01*
X20723413Y-46699880D01*
X20797980Y-46625313D01*
X20850707Y-46533987D01*
X20878000Y-46432127D01*
X20878000Y-46326673D01*
X20850707Y-46224813D01*
X20827839Y-46185205D01*
X20797980Y-46133487D01*
X20756996Y-46092502D01*
X20729219Y-46037985D01*
X20728000Y-46022499D01*
X20728000Y-45445569D01*
X20746907Y-45387378D01*
X20796407Y-45351414D01*
X20857593Y-45351414D01*
X20897004Y-45375565D01*
X21432304Y-45910865D01*
X21460081Y-45965382D01*
X21461300Y-45980869D01*
X21461300Y-46910999D01*
X21442393Y-46969190D01*
X21432304Y-46981002D01*
X21391319Y-47021987D01*
X21338594Y-47113309D01*
X21338594Y-47113310D01*
X21338593Y-47113312D01*
X21338593Y-47113313D01*
X21311300Y-47215173D01*
X21311300Y-47320627D01*
X21338593Y-47422487D01*
X21338594Y-47422489D01*
X21338594Y-47422490D01*
X21386632Y-47505693D01*
X21391320Y-47513813D01*
X21465887Y-47588380D01*
X21557213Y-47641107D01*
X21659073Y-47668400D01*
X21659075Y-47668400D01*
X21764525Y-47668400D01*
X21764527Y-47668400D01*
X21866387Y-47641107D01*
X21957713Y-47588380D01*
X22032280Y-47513813D01*
X22085007Y-47422487D01*
X22112300Y-47320627D01*
X22112300Y-47215173D01*
X22085007Y-47113313D01*
X22082976Y-47109796D01*
X22032280Y-47021987D01*
X21991296Y-46981002D01*
X21963519Y-46926485D01*
X21962300Y-46910999D01*
X21962300Y-45786271D01*
X21939211Y-45730530D01*
X21934410Y-45669533D01*
X21966379Y-45617364D01*
X22022907Y-45593949D01*
X22082402Y-45608232D01*
X22100679Y-45622640D01*
X24475536Y-47997497D01*
X24475535Y-47997497D01*
X24546003Y-48067964D01*
X24638071Y-48106100D01*
X24638072Y-48106100D01*
X25910299Y-48106100D01*
X25968490Y-48125007D01*
X25980302Y-48135096D01*
X26021287Y-48176080D01*
X26112613Y-48228807D01*
X26214473Y-48256100D01*
X26214475Y-48256100D01*
X26319925Y-48256100D01*
X26319927Y-48256100D01*
X26421787Y-48228807D01*
X26513113Y-48176080D01*
X26587680Y-48101513D01*
X26640407Y-48010187D01*
X26667700Y-47908327D01*
X26667700Y-47802873D01*
X26640407Y-47701013D01*
X26627448Y-47678568D01*
X26603772Y-47637560D01*
X26587680Y-47609687D01*
X26513113Y-47535120D01*
X26477947Y-47514817D01*
X26421789Y-47482394D01*
X26421788Y-47482393D01*
X26421787Y-47482393D01*
X26319927Y-47455100D01*
X26214473Y-47455100D01*
X26112613Y-47482393D01*
X26112612Y-47482393D01*
X26112610Y-47482394D01*
X26112609Y-47482394D01*
X26021287Y-47535119D01*
X25980302Y-47576104D01*
X25925785Y-47603881D01*
X25910299Y-47605100D01*
X24832669Y-47605100D01*
X24774478Y-47586193D01*
X24762665Y-47576104D01*
X8865472Y-31678911D01*
X8837695Y-31624394D01*
X8847266Y-31563962D01*
X8890531Y-31520697D01*
X8909848Y-31513282D01*
X8939987Y-31505207D01*
X9031313Y-31452480D01*
X9105880Y-31377913D01*
X9158607Y-31286587D01*
X9185900Y-31184727D01*
X9185900Y-31126769D01*
X9204807Y-31068578D01*
X9214896Y-31056765D01*
X11631265Y-28640396D01*
X11685782Y-28612619D01*
X11701269Y-28611400D01*
X16590761Y-28611400D01*
X16648952Y-28630307D01*
X16684916Y-28679807D01*
X16684916Y-28740993D01*
X16676497Y-28759900D01*
X16644794Y-28814810D01*
X16644793Y-28814812D01*
X16644793Y-28814813D01*
X16617500Y-28916673D01*
X16617500Y-29022127D01*
X16644793Y-29123987D01*
X16644794Y-29123989D01*
X16644794Y-29123990D01*
X16675388Y-29176980D01*
X16697520Y-29215313D01*
X16738505Y-29256298D01*
X16766281Y-29310813D01*
X16767500Y-29326300D01*
X16767500Y-31359828D01*
X16805634Y-31451894D01*
X16805635Y-31451895D01*
X16805636Y-31451897D01*
X32325935Y-46972195D01*
X32325936Y-46972197D01*
X32396403Y-47042664D01*
X32396404Y-47042664D01*
X32396405Y-47042665D01*
X32423368Y-47053834D01*
X32423369Y-47053834D01*
X32488472Y-47080801D01*
X32488473Y-47080801D01*
X32599651Y-47080801D01*
X32599659Y-47080800D01*
X32871599Y-47080800D01*
X32929790Y-47099707D01*
X32941602Y-47109796D01*
X32982587Y-47150780D01*
X33073913Y-47203507D01*
X33175773Y-47230800D01*
X33175775Y-47230800D01*
X33281225Y-47230800D01*
X33281227Y-47230800D01*
X33383087Y-47203507D01*
X33474413Y-47150780D01*
X33548980Y-47076213D01*
X33601707Y-46984887D01*
X33629000Y-46883027D01*
X33629000Y-46777573D01*
X33628999Y-46777570D01*
X33628965Y-46777311D01*
X33629000Y-46777122D01*
X33629000Y-46771084D01*
X33630119Y-46771084D01*
X33640114Y-46717150D01*
X33684495Y-46675031D01*
X33745157Y-46667043D01*
X33797122Y-46694382D01*
X34711304Y-47608564D01*
X34739081Y-47663081D01*
X34740300Y-47678568D01*
X34740300Y-47736527D01*
X34767593Y-47838387D01*
X34767594Y-47838389D01*
X34767594Y-47838390D01*
X34813058Y-47917135D01*
X34820320Y-47929713D01*
X34894887Y-48004280D01*
X34986213Y-48057007D01*
X35088073Y-48084300D01*
X35088075Y-48084300D01*
X35193525Y-48084300D01*
X35193527Y-48084300D01*
X35295387Y-48057007D01*
X35332264Y-48035715D01*
X35392112Y-48022994D01*
X35448007Y-48047880D01*
X35467500Y-48071951D01*
X35498020Y-48124813D01*
X35572587Y-48199380D01*
X35663913Y-48252107D01*
X35765773Y-48279400D01*
X35765775Y-48279400D01*
X35871225Y-48279400D01*
X35871227Y-48279400D01*
X35973087Y-48252107D01*
X36064413Y-48199380D01*
X36138980Y-48124813D01*
X36191707Y-48033487D01*
X36219000Y-47931627D01*
X36219000Y-47873667D01*
X36237907Y-47815476D01*
X36247990Y-47803669D01*
X50304596Y-33747062D01*
X50359113Y-33719286D01*
X50419545Y-33728857D01*
X50462810Y-33772122D01*
X50473600Y-33817067D01*
X50473600Y-36973928D01*
X50511735Y-37065996D01*
X50974169Y-37528431D01*
X51001946Y-37582947D01*
X50992375Y-37643379D01*
X50933788Y-37758362D01*
X50877828Y-37930593D01*
X50849500Y-38109450D01*
X50849500Y-38290549D01*
X50877828Y-38469406D01*
X50933788Y-38641637D01*
X51005791Y-38782951D01*
X51016004Y-38802994D01*
X51122447Y-38949501D01*
X51250499Y-39077553D01*
X51397006Y-39183996D01*
X51558361Y-39266211D01*
X51730591Y-39322171D01*
X51802136Y-39333502D01*
X51909451Y-39350500D01*
X52073530Y-39350500D01*
X52131721Y-39369407D01*
X52167685Y-39418907D01*
X52167685Y-39480093D01*
X52143534Y-39519504D01*
X41386435Y-50276604D01*
X41331918Y-50304381D01*
X41316431Y-50305600D01*
X41040301Y-50305600D01*
X40982110Y-50286693D01*
X40970298Y-50276604D01*
X40929312Y-50235619D01*
X40837989Y-50182894D01*
X40837988Y-50182893D01*
X40837987Y-50182893D01*
X40736127Y-50155600D01*
X40630673Y-50155600D01*
X40528813Y-50182893D01*
X40528812Y-50182893D01*
X40528810Y-50182894D01*
X40528809Y-50182894D01*
X40437489Y-50235618D01*
X40362918Y-50310189D01*
X40310194Y-50401509D01*
X40310194Y-50401510D01*
X40310193Y-50401512D01*
X40310193Y-50401513D01*
X40282900Y-50503373D01*
X40282900Y-50608827D01*
X40303962Y-50687432D01*
X40310194Y-50710689D01*
X40310194Y-50710690D01*
X40343551Y-50768465D01*
X40362920Y-50802013D01*
X40437487Y-50876580D01*
X40528813Y-50929307D01*
X40630673Y-50956600D01*
X40630675Y-50956600D01*
X40736125Y-50956600D01*
X40736127Y-50956600D01*
X40837987Y-50929307D01*
X40929313Y-50876580D01*
X40949805Y-50856088D01*
X40970298Y-50835596D01*
X41024815Y-50807819D01*
X41040301Y-50806600D01*
X41511029Y-50806600D01*
X41574768Y-50780198D01*
X41603097Y-50768464D01*
X44752327Y-47619234D01*
X56534500Y-47619234D01*
X56534500Y-47770766D01*
X56552620Y-47838390D01*
X56573720Y-47917139D01*
X56649481Y-48048360D01*
X56649483Y-48048362D01*
X56649485Y-48048365D01*
X56756635Y-48155515D01*
X56756637Y-48155516D01*
X56756639Y-48155518D01*
X56887861Y-48231279D01*
X56887859Y-48231279D01*
X56887863Y-48231280D01*
X56887865Y-48231281D01*
X57034234Y-48270500D01*
X57034236Y-48270500D01*
X57185764Y-48270500D01*
X57185766Y-48270500D01*
X57332135Y-48231281D01*
X57332137Y-48231279D01*
X57332139Y-48231279D01*
X57463360Y-48155518D01*
X57463360Y-48155517D01*
X57463365Y-48155515D01*
X57570515Y-48048365D01*
X57585163Y-48022994D01*
X57646279Y-47917139D01*
X57646279Y-47917137D01*
X57646281Y-47917135D01*
X57685500Y-47770766D01*
X57685500Y-47619234D01*
X57646281Y-47472865D01*
X57646279Y-47472862D01*
X57646279Y-47472860D01*
X57570518Y-47341639D01*
X57570516Y-47341637D01*
X57570515Y-47341635D01*
X57463365Y-47234485D01*
X57463362Y-47234483D01*
X57463360Y-47234481D01*
X57332138Y-47158720D01*
X57332140Y-47158720D01*
X57275347Y-47143503D01*
X57185766Y-47119500D01*
X57034234Y-47119500D01*
X56944652Y-47143503D01*
X56887860Y-47158720D01*
X56756639Y-47234481D01*
X56649481Y-47341639D01*
X56573720Y-47472860D01*
X56557038Y-47535119D01*
X56534500Y-47619234D01*
X44752327Y-47619234D01*
X53484964Y-38886597D01*
X53484965Y-38886593D01*
X53484967Y-38886592D01*
X53486786Y-38883871D01*
X53491051Y-38880508D01*
X53491858Y-38879702D01*
X53491953Y-38879797D01*
X53534836Y-38845992D01*
X53595974Y-38843591D01*
X53646848Y-38877585D01*
X53668024Y-38934989D01*
X53668100Y-38938874D01*
X53668100Y-45040128D01*
X53706234Y-45132194D01*
X53706235Y-45132195D01*
X53706236Y-45132197D01*
X54310805Y-45736766D01*
X54338581Y-45791281D01*
X54339800Y-45806768D01*
X54339800Y-45864727D01*
X54367093Y-45966587D01*
X54367094Y-45966589D01*
X54367094Y-45966590D01*
X54419818Y-46057910D01*
X54419820Y-46057913D01*
X54494387Y-46132480D01*
X54585713Y-46185207D01*
X54687573Y-46212500D01*
X54687575Y-46212500D01*
X54793025Y-46212500D01*
X54793027Y-46212500D01*
X54894887Y-46185207D01*
X54986213Y-46132480D01*
X55060780Y-46057913D01*
X55113507Y-45966587D01*
X55140800Y-45864727D01*
X55140800Y-45759273D01*
X55113507Y-45657413D01*
X55060780Y-45566087D01*
X54986213Y-45491520D01*
X54974620Y-45484827D01*
X54894889Y-45438794D01*
X54894888Y-45438793D01*
X54894887Y-45438793D01*
X54793027Y-45411500D01*
X54793025Y-45411500D01*
X54735069Y-45411500D01*
X54676878Y-45392593D01*
X54665065Y-45382504D01*
X54198096Y-44915535D01*
X54194469Y-44908417D01*
X54188007Y-44903722D01*
X54180843Y-44881673D01*
X54170319Y-44861018D01*
X54169100Y-44845531D01*
X54169100Y-44809473D01*
X54690800Y-44809473D01*
X54690800Y-44914927D01*
X54690963Y-44915535D01*
X54718094Y-45016789D01*
X54718094Y-45016790D01*
X54742403Y-45058894D01*
X54770820Y-45108113D01*
X54845387Y-45182680D01*
X54936713Y-45235407D01*
X55038573Y-45262700D01*
X55038575Y-45262700D01*
X55144025Y-45262700D01*
X55144027Y-45262700D01*
X55245887Y-45235407D01*
X55337213Y-45182680D01*
X55411780Y-45108113D01*
X55464507Y-45016787D01*
X55491800Y-44914927D01*
X55491800Y-44809473D01*
X55464507Y-44707613D01*
X55411780Y-44616287D01*
X55337213Y-44541720D01*
X55245887Y-44488993D01*
X55144027Y-44461700D01*
X55038573Y-44461700D01*
X54936713Y-44488993D01*
X54936712Y-44488993D01*
X54936710Y-44488994D01*
X54936709Y-44488994D01*
X54845389Y-44541718D01*
X54770818Y-44616289D01*
X54718094Y-44707609D01*
X54718094Y-44707610D01*
X54718093Y-44707612D01*
X54718093Y-44707613D01*
X54690800Y-44809473D01*
X54169100Y-44809473D01*
X54169100Y-43761100D01*
X54188007Y-43702909D01*
X54237507Y-43666945D01*
X54298693Y-43666945D01*
X54338101Y-43691094D01*
X54350787Y-43703780D01*
X54442113Y-43756507D01*
X54543973Y-43783800D01*
X54543975Y-43783800D01*
X54649425Y-43783800D01*
X54649427Y-43783800D01*
X54751287Y-43756507D01*
X54842613Y-43703780D01*
X54917180Y-43629213D01*
X54969907Y-43537887D01*
X54997200Y-43436027D01*
X54997200Y-43330573D01*
X54969907Y-43228713D01*
X54917180Y-43137387D01*
X54876196Y-43096402D01*
X54848419Y-43041885D01*
X54847200Y-43026399D01*
X54847200Y-41113782D01*
X54866107Y-41055591D01*
X54915607Y-41019627D01*
X54976793Y-41019627D01*
X54995870Y-41029671D01*
X54996468Y-41028636D01*
X55002087Y-41031880D01*
X55093413Y-41084607D01*
X55195273Y-41111900D01*
X55195275Y-41111900D01*
X55300725Y-41111900D01*
X55300727Y-41111900D01*
X55402587Y-41084607D01*
X55493913Y-41031880D01*
X55568480Y-40957313D01*
X55621207Y-40865987D01*
X55648500Y-40764127D01*
X55648500Y-40658673D01*
X55621207Y-40556813D01*
X55568480Y-40465487D01*
X55527496Y-40424502D01*
X55499719Y-40369985D01*
X55498500Y-40354499D01*
X55498500Y-31204767D01*
X55517407Y-31146576D01*
X55527490Y-31134769D01*
X61135076Y-25527182D01*
X61189591Y-25499407D01*
X61250023Y-25508978D01*
X61293288Y-25552243D01*
X61302859Y-25612675D01*
X61300705Y-25622810D01*
X61282643Y-25690220D01*
X61276600Y-25712773D01*
X61276600Y-25818227D01*
X61303061Y-25916981D01*
X61303894Y-25920089D01*
X61303894Y-25920090D01*
X61356618Y-26011410D01*
X61356620Y-26011413D01*
X61431187Y-26085980D01*
X61522513Y-26138707D01*
X61624373Y-26166000D01*
X61624375Y-26166000D01*
X61729825Y-26166000D01*
X61729827Y-26166000D01*
X61812679Y-26143800D01*
X61873779Y-26147003D01*
X61921328Y-26185508D01*
X61937300Y-26239427D01*
X61937300Y-33937628D01*
X61975434Y-34029694D01*
X61975435Y-34029695D01*
X61975436Y-34029697D01*
X63803843Y-35858103D01*
X65474169Y-37528429D01*
X65501946Y-37582946D01*
X65492375Y-37643378D01*
X65433788Y-37758361D01*
X65377828Y-37930593D01*
X65349500Y-38109450D01*
X65349500Y-38290549D01*
X65377828Y-38469406D01*
X65433788Y-38641637D01*
X65505791Y-38782951D01*
X65516004Y-38802994D01*
X65622447Y-38949501D01*
X65750499Y-39077553D01*
X65897006Y-39183996D01*
X66058361Y-39266211D01*
X66230591Y-39322171D01*
X66302136Y-39333502D01*
X66409451Y-39350500D01*
X66575031Y-39350500D01*
X66633222Y-39369407D01*
X66669186Y-39418907D01*
X66669186Y-39480093D01*
X66645035Y-39519504D01*
X60646904Y-45517635D01*
X60592387Y-45545412D01*
X60531955Y-45535841D01*
X60488690Y-45492576D01*
X60477900Y-45447631D01*
X60477900Y-45379374D01*
X60477900Y-45379373D01*
X60450607Y-45277513D01*
X60397880Y-45186187D01*
X60323313Y-45111620D01*
X60317233Y-45108110D01*
X60231989Y-45058894D01*
X60231988Y-45058893D01*
X60231987Y-45058893D01*
X60130127Y-45031600D01*
X60024673Y-45031600D01*
X59922813Y-45058893D01*
X59922812Y-45058893D01*
X59922810Y-45058894D01*
X59922809Y-45058894D01*
X59831489Y-45111618D01*
X59756918Y-45186189D01*
X59704194Y-45277509D01*
X59704194Y-45277510D01*
X59704193Y-45277512D01*
X59704193Y-45277513D01*
X59676900Y-45379373D01*
X59676900Y-45484827D01*
X59698674Y-45566089D01*
X59704194Y-45586689D01*
X59704194Y-45586690D01*
X59752024Y-45669533D01*
X59756920Y-45678013D01*
X59831487Y-45752580D01*
X59922813Y-45805307D01*
X60024673Y-45832600D01*
X60024675Y-45832600D01*
X60092931Y-45832600D01*
X60151122Y-45851507D01*
X60187086Y-45901007D01*
X60187086Y-45962193D01*
X60162935Y-46001604D01*
X56907735Y-49256804D01*
X56853218Y-49284581D01*
X56837731Y-49285800D01*
X46028201Y-49285800D01*
X45970010Y-49266893D01*
X45958198Y-49256804D01*
X45917212Y-49215819D01*
X45825889Y-49163094D01*
X45825888Y-49163093D01*
X45825887Y-49163093D01*
X45724027Y-49135800D01*
X45618573Y-49135800D01*
X45516713Y-49163093D01*
X45516712Y-49163093D01*
X45516710Y-49163094D01*
X45516709Y-49163094D01*
X45425389Y-49215818D01*
X45350818Y-49290389D01*
X45298094Y-49381709D01*
X45298094Y-49381710D01*
X45298093Y-49381712D01*
X45298093Y-49381713D01*
X45270800Y-49483573D01*
X45270800Y-49589027D01*
X45298093Y-49690887D01*
X45298094Y-49690889D01*
X45298094Y-49690890D01*
X45331451Y-49748665D01*
X45350820Y-49782213D01*
X45425387Y-49856780D01*
X45516713Y-49909507D01*
X45618573Y-49936800D01*
X45618575Y-49936800D01*
X45724025Y-49936800D01*
X45724027Y-49936800D01*
X45825887Y-49909507D01*
X45917213Y-49856780D01*
X45937705Y-49836288D01*
X45958198Y-49815796D01*
X46012715Y-49788019D01*
X46028201Y-49786800D01*
X57032329Y-49786800D01*
X57090385Y-49762751D01*
X57124397Y-49748664D01*
X59253827Y-47619234D01*
X62314500Y-47619234D01*
X62314500Y-47770766D01*
X62332620Y-47838390D01*
X62353720Y-47917139D01*
X62429481Y-48048360D01*
X62429483Y-48048362D01*
X62429485Y-48048365D01*
X62536635Y-48155515D01*
X62536637Y-48155516D01*
X62536639Y-48155518D01*
X62667861Y-48231279D01*
X62667859Y-48231279D01*
X62667863Y-48231280D01*
X62667865Y-48231281D01*
X62814234Y-48270500D01*
X62814236Y-48270500D01*
X62965764Y-48270500D01*
X62965766Y-48270500D01*
X63112135Y-48231281D01*
X63112137Y-48231279D01*
X63112139Y-48231279D01*
X63243360Y-48155518D01*
X63243360Y-48155517D01*
X63243365Y-48155515D01*
X63350515Y-48048365D01*
X63426281Y-47917135D01*
X63432558Y-47893709D01*
X73649500Y-47893709D01*
X73649500Y-48106290D01*
X73682752Y-48316238D01*
X73748443Y-48518412D01*
X73844948Y-48707815D01*
X73844950Y-48707819D01*
X73969891Y-48879786D01*
X73969893Y-48879788D01*
X73969896Y-48879792D01*
X74120208Y-49030104D01*
X74120211Y-49030106D01*
X74120213Y-49030108D01*
X74292180Y-49155049D01*
X74292184Y-49155051D01*
X74481588Y-49251557D01*
X74683757Y-49317246D01*
X74683758Y-49317246D01*
X74683761Y-49317247D01*
X74893710Y-49350500D01*
X74893713Y-49350500D01*
X75106290Y-49350500D01*
X75316238Y-49317247D01*
X75316239Y-49317246D01*
X75316243Y-49317246D01*
X75518412Y-49251557D01*
X75707816Y-49155051D01*
X75879792Y-49030104D01*
X76030104Y-48879792D01*
X76155051Y-48707816D01*
X76251557Y-48518412D01*
X76317246Y-48316243D01*
X76317247Y-48316238D01*
X76350500Y-48106290D01*
X76350500Y-47893709D01*
X76317247Y-47683761D01*
X76303387Y-47641105D01*
X76251557Y-47481588D01*
X76155051Y-47292184D01*
X76155049Y-47292180D01*
X76030108Y-47120213D01*
X76030106Y-47120211D01*
X76030104Y-47120208D01*
X75879792Y-46969896D01*
X75879788Y-46969893D01*
X75879786Y-46969891D01*
X75707819Y-46844950D01*
X75707815Y-46844948D01*
X75518412Y-46748443D01*
X75316238Y-46682752D01*
X75106290Y-46649500D01*
X75106287Y-46649500D01*
X74893713Y-46649500D01*
X74893710Y-46649500D01*
X74683761Y-46682752D01*
X74481587Y-46748443D01*
X74292184Y-46844948D01*
X74292180Y-46844950D01*
X74120213Y-46969891D01*
X73969891Y-47120213D01*
X73844950Y-47292180D01*
X73844948Y-47292184D01*
X73748443Y-47481587D01*
X73682752Y-47683761D01*
X73649500Y-47893709D01*
X63432558Y-47893709D01*
X63465500Y-47770766D01*
X63465500Y-47619234D01*
X63426281Y-47472865D01*
X63426279Y-47472862D01*
X63426279Y-47472860D01*
X63350518Y-47341639D01*
X63350516Y-47341637D01*
X63350515Y-47341635D01*
X63243365Y-47234485D01*
X63243362Y-47234483D01*
X63243360Y-47234481D01*
X63112138Y-47158720D01*
X63112140Y-47158720D01*
X63055347Y-47143503D01*
X62965766Y-47119500D01*
X62814234Y-47119500D01*
X62724652Y-47143503D01*
X62667860Y-47158720D01*
X62536639Y-47234481D01*
X62429481Y-47341639D01*
X62353720Y-47472860D01*
X62337038Y-47535119D01*
X62314500Y-47619234D01*
X59253827Y-47619234D01*
X67939595Y-38933464D01*
X67939597Y-38933464D01*
X68010064Y-38862997D01*
X68043220Y-38782951D01*
X68048201Y-38770927D01*
X68048201Y-38671272D01*
X68048201Y-38663298D01*
X68048200Y-38663284D01*
X68048200Y-30328773D01*
X70940200Y-30328773D01*
X70940200Y-30434227D01*
X70967493Y-30536087D01*
X70967494Y-30536089D01*
X70967494Y-30536090D01*
X71018207Y-30623927D01*
X71020220Y-30627413D01*
X71094787Y-30701980D01*
X71186113Y-30754707D01*
X71287973Y-30782000D01*
X71287975Y-30782000D01*
X71393425Y-30782000D01*
X71393427Y-30782000D01*
X71495287Y-30754707D01*
X71586613Y-30701980D01*
X71661180Y-30627413D01*
X71713907Y-30536087D01*
X71741200Y-30434227D01*
X71741200Y-30328773D01*
X71713907Y-30226913D01*
X71710729Y-30221409D01*
X71661181Y-30135589D01*
X71661180Y-30135587D01*
X71586613Y-30061020D01*
X71568085Y-30050323D01*
X71495289Y-30008294D01*
X71495288Y-30008293D01*
X71495287Y-30008293D01*
X71393427Y-29981000D01*
X71287973Y-29981000D01*
X71186113Y-30008293D01*
X71186112Y-30008293D01*
X71186110Y-30008294D01*
X71186109Y-30008294D01*
X71094789Y-30061018D01*
X71020218Y-30135589D01*
X70967494Y-30226909D01*
X70967494Y-30226910D01*
X70967493Y-30226912D01*
X70967493Y-30226913D01*
X70940200Y-30328773D01*
X68048200Y-30328773D01*
X68048200Y-29242459D01*
X68048201Y-29242450D01*
X68048201Y-29131273D01*
X68010064Y-29039204D01*
X68010064Y-29039203D01*
X67939597Y-28968736D01*
X67939595Y-28968735D01*
X67933953Y-28963092D01*
X67933948Y-28963088D01*
X67902595Y-28931734D01*
X67874819Y-28877217D01*
X67873600Y-28861732D01*
X67873600Y-28803774D01*
X67861844Y-28759900D01*
X67846307Y-28701913D01*
X67793580Y-28610587D01*
X67719013Y-28536020D01*
X67627687Y-28483293D01*
X67525827Y-28456000D01*
X67420373Y-28456000D01*
X67318513Y-28483293D01*
X67318512Y-28483293D01*
X67318510Y-28483294D01*
X67318509Y-28483294D01*
X67227189Y-28536018D01*
X67152618Y-28610589D01*
X67099894Y-28701909D01*
X67099894Y-28701910D01*
X67099893Y-28701912D01*
X67099893Y-28701913D01*
X67072600Y-28803773D01*
X67072600Y-28909227D01*
X67090942Y-28977681D01*
X67099894Y-29011089D01*
X67099894Y-29011090D01*
X67116126Y-29039204D01*
X67152620Y-29102413D01*
X67227187Y-29176980D01*
X67318513Y-29229707D01*
X67420373Y-29257000D01*
X67448200Y-29257000D01*
X67506391Y-29275907D01*
X67542355Y-29325407D01*
X67547200Y-29356000D01*
X67547200Y-37381139D01*
X67528293Y-37439330D01*
X67478793Y-37475294D01*
X67417607Y-37475294D01*
X67378196Y-37451143D01*
X67377555Y-37450502D01*
X67377553Y-37450499D01*
X67249501Y-37322447D01*
X67102994Y-37216004D01*
X67102993Y-37216003D01*
X67102991Y-37216002D01*
X66941637Y-37133788D01*
X66769406Y-37077828D01*
X66590549Y-37049500D01*
X66590546Y-37049500D01*
X66409454Y-37049500D01*
X66409451Y-37049500D01*
X66230593Y-37077828D01*
X66058361Y-37133788D01*
X65943378Y-37192375D01*
X65882945Y-37201946D01*
X65828429Y-37174169D01*
X62467296Y-33813035D01*
X62439519Y-33758518D01*
X62438300Y-33743031D01*
X62438300Y-26328800D01*
X62457207Y-26270609D01*
X62506707Y-26234645D01*
X62567893Y-26234645D01*
X62607301Y-26258794D01*
X62679687Y-26331180D01*
X62771013Y-26383907D01*
X62872873Y-26411200D01*
X62872875Y-26411200D01*
X62978325Y-26411200D01*
X62978327Y-26411200D01*
X63080187Y-26383907D01*
X63171513Y-26331180D01*
X63246080Y-26256613D01*
X63298807Y-26165287D01*
X63326100Y-26063427D01*
X63326100Y-25957973D01*
X63298807Y-25856113D01*
X63294249Y-25848219D01*
X63246081Y-25764789D01*
X63246080Y-25764787D01*
X63171513Y-25690220D01*
X63171510Y-25690218D01*
X63141549Y-25672920D01*
X63075766Y-25634940D01*
X63038609Y-25593673D01*
X64840400Y-25593673D01*
X64840400Y-25699127D01*
X64866754Y-25797481D01*
X64867694Y-25800989D01*
X64867694Y-25800990D01*
X64920418Y-25892310D01*
X64920420Y-25892313D01*
X64994987Y-25966880D01*
X65086313Y-26019607D01*
X65188173Y-26046900D01*
X65188175Y-26046900D01*
X65293625Y-26046900D01*
X65293627Y-26046900D01*
X65395487Y-26019607D01*
X65486813Y-25966880D01*
X65561380Y-25892313D01*
X65614107Y-25800987D01*
X65641400Y-25699127D01*
X65641400Y-25593673D01*
X65614107Y-25491813D01*
X65594800Y-25458373D01*
X65570850Y-25416889D01*
X65561380Y-25400487D01*
X65486813Y-25325920D01*
X65480733Y-25322410D01*
X65395489Y-25273194D01*
X65395488Y-25273193D01*
X65395487Y-25273193D01*
X65293627Y-25245900D01*
X65188173Y-25245900D01*
X65086313Y-25273193D01*
X65086312Y-25273193D01*
X65086310Y-25273194D01*
X65086309Y-25273194D01*
X64994989Y-25325918D01*
X64920418Y-25400489D01*
X64867694Y-25491809D01*
X64867694Y-25491810D01*
X64867693Y-25491812D01*
X64867693Y-25491813D01*
X64840400Y-25593673D01*
X63038609Y-25593673D01*
X63034825Y-25589471D01*
X63028429Y-25528621D01*
X63039530Y-25499704D01*
X63044086Y-25491813D01*
X63062807Y-25459387D01*
X63090100Y-25357527D01*
X63090100Y-25252073D01*
X63062807Y-25150213D01*
X63060555Y-25146313D01*
X63010081Y-25058889D01*
X63010080Y-25058887D01*
X62935513Y-24984320D01*
X62920470Y-24975635D01*
X62844189Y-24931594D01*
X62844188Y-24931593D01*
X62844187Y-24931593D01*
X62742327Y-24904300D01*
X62636873Y-24904300D01*
X62562921Y-24924114D01*
X62501821Y-24920912D01*
X62454271Y-24882407D01*
X62438300Y-24828488D01*
X62438300Y-23402771D01*
X62400164Y-23310703D01*
X62329697Y-23240235D01*
X62329697Y-23240236D01*
X56887197Y-17797736D01*
X56887195Y-17797735D01*
X56887194Y-17797734D01*
X56795129Y-17759600D01*
X56795128Y-17759600D01*
X56732101Y-17759600D01*
X56673910Y-17740693D01*
X56662098Y-17730604D01*
X56621115Y-17689622D01*
X56621113Y-17689620D01*
X56536140Y-17640561D01*
X56495201Y-17595093D01*
X56488805Y-17534243D01*
X56515636Y-17484824D01*
X57493664Y-16506797D01*
X57531800Y-16414728D01*
X57531800Y-16315072D01*
X57531800Y-15868459D01*
X57531801Y-15868450D01*
X57531801Y-15849531D01*
X57550708Y-15791340D01*
X57600208Y-15755376D01*
X57661394Y-15755376D01*
X57680291Y-15763789D01*
X57700413Y-15775407D01*
X57802273Y-15802700D01*
X57802275Y-15802700D01*
X57907725Y-15802700D01*
X57907727Y-15802700D01*
X58009587Y-15775407D01*
X58100913Y-15722680D01*
X58175480Y-15648113D01*
X58228207Y-15556787D01*
X58255500Y-15454927D01*
X58255500Y-15349473D01*
X58228207Y-15247613D01*
X58175480Y-15156287D01*
X58100913Y-15081720D01*
X58074400Y-15066413D01*
X58009589Y-15028994D01*
X58009588Y-15028993D01*
X58009587Y-15028993D01*
X57907727Y-15001700D01*
X57907725Y-15001700D01*
X57849769Y-15001700D01*
X57791578Y-14982793D01*
X57779765Y-14972704D01*
X57557865Y-14750804D01*
X57530088Y-14696287D01*
X57539659Y-14635855D01*
X57582924Y-14592590D01*
X57627869Y-14581800D01*
X62317031Y-14581800D01*
X62375222Y-14600707D01*
X62387035Y-14610796D01*
X68736904Y-20960665D01*
X68764681Y-21015182D01*
X68765900Y-21030669D01*
X68765900Y-21088627D01*
X68793193Y-21190487D01*
X68793194Y-21190489D01*
X68793194Y-21190490D01*
X68845918Y-21281810D01*
X68845920Y-21281813D01*
X68920487Y-21356380D01*
X69011813Y-21409107D01*
X69113673Y-21436400D01*
X69113675Y-21436400D01*
X69219125Y-21436400D01*
X69219127Y-21436400D01*
X69320987Y-21409107D01*
X69412313Y-21356380D01*
X69486880Y-21281813D01*
X69539607Y-21190487D01*
X69566900Y-21088627D01*
X69566900Y-20983173D01*
X69539607Y-20881313D01*
X69486880Y-20789987D01*
X69412313Y-20715420D01*
X69320987Y-20662693D01*
X69219127Y-20635400D01*
X69219125Y-20635400D01*
X69161169Y-20635400D01*
X69102978Y-20616493D01*
X69091165Y-20606404D01*
X66868066Y-18383305D01*
X64570834Y-16086073D01*
X68510100Y-16086073D01*
X68510100Y-16191527D01*
X68534761Y-16283563D01*
X68537394Y-16293389D01*
X68537394Y-16293390D01*
X68570875Y-16351380D01*
X68590120Y-16384713D01*
X68664687Y-16459280D01*
X68756013Y-16512007D01*
X68857873Y-16539300D01*
X68857875Y-16539300D01*
X68963325Y-16539300D01*
X68963327Y-16539300D01*
X69065187Y-16512007D01*
X69156513Y-16459280D01*
X69231080Y-16384713D01*
X69283807Y-16293387D01*
X69311100Y-16191527D01*
X69311100Y-16086073D01*
X69283807Y-15984213D01*
X69231080Y-15892887D01*
X69156513Y-15818320D01*
X69142963Y-15810497D01*
X69065189Y-15765594D01*
X69065188Y-15765593D01*
X69065187Y-15765593D01*
X68963327Y-15738300D01*
X68857873Y-15738300D01*
X68756013Y-15765593D01*
X68756012Y-15765593D01*
X68756010Y-15765594D01*
X68756009Y-15765594D01*
X68664689Y-15818318D01*
X68590118Y-15892889D01*
X68537394Y-15984209D01*
X68537394Y-15984210D01*
X68537393Y-15984212D01*
X68537393Y-15984213D01*
X68510100Y-16086073D01*
X64570834Y-16086073D01*
X62603697Y-14118936D01*
X62603695Y-14118935D01*
X62603694Y-14118934D01*
X62511629Y-14080800D01*
X62511628Y-14080800D01*
X51607968Y-14080800D01*
X51549777Y-14061893D01*
X51513813Y-14012393D01*
X51513813Y-13951207D01*
X51537964Y-13911796D01*
X51613864Y-13835896D01*
X51668381Y-13808119D01*
X51683868Y-13806900D01*
X65871899Y-13806900D01*
X65930090Y-13825807D01*
X65941902Y-13835896D01*
X65982887Y-13876880D01*
X66074213Y-13929607D01*
X66176073Y-13956900D01*
X66176075Y-13956900D01*
X66281525Y-13956900D01*
X66281527Y-13956900D01*
X66383387Y-13929607D01*
X66474713Y-13876880D01*
X66549280Y-13802313D01*
X66602007Y-13710987D01*
X66629300Y-13609127D01*
X66629300Y-13503673D01*
X66602007Y-13401813D01*
X66568649Y-13344036D01*
X66549281Y-13310489D01*
X66549280Y-13310487D01*
X66474713Y-13235920D01*
X66444722Y-13218605D01*
X66383389Y-13183194D01*
X66383388Y-13183193D01*
X66383387Y-13183193D01*
X66281527Y-13155900D01*
X66176073Y-13155900D01*
X66074213Y-13183193D01*
X66074212Y-13183193D01*
X66074210Y-13183194D01*
X66074209Y-13183194D01*
X65982887Y-13235919D01*
X65941902Y-13276904D01*
X65887385Y-13304681D01*
X65871899Y-13305900D01*
X51489271Y-13305900D01*
X51397203Y-13344035D01*
X51326735Y-13414502D01*
X51326736Y-13414503D01*
X51326735Y-13414504D01*
X47106731Y-17634507D01*
X47052214Y-17662284D01*
X46991782Y-17652713D01*
X46948517Y-17609448D01*
X46941102Y-17590132D01*
X46926307Y-17534913D01*
X46920518Y-17524887D01*
X46873581Y-17443589D01*
X46873580Y-17443587D01*
X46799013Y-17369020D01*
X46777144Y-17356394D01*
X46707689Y-17316294D01*
X46707688Y-17316293D01*
X46707687Y-17316293D01*
X46605827Y-17289000D01*
X46500373Y-17289000D01*
X46398513Y-17316293D01*
X46398512Y-17316293D01*
X46398510Y-17316294D01*
X46398509Y-17316294D01*
X46307189Y-17369018D01*
X46232618Y-17443589D01*
X46179894Y-17534909D01*
X46179894Y-17534910D01*
X46179893Y-17534912D01*
X46179893Y-17534913D01*
X46152600Y-17636773D01*
X46152600Y-17742227D01*
X46179893Y-17844087D01*
X46179894Y-17844089D01*
X46179894Y-17844090D01*
X46226833Y-17925390D01*
X46232620Y-17935413D01*
X46307187Y-18009980D01*
X46307189Y-18009981D01*
X46398509Y-18062705D01*
X46398510Y-18062705D01*
X46398513Y-18062707D01*
X46453727Y-18077501D01*
X46505040Y-18110823D01*
X46526967Y-18167945D01*
X46511132Y-18227045D01*
X46498107Y-18243131D01*
X39528493Y-25212745D01*
X32550101Y-32191136D01*
X32495587Y-32218912D01*
X32435155Y-32209341D01*
X32391890Y-32166076D01*
X32381100Y-32121131D01*
X32381100Y-30088000D01*
X32400007Y-30029809D01*
X32410090Y-30018002D01*
X32451080Y-29977013D01*
X32503807Y-29885687D01*
X32531100Y-29783827D01*
X32531100Y-29678373D01*
X32511312Y-29604522D01*
X32514515Y-29543421D01*
X32553020Y-29495871D01*
X32606939Y-29479900D01*
X33643829Y-29479900D01*
X33706818Y-29453809D01*
X33735897Y-29441764D01*
X37237065Y-25940596D01*
X37291582Y-25912819D01*
X37307069Y-25911600D01*
X37365025Y-25911600D01*
X37365027Y-25911600D01*
X37466887Y-25884307D01*
X37558213Y-25831580D01*
X37632780Y-25757013D01*
X37685507Y-25665687D01*
X37712800Y-25563827D01*
X37712800Y-25458373D01*
X37685507Y-25356513D01*
X37679437Y-25346000D01*
X37632781Y-25265189D01*
X37632780Y-25265187D01*
X37558213Y-25190620D01*
X37527292Y-25172768D01*
X37466889Y-25137894D01*
X37466888Y-25137893D01*
X37466887Y-25137893D01*
X37365027Y-25110600D01*
X37259573Y-25110600D01*
X37157713Y-25137893D01*
X37157712Y-25137893D01*
X37157710Y-25137894D01*
X37157709Y-25137894D01*
X37066389Y-25190618D01*
X36991818Y-25265189D01*
X36939094Y-25356509D01*
X36939094Y-25356510D01*
X36939093Y-25356512D01*
X36939093Y-25356513D01*
X36912811Y-25454602D01*
X36911800Y-25458374D01*
X36911800Y-25516331D01*
X36892893Y-25574522D01*
X36882804Y-25586335D01*
X33519235Y-28949904D01*
X33464718Y-28977681D01*
X33449231Y-28978900D01*
X31873071Y-28978900D01*
X31781005Y-29017034D01*
X27368035Y-33430004D01*
X27313518Y-33457781D01*
X27298031Y-33459000D01*
X20504501Y-33459000D01*
X20446310Y-33440093D01*
X20434498Y-33430004D01*
X20393512Y-33389019D01*
X20302189Y-33336294D01*
X20302188Y-33336293D01*
X20302187Y-33336293D01*
X20200327Y-33309000D01*
X20094873Y-33309000D01*
X19993013Y-33336293D01*
X19993012Y-33336293D01*
X19993010Y-33336294D01*
X19993009Y-33336294D01*
X19901689Y-33389018D01*
X19827119Y-33463588D01*
X19781356Y-33542852D01*
X19735886Y-33583792D01*
X19675036Y-33590187D01*
X19625616Y-33563355D01*
X17297496Y-31235235D01*
X17269719Y-31180718D01*
X17268500Y-31165231D01*
X17268500Y-30267873D01*
X23221900Y-30267873D01*
X23221900Y-30373327D01*
X23249193Y-30475187D01*
X23249194Y-30475189D01*
X23249194Y-30475190D01*
X23284355Y-30536090D01*
X23301920Y-30566513D01*
X23376487Y-30641080D01*
X23467813Y-30693807D01*
X23569673Y-30721100D01*
X23569675Y-30721100D01*
X23675125Y-30721100D01*
X23675127Y-30721100D01*
X23776987Y-30693807D01*
X23868313Y-30641080D01*
X23942880Y-30566513D01*
X23995607Y-30475187D01*
X24022900Y-30373327D01*
X24022900Y-30267873D01*
X23995607Y-30166013D01*
X23942880Y-30074687D01*
X23868313Y-30000120D01*
X23836247Y-29981607D01*
X23776989Y-29947394D01*
X23776988Y-29947393D01*
X23776987Y-29947393D01*
X23675127Y-29920100D01*
X23569673Y-29920100D01*
X23467813Y-29947393D01*
X23467812Y-29947393D01*
X23467810Y-29947394D01*
X23467809Y-29947394D01*
X23376489Y-30000118D01*
X23301918Y-30074689D01*
X23249194Y-30166009D01*
X23249194Y-30166010D01*
X23249193Y-30166012D01*
X23249193Y-30166013D01*
X23221900Y-30267873D01*
X17268500Y-30267873D01*
X17268500Y-29326300D01*
X17287407Y-29268109D01*
X17297490Y-29256302D01*
X17338480Y-29215313D01*
X17391207Y-29123987D01*
X17418500Y-29022127D01*
X17418500Y-28916673D01*
X17391207Y-28814813D01*
X17359502Y-28759899D01*
X17346781Y-28700052D01*
X17371667Y-28644156D01*
X17424655Y-28613563D01*
X17445239Y-28611400D01*
X32804729Y-28611400D01*
X32862785Y-28587351D01*
X32896797Y-28573264D01*
X37890565Y-23579496D01*
X37945082Y-23551719D01*
X37960569Y-23550500D01*
X39555799Y-23550500D01*
X39613990Y-23569407D01*
X39625802Y-23579496D01*
X39666787Y-23620480D01*
X39758113Y-23673207D01*
X39859973Y-23700500D01*
X39859975Y-23700500D01*
X39965425Y-23700500D01*
X39965427Y-23700500D01*
X40067287Y-23673207D01*
X40158613Y-23620480D01*
X40233180Y-23545913D01*
X40285907Y-23454587D01*
X40313200Y-23352727D01*
X40313200Y-23247273D01*
X40285907Y-23145413D01*
X40275616Y-23127589D01*
X40233181Y-23054089D01*
X40233180Y-23054087D01*
X40158613Y-22979520D01*
X40067287Y-22926793D01*
X39965427Y-22899500D01*
X39859973Y-22899500D01*
X39758113Y-22926793D01*
X39758112Y-22926793D01*
X39758110Y-22926794D01*
X39758109Y-22926794D01*
X39666787Y-22979519D01*
X39625802Y-23020504D01*
X39571285Y-23048281D01*
X39555799Y-23049500D01*
X38162269Y-23049500D01*
X38104078Y-23030593D01*
X38068114Y-22981093D01*
X38068114Y-22919907D01*
X38092265Y-22880496D01*
X49708064Y-11264696D01*
X49762581Y-11236919D01*
X49778068Y-11235700D01*
X66379099Y-11235700D01*
X66437290Y-11254607D01*
X66449102Y-11264696D01*
X66481394Y-11296987D01*
X66490087Y-11305680D01*
X66581413Y-11358407D01*
X66683273Y-11385700D01*
X66683275Y-11385700D01*
X66788725Y-11385700D01*
X66788727Y-11385700D01*
X66890587Y-11358407D01*
X66981913Y-11305680D01*
X67056480Y-11231113D01*
X67109207Y-11139787D01*
X67136500Y-11037927D01*
X67136500Y-10932473D01*
X67109207Y-10830613D01*
X67075849Y-10772836D01*
X67056481Y-10739289D01*
X67056480Y-10739287D01*
X66981913Y-10664720D01*
X66963534Y-10654109D01*
X66890589Y-10611994D01*
X66890588Y-10611993D01*
X66890587Y-10611993D01*
X66788727Y-10584700D01*
X66683273Y-10584700D01*
X66581413Y-10611993D01*
X66581412Y-10611993D01*
X66581410Y-10611994D01*
X66581409Y-10611994D01*
X66490087Y-10664719D01*
X66449102Y-10705704D01*
X66394585Y-10733481D01*
X66379099Y-10734700D01*
X49583471Y-10734700D01*
X49491403Y-10772835D01*
X49420935Y-10843302D01*
X49420936Y-10843303D01*
X32691135Y-27573104D01*
X32636618Y-27600881D01*
X32621131Y-27602100D01*
X27576301Y-27602100D01*
X27518110Y-27583193D01*
X27506298Y-27573104D01*
X27465312Y-27532119D01*
X27373989Y-27479394D01*
X27373988Y-27479393D01*
X27373987Y-27479393D01*
X27272127Y-27452100D01*
X27166673Y-27452100D01*
X27064813Y-27479393D01*
X27064812Y-27479393D01*
X27064810Y-27479394D01*
X27064809Y-27479394D01*
X26973489Y-27532118D01*
X26898918Y-27606689D01*
X26846194Y-27698009D01*
X26846194Y-27698010D01*
X26846193Y-27698012D01*
X26846193Y-27698013D01*
X26818900Y-27799873D01*
X26818900Y-27905327D01*
X26840456Y-27985779D01*
X26837254Y-28046878D01*
X26798749Y-28094428D01*
X26744830Y-28110400D01*
X11506671Y-28110400D01*
X11414605Y-28148534D01*
X8860635Y-30702504D01*
X8806118Y-30730281D01*
X8790631Y-30731500D01*
X8732673Y-30731500D01*
X8630813Y-30758793D01*
X8630812Y-30758793D01*
X8630810Y-30758794D01*
X8630809Y-30758794D01*
X8539489Y-30811518D01*
X8464918Y-30886089D01*
X8412194Y-30977409D01*
X8412191Y-30977416D01*
X8404118Y-31007547D01*
X8370794Y-31058861D01*
X8313672Y-31080787D01*
X8254572Y-31064951D01*
X8238488Y-31051927D01*
X7661167Y-30474606D01*
X7633390Y-30420089D01*
X7642961Y-30359657D01*
X7681668Y-30318868D01*
X7747813Y-30280680D01*
X7822380Y-30206113D01*
X7875107Y-30114787D01*
X7902400Y-30012927D01*
X7902400Y-29954968D01*
X7921307Y-29896777D01*
X7931396Y-29884964D01*
X11415787Y-26400573D01*
X31748400Y-26400573D01*
X31748400Y-26506027D01*
X31770569Y-26588763D01*
X31775694Y-26607889D01*
X31775694Y-26607890D01*
X31828418Y-26699210D01*
X31828420Y-26699213D01*
X31902987Y-26773780D01*
X31994313Y-26826507D01*
X32096173Y-26853800D01*
X32096175Y-26853800D01*
X32201625Y-26853800D01*
X32201627Y-26853800D01*
X32303487Y-26826507D01*
X32394813Y-26773780D01*
X32469380Y-26699213D01*
X32522107Y-26607887D01*
X32549400Y-26506027D01*
X32549400Y-26400573D01*
X32522107Y-26298713D01*
X32469380Y-26207387D01*
X32394813Y-26132820D01*
X32324623Y-26092296D01*
X32303489Y-26080094D01*
X32303488Y-26080093D01*
X32303487Y-26080093D01*
X32201627Y-26052800D01*
X32096173Y-26052800D01*
X31994313Y-26080093D01*
X31994312Y-26080093D01*
X31994310Y-26080094D01*
X31994309Y-26080094D01*
X31902989Y-26132818D01*
X31828418Y-26207389D01*
X31775694Y-26298709D01*
X31775694Y-26298710D01*
X31775693Y-26298712D01*
X31775693Y-26298713D01*
X31748400Y-26400573D01*
X11415787Y-26400573D01*
X11940364Y-25875996D01*
X11994881Y-25848219D01*
X12010368Y-25847000D01*
X13606099Y-25847000D01*
X13664290Y-25865907D01*
X13676102Y-25875996D01*
X13707276Y-25907169D01*
X13717087Y-25916980D01*
X13808413Y-25969707D01*
X13910273Y-25997000D01*
X13910275Y-25997000D01*
X14015725Y-25997000D01*
X14015727Y-25997000D01*
X14117587Y-25969707D01*
X14208913Y-25916980D01*
X14283480Y-25842413D01*
X14336207Y-25751087D01*
X14363500Y-25649227D01*
X14363500Y-25543773D01*
X14336207Y-25441913D01*
X14321759Y-25416889D01*
X14283481Y-25350589D01*
X14283480Y-25350587D01*
X14208913Y-25276020D01*
X14204730Y-25273605D01*
X14117589Y-25223294D01*
X14117588Y-25223293D01*
X14117587Y-25223293D01*
X14015727Y-25196000D01*
X13910273Y-25196000D01*
X13808413Y-25223293D01*
X13808412Y-25223293D01*
X13808410Y-25223294D01*
X13808409Y-25223294D01*
X13717087Y-25276019D01*
X13676102Y-25317004D01*
X13621585Y-25344781D01*
X13606099Y-25346000D01*
X11915430Y-25346000D01*
X11915428Y-25345999D01*
X11815773Y-25345999D01*
X11767637Y-25365938D01*
X11755949Y-25370779D01*
X11755943Y-25370780D01*
X11723703Y-25384135D01*
X11653235Y-25454602D01*
X11653236Y-25454603D01*
X11653235Y-25454604D01*
X10990393Y-26117445D01*
X10935876Y-26145222D01*
X10875444Y-26135651D01*
X10832179Y-26092386D01*
X10824764Y-26073068D01*
X10815907Y-26040013D01*
X10804124Y-26019605D01*
X10763181Y-25948689D01*
X10763180Y-25948687D01*
X10688613Y-25874120D01*
X10647194Y-25850207D01*
X10597289Y-25821394D01*
X10597288Y-25821393D01*
X10597287Y-25821393D01*
X10495427Y-25794100D01*
X10389973Y-25794100D01*
X10288113Y-25821393D01*
X10288112Y-25821393D01*
X10288110Y-25821394D01*
X10288109Y-25821394D01*
X10196789Y-25874118D01*
X10122218Y-25948689D01*
X10069494Y-26040009D01*
X10069494Y-26040010D01*
X10069493Y-26040012D01*
X10069493Y-26040013D01*
X10042200Y-26141873D01*
X10042200Y-26247327D01*
X10069493Y-26349187D01*
X10069494Y-26349189D01*
X10069494Y-26349190D01*
X10099161Y-26400574D01*
X10122220Y-26440513D01*
X10196787Y-26515080D01*
X10196789Y-26515081D01*
X10288109Y-26567805D01*
X10288110Y-26567805D01*
X10288113Y-26567807D01*
X10321164Y-26576663D01*
X10372478Y-26609985D01*
X10394405Y-26667107D01*
X10378570Y-26726207D01*
X10365545Y-26742293D01*
X7577135Y-29530704D01*
X7522618Y-29558481D01*
X7507131Y-29559700D01*
X7449173Y-29559700D01*
X7375322Y-29579488D01*
X7314221Y-29576285D01*
X7266671Y-29537780D01*
X7250700Y-29483861D01*
X7250700Y-26206769D01*
X7269607Y-26148578D01*
X7279696Y-26136765D01*
X7324165Y-26092296D01*
X7378682Y-26064519D01*
X7394169Y-26063300D01*
X7452125Y-26063300D01*
X7452127Y-26063300D01*
X7553987Y-26036007D01*
X7645313Y-25983280D01*
X7719880Y-25908713D01*
X7772607Y-25817387D01*
X7799900Y-25715527D01*
X7799900Y-25610073D01*
X7772607Y-25508213D01*
X7769776Y-25503310D01*
X7719881Y-25416889D01*
X7719880Y-25416887D01*
X7645313Y-25342320D01*
X7616907Y-25325920D01*
X7553989Y-25289594D01*
X7553988Y-25289593D01*
X7553987Y-25289593D01*
X7452127Y-25262300D01*
X7346673Y-25262300D01*
X7244813Y-25289593D01*
X7244812Y-25289593D01*
X7244810Y-25289594D01*
X7244809Y-25289594D01*
X7153489Y-25342318D01*
X7078918Y-25416889D01*
X7026194Y-25508209D01*
X7026194Y-25508210D01*
X7026193Y-25508212D01*
X7026193Y-25508213D01*
X7003295Y-25593673D01*
X6998900Y-25610074D01*
X6998900Y-25668031D01*
X6979993Y-25726222D01*
X6969904Y-25738035D01*
X6858303Y-25849636D01*
X6858302Y-25849635D01*
X6787835Y-25920103D01*
X6749700Y-26012171D01*
X6749700Y-30217729D01*
X6772789Y-30273472D01*
X6777590Y-30334468D01*
X6745620Y-30386637D01*
X6689092Y-30410052D01*
X6629597Y-30395768D01*
X6611325Y-30381364D01*
X5626097Y-29396136D01*
X5626095Y-29396135D01*
X5626094Y-29396134D01*
X5534029Y-29358000D01*
X5534028Y-29358000D01*
X4886801Y-29358000D01*
X4828610Y-29339093D01*
X4816798Y-29329004D01*
X4775712Y-29287919D01*
X4684389Y-29235194D01*
X4684388Y-29235193D01*
X4684387Y-29235193D01*
X4582527Y-29207900D01*
X4477073Y-29207900D01*
X4375213Y-29235193D01*
X4375212Y-29235193D01*
X4375210Y-29235194D01*
X4375209Y-29235194D01*
X4283889Y-29287918D01*
X4209318Y-29362489D01*
X4156594Y-29453809D01*
X4156594Y-29453810D01*
X4156593Y-29453812D01*
X4156593Y-29453813D01*
X4129300Y-29555673D01*
X500500Y-29555673D01*
X500500Y-24052573D01*
X10011500Y-24052573D01*
X10011500Y-24158027D01*
X10025102Y-24208790D01*
X10038794Y-24259889D01*
X10038794Y-24259890D01*
X10088549Y-24346067D01*
X10091520Y-24351213D01*
X10166087Y-24425780D01*
X10257413Y-24478507D01*
X10359273Y-24505800D01*
X10359275Y-24505800D01*
X10464725Y-24505800D01*
X10464727Y-24505800D01*
X10566587Y-24478507D01*
X10657913Y-24425780D01*
X10732480Y-24351213D01*
X10732482Y-24351208D01*
X10732485Y-24351206D01*
X10736429Y-24346067D01*
X10738240Y-24347456D01*
X10776236Y-24313254D01*
X10816492Y-24304700D01*
X34358599Y-24304700D01*
X34416790Y-24323607D01*
X34428602Y-24333696D01*
X34469587Y-24374680D01*
X34560913Y-24427407D01*
X34662773Y-24454700D01*
X34662775Y-24454700D01*
X34768225Y-24454700D01*
X34768227Y-24454700D01*
X34870087Y-24427407D01*
X34961413Y-24374680D01*
X35035980Y-24300113D01*
X35088707Y-24208787D01*
X35116000Y-24106927D01*
X35116000Y-24001473D01*
X35088707Y-23899613D01*
X35035980Y-23808287D01*
X34961413Y-23733720D01*
X34903874Y-23700500D01*
X34870089Y-23680994D01*
X34870088Y-23680993D01*
X34870087Y-23680993D01*
X34768227Y-23653700D01*
X34662773Y-23653700D01*
X34560913Y-23680993D01*
X34560912Y-23680993D01*
X34560910Y-23680994D01*
X34560909Y-23680994D01*
X34469587Y-23733719D01*
X34428602Y-23774704D01*
X34374085Y-23802481D01*
X34358599Y-23803700D01*
X10716123Y-23803700D01*
X10664237Y-23786841D01*
X10663532Y-23788064D01*
X10566589Y-23732094D01*
X10566588Y-23732093D01*
X10566587Y-23732093D01*
X10464727Y-23704800D01*
X10359273Y-23704800D01*
X10257413Y-23732093D01*
X10257412Y-23732093D01*
X10257410Y-23732094D01*
X10257409Y-23732094D01*
X10166089Y-23784818D01*
X10091518Y-23859389D01*
X10038794Y-23950709D01*
X10038794Y-23950710D01*
X10038793Y-23950712D01*
X10038793Y-23950713D01*
X10011500Y-24052573D01*
X500500Y-24052573D01*
X500500Y-22436273D01*
X4967400Y-22436273D01*
X4967400Y-22541727D01*
X4994693Y-22643587D01*
X4994694Y-22643589D01*
X4994694Y-22643590D01*
X5042903Y-22727089D01*
X5047420Y-22734913D01*
X5121987Y-22809480D01*
X5213313Y-22862207D01*
X5315173Y-22889500D01*
X5315175Y-22889500D01*
X5420625Y-22889500D01*
X5420627Y-22889500D01*
X5522487Y-22862207D01*
X5613813Y-22809480D01*
X5688380Y-22734913D01*
X5741107Y-22643587D01*
X5768400Y-22541727D01*
X5768400Y-22436273D01*
X5741107Y-22334413D01*
X5688380Y-22243087D01*
X5613813Y-22168520D01*
X5551251Y-22132400D01*
X5522489Y-22115794D01*
X5522488Y-22115793D01*
X5522487Y-22115793D01*
X5420627Y-22088500D01*
X5315173Y-22088500D01*
X5213313Y-22115793D01*
X5213312Y-22115793D01*
X5213310Y-22115794D01*
X5213309Y-22115794D01*
X5121989Y-22168518D01*
X5047418Y-22243089D01*
X4994694Y-22334409D01*
X4994694Y-22334410D01*
X4994693Y-22334412D01*
X4994693Y-22334413D01*
X4967400Y-22436273D01*
X500500Y-22436273D01*
X500500Y-20099173D01*
X21625900Y-20099173D01*
X21625900Y-20204627D01*
X21653193Y-20306487D01*
X21653194Y-20306489D01*
X21653194Y-20306490D01*
X21705918Y-20397810D01*
X21705920Y-20397813D01*
X21780487Y-20472380D01*
X21871813Y-20525107D01*
X21973673Y-20552400D01*
X21973675Y-20552400D01*
X22079125Y-20552400D01*
X22079127Y-20552400D01*
X22180987Y-20525107D01*
X22272313Y-20472380D01*
X22346880Y-20397813D01*
X22399607Y-20306487D01*
X22426900Y-20204627D01*
X22426900Y-20099173D01*
X22399607Y-19997313D01*
X22356538Y-19922716D01*
X22346880Y-19905987D01*
X22305896Y-19865002D01*
X22278119Y-19810485D01*
X22276900Y-19794999D01*
X22276900Y-11133969D01*
X22295807Y-11075778D01*
X22305896Y-11063965D01*
X25372096Y-7997765D01*
X25426613Y-7969988D01*
X25487045Y-7979559D01*
X25530310Y-8022824D01*
X25541100Y-8067769D01*
X25541100Y-19954340D01*
X25527837Y-20003838D01*
X25478893Y-20088613D01*
X25451600Y-20190473D01*
X25451600Y-20295927D01*
X25478893Y-20397787D01*
X25478894Y-20397789D01*
X25478894Y-20397790D01*
X25531618Y-20489110D01*
X25531620Y-20489113D01*
X25606187Y-20563680D01*
X25697513Y-20616407D01*
X25799373Y-20643700D01*
X25799375Y-20643700D01*
X25904825Y-20643700D01*
X25904827Y-20643700D01*
X26006687Y-20616407D01*
X26098013Y-20563680D01*
X26172580Y-20489113D01*
X26225307Y-20397787D01*
X26252600Y-20295927D01*
X26252600Y-20190473D01*
X26225307Y-20088613D01*
X26172580Y-19997287D01*
X26098013Y-19922720D01*
X26098010Y-19922718D01*
X26098008Y-19922716D01*
X26091596Y-19919014D01*
X26050657Y-19873543D01*
X26042100Y-19833280D01*
X26042100Y-16905773D01*
X29022700Y-16905773D01*
X29022700Y-17011227D01*
X29047379Y-17103330D01*
X29049994Y-17113089D01*
X29049994Y-17113090D01*
X29093172Y-17187876D01*
X29102720Y-17204413D01*
X29177287Y-17278980D01*
X29268613Y-17331707D01*
X29370473Y-17359000D01*
X29370475Y-17359000D01*
X29475925Y-17359000D01*
X29475927Y-17359000D01*
X29577787Y-17331707D01*
X29669113Y-17278980D01*
X29743680Y-17204413D01*
X29747052Y-17198573D01*
X39599500Y-17198573D01*
X39599500Y-17304027D01*
X39624571Y-17397593D01*
X39626794Y-17405889D01*
X39626794Y-17405890D01*
X39671712Y-17483689D01*
X39679520Y-17497213D01*
X39754087Y-17571780D01*
X39845413Y-17624507D01*
X39947273Y-17651800D01*
X39947275Y-17651800D01*
X40052725Y-17651800D01*
X40052727Y-17651800D01*
X40154587Y-17624507D01*
X40245913Y-17571780D01*
X40320480Y-17497213D01*
X40373207Y-17405887D01*
X40400500Y-17304027D01*
X40400500Y-17246067D01*
X40419407Y-17187876D01*
X40429490Y-17176069D01*
X41724595Y-15880964D01*
X41724597Y-15880964D01*
X41795064Y-15810497D01*
X41833200Y-15718428D01*
X41833200Y-10712300D01*
X41852107Y-10654109D01*
X41862190Y-10642302D01*
X41903180Y-10601313D01*
X41955907Y-10509987D01*
X41983200Y-10408127D01*
X41983200Y-10302673D01*
X41955907Y-10200813D01*
X41903180Y-10109487D01*
X41828613Y-10034920D01*
X41737287Y-9982193D01*
X41635427Y-9954900D01*
X41529973Y-9954900D01*
X41428113Y-9982193D01*
X41428112Y-9982193D01*
X41428110Y-9982194D01*
X41428109Y-9982194D01*
X41336789Y-10034918D01*
X41262218Y-10109489D01*
X41209494Y-10200809D01*
X41209494Y-10200810D01*
X41209493Y-10200812D01*
X41209493Y-10200813D01*
X41182200Y-10302673D01*
X41182200Y-10408127D01*
X41209493Y-10509987D01*
X41209494Y-10509989D01*
X41209494Y-10509990D01*
X41223368Y-10534020D01*
X41262220Y-10601313D01*
X41303205Y-10642298D01*
X41330981Y-10696813D01*
X41332200Y-10712300D01*
X41332200Y-15523831D01*
X41313293Y-15582022D01*
X41303204Y-15593835D01*
X40075235Y-16821804D01*
X40020718Y-16849581D01*
X40005231Y-16850800D01*
X39947273Y-16850800D01*
X39845413Y-16878093D01*
X39845412Y-16878093D01*
X39845410Y-16878094D01*
X39845409Y-16878094D01*
X39754089Y-16930818D01*
X39679518Y-17005389D01*
X39626794Y-17096709D01*
X39626794Y-17096710D01*
X39626793Y-17096712D01*
X39626793Y-17096713D01*
X39599500Y-17198573D01*
X29747052Y-17198573D01*
X29796407Y-17113087D01*
X29823700Y-17011227D01*
X29823700Y-16905773D01*
X29796407Y-16803913D01*
X29763280Y-16746536D01*
X29743680Y-16712587D01*
X29702696Y-16671602D01*
X29674919Y-16617085D01*
X29673700Y-16601599D01*
X29673700Y-15058073D01*
X34145400Y-15058073D01*
X34145400Y-15163527D01*
X34167930Y-15247610D01*
X34172694Y-15265389D01*
X34172694Y-15265390D01*
X34224986Y-15355961D01*
X34225420Y-15356713D01*
X34299987Y-15431280D01*
X34391313Y-15484007D01*
X34493173Y-15511300D01*
X34493175Y-15511300D01*
X34598625Y-15511300D01*
X34598627Y-15511300D01*
X34700487Y-15484007D01*
X34791813Y-15431280D01*
X34866380Y-15356713D01*
X34919107Y-15265387D01*
X34946400Y-15163527D01*
X34946400Y-15058073D01*
X34919107Y-14956213D01*
X34866380Y-14864887D01*
X34791813Y-14790320D01*
X34700487Y-14737593D01*
X34598627Y-14710300D01*
X34493173Y-14710300D01*
X34391313Y-14737593D01*
X34391312Y-14737593D01*
X34391310Y-14737594D01*
X34391309Y-14737594D01*
X34299989Y-14790318D01*
X34225418Y-14864889D01*
X34172694Y-14956209D01*
X34172694Y-14956210D01*
X34172693Y-14956212D01*
X34172693Y-14956213D01*
X34145400Y-15058073D01*
X29673700Y-15058073D01*
X29673700Y-14428169D01*
X29692607Y-14369978D01*
X29702696Y-14358165D01*
X30020388Y-14040473D01*
X34025400Y-14040473D01*
X34025400Y-14145927D01*
X34052693Y-14247787D01*
X34052694Y-14247789D01*
X34052694Y-14247790D01*
X34105418Y-14339110D01*
X34105420Y-14339113D01*
X34179987Y-14413680D01*
X34271313Y-14466407D01*
X34373173Y-14493700D01*
X34373175Y-14493700D01*
X34478625Y-14493700D01*
X34478627Y-14493700D01*
X34580487Y-14466407D01*
X34671813Y-14413680D01*
X34746380Y-14339113D01*
X34799107Y-14247787D01*
X34826400Y-14145927D01*
X34826400Y-14040473D01*
X34799107Y-13938613D01*
X34793907Y-13929607D01*
X34746381Y-13847289D01*
X34746380Y-13847287D01*
X34671813Y-13772720D01*
X34640568Y-13754681D01*
X34580489Y-13719994D01*
X34580488Y-13719993D01*
X34580487Y-13719993D01*
X34478627Y-13692700D01*
X34373173Y-13692700D01*
X34271313Y-13719993D01*
X34271312Y-13719993D01*
X34271310Y-13719994D01*
X34271309Y-13719994D01*
X34179989Y-13772718D01*
X34105418Y-13847289D01*
X34052694Y-13938609D01*
X34052694Y-13938610D01*
X34052693Y-13938612D01*
X34052693Y-13938613D01*
X34025400Y-14040473D01*
X30020388Y-14040473D01*
X30679388Y-13381473D01*
X37671400Y-13381473D01*
X37671400Y-13486927D01*
X37698693Y-13588787D01*
X37698694Y-13588789D01*
X37698694Y-13588790D01*
X37732647Y-13647598D01*
X37751420Y-13680113D01*
X37825987Y-13754680D01*
X37917313Y-13807407D01*
X38019173Y-13834700D01*
X38019175Y-13834700D01*
X38124625Y-13834700D01*
X38124627Y-13834700D01*
X38226487Y-13807407D01*
X38317813Y-13754680D01*
X38392380Y-13680113D01*
X38445107Y-13588787D01*
X38472400Y-13486927D01*
X38472400Y-13381473D01*
X38445107Y-13279613D01*
X38430010Y-13253465D01*
X38392381Y-13188289D01*
X38392380Y-13188287D01*
X38317813Y-13113720D01*
X38226487Y-13060993D01*
X38124627Y-13033700D01*
X38019173Y-13033700D01*
X37917313Y-13060993D01*
X37917312Y-13060993D01*
X37917310Y-13060994D01*
X37917309Y-13060994D01*
X37825989Y-13113718D01*
X37751418Y-13188289D01*
X37698694Y-13279609D01*
X37698694Y-13279610D01*
X37698693Y-13279612D01*
X37698693Y-13279613D01*
X37671400Y-13381473D01*
X30679388Y-13381473D01*
X31572588Y-12488273D01*
X33241400Y-12488273D01*
X33241400Y-12593727D01*
X33242944Y-12599489D01*
X33268694Y-12695589D01*
X33268694Y-12695590D01*
X33321418Y-12786910D01*
X33321420Y-12786913D01*
X33395987Y-12861480D01*
X33487313Y-12914207D01*
X33589173Y-12941500D01*
X33589175Y-12941500D01*
X33694625Y-12941500D01*
X33694627Y-12941500D01*
X33796487Y-12914207D01*
X33886209Y-12862405D01*
X33946057Y-12849684D01*
X34001953Y-12874571D01*
X34031335Y-12922518D01*
X34052093Y-12999987D01*
X34052094Y-12999988D01*
X34052094Y-12999990D01*
X34087315Y-13060994D01*
X34104820Y-13091313D01*
X34179387Y-13165880D01*
X34270713Y-13218607D01*
X34372573Y-13245900D01*
X34372575Y-13245900D01*
X34478025Y-13245900D01*
X34478027Y-13245900D01*
X34579887Y-13218607D01*
X34671213Y-13165880D01*
X34745780Y-13091313D01*
X34798507Y-12999987D01*
X34825800Y-12898127D01*
X34825800Y-12792673D01*
X34798507Y-12690813D01*
X34776330Y-12652402D01*
X34745781Y-12599489D01*
X34745780Y-12599487D01*
X34671213Y-12524920D01*
X34669609Y-12523994D01*
X34579889Y-12472194D01*
X34579888Y-12472193D01*
X34579887Y-12472193D01*
X34478027Y-12444900D01*
X34372573Y-12444900D01*
X34321643Y-12458546D01*
X34270711Y-12472193D01*
X34180989Y-12523994D01*
X34121141Y-12536715D01*
X34065245Y-12511828D01*
X34035864Y-12463881D01*
X34015107Y-12386413D01*
X33962380Y-12295087D01*
X33887813Y-12220520D01*
X33885282Y-12219059D01*
X33796489Y-12167794D01*
X33796488Y-12167793D01*
X33796487Y-12167793D01*
X33694627Y-12140500D01*
X33589173Y-12140500D01*
X33487313Y-12167793D01*
X33487312Y-12167793D01*
X33487310Y-12167794D01*
X33487309Y-12167794D01*
X33395989Y-12220518D01*
X33321418Y-12295089D01*
X33268694Y-12386409D01*
X33268694Y-12386410D01*
X33268693Y-12386412D01*
X33268693Y-12386413D01*
X33241400Y-12488273D01*
X31572588Y-12488273D01*
X31987065Y-12073796D01*
X32041582Y-12046019D01*
X32057069Y-12044800D01*
X32115025Y-12044800D01*
X32115027Y-12044800D01*
X32216887Y-12017507D01*
X32308213Y-11964780D01*
X32382780Y-11890213D01*
X32435507Y-11798887D01*
X32462800Y-11697027D01*
X32462800Y-11591573D01*
X32435507Y-11489713D01*
X32414580Y-11453467D01*
X32382781Y-11398389D01*
X32382780Y-11398387D01*
X32308213Y-11323820D01*
X32276795Y-11305681D01*
X32216889Y-11271094D01*
X32216888Y-11271093D01*
X32216887Y-11271093D01*
X32115027Y-11243800D01*
X32009573Y-11243800D01*
X31907713Y-11271093D01*
X31907712Y-11271093D01*
X31907710Y-11271094D01*
X31907709Y-11271094D01*
X31816389Y-11323818D01*
X31741818Y-11398389D01*
X31689094Y-11489709D01*
X31689094Y-11489710D01*
X31689093Y-11489712D01*
X31689093Y-11489713D01*
X31688970Y-11490174D01*
X31661800Y-11591574D01*
X31661800Y-11649531D01*
X31642893Y-11707722D01*
X31632804Y-11719535D01*
X29281303Y-14071036D01*
X29281302Y-14071035D01*
X29210835Y-14141503D01*
X29172700Y-14233571D01*
X29172700Y-16601599D01*
X29153793Y-16659790D01*
X29143704Y-16671602D01*
X29102719Y-16712587D01*
X29049994Y-16803909D01*
X29049994Y-16803910D01*
X29049993Y-16803912D01*
X29049993Y-16803913D01*
X29022700Y-16905773D01*
X26042100Y-16905773D01*
X26042100Y-12019238D01*
X26061007Y-11961047D01*
X26110507Y-11925083D01*
X26166719Y-11923611D01*
X26240573Y-11943400D01*
X26240576Y-11943400D01*
X26346025Y-11943400D01*
X26346027Y-11943400D01*
X26447887Y-11916107D01*
X26539213Y-11863380D01*
X26613780Y-11788813D01*
X26666507Y-11697487D01*
X26693800Y-11595627D01*
X26693800Y-11490173D01*
X26666507Y-11388313D01*
X26664998Y-11385700D01*
X26613781Y-11296989D01*
X26613780Y-11296987D01*
X26539213Y-11222420D01*
X26447887Y-11169693D01*
X26346027Y-11142400D01*
X26240573Y-11142400D01*
X26166722Y-11162188D01*
X26105621Y-11158985D01*
X26058071Y-11120480D01*
X26042100Y-11066561D01*
X26042100Y-9264873D01*
X29148700Y-9264873D01*
X29148700Y-9370327D01*
X29175993Y-9472187D01*
X29175994Y-9472189D01*
X29175994Y-9472190D01*
X29228718Y-9563510D01*
X29228720Y-9563513D01*
X29303287Y-9638080D01*
X29394613Y-9690807D01*
X29496473Y-9718100D01*
X29496475Y-9718100D01*
X29601925Y-9718100D01*
X29601927Y-9718100D01*
X29703787Y-9690807D01*
X29795113Y-9638080D01*
X29869680Y-9563513D01*
X29922407Y-9472187D01*
X29949700Y-9370327D01*
X29949700Y-9264873D01*
X29922407Y-9163013D01*
X29869680Y-9071687D01*
X29795113Y-8997120D01*
X29703787Y-8944393D01*
X29601927Y-8917100D01*
X29496473Y-8917100D01*
X29394613Y-8944393D01*
X29394612Y-8944393D01*
X29394610Y-8944394D01*
X29394609Y-8944394D01*
X29303289Y-8997118D01*
X29228718Y-9071689D01*
X29175994Y-9163009D01*
X29175994Y-9163010D01*
X29175993Y-9163012D01*
X29175993Y-9163013D01*
X29148700Y-9264873D01*
X26042100Y-9264873D01*
X26042100Y-7933168D01*
X26061007Y-7874977D01*
X26071090Y-7863170D01*
X27517977Y-6416282D01*
X27572492Y-6388507D01*
X27625862Y-6394823D01*
X27788165Y-6462051D01*
X27981459Y-6500500D01*
X27981460Y-6500500D01*
X28178540Y-6500500D01*
X28178541Y-6500500D01*
X28371835Y-6462051D01*
X28553914Y-6386632D01*
X28717782Y-6277139D01*
X28857139Y-6137782D01*
X28966632Y-5973914D01*
X29042051Y-5791835D01*
X29080500Y-5598541D01*
X29080500Y-5401459D01*
X29042051Y-5208165D01*
X28966632Y-5026086D01*
X28857139Y-4862218D01*
X28857134Y-4862213D01*
X28857131Y-4862209D01*
X28779525Y-4784604D01*
X28751747Y-4730088D01*
X28761318Y-4669655D01*
X28804582Y-4626391D01*
X28849528Y-4615600D01*
X29340331Y-4615600D01*
X29398522Y-4634507D01*
X29410335Y-4644596D01*
X29703715Y-4937976D01*
X29731492Y-4992493D01*
X29725175Y-5045865D01*
X29657949Y-5208163D01*
X29657949Y-5208165D01*
X29619500Y-5401456D01*
X29619500Y-5598543D01*
X29657949Y-5791834D01*
X29657949Y-5791836D01*
X29733367Y-5973913D01*
X29733368Y-5973914D01*
X29842861Y-6137782D01*
X29982218Y-6277139D01*
X30146086Y-6386632D01*
X30328165Y-6462051D01*
X30521459Y-6500500D01*
X30521460Y-6500500D01*
X30718540Y-6500500D01*
X30718541Y-6500500D01*
X30911835Y-6462051D01*
X31093914Y-6386632D01*
X31257782Y-6277139D01*
X31397139Y-6137782D01*
X31506632Y-5973914D01*
X31582051Y-5791835D01*
X31620500Y-5598541D01*
X31620500Y-5401459D01*
X31582051Y-5208165D01*
X31506632Y-5026086D01*
X31397139Y-4862218D01*
X31257782Y-4722861D01*
X31125551Y-4634507D01*
X31093913Y-4613367D01*
X30911835Y-4537949D01*
X30718543Y-4499500D01*
X30718541Y-4499500D01*
X30521459Y-4499500D01*
X30521456Y-4499500D01*
X30328165Y-4537949D01*
X30328163Y-4537949D01*
X30165865Y-4605175D01*
X30104868Y-4609976D01*
X30057977Y-4583715D01*
X29626996Y-4152735D01*
X29534929Y-4114600D01*
X29534928Y-4114600D01*
X27685559Y-4114600D01*
X27685551Y-4114599D01*
X27674028Y-4114599D01*
X27574373Y-4114599D01*
X27520439Y-4136939D01*
X27482303Y-4152734D01*
X27411835Y-4223202D01*
X27411836Y-4223203D01*
X27411835Y-4223204D01*
X26668103Y-4966935D01*
X26668103Y-4966936D01*
X26668102Y-4966935D01*
X26590742Y-5044297D01*
X26589879Y-5043434D01*
X26549695Y-5075106D01*
X26488556Y-5077501D01*
X26437686Y-5043502D01*
X26428126Y-5028882D01*
X26426630Y-5026083D01*
X26387109Y-4966936D01*
X26317139Y-4862218D01*
X26177782Y-4722861D01*
X26045551Y-4634507D01*
X26013913Y-4613367D01*
X25831835Y-4537949D01*
X25638543Y-4499500D01*
X25638541Y-4499500D01*
X25441459Y-4499500D01*
X25441456Y-4499500D01*
X25248165Y-4537949D01*
X25248163Y-4537949D01*
X25066086Y-4613367D01*
X24902218Y-4722861D01*
X24902214Y-4722864D01*
X24762864Y-4862214D01*
X24762861Y-4862218D01*
X24653367Y-5026086D01*
X24577949Y-5208163D01*
X24577949Y-5208165D01*
X24539500Y-5401456D01*
X24539500Y-5598543D01*
X24577949Y-5791834D01*
X24577949Y-5791836D01*
X24653367Y-5973913D01*
X24653368Y-5973914D01*
X24762861Y-6137782D01*
X24902218Y-6277139D01*
X25066086Y-6386632D01*
X25248165Y-6462051D01*
X25441459Y-6500500D01*
X25441460Y-6500500D01*
X25638540Y-6500500D01*
X25638541Y-6500500D01*
X25831835Y-6462051D01*
X25999293Y-6392687D01*
X26060289Y-6387887D01*
X26112458Y-6419857D01*
X26135873Y-6476385D01*
X26121589Y-6535880D01*
X26107182Y-6554156D01*
X21884503Y-10776836D01*
X21884502Y-10776835D01*
X21814035Y-10847303D01*
X21775900Y-10939371D01*
X21775900Y-19794999D01*
X21756993Y-19853190D01*
X21746904Y-19865002D01*
X21705919Y-19905987D01*
X21653194Y-19997309D01*
X21653194Y-19997310D01*
X21653193Y-19997312D01*
X21653193Y-19997313D01*
X21625900Y-20099173D01*
X500500Y-20099173D01*
X500500Y-16746532D01*
X10449500Y-16746532D01*
X10449500Y-16953467D01*
X10489869Y-17156418D01*
X10569058Y-17347597D01*
X10637695Y-17450320D01*
X10684023Y-17519655D01*
X10830345Y-17665977D01*
X11002402Y-17780941D01*
X11193580Y-17860130D01*
X11396535Y-17900500D01*
X11396536Y-17900500D01*
X12603464Y-17900500D01*
X12603465Y-17900500D01*
X12806420Y-17860130D01*
X12997598Y-17780941D01*
X13169655Y-17665977D01*
X13315977Y-17519655D01*
X13430941Y-17347598D01*
X13510130Y-17156420D01*
X13550500Y-16953465D01*
X13550500Y-16746535D01*
X13510130Y-16543580D01*
X13430941Y-16352402D01*
X13315977Y-16180345D01*
X13169655Y-16034023D01*
X13095109Y-15984213D01*
X12997597Y-15919058D01*
X12806418Y-15839869D01*
X12603467Y-15799500D01*
X12603465Y-15799500D01*
X11396535Y-15799500D01*
X11396532Y-15799500D01*
X11193581Y-15839869D01*
X11002402Y-15919058D01*
X10830348Y-16034020D01*
X10684020Y-16180348D01*
X10569058Y-16352402D01*
X10489869Y-16543581D01*
X10449500Y-16746532D01*
X500500Y-16746532D01*
X500500Y-11246532D01*
X10449500Y-11246532D01*
X10449500Y-11453467D01*
X10489869Y-11656418D01*
X10569058Y-11847597D01*
X10683744Y-12019238D01*
X10684023Y-12019655D01*
X10830345Y-12165977D01*
X11002402Y-12280941D01*
X11193580Y-12360130D01*
X11396535Y-12400500D01*
X11396536Y-12400500D01*
X12552158Y-12400500D01*
X12610349Y-12419407D01*
X12646313Y-12468907D01*
X12646313Y-12530093D01*
X12634474Y-12554501D01*
X12569058Y-12652402D01*
X12489869Y-12843581D01*
X12449500Y-13046532D01*
X12449500Y-13253467D01*
X12489869Y-13456418D01*
X12569058Y-13647597D01*
X12675500Y-13806900D01*
X12684023Y-13819655D01*
X12830345Y-13965977D01*
X13002402Y-14080941D01*
X13193580Y-14160130D01*
X13396535Y-14200500D01*
X13396536Y-14200500D01*
X14603464Y-14200500D01*
X14603465Y-14200500D01*
X14806420Y-14160130D01*
X14997598Y-14080941D01*
X15169655Y-13965977D01*
X15315977Y-13819655D01*
X15430941Y-13647598D01*
X15510130Y-13456420D01*
X15550500Y-13253465D01*
X15550500Y-13046535D01*
X15510130Y-12843580D01*
X15430941Y-12652402D01*
X15315977Y-12480345D01*
X15169655Y-12334023D01*
X14997598Y-12219059D01*
X14997599Y-12219059D01*
X14997597Y-12219058D01*
X14806418Y-12139869D01*
X14603467Y-12099500D01*
X14603465Y-12099500D01*
X13447842Y-12099500D01*
X13389651Y-12080593D01*
X13353687Y-12031093D01*
X13353687Y-11969907D01*
X13365526Y-11945499D01*
X13430941Y-11847598D01*
X13510130Y-11656420D01*
X13550500Y-11453465D01*
X13550500Y-11246535D01*
X13510130Y-11043580D01*
X13430941Y-10852402D01*
X13315977Y-10680345D01*
X13169655Y-10534023D01*
X13133687Y-10509990D01*
X12997597Y-10419058D01*
X12806418Y-10339869D01*
X12603467Y-10299500D01*
X12603465Y-10299500D01*
X11396535Y-10299500D01*
X11396532Y-10299500D01*
X11193581Y-10339869D01*
X11002402Y-10419058D01*
X10830348Y-10534020D01*
X10684020Y-10680348D01*
X10569058Y-10852402D01*
X10489869Y-11043581D01*
X10449500Y-11246532D01*
X500500Y-11246532D01*
X500500Y-7546532D01*
X12449500Y-7546532D01*
X12449500Y-7753467D01*
X12489869Y-7956418D01*
X12569058Y-8147597D01*
X12569059Y-8147598D01*
X12684023Y-8319655D01*
X12830345Y-8465977D01*
X13002402Y-8580941D01*
X13193580Y-8660130D01*
X13396535Y-8700500D01*
X13396536Y-8700500D01*
X14603464Y-8700500D01*
X14603465Y-8700500D01*
X14806420Y-8660130D01*
X14997598Y-8580941D01*
X15169655Y-8465977D01*
X15315977Y-8319655D01*
X15430941Y-8147598D01*
X15510130Y-7956420D01*
X15550500Y-7753465D01*
X15550500Y-7546535D01*
X15510130Y-7343580D01*
X15430941Y-7152402D01*
X15315977Y-6980345D01*
X15169655Y-6834023D01*
X14997598Y-6719059D01*
X14997599Y-6719059D01*
X14997597Y-6719058D01*
X14806418Y-6639869D01*
X14603467Y-6599500D01*
X14603465Y-6599500D01*
X13396535Y-6599500D01*
X13396532Y-6599500D01*
X13193581Y-6639869D01*
X13002402Y-6719058D01*
X12830348Y-6834020D01*
X12684020Y-6980348D01*
X12569058Y-7152402D01*
X12489869Y-7343581D01*
X12449500Y-7546532D01*
X500500Y-7546532D01*
X500500Y-4893709D01*
X3649500Y-4893709D01*
X3649500Y-5106290D01*
X3682752Y-5316238D01*
X3748443Y-5518412D01*
X3844948Y-5707815D01*
X3844950Y-5707819D01*
X3969891Y-5879786D01*
X3969893Y-5879788D01*
X3969896Y-5879792D01*
X4120208Y-6030104D01*
X4120211Y-6030106D01*
X4120213Y-6030108D01*
X4292180Y-6155049D01*
X4292184Y-6155051D01*
X4481588Y-6251557D01*
X4683757Y-6317246D01*
X4683758Y-6317246D01*
X4683761Y-6317247D01*
X4893710Y-6350500D01*
X4893713Y-6350500D01*
X5106290Y-6350500D01*
X5316238Y-6317247D01*
X5316239Y-6317246D01*
X5316243Y-6317246D01*
X5518412Y-6251557D01*
X5707816Y-6155051D01*
X5879792Y-6030104D01*
X6030104Y-5879792D01*
X6155051Y-5707816D01*
X6251557Y-5518412D01*
X6317246Y-5316243D01*
X6334364Y-5208165D01*
X6350500Y-5106290D01*
X6350500Y-4893709D01*
X6317247Y-4683761D01*
X6312664Y-4669655D01*
X6251557Y-4481588D01*
X6155051Y-4292184D01*
X6155049Y-4292180D01*
X6030108Y-4120213D01*
X6030106Y-4120211D01*
X6030104Y-4120208D01*
X5879792Y-3969896D01*
X5879788Y-3969893D01*
X5879786Y-3969891D01*
X5707819Y-3844950D01*
X5707815Y-3844948D01*
X5518412Y-3748443D01*
X5316238Y-3682752D01*
X5106290Y-3649500D01*
X5106287Y-3649500D01*
X4893713Y-3649500D01*
X4893710Y-3649500D01*
X4683761Y-3682752D01*
X4481587Y-3748443D01*
X4292184Y-3844948D01*
X4292180Y-3844950D01*
X4120213Y-3969891D01*
X3969891Y-4120213D01*
X3844950Y-4292180D01*
X3844948Y-4292184D01*
X3748443Y-4481587D01*
X3682752Y-4683761D01*
X3649500Y-4893709D01*
X500500Y-4893709D01*
X500500Y-4002435D01*
X500619Y-3997578D01*
X512858Y-3748443D01*
X517113Y-3661824D01*
X518063Y-3652186D01*
X567029Y-3322080D01*
X568918Y-3312582D01*
X650009Y-2988849D01*
X652818Y-2979590D01*
X765249Y-2665367D01*
X768958Y-2656412D01*
X911644Y-2354728D01*
X916211Y-2346185D01*
X1087780Y-2059938D01*
X1093163Y-2051883D01*
X1291957Y-1783841D01*
X1298107Y-1776346D01*
X1522228Y-1529067D01*
X1529067Y-1522228D01*
X1776346Y-1298107D01*
X1783841Y-1291957D01*
X2051883Y-1093163D01*
X2059938Y-1087780D01*
X2346185Y-916211D01*
X2354728Y-911644D01*
X2656412Y-768958D01*
X2665367Y-765249D01*
X2979590Y-652818D01*
X2988849Y-650009D01*
X3312582Y-568918D01*
X3322080Y-567029D01*
X3652186Y-518063D01*
X3661824Y-517113D01*
X3970606Y-501944D01*
X3997579Y-500619D01*
X4002436Y-500500D01*
X4065892Y-500500D01*
X51401000Y-500500D01*
X51459191Y-519407D01*
G37*
%TD.AperFunction*%
%TD*%
M02*
