%TF.GenerationSoftware,KiCad,Pcbnew,10.0.6-1.fc44*%
%TF.CreationDate,2026-09-10T12:49:51+07:00*%
%TF.ProjectId,poket,706f6b65-742e-46b6-9963-61645f706362,rev?*%
%TF.SameCoordinates,Original*%
%TF.FileFunction,AssemblyDrawing,Bot*%
%FSLAX46Y46*%
G04 Gerber Fmt 4.6, Leading zero omitted, Abs format (unit mm)*
G04 Created by KiCad (PCBNEW 10.0.6-1.fc44) date 2026-09-10 12:49:51*
%MOMM*%
%LPD*%
G01*
G04 APERTURE LIST*
%ADD10C,0.150000*%
%ADD11C,0.100000*%
G04 APERTURE END LIST*
D10*
X33333332Y-47907200D02*
X33190475Y-47954819D01*
X33190475Y-47954819D02*
X32952380Y-47954819D01*
X32952380Y-47954819D02*
X32857142Y-47907200D01*
X32857142Y-47907200D02*
X32809523Y-47859580D01*
X32809523Y-47859580D02*
X32761904Y-47764342D01*
X32761904Y-47764342D02*
X32761904Y-47669104D01*
X32761904Y-47669104D02*
X32809523Y-47573866D01*
X32809523Y-47573866D02*
X32857142Y-47526247D01*
X32857142Y-47526247D02*
X32952380Y-47478628D01*
X32952380Y-47478628D02*
X33142856Y-47431009D01*
X33142856Y-47431009D02*
X33238094Y-47383390D01*
X33238094Y-47383390D02*
X33285713Y-47335771D01*
X33285713Y-47335771D02*
X33333332Y-47240533D01*
X33333332Y-47240533D02*
X33333332Y-47145295D01*
X33333332Y-47145295D02*
X33285713Y-47050057D01*
X33285713Y-47050057D02*
X33238094Y-47002438D01*
X33238094Y-47002438D02*
X33142856Y-46954819D01*
X33142856Y-46954819D02*
X32904761Y-46954819D01*
X32904761Y-46954819D02*
X32761904Y-47002438D01*
X32428570Y-46954819D02*
X32190475Y-47954819D01*
X32190475Y-47954819D02*
X31999999Y-47240533D01*
X31999999Y-47240533D02*
X31809523Y-47954819D01*
X31809523Y-47954819D02*
X31571428Y-46954819D01*
X30714285Y-46954819D02*
X31190475Y-46954819D01*
X31190475Y-46954819D02*
X31238094Y-47431009D01*
X31238094Y-47431009D02*
X31190475Y-47383390D01*
X31190475Y-47383390D02*
X31095237Y-47335771D01*
X31095237Y-47335771D02*
X30857142Y-47335771D01*
X30857142Y-47335771D02*
X30761904Y-47383390D01*
X30761904Y-47383390D02*
X30714285Y-47431009D01*
X30714285Y-47431009D02*
X30666666Y-47526247D01*
X30666666Y-47526247D02*
X30666666Y-47764342D01*
X30666666Y-47764342D02*
X30714285Y-47859580D01*
X30714285Y-47859580D02*
X30761904Y-47907200D01*
X30761904Y-47907200D02*
X30857142Y-47954819D01*
X30857142Y-47954819D02*
X31095237Y-47954819D01*
X31095237Y-47954819D02*
X31190475Y-47907200D01*
X31190475Y-47907200D02*
X31238094Y-47859580D01*
X33333332Y-47907200D02*
X33190475Y-47954819D01*
X33190475Y-47954819D02*
X32952380Y-47954819D01*
X32952380Y-47954819D02*
X32857142Y-47907200D01*
X32857142Y-47907200D02*
X32809523Y-47859580D01*
X32809523Y-47859580D02*
X32761904Y-47764342D01*
X32761904Y-47764342D02*
X32761904Y-47669104D01*
X32761904Y-47669104D02*
X32809523Y-47573866D01*
X32809523Y-47573866D02*
X32857142Y-47526247D01*
X32857142Y-47526247D02*
X32952380Y-47478628D01*
X32952380Y-47478628D02*
X33142856Y-47431009D01*
X33142856Y-47431009D02*
X33238094Y-47383390D01*
X33238094Y-47383390D02*
X33285713Y-47335771D01*
X33285713Y-47335771D02*
X33333332Y-47240533D01*
X33333332Y-47240533D02*
X33333332Y-47145295D01*
X33333332Y-47145295D02*
X33285713Y-47050057D01*
X33285713Y-47050057D02*
X33238094Y-47002438D01*
X33238094Y-47002438D02*
X33142856Y-46954819D01*
X33142856Y-46954819D02*
X32904761Y-46954819D01*
X32904761Y-46954819D02*
X32761904Y-47002438D01*
X32428570Y-46954819D02*
X32190475Y-47954819D01*
X32190475Y-47954819D02*
X31999999Y-47240533D01*
X31999999Y-47240533D02*
X31809523Y-47954819D01*
X31809523Y-47954819D02*
X31571428Y-46954819D01*
X30714285Y-46954819D02*
X31190475Y-46954819D01*
X31190475Y-46954819D02*
X31238094Y-47431009D01*
X31238094Y-47431009D02*
X31190475Y-47383390D01*
X31190475Y-47383390D02*
X31095237Y-47335771D01*
X31095237Y-47335771D02*
X30857142Y-47335771D01*
X30857142Y-47335771D02*
X30761904Y-47383390D01*
X30761904Y-47383390D02*
X30714285Y-47431009D01*
X30714285Y-47431009D02*
X30666666Y-47526247D01*
X30666666Y-47526247D02*
X30666666Y-47764342D01*
X30666666Y-47764342D02*
X30714285Y-47859580D01*
X30714285Y-47859580D02*
X30761904Y-47907200D01*
X30761904Y-47907200D02*
X30857142Y-47954819D01*
X30857142Y-47954819D02*
X31095237Y-47954819D01*
X31095237Y-47954819D02*
X31190475Y-47907200D01*
X31190475Y-47907200D02*
X31238094Y-47859580D01*
X39333332Y-47907200D02*
X39190475Y-47954819D01*
X39190475Y-47954819D02*
X38952380Y-47954819D01*
X38952380Y-47954819D02*
X38857142Y-47907200D01*
X38857142Y-47907200D02*
X38809523Y-47859580D01*
X38809523Y-47859580D02*
X38761904Y-47764342D01*
X38761904Y-47764342D02*
X38761904Y-47669104D01*
X38761904Y-47669104D02*
X38809523Y-47573866D01*
X38809523Y-47573866D02*
X38857142Y-47526247D01*
X38857142Y-47526247D02*
X38952380Y-47478628D01*
X38952380Y-47478628D02*
X39142856Y-47431009D01*
X39142856Y-47431009D02*
X39238094Y-47383390D01*
X39238094Y-47383390D02*
X39285713Y-47335771D01*
X39285713Y-47335771D02*
X39333332Y-47240533D01*
X39333332Y-47240533D02*
X39333332Y-47145295D01*
X39333332Y-47145295D02*
X39285713Y-47050057D01*
X39285713Y-47050057D02*
X39238094Y-47002438D01*
X39238094Y-47002438D02*
X39142856Y-46954819D01*
X39142856Y-46954819D02*
X38904761Y-46954819D01*
X38904761Y-46954819D02*
X38761904Y-47002438D01*
X38428570Y-46954819D02*
X38190475Y-47954819D01*
X38190475Y-47954819D02*
X37999999Y-47240533D01*
X37999999Y-47240533D02*
X37809523Y-47954819D01*
X37809523Y-47954819D02*
X37571428Y-46954819D01*
X36761904Y-46954819D02*
X36952380Y-46954819D01*
X36952380Y-46954819D02*
X37047618Y-47002438D01*
X37047618Y-47002438D02*
X37095237Y-47050057D01*
X37095237Y-47050057D02*
X37190475Y-47192914D01*
X37190475Y-47192914D02*
X37238094Y-47383390D01*
X37238094Y-47383390D02*
X37238094Y-47764342D01*
X37238094Y-47764342D02*
X37190475Y-47859580D01*
X37190475Y-47859580D02*
X37142856Y-47907200D01*
X37142856Y-47907200D02*
X37047618Y-47954819D01*
X37047618Y-47954819D02*
X36857142Y-47954819D01*
X36857142Y-47954819D02*
X36761904Y-47907200D01*
X36761904Y-47907200D02*
X36714285Y-47859580D01*
X36714285Y-47859580D02*
X36666666Y-47764342D01*
X36666666Y-47764342D02*
X36666666Y-47526247D01*
X36666666Y-47526247D02*
X36714285Y-47431009D01*
X36714285Y-47431009D02*
X36761904Y-47383390D01*
X36761904Y-47383390D02*
X36857142Y-47335771D01*
X36857142Y-47335771D02*
X37047618Y-47335771D01*
X37047618Y-47335771D02*
X37142856Y-47383390D01*
X37142856Y-47383390D02*
X37190475Y-47431009D01*
X37190475Y-47431009D02*
X37238094Y-47526247D01*
X39333332Y-47907200D02*
X39190475Y-47954819D01*
X39190475Y-47954819D02*
X38952380Y-47954819D01*
X38952380Y-47954819D02*
X38857142Y-47907200D01*
X38857142Y-47907200D02*
X38809523Y-47859580D01*
X38809523Y-47859580D02*
X38761904Y-47764342D01*
X38761904Y-47764342D02*
X38761904Y-47669104D01*
X38761904Y-47669104D02*
X38809523Y-47573866D01*
X38809523Y-47573866D02*
X38857142Y-47526247D01*
X38857142Y-47526247D02*
X38952380Y-47478628D01*
X38952380Y-47478628D02*
X39142856Y-47431009D01*
X39142856Y-47431009D02*
X39238094Y-47383390D01*
X39238094Y-47383390D02*
X39285713Y-47335771D01*
X39285713Y-47335771D02*
X39333332Y-47240533D01*
X39333332Y-47240533D02*
X39333332Y-47145295D01*
X39333332Y-47145295D02*
X39285713Y-47050057D01*
X39285713Y-47050057D02*
X39238094Y-47002438D01*
X39238094Y-47002438D02*
X39142856Y-46954819D01*
X39142856Y-46954819D02*
X38904761Y-46954819D01*
X38904761Y-46954819D02*
X38761904Y-47002438D01*
X38428570Y-46954819D02*
X38190475Y-47954819D01*
X38190475Y-47954819D02*
X37999999Y-47240533D01*
X37999999Y-47240533D02*
X37809523Y-47954819D01*
X37809523Y-47954819D02*
X37571428Y-46954819D01*
X36761904Y-46954819D02*
X36952380Y-46954819D01*
X36952380Y-46954819D02*
X37047618Y-47002438D01*
X37047618Y-47002438D02*
X37095237Y-47050057D01*
X37095237Y-47050057D02*
X37190475Y-47192914D01*
X37190475Y-47192914D02*
X37238094Y-47383390D01*
X37238094Y-47383390D02*
X37238094Y-47764342D01*
X37238094Y-47764342D02*
X37190475Y-47859580D01*
X37190475Y-47859580D02*
X37142856Y-47907200D01*
X37142856Y-47907200D02*
X37047618Y-47954819D01*
X37047618Y-47954819D02*
X36857142Y-47954819D01*
X36857142Y-47954819D02*
X36761904Y-47907200D01*
X36761904Y-47907200D02*
X36714285Y-47859580D01*
X36714285Y-47859580D02*
X36666666Y-47764342D01*
X36666666Y-47764342D02*
X36666666Y-47526247D01*
X36666666Y-47526247D02*
X36714285Y-47431009D01*
X36714285Y-47431009D02*
X36761904Y-47383390D01*
X36761904Y-47383390D02*
X36857142Y-47335771D01*
X36857142Y-47335771D02*
X37047618Y-47335771D01*
X37047618Y-47335771D02*
X37142856Y-47383390D01*
X37142856Y-47383390D02*
X37190475Y-47431009D01*
X37190475Y-47431009D02*
X37238094Y-47526247D01*
D11*
X13632419Y-29591666D02*
X14346704Y-29591666D01*
X14346704Y-29591666D02*
X14489561Y-29544047D01*
X14489561Y-29544047D02*
X14584800Y-29448809D01*
X14584800Y-29448809D02*
X14632419Y-29305952D01*
X14632419Y-29305952D02*
X14632419Y-29210714D01*
X13727657Y-30020238D02*
X13680038Y-30067857D01*
X13680038Y-30067857D02*
X13632419Y-30163095D01*
X13632419Y-30163095D02*
X13632419Y-30401190D01*
X13632419Y-30401190D02*
X13680038Y-30496428D01*
X13680038Y-30496428D02*
X13727657Y-30544047D01*
X13727657Y-30544047D02*
X13822895Y-30591666D01*
X13822895Y-30591666D02*
X13918133Y-30591666D01*
X13918133Y-30591666D02*
X14060990Y-30544047D01*
X14060990Y-30544047D02*
X14632419Y-29972619D01*
X14632419Y-29972619D02*
X14632419Y-30591666D01*
%TO.C,SW5*%
X30500000Y-48750000D02*
X30500000Y-51250000D01*
X30500000Y-51250000D02*
X33500000Y-51250000D01*
X33500000Y-48750000D02*
X30500000Y-48750000D01*
X33500000Y-51250000D02*
X33500000Y-48750000D01*
X32750000Y-50000000D02*
G75*
G02*
X31250000Y-50000000I-750000J0D01*
G01*
X31250000Y-50000000D02*
G75*
G02*
X32750000Y-50000000I750000J0D01*
G01*
%TO.C,SW6*%
X36500000Y-48750000D02*
X36500000Y-51250000D01*
X36500000Y-51250000D02*
X39500000Y-51250000D01*
X39500000Y-48750000D02*
X36500000Y-48750000D01*
X39500000Y-51250000D02*
X39500000Y-48750000D01*
X38750000Y-50000000D02*
G75*
G02*
X37250000Y-50000000I-750000J0D01*
G01*
X37250000Y-50000000D02*
G75*
G02*
X38750000Y-50000000I750000J0D01*
G01*
%TO.C,J2*%
X5975000Y-36925000D02*
X5975000Y-23075000D01*
X21775000Y-32510000D02*
X21775000Y-26085000D01*
X21925000Y-23075000D02*
X5975000Y-23075000D01*
X21925000Y-23885000D02*
X21925000Y-23075000D01*
X21925000Y-26085000D02*
X21775000Y-26085000D01*
X21925000Y-26085000D02*
X22125000Y-25885000D01*
X21925000Y-35485000D02*
X21925000Y-36925000D01*
X21925000Y-36925000D02*
X5975000Y-36925000D01*
X22125000Y-24075000D02*
X27025000Y-24075000D01*
X22125000Y-24085000D02*
X21925000Y-23885000D01*
X22125000Y-25885000D02*
X22125000Y-24085000D01*
X22125000Y-33035000D02*
X21775000Y-32510000D01*
X22125000Y-35285000D02*
X21925000Y-35485000D01*
X22125000Y-35285000D02*
X22125000Y-33035000D01*
X23525000Y-24575000D02*
X23525000Y-34575000D01*
X27025000Y-35075000D02*
X22125000Y-35075000D01*
X27525000Y-24575000D02*
X27525000Y-34575000D01*
X23025000Y-24075000D02*
G75*
G02*
X23525000Y-24575000I-1J-500001D01*
G01*
X23525000Y-34575000D02*
G75*
G02*
X23025000Y-35075000I-500000J0D01*
G01*
X27025000Y-24075000D02*
G75*
G02*
X27525000Y-24575000I-1J-500001D01*
G01*
X27525000Y-34575000D02*
G75*
G02*
X27025000Y-35075000I-500000J0D01*
G01*
%TD*%
M02*
