%TF.GenerationSoftware,KiCad,Pcbnew,10.0.6-1.fc44*%
%TF.CreationDate,2026-09-10T12:40:03+07:00*%
%TF.ProjectId,poket,706f6b65-742e-46b6-9963-61645f706362,rev?*%
%TF.SameCoordinates,Original*%
%TF.FileFunction,Paste,Top*%
%TF.FilePolarity,Positive*%
%FSLAX46Y46*%
G04 Gerber Fmt 4.6, Leading zero omitted, Abs format (unit mm)*
G04 Created by KiCad (PCBNEW 10.0.6-1.fc44) date 2026-09-10 12:40:03*
%MOMM*%
%LPD*%
G01*
G04 APERTURE LIST*
G04 Aperture macros list*
%AMRoundRect*
0 Rectangle with rounded corners*
0 $1 Rounding radius*
0 $2 $3 $4 $5 $6 $7 $8 $9 X,Y pos of 4 corners*
0 Add a 4 corners polygon primitive as box body*
4,1,4,$2,$3,$4,$5,$6,$7,$8,$9,$2,$3,0*
0 Add four circle primitives for the rounded corners*
1,1,$1+$1,$2,$3*
1,1,$1+$1,$4,$5*
1,1,$1+$1,$6,$7*
1,1,$1+$1,$8,$9*
0 Add four rect primitives between the rounded corners*
20,1,$1+$1,$2,$3,$4,$5,0*
20,1,$1+$1,$4,$5,$6,$7,0*
20,1,$1+$1,$6,$7,$8,$9,0*
20,1,$1+$1,$8,$9,$2,$3,0*%
%AMFreePoly0*
4,1,21,-0.300000,0.050000,-0.296194,0.069134,-0.285355,0.085355,-0.269134,0.096194,-0.250000,0.100000,0.250000,0.100000,0.269134,0.096194,0.285355,0.085355,0.296194,0.069134,0.300000,0.050000,0.300000,-0.050000,0.296194,-0.069134,0.285355,-0.085355,0.269134,-0.096194,0.250000,-0.100000,-0.250000,-0.100000,-0.269134,-0.096194,-0.285355,-0.085355,-0.296194,-0.069134,-0.300000,-0.050000,
-0.300000,0.050000,-0.300000,0.050000,$1*%
G04 Aperture macros list end*
%ADD10RoundRect,0.500000X-0.500000X-0.500000X0.500000X-0.500000X0.500000X0.500000X-0.500000X0.500000X0*%
%ADD11RoundRect,0.225000X-0.225000X-0.250000X0.225000X-0.250000X0.225000X0.250000X-0.225000X0.250000X0*%
%ADD12RoundRect,0.172500X-0.172500X-0.172500X0.172500X-0.172500X0.172500X0.172500X-0.172500X0.172500X0*%
%ADD13RoundRect,0.062500X-0.350000X-0.062500X0.350000X-0.062500X0.350000X0.062500X-0.350000X0.062500X0*%
%ADD14RoundRect,0.062500X-0.062500X-0.350000X0.062500X-0.350000X0.062500X0.350000X-0.062500X0.350000X0*%
%ADD15RoundRect,0.100000X-0.637500X-0.100000X0.637500X-0.100000X0.637500X0.100000X-0.637500X0.100000X0*%
%ADD16RoundRect,0.225000X0.250000X-0.225000X0.250000X0.225000X-0.250000X0.225000X-0.250000X-0.225000X0*%
%ADD17RoundRect,0.200000X-0.200000X-0.275000X0.200000X-0.275000X0.200000X0.275000X-0.200000X0.275000X0*%
%ADD18RoundRect,0.150000X-0.587500X-0.150000X0.587500X-0.150000X0.587500X0.150000X-0.587500X0.150000X0*%
%ADD19R,0.900000X0.900000*%
%ADD20R,1.500000X0.900000*%
%ADD21R,0.900000X1.500000*%
%ADD22RoundRect,0.250000X-0.250000X-0.475000X0.250000X-0.475000X0.250000X0.475000X-0.250000X0.475000X0*%
%ADD23R,1.000000X0.800000*%
%ADD24R,0.700000X1.500000*%
%ADD25RoundRect,0.200000X0.275000X-0.200000X0.275000X0.200000X-0.275000X0.200000X-0.275000X-0.200000X0*%
%ADD26RoundRect,0.050000X-0.050000X-0.137500X0.050000X-0.137500X0.050000X0.137500X-0.050000X0.137500X0*%
%ADD27RoundRect,0.270000X-0.270000X-0.605000X0.270000X-0.605000X0.270000X0.605000X-0.270000X0.605000X0*%
%ADD28FreePoly0,0.000000*%
%ADD29RoundRect,0.250000X-0.250000X-1.500000X0.250000X-1.500000X0.250000X1.500000X-0.250000X1.500000X0*%
%ADD30RoundRect,0.250001X-0.499999X-1.449999X0.499999X-1.449999X0.499999X1.449999X-0.499999X1.449999X0*%
%ADD31RoundRect,0.150000X-0.512500X-0.150000X0.512500X-0.150000X0.512500X0.150000X-0.512500X0.150000X0*%
%ADD32R,0.700000X0.700000*%
%ADD33RoundRect,0.250000X0.475000X-0.250000X0.475000X0.250000X-0.475000X0.250000X-0.475000X-0.250000X0*%
%ADD34RoundRect,0.150000X-0.150000X-0.500000X0.150000X-0.500000X0.150000X0.500000X-0.150000X0.500000X0*%
%ADD35RoundRect,0.075000X-0.075000X-0.575000X0.075000X-0.575000X0.075000X0.575000X-0.075000X0.575000X0*%
%ADD36RoundRect,0.218750X-0.218750X-0.256250X0.218750X-0.256250X0.218750X0.256250X-0.218750X0.256250X0*%
%ADD37RoundRect,0.225000X-0.225000X-0.375000X0.225000X-0.375000X0.225000X0.375000X-0.225000X0.375000X0*%
%ADD38RoundRect,0.250000X-0.312500X-0.625000X0.312500X-0.625000X0.312500X0.625000X-0.312500X0.625000X0*%
G04 APERTURE END LIST*
D10*
%TO.C,SW4*%
X39000000Y-43000000D03*
X45000000Y-43000000D03*
%TD*%
D11*
%TO.C,C6*%
X15225000Y-24000000D03*
X16775000Y-24000000D03*
%TD*%
%TO.C,C28*%
X70725000Y-36000000D03*
X72275000Y-36000000D03*
%TD*%
D12*
%TO.C,U5*%
X39575000Y-11575000D03*
X39575000Y-12425000D03*
X40425000Y-11575000D03*
X40425000Y-12425000D03*
D13*
X38537500Y-11250000D03*
X38537500Y-11750000D03*
X38537500Y-12250000D03*
X38537500Y-12750000D03*
D14*
X39250000Y-13462500D03*
X39750000Y-13462500D03*
X40250000Y-13462500D03*
X40750000Y-13462500D03*
D13*
X41462500Y-12750000D03*
X41462500Y-12250000D03*
X41462500Y-11750000D03*
X41462500Y-11250000D03*
D14*
X40750000Y-10537500D03*
X40250000Y-10537500D03*
X39750000Y-10537500D03*
X39250000Y-10537500D03*
%TD*%
D15*
%TO.C,U4*%
X25137500Y-9075000D03*
X25137500Y-9725000D03*
X25137500Y-10375000D03*
X25137500Y-11025000D03*
X25137500Y-11675000D03*
X25137500Y-12325000D03*
X25137500Y-12975000D03*
X25137500Y-13625000D03*
X25137500Y-14275000D03*
X25137500Y-14925000D03*
X30862500Y-14925000D03*
X30862500Y-14275000D03*
X30862500Y-13625000D03*
X30862500Y-12975000D03*
X30862500Y-12325000D03*
X30862500Y-11675000D03*
X30862500Y-11025000D03*
X30862500Y-10375000D03*
X30862500Y-9725000D03*
X30862500Y-9075000D03*
%TD*%
D16*
%TO.C,C26*%
X47500000Y-13775000D03*
X47500000Y-12225000D03*
%TD*%
D17*
%TO.C,R21*%
X18675000Y-32000000D03*
X20325000Y-32000000D03*
%TD*%
D11*
%TO.C,C27*%
X39725000Y-49000000D03*
X41275000Y-49000000D03*
%TD*%
D17*
%TO.C,R22*%
X22175000Y-32000000D03*
X23825000Y-32000000D03*
%TD*%
D18*
%TO.C,Q1*%
X7562500Y-31050000D03*
X7562500Y-32950000D03*
X9437500Y-32000000D03*
%TD*%
D19*
%TO.C,U1*%
X60100000Y-16060000D03*
X60100000Y-17460000D03*
X60100000Y-18860000D03*
X61500000Y-16060000D03*
X61500000Y-17460000D03*
X61500000Y-18860000D03*
X62900000Y-16060000D03*
X62900000Y-17460000D03*
X62900000Y-18860000D03*
D20*
X54250000Y-9740000D03*
X54250000Y-11010000D03*
X54250000Y-12280000D03*
X54250000Y-13550000D03*
X54250000Y-14820000D03*
X54250000Y-16090000D03*
X54250000Y-17360000D03*
X54250000Y-18630000D03*
X54250000Y-19900000D03*
X54250000Y-21170000D03*
X54250000Y-22440000D03*
X54250000Y-23710000D03*
X54250000Y-24980000D03*
X54250000Y-26250000D03*
D21*
X56015000Y-27500000D03*
X57285000Y-27500000D03*
X58555000Y-27500000D03*
X59825000Y-27500000D03*
X61095000Y-27500000D03*
X62365000Y-27500000D03*
X63635000Y-27500000D03*
X64905000Y-27500000D03*
X66175000Y-27500000D03*
X67445000Y-27500000D03*
X68715000Y-27500000D03*
X69985000Y-27500000D03*
D20*
X71750000Y-26250000D03*
X71750000Y-24980000D03*
X71750000Y-23710000D03*
X71750000Y-22440000D03*
X71750000Y-21170000D03*
X71750000Y-19900000D03*
X71750000Y-18630000D03*
X71750000Y-17360000D03*
X71750000Y-16090000D03*
X71750000Y-14820000D03*
X71750000Y-13550000D03*
X71750000Y-12280000D03*
X71750000Y-11010000D03*
X71750000Y-9740000D03*
%TD*%
D17*
%TO.C,R1*%
X67175000Y-44000000D03*
X68825000Y-44000000D03*
%TD*%
%TO.C,R2*%
X67175000Y-47000000D03*
X68825000Y-47000000D03*
%TD*%
D22*
%TO.C,C1*%
X18550000Y-24000000D03*
X20450000Y-24000000D03*
%TD*%
D23*
%TO.C,SW7*%
X20350000Y-49720000D03*
X20350000Y-51930000D03*
X27650000Y-49720000D03*
X27650000Y-51930000D03*
D24*
X21750000Y-49070000D03*
X24750000Y-49070000D03*
X26250000Y-49070000D03*
%TD*%
D16*
%TO.C,C19*%
X33000000Y-16775000D03*
X33000000Y-15225000D03*
%TD*%
D22*
%TO.C,C13*%
X28550000Y-28000000D03*
X30450000Y-28000000D03*
%TD*%
%TO.C,C4*%
X3050000Y-24000000D03*
X4950000Y-24000000D03*
%TD*%
D17*
%TO.C,R30*%
X36175000Y-32000000D03*
X37825000Y-32000000D03*
%TD*%
D25*
%TO.C,R8*%
X51000000Y-27325000D03*
X51000000Y-25675000D03*
%TD*%
D17*
%TO.C,R4*%
X15175000Y-28000000D03*
X16825000Y-28000000D03*
%TD*%
D11*
%TO.C,C12*%
X24725000Y-28000000D03*
X26275000Y-28000000D03*
%TD*%
D16*
%TO.C,C24*%
X43500000Y-16775000D03*
X43500000Y-15225000D03*
%TD*%
D22*
%TO.C,C3*%
X3050000Y-32000000D03*
X4950000Y-32000000D03*
%TD*%
D10*
%TO.C,SW3*%
X30000000Y-43000000D03*
X36000000Y-43000000D03*
%TD*%
D17*
%TO.C,R13*%
X32175000Y-24000000D03*
X33825000Y-24000000D03*
%TD*%
%TO.C,R27*%
X39675000Y-28000000D03*
X41325000Y-28000000D03*
%TD*%
D26*
%TO.C,U6*%
X73375000Y-30737500D03*
X73375000Y-33262500D03*
D27*
X73860000Y-32000000D03*
X75140000Y-32000000D03*
D26*
X75625000Y-30737500D03*
X75625000Y-33262500D03*
D28*
X72600000Y-31000000D03*
X72600000Y-31400000D03*
X72600000Y-31800000D03*
X72600000Y-32200000D03*
X72600000Y-32600000D03*
X72600000Y-33000000D03*
X76400000Y-33000000D03*
X76400000Y-32600000D03*
X76400000Y-32200000D03*
X76400000Y-31800000D03*
X76400000Y-31400000D03*
X76400000Y-31000000D03*
%TD*%
D17*
%TO.C,R16*%
X42675000Y-24000000D03*
X44325000Y-24000000D03*
%TD*%
%TO.C,R10*%
X22675000Y-21000000D03*
X24325000Y-21000000D03*
%TD*%
D16*
%TO.C,C14*%
X22000000Y-9775000D03*
X22000000Y-8225000D03*
%TD*%
%TO.C,C20*%
X36500000Y-9775000D03*
X36500000Y-8225000D03*
%TD*%
D29*
%TO.C,J5*%
X11000000Y-45950000D03*
X13000000Y-45950000D03*
D30*
X8650000Y-51700000D03*
X15350000Y-51700000D03*
%TD*%
D11*
%TO.C,C2*%
X18725000Y-28000000D03*
X20275000Y-28000000D03*
%TD*%
D31*
%TO.C,U3*%
X7362500Y-23050000D03*
X7362500Y-24000000D03*
X7362500Y-24950000D03*
X9637500Y-24950000D03*
X9637500Y-23050000D03*
%TD*%
D16*
%TO.C,C15*%
X22000000Y-13275000D03*
X22000000Y-11725000D03*
%TD*%
D10*
%TO.C,SW2*%
X21000000Y-43000000D03*
X27000000Y-43000000D03*
%TD*%
D16*
%TO.C,C22*%
X43500000Y-9775000D03*
X43500000Y-8225000D03*
%TD*%
D17*
%TO.C,R6*%
X15175000Y-32000000D03*
X16825000Y-32000000D03*
%TD*%
%TO.C,R3*%
X11675000Y-28000000D03*
X13325000Y-28000000D03*
%TD*%
D25*
%TO.C,R20*%
X47500000Y-21825000D03*
X47500000Y-20175000D03*
%TD*%
D16*
%TO.C,C18*%
X33000000Y-13275000D03*
X33000000Y-11725000D03*
%TD*%
D32*
%TO.C,D1*%
X43085000Y-48450000D03*
X43085000Y-49550000D03*
X44915000Y-49550000D03*
X44915000Y-48450000D03*
%TD*%
D33*
%TO.C,C9*%
X51000000Y-12950000D03*
X51000000Y-11050000D03*
%TD*%
D17*
%TO.C,R29*%
X32675000Y-32000000D03*
X34325000Y-32000000D03*
%TD*%
%TO.C,R9*%
X19175000Y-21000000D03*
X20825000Y-21000000D03*
%TD*%
D11*
%TO.C,C8*%
X37225000Y-20000000D03*
X38775000Y-20000000D03*
%TD*%
D33*
%TO.C,C25*%
X47500000Y-9950000D03*
X47500000Y-8050000D03*
%TD*%
D17*
%TO.C,R11*%
X25175000Y-24000000D03*
X26825000Y-24000000D03*
%TD*%
D33*
%TO.C,C16*%
X22000000Y-17450000D03*
X22000000Y-15550000D03*
%TD*%
D34*
%TO.C,J1*%
X56800000Y-46555000D03*
X57600000Y-46555000D03*
D35*
X58750000Y-46555000D03*
X59750000Y-46555000D03*
X60250000Y-46555000D03*
X61250000Y-46555000D03*
D34*
X62400000Y-46555000D03*
X63200000Y-46555000D03*
X63200000Y-46555000D03*
X62400000Y-46555000D03*
D35*
X61750000Y-46555000D03*
X60750000Y-46555000D03*
X59250000Y-46555000D03*
X58250000Y-46555000D03*
D34*
X57600000Y-46555000D03*
X56800000Y-46555000D03*
%TD*%
D16*
%TO.C,C17*%
X33000000Y-9775000D03*
X33000000Y-8225000D03*
%TD*%
D36*
%TO.C,D2*%
X46712500Y-49000000D03*
X48287500Y-49000000D03*
%TD*%
D16*
%TO.C,C21*%
X36500000Y-13775000D03*
X36500000Y-12225000D03*
%TD*%
D11*
%TO.C,C30*%
X43225000Y-28000000D03*
X44775000Y-28000000D03*
%TD*%
D17*
%TO.C,R5*%
X11675000Y-32000000D03*
X13325000Y-32000000D03*
%TD*%
%TO.C,R18*%
X39175000Y-17000000D03*
X40825000Y-17000000D03*
%TD*%
D25*
%TO.C,R19*%
X47500000Y-17825000D03*
X47500000Y-16175000D03*
%TD*%
D17*
%TO.C,R17*%
X27175000Y-18000000D03*
X28825000Y-18000000D03*
%TD*%
%TO.C,R25*%
X32675000Y-28000000D03*
X34325000Y-28000000D03*
%TD*%
%TO.C,R26*%
X36175000Y-28000000D03*
X37825000Y-28000000D03*
%TD*%
%TO.C,R14*%
X35675000Y-24000000D03*
X37325000Y-24000000D03*
%TD*%
D36*
%TO.C,FB1*%
X27212500Y-21000000D03*
X28787500Y-21000000D03*
%TD*%
D11*
%TO.C,C29*%
X70725000Y-39500000D03*
X72275000Y-39500000D03*
%TD*%
D37*
%TO.C,D3*%
X1850000Y-28000000D03*
X5150000Y-28000000D03*
%TD*%
D16*
%TO.C,C11*%
X51000000Y-20275000D03*
X51000000Y-18725000D03*
%TD*%
D17*
%TO.C,R15*%
X39175000Y-24000000D03*
X40825000Y-24000000D03*
%TD*%
D31*
%TO.C,U2*%
X7362500Y-27050000D03*
X7362500Y-28000000D03*
X7362500Y-28950000D03*
X9637500Y-28950000D03*
X9637500Y-27050000D03*
%TD*%
D22*
%TO.C,C5*%
X11550000Y-24000000D03*
X13450000Y-24000000D03*
%TD*%
D16*
%TO.C,C23*%
X43500000Y-13275000D03*
X43500000Y-11725000D03*
%TD*%
D22*
%TO.C,C7*%
X32050000Y-20000000D03*
X33950000Y-20000000D03*
%TD*%
D17*
%TO.C,R23*%
X75675000Y-36000000D03*
X77325000Y-36000000D03*
%TD*%
D11*
%TO.C,C31*%
X25725000Y-32000000D03*
X27275000Y-32000000D03*
%TD*%
D38*
%TO.C,R24*%
X75037500Y-40000000D03*
X77962500Y-40000000D03*
%TD*%
D17*
%TO.C,R12*%
X28675000Y-24000000D03*
X30325000Y-24000000D03*
%TD*%
D25*
%TO.C,R7*%
X51000000Y-23825000D03*
X51000000Y-22175000D03*
%TD*%
D17*
%TO.C,R28*%
X29175000Y-32000000D03*
X30825000Y-32000000D03*
%TD*%
D16*
%TO.C,C10*%
X51000000Y-16775000D03*
X51000000Y-15225000D03*
%TD*%
D31*
%TO.C,U7*%
X51362500Y-44550000D03*
X51362500Y-45500000D03*
X51362500Y-46450000D03*
X53637500Y-46450000D03*
X53637500Y-45500000D03*
X53637500Y-44550000D03*
%TD*%
M02*
