%TF.GenerationSoftware,KiCad,Pcbnew,10.0.6-1.fc44*%
%TF.CreationDate,2026-09-14T18:45:26+07:00*%
%TF.ProjectId,poket,706f6b65-742e-46b6-9963-61645f706362,rev?*%
%TF.SameCoordinates,Original*%
%TF.FileFunction,Copper,L3,Inr*%
%TF.FilePolarity,Positive*%
%FSLAX46Y46*%
G04 Gerber Fmt 4.6, Leading zero omitted, Abs format (unit mm)*
G04 Created by KiCad (PCBNEW 10.0.6-1.fc44) date 2026-09-14 18:45:26*
%MOMM*%
%LPD*%
G01*
G04 APERTURE LIST*
%TA.AperFunction,ComponentPad*%
%ADD10O,2.800000X1.800000*%
%TD*%
%TA.AperFunction,HeatsinkPad*%
%ADD11C,0.500000*%
%TD*%
%TA.AperFunction,HeatsinkPad*%
%ADD12C,0.600000*%
%TD*%
%TA.AperFunction,ComponentPad*%
%ADD13R,2.000000X2.000000*%
%TD*%
%TA.AperFunction,ComponentPad*%
%ADD14C,2.000000*%
%TD*%
%TA.AperFunction,ComponentPad*%
%ADD15R,3.200000X2.000000*%
%TD*%
%TA.AperFunction,ComponentPad*%
%ADD16O,1.000000X2.100000*%
%TD*%
%TA.AperFunction,ComponentPad*%
%ADD17O,1.000000X1.600000*%
%TD*%
%TA.AperFunction,ComponentPad*%
%ADD18R,1.700000X1.700000*%
%TD*%
%TA.AperFunction,ComponentPad*%
%ADD19C,1.700000*%
%TD*%
%TA.AperFunction,ViaPad*%
%ADD20C,0.500000*%
%TD*%
%TA.AperFunction,Conductor*%
%ADD21C,0.200000*%
%TD*%
G04 APERTURE END LIST*
D10*
%TO.N,HP_R*%
%TO.C,J3*%
X14000000Y-13150000D03*
%TO.N,N/C*%
X12000000Y-11350000D03*
%TO.N,GND*%
X12000000Y-5250000D03*
%TO.N,HP_L*%
X14000000Y-7650000D03*
%TO.N,JACK_TN*%
X12000000Y-16850000D03*
%TD*%
D11*
%TO.N,GND*%
%TO.C,U6*%
X73525000Y-32000000D03*
X74500000Y-31275000D03*
X74500000Y-32000000D03*
X74500000Y-32725000D03*
X75475000Y-32000000D03*
%TD*%
D12*
%TO.N,GND*%
%TO.C,U1*%
X60100000Y-14510000D03*
X60100000Y-15910000D03*
X60800000Y-13810000D03*
X60800000Y-15210000D03*
X60800000Y-16610000D03*
X61500000Y-14510000D03*
X61500000Y-15910000D03*
X62200000Y-13810000D03*
X62200000Y-15210000D03*
X62200000Y-16610000D03*
X62900000Y-14510000D03*
X62900000Y-15910000D03*
%TD*%
D13*
%TO.N,ENC_A*%
%TO.C,SW1*%
X52000000Y-33200000D03*
D14*
%TO.N,ENC_B*%
X52000000Y-38200000D03*
%TO.N,GND*%
X52000000Y-35700000D03*
D15*
X59500000Y-30100000D03*
X59500000Y-41300000D03*
D14*
%TO.N,ENC_SW*%
X66500000Y-38200000D03*
%TO.N,GND*%
X66500000Y-33200000D03*
%TD*%
D16*
%TO.N,GND*%
%TO.C,J1*%
X55680000Y-47195000D03*
D17*
X55680000Y-51375000D03*
D16*
X64320000Y-47195000D03*
D17*
X64320000Y-51375000D03*
%TD*%
D18*
%TO.N,3V3*%
%TO.C,J6*%
X30000000Y-36000000D03*
D19*
%TO.N,UART_TX*%
X32540000Y-36000000D03*
%TO.N,UART_RX*%
X35080000Y-36000000D03*
%TO.N,GND*%
X37620000Y-36000000D03*
%TD*%
D18*
%TO.N,GND*%
%TO.C,J4*%
X23000000Y-5500000D03*
D19*
%TO.N,3V3*%
X25540000Y-5500000D03*
%TO.N,I2C_SCL*%
X28080000Y-5500000D03*
%TO.N,I2C_SDA*%
X30620000Y-5500000D03*
%TD*%
D20*
%TO.N,BTN_NEXT*%
X37571200Y-33434700D03*
X37498400Y-43060200D03*
X49391000Y-11703500D03*
%TO.N,GND*%
X78700000Y-31200000D03*
X3700000Y-21200000D03*
X71200000Y-43700000D03*
X11200000Y-18700000D03*
X6200000Y-38700000D03*
X8700000Y-11200000D03*
X53700000Y-51200000D03*
X23700000Y-33700000D03*
X66200000Y-28700000D03*
X6200000Y-11200000D03*
X28700000Y-41200000D03*
X3700000Y-43700000D03*
X6200000Y-21200000D03*
X3700000Y-36200000D03*
X78700000Y-11200000D03*
X58700000Y-11200000D03*
X53700000Y-33700000D03*
X6200000Y-1200000D03*
X28700000Y-1200000D03*
X1200000Y-13700000D03*
X63700000Y-28700000D03*
X32652806Y-11250500D03*
X11200000Y-21200000D03*
X21200000Y-3700000D03*
X78700000Y-43700000D03*
X76200000Y-13700000D03*
X13700000Y-51200000D03*
X76200000Y-8700000D03*
X8700000Y-43700000D03*
X8700000Y-16200000D03*
X6200000Y-36200000D03*
X58700000Y-51200000D03*
X8700000Y-8700000D03*
X66200000Y-11200000D03*
X56200000Y-41200000D03*
X31200000Y-41200000D03*
X23700000Y-18700000D03*
X26200000Y-33700000D03*
X1200000Y-31200000D03*
X3700000Y-13700000D03*
X76200000Y-43700000D03*
X43700000Y-51200000D03*
X33700000Y-3700000D03*
X56200000Y-36200000D03*
X63700000Y-11200000D03*
X8700000Y-41200000D03*
X18700000Y-1200000D03*
X78700000Y-26200000D03*
X71200000Y-46200000D03*
X6200000Y-18700000D03*
X3700000Y-18700000D03*
X1200000Y-38700000D03*
X73700000Y-51200000D03*
X76200000Y-11200000D03*
X71200000Y-51200000D03*
X18700000Y-18700000D03*
X56200000Y-38700000D03*
X24099400Y-10243837D03*
X66200000Y-13700000D03*
X3700000Y-33700000D03*
X3700000Y-38700000D03*
X1200000Y-3700000D03*
X1200000Y-18700000D03*
X13700000Y-1200000D03*
X63700000Y-41200000D03*
X43700000Y-36200000D03*
X1200000Y-8700000D03*
X8700000Y-36200000D03*
X58700000Y-38700000D03*
X56200000Y-33700000D03*
X11200000Y-1200000D03*
X61200000Y-11200000D03*
X8700000Y-48700000D03*
X78700000Y-51200000D03*
X1200000Y-48700000D03*
X1200000Y-21200000D03*
X1200000Y-33700000D03*
X26200000Y-36200000D03*
X13700000Y-18700000D03*
X23700000Y-1200000D03*
X18700000Y-46200000D03*
X13700000Y-3700000D03*
X38700000Y-33700000D03*
X6200000Y-51200000D03*
X11200000Y-51200000D03*
X18700000Y-8700000D03*
X1200000Y-6200000D03*
X78700000Y-28700000D03*
X52157700Y-12973413D03*
X56200000Y-28700000D03*
X48700000Y-51200000D03*
X26200000Y-1200000D03*
X8700000Y-6200000D03*
X1200000Y-36200000D03*
X78700000Y-48700000D03*
X23700000Y-51200000D03*
X69808200Y-7871400D03*
X11200000Y-3700000D03*
X16200000Y-6200000D03*
X78700000Y-8700000D03*
X16200000Y-11200000D03*
X36200000Y-1200000D03*
X16200000Y-3700000D03*
X23700000Y-36200000D03*
X3700000Y-51200000D03*
X76200000Y-26200000D03*
X8700000Y-13700000D03*
X76200000Y-23700000D03*
X76200000Y-16200000D03*
X26200000Y-41200000D03*
X8700000Y-18700000D03*
X50748774Y-10341687D03*
X53700000Y-28700000D03*
X3700000Y-11200000D03*
X18700000Y-11200000D03*
X3700000Y-16200000D03*
X8700000Y-1200000D03*
X21200000Y-46200000D03*
X18700000Y-51200000D03*
X3700000Y-1200000D03*
X6200000Y-16200000D03*
X8700000Y-3700000D03*
X18700000Y-6200000D03*
X71200000Y-48700000D03*
X73700000Y-43700000D03*
X53700000Y-36200000D03*
X78700000Y-46200000D03*
X78700000Y-21200000D03*
X1200000Y-46200000D03*
X45676296Y-44188091D03*
X23700000Y-3700000D03*
X36200000Y-3700000D03*
X6200000Y-13700000D03*
X78700000Y-16200000D03*
X21200000Y-1200000D03*
X78700000Y-23700000D03*
X78700000Y-13700000D03*
X31200000Y-46200000D03*
X41200000Y-33700000D03*
X58700000Y-16200000D03*
X13700000Y-21200000D03*
X16200000Y-1200000D03*
X11200000Y-8700000D03*
X71200000Y-41200000D03*
X76200000Y-18700000D03*
X31200000Y-1200000D03*
X18700000Y-3700000D03*
X6200000Y-43700000D03*
X3700000Y-41200000D03*
X1200000Y-51200000D03*
X3700000Y-8700000D03*
X41200000Y-36200000D03*
X78700000Y-33700000D03*
X1200000Y-16200000D03*
X1200000Y-11200000D03*
X33700000Y-1200000D03*
X76200000Y-28700000D03*
X1200000Y-43700000D03*
X78700000Y-18700000D03*
X6200000Y-8700000D03*
X56200000Y-11200000D03*
X29325500Y-15325185D03*
X16200000Y-8700000D03*
X11200000Y-13700000D03*
X76200000Y-21200000D03*
X61200000Y-51200000D03*
X78700000Y-36200000D03*
X68700000Y-51200000D03*
X1200000Y-41200000D03*
X16200000Y-18700000D03*
X21200000Y-6200000D03*
X8700000Y-21200000D03*
X76200000Y-51200000D03*
X6200000Y-41200000D03*
X58700000Y-36200000D03*
X8700000Y-38700000D03*
%TO.N,3V3*%
X25441200Y-18481300D03*
X42425000Y-47487900D03*
X8823600Y-24030300D03*
X28822800Y-9551500D03*
X30280000Y-47616500D03*
%TO.N,HP_R*%
X37550400Y-12931000D03*
%TO.N,HP_L*%
X38682700Y-10439100D03*
%TO.N,JACK_TN*%
X46364200Y-17013700D03*
%TO.N,HPVDD*%
X42120500Y-8641900D03*
X42511000Y-12803200D03*
%TO.N,AMP_EN*%
X42048400Y-10299600D03*
X64305600Y-20121000D03*
X39553300Y-17981900D03*
%TO.N,CP_CAPP*%
X26338500Y-10072600D03*
X32107700Y-10157900D03*
%TO.N,DAC_VNEG*%
X23576500Y-11541200D03*
X32041800Y-12504900D03*
%TO.N,DAC_OUTR*%
X27307200Y-13965400D03*
X34779400Y-14271400D03*
%TO.N,I2S_BCK*%
X32035200Y-17185200D03*
X52463900Y-20215600D03*
%TO.N,I2S_DIN*%
X30778900Y-16737400D03*
X56355700Y-20173000D03*
%TO.N,I2S_LRCK*%
X31715200Y-15630500D03*
X32037000Y-11533500D03*
X55399600Y-15745000D03*
%TO.N,DAC_XSMT*%
X37806400Y-17224600D03*
X56356800Y-18164000D03*
%TO.N,VBAT*%
X10060300Y-47204900D03*
X8961100Y-33347100D03*
X61368400Y-33682000D03*
%TO.N,VSYS*%
X12869300Y-48436700D03*
X10625300Y-32069500D03*
X3449500Y-30272300D03*
%TO.N,VBUS*%
X42159900Y-44268100D03*
X54262000Y-48501000D03*
X38826400Y-38109700D03*
X15512100Y-33433100D03*
X54894400Y-45481200D03*
X14259500Y-30495300D03*
%TO.N,EN_LDO*%
X8500000Y-24792800D03*
X13936500Y-47645700D03*
%TO.N,ESP_IO0*%
X49503700Y-25767400D03*
X32710400Y-45477000D03*
X49951600Y-45804700D03*
%TO.N,CHG_LED_A*%
X17705100Y-27882500D03*
X22988800Y-46142900D03*
%TO.N,BTN_PLAY*%
X34303500Y-12615600D03*
X32710400Y-43013300D03*
X33500000Y-32142400D03*
X52807200Y-11089900D03*
%TO.N,SD_D1*%
X3543000Y-25860100D03*
X32498300Y-25798100D03*
%TO.N,ENC_SW*%
X58099700Y-31513300D03*
X57014400Y-15912600D03*
X42250000Y-27673000D03*
%TO.N,I2C_SDA*%
X74027200Y-13448900D03*
X72555900Y-30181400D03*
X21455600Y-21729700D03*
%TO.N,I2C_SCL*%
X73174000Y-12982600D03*
X71340700Y-30593000D03*
X28141100Y-14526100D03*
X28000000Y-20098300D03*
%TO.N,PACK_NEG*%
X15697600Y-43013300D03*
X75483800Y-33900400D03*
X73643000Y-40549600D03*
%TO.N,SD_CD*%
X8500000Y-26703400D03*
X45401700Y-23529200D03*
%TO.N,ESP_EN*%
X52699200Y-18655400D03*
X44473300Y-40673800D03*
X44104500Y-49232700D03*
X52963800Y-10297400D03*
%TO.N,BTN_PREV*%
X37881200Y-14196400D03*
X52234400Y-14196400D03*
X35624600Y-33489500D03*
%TO.N,ENC_A*%
X52424000Y-15910700D03*
%TO.N,ENC_B*%
X35306600Y-32324400D03*
X50797500Y-17809500D03*
%TO.N,JACK_DET*%
X65618100Y-22930700D03*
X44688600Y-21277800D03*
%TO.N,LED_DIN*%
X68508800Y-26498000D03*
X66736000Y-50404400D03*
%TO.N,SD_CS*%
X68510400Y-21067900D03*
X41750000Y-23786000D03*
X9004800Y-30232800D03*
%TO.N,SD_SCK*%
X69495200Y-18376300D03*
X7335500Y-25652500D03*
%TO.N,SD_MISO*%
X61875200Y-21725600D03*
X4523800Y-25507100D03*
X26000000Y-23933300D03*
%TO.N,UART_RX*%
X41592800Y-43901800D03*
X45325500Y-38075300D03*
X34973300Y-13612100D03*
X47331500Y-42630600D03*
X60073900Y-12787400D03*
X46276300Y-46244700D03*
%TO.N,UART_TX*%
X35140800Y-46142900D03*
X49140600Y-46536300D03*
X69166400Y-40964900D03*
X69163900Y-10986800D03*
%TO.N,SD_MOSI*%
X70515000Y-24747900D03*
X26147500Y-30710800D03*
X27650700Y-23735000D03*
X69916100Y-8943600D03*
X5117900Y-33350000D03*
%TO.N,USB_DP*%
X35790500Y-40985600D03*
X48160300Y-44809800D03*
%TO.N,USB_DM*%
X57246100Y-44557800D03*
X37415100Y-38682400D03*
X60217700Y-45487500D03*
%TO.N,CHG_STAT*%
X8406400Y-45477000D03*
X45670200Y-48621500D03*
X7965400Y-30106200D03*
%TO.N,SD_D2*%
X36913600Y-25767400D03*
X7326900Y-31850800D03*
%TO.N,UART_DTR*%
X49086000Y-42564300D03*
X39226300Y-46100700D03*
%TO.N,CP_VDD*%
X43407700Y-44235400D03*
X38165400Y-39423300D03*
X37348600Y-44511900D03*
X38362600Y-44568500D03*
%TO.N,CP_VBSENSE*%
X40788600Y-50868100D03*
X39766200Y-37962500D03*
%TO.N,CP_RSTN*%
X40706300Y-37483500D03*
X47341500Y-46275900D03*
%TD*%
%TO.N,3V3*%
D21*
X42425000Y-47487900D02*
X30408600Y-47487900D01*
X30408600Y-47487900D02*
X30280000Y-47616500D01*
%TO.N,HP_R*%
X34478800Y-13150000D02*
X34697800Y-12931000D01*
X34697800Y-12931000D02*
X37550400Y-12931000D01*
X14000000Y-13150000D02*
X34478800Y-13150000D01*
%TO.N,HP_L*%
X14000000Y-7650000D02*
X35893600Y-7650000D01*
X35893600Y-7650000D02*
X38682700Y-10439100D01*
%TO.N,JACK_TN*%
X12000000Y-16850000D02*
X13651700Y-16850000D01*
X14266000Y-16235700D02*
X13651700Y-16850000D01*
X45586200Y-16235700D02*
X14266000Y-16235700D01*
X46364200Y-17013700D02*
X45586200Y-16235700D01*
%TO.N,AMP_EN*%
X40855000Y-19283600D02*
X63468200Y-19283600D01*
X39553300Y-17981900D02*
X40855000Y-19283600D01*
X63468200Y-19283600D02*
X64305600Y-20121000D01*
%TO.N,CP_CAPP*%
X26423800Y-10157900D02*
X26338500Y-10072600D01*
X32107700Y-10157900D02*
X26423800Y-10157900D01*
%TO.N,DAC_VNEG*%
X24540200Y-12504900D02*
X32041800Y-12504900D01*
X23576500Y-11541200D02*
X24540200Y-12504900D01*
%TO.N,DAC_OUTR*%
X34779400Y-14271400D02*
X34473400Y-13965400D01*
X34473400Y-13965400D02*
X27307200Y-13965400D01*
%TO.N,I2S_BCK*%
X35065600Y-20215600D02*
X52463900Y-20215600D01*
X32035200Y-17185200D02*
X35065600Y-20215600D01*
%TO.N,I2S_DIN*%
X55845000Y-19662300D02*
X56355700Y-20173000D01*
X36174800Y-16675600D02*
X39161500Y-19662300D01*
X30778900Y-16737400D02*
X30840700Y-16675600D01*
X30840700Y-16675600D02*
X36174800Y-16675600D01*
X39161500Y-19662300D02*
X55845000Y-19662300D01*
%TO.N,I2S_LRCK*%
X55399600Y-15745000D02*
X54729500Y-16415100D01*
X54729500Y-16415100D02*
X52217600Y-16415100D01*
X52217600Y-16415100D02*
X51433000Y-15630500D01*
X51433000Y-15630500D02*
X31715200Y-15630500D01*
%TO.N,DAC_XSMT*%
X51543000Y-18100300D02*
X51305300Y-18338000D01*
X44865000Y-17224600D02*
X37806400Y-17224600D01*
X45978400Y-18338000D02*
X44865000Y-17224600D01*
X51305300Y-18338000D02*
X45978400Y-18338000D01*
X56356800Y-18164000D02*
X56293100Y-18100300D01*
X56293100Y-18100300D02*
X51543000Y-18100300D01*
%TO.N,VBAT*%
X11798800Y-33347100D02*
X13520800Y-31625100D01*
X35316800Y-31625100D02*
X35640000Y-31948300D01*
X13520800Y-31625100D02*
X35316800Y-31625100D01*
X59526100Y-33682000D02*
X61368400Y-33682000D01*
X57792400Y-31948300D02*
X59526100Y-33682000D01*
X8961100Y-33347100D02*
X11798800Y-33347100D01*
X35640000Y-31948300D02*
X57792400Y-31948300D01*
%TO.N,VSYS*%
X10625300Y-32069500D02*
X10342300Y-32352500D01*
X10342300Y-32352500D02*
X5529700Y-32352500D01*
X5529700Y-32352500D02*
X3449500Y-30272300D01*
%TO.N,VBUS*%
X15512100Y-33433100D02*
X20188700Y-38109700D01*
X42751300Y-43676700D02*
X53089900Y-43676700D01*
X53089900Y-43676700D02*
X54894400Y-45481200D01*
X42159900Y-44268100D02*
X42751300Y-43676700D01*
X20188700Y-38109700D02*
X38826400Y-38109700D01*
%TO.N,ESP_IO0*%
X49951600Y-45804700D02*
X49536600Y-45389700D01*
X49536600Y-45389700D02*
X39722100Y-45389700D01*
X39579700Y-45247300D02*
X32940100Y-45247300D01*
X39722100Y-45389700D02*
X39579700Y-45247300D01*
X32940100Y-45247300D02*
X32710400Y-45477000D01*
%TO.N,BTN_PLAY*%
X35829200Y-11089900D02*
X52807200Y-11089900D01*
X34303500Y-12615600D02*
X35829200Y-11089900D01*
%TO.N,SD_D1*%
X4902500Y-27219600D02*
X31076800Y-27219600D01*
X31076800Y-27219600D02*
X32498300Y-25798100D01*
X3543000Y-25860100D02*
X4902500Y-27219600D01*
%TO.N,ENC_SW*%
X59909200Y-31513300D02*
X58099700Y-31513300D01*
X66500000Y-38104100D02*
X59909200Y-31513300D01*
X66500000Y-38200000D02*
X66500000Y-38104100D01*
X46090300Y-31513300D02*
X42250000Y-27673000D01*
X58099700Y-31513300D02*
X46090300Y-31513300D01*
%TO.N,I2C_SDA*%
X74027200Y-13448900D02*
X74027200Y-13126300D01*
X74027200Y-13126300D02*
X70696500Y-9795600D01*
X36415200Y-5500000D02*
X30620000Y-5500000D01*
X40710800Y-9795600D02*
X36415200Y-5500000D01*
X70696500Y-9795600D02*
X40710800Y-9795600D01*
%TO.N,I2C_SCL*%
X60705800Y-12982600D02*
X73174000Y-12982600D01*
X58883200Y-14805200D02*
X60705800Y-12982600D01*
X28141100Y-14526100D02*
X28420200Y-14805200D01*
X28420200Y-14805200D02*
X58883200Y-14805200D01*
%TO.N,PACK_NEG*%
X73133500Y-40040100D02*
X73643000Y-40549600D01*
X15697600Y-43013300D02*
X18580300Y-40130600D01*
X18580300Y-40130600D02*
X49471500Y-40130600D01*
X49562000Y-40040100D02*
X73133500Y-40040100D01*
X49471500Y-40130600D02*
X49562000Y-40040100D01*
%TO.N,SD_CD*%
X23972900Y-26703400D02*
X8500000Y-26703400D01*
X27443000Y-23233300D02*
X23972900Y-26703400D01*
X45401700Y-23529200D02*
X45105800Y-23233300D01*
X45105800Y-23233300D02*
X27443000Y-23233300D01*
%TO.N,BTN_PREV*%
X52234400Y-14196400D02*
X37881200Y-14196400D01*
%TO.N,ENC_B*%
X46124400Y-32324400D02*
X35306600Y-32324400D01*
X52000000Y-38200000D02*
X46124400Y-32324400D01*
%TO.N,JACK_DET*%
X63911300Y-21223900D02*
X44742500Y-21223900D01*
X65618100Y-22930700D02*
X63911300Y-21223900D01*
X44742500Y-21223900D02*
X44688600Y-21277800D01*
%TO.N,SD_CS*%
X41750000Y-23786000D02*
X41994900Y-24030900D01*
X41750000Y-23786000D02*
X35542400Y-29993600D01*
X41994900Y-24030900D02*
X65547400Y-24030900D01*
X35542400Y-29993600D02*
X9244000Y-29993600D01*
X65547400Y-24030900D02*
X68510400Y-21067900D01*
X9244000Y-29993600D02*
X9004800Y-30232800D01*
%TO.N,SD_SCK*%
X24114600Y-20733800D02*
X19195900Y-25652500D01*
X69495200Y-18376300D02*
X67137700Y-20733800D01*
X19195900Y-25652500D02*
X7335500Y-25652500D01*
X67137700Y-20733800D02*
X24114600Y-20733800D01*
%TO.N,SD_MISO*%
X61741200Y-21859600D02*
X28073700Y-21859600D01*
X61875200Y-21725600D02*
X61741200Y-21859600D01*
X28073700Y-21859600D02*
X26000000Y-23933300D01*
X5171000Y-26154300D02*
X4523800Y-25507100D01*
X23779000Y-26154300D02*
X5171000Y-26154300D01*
X26000000Y-23933300D02*
X23779000Y-26154300D01*
%TO.N,UART_RX*%
X42864000Y-42630600D02*
X47331500Y-42630600D01*
X40588700Y-38075300D02*
X45325500Y-38075300D01*
X60073900Y-12787400D02*
X59249200Y-13612100D01*
X59249200Y-13612100D02*
X34973300Y-13612100D01*
X41592800Y-43901800D02*
X42864000Y-42630600D01*
X39878400Y-37365000D02*
X40588700Y-38075300D01*
X36445000Y-37365000D02*
X39878400Y-37365000D01*
X35080000Y-36000000D02*
X36445000Y-37365000D01*
%TO.N,UART_TX*%
X66176800Y-43954500D02*
X57140000Y-43954500D01*
X69166400Y-40964900D02*
X66176800Y-43954500D01*
X57140000Y-43954500D02*
X54558200Y-46536300D01*
X39434100Y-45599000D02*
X35684700Y-45599000D01*
X54558200Y-46536300D02*
X49140600Y-46536300D01*
X39578000Y-45742900D02*
X39434100Y-45599000D01*
X48347200Y-45742900D02*
X39578000Y-45742900D01*
X35684700Y-45599000D02*
X35140800Y-46142900D01*
X49140600Y-46536300D02*
X48347200Y-45742900D01*
%TO.N,SD_MOSI*%
X25617000Y-31241300D02*
X26147500Y-30710800D01*
X42604400Y-24747900D02*
X70515000Y-24747900D01*
X5117900Y-33350000D02*
X5638500Y-32829400D01*
X13301700Y-31241300D02*
X25617000Y-31241300D01*
X36641500Y-30710800D02*
X42604400Y-24747900D01*
X11713600Y-32829400D02*
X13301700Y-31241300D01*
X26147500Y-30710800D02*
X36641500Y-30710800D01*
X5638500Y-32829400D02*
X11713600Y-32829400D01*
%TO.N,USB_DP*%
X41791400Y-44809800D02*
X48160300Y-44809800D01*
X37967200Y-40985600D02*
X41791400Y-44809800D01*
X35790500Y-40985600D02*
X37967200Y-40985600D01*
%TO.N,CHG_STAT*%
X28185200Y-48621500D02*
X45670200Y-48621500D01*
X25040700Y-45477000D02*
X28185200Y-48621500D01*
X8406400Y-45477000D02*
X25040700Y-45477000D01*
%TO.N,SD_D2*%
X34249000Y-28432000D02*
X8929400Y-28432000D01*
X7326900Y-30034500D02*
X7326900Y-31850800D01*
X36913600Y-25767400D02*
X34249000Y-28432000D01*
X8929400Y-28432000D02*
X7326900Y-30034500D01*
%TO.N,CP_VDD*%
X38306000Y-44511900D02*
X38362600Y-44568500D01*
X37348600Y-44511900D02*
X38306000Y-44511900D01*
%TD*%
%TA.AperFunction,Conductor*%
%TO.N,GND*%
G36*
X53007813Y-43948874D02*
G01*
X54472226Y-45413287D01*
X54493900Y-45465613D01*
X54493900Y-45533929D01*
X54521191Y-45635782D01*
X54521195Y-45635791D01*
X54529461Y-45650108D01*
X54573920Y-45727113D01*
X54648487Y-45801680D01*
X54684410Y-45822420D01*
X54739811Y-45854406D01*
X54740743Y-45854792D01*
X54741102Y-45855151D01*
X54744013Y-45856832D01*
X54743562Y-45857611D01*
X54780792Y-45894840D01*
X54780794Y-45951477D01*
X54764752Y-45975486D01*
X54476113Y-46264126D01*
X54423787Y-46285800D01*
X50195483Y-46285800D01*
X50143157Y-46264126D01*
X50121483Y-46211800D01*
X50143157Y-46159474D01*
X50158483Y-46147714D01*
X50160613Y-46146483D01*
X50197513Y-46125180D01*
X50272080Y-46050613D01*
X50324807Y-45959287D01*
X50352099Y-45857429D01*
X50352100Y-45857429D01*
X50352100Y-45751971D01*
X50352099Y-45751970D01*
X50345542Y-45727500D01*
X50324807Y-45650113D01*
X50272080Y-45558787D01*
X50197513Y-45484220D01*
X50112194Y-45434961D01*
X50106191Y-45431495D01*
X50106182Y-45431491D01*
X50004329Y-45404200D01*
X50004327Y-45404200D01*
X49936013Y-45404200D01*
X49883687Y-45382526D01*
X49678498Y-45177337D01*
X49678494Y-45177334D01*
X49586428Y-45139200D01*
X48560751Y-45139200D01*
X48508425Y-45117526D01*
X48486751Y-45065200D01*
X48496665Y-45028200D01*
X48516249Y-44994279D01*
X48533507Y-44964387D01*
X48560799Y-44862529D01*
X48560800Y-44862529D01*
X48560800Y-44757071D01*
X48560799Y-44757070D01*
X48551694Y-44723091D01*
X48533507Y-44655213D01*
X48480780Y-44563887D01*
X48406213Y-44489320D01*
X48399250Y-44485300D01*
X48314891Y-44436595D01*
X48314882Y-44436591D01*
X48213029Y-44409300D01*
X48213027Y-44409300D01*
X48107573Y-44409300D01*
X48107571Y-44409300D01*
X48005717Y-44436591D01*
X48005708Y-44436595D01*
X47914386Y-44489320D01*
X47866081Y-44537626D01*
X47813755Y-44559300D01*
X43811326Y-44559300D01*
X43759000Y-44537626D01*
X43737326Y-44485300D01*
X43747240Y-44448300D01*
X43762024Y-44422693D01*
X43780907Y-44389987D01*
X43808199Y-44288129D01*
X43808200Y-44288129D01*
X43808200Y-44182671D01*
X43808199Y-44182670D01*
X43780908Y-44080817D01*
X43780907Y-44080813D01*
X43756303Y-44038198D01*
X43748911Y-43982048D01*
X43783389Y-43937114D01*
X43820390Y-43927200D01*
X52955487Y-43927200D01*
X53007813Y-43948874D01*
G37*
%TD.AperFunction*%
%TA.AperFunction,Conductor*%
G36*
X38978326Y-522174D02*
G01*
X39000000Y-574500D01*
X39000000Y-6190000D01*
X51426000Y-6190000D01*
X51478326Y-6211674D01*
X51500000Y-6264000D01*
X51500000Y-9471100D01*
X51478326Y-9523426D01*
X51426000Y-9545100D01*
X40845212Y-9545100D01*
X40792886Y-9523426D01*
X39906109Y-8636649D01*
X39858630Y-8589170D01*
X41720000Y-8589170D01*
X41720000Y-8694629D01*
X41747291Y-8796482D01*
X41747292Y-8796485D01*
X41747293Y-8796487D01*
X41800020Y-8887813D01*
X41874587Y-8962380D01*
X41965913Y-9015107D01*
X42067770Y-9042399D01*
X42067771Y-9042400D01*
X42067773Y-9042400D01*
X42173229Y-9042400D01*
X42173229Y-9042399D01*
X42275087Y-9015107D01*
X42366413Y-8962380D01*
X42440980Y-8887813D01*
X42493707Y-8796487D01*
X42520999Y-8694629D01*
X42521000Y-8694629D01*
X42521000Y-8589171D01*
X42520999Y-8589170D01*
X42493708Y-8487317D01*
X42493707Y-8487313D01*
X42440980Y-8395987D01*
X42366413Y-8321420D01*
X42363354Y-8319654D01*
X42275091Y-8268695D01*
X42275082Y-8268691D01*
X42173229Y-8241400D01*
X42173227Y-8241400D01*
X42067773Y-8241400D01*
X42067771Y-8241400D01*
X41965917Y-8268691D01*
X41965908Y-8268695D01*
X41874586Y-8321420D01*
X41800020Y-8395986D01*
X41747295Y-8487308D01*
X41747291Y-8487317D01*
X41720000Y-8589170D01*
X39858630Y-8589170D01*
X38668960Y-7399500D01*
X36557097Y-5287636D01*
X36557094Y-5287634D01*
X36465028Y-5249500D01*
X31648618Y-5249500D01*
X31596292Y-5227826D01*
X31580251Y-5203818D01*
X31506632Y-5026086D01*
X31397139Y-4862218D01*
X31257781Y-4722860D01*
X31093913Y-4613367D01*
X30911839Y-4537950D01*
X30911829Y-4537947D01*
X30782388Y-4512200D01*
X30718541Y-4499500D01*
X30521459Y-4499500D01*
X30466662Y-4510399D01*
X30328170Y-4537947D01*
X30328160Y-4537950D01*
X30146086Y-4613367D01*
X29982218Y-4722860D01*
X29982217Y-4722862D01*
X29842862Y-4862217D01*
X29842860Y-4862218D01*
X29733367Y-5026086D01*
X29657950Y-5208160D01*
X29657947Y-5208170D01*
X29619500Y-5401460D01*
X29619500Y-5598539D01*
X29657947Y-5791829D01*
X29657950Y-5791839D01*
X29733367Y-5973913D01*
X29770910Y-6030099D01*
X29842861Y-6137782D01*
X29982218Y-6277139D01*
X30146086Y-6386632D01*
X30328165Y-6462051D01*
X30521459Y-6500500D01*
X30521461Y-6500500D01*
X30718539Y-6500500D01*
X30718541Y-6500500D01*
X30911835Y-6462051D01*
X31093914Y-6386632D01*
X31257782Y-6277139D01*
X31397139Y-6137782D01*
X31506632Y-5973914D01*
X31545620Y-5879787D01*
X31580251Y-5796182D01*
X31620299Y-5756133D01*
X31648618Y-5750500D01*
X36280787Y-5750500D01*
X36333113Y-5772174D01*
X40494215Y-9933275D01*
X40494218Y-9933279D01*
X40498436Y-9937497D01*
X40568903Y-10007964D01*
X40588309Y-10016002D01*
X40588310Y-10016003D01*
X40588311Y-10016003D01*
X40660972Y-10046101D01*
X40769240Y-10046101D01*
X40769248Y-10046100D01*
X41605416Y-10046100D01*
X41657742Y-10067774D01*
X41679416Y-10120100D01*
X41675443Y-10140059D01*
X41676448Y-10140329D01*
X41647900Y-10246870D01*
X41647900Y-10352329D01*
X41675191Y-10454182D01*
X41675195Y-10454191D01*
X41719601Y-10531104D01*
X41727920Y-10545513D01*
X41802487Y-10620080D01*
X41893813Y-10672807D01*
X41893817Y-10672808D01*
X41972614Y-10693922D01*
X42017547Y-10728400D01*
X42024939Y-10784553D01*
X41990461Y-10829486D01*
X41953461Y-10839400D01*
X39027445Y-10839400D01*
X38975119Y-10817726D01*
X38953445Y-10765400D01*
X38975119Y-10713074D01*
X38988093Y-10700100D01*
X39003180Y-10685013D01*
X39055907Y-10593687D01*
X39083199Y-10491829D01*
X39083200Y-10491829D01*
X39083200Y-10386371D01*
X39083199Y-10386370D01*
X39074077Y-10352327D01*
X39055907Y-10284513D01*
X39003180Y-10193187D01*
X38928613Y-10118620D01*
X38882156Y-10091798D01*
X38837291Y-10065895D01*
X38837282Y-10065891D01*
X38735429Y-10038600D01*
X38735427Y-10038600D01*
X38667113Y-10038600D01*
X38614787Y-10016926D01*
X36035498Y-7437637D01*
X36035494Y-7437634D01*
X35943428Y-7399500D01*
X15581975Y-7399500D01*
X15529649Y-7377826D01*
X15511161Y-7346981D01*
X15510131Y-7343586D01*
X15510130Y-7343580D01*
X15430941Y-7152402D01*
X15315977Y-6980345D01*
X15169655Y-6834023D01*
X14997598Y-6719059D01*
X14806420Y-6639870D01*
X14806413Y-6639868D01*
X14653516Y-6609455D01*
X14603465Y-6599500D01*
X13396535Y-6599500D01*
X13356385Y-6607486D01*
X13193586Y-6639868D01*
X13193579Y-6639870D01*
X13002401Y-6719059D01*
X12830345Y-6834022D01*
X12830344Y-6834024D01*
X12684024Y-6980344D01*
X12684022Y-6980345D01*
X12569059Y-7152401D01*
X12489870Y-7343579D01*
X12489868Y-7343586D01*
X12449500Y-7546535D01*
X12449500Y-7753464D01*
X12489868Y-7956413D01*
X12489870Y-7956420D01*
X12569059Y-8147598D01*
X12649971Y-8268693D01*
X12684023Y-8319655D01*
X12830345Y-8465977D01*
X13002402Y-8580941D01*
X13193580Y-8660130D01*
X13396535Y-8700500D01*
X13396536Y-8700500D01*
X14603464Y-8700500D01*
X14603465Y-8700500D01*
X14806420Y-8660130D01*
X14997598Y-8580941D01*
X15169655Y-8465977D01*
X15315977Y-8319655D01*
X15430941Y-8147598D01*
X15510130Y-7956420D01*
X15510132Y-7956406D01*
X15511161Y-7953019D01*
X15547091Y-7909238D01*
X15581975Y-7900500D01*
X35759187Y-7900500D01*
X35811513Y-7922174D01*
X38260526Y-10371187D01*
X38282200Y-10423513D01*
X38282200Y-10491829D01*
X38309491Y-10593682D01*
X38309495Y-10593691D01*
X38362220Y-10685013D01*
X38390281Y-10713074D01*
X38411955Y-10765400D01*
X38390281Y-10817726D01*
X38337955Y-10839400D01*
X35887648Y-10839400D01*
X35887640Y-10839399D01*
X35879028Y-10839399D01*
X35779373Y-10839399D01*
X35747982Y-10852402D01*
X35687303Y-10877535D01*
X35687302Y-10877537D01*
X34371413Y-12193426D01*
X34319087Y-12215100D01*
X34250771Y-12215100D01*
X34148917Y-12242391D01*
X34148908Y-12242395D01*
X34057586Y-12295120D01*
X33983020Y-12369686D01*
X33930295Y-12461008D01*
X33930291Y-12461017D01*
X33903000Y-12562870D01*
X33903000Y-12668329D01*
X33930291Y-12770182D01*
X33930295Y-12770191D01*
X33940866Y-12788500D01*
X33948259Y-12844652D01*
X33913780Y-12889586D01*
X33876780Y-12899500D01*
X32392245Y-12899500D01*
X32339919Y-12877826D01*
X32318245Y-12825500D01*
X32339919Y-12773174D01*
X32345333Y-12767760D01*
X32362280Y-12750813D01*
X32415007Y-12659487D01*
X32442299Y-12557629D01*
X32442300Y-12557629D01*
X32442300Y-12452171D01*
X32442299Y-12452170D01*
X32415008Y-12350317D01*
X32415007Y-12350313D01*
X32362280Y-12258987D01*
X32287713Y-12184420D01*
X32210547Y-12139868D01*
X32196391Y-12131695D01*
X32196382Y-12131691D01*
X32094529Y-12104400D01*
X32094527Y-12104400D01*
X31989073Y-12104400D01*
X31989071Y-12104400D01*
X31887217Y-12131691D01*
X31887208Y-12131695D01*
X31795886Y-12184420D01*
X31747581Y-12232726D01*
X31695255Y-12254400D01*
X24674612Y-12254400D01*
X24622286Y-12232726D01*
X23998674Y-11609113D01*
X23977006Y-11557715D01*
X23977000Y-11557236D01*
X23977000Y-11488473D01*
X23974936Y-11480771D01*
X23974936Y-11480770D01*
X31636500Y-11480770D01*
X31636500Y-11586229D01*
X31663791Y-11688082D01*
X31663795Y-11688091D01*
X31668241Y-11695791D01*
X31716520Y-11779413D01*
X31791087Y-11853980D01*
X31882413Y-11906707D01*
X31984270Y-11933999D01*
X31984271Y-11934000D01*
X31984273Y-11934000D01*
X32089729Y-11934000D01*
X32089729Y-11933999D01*
X32191587Y-11906707D01*
X32282913Y-11853980D01*
X32357480Y-11779413D01*
X32410207Y-11688087D01*
X32437499Y-11586229D01*
X32437500Y-11586229D01*
X32437500Y-11480771D01*
X32437499Y-11480770D01*
X32432765Y-11463104D01*
X32410207Y-11378913D01*
X32357480Y-11287587D01*
X32282913Y-11213020D01*
X32191591Y-11160295D01*
X32191582Y-11160291D01*
X32089729Y-11133000D01*
X32089727Y-11133000D01*
X31984273Y-11133000D01*
X31984271Y-11133000D01*
X31882417Y-11160291D01*
X31882408Y-11160295D01*
X31791086Y-11213020D01*
X31716520Y-11287586D01*
X31663795Y-11378908D01*
X31663791Y-11378917D01*
X31636500Y-11480770D01*
X23974936Y-11480770D01*
X23949708Y-11386617D01*
X23949707Y-11386613D01*
X23896980Y-11295287D01*
X23822413Y-11220720D01*
X23809076Y-11213020D01*
X23731091Y-11167995D01*
X23731082Y-11167991D01*
X23629229Y-11140700D01*
X23629227Y-11140700D01*
X23523773Y-11140700D01*
X23523771Y-11140700D01*
X23421917Y-11167991D01*
X23421908Y-11167995D01*
X23330586Y-11220720D01*
X23256020Y-11295286D01*
X23203295Y-11386608D01*
X23203291Y-11386617D01*
X23176000Y-11488470D01*
X23176000Y-11593929D01*
X23203291Y-11695782D01*
X23203292Y-11695785D01*
X23203293Y-11695787D01*
X23256020Y-11787113D01*
X23330587Y-11861680D01*
X23421913Y-11914407D01*
X23523770Y-11941699D01*
X23523771Y-11941700D01*
X23523773Y-11941700D01*
X23592087Y-11941700D01*
X23644413Y-11963374D01*
X24323615Y-12642575D01*
X24323618Y-12642579D01*
X24327836Y-12646797D01*
X24398303Y-12717264D01*
X24436438Y-12733059D01*
X24436439Y-12733060D01*
X24436440Y-12733060D01*
X24490373Y-12755401D01*
X24490374Y-12755401D01*
X24494555Y-12757133D01*
X24534602Y-12797182D01*
X24534602Y-12853820D01*
X24494553Y-12893867D01*
X24466235Y-12899500D01*
X15581975Y-12899500D01*
X15529649Y-12877826D01*
X15511161Y-12846981D01*
X15510131Y-12843586D01*
X15510130Y-12843580D01*
X15430941Y-12652402D01*
X15315977Y-12480345D01*
X15169655Y-12334023D01*
X15057353Y-12258986D01*
X14997598Y-12219059D01*
X14806420Y-12139870D01*
X14806413Y-12139868D01*
X14626083Y-12103999D01*
X14603465Y-12099500D01*
X13401070Y-12099500D01*
X13348744Y-12077826D01*
X13327070Y-12025500D01*
X13339541Y-11984388D01*
X13353582Y-11963374D01*
X13430941Y-11847598D01*
X13510130Y-11656420D01*
X13550500Y-11453465D01*
X13550500Y-11246535D01*
X13510130Y-11043580D01*
X13430941Y-10852402D01*
X13315977Y-10680345D01*
X13169655Y-10534023D01*
X13165292Y-10531108D01*
X12997598Y-10419059D01*
X12806420Y-10339870D01*
X12806413Y-10339868D01*
X12653516Y-10309455D01*
X12603465Y-10299500D01*
X11396535Y-10299500D01*
X11356385Y-10307486D01*
X11193586Y-10339868D01*
X11193579Y-10339870D01*
X11002401Y-10419059D01*
X10830345Y-10534022D01*
X10830344Y-10534024D01*
X10684024Y-10680344D01*
X10684022Y-10680345D01*
X10569059Y-10852401D01*
X10489870Y-11043579D01*
X10489868Y-11043586D01*
X10454635Y-11220720D01*
X10449500Y-11246535D01*
X10449500Y-11453465D01*
X10456847Y-11490399D01*
X10489868Y-11656413D01*
X10489870Y-11656420D01*
X10569059Y-11847598D01*
X10660458Y-11984388D01*
X10684023Y-12019655D01*
X10830345Y-12165977D01*
X11002402Y-12280941D01*
X11193580Y-12360130D01*
X11396535Y-12400500D01*
X11396536Y-12400500D01*
X12598930Y-12400500D01*
X12651256Y-12422174D01*
X12672930Y-12474500D01*
X12660459Y-12515610D01*
X12621807Y-12573457D01*
X12569059Y-12652401D01*
X12489870Y-12843579D01*
X12489868Y-12843586D01*
X12461858Y-12984405D01*
X12449500Y-13046535D01*
X12449500Y-13253465D01*
X12449905Y-13255500D01*
X12489868Y-13456413D01*
X12489870Y-13456420D01*
X12569059Y-13647598D01*
X12678117Y-13810817D01*
X12684023Y-13819655D01*
X12830345Y-13965977D01*
X13002402Y-14080941D01*
X13193580Y-14160130D01*
X13396535Y-14200500D01*
X13396536Y-14200500D01*
X14603464Y-14200500D01*
X14603465Y-14200500D01*
X14806420Y-14160130D01*
X14997598Y-14080941D01*
X15169655Y-13965977D01*
X15315977Y-13819655D01*
X15430941Y-13647598D01*
X15510130Y-13456420D01*
X15510132Y-13456406D01*
X15511161Y-13453019D01*
X15547091Y-13409238D01*
X15581975Y-13400500D01*
X34518931Y-13400500D01*
X34571257Y-13422174D01*
X34592931Y-13474500D01*
X34590410Y-13493648D01*
X34572800Y-13559373D01*
X34572800Y-13559374D01*
X34572800Y-13640900D01*
X34551126Y-13693226D01*
X34498800Y-13714900D01*
X27653745Y-13714900D01*
X27601419Y-13693226D01*
X27553113Y-13644920D01*
X27461791Y-13592195D01*
X27461782Y-13592191D01*
X27359929Y-13564900D01*
X27359927Y-13564900D01*
X27254473Y-13564900D01*
X27254471Y-13564900D01*
X27152617Y-13592191D01*
X27152608Y-13592195D01*
X27061286Y-13644920D01*
X26986720Y-13719486D01*
X26933995Y-13810808D01*
X26933991Y-13810817D01*
X26906700Y-13912670D01*
X26906700Y-14018129D01*
X26933991Y-14119982D01*
X26933995Y-14119991D01*
X26957170Y-14160131D01*
X26986720Y-14211313D01*
X27061287Y-14285880D01*
X27152613Y-14338607D01*
X27254470Y-14365899D01*
X27254471Y-14365900D01*
X27254473Y-14365900D01*
X27359929Y-14365900D01*
X27359929Y-14365899D01*
X27461787Y-14338607D01*
X27553113Y-14285880D01*
X27601419Y-14237574D01*
X27653745Y-14215900D01*
X27729564Y-14215900D01*
X27781890Y-14237574D01*
X27803564Y-14289900D01*
X27793650Y-14326900D01*
X27767895Y-14371508D01*
X27767891Y-14371517D01*
X27740600Y-14473370D01*
X27740600Y-14578829D01*
X27767891Y-14680682D01*
X27767892Y-14680685D01*
X27767893Y-14680687D01*
X27820620Y-14772013D01*
X27895187Y-14846580D01*
X27986513Y-14899307D01*
X28088370Y-14926599D01*
X28088371Y-14926600D01*
X28088373Y-14926600D01*
X28156687Y-14926600D01*
X28209013Y-14948274D01*
X28278303Y-15017564D01*
X28370372Y-15055700D01*
X28370373Y-15055700D01*
X58933027Y-15055700D01*
X58933028Y-15055700D01*
X59025097Y-15017564D01*
X60787886Y-13254773D01*
X60840212Y-13233100D01*
X72827455Y-13233100D01*
X72879781Y-13254774D01*
X72928087Y-13303080D01*
X73019413Y-13355807D01*
X73121270Y-13383099D01*
X73121271Y-13383100D01*
X73121273Y-13383100D01*
X73226729Y-13383100D01*
X73226729Y-13383099D01*
X73328587Y-13355807D01*
X73419913Y-13303080D01*
X73494480Y-13228513D01*
X73547207Y-13137187D01*
X73547207Y-13137184D01*
X73548993Y-13134092D01*
X73593926Y-13099614D01*
X73650079Y-13107006D01*
X73665405Y-13118766D01*
X73682273Y-13135634D01*
X73703947Y-13187960D01*
X73694033Y-13224959D01*
X73653996Y-13294305D01*
X73653991Y-13294317D01*
X73626700Y-13396170D01*
X73626700Y-13501629D01*
X73653991Y-13603482D01*
X73653992Y-13603485D01*
X73653993Y-13603487D01*
X73706720Y-13694813D01*
X73781287Y-13769380D01*
X73872613Y-13822107D01*
X73974470Y-13849399D01*
X73974471Y-13849400D01*
X73974473Y-13849400D01*
X74079929Y-13849400D01*
X74079929Y-13849399D01*
X74181787Y-13822107D01*
X74273113Y-13769380D01*
X74347680Y-13694813D01*
X74400407Y-13603487D01*
X74427699Y-13501629D01*
X74427700Y-13501629D01*
X74427700Y-13396171D01*
X74427699Y-13396170D01*
X74400408Y-13294317D01*
X74400407Y-13294313D01*
X74347680Y-13202987D01*
X74299374Y-13154681D01*
X74277700Y-13102355D01*
X74277700Y-13076472D01*
X74277699Y-13076470D01*
X74239565Y-12984405D01*
X74239563Y-12984402D01*
X70881487Y-9626326D01*
X70859813Y-9574000D01*
X70881487Y-9521674D01*
X70933813Y-9500000D01*
X74500000Y-9500000D01*
X74500000Y-6359391D01*
X74521674Y-6307065D01*
X74574000Y-6285391D01*
X74596862Y-6289012D01*
X74663775Y-6310753D01*
X74683750Y-6317244D01*
X74683752Y-6317244D01*
X74683757Y-6317246D01*
X74788735Y-6333873D01*
X74893711Y-6350500D01*
X74893713Y-6350500D01*
X75106289Y-6350500D01*
X75190269Y-6337198D01*
X75316243Y-6317246D01*
X75316250Y-6317243D01*
X75316253Y-6317243D01*
X75518406Y-6251559D01*
X75518406Y-6251558D01*
X75518412Y-6251557D01*
X75623396Y-6198064D01*
X75656991Y-6190000D01*
X79425500Y-6190000D01*
X79477826Y-6211674D01*
X79499500Y-6264000D01*
X79499500Y-49998180D01*
X79499411Y-50001811D01*
X79482827Y-50339382D01*
X79482115Y-50346609D01*
X79432790Y-50679126D01*
X79431373Y-50686248D01*
X79349697Y-51012321D01*
X79347589Y-51019271D01*
X79234340Y-51335778D01*
X79231561Y-51342487D01*
X79087839Y-51646362D01*
X79084416Y-51652767D01*
X78911594Y-51941103D01*
X78907559Y-51947141D01*
X78707312Y-52217142D01*
X78702705Y-52222755D01*
X78476961Y-52471826D01*
X78471826Y-52476961D01*
X78222755Y-52702705D01*
X78217142Y-52707312D01*
X77947141Y-52907559D01*
X77941103Y-52911594D01*
X77652767Y-53084416D01*
X77646362Y-53087839D01*
X77342487Y-53231561D01*
X77335778Y-53234340D01*
X77019271Y-53347589D01*
X77012321Y-53349697D01*
X76686248Y-53431373D01*
X76679126Y-53432790D01*
X76346609Y-53482115D01*
X76339382Y-53482827D01*
X76001812Y-53499411D01*
X75998181Y-53499500D01*
X4001819Y-53499500D01*
X3998188Y-53499411D01*
X3660617Y-53482827D01*
X3653390Y-53482115D01*
X3320873Y-53432790D01*
X3313751Y-53431373D01*
X2987678Y-53349697D01*
X2980728Y-53347589D01*
X2664221Y-53234340D01*
X2657512Y-53231561D01*
X2353637Y-53087839D01*
X2347232Y-53084416D01*
X2058896Y-52911594D01*
X2052858Y-52907559D01*
X1782857Y-52707312D01*
X1777244Y-52702705D01*
X1528173Y-52476961D01*
X1523038Y-52471826D01*
X1476447Y-52420421D01*
X1297294Y-52222755D01*
X1292687Y-52217142D01*
X1092440Y-51947141D01*
X1088405Y-51941103D01*
X1069999Y-51910394D01*
X915579Y-51652759D01*
X912160Y-51646362D01*
X857361Y-51530500D01*
X768436Y-51342484D01*
X765659Y-51335778D01*
X744464Y-51276542D01*
X652406Y-51019258D01*
X650306Y-51012335D01*
X587352Y-50761007D01*
X21799500Y-50761007D01*
X21799500Y-50898993D01*
X21808391Y-50943694D01*
X21826418Y-51034322D01*
X21826421Y-51034332D01*
X21879223Y-51161808D01*
X21950578Y-51268599D01*
X21955886Y-51276542D01*
X22053458Y-51374114D01*
X22168189Y-51450775D01*
X22295672Y-51503580D01*
X22431007Y-51530500D01*
X22431009Y-51530500D01*
X22568991Y-51530500D01*
X22568993Y-51530500D01*
X22704328Y-51503580D01*
X22831811Y-51450775D01*
X22946542Y-51374114D01*
X23044114Y-51276542D01*
X23120775Y-51161811D01*
X23173580Y-51034328D01*
X23200500Y-50898993D01*
X23200500Y-50761007D01*
X24799500Y-50761007D01*
X24799500Y-50898993D01*
X24808391Y-50943694D01*
X24826418Y-51034322D01*
X24826421Y-51034332D01*
X24879223Y-51161808D01*
X24950578Y-51268599D01*
X24955886Y-51276542D01*
X25053458Y-51374114D01*
X25168189Y-51450775D01*
X25295672Y-51503580D01*
X25431007Y-51530500D01*
X25431009Y-51530500D01*
X25568991Y-51530500D01*
X25568993Y-51530500D01*
X25704328Y-51503580D01*
X25831811Y-51450775D01*
X25946542Y-51374114D01*
X26044114Y-51276542D01*
X26120775Y-51161811D01*
X26173580Y-51034328D01*
X26200500Y-50898993D01*
X26200500Y-50815370D01*
X40388100Y-50815370D01*
X40388100Y-50920829D01*
X40415391Y-51022682D01*
X40415392Y-51022685D01*
X40415393Y-51022687D01*
X40468120Y-51114013D01*
X40542687Y-51188580D01*
X40634013Y-51241307D01*
X40735870Y-51268599D01*
X40735871Y-51268600D01*
X40735873Y-51268600D01*
X40841329Y-51268600D01*
X40841329Y-51268599D01*
X40943187Y-51241307D01*
X41034513Y-51188580D01*
X41109080Y-51114013D01*
X41161807Y-51022687D01*
X41189099Y-50920829D01*
X41189100Y-50920829D01*
X41189100Y-50815371D01*
X41189099Y-50815370D01*
X41186293Y-50804899D01*
X41161807Y-50713513D01*
X41109080Y-50622187D01*
X41034513Y-50547620D01*
X40943191Y-50494895D01*
X40943182Y-50494891D01*
X40841329Y-50467600D01*
X40841327Y-50467600D01*
X40735873Y-50467600D01*
X40735871Y-50467600D01*
X40634017Y-50494891D01*
X40634008Y-50494895D01*
X40542686Y-50547620D01*
X40468120Y-50622186D01*
X40415395Y-50713508D01*
X40415391Y-50713517D01*
X40388100Y-50815370D01*
X26200500Y-50815370D01*
X26200500Y-50761007D01*
X26173580Y-50625672D01*
X26173578Y-50625667D01*
X26120776Y-50498191D01*
X26118574Y-50494895D01*
X26044114Y-50383458D01*
X26012326Y-50351670D01*
X66335500Y-50351670D01*
X66335500Y-50457129D01*
X66362791Y-50558982D01*
X66362795Y-50558991D01*
X66401296Y-50625677D01*
X66415520Y-50650313D01*
X66490087Y-50724880D01*
X66581413Y-50777607D01*
X66683270Y-50804899D01*
X66683271Y-50804900D01*
X66683273Y-50804900D01*
X66788729Y-50804900D01*
X66788729Y-50804899D01*
X66890587Y-50777607D01*
X66981913Y-50724880D01*
X67056480Y-50650313D01*
X67109207Y-50558987D01*
X67136499Y-50457129D01*
X67136500Y-50457129D01*
X67136500Y-50351671D01*
X67136499Y-50351670D01*
X67133206Y-50339382D01*
X67109207Y-50249813D01*
X67056480Y-50158487D01*
X66981913Y-50083920D01*
X66890591Y-50031195D01*
X66890582Y-50031191D01*
X66788729Y-50003900D01*
X66788727Y-50003900D01*
X66683273Y-50003900D01*
X66683271Y-50003900D01*
X66581417Y-50031191D01*
X66581408Y-50031195D01*
X66490086Y-50083920D01*
X66415520Y-50158486D01*
X66362795Y-50249808D01*
X66362791Y-50249817D01*
X66335500Y-50351670D01*
X26012326Y-50351670D01*
X25946542Y-50285886D01*
X25831811Y-50209225D01*
X25831810Y-50209224D01*
X25831808Y-50209223D01*
X25704332Y-50156421D01*
X25704322Y-50156418D01*
X25613694Y-50138391D01*
X25568993Y-50129500D01*
X25431007Y-50129500D01*
X25392642Y-50137131D01*
X25295677Y-50156418D01*
X25295667Y-50156421D01*
X25168191Y-50209223D01*
X25053461Y-50285883D01*
X24955883Y-50383461D01*
X24879223Y-50498191D01*
X24826421Y-50625667D01*
X24826418Y-50625677D01*
X24808948Y-50713508D01*
X24799500Y-50761007D01*
X23200500Y-50761007D01*
X23173580Y-50625672D01*
X23173578Y-50625667D01*
X23120776Y-50498191D01*
X23118572Y-50494893D01*
X23044114Y-50383458D01*
X22946542Y-50285886D01*
X22831811Y-50209225D01*
X22831810Y-50209224D01*
X22831808Y-50209223D01*
X22704332Y-50156421D01*
X22704322Y-50156418D01*
X22613694Y-50138391D01*
X22568993Y-50129500D01*
X22431007Y-50129500D01*
X22392642Y-50137131D01*
X22295677Y-50156418D01*
X22295667Y-50156421D01*
X22168191Y-50209223D01*
X22053461Y-50285883D01*
X21955883Y-50383461D01*
X21879223Y-50498191D01*
X21826421Y-50625667D01*
X21826418Y-50625677D01*
X21808948Y-50713508D01*
X21799500Y-50761007D01*
X587352Y-50761007D01*
X568626Y-50686248D01*
X567209Y-50679126D01*
X562935Y-50650313D01*
X517882Y-50346594D01*
X517173Y-50339396D01*
X500589Y-50001811D01*
X500500Y-49998180D01*
X500500Y-47893711D01*
X3649500Y-47893711D01*
X3649500Y-48106288D01*
X3682753Y-48316240D01*
X3682756Y-48316253D01*
X3748440Y-48518406D01*
X3844948Y-48707816D01*
X3894550Y-48776087D01*
X3969896Y-48879792D01*
X4120208Y-49030104D01*
X4186293Y-49078117D01*
X4292183Y-49155051D01*
X4341090Y-49179970D01*
X4481588Y-49251557D01*
X4481590Y-49251557D01*
X4481593Y-49251559D01*
X4683746Y-49317243D01*
X4683752Y-49317244D01*
X4683757Y-49317246D01*
X4788735Y-49333873D01*
X4893711Y-49350500D01*
X4893713Y-49350500D01*
X5106289Y-49350500D01*
X5190269Y-49337198D01*
X5316243Y-49317246D01*
X5316250Y-49317243D01*
X5316253Y-49317243D01*
X5518406Y-49251559D01*
X5518406Y-49251558D01*
X5518412Y-49251557D01*
X5707816Y-49155051D01*
X5879792Y-49030104D01*
X6030104Y-48879792D01*
X6155051Y-48707816D01*
X6251557Y-48518412D01*
X6295240Y-48383970D01*
X12468800Y-48383970D01*
X12468800Y-48489429D01*
X12496091Y-48591282D01*
X12496095Y-48591291D01*
X12548820Y-48682613D01*
X12623387Y-48757180D01*
X12714713Y-48809907D01*
X12816570Y-48837199D01*
X12816571Y-48837200D01*
X12816573Y-48837200D01*
X12922029Y-48837200D01*
X12922029Y-48837199D01*
X13023887Y-48809907D01*
X13115213Y-48757180D01*
X13189780Y-48682613D01*
X13242507Y-48591287D01*
X13269799Y-48489429D01*
X13269800Y-48489429D01*
X13269800Y-48383971D01*
X13269799Y-48383970D01*
X13259734Y-48346408D01*
X13242507Y-48282113D01*
X13189780Y-48190787D01*
X13115213Y-48116220D01*
X13087985Y-48100500D01*
X13023891Y-48063495D01*
X13023882Y-48063491D01*
X12922029Y-48036200D01*
X12922027Y-48036200D01*
X12816573Y-48036200D01*
X12816571Y-48036200D01*
X12714717Y-48063491D01*
X12714708Y-48063495D01*
X12623386Y-48116220D01*
X12548820Y-48190786D01*
X12496095Y-48282108D01*
X12496091Y-48282117D01*
X12468800Y-48383970D01*
X6295240Y-48383970D01*
X6317246Y-48316243D01*
X6342703Y-48155515D01*
X6350500Y-48106288D01*
X6350500Y-47893711D01*
X6331027Y-47770766D01*
X6317246Y-47683757D01*
X6317244Y-47683752D01*
X6317243Y-47683746D01*
X6251559Y-47481593D01*
X6251557Y-47481590D01*
X6251557Y-47481588D01*
X6180248Y-47341635D01*
X6155051Y-47292183D01*
X6081406Y-47190819D01*
X6053326Y-47152170D01*
X9659800Y-47152170D01*
X9659800Y-47257629D01*
X9687091Y-47359482D01*
X9687095Y-47359491D01*
X9730789Y-47435171D01*
X9739820Y-47450813D01*
X9814387Y-47525380D01*
X9905713Y-47578107D01*
X10007570Y-47605399D01*
X10007571Y-47605400D01*
X10007573Y-47605400D01*
X10113029Y-47605400D01*
X10113029Y-47605399D01*
X10159416Y-47592970D01*
X13536000Y-47592970D01*
X13536000Y-47698429D01*
X13563291Y-47800282D01*
X13563292Y-47800285D01*
X13563293Y-47800287D01*
X13616020Y-47891613D01*
X13690587Y-47966180D01*
X13781913Y-48018907D01*
X13883770Y-48046199D01*
X13883771Y-48046200D01*
X13883773Y-48046200D01*
X13989229Y-48046200D01*
X13989229Y-48046199D01*
X14091087Y-48018907D01*
X14182413Y-47966180D01*
X14256980Y-47891613D01*
X14309707Y-47800287D01*
X14336999Y-47698429D01*
X14337000Y-47698429D01*
X14337000Y-47592971D01*
X14336999Y-47592970D01*
X14322974Y-47540629D01*
X14309707Y-47491113D01*
X14256980Y-47399787D01*
X14182413Y-47325220D01*
X14125191Y-47292183D01*
X14091091Y-47272495D01*
X14091082Y-47272491D01*
X13989229Y-47245200D01*
X13989227Y-47245200D01*
X13883773Y-47245200D01*
X13883771Y-47245200D01*
X13781917Y-47272491D01*
X13781908Y-47272495D01*
X13690586Y-47325220D01*
X13616020Y-47399786D01*
X13563295Y-47491108D01*
X13563291Y-47491117D01*
X13536000Y-47592970D01*
X10159416Y-47592970D01*
X10214887Y-47578107D01*
X10306213Y-47525380D01*
X10380780Y-47450813D01*
X10433507Y-47359487D01*
X10460799Y-47257629D01*
X10460800Y-47257629D01*
X10460800Y-47152171D01*
X10460799Y-47152170D01*
X10433508Y-47050317D01*
X10433507Y-47050313D01*
X10380780Y-46958987D01*
X10306213Y-46884420D01*
X10258339Y-46856780D01*
X10214891Y-46831695D01*
X10214882Y-46831691D01*
X10113029Y-46804400D01*
X10113027Y-46804400D01*
X10007573Y-46804400D01*
X10007571Y-46804400D01*
X9905717Y-46831691D01*
X9905708Y-46831695D01*
X9814386Y-46884420D01*
X9739820Y-46958986D01*
X9687095Y-47050308D01*
X9687091Y-47050317D01*
X9659800Y-47152170D01*
X6053326Y-47152170D01*
X6030107Y-47120212D01*
X6030106Y-47120211D01*
X6030104Y-47120208D01*
X5879792Y-46969896D01*
X5813146Y-46921475D01*
X5707816Y-46844948D01*
X5518406Y-46748440D01*
X5316253Y-46682756D01*
X5316240Y-46682753D01*
X5106289Y-46649500D01*
X5106287Y-46649500D01*
X4893713Y-46649500D01*
X4893711Y-46649500D01*
X4683759Y-46682753D01*
X4683746Y-46682756D01*
X4481593Y-46748440D01*
X4292183Y-46844948D01*
X4135224Y-46958986D01*
X4120208Y-46969896D01*
X3969896Y-47120208D01*
X3969893Y-47120211D01*
X3969893Y-47120212D01*
X3844948Y-47292183D01*
X3748440Y-47481593D01*
X3682756Y-47683746D01*
X3682753Y-47683759D01*
X3649500Y-47893711D01*
X500500Y-47893711D01*
X500500Y-45424270D01*
X8005900Y-45424270D01*
X8005900Y-45529729D01*
X8033191Y-45631582D01*
X8033195Y-45631591D01*
X8039252Y-45642082D01*
X8085920Y-45722913D01*
X8160487Y-45797480D01*
X8251813Y-45850207D01*
X8353670Y-45877499D01*
X8353671Y-45877500D01*
X8353673Y-45877500D01*
X8459129Y-45877500D01*
X8459129Y-45877499D01*
X8560987Y-45850207D01*
X8652313Y-45797480D01*
X8700619Y-45749174D01*
X8752945Y-45727500D01*
X22659155Y-45727500D01*
X22711481Y-45749174D01*
X22733155Y-45801500D01*
X22711481Y-45853826D01*
X22668320Y-45896986D01*
X22615595Y-45988308D01*
X22615591Y-45988317D01*
X22588300Y-46090170D01*
X22588300Y-46195629D01*
X22615591Y-46297482D01*
X22615595Y-46297491D01*
X22633573Y-46328629D01*
X22668320Y-46388813D01*
X22742887Y-46463380D01*
X22834213Y-46516107D01*
X22936070Y-46543399D01*
X22936071Y-46543400D01*
X22936073Y-46543400D01*
X23041529Y-46543400D01*
X23041529Y-46543399D01*
X23143387Y-46516107D01*
X23234713Y-46463380D01*
X23309280Y-46388813D01*
X23362007Y-46297487D01*
X23389299Y-46195629D01*
X23389300Y-46195629D01*
X23389300Y-46090171D01*
X23389299Y-46090170D01*
X23369177Y-46015074D01*
X23362007Y-45988313D01*
X23309280Y-45896987D01*
X23266119Y-45853826D01*
X23244445Y-45801500D01*
X23266119Y-45749174D01*
X23318445Y-45727500D01*
X24906287Y-45727500D01*
X24958613Y-45749174D01*
X27968615Y-48759175D01*
X27968618Y-48759179D01*
X27972836Y-48763397D01*
X28043303Y-48833864D01*
X28081438Y-48849659D01*
X28081439Y-48849660D01*
X28135373Y-48872001D01*
X28243640Y-48872001D01*
X28243648Y-48872000D01*
X43722121Y-48872000D01*
X43774447Y-48893674D01*
X43796121Y-48946000D01*
X43786207Y-48983000D01*
X43784021Y-48986785D01*
X43784020Y-48986787D01*
X43779447Y-48994708D01*
X43731295Y-49078108D01*
X43731291Y-49078117D01*
X43704000Y-49179970D01*
X43704000Y-49285429D01*
X43731291Y-49387282D01*
X43731292Y-49387285D01*
X43731293Y-49387287D01*
X43784020Y-49478613D01*
X43858587Y-49553180D01*
X43949913Y-49605907D01*
X44051770Y-49633199D01*
X44051771Y-49633200D01*
X44051773Y-49633200D01*
X44157229Y-49633200D01*
X44157229Y-49633199D01*
X44259087Y-49605907D01*
X44350413Y-49553180D01*
X44424980Y-49478613D01*
X44477707Y-49387287D01*
X44504999Y-49285429D01*
X44505000Y-49285429D01*
X44505000Y-49179971D01*
X44504999Y-49179970D01*
X44477708Y-49078117D01*
X44477707Y-49078113D01*
X44424980Y-48986787D01*
X44424978Y-48986785D01*
X44422793Y-48983000D01*
X44415400Y-48926848D01*
X44449879Y-48881914D01*
X44486879Y-48872000D01*
X45323655Y-48872000D01*
X45375981Y-48893674D01*
X45424287Y-48941980D01*
X45515613Y-48994707D01*
X45617470Y-49021999D01*
X45617471Y-49022000D01*
X45617473Y-49022000D01*
X45722929Y-49022000D01*
X45722929Y-49021999D01*
X45824787Y-48994707D01*
X45916113Y-48941980D01*
X45990680Y-48867413D01*
X46043407Y-48776087D01*
X46070699Y-48674229D01*
X46070700Y-48674229D01*
X46070700Y-48568771D01*
X46070699Y-48568770D01*
X46049439Y-48489427D01*
X46043407Y-48466913D01*
X46032643Y-48448270D01*
X53861500Y-48448270D01*
X53861500Y-48553729D01*
X53888791Y-48655582D01*
X53888792Y-48655585D01*
X53888793Y-48655587D01*
X53941520Y-48746913D01*
X54016087Y-48821480D01*
X54107413Y-48874207D01*
X54209270Y-48901499D01*
X54209271Y-48901500D01*
X54209273Y-48901500D01*
X54314729Y-48901500D01*
X54314729Y-48901499D01*
X54416587Y-48874207D01*
X54507913Y-48821480D01*
X54582480Y-48746913D01*
X54635207Y-48655587D01*
X54662499Y-48553729D01*
X54662500Y-48553729D01*
X54662500Y-48448271D01*
X54662499Y-48448270D01*
X54645270Y-48383971D01*
X54635207Y-48346413D01*
X54582480Y-48255087D01*
X54507913Y-48180520D01*
X54464603Y-48155515D01*
X54416591Y-48127795D01*
X54416582Y-48127791D01*
X54314729Y-48100500D01*
X54314727Y-48100500D01*
X54209273Y-48100500D01*
X54209271Y-48100500D01*
X54107417Y-48127791D01*
X54107408Y-48127795D01*
X54016086Y-48180520D01*
X53941520Y-48255086D01*
X53888795Y-48346408D01*
X53888791Y-48346417D01*
X53861500Y-48448270D01*
X46032643Y-48448270D01*
X45990680Y-48375587D01*
X45916113Y-48301020D01*
X45883365Y-48282113D01*
X45824791Y-48248295D01*
X45824782Y-48248291D01*
X45722929Y-48221000D01*
X45722927Y-48221000D01*
X45617473Y-48221000D01*
X45617471Y-48221000D01*
X45515617Y-48248291D01*
X45515608Y-48248295D01*
X45424286Y-48301020D01*
X45375981Y-48349326D01*
X45323655Y-48371000D01*
X28319612Y-48371000D01*
X28267286Y-48349326D01*
X27529209Y-47611249D01*
X27481730Y-47563770D01*
X29879500Y-47563770D01*
X29879500Y-47669229D01*
X29906791Y-47771082D01*
X29906795Y-47771091D01*
X29928324Y-47808380D01*
X29959520Y-47862413D01*
X30034087Y-47936980D01*
X30125413Y-47989707D01*
X30227270Y-48016999D01*
X30227271Y-48017000D01*
X30227273Y-48017000D01*
X30332729Y-48017000D01*
X30332729Y-48016999D01*
X30434587Y-47989707D01*
X30525913Y-47936980D01*
X30600480Y-47862413D01*
X30650717Y-47775398D01*
X30695649Y-47740922D01*
X30714802Y-47738400D01*
X42078455Y-47738400D01*
X42130781Y-47760074D01*
X42179087Y-47808380D01*
X42270413Y-47861107D01*
X42372270Y-47888399D01*
X42372271Y-47888400D01*
X42372273Y-47888400D01*
X42477729Y-47888400D01*
X42477729Y-47888399D01*
X42579587Y-47861107D01*
X42670913Y-47808380D01*
X42745480Y-47733813D01*
X42798207Y-47642487D01*
X42804438Y-47619231D01*
X56534500Y-47619231D01*
X56534500Y-47770768D01*
X56573717Y-47917130D01*
X56573721Y-47917139D01*
X56648234Y-48046199D01*
X56649485Y-48048365D01*
X56756635Y-48155515D01*
X56887865Y-48231281D01*
X57034231Y-48270499D01*
X57034232Y-48270500D01*
X57034234Y-48270500D01*
X57185768Y-48270500D01*
X57185768Y-48270499D01*
X57332135Y-48231281D01*
X57463365Y-48155515D01*
X57570515Y-48048365D01*
X57646281Y-47917135D01*
X57685499Y-47770768D01*
X57685500Y-47770768D01*
X57685500Y-47619232D01*
X57685499Y-47619231D01*
X62314500Y-47619231D01*
X62314500Y-47770768D01*
X62353717Y-47917130D01*
X62353721Y-47917139D01*
X62428234Y-48046199D01*
X62429485Y-48048365D01*
X62536635Y-48155515D01*
X62667865Y-48231281D01*
X62814231Y-48270499D01*
X62814232Y-48270500D01*
X62814234Y-48270500D01*
X62965768Y-48270500D01*
X62965768Y-48270499D01*
X63112135Y-48231281D01*
X63243365Y-48155515D01*
X63350515Y-48048365D01*
X63426281Y-47917135D01*
X63432558Y-47893711D01*
X73649500Y-47893711D01*
X73649500Y-48106288D01*
X73682753Y-48316240D01*
X73682756Y-48316253D01*
X73748440Y-48518406D01*
X73844948Y-48707816D01*
X73894550Y-48776087D01*
X73969896Y-48879792D01*
X74120208Y-49030104D01*
X74186293Y-49078117D01*
X74292183Y-49155051D01*
X74341090Y-49179970D01*
X74481588Y-49251557D01*
X74481590Y-49251557D01*
X74481593Y-49251559D01*
X74683746Y-49317243D01*
X74683752Y-49317244D01*
X74683757Y-49317246D01*
X74788735Y-49333873D01*
X74893711Y-49350500D01*
X74893713Y-49350500D01*
X75106289Y-49350500D01*
X75190269Y-49337198D01*
X75316243Y-49317246D01*
X75316250Y-49317243D01*
X75316253Y-49317243D01*
X75518406Y-49251559D01*
X75518406Y-49251558D01*
X75518412Y-49251557D01*
X75707816Y-49155051D01*
X75879792Y-49030104D01*
X76030104Y-48879792D01*
X76155051Y-48707816D01*
X76251557Y-48518412D01*
X76317246Y-48316243D01*
X76342703Y-48155515D01*
X76350500Y-48106288D01*
X76350500Y-47893711D01*
X76331027Y-47770766D01*
X76317246Y-47683757D01*
X76317244Y-47683752D01*
X76317243Y-47683746D01*
X76251559Y-47481593D01*
X76251557Y-47481590D01*
X76251557Y-47481588D01*
X76180248Y-47341635D01*
X76155051Y-47292183D01*
X76099451Y-47215656D01*
X76030104Y-47120208D01*
X75879792Y-46969896D01*
X75813146Y-46921475D01*
X75707816Y-46844948D01*
X75518406Y-46748440D01*
X75316253Y-46682756D01*
X75316240Y-46682753D01*
X75106289Y-46649500D01*
X75106287Y-46649500D01*
X74893713Y-46649500D01*
X74893711Y-46649500D01*
X74683759Y-46682753D01*
X74683746Y-46682756D01*
X74481593Y-46748440D01*
X74292183Y-46844948D01*
X74135224Y-46958986D01*
X74120208Y-46969896D01*
X73969896Y-47120208D01*
X73969893Y-47120211D01*
X73969893Y-47120212D01*
X73844948Y-47292183D01*
X73748440Y-47481593D01*
X73682756Y-47683746D01*
X73682753Y-47683759D01*
X73649500Y-47893711D01*
X63432558Y-47893711D01*
X63441294Y-47861107D01*
X63464258Y-47775400D01*
X63465499Y-47770768D01*
X63465500Y-47770768D01*
X63465500Y-47619232D01*
X63465499Y-47619231D01*
X63458462Y-47592970D01*
X63426281Y-47472865D01*
X63350515Y-47341635D01*
X63243365Y-47234485D01*
X63243362Y-47234483D01*
X63112139Y-47158721D01*
X63112130Y-47158717D01*
X62965768Y-47119500D01*
X62965766Y-47119500D01*
X62814234Y-47119500D01*
X62814232Y-47119500D01*
X62667869Y-47158717D01*
X62667860Y-47158721D01*
X62536637Y-47234483D01*
X62429483Y-47341637D01*
X62353721Y-47472860D01*
X62353717Y-47472869D01*
X62314500Y-47619231D01*
X57685499Y-47619231D01*
X57678462Y-47592970D01*
X57646281Y-47472865D01*
X57570515Y-47341635D01*
X57463365Y-47234485D01*
X57463362Y-47234483D01*
X57332139Y-47158721D01*
X57332130Y-47158717D01*
X57185768Y-47119500D01*
X57185766Y-47119500D01*
X57034234Y-47119500D01*
X57034232Y-47119500D01*
X56887869Y-47158717D01*
X56887860Y-47158721D01*
X56756637Y-47234483D01*
X56649483Y-47341637D01*
X56573721Y-47472860D01*
X56573717Y-47472869D01*
X56534500Y-47619231D01*
X42804438Y-47619231D01*
X42825499Y-47540629D01*
X42825500Y-47540629D01*
X42825500Y-47435171D01*
X42825499Y-47435170D01*
X42798208Y-47333317D01*
X42798207Y-47333313D01*
X42745480Y-47241987D01*
X42670913Y-47167420D01*
X42655839Y-47158717D01*
X42579591Y-47114695D01*
X42579582Y-47114691D01*
X42477729Y-47087400D01*
X42477727Y-47087400D01*
X42372273Y-47087400D01*
X42372271Y-47087400D01*
X42270417Y-47114691D01*
X42270408Y-47114695D01*
X42179086Y-47167420D01*
X42130781Y-47215726D01*
X42078455Y-47237400D01*
X30422337Y-47237400D01*
X30403185Y-47234879D01*
X30401707Y-47234483D01*
X30332727Y-47216000D01*
X30227273Y-47216000D01*
X30227271Y-47216000D01*
X30125417Y-47243291D01*
X30125408Y-47243295D01*
X30034086Y-47296020D01*
X29959520Y-47370586D01*
X29906795Y-47461908D01*
X29906791Y-47461917D01*
X29879500Y-47563770D01*
X27481730Y-47563770D01*
X26726434Y-46808474D01*
X25342231Y-45424270D01*
X32309900Y-45424270D01*
X32309900Y-45529729D01*
X32337191Y-45631582D01*
X32337195Y-45631591D01*
X32343252Y-45642082D01*
X32389920Y-45722913D01*
X32464487Y-45797480D01*
X32555813Y-45850207D01*
X32657670Y-45877499D01*
X32657671Y-45877500D01*
X32657673Y-45877500D01*
X32763129Y-45877500D01*
X32763129Y-45877499D01*
X32864987Y-45850207D01*
X32956313Y-45797480D01*
X33030880Y-45722913D01*
X33083607Y-45631587D01*
X33104759Y-45552645D01*
X33139237Y-45507714D01*
X33176237Y-45497800D01*
X35252987Y-45497800D01*
X35305313Y-45519474D01*
X35326987Y-45571800D01*
X35305313Y-45624126D01*
X35208713Y-45720726D01*
X35156387Y-45742400D01*
X35088071Y-45742400D01*
X34986217Y-45769691D01*
X34986208Y-45769695D01*
X34894886Y-45822420D01*
X34820320Y-45896986D01*
X34767595Y-45988308D01*
X34767591Y-45988317D01*
X34740300Y-46090170D01*
X34740300Y-46195629D01*
X34767591Y-46297482D01*
X34767595Y-46297491D01*
X34785573Y-46328629D01*
X34820320Y-46388813D01*
X34894887Y-46463380D01*
X34986213Y-46516107D01*
X35088070Y-46543399D01*
X35088071Y-46543400D01*
X35088073Y-46543400D01*
X35193529Y-46543400D01*
X35193529Y-46543399D01*
X35295387Y-46516107D01*
X35386713Y-46463380D01*
X35461280Y-46388813D01*
X35514007Y-46297487D01*
X35541299Y-46195629D01*
X35541300Y-46195629D01*
X35541300Y-46127312D01*
X35562974Y-46074986D01*
X35766786Y-45871174D01*
X35819112Y-45849500D01*
X38782542Y-45849500D01*
X38834868Y-45871174D01*
X38856542Y-45923500D01*
X38854020Y-45942653D01*
X38825800Y-46047970D01*
X38825800Y-46153429D01*
X38853091Y-46255282D01*
X38853095Y-46255291D01*
X38877454Y-46297482D01*
X38905820Y-46346613D01*
X38980387Y-46421180D01*
X39071713Y-46473907D01*
X39173570Y-46501199D01*
X39173571Y-46501200D01*
X39173573Y-46501200D01*
X39279029Y-46501200D01*
X39279029Y-46501199D01*
X39380887Y-46473907D01*
X39472213Y-46421180D01*
X39546780Y-46346613D01*
X39599507Y-46255287D01*
X39626799Y-46153429D01*
X39626800Y-46153429D01*
X39626800Y-46067400D01*
X39648474Y-46015074D01*
X39700800Y-45993400D01*
X45832569Y-45993400D01*
X45884895Y-46015074D01*
X45906569Y-46067400D01*
X45904047Y-46086553D01*
X45903093Y-46090112D01*
X45903093Y-46090113D01*
X45903077Y-46090173D01*
X45875800Y-46191970D01*
X45875800Y-46297429D01*
X45903091Y-46399282D01*
X45903095Y-46399291D01*
X45940096Y-46463379D01*
X45955820Y-46490613D01*
X46030387Y-46565180D01*
X46121713Y-46617907D01*
X46223570Y-46645199D01*
X46223571Y-46645200D01*
X46223573Y-46645200D01*
X46329029Y-46645200D01*
X46329029Y-46645199D01*
X46430887Y-46617907D01*
X46522213Y-46565180D01*
X46596780Y-46490613D01*
X46649507Y-46399287D01*
X46676799Y-46297429D01*
X46676800Y-46297429D01*
X46676800Y-46191971D01*
X46676799Y-46191970D01*
X46649522Y-46090171D01*
X46649507Y-46090113D01*
X46649506Y-46090112D01*
X46648553Y-46086553D01*
X46655945Y-46030400D01*
X46700878Y-45995922D01*
X46720031Y-45993400D01*
X46913972Y-45993400D01*
X46966298Y-46015074D01*
X46987972Y-46067400D01*
X46978057Y-46104401D01*
X46968296Y-46121306D01*
X46968291Y-46121317D01*
X46941000Y-46223170D01*
X46941000Y-46328629D01*
X46968291Y-46430482D01*
X46968295Y-46430491D01*
X47009119Y-46501200D01*
X47021020Y-46521813D01*
X47095587Y-46596380D01*
X47186913Y-46649107D01*
X47288770Y-46676399D01*
X47288771Y-46676400D01*
X47288773Y-46676400D01*
X47394229Y-46676400D01*
X47394229Y-46676399D01*
X47496087Y-46649107D01*
X47587413Y-46596380D01*
X47661980Y-46521813D01*
X47714707Y-46430487D01*
X47741999Y-46328629D01*
X47742000Y-46328629D01*
X47742000Y-46223171D01*
X47741999Y-46223170D01*
X47738952Y-46211800D01*
X47714707Y-46121313D01*
X47704943Y-46104401D01*
X47697549Y-46048248D01*
X47732027Y-46003315D01*
X47769028Y-45993400D01*
X48212787Y-45993400D01*
X48265113Y-46015074D01*
X48718426Y-46468387D01*
X48740100Y-46520713D01*
X48740100Y-46589029D01*
X48767391Y-46690882D01*
X48767395Y-46690891D01*
X48800751Y-46748665D01*
X48820120Y-46782213D01*
X48894687Y-46856780D01*
X48986013Y-46909507D01*
X49087870Y-46936799D01*
X49087871Y-46936800D01*
X49087873Y-46936800D01*
X49193329Y-46936800D01*
X49193329Y-46936799D01*
X49295187Y-46909507D01*
X49386513Y-46856780D01*
X49434819Y-46808474D01*
X49487145Y-46786800D01*
X54608027Y-46786800D01*
X54608028Y-46786800D01*
X54700097Y-46748664D01*
X56013990Y-45434770D01*
X59817200Y-45434770D01*
X59817200Y-45540229D01*
X59844491Y-45642082D01*
X59844492Y-45642085D01*
X59844493Y-45642087D01*
X59897220Y-45733413D01*
X59971787Y-45807980D01*
X60063113Y-45860707D01*
X60164970Y-45887999D01*
X60164971Y-45888000D01*
X60164973Y-45888000D01*
X60270429Y-45888000D01*
X60270429Y-45887999D01*
X60372287Y-45860707D01*
X60463613Y-45807980D01*
X60538180Y-45733413D01*
X60590907Y-45642087D01*
X60618199Y-45540229D01*
X60618200Y-45540229D01*
X60618200Y-45434771D01*
X60618199Y-45434770D01*
X60617321Y-45431495D01*
X60590907Y-45332913D01*
X60538180Y-45241587D01*
X60463613Y-45167020D01*
X60452701Y-45160720D01*
X60372291Y-45114295D01*
X60372282Y-45114291D01*
X60270429Y-45087000D01*
X60270427Y-45087000D01*
X60164973Y-45087000D01*
X60164971Y-45087000D01*
X60063117Y-45114291D01*
X60063108Y-45114295D01*
X59971786Y-45167020D01*
X59897220Y-45241586D01*
X59844495Y-45332908D01*
X59844491Y-45332917D01*
X59817200Y-45434770D01*
X56013990Y-45434770D01*
X56754731Y-44694028D01*
X56807056Y-44672355D01*
X56859382Y-44694029D01*
X56871142Y-44709355D01*
X56901768Y-44762400D01*
X56925620Y-44803713D01*
X57000187Y-44878280D01*
X57091513Y-44931007D01*
X57193370Y-44958299D01*
X57193371Y-44958300D01*
X57193373Y-44958300D01*
X57298829Y-44958300D01*
X57298829Y-44958299D01*
X57400687Y-44931007D01*
X57492013Y-44878280D01*
X57566580Y-44803713D01*
X57619307Y-44712387D01*
X57646599Y-44610529D01*
X57646600Y-44610529D01*
X57646600Y-44505071D01*
X57646599Y-44505070D01*
X57640233Y-44481313D01*
X57619307Y-44403213D01*
X57568955Y-44316000D01*
X57561563Y-44259847D01*
X57596041Y-44214914D01*
X57633041Y-44205000D01*
X66226627Y-44205000D01*
X66226628Y-44205000D01*
X66318697Y-44166864D01*
X69098486Y-41387073D01*
X69150812Y-41365400D01*
X69219129Y-41365400D01*
X69219129Y-41365399D01*
X69320987Y-41338107D01*
X69412313Y-41285380D01*
X69486880Y-41210813D01*
X69539607Y-41119487D01*
X69566899Y-41017629D01*
X69566900Y-41017629D01*
X69566900Y-40912171D01*
X69566899Y-40912170D01*
X69545154Y-40831017D01*
X69539607Y-40810313D01*
X69486880Y-40718987D01*
X69412313Y-40644420D01*
X69371875Y-40621073D01*
X69320991Y-40591695D01*
X69320982Y-40591691D01*
X69219129Y-40564400D01*
X69219127Y-40564400D01*
X69113673Y-40564400D01*
X69113671Y-40564400D01*
X69011817Y-40591691D01*
X69011808Y-40591695D01*
X68920486Y-40644420D01*
X68845920Y-40718986D01*
X68793195Y-40810308D01*
X68793191Y-40810317D01*
X68765900Y-40912170D01*
X68765900Y-40980487D01*
X68744226Y-41032813D01*
X66094713Y-43682326D01*
X66042387Y-43704000D01*
X57198448Y-43704000D01*
X57198440Y-43703999D01*
X57189828Y-43703999D01*
X57090173Y-43703999D01*
X57036239Y-43726338D01*
X57036240Y-43726339D01*
X56998104Y-43742135D01*
X56927635Y-43812604D01*
X55388686Y-45351552D01*
X55336360Y-45373226D01*
X55284034Y-45351552D01*
X55270136Y-45330752D01*
X55270032Y-45330813D01*
X55269110Y-45329217D01*
X55267992Y-45327543D01*
X55267606Y-45326611D01*
X55231825Y-45264637D01*
X55214880Y-45235287D01*
X55140313Y-45160720D01*
X55103039Y-45139200D01*
X55048991Y-45107995D01*
X55048982Y-45107991D01*
X54947129Y-45080700D01*
X54947127Y-45080700D01*
X54878813Y-45080700D01*
X54826487Y-45059026D01*
X53231798Y-43464337D01*
X53231794Y-43464334D01*
X53139728Y-43426200D01*
X42701472Y-43426200D01*
X42609405Y-43464334D01*
X42227813Y-43845926D01*
X42175487Y-43867600D01*
X42159913Y-43867600D01*
X42107587Y-43845926D01*
X42085913Y-43793600D01*
X42107587Y-43741274D01*
X42946087Y-42902774D01*
X42998413Y-42881100D01*
X46984955Y-42881100D01*
X47037281Y-42902774D01*
X47085587Y-42951080D01*
X47176913Y-43003807D01*
X47278770Y-43031099D01*
X47278771Y-43031100D01*
X47278773Y-43031100D01*
X47384229Y-43031100D01*
X47384229Y-43031099D01*
X47486087Y-43003807D01*
X47577413Y-42951080D01*
X47651980Y-42876513D01*
X47704707Y-42785187D01*
X47731999Y-42683329D01*
X47732000Y-42683329D01*
X47732000Y-42577871D01*
X47731999Y-42577870D01*
X47718068Y-42525876D01*
X47714235Y-42511570D01*
X48685500Y-42511570D01*
X48685500Y-42617029D01*
X48712791Y-42718882D01*
X48712795Y-42718891D01*
X48765520Y-42810213D01*
X48840087Y-42884780D01*
X48931413Y-42937507D01*
X49033270Y-42964799D01*
X49033271Y-42964800D01*
X49033273Y-42964800D01*
X49138729Y-42964800D01*
X49138729Y-42964799D01*
X49240587Y-42937507D01*
X49331913Y-42884780D01*
X49406480Y-42810213D01*
X49459207Y-42718887D01*
X49486499Y-42617029D01*
X49486500Y-42617029D01*
X49486500Y-42511571D01*
X49486499Y-42511570D01*
X49459208Y-42409717D01*
X49459207Y-42409713D01*
X49406480Y-42318387D01*
X49331913Y-42243820D01*
X49308149Y-42230100D01*
X49240591Y-42191095D01*
X49240582Y-42191091D01*
X49138729Y-42163800D01*
X49138727Y-42163800D01*
X49033273Y-42163800D01*
X49033271Y-42163800D01*
X48931417Y-42191091D01*
X48931408Y-42191095D01*
X48840086Y-42243820D01*
X48765520Y-42318386D01*
X48712795Y-42409708D01*
X48712791Y-42409717D01*
X48685500Y-42511570D01*
X47714235Y-42511570D01*
X47704708Y-42476017D01*
X47704707Y-42476013D01*
X47651980Y-42384687D01*
X47577413Y-42310120D01*
X47486091Y-42257395D01*
X47486082Y-42257391D01*
X47384229Y-42230100D01*
X47384227Y-42230100D01*
X47278773Y-42230100D01*
X47278771Y-42230100D01*
X47176917Y-42257391D01*
X47176908Y-42257395D01*
X47085586Y-42310120D01*
X47037281Y-42358426D01*
X46984955Y-42380100D01*
X42814172Y-42380100D01*
X42722105Y-42418234D01*
X41660713Y-43479626D01*
X41608387Y-43501300D01*
X41540071Y-43501300D01*
X41438217Y-43528591D01*
X41438208Y-43528595D01*
X41346886Y-43581320D01*
X41272319Y-43655887D01*
X41217841Y-43750244D01*
X41172908Y-43784722D01*
X41116755Y-43777328D01*
X41101430Y-43765569D01*
X38109098Y-40773237D01*
X38109094Y-40773234D01*
X38017028Y-40735100D01*
X36137045Y-40735100D01*
X36084719Y-40713426D01*
X36036413Y-40665120D01*
X35945091Y-40612395D01*
X35945082Y-40612391D01*
X35843229Y-40585100D01*
X35843227Y-40585100D01*
X35737773Y-40585100D01*
X35737771Y-40585100D01*
X35635917Y-40612391D01*
X35635908Y-40612395D01*
X35544586Y-40665120D01*
X35470020Y-40739686D01*
X35417295Y-40831008D01*
X35417291Y-40831017D01*
X35390000Y-40932870D01*
X35390000Y-41038329D01*
X35417291Y-41140182D01*
X35417292Y-41140185D01*
X35417293Y-41140187D01*
X35470020Y-41231513D01*
X35544587Y-41306080D01*
X35635913Y-41358807D01*
X35737770Y-41386099D01*
X35737771Y-41386100D01*
X35737773Y-41386100D01*
X35843229Y-41386100D01*
X35843229Y-41386099D01*
X35945087Y-41358807D01*
X36036413Y-41306080D01*
X36084719Y-41257774D01*
X36137045Y-41236100D01*
X37832787Y-41236100D01*
X37885113Y-41257774D01*
X41574815Y-44947475D01*
X41574818Y-44947479D01*
X41640213Y-45012874D01*
X41661887Y-45065200D01*
X41640213Y-45117526D01*
X41587887Y-45139200D01*
X39856513Y-45139200D01*
X39804187Y-45117526D01*
X39721598Y-45034937D01*
X39721594Y-45034934D01*
X39629528Y-44996800D01*
X38679345Y-44996800D01*
X38627019Y-44975126D01*
X38605345Y-44922800D01*
X38627019Y-44870474D01*
X38638779Y-44858714D01*
X38683080Y-44814413D01*
X38735807Y-44723087D01*
X38763099Y-44621229D01*
X38763100Y-44621229D01*
X38763100Y-44515771D01*
X38763099Y-44515770D01*
X38753866Y-44481313D01*
X38735807Y-44413913D01*
X38683080Y-44322587D01*
X38608513Y-44248020D01*
X38589980Y-44237320D01*
X38517191Y-44195295D01*
X38517182Y-44195291D01*
X38415329Y-44168000D01*
X38415327Y-44168000D01*
X38309873Y-44168000D01*
X38309871Y-44168000D01*
X38208017Y-44195291D01*
X38208008Y-44195295D01*
X38112487Y-44250445D01*
X38111491Y-44248720D01*
X38074130Y-44261400D01*
X37695145Y-44261400D01*
X37642819Y-44239726D01*
X37594513Y-44191420D01*
X37503191Y-44138695D01*
X37503182Y-44138691D01*
X37401329Y-44111400D01*
X37401327Y-44111400D01*
X37295873Y-44111400D01*
X37295871Y-44111400D01*
X37194017Y-44138691D01*
X37194008Y-44138695D01*
X37102686Y-44191420D01*
X37028120Y-44265986D01*
X36975395Y-44357308D01*
X36975391Y-44357317D01*
X36948100Y-44459170D01*
X36948100Y-44564629D01*
X36975391Y-44666482D01*
X36975395Y-44666491D01*
X37008068Y-44723082D01*
X37028120Y-44757813D01*
X37102687Y-44832380D01*
X37148299Y-44858714D01*
X37182778Y-44903647D01*
X37175385Y-44959800D01*
X37130452Y-44994279D01*
X37111299Y-44996800D01*
X32890272Y-44996800D01*
X32798205Y-45034934D01*
X32778313Y-45054826D01*
X32725987Y-45076500D01*
X32657671Y-45076500D01*
X32555817Y-45103791D01*
X32555808Y-45103795D01*
X32464486Y-45156520D01*
X32389920Y-45231086D01*
X32337195Y-45322408D01*
X32337191Y-45322417D01*
X32309900Y-45424270D01*
X25342231Y-45424270D01*
X25182597Y-45264636D01*
X25182596Y-45264635D01*
X25182594Y-45264634D01*
X25090528Y-45226500D01*
X8752945Y-45226500D01*
X8700619Y-45204826D01*
X8652313Y-45156520D01*
X8560991Y-45103795D01*
X8560982Y-45103791D01*
X8459129Y-45076500D01*
X8459127Y-45076500D01*
X8353673Y-45076500D01*
X8353671Y-45076500D01*
X8251817Y-45103791D01*
X8251808Y-45103795D01*
X8160486Y-45156520D01*
X8085920Y-45231086D01*
X8033195Y-45322408D01*
X8033191Y-45322417D01*
X8005900Y-45424270D01*
X500500Y-45424270D01*
X500500Y-42960570D01*
X15297100Y-42960570D01*
X15297100Y-43066029D01*
X15324391Y-43167882D01*
X15324392Y-43167885D01*
X15324393Y-43167887D01*
X15377120Y-43259213D01*
X15451687Y-43333780D01*
X15543013Y-43386507D01*
X15644870Y-43413799D01*
X15644871Y-43413800D01*
X15644873Y-43413800D01*
X15750329Y-43413800D01*
X15750329Y-43413799D01*
X15852187Y-43386507D01*
X15943513Y-43333780D01*
X16018080Y-43259213D01*
X16070807Y-43167887D01*
X16098099Y-43066029D01*
X16098100Y-43066029D01*
X16098100Y-42997713D01*
X16113485Y-42960570D01*
X32309900Y-42960570D01*
X32309900Y-43066029D01*
X32337191Y-43167882D01*
X32337192Y-43167885D01*
X32337193Y-43167887D01*
X32389920Y-43259213D01*
X32464487Y-43333780D01*
X32555813Y-43386507D01*
X32657670Y-43413799D01*
X32657671Y-43413800D01*
X32657673Y-43413800D01*
X32763129Y-43413800D01*
X32763129Y-43413799D01*
X32864987Y-43386507D01*
X32956313Y-43333780D01*
X33030880Y-43259213D01*
X33083607Y-43167887D01*
X33110899Y-43066029D01*
X33110900Y-43066029D01*
X33110900Y-43007470D01*
X37097900Y-43007470D01*
X37097900Y-43112929D01*
X37125191Y-43214782D01*
X37125192Y-43214785D01*
X37125193Y-43214787D01*
X37177920Y-43306113D01*
X37252487Y-43380680D01*
X37343813Y-43433407D01*
X37445670Y-43460699D01*
X37445671Y-43460700D01*
X37445673Y-43460700D01*
X37551129Y-43460700D01*
X37551129Y-43460699D01*
X37652987Y-43433407D01*
X37744313Y-43380680D01*
X37818880Y-43306113D01*
X37871607Y-43214787D01*
X37898899Y-43112929D01*
X37898900Y-43112929D01*
X37898900Y-43007471D01*
X37898899Y-43007470D01*
X37886332Y-42960570D01*
X37871607Y-42905613D01*
X37818880Y-42814287D01*
X37744313Y-42739720D01*
X37708229Y-42718887D01*
X37652991Y-42686995D01*
X37652982Y-42686991D01*
X37551129Y-42659700D01*
X37551127Y-42659700D01*
X37445673Y-42659700D01*
X37445671Y-42659700D01*
X37343817Y-42686991D01*
X37343808Y-42686995D01*
X37252486Y-42739720D01*
X37177920Y-42814286D01*
X37125195Y-42905608D01*
X37125191Y-42905617D01*
X37097900Y-43007470D01*
X33110900Y-43007470D01*
X33110900Y-42960571D01*
X33110899Y-42960570D01*
X33104719Y-42937507D01*
X33083607Y-42858713D01*
X33030880Y-42767387D01*
X32956313Y-42692820D01*
X32939871Y-42683327D01*
X32864991Y-42640095D01*
X32864982Y-42640091D01*
X32763129Y-42612800D01*
X32763127Y-42612800D01*
X32657673Y-42612800D01*
X32657671Y-42612800D01*
X32555817Y-42640091D01*
X32555808Y-42640095D01*
X32464486Y-42692820D01*
X32389920Y-42767386D01*
X32337195Y-42858708D01*
X32337191Y-42858717D01*
X32309900Y-42960570D01*
X16113485Y-42960570D01*
X16119774Y-42945387D01*
X18662387Y-40402774D01*
X18714713Y-40381100D01*
X44051661Y-40381100D01*
X44103987Y-40402774D01*
X44125661Y-40455100D01*
X44115746Y-40492101D01*
X44100096Y-40519206D01*
X44100091Y-40519217D01*
X44072800Y-40621070D01*
X44072800Y-40726529D01*
X44100091Y-40828382D01*
X44100092Y-40828385D01*
X44100093Y-40828387D01*
X44152820Y-40919713D01*
X44227387Y-40994280D01*
X44318713Y-41047007D01*
X44420570Y-41074299D01*
X44420571Y-41074300D01*
X44420573Y-41074300D01*
X44526029Y-41074300D01*
X44526029Y-41074299D01*
X44627887Y-41047007D01*
X44719213Y-40994280D01*
X44793780Y-40919713D01*
X44846507Y-40828387D01*
X44873799Y-40726529D01*
X44873800Y-40726529D01*
X44873800Y-40621071D01*
X44873799Y-40621070D01*
X44868777Y-40602329D01*
X44846507Y-40519213D01*
X44830854Y-40492101D01*
X44823460Y-40435948D01*
X44857938Y-40391015D01*
X44894939Y-40381100D01*
X49521327Y-40381100D01*
X49521328Y-40381100D01*
X49613397Y-40342964D01*
X49644087Y-40312274D01*
X49696413Y-40290600D01*
X72999087Y-40290600D01*
X73051413Y-40312274D01*
X73220826Y-40481686D01*
X73242500Y-40534012D01*
X73242500Y-40602329D01*
X73269791Y-40704182D01*
X73269795Y-40704191D01*
X73290288Y-40739686D01*
X73322520Y-40795513D01*
X73397087Y-40870080D01*
X73488413Y-40922807D01*
X73590270Y-40950099D01*
X73590271Y-40950100D01*
X73590273Y-40950100D01*
X73695729Y-40950100D01*
X73695729Y-40950099D01*
X73797587Y-40922807D01*
X73888913Y-40870080D01*
X73963480Y-40795513D01*
X74016207Y-40704187D01*
X74043499Y-40602329D01*
X74043500Y-40602329D01*
X74043500Y-40496871D01*
X74043499Y-40496870D01*
X74018286Y-40402774D01*
X74016207Y-40395013D01*
X73963480Y-40303687D01*
X73888913Y-40229120D01*
X73797591Y-40176395D01*
X73797582Y-40176391D01*
X73695729Y-40149100D01*
X73695727Y-40149100D01*
X73627412Y-40149100D01*
X73575086Y-40127426D01*
X73275397Y-39827736D01*
X73275394Y-39827734D01*
X73183328Y-39789600D01*
X49611827Y-39789600D01*
X49512172Y-39789600D01*
X49420105Y-39827734D01*
X49389413Y-39858426D01*
X49337087Y-39880100D01*
X38451372Y-39880100D01*
X38399046Y-39858426D01*
X38377372Y-39806100D01*
X38399046Y-39753774D01*
X38407746Y-39747097D01*
X38407466Y-39746732D01*
X38411311Y-39743781D01*
X38411310Y-39743781D01*
X38411313Y-39743780D01*
X38485880Y-39669213D01*
X38538607Y-39577887D01*
X38565899Y-39476029D01*
X38565900Y-39476029D01*
X38565900Y-39370571D01*
X38565899Y-39370570D01*
X38560521Y-39350500D01*
X38538607Y-39268713D01*
X38485880Y-39177387D01*
X38411313Y-39102820D01*
X38319991Y-39050095D01*
X38319982Y-39050091D01*
X38218129Y-39022800D01*
X38218127Y-39022800D01*
X38112673Y-39022800D01*
X38112671Y-39022800D01*
X38010817Y-39050091D01*
X38010808Y-39050095D01*
X37919486Y-39102820D01*
X37844920Y-39177386D01*
X37792195Y-39268708D01*
X37792191Y-39268717D01*
X37764900Y-39370570D01*
X37764900Y-39476029D01*
X37792191Y-39577882D01*
X37792195Y-39577891D01*
X37844920Y-39669213D01*
X37919488Y-39743781D01*
X37923334Y-39746732D01*
X37921693Y-39748870D01*
X37950910Y-39786959D01*
X37943508Y-39843110D01*
X37898569Y-39877582D01*
X37879428Y-39880100D01*
X18530472Y-39880100D01*
X18438405Y-39918234D01*
X15765513Y-42591126D01*
X15713187Y-42612800D01*
X15644871Y-42612800D01*
X15543017Y-42640091D01*
X15543008Y-42640095D01*
X15451686Y-42692820D01*
X15377120Y-42767386D01*
X15324395Y-42858708D01*
X15324391Y-42858717D01*
X15297100Y-42960570D01*
X500500Y-42960570D01*
X500500Y-30219570D01*
X3049000Y-30219570D01*
X3049000Y-30325029D01*
X3076291Y-30426882D01*
X3076295Y-30426891D01*
X3085348Y-30442571D01*
X3129020Y-30518213D01*
X3203587Y-30592780D01*
X3294913Y-30645507D01*
X3396770Y-30672799D01*
X3396771Y-30672800D01*
X3396773Y-30672800D01*
X3465087Y-30672800D01*
X3517413Y-30694474D01*
X5387803Y-32564864D01*
X5399307Y-32569629D01*
X5439356Y-32609675D01*
X5439358Y-32666312D01*
X5423316Y-32690322D01*
X5185813Y-32927826D01*
X5133487Y-32949500D01*
X5065171Y-32949500D01*
X4963317Y-32976791D01*
X4963308Y-32976795D01*
X4871986Y-33029520D01*
X4797420Y-33104086D01*
X4744695Y-33195408D01*
X4744691Y-33195417D01*
X4717400Y-33297270D01*
X4717400Y-33402729D01*
X4744691Y-33504582D01*
X4744695Y-33504591D01*
X4776376Y-33559464D01*
X4797420Y-33595913D01*
X4871987Y-33670480D01*
X4963313Y-33723207D01*
X5065170Y-33750499D01*
X5065171Y-33750500D01*
X5065173Y-33750500D01*
X5170629Y-33750500D01*
X5170629Y-33750499D01*
X5272487Y-33723207D01*
X5363813Y-33670480D01*
X5438380Y-33595913D01*
X5491107Y-33504587D01*
X5518399Y-33402729D01*
X5518400Y-33402729D01*
X5518400Y-33334412D01*
X5540074Y-33282086D01*
X5720586Y-33101574D01*
X5772912Y-33079900D01*
X8524738Y-33079900D01*
X8577064Y-33101574D01*
X8598738Y-33153900D01*
X8589609Y-33187969D01*
X8589751Y-33188028D01*
X8589306Y-33189100D01*
X8588825Y-33190899D01*
X8587894Y-33192510D01*
X8587891Y-33192517D01*
X8560600Y-33294370D01*
X8560600Y-33399829D01*
X8587891Y-33501682D01*
X8587895Y-33501691D01*
X8621251Y-33559465D01*
X8640620Y-33593013D01*
X8715187Y-33667580D01*
X8806513Y-33720307D01*
X8908370Y-33747599D01*
X8908371Y-33747600D01*
X8908373Y-33747600D01*
X9013829Y-33747600D01*
X9013829Y-33747599D01*
X9115687Y-33720307D01*
X9207013Y-33667580D01*
X9255319Y-33619274D01*
X9307645Y-33597600D01*
X11848627Y-33597600D01*
X11848628Y-33597600D01*
X11940697Y-33559464D01*
X12119791Y-33380370D01*
X15111600Y-33380370D01*
X15111600Y-33485829D01*
X15138891Y-33587682D01*
X15138895Y-33587691D01*
X15171455Y-33644087D01*
X15191620Y-33679013D01*
X15266187Y-33753580D01*
X15357513Y-33806307D01*
X15459370Y-33833599D01*
X15459371Y-33833600D01*
X15459373Y-33833600D01*
X15527687Y-33833600D01*
X15580013Y-33855274D01*
X20046802Y-38322063D01*
X20046805Y-38322065D01*
X20079733Y-38335704D01*
X20138872Y-38360200D01*
X37010493Y-38360200D01*
X37062819Y-38381874D01*
X37084493Y-38434200D01*
X37074579Y-38471198D01*
X37067819Y-38482908D01*
X37041895Y-38527809D01*
X37041891Y-38527817D01*
X37014600Y-38629670D01*
X37014600Y-38735129D01*
X37041891Y-38836982D01*
X37041892Y-38836985D01*
X37041893Y-38836987D01*
X37094620Y-38928313D01*
X37169187Y-39002880D01*
X37260513Y-39055607D01*
X37362370Y-39082899D01*
X37362371Y-39082900D01*
X37362373Y-39082900D01*
X37467829Y-39082900D01*
X37467829Y-39082899D01*
X37569687Y-39055607D01*
X37661013Y-39002880D01*
X37735580Y-38928313D01*
X37788307Y-38836987D01*
X37815599Y-38735129D01*
X37815600Y-38735129D01*
X37815600Y-38629671D01*
X37815599Y-38629670D01*
X37788308Y-38527817D01*
X37788307Y-38527813D01*
X37755620Y-38471198D01*
X37748228Y-38415048D01*
X37782707Y-38370114D01*
X37819707Y-38360200D01*
X38479855Y-38360200D01*
X38532181Y-38381874D01*
X38580487Y-38430180D01*
X38671813Y-38482907D01*
X38773670Y-38510199D01*
X38773671Y-38510200D01*
X38773673Y-38510200D01*
X38879129Y-38510200D01*
X38879129Y-38510199D01*
X38980987Y-38482907D01*
X39072313Y-38430180D01*
X39146880Y-38355613D01*
X39199607Y-38264287D01*
X39226899Y-38162429D01*
X39226900Y-38162429D01*
X39226900Y-38066566D01*
X39226900Y-38056973D01*
X39199607Y-37955113D01*
X39146880Y-37863787D01*
X39072313Y-37789220D01*
X39010593Y-37753586D01*
X38976114Y-37708653D01*
X38983507Y-37652500D01*
X39028440Y-37618021D01*
X39047593Y-37615500D01*
X39375911Y-37615500D01*
X39428237Y-37637174D01*
X39449911Y-37689500D01*
X39439997Y-37726500D01*
X39392995Y-37807908D01*
X39392991Y-37807917D01*
X39365700Y-37909770D01*
X39365700Y-37909773D01*
X39365700Y-38015227D01*
X39392993Y-38117087D01*
X39445720Y-38208413D01*
X39520287Y-38282980D01*
X39611613Y-38335707D01*
X39713470Y-38362999D01*
X39713471Y-38363000D01*
X39713473Y-38363000D01*
X39818929Y-38363000D01*
X39818929Y-38362999D01*
X39920787Y-38335707D01*
X40012113Y-38282980D01*
X40086680Y-38208413D01*
X40139407Y-38117087D01*
X40139407Y-38117086D01*
X40141267Y-38113865D01*
X40186200Y-38079387D01*
X40242353Y-38086779D01*
X40257679Y-38098539D01*
X40372115Y-38212975D01*
X40372118Y-38212979D01*
X40446802Y-38287663D01*
X40446805Y-38287665D01*
X40492837Y-38306732D01*
X40538872Y-38325800D01*
X40638528Y-38325800D01*
X44978955Y-38325800D01*
X45031281Y-38347474D01*
X45079587Y-38395780D01*
X45170913Y-38448507D01*
X45272770Y-38475799D01*
X45272771Y-38475800D01*
X45272773Y-38475800D01*
X45378229Y-38475800D01*
X45378229Y-38475799D01*
X45480087Y-38448507D01*
X45571413Y-38395780D01*
X45645980Y-38321213D01*
X45698707Y-38229887D01*
X45725999Y-38128029D01*
X45726000Y-38128029D01*
X45726000Y-38022571D01*
X45725999Y-38022570D01*
X45724031Y-38015227D01*
X45698707Y-37920713D01*
X45645980Y-37829387D01*
X45571413Y-37754820D01*
X45527407Y-37729413D01*
X45480091Y-37702095D01*
X45480082Y-37702091D01*
X45378229Y-37674800D01*
X45378227Y-37674800D01*
X45272773Y-37674800D01*
X45272771Y-37674800D01*
X45170917Y-37702091D01*
X45170908Y-37702095D01*
X45079586Y-37754820D01*
X45031281Y-37803126D01*
X44978955Y-37824800D01*
X41099880Y-37824800D01*
X41047554Y-37803126D01*
X41025880Y-37750800D01*
X41035794Y-37713800D01*
X41042554Y-37702091D01*
X41079507Y-37638087D01*
X41106799Y-37536229D01*
X41106800Y-37536229D01*
X41106800Y-37430771D01*
X41106799Y-37430770D01*
X41079508Y-37328917D01*
X41079507Y-37328913D01*
X41026780Y-37237587D01*
X40952213Y-37163020D01*
X40934224Y-37152634D01*
X40860891Y-37110295D01*
X40860882Y-37110291D01*
X40759029Y-37083000D01*
X40759027Y-37083000D01*
X40653573Y-37083000D01*
X40653571Y-37083000D01*
X40551717Y-37110291D01*
X40551708Y-37110295D01*
X40460386Y-37163020D01*
X40385819Y-37237587D01*
X40331341Y-37331944D01*
X40286408Y-37366422D01*
X40230255Y-37359028D01*
X40214930Y-37347269D01*
X40020298Y-37152637D01*
X40020294Y-37152634D01*
X39928228Y-37114500D01*
X36579412Y-37114500D01*
X36527086Y-37092826D01*
X35984473Y-36550212D01*
X35962799Y-36497886D01*
X35968432Y-36469568D01*
X36042049Y-36291839D01*
X36042051Y-36291835D01*
X36080500Y-36098541D01*
X36080500Y-35901459D01*
X36042051Y-35708165D01*
X35966632Y-35526086D01*
X35857139Y-35362218D01*
X35717782Y-35222861D01*
X35553914Y-35113368D01*
X35553915Y-35113368D01*
X35553913Y-35113367D01*
X35371839Y-35037950D01*
X35371829Y-35037947D01*
X35222444Y-35008233D01*
X35178541Y-34999500D01*
X34981459Y-34999500D01*
X34937556Y-35008233D01*
X34788170Y-35037947D01*
X34788160Y-35037950D01*
X34606086Y-35113367D01*
X34442218Y-35222860D01*
X34442217Y-35222862D01*
X34302862Y-35362217D01*
X34302860Y-35362218D01*
X34193367Y-35526086D01*
X34117950Y-35708160D01*
X34117947Y-35708170D01*
X34079500Y-35901460D01*
X34079500Y-36098539D01*
X34117947Y-36291829D01*
X34117950Y-36291839D01*
X34193367Y-36473913D01*
X34244349Y-36550212D01*
X34302861Y-36637782D01*
X34442218Y-36777139D01*
X34606086Y-36886632D01*
X34788165Y-36962051D01*
X34981459Y-37000500D01*
X34981461Y-37000500D01*
X35178539Y-37000500D01*
X35178541Y-37000500D01*
X35371835Y-36962051D01*
X35549568Y-36888432D01*
X35606205Y-36888432D01*
X35630212Y-36904473D01*
X36228415Y-37502675D01*
X36228418Y-37502679D01*
X36232636Y-37506897D01*
X36303103Y-37577364D01*
X36341238Y-37593159D01*
X36341239Y-37593160D01*
X36395173Y-37615501D01*
X36503440Y-37615501D01*
X36503448Y-37615500D01*
X38605207Y-37615500D01*
X38657533Y-37637174D01*
X38679207Y-37689500D01*
X38657533Y-37741826D01*
X38642207Y-37753586D01*
X38580486Y-37789220D01*
X38532181Y-37837526D01*
X38479855Y-37859200D01*
X20323113Y-37859200D01*
X20270787Y-37837526D01*
X17568441Y-35135180D01*
X28999500Y-35135180D01*
X28999500Y-36864820D01*
X29008233Y-36908722D01*
X29041496Y-36958504D01*
X29091278Y-36991767D01*
X29135180Y-37000500D01*
X29135181Y-37000500D01*
X30864819Y-37000500D01*
X30864820Y-37000500D01*
X30908722Y-36991767D01*
X30958504Y-36958504D01*
X30991767Y-36908722D01*
X31000500Y-36864820D01*
X31000500Y-35901460D01*
X31539500Y-35901460D01*
X31539500Y-36098539D01*
X31577947Y-36291829D01*
X31577950Y-36291839D01*
X31653367Y-36473913D01*
X31704349Y-36550212D01*
X31762861Y-36637782D01*
X31902218Y-36777139D01*
X32066086Y-36886632D01*
X32248165Y-36962051D01*
X32441459Y-37000500D01*
X32441461Y-37000500D01*
X32638539Y-37000500D01*
X32638541Y-37000500D01*
X32831835Y-36962051D01*
X33013914Y-36886632D01*
X33177782Y-36777139D01*
X33317139Y-36637782D01*
X33426632Y-36473914D01*
X33502051Y-36291835D01*
X33540500Y-36098541D01*
X33540500Y-35901459D01*
X33502051Y-35708165D01*
X33426632Y-35526086D01*
X33317139Y-35362218D01*
X33177782Y-35222861D01*
X33013914Y-35113368D01*
X33013915Y-35113368D01*
X33013913Y-35113367D01*
X32831839Y-35037950D01*
X32831829Y-35037947D01*
X32682444Y-35008233D01*
X32638541Y-34999500D01*
X32441459Y-34999500D01*
X32397556Y-35008233D01*
X32248170Y-35037947D01*
X32248160Y-35037950D01*
X32066086Y-35113367D01*
X31902218Y-35222860D01*
X31902217Y-35222862D01*
X31762862Y-35362217D01*
X31762860Y-35362218D01*
X31653367Y-35526086D01*
X31577950Y-35708160D01*
X31577947Y-35708170D01*
X31539500Y-35901460D01*
X31000500Y-35901460D01*
X31000500Y-35135180D01*
X30991767Y-35091278D01*
X30958504Y-35041496D01*
X30953195Y-35037949D01*
X30908722Y-35008233D01*
X30864820Y-34999500D01*
X29135180Y-34999500D01*
X29113229Y-35003866D01*
X29091277Y-35008233D01*
X29041496Y-35041495D01*
X29041495Y-35041496D01*
X29008233Y-35091277D01*
X29008233Y-35091278D01*
X28999500Y-35135180D01*
X17568441Y-35135180D01*
X15934274Y-33501013D01*
X15912600Y-33448687D01*
X15912600Y-33436770D01*
X35224100Y-33436770D01*
X35224100Y-33542229D01*
X35251391Y-33644082D01*
X35251395Y-33644091D01*
X35272481Y-33680613D01*
X35304120Y-33735413D01*
X35378687Y-33809980D01*
X35470013Y-33862707D01*
X35571870Y-33889999D01*
X35571871Y-33890000D01*
X35571873Y-33890000D01*
X35677329Y-33890000D01*
X35677329Y-33889999D01*
X35779187Y-33862707D01*
X35870513Y-33809980D01*
X35945080Y-33735413D01*
X35997807Y-33644087D01*
X36025099Y-33542229D01*
X36025100Y-33542229D01*
X36025100Y-33436771D01*
X36025099Y-33436770D01*
X36015977Y-33402727D01*
X36010415Y-33381970D01*
X37170700Y-33381970D01*
X37170700Y-33487429D01*
X37197991Y-33589282D01*
X37197995Y-33589291D01*
X37215306Y-33619274D01*
X37250720Y-33680613D01*
X37325287Y-33755180D01*
X37416613Y-33807907D01*
X37518470Y-33835199D01*
X37518471Y-33835200D01*
X37518473Y-33835200D01*
X37623929Y-33835200D01*
X37623929Y-33835199D01*
X37725787Y-33807907D01*
X37817113Y-33755180D01*
X37891680Y-33680613D01*
X37944407Y-33589287D01*
X37971699Y-33487429D01*
X37971700Y-33487429D01*
X37971700Y-33381971D01*
X37971699Y-33381970D01*
X37959091Y-33334917D01*
X37944407Y-33280113D01*
X37891680Y-33188787D01*
X37817113Y-33114220D01*
X37799560Y-33104086D01*
X37725791Y-33061495D01*
X37725782Y-33061491D01*
X37623929Y-33034200D01*
X37623927Y-33034200D01*
X37518473Y-33034200D01*
X37518471Y-33034200D01*
X37416617Y-33061491D01*
X37416608Y-33061495D01*
X37325286Y-33114220D01*
X37250720Y-33188786D01*
X37197995Y-33280108D01*
X37197991Y-33280117D01*
X37170700Y-33381970D01*
X36010415Y-33381970D01*
X35997807Y-33334913D01*
X35945080Y-33243587D01*
X35870513Y-33169020D01*
X35779191Y-33116295D01*
X35779182Y-33116291D01*
X35677329Y-33089000D01*
X35677327Y-33089000D01*
X35571873Y-33089000D01*
X35571871Y-33089000D01*
X35470017Y-33116291D01*
X35470008Y-33116295D01*
X35378686Y-33169020D01*
X35304120Y-33243586D01*
X35251395Y-33334908D01*
X35251391Y-33334917D01*
X35224100Y-33436770D01*
X15912600Y-33436770D01*
X15912600Y-33380371D01*
X15912599Y-33380370D01*
X15892941Y-33307006D01*
X15885307Y-33278513D01*
X15832580Y-33187187D01*
X15758013Y-33112620D01*
X15738881Y-33101574D01*
X15666691Y-33059895D01*
X15666682Y-33059891D01*
X15564829Y-33032600D01*
X15564827Y-33032600D01*
X15459373Y-33032600D01*
X15459371Y-33032600D01*
X15357517Y-33059891D01*
X15357508Y-33059895D01*
X15266186Y-33112620D01*
X15191620Y-33187186D01*
X15138895Y-33278508D01*
X15138891Y-33278517D01*
X15111600Y-33380370D01*
X12119791Y-33380370D01*
X12802553Y-32697608D01*
X13602886Y-31897274D01*
X13655212Y-31875600D01*
X33063407Y-31875600D01*
X33115733Y-31897274D01*
X33137407Y-31949600D01*
X33128398Y-31983223D01*
X33128651Y-31983328D01*
X33127855Y-31985248D01*
X33127494Y-31986598D01*
X33126796Y-31987806D01*
X33126791Y-31987817D01*
X33099500Y-32089670D01*
X33099500Y-32195129D01*
X33126791Y-32296982D01*
X33126792Y-32296985D01*
X33126793Y-32296987D01*
X33179520Y-32388313D01*
X33254087Y-32462880D01*
X33345413Y-32515607D01*
X33447270Y-32542899D01*
X33447271Y-32542900D01*
X33447273Y-32542900D01*
X33552729Y-32542900D01*
X33552729Y-32542899D01*
X33654587Y-32515607D01*
X33745913Y-32462880D01*
X33820480Y-32388313D01*
X33873207Y-32296987D01*
X33900499Y-32195129D01*
X33900500Y-32195129D01*
X33900500Y-32089671D01*
X33900499Y-32089670D01*
X33897995Y-32080326D01*
X33873207Y-31987813D01*
X33872506Y-31986598D01*
X33872414Y-31985899D01*
X33871349Y-31983328D01*
X33872038Y-31983042D01*
X33865115Y-31930445D01*
X33899595Y-31885513D01*
X33936593Y-31875600D01*
X35010355Y-31875600D01*
X35062681Y-31897274D01*
X35084355Y-31949600D01*
X35062681Y-32001926D01*
X34986120Y-32078486D01*
X34933395Y-32169808D01*
X34933391Y-32169817D01*
X34906100Y-32271670D01*
X34906100Y-32377129D01*
X34933391Y-32478982D01*
X34933395Y-32478991D01*
X34970293Y-32542900D01*
X34986120Y-32570313D01*
X35060687Y-32644880D01*
X35152013Y-32697607D01*
X35253870Y-32724899D01*
X35253871Y-32724900D01*
X35253873Y-32724900D01*
X35359329Y-32724900D01*
X35359329Y-32724899D01*
X35461187Y-32697607D01*
X35552513Y-32644880D01*
X35600819Y-32596574D01*
X35653145Y-32574900D01*
X45989987Y-32574900D01*
X46042313Y-32596574D01*
X50987013Y-37541274D01*
X51008687Y-37593600D01*
X51000621Y-37627195D01*
X50933789Y-37758358D01*
X50933787Y-37758363D01*
X50877831Y-37930580D01*
X50877828Y-37930593D01*
X50849500Y-38109453D01*
X50849500Y-38290546D01*
X50877828Y-38469406D01*
X50877831Y-38469419D01*
X50933787Y-38641635D01*
X51016005Y-38802995D01*
X51016005Y-38802996D01*
X51040701Y-38836987D01*
X51122447Y-38949501D01*
X51250499Y-39077553D01*
X51397006Y-39183996D01*
X51558361Y-39266211D01*
X51558364Y-39266212D01*
X51558363Y-39266212D01*
X51730580Y-39322168D01*
X51730586Y-39322169D01*
X51730591Y-39322171D01*
X51849833Y-39341057D01*
X51909453Y-39350500D01*
X51909454Y-39350500D01*
X52090547Y-39350500D01*
X52135261Y-39343417D01*
X52269409Y-39322171D01*
X52269416Y-39322168D01*
X52269419Y-39322168D01*
X52347601Y-39296765D01*
X52441639Y-39266211D01*
X52602994Y-39183996D01*
X52749501Y-39077553D01*
X52877553Y-38949501D01*
X52983996Y-38802994D01*
X53066211Y-38641639D01*
X53103196Y-38527809D01*
X53122168Y-38469419D01*
X53122168Y-38469416D01*
X53122171Y-38469409D01*
X53150500Y-38290546D01*
X53150500Y-38109454D01*
X53122171Y-37930591D01*
X53122169Y-37930586D01*
X53122168Y-37930580D01*
X53066212Y-37758364D01*
X53066211Y-37758363D01*
X53066211Y-37758361D01*
X52983996Y-37597006D01*
X52981521Y-37593600D01*
X52966386Y-37572767D01*
X52877553Y-37450499D01*
X52749501Y-37322447D01*
X52632701Y-37237587D01*
X52602996Y-37216005D01*
X52441635Y-37133787D01*
X52441636Y-37133787D01*
X52269419Y-37077831D01*
X52269406Y-37077828D01*
X52090547Y-37049500D01*
X52090546Y-37049500D01*
X51909454Y-37049500D01*
X51909453Y-37049500D01*
X51730593Y-37077828D01*
X51730580Y-37077831D01*
X51558363Y-37133787D01*
X51558358Y-37133789D01*
X51427195Y-37200621D01*
X51370733Y-37205065D01*
X51341274Y-37187013D01*
X46479387Y-32325126D01*
X46457713Y-32272800D01*
X46479387Y-32220474D01*
X46531713Y-32198800D01*
X50775500Y-32198800D01*
X50827826Y-32220474D01*
X50849500Y-32272800D01*
X50849500Y-34214820D01*
X50858233Y-34258722D01*
X50886414Y-34300899D01*
X50891496Y-34308504D01*
X50941278Y-34341767D01*
X50985180Y-34350500D01*
X50985181Y-34350500D01*
X53014819Y-34350500D01*
X53014820Y-34350500D01*
X53058722Y-34341767D01*
X53108504Y-34308504D01*
X53141767Y-34258722D01*
X53150500Y-34214820D01*
X53150500Y-32272800D01*
X53172174Y-32220474D01*
X53224500Y-32198800D01*
X57657987Y-32198800D01*
X57710313Y-32220474D01*
X59384203Y-33894364D01*
X59476272Y-33932500D01*
X59575928Y-33932500D01*
X61021855Y-33932500D01*
X61074181Y-33954174D01*
X61122487Y-34002480D01*
X61213813Y-34055207D01*
X61315670Y-34082499D01*
X61315671Y-34082500D01*
X61315673Y-34082500D01*
X61421129Y-34082500D01*
X61421129Y-34082499D01*
X61522987Y-34055207D01*
X61614313Y-34002480D01*
X61688880Y-33927913D01*
X61741607Y-33836587D01*
X61741606Y-33836587D01*
X61743394Y-33833492D01*
X61788327Y-33799013D01*
X61844480Y-33806406D01*
X61859806Y-33818166D01*
X65522921Y-37481281D01*
X65544595Y-37533607D01*
X65530465Y-37577100D01*
X65516003Y-37597007D01*
X65433786Y-37758366D01*
X65377831Y-37930580D01*
X65377828Y-37930593D01*
X65349500Y-38109453D01*
X65349500Y-38290546D01*
X65377828Y-38469406D01*
X65377831Y-38469419D01*
X65433787Y-38641635D01*
X65516005Y-38802995D01*
X65516005Y-38802996D01*
X65540701Y-38836987D01*
X65622447Y-38949501D01*
X65750499Y-39077553D01*
X65897006Y-39183996D01*
X66058361Y-39266211D01*
X66058364Y-39266212D01*
X66058363Y-39266212D01*
X66230580Y-39322168D01*
X66230586Y-39322169D01*
X66230591Y-39322171D01*
X66349833Y-39341057D01*
X66409453Y-39350500D01*
X66409454Y-39350500D01*
X66590547Y-39350500D01*
X66635261Y-39343417D01*
X66769409Y-39322171D01*
X66769416Y-39322168D01*
X66769419Y-39322168D01*
X66847601Y-39296765D01*
X66941639Y-39266211D01*
X67102994Y-39183996D01*
X67249501Y-39077553D01*
X67377553Y-38949501D01*
X67483996Y-38802994D01*
X67566211Y-38641639D01*
X67603196Y-38527809D01*
X67622168Y-38469419D01*
X67622168Y-38469416D01*
X67622171Y-38469409D01*
X67650500Y-38290546D01*
X67650500Y-38109454D01*
X67622171Y-37930591D01*
X67622169Y-37930586D01*
X67622168Y-37930580D01*
X67566212Y-37758364D01*
X67566211Y-37758363D01*
X67566211Y-37758361D01*
X67483996Y-37597006D01*
X67481521Y-37593600D01*
X67466386Y-37572767D01*
X67377553Y-37450499D01*
X67249501Y-37322447D01*
X67132701Y-37237587D01*
X67102996Y-37216005D01*
X66941635Y-37133787D01*
X66941636Y-37133787D01*
X66769419Y-37077831D01*
X66769406Y-37077828D01*
X66590547Y-37049500D01*
X66590546Y-37049500D01*
X66409454Y-37049500D01*
X66409453Y-37049500D01*
X66230593Y-37077828D01*
X66230580Y-37077831D01*
X66058363Y-37133787D01*
X65990723Y-37168251D01*
X65934261Y-37172694D01*
X65904803Y-37154642D01*
X62597831Y-33847670D01*
X75083300Y-33847670D01*
X75083300Y-33953129D01*
X75110591Y-34054982D01*
X75110595Y-34054991D01*
X75163320Y-34146313D01*
X75237887Y-34220880D01*
X75329213Y-34273607D01*
X75431070Y-34300899D01*
X75431071Y-34300900D01*
X75431073Y-34300900D01*
X75536529Y-34300900D01*
X75536529Y-34300899D01*
X75638387Y-34273607D01*
X75729713Y-34220880D01*
X75804280Y-34146313D01*
X75857007Y-34054987D01*
X75884299Y-33953129D01*
X75884300Y-33953129D01*
X75884300Y-33847671D01*
X75884299Y-33847670D01*
X75881329Y-33836587D01*
X75857007Y-33745813D01*
X75804280Y-33654487D01*
X75729713Y-33579920D01*
X75694282Y-33559464D01*
X75638391Y-33527195D01*
X75638382Y-33527191D01*
X75536529Y-33499900D01*
X75536527Y-33499900D01*
X75431073Y-33499900D01*
X75431071Y-33499900D01*
X75329217Y-33527191D01*
X75329208Y-33527195D01*
X75237886Y-33579920D01*
X75163320Y-33654486D01*
X75110595Y-33745808D01*
X75110591Y-33745817D01*
X75083300Y-33847670D01*
X62597831Y-33847670D01*
X60051098Y-31300937D01*
X60051094Y-31300934D01*
X59959028Y-31262800D01*
X58446245Y-31262800D01*
X58393919Y-31241126D01*
X58345613Y-31192820D01*
X58254291Y-31140095D01*
X58254282Y-31140091D01*
X58152429Y-31112800D01*
X58152427Y-31112800D01*
X58046973Y-31112800D01*
X58046971Y-31112800D01*
X57945117Y-31140091D01*
X57945108Y-31140095D01*
X57853786Y-31192820D01*
X57805481Y-31241126D01*
X57753155Y-31262800D01*
X46224713Y-31262800D01*
X46172387Y-31241126D01*
X45471531Y-30540270D01*
X70940200Y-30540270D01*
X70940200Y-30645729D01*
X70967491Y-30747582D01*
X70967495Y-30747591D01*
X71006864Y-30815779D01*
X71020220Y-30838913D01*
X71094787Y-30913480D01*
X71186113Y-30966207D01*
X71287970Y-30993499D01*
X71287971Y-30993500D01*
X71287973Y-30993500D01*
X71393429Y-30993500D01*
X71393429Y-30993499D01*
X71495287Y-30966207D01*
X71586613Y-30913480D01*
X71661180Y-30838913D01*
X71713907Y-30747587D01*
X71741199Y-30645729D01*
X71741200Y-30645729D01*
X71741200Y-30540271D01*
X71741199Y-30540270D01*
X71719771Y-30460300D01*
X71713907Y-30438413D01*
X71661180Y-30347087D01*
X71586613Y-30272520D01*
X71554560Y-30254014D01*
X71495291Y-30219795D01*
X71495282Y-30219791D01*
X71403890Y-30195302D01*
X71403884Y-30195302D01*
X71393427Y-30192500D01*
X71287973Y-30192500D01*
X71287971Y-30192500D01*
X71186117Y-30219791D01*
X71186108Y-30219795D01*
X71094786Y-30272520D01*
X71020220Y-30347086D01*
X70967495Y-30438408D01*
X70967491Y-30438417D01*
X70940200Y-30540270D01*
X45471531Y-30540270D01*
X45059931Y-30128670D01*
X72155400Y-30128670D01*
X72155400Y-30234129D01*
X72182691Y-30335982D01*
X72182695Y-30335991D01*
X72192003Y-30352113D01*
X72235420Y-30427313D01*
X72309987Y-30501880D01*
X72401313Y-30554607D01*
X72503170Y-30581899D01*
X72503171Y-30581900D01*
X72503173Y-30581900D01*
X72608629Y-30581900D01*
X72608629Y-30581899D01*
X72710487Y-30554607D01*
X72801813Y-30501880D01*
X72876380Y-30427313D01*
X72929107Y-30335987D01*
X72956399Y-30234129D01*
X72956400Y-30234129D01*
X72956400Y-30128671D01*
X72956399Y-30128670D01*
X72942880Y-30078217D01*
X72929107Y-30026813D01*
X72876380Y-29935487D01*
X72801813Y-29860920D01*
X72734637Y-29822136D01*
X72710491Y-29808195D01*
X72710482Y-29808191D01*
X72608629Y-29780900D01*
X72608627Y-29780900D01*
X72503173Y-29780900D01*
X72503171Y-29780900D01*
X72401317Y-29808191D01*
X72401308Y-29808195D01*
X72309986Y-29860920D01*
X72235420Y-29935486D01*
X72182695Y-30026808D01*
X72182691Y-30026817D01*
X72155400Y-30128670D01*
X45059931Y-30128670D01*
X42672174Y-27740913D01*
X42650500Y-27688587D01*
X42650500Y-27620271D01*
X42650499Y-27620270D01*
X42623208Y-27518417D01*
X42623207Y-27518413D01*
X42570480Y-27427087D01*
X42495913Y-27352520D01*
X42404591Y-27299795D01*
X42404582Y-27299791D01*
X42302729Y-27272500D01*
X42302727Y-27272500D01*
X42197273Y-27272500D01*
X42197271Y-27272500D01*
X42095417Y-27299791D01*
X42095408Y-27299795D01*
X42004086Y-27352520D01*
X41929520Y-27427086D01*
X41876795Y-27518408D01*
X41876791Y-27518417D01*
X41849500Y-27620270D01*
X41849500Y-27725729D01*
X41876791Y-27827582D01*
X41876792Y-27827585D01*
X41876793Y-27827587D01*
X41929520Y-27918913D01*
X42004087Y-27993480D01*
X42095413Y-28046207D01*
X42197270Y-28073499D01*
X42197271Y-28073500D01*
X42197273Y-28073500D01*
X42265587Y-28073500D01*
X42317913Y-28095174D01*
X45794213Y-31571474D01*
X45815887Y-31623800D01*
X45794213Y-31676126D01*
X45741887Y-31697800D01*
X35774412Y-31697800D01*
X35722086Y-31676126D01*
X35458697Y-31412736D01*
X35458694Y-31412734D01*
X35366628Y-31374600D01*
X26016613Y-31374600D01*
X25964287Y-31352926D01*
X25942613Y-31300600D01*
X25964287Y-31248274D01*
X26079587Y-31132974D01*
X26131913Y-31111300D01*
X26200229Y-31111300D01*
X26200229Y-31111299D01*
X26302087Y-31084007D01*
X26393413Y-31031280D01*
X26441719Y-30982974D01*
X26494045Y-30961300D01*
X36691327Y-30961300D01*
X36691328Y-30961300D01*
X36783397Y-30923164D01*
X41261291Y-26445270D01*
X68108300Y-26445270D01*
X68108300Y-26550729D01*
X68135591Y-26652582D01*
X68135592Y-26652585D01*
X68135593Y-26652587D01*
X68188320Y-26743913D01*
X68262887Y-26818480D01*
X68354213Y-26871207D01*
X68456070Y-26898499D01*
X68456071Y-26898500D01*
X68456073Y-26898500D01*
X68561529Y-26898500D01*
X68561529Y-26898499D01*
X68663387Y-26871207D01*
X68754713Y-26818480D01*
X68829280Y-26743913D01*
X68882007Y-26652587D01*
X68909299Y-26550729D01*
X68909300Y-26550729D01*
X68909300Y-26445271D01*
X68909299Y-26445270D01*
X68882008Y-26343417D01*
X68882007Y-26343413D01*
X68829280Y-26252087D01*
X68754713Y-26177520D01*
X68663391Y-26124795D01*
X68663382Y-26124791D01*
X68561529Y-26097500D01*
X68561527Y-26097500D01*
X68456073Y-26097500D01*
X68456071Y-26097500D01*
X68354217Y-26124791D01*
X68354208Y-26124795D01*
X68262886Y-26177520D01*
X68188320Y-26252086D01*
X68135595Y-26343408D01*
X68135591Y-26343417D01*
X68108300Y-26445270D01*
X41261291Y-26445270D01*
X41991891Y-25714670D01*
X49103200Y-25714670D01*
X49103200Y-25820129D01*
X49130491Y-25921982D01*
X49130495Y-25921991D01*
X49148220Y-25952691D01*
X49183220Y-26013313D01*
X49257787Y-26087880D01*
X49349113Y-26140607D01*
X49450970Y-26167899D01*
X49450971Y-26167900D01*
X49450973Y-26167900D01*
X49556429Y-26167900D01*
X49556429Y-26167899D01*
X49658287Y-26140607D01*
X49749613Y-26087880D01*
X49824180Y-26013313D01*
X49876907Y-25921987D01*
X49904199Y-25820129D01*
X49904200Y-25820129D01*
X49904200Y-25714671D01*
X49904199Y-25714670D01*
X49901746Y-25705517D01*
X49876907Y-25612813D01*
X49824180Y-25521487D01*
X49749613Y-25446920D01*
X49679754Y-25406587D01*
X49658291Y-25394195D01*
X49658282Y-25394191D01*
X49556429Y-25366900D01*
X49556427Y-25366900D01*
X49450973Y-25366900D01*
X49450971Y-25366900D01*
X49349117Y-25394191D01*
X49349108Y-25394195D01*
X49257786Y-25446920D01*
X49183220Y-25521486D01*
X49130495Y-25612808D01*
X49130491Y-25612817D01*
X49103200Y-25714670D01*
X41991891Y-25714670D01*
X42686487Y-25020074D01*
X42738813Y-24998400D01*
X70168455Y-24998400D01*
X70220781Y-25020074D01*
X70269087Y-25068380D01*
X70360413Y-25121107D01*
X70462270Y-25148399D01*
X70462271Y-25148400D01*
X70462273Y-25148400D01*
X70567729Y-25148400D01*
X70567729Y-25148399D01*
X70669587Y-25121107D01*
X70760913Y-25068380D01*
X70835480Y-24993813D01*
X70888207Y-24902487D01*
X70915499Y-24800629D01*
X70915500Y-24800629D01*
X70915500Y-24695171D01*
X70915499Y-24695170D01*
X70888208Y-24593317D01*
X70888207Y-24593313D01*
X70835480Y-24501987D01*
X70760913Y-24427420D01*
X70719496Y-24403508D01*
X70669591Y-24374695D01*
X70669582Y-24374691D01*
X70567729Y-24347400D01*
X70567727Y-24347400D01*
X70462273Y-24347400D01*
X70462271Y-24347400D01*
X70360417Y-24374691D01*
X70360408Y-24374695D01*
X70269086Y-24427420D01*
X70220781Y-24475726D01*
X70168455Y-24497400D01*
X42554572Y-24497400D01*
X42462505Y-24535534D01*
X36559413Y-30438626D01*
X36507087Y-30460300D01*
X26494045Y-30460300D01*
X26441719Y-30438626D01*
X26393413Y-30390320D01*
X26379324Y-30382186D01*
X26344846Y-30337253D01*
X26352238Y-30281100D01*
X26397171Y-30246622D01*
X26416324Y-30244100D01*
X35592227Y-30244100D01*
X35592228Y-30244100D01*
X35684297Y-30205964D01*
X41682087Y-24208174D01*
X41734413Y-24186500D01*
X41765587Y-24186500D01*
X41817913Y-24208174D01*
X41853003Y-24243264D01*
X41945072Y-24281400D01*
X41945073Y-24281400D01*
X65597227Y-24281400D01*
X65597228Y-24281400D01*
X65689297Y-24243264D01*
X68442486Y-21490073D01*
X68494812Y-21468400D01*
X68563129Y-21468400D01*
X68563129Y-21468399D01*
X68664987Y-21441107D01*
X68756313Y-21388380D01*
X68830880Y-21313813D01*
X68883607Y-21222487D01*
X68910899Y-21120629D01*
X68910900Y-21120629D01*
X68910900Y-21015171D01*
X68910899Y-21015170D01*
X68892409Y-20946165D01*
X68883607Y-20913313D01*
X68830880Y-20821987D01*
X68756313Y-20747420D01*
X68664991Y-20694695D01*
X68664982Y-20694691D01*
X68563129Y-20667400D01*
X68563127Y-20667400D01*
X68457673Y-20667400D01*
X68457671Y-20667400D01*
X68355817Y-20694691D01*
X68355808Y-20694695D01*
X68264486Y-20747420D01*
X68189920Y-20821986D01*
X68137195Y-20913308D01*
X68137191Y-20913317D01*
X68109900Y-21015170D01*
X68109900Y-21083487D01*
X68088226Y-21135813D01*
X66132621Y-23091417D01*
X66080295Y-23113091D01*
X66027969Y-23091417D01*
X66006295Y-23039091D01*
X66008817Y-23019937D01*
X66018600Y-22983428D01*
X66018600Y-22877971D01*
X66018599Y-22877970D01*
X65991308Y-22776117D01*
X65991307Y-22776113D01*
X65938580Y-22684787D01*
X65864013Y-22610220D01*
X65772691Y-22557495D01*
X65772682Y-22557491D01*
X65670829Y-22530200D01*
X65670827Y-22530200D01*
X65602512Y-22530200D01*
X65550186Y-22508526D01*
X64152287Y-21110626D01*
X64130613Y-21058300D01*
X64152287Y-21005974D01*
X64204613Y-20984300D01*
X67187527Y-20984300D01*
X67187528Y-20984300D01*
X67279597Y-20946164D01*
X69427287Y-18798474D01*
X69479613Y-18776800D01*
X69547929Y-18776800D01*
X69547929Y-18776799D01*
X69649787Y-18749507D01*
X69741113Y-18696780D01*
X69815680Y-18622213D01*
X69868407Y-18530887D01*
X69895699Y-18429029D01*
X69895700Y-18429029D01*
X69895700Y-18323571D01*
X69895699Y-18323570D01*
X69894362Y-18318582D01*
X69868407Y-18221713D01*
X69815680Y-18130387D01*
X69741113Y-18055820D01*
X69660725Y-18009408D01*
X69649791Y-18003095D01*
X69649782Y-18003091D01*
X69547929Y-17975800D01*
X69547927Y-17975800D01*
X69442473Y-17975800D01*
X69442471Y-17975800D01*
X69340617Y-18003091D01*
X69340608Y-18003095D01*
X69249286Y-18055820D01*
X69174720Y-18130386D01*
X69121995Y-18221708D01*
X69121991Y-18221717D01*
X69094700Y-18323570D01*
X69094700Y-18391887D01*
X69073026Y-18444213D01*
X67055613Y-20461626D01*
X67003287Y-20483300D01*
X64686830Y-20483300D01*
X64634504Y-20461626D01*
X64612830Y-20409300D01*
X64625443Y-20372145D01*
X64623655Y-20371113D01*
X64628904Y-20362021D01*
X64678807Y-20275587D01*
X64706099Y-20173729D01*
X64706100Y-20173729D01*
X64706100Y-20068271D01*
X64706099Y-20068270D01*
X64700017Y-20045573D01*
X64678807Y-19966413D01*
X64626080Y-19875087D01*
X64551513Y-19800520D01*
X64550250Y-19799791D01*
X64460191Y-19747795D01*
X64460182Y-19747791D01*
X64358329Y-19720500D01*
X64358327Y-19720500D01*
X64290013Y-19720500D01*
X64237687Y-19698826D01*
X63610098Y-19071237D01*
X63610094Y-19071234D01*
X63518028Y-19033100D01*
X53066545Y-19033100D01*
X53014219Y-19011426D01*
X52992545Y-18959100D01*
X53014219Y-18906774D01*
X53019680Y-18901313D01*
X53072407Y-18809987D01*
X53099699Y-18708129D01*
X53099700Y-18708129D01*
X53099700Y-18602671D01*
X53099699Y-18602670D01*
X53081306Y-18534027D01*
X53072407Y-18500813D01*
X53049883Y-18461800D01*
X53042491Y-18405647D01*
X53076969Y-18360714D01*
X53113969Y-18350800D01*
X55959467Y-18350800D01*
X56011793Y-18372474D01*
X56023553Y-18387800D01*
X56036320Y-18409913D01*
X56110887Y-18484480D01*
X56202213Y-18537207D01*
X56304070Y-18564499D01*
X56304071Y-18564500D01*
X56304073Y-18564500D01*
X56409529Y-18564500D01*
X56409529Y-18564499D01*
X56511387Y-18537207D01*
X56602713Y-18484480D01*
X56677280Y-18409913D01*
X56730007Y-18318587D01*
X56757299Y-18216729D01*
X56757300Y-18216729D01*
X56757300Y-18111271D01*
X56757299Y-18111270D01*
X56742441Y-18055820D01*
X56730007Y-18009413D01*
X56677280Y-17918087D01*
X56602713Y-17843520D01*
X56574633Y-17827308D01*
X56511391Y-17790795D01*
X56511382Y-17790791D01*
X56409529Y-17763500D01*
X56409527Y-17763500D01*
X56304073Y-17763500D01*
X56304071Y-17763500D01*
X56202217Y-17790791D01*
X56202208Y-17790795D01*
X56117181Y-17839886D01*
X56080181Y-17849800D01*
X51601448Y-17849800D01*
X51601440Y-17849799D01*
X51592828Y-17849799D01*
X51493173Y-17849799D01*
X51439239Y-17872138D01*
X51439240Y-17872139D01*
X51401104Y-17887935D01*
X51330634Y-17958405D01*
X51309531Y-17979507D01*
X51257204Y-18001180D01*
X51204879Y-17979505D01*
X51183206Y-17927178D01*
X51185728Y-17908027D01*
X51191111Y-17887936D01*
X51197999Y-17862229D01*
X51198000Y-17862229D01*
X51198000Y-17756771D01*
X51197999Y-17756770D01*
X51173671Y-17665977D01*
X51170707Y-17654913D01*
X51117980Y-17563587D01*
X51043413Y-17489020D01*
X51011358Y-17470513D01*
X50952091Y-17436295D01*
X50952082Y-17436291D01*
X50850229Y-17409000D01*
X50850227Y-17409000D01*
X50744773Y-17409000D01*
X50744771Y-17409000D01*
X50642917Y-17436291D01*
X50642908Y-17436295D01*
X50551586Y-17489020D01*
X50477020Y-17563586D01*
X50424295Y-17654908D01*
X50424291Y-17654917D01*
X50397000Y-17756770D01*
X50397000Y-17862229D01*
X50424291Y-17964082D01*
X50424296Y-17964093D01*
X50431459Y-17976499D01*
X50438853Y-18032651D01*
X50404375Y-18077585D01*
X50367374Y-18087500D01*
X46112813Y-18087500D01*
X46060487Y-18065826D01*
X45006898Y-17012237D01*
X45006894Y-17012234D01*
X44914828Y-16974100D01*
X38152945Y-16974100D01*
X38100619Y-16952426D01*
X38052313Y-16904120D01*
X37960991Y-16851395D01*
X37960982Y-16851391D01*
X37859129Y-16824100D01*
X37859127Y-16824100D01*
X37753673Y-16824100D01*
X37753671Y-16824100D01*
X37651817Y-16851391D01*
X37651808Y-16851395D01*
X37560486Y-16904120D01*
X37485920Y-16978686D01*
X37433195Y-17070008D01*
X37433191Y-17070017D01*
X37405900Y-17171870D01*
X37405900Y-17277329D01*
X37434448Y-17383871D01*
X37432633Y-17384357D01*
X37432633Y-17434473D01*
X37392583Y-17474521D01*
X37335946Y-17474520D01*
X37311940Y-17458479D01*
X36465987Y-16612526D01*
X36444313Y-16560200D01*
X36465987Y-16507874D01*
X36518313Y-16486200D01*
X45451787Y-16486200D01*
X45504113Y-16507874D01*
X45942026Y-16945787D01*
X45963700Y-16998113D01*
X45963700Y-17066429D01*
X45990991Y-17168282D01*
X45990995Y-17168291D01*
X45993063Y-17171873D01*
X46043720Y-17259613D01*
X46118287Y-17334180D01*
X46209613Y-17386907D01*
X46311470Y-17414199D01*
X46311471Y-17414200D01*
X46311473Y-17414200D01*
X46416929Y-17414200D01*
X46416929Y-17414199D01*
X46518787Y-17386907D01*
X46610113Y-17334180D01*
X46684680Y-17259613D01*
X46737407Y-17168287D01*
X46764699Y-17066429D01*
X46764700Y-17066429D01*
X46764700Y-16960971D01*
X46764699Y-16960970D01*
X46746216Y-16891991D01*
X46737407Y-16859113D01*
X46684680Y-16767787D01*
X46610113Y-16693220D01*
X46562272Y-16665599D01*
X46518791Y-16640495D01*
X46518782Y-16640491D01*
X46416929Y-16613200D01*
X46416927Y-16613200D01*
X46348613Y-16613200D01*
X46296287Y-16591526D01*
X45728098Y-16023337D01*
X45722038Y-16019288D01*
X45722861Y-16018056D01*
X45688123Y-15983317D01*
X45688125Y-15926680D01*
X45728174Y-15886632D01*
X45756491Y-15881000D01*
X51298587Y-15881000D01*
X51350913Y-15902674D01*
X52075703Y-16627464D01*
X52167772Y-16665600D01*
X52167773Y-16665600D01*
X54779327Y-16665600D01*
X54779328Y-16665600D01*
X54871397Y-16627464D01*
X55331686Y-16167173D01*
X55384012Y-16145500D01*
X55452329Y-16145500D01*
X55452329Y-16145499D01*
X55554187Y-16118207D01*
X55645513Y-16065480D01*
X55720080Y-15990913D01*
X55772807Y-15899587D01*
X55783449Y-15859870D01*
X56613900Y-15859870D01*
X56613900Y-15965329D01*
X56641191Y-16067182D01*
X56641195Y-16067191D01*
X56670649Y-16118207D01*
X56693920Y-16158513D01*
X56768487Y-16233080D01*
X56859813Y-16285807D01*
X56961670Y-16313099D01*
X56961671Y-16313100D01*
X56961673Y-16313100D01*
X57067129Y-16313100D01*
X57067129Y-16313099D01*
X57168987Y-16285807D01*
X57260313Y-16233080D01*
X57334880Y-16158513D01*
X57387607Y-16067187D01*
X57414899Y-15965329D01*
X57414900Y-15965329D01*
X57414900Y-15859871D01*
X57414899Y-15859870D01*
X57387608Y-15758017D01*
X57387607Y-15758013D01*
X57334880Y-15666687D01*
X57260313Y-15592120D01*
X57235458Y-15577770D01*
X57168991Y-15539395D01*
X57168982Y-15539391D01*
X57067129Y-15512100D01*
X57067127Y-15512100D01*
X56961673Y-15512100D01*
X56961671Y-15512100D01*
X56859817Y-15539391D01*
X56859808Y-15539395D01*
X56768486Y-15592120D01*
X56693920Y-15666686D01*
X56641195Y-15758008D01*
X56641191Y-15758017D01*
X56613900Y-15859870D01*
X55783449Y-15859870D01*
X55800099Y-15797729D01*
X55800100Y-15797729D01*
X55800100Y-15692271D01*
X55800099Y-15692270D01*
X55772808Y-15590417D01*
X55772807Y-15590413D01*
X55720080Y-15499087D01*
X55645513Y-15424520D01*
X55576347Y-15384587D01*
X55554191Y-15371795D01*
X55554182Y-15371791D01*
X55452329Y-15344500D01*
X55452327Y-15344500D01*
X55346873Y-15344500D01*
X55346871Y-15344500D01*
X55245017Y-15371791D01*
X55245008Y-15371795D01*
X55153686Y-15424520D01*
X55079120Y-15499086D01*
X55026395Y-15590408D01*
X55026391Y-15590417D01*
X54999100Y-15692270D01*
X54999100Y-15760587D01*
X54977426Y-15812913D01*
X54647413Y-16142926D01*
X54595087Y-16164600D01*
X52866819Y-16164600D01*
X52814493Y-16142926D01*
X52792819Y-16090600D01*
X52796871Y-16070217D01*
X52795952Y-16069971D01*
X52808447Y-16023337D01*
X52824499Y-15963429D01*
X52824500Y-15963429D01*
X52824500Y-15857971D01*
X52824499Y-15857970D01*
X52818577Y-15835870D01*
X52797207Y-15756113D01*
X52744480Y-15664787D01*
X52669913Y-15590220D01*
X52648349Y-15577770D01*
X52578591Y-15537495D01*
X52578582Y-15537491D01*
X52476729Y-15510200D01*
X52476727Y-15510200D01*
X52371273Y-15510200D01*
X52371271Y-15510200D01*
X52269417Y-15537491D01*
X52269408Y-15537495D01*
X52178086Y-15590220D01*
X52103520Y-15664786D01*
X52048530Y-15760031D01*
X52003596Y-15794510D01*
X51947444Y-15787117D01*
X51932118Y-15775357D01*
X51574898Y-15418137D01*
X51574894Y-15418134D01*
X51482828Y-15380000D01*
X32061745Y-15380000D01*
X32009419Y-15358326D01*
X31961113Y-15310020D01*
X31869791Y-15257295D01*
X31869782Y-15257291D01*
X31767929Y-15230000D01*
X31767927Y-15230000D01*
X31662473Y-15230000D01*
X31662471Y-15230000D01*
X31560617Y-15257291D01*
X31560608Y-15257295D01*
X31469286Y-15310020D01*
X31394720Y-15384586D01*
X31341995Y-15475908D01*
X31341991Y-15475917D01*
X31314700Y-15577770D01*
X31314700Y-15683229D01*
X31341991Y-15785082D01*
X31341995Y-15785091D01*
X31393442Y-15874200D01*
X31400834Y-15930353D01*
X31366356Y-15975286D01*
X31329356Y-15985200D01*
X14216172Y-15985200D01*
X14124105Y-16023334D01*
X14124101Y-16023337D01*
X13615893Y-16531545D01*
X13563567Y-16553219D01*
X13511241Y-16531545D01*
X13495200Y-16507537D01*
X13430941Y-16352402D01*
X13315977Y-16180345D01*
X13169654Y-16034022D01*
X12997598Y-15919059D01*
X12806420Y-15839870D01*
X12806413Y-15839868D01*
X12653516Y-15809455D01*
X12603465Y-15799500D01*
X11396535Y-15799500D01*
X11356385Y-15807486D01*
X11193586Y-15839868D01*
X11193579Y-15839870D01*
X11002401Y-15919059D01*
X10830345Y-16034022D01*
X10830344Y-16034024D01*
X10684024Y-16180344D01*
X10684022Y-16180345D01*
X10569059Y-16352401D01*
X10489870Y-16543579D01*
X10489868Y-16543586D01*
X10461805Y-16684673D01*
X10449500Y-16746535D01*
X10449500Y-16953465D01*
X10451417Y-16963100D01*
X10489868Y-17156413D01*
X10489870Y-17156420D01*
X10569059Y-17347598D01*
X10674684Y-17505679D01*
X10684023Y-17519655D01*
X10830345Y-17665977D01*
X11002402Y-17780941D01*
X11193580Y-17860130D01*
X11396535Y-17900500D01*
X11396536Y-17900500D01*
X12603464Y-17900500D01*
X12603465Y-17900500D01*
X12806420Y-17860130D01*
X12997598Y-17780941D01*
X13169655Y-17665977D01*
X13315977Y-17519655D01*
X13430941Y-17347598D01*
X13510130Y-17156420D01*
X13510132Y-17156406D01*
X13511161Y-17153019D01*
X13547091Y-17109238D01*
X13581975Y-17100500D01*
X13701527Y-17100500D01*
X13701528Y-17100500D01*
X13793597Y-17062364D01*
X14348087Y-16507874D01*
X14400413Y-16486200D01*
X30335142Y-16486200D01*
X30387468Y-16507874D01*
X30409142Y-16560200D01*
X30406620Y-16579353D01*
X30378400Y-16684670D01*
X30378400Y-16790129D01*
X30405691Y-16891982D01*
X30405695Y-16891991D01*
X30440587Y-16952426D01*
X30458420Y-16983313D01*
X30532987Y-17057880D01*
X30624313Y-17110607D01*
X30726170Y-17137899D01*
X30726171Y-17137900D01*
X30726173Y-17137900D01*
X30831629Y-17137900D01*
X30831629Y-17137899D01*
X30933487Y-17110607D01*
X31024813Y-17057880D01*
X31099380Y-16983313D01*
X31111050Y-16963099D01*
X31155984Y-16928621D01*
X31175136Y-16926100D01*
X31594535Y-16926100D01*
X31646861Y-16947774D01*
X31668535Y-17000100D01*
X31662903Y-17028416D01*
X31661992Y-17030614D01*
X31634700Y-17132470D01*
X31634700Y-17237929D01*
X31661991Y-17339782D01*
X31661995Y-17339791D01*
X31687445Y-17383871D01*
X31714720Y-17431113D01*
X31789287Y-17505680D01*
X31880613Y-17558407D01*
X31982470Y-17585699D01*
X31982471Y-17585700D01*
X31982473Y-17585700D01*
X32050787Y-17585700D01*
X32103113Y-17607374D01*
X34849015Y-20353275D01*
X34849018Y-20353279D01*
X34852713Y-20356974D01*
X34853160Y-20358055D01*
X34855889Y-20361201D01*
X34855892Y-20361205D01*
X34854803Y-20362021D01*
X34874387Y-20409300D01*
X34852713Y-20461626D01*
X34800387Y-20483300D01*
X28360045Y-20483300D01*
X28307719Y-20461626D01*
X28286045Y-20409300D01*
X28307719Y-20356974D01*
X28311418Y-20353275D01*
X28320480Y-20344213D01*
X28373207Y-20252887D01*
X28400499Y-20151029D01*
X28400500Y-20151029D01*
X28400500Y-20045571D01*
X28400499Y-20045570D01*
X28393223Y-20018417D01*
X28373207Y-19943713D01*
X28320480Y-19852387D01*
X28245913Y-19777820D01*
X28154591Y-19725095D01*
X28154582Y-19725091D01*
X28052729Y-19697800D01*
X28052727Y-19697800D01*
X27947273Y-19697800D01*
X27947271Y-19697800D01*
X27845417Y-19725091D01*
X27845408Y-19725095D01*
X27754086Y-19777820D01*
X27679520Y-19852386D01*
X27626795Y-19943708D01*
X27626791Y-19943717D01*
X27599500Y-20045570D01*
X27599500Y-20151029D01*
X27626791Y-20252882D01*
X27626795Y-20252891D01*
X27679520Y-20344213D01*
X27692281Y-20356974D01*
X27713955Y-20409300D01*
X27692281Y-20461626D01*
X27639955Y-20483300D01*
X24064772Y-20483300D01*
X23972705Y-20521434D01*
X19113813Y-25380326D01*
X19061487Y-25402000D01*
X7682045Y-25402000D01*
X7629719Y-25380326D01*
X7581413Y-25332020D01*
X7490091Y-25279295D01*
X7490082Y-25279291D01*
X7388229Y-25252000D01*
X7388227Y-25252000D01*
X7282773Y-25252000D01*
X7282771Y-25252000D01*
X7180917Y-25279291D01*
X7180908Y-25279295D01*
X7089586Y-25332020D01*
X7015020Y-25406586D01*
X6962295Y-25497908D01*
X6962291Y-25497917D01*
X6935000Y-25599770D01*
X6935000Y-25705229D01*
X6963247Y-25810647D01*
X6955855Y-25866800D01*
X6910922Y-25901278D01*
X6891769Y-25903800D01*
X5305413Y-25903800D01*
X5253087Y-25882126D01*
X4945974Y-25575013D01*
X4924300Y-25522687D01*
X4924300Y-25454371D01*
X4924299Y-25454370D01*
X4908175Y-25394195D01*
X4897007Y-25352513D01*
X4844280Y-25261187D01*
X4769713Y-25186620D01*
X4703514Y-25148400D01*
X4678391Y-25133895D01*
X4678382Y-25133891D01*
X4576529Y-25106600D01*
X4576527Y-25106600D01*
X4471073Y-25106600D01*
X4471071Y-25106600D01*
X4369217Y-25133891D01*
X4369208Y-25133895D01*
X4277886Y-25186620D01*
X4203320Y-25261186D01*
X4150595Y-25352508D01*
X4150591Y-25352517D01*
X4123300Y-25454370D01*
X4123300Y-25559829D01*
X4150591Y-25661682D01*
X4150592Y-25661685D01*
X4150593Y-25661687D01*
X4203320Y-25753013D01*
X4277887Y-25827580D01*
X4369213Y-25880307D01*
X4471070Y-25907599D01*
X4471071Y-25907600D01*
X4471073Y-25907600D01*
X4539387Y-25907600D01*
X4591713Y-25929274D01*
X4958636Y-26296197D01*
X5029103Y-26366664D01*
X5121172Y-26404800D01*
X8081767Y-26404800D01*
X8134093Y-26426474D01*
X8155767Y-26478800D01*
X8145853Y-26515800D01*
X8126795Y-26548808D01*
X8126791Y-26548817D01*
X8099500Y-26650670D01*
X8099500Y-26756129D01*
X8126791Y-26857982D01*
X8126794Y-26857989D01*
X8126859Y-26858101D01*
X8126867Y-26858165D01*
X8128651Y-26862472D01*
X8127497Y-26862949D01*
X8134250Y-26914254D01*
X8099771Y-26959187D01*
X8062772Y-26969100D01*
X5036913Y-26969100D01*
X4984587Y-26947426D01*
X3965174Y-25928013D01*
X3943500Y-25875687D01*
X3943500Y-25807371D01*
X3943499Y-25807370D01*
X3926886Y-25745370D01*
X3916207Y-25705513D01*
X3863480Y-25614187D01*
X3788913Y-25539620D01*
X3757504Y-25521486D01*
X3697591Y-25486895D01*
X3697582Y-25486891D01*
X3595729Y-25459600D01*
X3595727Y-25459600D01*
X3490273Y-25459600D01*
X3490271Y-25459600D01*
X3388417Y-25486891D01*
X3388408Y-25486895D01*
X3297086Y-25539620D01*
X3222520Y-25614186D01*
X3169795Y-25705508D01*
X3169791Y-25705517D01*
X3142500Y-25807370D01*
X3142500Y-25912829D01*
X3169791Y-26014682D01*
X3169792Y-26014685D01*
X3169793Y-26014687D01*
X3222520Y-26106013D01*
X3297087Y-26180580D01*
X3388413Y-26233307D01*
X3490270Y-26260599D01*
X3490271Y-26260600D01*
X3490273Y-26260600D01*
X3558587Y-26260600D01*
X3610913Y-26282274D01*
X4760603Y-27431964D01*
X4852672Y-27470100D01*
X4852673Y-27470100D01*
X17372455Y-27470100D01*
X17424781Y-27491774D01*
X17446455Y-27544100D01*
X17424781Y-27596426D01*
X17384620Y-27636586D01*
X17331895Y-27727908D01*
X17331891Y-27727917D01*
X17304600Y-27829770D01*
X17304600Y-27935229D01*
X17331891Y-28037082D01*
X17331895Y-28037091D01*
X17351184Y-28070500D01*
X17358577Y-28126652D01*
X17324098Y-28171586D01*
X17287098Y-28181500D01*
X8879572Y-28181500D01*
X8787505Y-28219634D01*
X7114534Y-29892605D01*
X7076400Y-29984670D01*
X7076400Y-31504255D01*
X7054726Y-31556581D01*
X7006420Y-31604886D01*
X6953695Y-31696208D01*
X6953691Y-31696217D01*
X6926400Y-31798070D01*
X6926400Y-31903529D01*
X6954620Y-32008847D01*
X6947228Y-32065000D01*
X6902295Y-32099478D01*
X6883142Y-32102000D01*
X5664113Y-32102000D01*
X5611787Y-32080326D01*
X3871674Y-30340213D01*
X3850000Y-30287887D01*
X3850000Y-30219571D01*
X3849999Y-30219570D01*
X3846353Y-30205964D01*
X3822707Y-30117713D01*
X3769980Y-30026387D01*
X3695413Y-29951820D01*
X3695046Y-29951608D01*
X3604091Y-29899095D01*
X3604082Y-29899091D01*
X3502229Y-29871800D01*
X3502227Y-29871800D01*
X3396773Y-29871800D01*
X3396771Y-29871800D01*
X3294917Y-29899091D01*
X3294908Y-29899095D01*
X3203586Y-29951820D01*
X3129020Y-30026386D01*
X3076295Y-30117708D01*
X3076291Y-30117717D01*
X3049000Y-30219570D01*
X500500Y-30219570D01*
X500500Y-24740070D01*
X8099500Y-24740070D01*
X8099500Y-24845529D01*
X8126791Y-24947382D01*
X8126792Y-24947385D01*
X8126793Y-24947387D01*
X8179520Y-25038713D01*
X8254087Y-25113280D01*
X8345413Y-25166007D01*
X8447270Y-25193299D01*
X8447271Y-25193300D01*
X8447273Y-25193300D01*
X8552729Y-25193300D01*
X8552729Y-25193299D01*
X8654587Y-25166007D01*
X8745913Y-25113280D01*
X8820480Y-25038713D01*
X8873207Y-24947387D01*
X8900499Y-24845529D01*
X8900500Y-24845529D01*
X8900500Y-24740071D01*
X8900499Y-24740070D01*
X8873208Y-24638217D01*
X8873207Y-24638213D01*
X8820480Y-24546887D01*
X8820479Y-24546886D01*
X8818055Y-24542687D01*
X8820449Y-24541304D01*
X8808065Y-24495122D01*
X8836374Y-24446067D01*
X8871778Y-24431399D01*
X8876321Y-24430800D01*
X8876327Y-24430800D01*
X8978187Y-24403507D01*
X9069513Y-24350780D01*
X9144080Y-24276213D01*
X9196807Y-24184887D01*
X9224099Y-24083029D01*
X9224100Y-24083029D01*
X9224100Y-23977571D01*
X9224099Y-23977570D01*
X9200525Y-23889591D01*
X9196807Y-23875713D01*
X9144080Y-23784387D01*
X9069513Y-23709820D01*
X9030656Y-23687386D01*
X8978191Y-23657095D01*
X8978182Y-23657091D01*
X8876329Y-23629800D01*
X8876327Y-23629800D01*
X8770873Y-23629800D01*
X8770871Y-23629800D01*
X8669017Y-23657091D01*
X8669008Y-23657095D01*
X8577686Y-23709820D01*
X8503120Y-23784386D01*
X8450395Y-23875708D01*
X8450391Y-23875717D01*
X8423100Y-23977570D01*
X8423100Y-24083029D01*
X8450391Y-24184882D01*
X8450395Y-24184891D01*
X8505545Y-24280413D01*
X8503152Y-24281794D01*
X8515532Y-24327989D01*
X8487216Y-24377039D01*
X8451830Y-24391699D01*
X8447273Y-24392299D01*
X8345417Y-24419591D01*
X8345408Y-24419595D01*
X8254086Y-24472320D01*
X8179520Y-24546886D01*
X8126795Y-24638208D01*
X8126791Y-24638217D01*
X8099500Y-24740070D01*
X500500Y-24740070D01*
X500500Y-21676970D01*
X21055100Y-21676970D01*
X21055100Y-21782429D01*
X21082391Y-21884282D01*
X21082392Y-21884285D01*
X21082393Y-21884287D01*
X21135120Y-21975613D01*
X21209687Y-22050180D01*
X21301013Y-22102907D01*
X21402870Y-22130199D01*
X21402871Y-22130200D01*
X21402873Y-22130200D01*
X21508329Y-22130200D01*
X21508329Y-22130199D01*
X21610187Y-22102907D01*
X21701513Y-22050180D01*
X21776080Y-21975613D01*
X21828807Y-21884287D01*
X21856099Y-21782429D01*
X21856100Y-21782429D01*
X21856100Y-21676971D01*
X21856099Y-21676970D01*
X21855000Y-21672870D01*
X21828807Y-21575113D01*
X21776080Y-21483787D01*
X21701513Y-21409220D01*
X21665415Y-21388379D01*
X21610191Y-21356495D01*
X21610182Y-21356491D01*
X21508329Y-21329200D01*
X21508327Y-21329200D01*
X21402873Y-21329200D01*
X21402871Y-21329200D01*
X21301017Y-21356491D01*
X21301008Y-21356495D01*
X21209686Y-21409220D01*
X21135120Y-21483786D01*
X21082395Y-21575108D01*
X21082391Y-21575117D01*
X21055100Y-21676970D01*
X500500Y-21676970D01*
X500500Y-18428570D01*
X25040700Y-18428570D01*
X25040700Y-18534029D01*
X25067991Y-18635882D01*
X25067995Y-18635891D01*
X25109701Y-18708127D01*
X25120720Y-18727213D01*
X25195287Y-18801780D01*
X25286613Y-18854507D01*
X25388470Y-18881799D01*
X25388471Y-18881800D01*
X25388473Y-18881800D01*
X25493929Y-18881800D01*
X25493929Y-18881799D01*
X25595787Y-18854507D01*
X25687113Y-18801780D01*
X25761680Y-18727213D01*
X25814407Y-18635887D01*
X25841699Y-18534029D01*
X25841700Y-18534029D01*
X25841700Y-18428571D01*
X25841699Y-18428570D01*
X25835135Y-18404074D01*
X25814407Y-18326713D01*
X25761680Y-18235387D01*
X25687113Y-18160820D01*
X25644967Y-18136487D01*
X25595791Y-18108095D01*
X25595782Y-18108091D01*
X25493929Y-18080800D01*
X25493927Y-18080800D01*
X25388473Y-18080800D01*
X25388471Y-18080800D01*
X25286617Y-18108091D01*
X25286608Y-18108095D01*
X25195286Y-18160820D01*
X25120720Y-18235386D01*
X25067995Y-18326708D01*
X25067991Y-18326717D01*
X25040700Y-18428570D01*
X500500Y-18428570D01*
X500500Y-10019870D01*
X25938000Y-10019870D01*
X25938000Y-10125329D01*
X25965291Y-10227182D01*
X25965295Y-10227191D01*
X25998387Y-10284508D01*
X26018020Y-10318513D01*
X26092587Y-10393080D01*
X26183913Y-10445807D01*
X26285770Y-10473099D01*
X26285771Y-10473100D01*
X26285773Y-10473100D01*
X26391229Y-10473100D01*
X26391229Y-10473099D01*
X26493087Y-10445807D01*
X26540706Y-10418313D01*
X26577706Y-10408400D01*
X31761155Y-10408400D01*
X31813481Y-10430074D01*
X31861787Y-10478380D01*
X31953113Y-10531107D01*
X32054970Y-10558399D01*
X32054971Y-10558400D01*
X32054973Y-10558400D01*
X32160429Y-10558400D01*
X32160429Y-10558399D01*
X32262287Y-10531107D01*
X32353613Y-10478380D01*
X32428180Y-10403813D01*
X32480907Y-10312487D01*
X32508199Y-10210629D01*
X32508200Y-10210629D01*
X32508200Y-10105171D01*
X32508199Y-10105170D01*
X32502285Y-10083100D01*
X32480907Y-10003313D01*
X32428180Y-9911987D01*
X32353613Y-9837420D01*
X32284319Y-9797413D01*
X32262291Y-9784695D01*
X32262282Y-9784691D01*
X32160429Y-9757400D01*
X32160427Y-9757400D01*
X32054973Y-9757400D01*
X32054971Y-9757400D01*
X31953117Y-9784691D01*
X31953108Y-9784695D01*
X31861786Y-9837420D01*
X31813481Y-9885726D01*
X31761155Y-9907400D01*
X29207951Y-9907400D01*
X29155625Y-9885726D01*
X29133951Y-9833400D01*
X29143865Y-9796400D01*
X29169430Y-9752120D01*
X29196007Y-9706087D01*
X29223299Y-9604229D01*
X29223300Y-9604229D01*
X29223300Y-9498771D01*
X29223299Y-9498770D01*
X29196008Y-9396917D01*
X29196007Y-9396913D01*
X29143280Y-9305587D01*
X29068713Y-9231020D01*
X28996821Y-9189513D01*
X28977391Y-9178295D01*
X28977382Y-9178291D01*
X28875529Y-9151000D01*
X28875527Y-9151000D01*
X28770073Y-9151000D01*
X28770071Y-9151000D01*
X28668217Y-9178291D01*
X28668208Y-9178295D01*
X28576886Y-9231020D01*
X28502320Y-9305586D01*
X28449595Y-9396908D01*
X28449591Y-9396917D01*
X28422300Y-9498770D01*
X28422300Y-9604229D01*
X28449591Y-9706082D01*
X28449595Y-9706091D01*
X28501735Y-9796400D01*
X28509127Y-9852553D01*
X28474649Y-9897486D01*
X28437649Y-9907400D01*
X26748304Y-9907400D01*
X26695978Y-9885726D01*
X26684218Y-9870400D01*
X26658982Y-9826690D01*
X26658981Y-9826689D01*
X26658980Y-9826687D01*
X26584413Y-9752120D01*
X26493091Y-9699395D01*
X26493082Y-9699391D01*
X26391229Y-9672100D01*
X26391227Y-9672100D01*
X26285773Y-9672100D01*
X26285771Y-9672100D01*
X26183917Y-9699391D01*
X26183908Y-9699395D01*
X26092586Y-9752120D01*
X26018020Y-9826686D01*
X25965295Y-9918008D01*
X25965291Y-9918017D01*
X25938000Y-10019870D01*
X500500Y-10019870D01*
X500500Y-4893711D01*
X3649500Y-4893711D01*
X3649500Y-5106288D01*
X3682753Y-5316240D01*
X3682756Y-5316253D01*
X3748440Y-5518406D01*
X3844948Y-5707816D01*
X3905992Y-5791835D01*
X3969896Y-5879792D01*
X4120208Y-6030104D01*
X4215656Y-6099451D01*
X4292183Y-6155051D01*
X4360775Y-6190000D01*
X4481588Y-6251557D01*
X4481590Y-6251557D01*
X4481593Y-6251559D01*
X4683746Y-6317243D01*
X4683752Y-6317244D01*
X4683757Y-6317246D01*
X4788735Y-6333873D01*
X4893711Y-6350500D01*
X4893713Y-6350500D01*
X5106289Y-6350500D01*
X5190269Y-6337198D01*
X5316243Y-6317246D01*
X5316250Y-6317243D01*
X5316253Y-6317243D01*
X5518406Y-6251559D01*
X5518406Y-6251558D01*
X5518412Y-6251557D01*
X5707816Y-6155051D01*
X5879792Y-6030104D01*
X6030104Y-5879792D01*
X6155051Y-5707816D01*
X6251557Y-5518412D01*
X6251559Y-5518406D01*
X6289558Y-5401460D01*
X24539500Y-5401460D01*
X24539500Y-5598539D01*
X24577947Y-5791829D01*
X24577950Y-5791839D01*
X24653367Y-5973913D01*
X24690910Y-6030099D01*
X24762861Y-6137782D01*
X24902218Y-6277139D01*
X25066086Y-6386632D01*
X25248165Y-6462051D01*
X25441459Y-6500500D01*
X25441461Y-6500500D01*
X25638539Y-6500500D01*
X25638541Y-6500500D01*
X25831835Y-6462051D01*
X26013914Y-6386632D01*
X26177782Y-6277139D01*
X26317139Y-6137782D01*
X26426632Y-5973914D01*
X26502051Y-5791835D01*
X26540500Y-5598541D01*
X26540500Y-5401460D01*
X27079500Y-5401460D01*
X27079500Y-5598539D01*
X27117947Y-5791829D01*
X27117950Y-5791839D01*
X27193367Y-5973913D01*
X27230910Y-6030099D01*
X27302861Y-6137782D01*
X27442218Y-6277139D01*
X27606086Y-6386632D01*
X27788165Y-6462051D01*
X27981459Y-6500500D01*
X27981461Y-6500500D01*
X28178539Y-6500500D01*
X28178541Y-6500500D01*
X28371835Y-6462051D01*
X28553914Y-6386632D01*
X28717782Y-6277139D01*
X28857139Y-6137782D01*
X28966632Y-5973914D01*
X29042051Y-5791835D01*
X29080500Y-5598541D01*
X29080500Y-5401459D01*
X29042051Y-5208165D01*
X28999852Y-5106288D01*
X28966632Y-5026086D01*
X28857139Y-4862218D01*
X28717781Y-4722860D01*
X28553913Y-4613367D01*
X28371839Y-4537950D01*
X28371829Y-4537947D01*
X28242388Y-4512200D01*
X28178541Y-4499500D01*
X27981459Y-4499500D01*
X27926662Y-4510399D01*
X27788170Y-4537947D01*
X27788160Y-4537950D01*
X27606086Y-4613367D01*
X27442218Y-4722860D01*
X27442217Y-4722862D01*
X27302862Y-4862217D01*
X27302860Y-4862218D01*
X27193367Y-5026086D01*
X27117950Y-5208160D01*
X27117947Y-5208170D01*
X27079500Y-5401460D01*
X26540500Y-5401460D01*
X26540500Y-5401459D01*
X26502051Y-5208165D01*
X26459852Y-5106288D01*
X26426632Y-5026086D01*
X26317139Y-4862218D01*
X26177781Y-4722860D01*
X26013913Y-4613367D01*
X25831839Y-4537950D01*
X25831829Y-4537947D01*
X25702388Y-4512200D01*
X25638541Y-4499500D01*
X25441459Y-4499500D01*
X25386662Y-4510399D01*
X25248170Y-4537947D01*
X25248160Y-4537950D01*
X25066086Y-4613367D01*
X24902218Y-4722860D01*
X24902217Y-4722862D01*
X24762862Y-4862217D01*
X24762860Y-4862218D01*
X24653367Y-5026086D01*
X24577950Y-5208160D01*
X24577947Y-5208170D01*
X24539500Y-5401460D01*
X6289558Y-5401460D01*
X6298169Y-5374957D01*
X6298169Y-5374956D01*
X6317244Y-5316249D01*
X6317243Y-5316249D01*
X6317246Y-5316243D01*
X6350500Y-5106287D01*
X6350500Y-4893713D01*
X6345511Y-4862217D01*
X6333873Y-4788735D01*
X6317246Y-4683757D01*
X6317244Y-4683752D01*
X6317243Y-4683746D01*
X6251559Y-4481593D01*
X6251557Y-4481590D01*
X6251557Y-4481588D01*
X6201565Y-4383474D01*
X6155051Y-4292183D01*
X6099451Y-4215656D01*
X6030104Y-4120208D01*
X5879792Y-3969896D01*
X5813146Y-3921475D01*
X5707816Y-3844948D01*
X5518406Y-3748440D01*
X5316253Y-3682756D01*
X5316240Y-3682753D01*
X5106289Y-3649500D01*
X5106287Y-3649500D01*
X4893713Y-3649500D01*
X4893711Y-3649500D01*
X4683759Y-3682753D01*
X4683746Y-3682756D01*
X4481593Y-3748440D01*
X4292183Y-3844948D01*
X4169466Y-3934108D01*
X4120208Y-3969896D01*
X3969896Y-4120208D01*
X3969893Y-4120211D01*
X3969893Y-4120212D01*
X3844948Y-4292183D01*
X3748440Y-4481593D01*
X3682756Y-4683746D01*
X3682753Y-4683759D01*
X3649500Y-4893711D01*
X500500Y-4893711D01*
X500500Y-4001819D01*
X500589Y-3998188D01*
X512858Y-3748440D01*
X517173Y-3660601D01*
X517882Y-3653407D01*
X567209Y-3320869D01*
X568626Y-3313751D01*
X650307Y-2987658D01*
X652404Y-2980747D01*
X765663Y-2664210D01*
X768433Y-2657522D01*
X912168Y-2353621D01*
X915574Y-2347248D01*
X1088410Y-2058888D01*
X1092434Y-2052866D01*
X1292690Y-1782852D01*
X1297294Y-1777244D01*
X1523050Y-1528160D01*
X1528160Y-1523050D01*
X1777248Y-1297289D01*
X1782857Y-1292687D01*
X1830087Y-1257659D01*
X2052866Y-1092434D01*
X2058888Y-1088410D01*
X2347248Y-915574D01*
X2353621Y-912168D01*
X2657522Y-768433D01*
X2664210Y-765663D01*
X2980747Y-652404D01*
X2987658Y-650307D01*
X3313755Y-568625D01*
X3320869Y-567209D01*
X3653407Y-517882D01*
X3660601Y-517173D01*
X3998188Y-500588D01*
X4001819Y-500500D01*
X4065892Y-500500D01*
X38926000Y-500500D01*
X38978326Y-522174D01*
G37*
%TD.AperFunction*%
%TA.AperFunction,Conductor*%
G36*
X70614413Y-10067774D02*
G01*
X73037833Y-12491194D01*
X73059507Y-12543520D01*
X73037833Y-12595846D01*
X73022507Y-12607606D01*
X72928086Y-12662120D01*
X72879781Y-12710426D01*
X72827455Y-12732100D01*
X60764248Y-12732100D01*
X60764240Y-12732099D01*
X60755628Y-12732099D01*
X60655973Y-12732099D01*
X60611622Y-12750470D01*
X60607837Y-12752038D01*
X60607835Y-12752039D01*
X60569874Y-12767762D01*
X60513237Y-12767760D01*
X60473189Y-12727711D01*
X60470081Y-12718557D01*
X60447107Y-12632813D01*
X60394380Y-12541487D01*
X60319813Y-12466920D01*
X60309573Y-12461008D01*
X60228491Y-12414195D01*
X60228482Y-12414191D01*
X60126629Y-12386900D01*
X60126627Y-12386900D01*
X60021173Y-12386900D01*
X60021171Y-12386900D01*
X59919317Y-12414191D01*
X59919308Y-12414195D01*
X59827986Y-12466920D01*
X59753420Y-12541486D01*
X59700695Y-12632808D01*
X59700691Y-12632817D01*
X59673400Y-12734670D01*
X59673400Y-12802987D01*
X59651726Y-12855313D01*
X59167113Y-13339926D01*
X59114787Y-13361600D01*
X37864845Y-13361600D01*
X37812519Y-13339926D01*
X37790845Y-13287600D01*
X37812519Y-13235274D01*
X37836193Y-13211600D01*
X37870880Y-13176913D01*
X37923607Y-13085587D01*
X37950899Y-12983729D01*
X37950900Y-12983729D01*
X37950900Y-12878271D01*
X37950899Y-12878270D01*
X37923607Y-12776413D01*
X37920012Y-12770187D01*
X37908629Y-12750470D01*
X42110500Y-12750470D01*
X42110500Y-12855929D01*
X42137791Y-12957782D01*
X42137795Y-12957791D01*
X42153159Y-12984402D01*
X42190520Y-13049113D01*
X42265087Y-13123680D01*
X42356413Y-13176407D01*
X42458270Y-13203699D01*
X42458271Y-13203700D01*
X42458273Y-13203700D01*
X42563729Y-13203700D01*
X42563729Y-13203699D01*
X42665587Y-13176407D01*
X42756913Y-13123680D01*
X42831480Y-13049113D01*
X42884207Y-12957787D01*
X42911499Y-12855929D01*
X42911500Y-12855929D01*
X42911500Y-12750471D01*
X42911499Y-12750470D01*
X42907265Y-12734670D01*
X42884207Y-12648613D01*
X42831480Y-12557287D01*
X42756913Y-12482720D01*
X42719322Y-12461017D01*
X42665591Y-12429995D01*
X42665582Y-12429991D01*
X42563729Y-12402700D01*
X42563727Y-12402700D01*
X42458273Y-12402700D01*
X42458271Y-12402700D01*
X42356417Y-12429991D01*
X42356408Y-12429995D01*
X42265086Y-12482720D01*
X42190520Y-12557286D01*
X42137795Y-12648608D01*
X42137791Y-12648617D01*
X42110500Y-12750470D01*
X37908629Y-12750470D01*
X37895489Y-12727711D01*
X37870880Y-12685087D01*
X37796313Y-12610520D01*
X37713781Y-12562870D01*
X37704991Y-12557795D01*
X37704982Y-12557791D01*
X37603129Y-12530500D01*
X37603127Y-12530500D01*
X37497673Y-12530500D01*
X37497671Y-12530500D01*
X37395817Y-12557791D01*
X37395808Y-12557795D01*
X37304486Y-12610520D01*
X37256181Y-12658826D01*
X37203855Y-12680500D01*
X34778000Y-12680500D01*
X34725674Y-12658826D01*
X34704000Y-12606500D01*
X34704000Y-12600012D01*
X34725674Y-12547686D01*
X35911286Y-11362074D01*
X35963612Y-11340400D01*
X49010384Y-11340400D01*
X49062710Y-11362074D01*
X49084384Y-11414400D01*
X49071442Y-11452519D01*
X49072945Y-11453387D01*
X49017795Y-11548908D01*
X49017791Y-11548917D01*
X48990500Y-11650770D01*
X48990500Y-11756229D01*
X49017791Y-11858082D01*
X49017795Y-11858091D01*
X49050309Y-11914407D01*
X49070520Y-11949413D01*
X49145087Y-12023980D01*
X49236413Y-12076707D01*
X49338270Y-12103999D01*
X49338271Y-12104000D01*
X49338273Y-12104000D01*
X49443729Y-12104000D01*
X49443729Y-12103999D01*
X49545587Y-12076707D01*
X49636913Y-12023980D01*
X49711480Y-11949413D01*
X49764207Y-11858087D01*
X49791499Y-11756229D01*
X49791500Y-11756229D01*
X49791500Y-11650771D01*
X49791499Y-11650770D01*
X49764208Y-11548917D01*
X49764207Y-11548913D01*
X49711480Y-11457587D01*
X49711479Y-11457586D01*
X49709055Y-11453387D01*
X49710986Y-11452271D01*
X49698248Y-11404749D01*
X49726562Y-11355696D01*
X49771616Y-11340400D01*
X52460655Y-11340400D01*
X52512981Y-11362074D01*
X52561287Y-11410380D01*
X52652613Y-11463107D01*
X52754470Y-11490399D01*
X52754471Y-11490400D01*
X52754473Y-11490400D01*
X52859929Y-11490400D01*
X52859929Y-11490399D01*
X52961787Y-11463107D01*
X53053113Y-11410380D01*
X53127680Y-11335813D01*
X53180407Y-11244487D01*
X53207699Y-11142629D01*
X53207700Y-11142629D01*
X53207700Y-11037171D01*
X53207699Y-11037170D01*
X53183907Y-10948376D01*
X53180407Y-10935313D01*
X53179689Y-10934070D01*
X68763400Y-10934070D01*
X68763400Y-11039529D01*
X68790691Y-11141382D01*
X68790695Y-11141391D01*
X68806053Y-11167991D01*
X68843420Y-11232713D01*
X68917987Y-11307280D01*
X69009313Y-11360007D01*
X69111170Y-11387299D01*
X69111171Y-11387300D01*
X69111173Y-11387300D01*
X69216629Y-11387300D01*
X69216629Y-11387299D01*
X69318487Y-11360007D01*
X69409813Y-11307280D01*
X69484380Y-11232713D01*
X69537107Y-11141387D01*
X69564399Y-11039529D01*
X69564400Y-11039529D01*
X69564400Y-10934071D01*
X69564399Y-10934070D01*
X69542516Y-10852402D01*
X69537107Y-10832213D01*
X69484380Y-10740887D01*
X69409813Y-10666320D01*
X69329723Y-10620080D01*
X69318491Y-10613595D01*
X69318482Y-10613591D01*
X69216629Y-10586300D01*
X69216627Y-10586300D01*
X69111173Y-10586300D01*
X69111171Y-10586300D01*
X69009317Y-10613591D01*
X69009308Y-10613595D01*
X68917986Y-10666320D01*
X68843420Y-10740886D01*
X68790695Y-10832208D01*
X68790691Y-10832217D01*
X68763400Y-10934070D01*
X53179689Y-10934070D01*
X53127680Y-10843987D01*
X53079606Y-10795913D01*
X53057932Y-10743587D01*
X53079606Y-10691261D01*
X53112779Y-10672109D01*
X53118387Y-10670607D01*
X53209713Y-10617880D01*
X53284280Y-10543313D01*
X53337007Y-10451987D01*
X53364299Y-10350129D01*
X53364300Y-10350129D01*
X53364300Y-10244671D01*
X53364299Y-10244670D01*
X53355177Y-10210627D01*
X53337007Y-10142813D01*
X53337006Y-10142812D01*
X53336053Y-10139253D01*
X53343445Y-10083100D01*
X53388378Y-10048622D01*
X53407531Y-10046100D01*
X70562087Y-10046100D01*
X70614413Y-10067774D01*
G37*
%TD.AperFunction*%
%TA.AperFunction,Conductor*%
G36*
X52572395Y-10067774D02*
G01*
X52594069Y-10120100D01*
X52591547Y-10139253D01*
X52563300Y-10244670D01*
X52563300Y-10350129D01*
X52590591Y-10451982D01*
X52590595Y-10451991D01*
X52643320Y-10543313D01*
X52691393Y-10591386D01*
X52713067Y-10643712D01*
X52691393Y-10696038D01*
X52658223Y-10715189D01*
X52652613Y-10716693D01*
X52652608Y-10716695D01*
X52561286Y-10769420D01*
X52512981Y-10817726D01*
X52460655Y-10839400D01*
X42143339Y-10839400D01*
X42091013Y-10817726D01*
X42069339Y-10765400D01*
X42091013Y-10713074D01*
X42124186Y-10693922D01*
X42174858Y-10680344D01*
X42202987Y-10672807D01*
X42294313Y-10620080D01*
X42368880Y-10545513D01*
X42421607Y-10454187D01*
X42448899Y-10352329D01*
X42448900Y-10352329D01*
X42448900Y-10246871D01*
X42448899Y-10246870D01*
X42448310Y-10244673D01*
X42421607Y-10145013D01*
X42420352Y-10140329D01*
X42423021Y-10139613D01*
X42423010Y-10091798D01*
X42463049Y-10051740D01*
X42491384Y-10046100D01*
X52520069Y-10046100D01*
X52572395Y-10067774D01*
G37*
%TD.AperFunction*%
%TD*%
M02*
