%TF.GenerationSoftware,KiCad,Pcbnew,10.0.6-1.fc44*%
%TF.CreationDate,2026-09-10T12:40:03+07:00*%
%TF.ProjectId,poket,706f6b65-742e-46b6-9963-61645f706362,rev?*%
%TF.SameCoordinates,Original*%
%TF.FileFunction,Legend,Top*%
%TF.FilePolarity,Positive*%
%FSLAX46Y46*%
G04 Gerber Fmt 4.6, Leading zero omitted, Abs format (unit mm)*
G04 Created by KiCad (PCBNEW 10.0.6-1.fc44) date 2026-09-10 12:40:03*
%MOMM*%
%LPD*%
G01*
G04 APERTURE LIST*
%ADD10C,0.200000*%
%ADD11C,0.150000*%
%ADD12C,0.120000*%
G04 APERTURE END LIST*
D10*
X29900000Y-51044742D02*
X29900000Y-49844742D01*
X29900000Y-49844742D02*
X30357143Y-49844742D01*
X30357143Y-49844742D02*
X30471428Y-49901885D01*
X30471428Y-49901885D02*
X30528571Y-49959028D01*
X30528571Y-49959028D02*
X30585714Y-50073314D01*
X30585714Y-50073314D02*
X30585714Y-50244742D01*
X30585714Y-50244742D02*
X30528571Y-50359028D01*
X30528571Y-50359028D02*
X30471428Y-50416171D01*
X30471428Y-50416171D02*
X30357143Y-50473314D01*
X30357143Y-50473314D02*
X29900000Y-50473314D01*
X30985714Y-49844742D02*
X31271428Y-51044742D01*
X31271428Y-51044742D02*
X31500000Y-50187600D01*
X31500000Y-50187600D02*
X31728571Y-51044742D01*
X31728571Y-51044742D02*
X32014286Y-49844742D01*
X33157143Y-51044742D02*
X32757143Y-50473314D01*
X32471429Y-51044742D02*
X32471429Y-49844742D01*
X32471429Y-49844742D02*
X32928572Y-49844742D01*
X32928572Y-49844742D02*
X33042857Y-49901885D01*
X33042857Y-49901885D02*
X33100000Y-49959028D01*
X33100000Y-49959028D02*
X33157143Y-50073314D01*
X33157143Y-50073314D02*
X33157143Y-50244742D01*
X33157143Y-50244742D02*
X33100000Y-50359028D01*
X33100000Y-50359028D02*
X33042857Y-50416171D01*
X33042857Y-50416171D02*
X32928572Y-50473314D01*
X32928572Y-50473314D02*
X32471429Y-50473314D01*
X57142857Y-43544742D02*
X57142857Y-44516171D01*
X57142857Y-44516171D02*
X57200000Y-44630457D01*
X57200000Y-44630457D02*
X57257143Y-44687600D01*
X57257143Y-44687600D02*
X57371428Y-44744742D01*
X57371428Y-44744742D02*
X57600000Y-44744742D01*
X57600000Y-44744742D02*
X57714285Y-44687600D01*
X57714285Y-44687600D02*
X57771428Y-44630457D01*
X57771428Y-44630457D02*
X57828571Y-44516171D01*
X57828571Y-44516171D02*
X57828571Y-43544742D01*
X58342857Y-44687600D02*
X58514286Y-44744742D01*
X58514286Y-44744742D02*
X58800000Y-44744742D01*
X58800000Y-44744742D02*
X58914286Y-44687600D01*
X58914286Y-44687600D02*
X58971428Y-44630457D01*
X58971428Y-44630457D02*
X59028571Y-44516171D01*
X59028571Y-44516171D02*
X59028571Y-44401885D01*
X59028571Y-44401885D02*
X58971428Y-44287600D01*
X58971428Y-44287600D02*
X58914286Y-44230457D01*
X58914286Y-44230457D02*
X58800000Y-44173314D01*
X58800000Y-44173314D02*
X58571428Y-44116171D01*
X58571428Y-44116171D02*
X58457143Y-44059028D01*
X58457143Y-44059028D02*
X58400000Y-44001885D01*
X58400000Y-44001885D02*
X58342857Y-43887600D01*
X58342857Y-43887600D02*
X58342857Y-43773314D01*
X58342857Y-43773314D02*
X58400000Y-43659028D01*
X58400000Y-43659028D02*
X58457143Y-43601885D01*
X58457143Y-43601885D02*
X58571428Y-43544742D01*
X58571428Y-43544742D02*
X58857143Y-43544742D01*
X58857143Y-43544742D02*
X59028571Y-43601885D01*
X59942857Y-44116171D02*
X60114285Y-44173314D01*
X60114285Y-44173314D02*
X60171428Y-44230457D01*
X60171428Y-44230457D02*
X60228571Y-44344742D01*
X60228571Y-44344742D02*
X60228571Y-44516171D01*
X60228571Y-44516171D02*
X60171428Y-44630457D01*
X60171428Y-44630457D02*
X60114285Y-44687600D01*
X60114285Y-44687600D02*
X60000000Y-44744742D01*
X60000000Y-44744742D02*
X59542857Y-44744742D01*
X59542857Y-44744742D02*
X59542857Y-43544742D01*
X59542857Y-43544742D02*
X59942857Y-43544742D01*
X59942857Y-43544742D02*
X60057143Y-43601885D01*
X60057143Y-43601885D02*
X60114285Y-43659028D01*
X60114285Y-43659028D02*
X60171428Y-43773314D01*
X60171428Y-43773314D02*
X60171428Y-43887600D01*
X60171428Y-43887600D02*
X60114285Y-44001885D01*
X60114285Y-44001885D02*
X60057143Y-44059028D01*
X60057143Y-44059028D02*
X59942857Y-44116171D01*
X59942857Y-44116171D02*
X59542857Y-44116171D01*
X60742857Y-44287600D02*
X61657143Y-44287600D01*
X62914285Y-44630457D02*
X62857142Y-44687600D01*
X62857142Y-44687600D02*
X62685714Y-44744742D01*
X62685714Y-44744742D02*
X62571428Y-44744742D01*
X62571428Y-44744742D02*
X62399999Y-44687600D01*
X62399999Y-44687600D02*
X62285714Y-44573314D01*
X62285714Y-44573314D02*
X62228571Y-44459028D01*
X62228571Y-44459028D02*
X62171428Y-44230457D01*
X62171428Y-44230457D02*
X62171428Y-44059028D01*
X62171428Y-44059028D02*
X62228571Y-43830457D01*
X62228571Y-43830457D02*
X62285714Y-43716171D01*
X62285714Y-43716171D02*
X62399999Y-43601885D01*
X62399999Y-43601885D02*
X62571428Y-43544742D01*
X62571428Y-43544742D02*
X62685714Y-43544742D01*
X62685714Y-43544742D02*
X62857142Y-43601885D01*
X62857142Y-43601885D02*
X62914285Y-43659028D01*
D11*
X11766666Y1745180D02*
X11766666Y1030895D01*
X11766666Y1030895D02*
X11719047Y888038D01*
X11719047Y888038D02*
X11623809Y792800D01*
X11623809Y792800D02*
X11480952Y745180D01*
X11480952Y745180D02*
X11385714Y745180D01*
X12147619Y1745180D02*
X12766666Y1745180D01*
X12766666Y1745180D02*
X12433333Y1364228D01*
X12433333Y1364228D02*
X12576190Y1364228D01*
X12576190Y1364228D02*
X12671428Y1316609D01*
X12671428Y1316609D02*
X12719047Y1268990D01*
X12719047Y1268990D02*
X12766666Y1173752D01*
X12766666Y1173752D02*
X12766666Y935657D01*
X12766666Y935657D02*
X12719047Y840419D01*
X12719047Y840419D02*
X12671428Y792800D01*
X12671428Y792800D02*
X12576190Y745180D01*
X12576190Y745180D02*
X12290476Y745180D01*
X12290476Y745180D02*
X12195238Y792800D01*
X12195238Y792800D02*
X12147619Y840419D01*
X39238095Y-8624819D02*
X39238095Y-9434342D01*
X39238095Y-9434342D02*
X39285714Y-9529580D01*
X39285714Y-9529580D02*
X39333333Y-9577200D01*
X39333333Y-9577200D02*
X39428571Y-9624819D01*
X39428571Y-9624819D02*
X39619047Y-9624819D01*
X39619047Y-9624819D02*
X39714285Y-9577200D01*
X39714285Y-9577200D02*
X39761904Y-9529580D01*
X39761904Y-9529580D02*
X39809523Y-9434342D01*
X39809523Y-9434342D02*
X39809523Y-8624819D01*
X40761904Y-8624819D02*
X40285714Y-8624819D01*
X40285714Y-8624819D02*
X40238095Y-9101009D01*
X40238095Y-9101009D02*
X40285714Y-9053390D01*
X40285714Y-9053390D02*
X40380952Y-9005771D01*
X40380952Y-9005771D02*
X40619047Y-9005771D01*
X40619047Y-9005771D02*
X40714285Y-9053390D01*
X40714285Y-9053390D02*
X40761904Y-9101009D01*
X40761904Y-9101009D02*
X40809523Y-9196247D01*
X40809523Y-9196247D02*
X40809523Y-9434342D01*
X40809523Y-9434342D02*
X40761904Y-9529580D01*
X40761904Y-9529580D02*
X40714285Y-9577200D01*
X40714285Y-9577200D02*
X40619047Y-9624819D01*
X40619047Y-9624819D02*
X40380952Y-9624819D01*
X40380952Y-9624819D02*
X40285714Y-9577200D01*
X40285714Y-9577200D02*
X40238095Y-9529580D01*
X27238095Y-7254819D02*
X27238095Y-8064342D01*
X27238095Y-8064342D02*
X27285714Y-8159580D01*
X27285714Y-8159580D02*
X27333333Y-8207200D01*
X27333333Y-8207200D02*
X27428571Y-8254819D01*
X27428571Y-8254819D02*
X27619047Y-8254819D01*
X27619047Y-8254819D02*
X27714285Y-8207200D01*
X27714285Y-8207200D02*
X27761904Y-8159580D01*
X27761904Y-8159580D02*
X27809523Y-8064342D01*
X27809523Y-8064342D02*
X27809523Y-7254819D01*
X28714285Y-7588152D02*
X28714285Y-8254819D01*
X28476190Y-7207200D02*
X28238095Y-7921485D01*
X28238095Y-7921485D02*
X28857142Y-7921485D01*
X51954819Y-27161904D02*
X52764342Y-27161904D01*
X52764342Y-27161904D02*
X52859580Y-27114285D01*
X52859580Y-27114285D02*
X52907200Y-27066666D01*
X52907200Y-27066666D02*
X52954819Y-26971428D01*
X52954819Y-26971428D02*
X52954819Y-26780952D01*
X52954819Y-26780952D02*
X52907200Y-26685714D01*
X52907200Y-26685714D02*
X52859580Y-26638095D01*
X52859580Y-26638095D02*
X52764342Y-26590476D01*
X52764342Y-26590476D02*
X51954819Y-26590476D01*
X52954819Y-25590476D02*
X52954819Y-26161904D01*
X52954819Y-25876190D02*
X51954819Y-25876190D01*
X51954819Y-25876190D02*
X52097676Y-25971428D01*
X52097676Y-25971428D02*
X52192914Y-26066666D01*
X52192914Y-26066666D02*
X52240533Y-26161904D01*
X22666667Y-47707200D02*
X22809524Y-47754819D01*
X22809524Y-47754819D02*
X23047619Y-47754819D01*
X23047619Y-47754819D02*
X23142857Y-47707200D01*
X23142857Y-47707200D02*
X23190476Y-47659580D01*
X23190476Y-47659580D02*
X23238095Y-47564342D01*
X23238095Y-47564342D02*
X23238095Y-47469104D01*
X23238095Y-47469104D02*
X23190476Y-47373866D01*
X23190476Y-47373866D02*
X23142857Y-47326247D01*
X23142857Y-47326247D02*
X23047619Y-47278628D01*
X23047619Y-47278628D02*
X22857143Y-47231009D01*
X22857143Y-47231009D02*
X22761905Y-47183390D01*
X22761905Y-47183390D02*
X22714286Y-47135771D01*
X22714286Y-47135771D02*
X22666667Y-47040533D01*
X22666667Y-47040533D02*
X22666667Y-46945295D01*
X22666667Y-46945295D02*
X22714286Y-46850057D01*
X22714286Y-46850057D02*
X22761905Y-46802438D01*
X22761905Y-46802438D02*
X22857143Y-46754819D01*
X22857143Y-46754819D02*
X23095238Y-46754819D01*
X23095238Y-46754819D02*
X23238095Y-46802438D01*
X23571429Y-46754819D02*
X23809524Y-47754819D01*
X23809524Y-47754819D02*
X24000000Y-47040533D01*
X24000000Y-47040533D02*
X24190476Y-47754819D01*
X24190476Y-47754819D02*
X24428572Y-46754819D01*
X24714286Y-46754819D02*
X25380952Y-46754819D01*
X25380952Y-46754819D02*
X24952381Y-47754819D01*
X73737394Y-28937426D02*
X73737394Y-29746949D01*
X73737394Y-29746949D02*
X73785013Y-29842187D01*
X73785013Y-29842187D02*
X73832632Y-29889807D01*
X73832632Y-29889807D02*
X73927870Y-29937426D01*
X73927870Y-29937426D02*
X74118346Y-29937426D01*
X74118346Y-29937426D02*
X74213584Y-29889807D01*
X74213584Y-29889807D02*
X74261203Y-29842187D01*
X74261203Y-29842187D02*
X74308822Y-29746949D01*
X74308822Y-29746949D02*
X74308822Y-28937426D01*
X75213584Y-28937426D02*
X75023108Y-28937426D01*
X75023108Y-28937426D02*
X74927870Y-28985045D01*
X74927870Y-28985045D02*
X74880251Y-29032664D01*
X74880251Y-29032664D02*
X74785013Y-29175521D01*
X74785013Y-29175521D02*
X74737394Y-29365997D01*
X74737394Y-29365997D02*
X74737394Y-29746949D01*
X74737394Y-29746949D02*
X74785013Y-29842187D01*
X74785013Y-29842187D02*
X74832632Y-29889807D01*
X74832632Y-29889807D02*
X74927870Y-29937426D01*
X74927870Y-29937426D02*
X75118346Y-29937426D01*
X75118346Y-29937426D02*
X75213584Y-29889807D01*
X75213584Y-29889807D02*
X75261203Y-29842187D01*
X75261203Y-29842187D02*
X75308822Y-29746949D01*
X75308822Y-29746949D02*
X75308822Y-29508854D01*
X75308822Y-29508854D02*
X75261203Y-29413616D01*
X75261203Y-29413616D02*
X75213584Y-29365997D01*
X75213584Y-29365997D02*
X75118346Y-29318378D01*
X75118346Y-29318378D02*
X74927870Y-29318378D01*
X74927870Y-29318378D02*
X74832632Y-29365997D01*
X74832632Y-29365997D02*
X74785013Y-29413616D01*
X74785013Y-29413616D02*
X74737394Y-29508854D01*
X11666666Y-42454819D02*
X11666666Y-43169104D01*
X11666666Y-43169104D02*
X11619047Y-43311961D01*
X11619047Y-43311961D02*
X11523809Y-43407200D01*
X11523809Y-43407200D02*
X11380952Y-43454819D01*
X11380952Y-43454819D02*
X11285714Y-43454819D01*
X12619047Y-42454819D02*
X12142857Y-42454819D01*
X12142857Y-42454819D02*
X12095238Y-42931009D01*
X12095238Y-42931009D02*
X12142857Y-42883390D01*
X12142857Y-42883390D02*
X12238095Y-42835771D01*
X12238095Y-42835771D02*
X12476190Y-42835771D01*
X12476190Y-42835771D02*
X12571428Y-42883390D01*
X12571428Y-42883390D02*
X12619047Y-42931009D01*
X12619047Y-42931009D02*
X12666666Y-43026247D01*
X12666666Y-43026247D02*
X12666666Y-43264342D01*
X12666666Y-43264342D02*
X12619047Y-43359580D01*
X12619047Y-43359580D02*
X12571428Y-43407200D01*
X12571428Y-43407200D02*
X12476190Y-43454819D01*
X12476190Y-43454819D02*
X12238095Y-43454819D01*
X12238095Y-43454819D02*
X12142857Y-43407200D01*
X12142857Y-43407200D02*
X12095238Y-43359580D01*
X27074819Y-36333333D02*
X27789104Y-36333333D01*
X27789104Y-36333333D02*
X27931961Y-36380952D01*
X27931961Y-36380952D02*
X28027200Y-36476190D01*
X28027200Y-36476190D02*
X28074819Y-36619047D01*
X28074819Y-36619047D02*
X28074819Y-36714285D01*
X27074819Y-35428571D02*
X27074819Y-35619047D01*
X27074819Y-35619047D02*
X27122438Y-35714285D01*
X27122438Y-35714285D02*
X27170057Y-35761904D01*
X27170057Y-35761904D02*
X27312914Y-35857142D01*
X27312914Y-35857142D02*
X27503390Y-35904761D01*
X27503390Y-35904761D02*
X27884342Y-35904761D01*
X27884342Y-35904761D02*
X27979580Y-35857142D01*
X27979580Y-35857142D02*
X28027200Y-35809523D01*
X28027200Y-35809523D02*
X28074819Y-35714285D01*
X28074819Y-35714285D02*
X28074819Y-35523809D01*
X28074819Y-35523809D02*
X28027200Y-35428571D01*
X28027200Y-35428571D02*
X27979580Y-35380952D01*
X27979580Y-35380952D02*
X27884342Y-35333333D01*
X27884342Y-35333333D02*
X27646247Y-35333333D01*
X27646247Y-35333333D02*
X27551009Y-35380952D01*
X27551009Y-35380952D02*
X27503390Y-35428571D01*
X27503390Y-35428571D02*
X27455771Y-35523809D01*
X27455771Y-35523809D02*
X27455771Y-35714285D01*
X27455771Y-35714285D02*
X27503390Y-35809523D01*
X27503390Y-35809523D02*
X27551009Y-35857142D01*
X27551009Y-35857142D02*
X27646247Y-35904761D01*
X20074819Y-5833333D02*
X20789104Y-5833333D01*
X20789104Y-5833333D02*
X20931961Y-5880952D01*
X20931961Y-5880952D02*
X21027200Y-5976190D01*
X21027200Y-5976190D02*
X21074819Y-6119047D01*
X21074819Y-6119047D02*
X21074819Y-6214285D01*
X20408152Y-4928571D02*
X21074819Y-4928571D01*
X20027200Y-5166666D02*
X20741485Y-5404761D01*
X20741485Y-5404761D02*
X20741485Y-4785714D01*
X51738095Y-42554819D02*
X51738095Y-43364342D01*
X51738095Y-43364342D02*
X51785714Y-43459580D01*
X51785714Y-43459580D02*
X51833333Y-43507200D01*
X51833333Y-43507200D02*
X51928571Y-43554819D01*
X51928571Y-43554819D02*
X52119047Y-43554819D01*
X52119047Y-43554819D02*
X52214285Y-43507200D01*
X52214285Y-43507200D02*
X52261904Y-43459580D01*
X52261904Y-43459580D02*
X52309523Y-43364342D01*
X52309523Y-43364342D02*
X52309523Y-42554819D01*
X52690476Y-42554819D02*
X53357142Y-42554819D01*
X53357142Y-42554819D02*
X52928571Y-43554819D01*
%TO.C,SW4*%
D12*
X38850000Y-41019000D02*
X40000000Y-39850000D01*
X38850000Y-41700000D02*
X38850000Y-41019000D01*
X38850000Y-44300000D02*
X38850000Y-45000000D01*
X38850000Y-45000000D02*
X40000000Y-46150000D01*
X40000000Y-39850000D02*
X44000000Y-39850000D01*
X40000000Y-46150000D02*
X44000000Y-46150000D01*
X44000000Y-39850000D02*
X45150000Y-41000000D01*
X44000000Y-46150000D02*
X45150000Y-45000000D01*
X45150000Y-41000000D02*
X45150000Y-41700000D01*
X45150000Y-45000000D02*
X45150000Y-44300000D01*
%TO.C,C6*%
X15859420Y-23490000D02*
X16140580Y-23490000D01*
X15859420Y-24510000D02*
X16140580Y-24510000D01*
%TO.C,J3*%
X7880000Y-3930000D02*
X9780000Y-3930000D01*
X7880000Y-18170000D02*
X7880000Y-3930000D01*
X16020000Y-3930000D02*
X16320000Y-3930000D01*
X16320000Y-3930000D02*
X16320000Y-18170000D01*
X16320000Y-18170000D02*
X7880000Y-18170000D01*
%TO.C,C28*%
X71359420Y-35490000D02*
X71640580Y-35490000D01*
X71359420Y-36510000D02*
X71640580Y-36510000D01*
%TO.C,U5*%
X38390000Y-10390000D02*
X38865000Y-10390000D01*
X38390000Y-10865000D02*
X38390000Y-10390000D01*
X38390000Y-13610000D02*
X38390000Y-13135000D01*
X38865000Y-13610000D02*
X38390000Y-13610000D01*
X41135000Y-10390000D02*
X41610000Y-10390000D01*
X41610000Y-10390000D02*
X41610000Y-10865000D01*
X41610000Y-13135000D02*
X41610000Y-13610000D01*
X41610000Y-13610000D02*
X41135000Y-13610000D01*
X37860000Y-11250000D02*
X37530000Y-11490000D01*
X37530000Y-11010000D01*
X37860000Y-11250000D01*
G36*
X37860000Y-11250000D02*
G01*
X37530000Y-11490000D01*
X37530000Y-11010000D01*
X37860000Y-11250000D01*
G37*
%TO.C,U4*%
X25690000Y-8615000D02*
X30310000Y-8615000D01*
X30310000Y-15385000D02*
X25690000Y-15385000D01*
X24140000Y-9070000D02*
X23810000Y-9310000D01*
X23810000Y-8830000D01*
X24140000Y-9070000D01*
G36*
X24140000Y-9070000D02*
G01*
X23810000Y-9310000D01*
X23810000Y-8830000D01*
X24140000Y-9070000D01*
G37*
%TO.C,C26*%
X46990000Y-13140580D02*
X46990000Y-12859420D01*
X48010000Y-13140580D02*
X48010000Y-12859420D01*
%TO.C,R21*%
X19262742Y-31477500D02*
X19737258Y-31477500D01*
X19262742Y-32522500D02*
X19737258Y-32522500D01*
%TO.C,C27*%
X40359420Y-48490000D02*
X40640580Y-48490000D01*
X40359420Y-49510000D02*
X40640580Y-49510000D01*
%TO.C,R22*%
X22762742Y-31477500D02*
X23237258Y-31477500D01*
X22762742Y-32522500D02*
X23237258Y-32522500D01*
%TO.C,Q1*%
X7740000Y-30440000D02*
X9260000Y-30440000D01*
X7740000Y-30490000D02*
X7740000Y-30440000D01*
X7740000Y-32390000D02*
X7740000Y-31610000D01*
X7740000Y-33560000D02*
X7740000Y-33510000D01*
X9260000Y-30440000D02*
X9260000Y-31440000D01*
X9260000Y-32560000D02*
X9260000Y-33560000D01*
X9260000Y-33560000D02*
X7740000Y-33560000D01*
X7200000Y-31620000D02*
X7440000Y-31950000D01*
X6960000Y-31950000D01*
X7200000Y-31620000D01*
G36*
X7440000Y-31950000D02*
G01*
X6960000Y-31950000D01*
X7200000Y-31620000D01*
X7440000Y-31950000D01*
G37*
%TO.C,U1*%
X53800000Y-2100000D02*
X53800000Y-8300000D01*
X53800000Y-2100000D02*
X72200000Y-2100000D01*
X53800000Y-26950000D02*
X53800000Y-27950000D01*
X53800000Y-27950000D02*
X55300000Y-27950000D01*
X72200000Y-2100000D02*
X72200000Y-8300000D01*
X72200000Y-27950000D02*
X70700000Y-27950000D01*
X72200000Y-27950000D02*
X72200000Y-26950000D01*
X53800000Y-8975000D02*
X53300000Y-8975000D01*
X53800000Y-8475000D01*
X53800000Y-8975000D01*
G36*
X53800000Y-8975000D02*
G01*
X53300000Y-8975000D01*
X53800000Y-8475000D01*
X53800000Y-8975000D01*
G37*
%TO.C,R1*%
X67762742Y-43477500D02*
X68237258Y-43477500D01*
X67762742Y-44522500D02*
X68237258Y-44522500D01*
%TO.C,R2*%
X67762742Y-46477500D02*
X68237258Y-46477500D01*
X67762742Y-47522500D02*
X68237258Y-47522500D01*
%TO.C,C1*%
X19238748Y-23265000D02*
X19761252Y-23265000D01*
X19238748Y-24735000D02*
X19761252Y-24735000D01*
%TO.C,SW7*%
X20550000Y-50430000D02*
X20550000Y-51220000D01*
X21150000Y-52230000D02*
X26850000Y-52230000D01*
X22400000Y-49380000D02*
X24100000Y-49380000D01*
X22600000Y-52230000D02*
X22600000Y-53520000D01*
X22600000Y-53520000D02*
X22800000Y-53730000D01*
X22800000Y-53730000D02*
X23700000Y-53730000D01*
X23900000Y-53520000D02*
X23700000Y-53730000D01*
X23900000Y-53520000D02*
X23900000Y-52230000D01*
X25400000Y-49380000D02*
X25600000Y-49380000D01*
X27450000Y-51220000D02*
X27450000Y-50430000D01*
%TO.C,C19*%
X32490000Y-16140580D02*
X32490000Y-15859420D01*
X33510000Y-16140580D02*
X33510000Y-15859420D01*
%TO.C,C13*%
X29238748Y-27265000D02*
X29761252Y-27265000D01*
X29238748Y-28735000D02*
X29761252Y-28735000D01*
%TO.C,C4*%
X3738748Y-23265000D02*
X4261252Y-23265000D01*
X3738748Y-24735000D02*
X4261252Y-24735000D01*
%TO.C,R30*%
X36762742Y-31477500D02*
X37237258Y-31477500D01*
X36762742Y-32522500D02*
X37237258Y-32522500D01*
%TO.C,R8*%
X50477500Y-26737258D02*
X50477500Y-26262742D01*
X51522500Y-26737258D02*
X51522500Y-26262742D01*
%TO.C,R4*%
X15762742Y-27477500D02*
X16237258Y-27477500D01*
X15762742Y-28522500D02*
X16237258Y-28522500D01*
%TO.C,C12*%
X25359420Y-27490000D02*
X25640580Y-27490000D01*
X25359420Y-28510000D02*
X25640580Y-28510000D01*
%TO.C,C24*%
X42990000Y-16140580D02*
X42990000Y-15859420D01*
X44010000Y-16140580D02*
X44010000Y-15859420D01*
%TO.C,C3*%
X3738748Y-31265000D02*
X4261252Y-31265000D01*
X3738748Y-32735000D02*
X4261252Y-32735000D01*
%TO.C,SW3*%
X29850000Y-41019000D02*
X31000000Y-39850000D01*
X29850000Y-41700000D02*
X29850000Y-41019000D01*
X29850000Y-44300000D02*
X29850000Y-45000000D01*
X29850000Y-45000000D02*
X31000000Y-46150000D01*
X31000000Y-39850000D02*
X35000000Y-39850000D01*
X31000000Y-46150000D02*
X35000000Y-46150000D01*
X35000000Y-39850000D02*
X36150000Y-41000000D01*
X35000000Y-46150000D02*
X36150000Y-45000000D01*
X36150000Y-41000000D02*
X36150000Y-41700000D01*
X36150000Y-45000000D02*
X36150000Y-44300000D01*
%TO.C,R13*%
X32762742Y-23477500D02*
X33237258Y-23477500D01*
X32762742Y-24522500D02*
X33237258Y-24522500D01*
%TO.C,R27*%
X40262742Y-27477500D02*
X40737258Y-27477500D01*
X40262742Y-28522500D02*
X40737258Y-28522500D01*
%TO.C,U6*%
X72940000Y-30602607D02*
X72570000Y-30602607D01*
X72940000Y-33400000D02*
X72400000Y-33400000D01*
X75140000Y-30600000D02*
X73860000Y-30600000D01*
X75140000Y-33400000D02*
X73860000Y-33400000D01*
X76060000Y-30600000D02*
X76600000Y-30600000D01*
X76060000Y-33400000D02*
X76600000Y-33400000D01*
X72240000Y-30600000D02*
X72000000Y-30270000D01*
X72480000Y-30270000D01*
X72240000Y-30600000D01*
G36*
X72240000Y-30600000D02*
G01*
X72000000Y-30270000D01*
X72480000Y-30270000D01*
X72240000Y-30600000D01*
G37*
%TO.C,R16*%
X43262742Y-23477500D02*
X43737258Y-23477500D01*
X43262742Y-24522500D02*
X43737258Y-24522500D01*
%TO.C,R10*%
X23262742Y-20477500D02*
X23737258Y-20477500D01*
X23262742Y-21522500D02*
X23737258Y-21522500D01*
%TO.C,C14*%
X21490000Y-9140580D02*
X21490000Y-8859420D01*
X22510000Y-9140580D02*
X22510000Y-8859420D01*
%TO.C,C20*%
X35990000Y-9140580D02*
X35990000Y-8859420D01*
X37010000Y-9140580D02*
X37010000Y-8859420D01*
%TO.C,J5*%
X7940000Y-45490000D02*
X8960000Y-45490000D01*
X7940000Y-49740000D02*
X7940000Y-45490000D01*
X8960000Y-45490000D02*
X8960000Y-47090000D01*
X8960000Y-47090000D02*
X10240000Y-47090000D01*
X9660000Y-53310000D02*
X14340000Y-53310000D01*
X10240000Y-47090000D02*
X10240000Y-44200000D01*
X15040000Y-45490000D02*
X15040000Y-47090000D01*
X15040000Y-47090000D02*
X13760000Y-47090000D01*
X16060000Y-45490000D02*
X15040000Y-45490000D01*
X16060000Y-49740000D02*
X16060000Y-45490000D01*
%TO.C,C2*%
X19359420Y-27490000D02*
X19640580Y-27490000D01*
X19359420Y-28510000D02*
X19640580Y-28510000D01*
%TO.C,U3*%
X7590000Y-22440000D02*
X9410000Y-22440000D01*
X7590000Y-22490000D02*
X7590000Y-22440000D01*
X7590000Y-25560000D02*
X7590000Y-25510000D01*
X9410000Y-22440000D02*
X9410000Y-22490000D01*
X9410000Y-23610000D02*
X9410000Y-24390000D01*
X9410000Y-25510000D02*
X9410000Y-25560000D01*
X9410000Y-25560000D02*
X7590000Y-25560000D01*
X7050000Y-22490000D02*
X6810000Y-22160000D01*
X7290000Y-22160000D01*
X7050000Y-22490000D01*
G36*
X7050000Y-22490000D02*
G01*
X6810000Y-22160000D01*
X7290000Y-22160000D01*
X7050000Y-22490000D01*
G37*
%TO.C,C15*%
X21490000Y-12640580D02*
X21490000Y-12359420D01*
X22510000Y-12640580D02*
X22510000Y-12359420D01*
%TO.C,SW2*%
X20850000Y-41019000D02*
X22000000Y-39850000D01*
X20850000Y-41700000D02*
X20850000Y-41019000D01*
X20850000Y-44300000D02*
X20850000Y-45000000D01*
X20850000Y-45000000D02*
X22000000Y-46150000D01*
X22000000Y-39850000D02*
X26000000Y-39850000D01*
X22000000Y-46150000D02*
X26000000Y-46150000D01*
X26000000Y-39850000D02*
X27150000Y-41000000D01*
X26000000Y-46150000D02*
X27150000Y-45000000D01*
X27150000Y-41000000D02*
X27150000Y-41700000D01*
X27150000Y-45000000D02*
X27150000Y-44300000D01*
%TO.C,C22*%
X42990000Y-9140580D02*
X42990000Y-8859420D01*
X44010000Y-9140580D02*
X44010000Y-8859420D01*
%TO.C,R6*%
X15762742Y-31477500D02*
X16237258Y-31477500D01*
X15762742Y-32522500D02*
X16237258Y-32522500D01*
%TO.C,R3*%
X12262742Y-27477500D02*
X12737258Y-27477500D01*
X12262742Y-28522500D02*
X12737258Y-28522500D01*
%TO.C,SW1*%
X51700000Y-31600000D02*
X52300000Y-31600000D01*
X52000000Y-31900000D02*
X51700000Y-31600000D01*
X52300000Y-31600000D02*
X52000000Y-31900000D01*
X53400000Y-29800000D02*
X53400000Y-41600000D01*
X57500000Y-29800000D02*
X53400000Y-29800000D01*
X57500000Y-41600000D02*
X53400000Y-41600000D01*
X59000000Y-35700000D02*
X60000000Y-35700000D01*
X59500000Y-35200000D02*
X59500000Y-36200000D01*
X61500000Y-29800000D02*
X65600000Y-29800000D01*
X65600000Y-29800000D02*
X65600000Y-32200000D01*
X65600000Y-34400000D02*
X65600000Y-37000000D01*
X65600000Y-39200000D02*
X65600000Y-41600000D01*
X65600000Y-41600000D02*
X61500000Y-41600000D01*
X62500000Y-35700000D02*
G75*
G02*
X56500000Y-35700000I-3000000J0D01*
G01*
X56500000Y-35700000D02*
G75*
G02*
X62500000Y-35700000I3000000J0D01*
G01*
%TO.C,R20*%
X46977500Y-21237258D02*
X46977500Y-20762742D01*
X48022500Y-21237258D02*
X48022500Y-20762742D01*
%TO.C,C18*%
X32490000Y-12640580D02*
X32490000Y-12359420D01*
X33510000Y-12640580D02*
X33510000Y-12359420D01*
%TO.C,D1*%
X42400000Y-50150000D02*
X42400000Y-48150000D01*
X42400000Y-50150000D02*
X45600000Y-50150000D01*
X42700000Y-47850000D02*
X42400000Y-48150000D01*
X42700000Y-47850000D02*
X45600000Y-47850000D01*
X45600000Y-47850000D02*
X45600000Y-50150000D01*
%TO.C,C9*%
X50265000Y-12261252D02*
X50265000Y-11738748D01*
X51735000Y-12261252D02*
X51735000Y-11738748D01*
%TO.C,R29*%
X33262742Y-31477500D02*
X33737258Y-31477500D01*
X33262742Y-32522500D02*
X33737258Y-32522500D01*
%TO.C,R9*%
X19762742Y-20477500D02*
X20237258Y-20477500D01*
X19762742Y-21522500D02*
X20237258Y-21522500D01*
%TO.C,C8*%
X37859420Y-19490000D02*
X38140580Y-19490000D01*
X37859420Y-20510000D02*
X38140580Y-20510000D01*
%TO.C,C25*%
X46765000Y-9261252D02*
X46765000Y-8738748D01*
X48235000Y-9261252D02*
X48235000Y-8738748D01*
%TO.C,R11*%
X25762742Y-23477500D02*
X26237258Y-23477500D01*
X25762742Y-24522500D02*
X26237258Y-24522500D01*
%TO.C,C16*%
X21265000Y-16761252D02*
X21265000Y-16238748D01*
X22735000Y-16761252D02*
X22735000Y-16238748D01*
%TO.C,J1*%
X55300000Y-48520000D02*
X55300000Y-50300000D01*
X57200000Y-45600000D02*
X56400000Y-45600000D01*
X64700000Y-48520000D02*
X64700000Y-50300000D01*
%TO.C,C17*%
X32490000Y-9140580D02*
X32490000Y-8859420D01*
X33510000Y-9140580D02*
X33510000Y-8859420D01*
%TO.C,D2*%
X46015000Y-48265000D02*
X46015000Y-49735000D01*
X46015000Y-49735000D02*
X48300000Y-49735000D01*
X48300000Y-48265000D02*
X46015000Y-48265000D01*
%TO.C,C21*%
X35990000Y-13140580D02*
X35990000Y-12859420D01*
X37010000Y-13140580D02*
X37010000Y-12859420D01*
%TO.C,C30*%
X43859420Y-27490000D02*
X44140580Y-27490000D01*
X43859420Y-28510000D02*
X44140580Y-28510000D01*
%TO.C,R5*%
X12262742Y-31477500D02*
X12737258Y-31477500D01*
X12262742Y-32522500D02*
X12737258Y-32522500D01*
%TO.C,R18*%
X39762742Y-16477500D02*
X40237258Y-16477500D01*
X39762742Y-17522500D02*
X40237258Y-17522500D01*
%TO.C,R19*%
X46977500Y-17237258D02*
X46977500Y-16762742D01*
X48022500Y-17237258D02*
X48022500Y-16762742D01*
%TO.C,R17*%
X27762742Y-17477500D02*
X28237258Y-17477500D01*
X27762742Y-18522500D02*
X28237258Y-18522500D01*
%TO.C,R25*%
X33262742Y-27477500D02*
X33737258Y-27477500D01*
X33262742Y-28522500D02*
X33737258Y-28522500D01*
%TO.C,R26*%
X36762742Y-27477500D02*
X37237258Y-27477500D01*
X36762742Y-28522500D02*
X37237258Y-28522500D01*
%TO.C,R14*%
X36262742Y-23477500D02*
X36737258Y-23477500D01*
X36262742Y-24522500D02*
X36737258Y-24522500D01*
%TO.C,FB1*%
X27837221Y-20490000D02*
X28162779Y-20490000D01*
X27837221Y-21510000D02*
X28162779Y-21510000D01*
%TO.C,C29*%
X71359420Y-38990000D02*
X71640580Y-38990000D01*
X71359420Y-40010000D02*
X71640580Y-40010000D01*
%TO.C,D3*%
X1140000Y-27000000D02*
X1140000Y-29000000D01*
X1140000Y-27000000D02*
X5150000Y-27000000D01*
X1140000Y-29000000D02*
X5150000Y-29000000D01*
%TO.C,C11*%
X50490000Y-19640580D02*
X50490000Y-19359420D01*
X51510000Y-19640580D02*
X51510000Y-19359420D01*
%TO.C,J6*%
X28620000Y-37380000D02*
X28620000Y-36000000D01*
X30000000Y-37380000D02*
X28620000Y-37380000D01*
X31270000Y-34620000D02*
X39000000Y-34620000D01*
X31270000Y-37380000D02*
X31270000Y-34620000D01*
X31270000Y-37380000D02*
X39000000Y-37380000D01*
X39000000Y-37380000D02*
X39000000Y-34620000D01*
%TO.C,R15*%
X39762742Y-23477500D02*
X40237258Y-23477500D01*
X39762742Y-24522500D02*
X40237258Y-24522500D01*
%TO.C,U2*%
X7590000Y-26440000D02*
X9410000Y-26440000D01*
X7590000Y-26490000D02*
X7590000Y-26440000D01*
X7590000Y-29560000D02*
X7590000Y-29510000D01*
X9410000Y-26440000D02*
X9410000Y-26490000D01*
X9410000Y-27610000D02*
X9410000Y-28390000D01*
X9410000Y-29510000D02*
X9410000Y-29560000D01*
X9410000Y-29560000D02*
X7590000Y-29560000D01*
X7050000Y-26490000D02*
X6810000Y-26160000D01*
X7290000Y-26160000D01*
X7050000Y-26490000D01*
G36*
X7050000Y-26490000D02*
G01*
X6810000Y-26160000D01*
X7290000Y-26160000D01*
X7050000Y-26490000D01*
G37*
%TO.C,J4*%
X21620000Y-6880000D02*
X21620000Y-5500000D01*
X23000000Y-6880000D02*
X21620000Y-6880000D01*
X24270000Y-4120000D02*
X32000000Y-4120000D01*
X24270000Y-6880000D02*
X24270000Y-4120000D01*
X24270000Y-6880000D02*
X32000000Y-6880000D01*
X32000000Y-6880000D02*
X32000000Y-4120000D01*
%TO.C,C5*%
X12238748Y-23265000D02*
X12761252Y-23265000D01*
X12238748Y-24735000D02*
X12761252Y-24735000D01*
%TO.C,C23*%
X42990000Y-12640580D02*
X42990000Y-12359420D01*
X44010000Y-12640580D02*
X44010000Y-12359420D01*
%TO.C,C7*%
X32738748Y-19265000D02*
X33261252Y-19265000D01*
X32738748Y-20735000D02*
X33261252Y-20735000D01*
%TO.C,R23*%
X76262742Y-35477500D02*
X76737258Y-35477500D01*
X76262742Y-36522500D02*
X76737258Y-36522500D01*
%TO.C,C31*%
X26359420Y-31490000D02*
X26640580Y-31490000D01*
X26359420Y-32510000D02*
X26640580Y-32510000D01*
%TO.C,R24*%
X75772936Y-39090000D02*
X77227064Y-39090000D01*
X75772936Y-40910000D02*
X77227064Y-40910000D01*
%TO.C,R12*%
X29262742Y-23477500D02*
X29737258Y-23477500D01*
X29262742Y-24522500D02*
X29737258Y-24522500D01*
%TO.C,R7*%
X50477500Y-23237258D02*
X50477500Y-22762742D01*
X51522500Y-23237258D02*
X51522500Y-22762742D01*
%TO.C,R28*%
X29762742Y-31477500D02*
X30237258Y-31477500D01*
X29762742Y-32522500D02*
X30237258Y-32522500D01*
%TO.C,C10*%
X50490000Y-16140580D02*
X50490000Y-15859420D01*
X51510000Y-16140580D02*
X51510000Y-15859420D01*
%TO.C,U7*%
X51590000Y-43940000D02*
X53410000Y-43940000D01*
X51590000Y-43990000D02*
X51590000Y-43940000D01*
X51590000Y-47060000D02*
X51590000Y-47010000D01*
X53410000Y-43940000D02*
X53410000Y-43990000D01*
X53410000Y-47010000D02*
X53410000Y-47060000D01*
X53410000Y-47060000D02*
X51590000Y-47060000D01*
X51050000Y-43990000D02*
X50810000Y-43660000D01*
X51290000Y-43660000D01*
X51050000Y-43990000D01*
G36*
X51050000Y-43990000D02*
G01*
X50810000Y-43660000D01*
X51290000Y-43660000D01*
X51050000Y-43990000D01*
G37*
%TD*%
M02*
