%TF.GenerationSoftware,KiCad,Pcbnew,10.0.6-1.fc44*%
%TF.CreationDate,2026-09-10T12:40:03+07:00*%
%TF.ProjectId,poket,706f6b65-742e-46b6-9963-61645f706362,rev?*%
%TF.SameCoordinates,Original*%
%TF.FileFunction,Copper,L2,Inr*%
%TF.FilePolarity,Positive*%
%FSLAX46Y46*%
G04 Gerber Fmt 4.6, Leading zero omitted, Abs format (unit mm)*
G04 Created by KiCad (PCBNEW 10.0.6-1.fc44) date 2026-09-10 12:40:03*
%MOMM*%
%LPD*%
G01*
G04 APERTURE LIST*
%TA.AperFunction,ComponentPad*%
%ADD10O,2.800000X1.800000*%
%TD*%
%TA.AperFunction,HeatsinkPad*%
%ADD11C,0.600000*%
%TD*%
%TA.AperFunction,HeatsinkPad*%
%ADD12C,0.500000*%
%TD*%
%TA.AperFunction,ComponentPad*%
%ADD13R,2.000000X2.000000*%
%TD*%
%TA.AperFunction,ComponentPad*%
%ADD14C,2.000000*%
%TD*%
%TA.AperFunction,ComponentPad*%
%ADD15R,3.200000X2.000000*%
%TD*%
%TA.AperFunction,ComponentPad*%
%ADD16O,1.000000X2.100000*%
%TD*%
%TA.AperFunction,ComponentPad*%
%ADD17O,1.000000X1.600000*%
%TD*%
%TA.AperFunction,ComponentPad*%
%ADD18R,1.700000X1.700000*%
%TD*%
%TA.AperFunction,ComponentPad*%
%ADD19C,1.700000*%
%TD*%
%TA.AperFunction,ViaPad*%
%ADD20C,0.600000*%
%TD*%
%TA.AperFunction,ViaPad*%
%ADD21C,0.500000*%
%TD*%
%TA.AperFunction,ViaPad*%
%ADD22C,0.400000*%
%TD*%
%TA.AperFunction,Conductor*%
%ADD23C,0.200000*%
%TD*%
G04 APERTURE END LIST*
D10*
%TO.N,HP_R*%
%TO.C,J3*%
X14000000Y-13150000D03*
%TO.N,N/C*%
X12000000Y-11350000D03*
%TO.N,GND*%
X12000000Y-5250000D03*
%TO.N,HP_L*%
X14000000Y-7650000D03*
%TO.N,JACK_TN*%
X12000000Y-16850000D03*
%TD*%
D11*
%TO.N,GND*%
%TO.C,U1*%
X60100000Y-16760000D03*
X60100000Y-18160000D03*
X60800000Y-16060000D03*
X60800000Y-17460000D03*
X60800000Y-18860000D03*
X61500000Y-16760000D03*
X61500000Y-18160000D03*
X62200000Y-16060000D03*
X62200000Y-17460000D03*
X62200000Y-18860000D03*
X62900000Y-16760000D03*
X62900000Y-18160000D03*
%TD*%
D12*
%TO.N,GND*%
%TO.C,U6*%
X73525000Y-32000000D03*
X74500000Y-31275000D03*
X74500000Y-32000000D03*
X74500000Y-32725000D03*
X75475000Y-32000000D03*
%TD*%
D13*
%TO.N,ENC_A*%
%TO.C,SW1*%
X52000000Y-33200000D03*
D14*
%TO.N,ENC_B*%
X52000000Y-38200000D03*
%TO.N,GND*%
X52000000Y-35700000D03*
D15*
X59500000Y-30100000D03*
X59500000Y-41300000D03*
D14*
%TO.N,ENC_SW*%
X66500000Y-38200000D03*
%TO.N,GND*%
X66500000Y-33200000D03*
%TD*%
D16*
%TO.N,GND*%
%TO.C,J1*%
X55680000Y-47195000D03*
D17*
X55680000Y-51375000D03*
D16*
X64320000Y-47195000D03*
D17*
X64320000Y-51375000D03*
%TD*%
D18*
%TO.N,3V3*%
%TO.C,J6*%
X30000000Y-36000000D03*
D19*
%TO.N,UART_TX*%
X32540000Y-36000000D03*
%TO.N,UART_RX*%
X35080000Y-36000000D03*
%TO.N,GND*%
X37620000Y-36000000D03*
%TD*%
D18*
%TO.N,GND*%
%TO.C,J4*%
X23000000Y-5500000D03*
D19*
%TO.N,3V3*%
X25540000Y-5500000D03*
%TO.N,I2C_SCL*%
X28080000Y-5500000D03*
%TO.N,I2C_SDA*%
X30620000Y-5500000D03*
%TD*%
D20*
%TO.N,BTN_NEXT*%
X68552200Y-22992500D03*
X42926200Y-30637000D03*
D21*
%TO.N,GND*%
X68800000Y-42800000D03*
X1200000Y-48000000D03*
X1200000Y-22000000D03*
X45400000Y-3800000D03*
X68800000Y-50600000D03*
X24600000Y-1200000D03*
D22*
X51172100Y-17952631D03*
D21*
X14200000Y-1200000D03*
X40200000Y-6400000D03*
X76600000Y-16800000D03*
X1200000Y-3800000D03*
X1200000Y-50600000D03*
X42800000Y-1200000D03*
X44616432Y-8153700D03*
X19400000Y-11600000D03*
X50600000Y-3800000D03*
X6400000Y-16800000D03*
X11600000Y-9000000D03*
X3800000Y-40200000D03*
X6400000Y-37600000D03*
X1200000Y-29800000D03*
X19400000Y-1200000D03*
X11600000Y-1200000D03*
X9000000Y-16800000D03*
X6400000Y-1200000D03*
X32400000Y-1200000D03*
X76600000Y-9000000D03*
X71400000Y-45400000D03*
X9000000Y-3800000D03*
X76600000Y-1200000D03*
X1200000Y-32400000D03*
X37600000Y-1200000D03*
X11600000Y-19400000D03*
X9000000Y-11600000D03*
X1200000Y-19400000D03*
X6400000Y-19400000D03*
X11600000Y-50600000D03*
X3800000Y-45400000D03*
X71400000Y-48000000D03*
X6400000Y-40200000D03*
X76600000Y-14200000D03*
X3800000Y-16800000D03*
X1200000Y-40200000D03*
X12349563Y-25981500D03*
X9000000Y-19400000D03*
X74000000Y-27200000D03*
X1200000Y-37600000D03*
X32146077Y-15831961D03*
X74000000Y-37600000D03*
X16800000Y-1200000D03*
X40200000Y-1200000D03*
X27200000Y-1200000D03*
X76600000Y-42800000D03*
X48000000Y-1200000D03*
X31251387Y-24490000D03*
X1200000Y-11600000D03*
X76600000Y-11600000D03*
X48000000Y-3800000D03*
X11600000Y-14200000D03*
X68800000Y-45400000D03*
X3800000Y-37600000D03*
X76600000Y-45400000D03*
X3800000Y-14200000D03*
X9000000Y-6400000D03*
X19400000Y-16800000D03*
X52430100Y-45400500D03*
X3800000Y-19400000D03*
X11600000Y-3800000D03*
X9000000Y-48000000D03*
D22*
X31860668Y-14337868D03*
D21*
X42800000Y-6400000D03*
X42800000Y-3800000D03*
X9000000Y-1200000D03*
X76600000Y-50600000D03*
X14200000Y-19400000D03*
X3800000Y-1200000D03*
X76600000Y-24600000D03*
X74000000Y-50600000D03*
X19400000Y-19400000D03*
X27362447Y-10675500D03*
X3800000Y-9000000D03*
X1200000Y-9000000D03*
X29800000Y-1200000D03*
X40200000Y-3800000D03*
X45400000Y-1200000D03*
D22*
X50808900Y-13900499D03*
D21*
X6400000Y-9000000D03*
X3800000Y-11600000D03*
X23851500Y-10708100D03*
X45400000Y-6400000D03*
X16800000Y-11600000D03*
X74000000Y-19400000D03*
X1200000Y-42800000D03*
X1200000Y-16800000D03*
X16800000Y-14200000D03*
X1200000Y-6400000D03*
X6400000Y-11600000D03*
X6400000Y-14200000D03*
X16800000Y-19400000D03*
X74000000Y-42800000D03*
X35000000Y-1200000D03*
X50600000Y-1200000D03*
X61000000Y-50600000D03*
X3800000Y-22000000D03*
X76600000Y-22000000D03*
X50600000Y-6400000D03*
X14200000Y-11600000D03*
X74000000Y-24600000D03*
X3800000Y-35000000D03*
X6400000Y-50600000D03*
X9000000Y-14200000D03*
X1200000Y-45400000D03*
X32400000Y-6400000D03*
X22000000Y-1200000D03*
X76600000Y-27200000D03*
X1200000Y-24600000D03*
X3800000Y-42800000D03*
X58400000Y-50600000D03*
X16800000Y-50600000D03*
X32400000Y-50600000D03*
X14200000Y-3800000D03*
X16800000Y-16800000D03*
X19400000Y-14200000D03*
X74000000Y-45400000D03*
X6400000Y-45400000D03*
X48000000Y-6400000D03*
X68800000Y-48000000D03*
X53200000Y-50600000D03*
X74000000Y-22000000D03*
X45525500Y-27231385D03*
X3800000Y-50600000D03*
X71400000Y-42800000D03*
X76600000Y-19400000D03*
X6400000Y-42800000D03*
X21766000Y-14525500D03*
X16800000Y-9000000D03*
X1200000Y-35000000D03*
X19400000Y-9000000D03*
X9000000Y-9000000D03*
X66200000Y-50600000D03*
X1200000Y-14200000D03*
X71400000Y-50600000D03*
D20*
%TO.N,3V3*%
X42110300Y-47636600D03*
X29106100Y-8885300D03*
X10167200Y-26159600D03*
%TO.N,HP_R*%
X37539500Y-13109200D03*
%TO.N,JACK_TN*%
X45740100Y-18431600D03*
%TO.N,AMP_EN*%
X40464400Y-15178500D03*
X41424100Y-9835300D03*
X58055800Y-17979300D03*
%TO.N,DAC_OUTL*%
X34555400Y-10024700D03*
X23552700Y-12159600D03*
%TO.N,I2S_BCK*%
X29397600Y-14543100D03*
X52993200Y-18291500D03*
%TO.N,I2S_DIN*%
X32056300Y-13706100D03*
X55517300Y-17443600D03*
%TO.N,I2S_LRCK*%
X32294700Y-12500000D03*
X52525100Y-14536100D03*
%TO.N,DAC_XSMT*%
X29964000Y-17537300D03*
X32087400Y-10979200D03*
X70310600Y-17823400D03*
%TO.N,VBAT*%
X74717100Y-35767200D03*
X7921800Y-29848800D03*
X18879800Y-33159100D03*
X10247300Y-35601700D03*
%TO.N,VBAT_SENSE*%
X25210200Y-30118400D03*
X55668800Y-11139000D03*
%TO.N,ESP_EN*%
X50278900Y-22894700D03*
%TO.N,ENC_A*%
X55668800Y-13609300D03*
%TO.N,ENC_B*%
X27855900Y-33856500D03*
X55577300Y-15529500D03*
%TO.N,ENC_SW*%
X57822800Y-21293900D03*
X46139700Y-26604300D03*
%TO.N,BTN_PREV*%
X52891800Y-16603900D03*
X33485400Y-34520300D03*
%TO.N,SD_D3*%
X9350500Y-33197200D03*
X40462300Y-26670400D03*
%TO.N,I2C_SDA*%
X69755900Y-29888500D03*
X55483600Y-23250400D03*
X21697700Y-21376800D03*
%TO.N,I2C_SCL*%
X24490400Y-19409200D03*
X56634300Y-23274200D03*
%TO.N,SD_D2*%
X37115800Y-25057400D03*
X59775900Y-26269200D03*
%TO.N,SD_CMD*%
X27750000Y-24499600D03*
X58744300Y-25914900D03*
%TO.N,SD_CLK*%
X61862500Y-26262000D03*
X8496000Y-28601100D03*
%TO.N,SD_D0*%
X8605900Y-25778800D03*
X29192700Y-25085300D03*
X63089600Y-25823100D03*
%TO.N,SD_D1*%
X64442300Y-25973200D03*
X33596400Y-25024400D03*
%TO.N,LED_DIN*%
X67302200Y-29457800D03*
X45743100Y-49103100D03*
%TO.N,ESP_IO0*%
X69907500Y-26161500D03*
X50402200Y-26481800D03*
%TO.N,BTN_PLAY*%
X36019300Y-30738400D03*
X68469700Y-24455300D03*
%TO.N,SD_CD*%
X63855900Y-19692400D03*
X9076000Y-24087200D03*
X45327300Y-23872400D03*
%TO.N,UART_RX*%
X56139300Y-14827600D03*
%TO.N,UART_TX*%
X73330000Y-12811100D03*
%TO.N,VBUS*%
X19021500Y-29739800D03*
X54850100Y-45953300D03*
X60863400Y-45449300D03*
%TO.N,EN_LDO*%
X8493800Y-26662700D03*
X26616800Y-46930900D03*
%TO.N,PACK_NEG*%
X14126500Y-44944000D03*
X73443000Y-39840000D03*
%TO.N,CHG_STAT*%
X28480300Y-46968200D03*
X9951700Y-27893000D03*
%TD*%
%TO.N,3V3*%
D23*
X31101700Y-36628000D02*
X42110300Y-47636600D01*
X30000000Y-36000000D02*
X31101700Y-36000000D01*
X31101700Y-36000000D02*
X31101700Y-36628000D01*
%TO.N,AMP_EN*%
X41424100Y-14218800D02*
X41424100Y-9835300D01*
X40464400Y-15178500D02*
X41424100Y-14218800D01*
%TO.N,DAC_XSMT*%
X29964000Y-13102600D02*
X32087400Y-10979200D01*
X29964000Y-17537300D02*
X29964000Y-13102600D01*
%TO.N,VBAT_SENSE*%
X55668800Y-11139000D02*
X45429100Y-11139000D01*
X45429100Y-11139000D02*
X26449700Y-30118400D01*
X26449700Y-30118400D02*
X25210200Y-30118400D01*
%TO.N,ENC_A*%
X56705200Y-17904400D02*
X56705200Y-14568200D01*
X55746300Y-13609300D02*
X55668800Y-13609300D01*
X52000000Y-33200000D02*
X52000000Y-22609600D01*
X56705200Y-14568200D02*
X55746300Y-13609300D01*
X52000000Y-22609600D02*
X56705200Y-17904400D01*
%TO.N,ENC_B*%
X51002000Y-27149400D02*
X51002000Y-21119800D01*
X55577300Y-16544500D02*
X55577300Y-15529500D01*
X50748300Y-27403100D02*
X51002000Y-27149400D01*
X50748300Y-36948300D02*
X50748300Y-27403100D01*
X51002000Y-21119800D02*
X55577300Y-16544500D01*
X52000000Y-38200000D02*
X50748300Y-36948300D01*
%TO.N,ENC_SW*%
X57822800Y-21293900D02*
X62004600Y-21293900D01*
X70337100Y-34362900D02*
X66500000Y-38200000D01*
X70337100Y-29626400D02*
X70337100Y-34362900D01*
X62004600Y-21293900D02*
X70337100Y-29626400D01*
%TO.N,BTN_PREV*%
X33485400Y-34520300D02*
X33889900Y-34520300D01*
X33889900Y-34520300D02*
X51806300Y-16603900D01*
X51806300Y-16603900D02*
X52891800Y-16603900D01*
%TO.N,I2C_SDA*%
X26369100Y-18334400D02*
X23326700Y-21376800D01*
X23326700Y-21376800D02*
X21697700Y-21376800D01*
X57280800Y-25047600D02*
X64915000Y-25047600D01*
X64915000Y-25047600D02*
X69755900Y-29888500D01*
X55483600Y-23250400D02*
X57280800Y-25047600D01*
X30620000Y-5500000D02*
X26369100Y-9750900D01*
X26369100Y-9750900D02*
X26369100Y-18334400D01*
%TO.N,I2C_SCL*%
X24490400Y-9089600D02*
X24490400Y-19409200D01*
X28080000Y-5500000D02*
X24490400Y-9089600D01*
%TO.N,LED_DIN*%
X47656900Y-49103100D02*
X45743100Y-49103100D01*
X67302200Y-29457800D02*
X47656900Y-49103100D01*
%TO.N,UART_RX*%
X35080000Y-35246700D02*
X35080000Y-36000000D01*
X55499100Y-14827600D02*
X35080000Y-35246700D01*
X56139300Y-14827600D02*
X55499100Y-14827600D01*
%TO.N,UART_TX*%
X33257000Y-33968600D02*
X33944300Y-33968600D01*
X32540000Y-34685600D02*
X33257000Y-33968600D01*
X33944300Y-33968600D02*
X55101800Y-12811100D01*
X32540000Y-36000000D02*
X32540000Y-34685600D01*
X55101800Y-12811100D02*
X73330000Y-12811100D01*
%TO.N,VBUS*%
X54850100Y-45953300D02*
X51144700Y-49658700D01*
X51144700Y-49658700D02*
X38940400Y-49658700D01*
X38940400Y-49658700D02*
X19021500Y-29739800D01*
X60863400Y-45449300D02*
X55354100Y-45449300D01*
X55354100Y-45449300D02*
X54850100Y-45953300D01*
%TO.N,EN_LDO*%
X9159300Y-27328200D02*
X9159300Y-29473400D01*
X8493800Y-26662700D02*
X9159300Y-27328200D01*
X9159300Y-29473400D02*
X26616800Y-46930900D01*
%TO.N,CHG_STAT*%
X9951700Y-28439600D02*
X9951700Y-27893000D01*
X28480300Y-46968200D02*
X9951700Y-28439600D01*
%TD*%
%TA.AperFunction,Conductor*%
%TO.N,GND*%
G36*
X52522382Y-16873307D02*
G01*
X52534188Y-16883390D01*
X52615187Y-16964389D01*
X52615189Y-16964390D01*
X52615191Y-16964392D01*
X52717908Y-17023696D01*
X52717909Y-17023696D01*
X52717914Y-17023699D01*
X52734331Y-17028098D01*
X52785644Y-17061422D01*
X52807570Y-17118543D01*
X52791734Y-17177644D01*
X52778710Y-17193728D01*
X45942818Y-24029620D01*
X45888301Y-24057397D01*
X45827869Y-24047826D01*
X45784604Y-24004561D01*
X45775033Y-23944129D01*
X45777189Y-23933988D01*
X45777800Y-23931709D01*
X45777800Y-23813091D01*
X45747099Y-23698514D01*
X45747097Y-23698511D01*
X45747097Y-23698509D01*
X45687792Y-23595791D01*
X45687790Y-23595789D01*
X45687789Y-23595787D01*
X45603913Y-23511911D01*
X45603910Y-23511909D01*
X45603908Y-23511907D01*
X45495567Y-23449356D01*
X45496680Y-23447427D01*
X45457672Y-23414112D01*
X45443388Y-23354617D01*
X45466803Y-23298089D01*
X45472066Y-23292393D01*
X51881064Y-16883396D01*
X51935581Y-16855619D01*
X51951068Y-16854400D01*
X52464191Y-16854400D01*
X52522382Y-16873307D01*
G37*
%TD.AperFunction*%
%TA.AperFunction,Conductor*%
G36*
X51459191Y-519407D02*
G01*
X51495155Y-568907D01*
X51500000Y-599500D01*
X51500000Y-9500000D01*
X74499999Y-9500000D01*
X74500000Y-9500000D01*
X74500000Y-6393801D01*
X74518907Y-6335610D01*
X74568407Y-6299646D01*
X74629590Y-6299646D01*
X74646364Y-6305096D01*
X74683755Y-6317246D01*
X74893710Y-6350500D01*
X74893713Y-6350500D01*
X75106290Y-6350500D01*
X75316238Y-6317247D01*
X75316239Y-6317246D01*
X75316243Y-6317246D01*
X75518412Y-6251557D01*
X75707816Y-6155051D01*
X75879792Y-6030104D01*
X76030104Y-5879792D01*
X76155051Y-5707816D01*
X76251557Y-5518412D01*
X76317246Y-5316243D01*
X76334364Y-5208165D01*
X76350500Y-5106290D01*
X76350500Y-4893709D01*
X76317247Y-4683761D01*
X76294375Y-4613368D01*
X76251557Y-4481588D01*
X76155051Y-4292184D01*
X76155049Y-4292180D01*
X76030108Y-4120213D01*
X76030106Y-4120211D01*
X76030104Y-4120208D01*
X75879792Y-3969896D01*
X75879788Y-3969893D01*
X75879786Y-3969891D01*
X75707819Y-3844950D01*
X75707815Y-3844948D01*
X75518412Y-3748443D01*
X75316238Y-3682752D01*
X75106290Y-3649500D01*
X75106287Y-3649500D01*
X74893713Y-3649500D01*
X74893710Y-3649500D01*
X74683759Y-3682753D01*
X74629592Y-3700353D01*
X74568407Y-3700353D01*
X74518907Y-3664389D01*
X74500000Y-3606198D01*
X74500000Y-599500D01*
X74518907Y-541309D01*
X74568407Y-505345D01*
X74599000Y-500500D01*
X75934108Y-500500D01*
X75997564Y-500500D01*
X76002421Y-500619D01*
X76031158Y-502030D01*
X76338173Y-517113D01*
X76347815Y-518063D01*
X76677915Y-567029D01*
X76687421Y-568919D01*
X77011144Y-650008D01*
X77020415Y-652820D01*
X77334625Y-765246D01*
X77343594Y-768961D01*
X77645263Y-911640D01*
X77653826Y-916218D01*
X77940049Y-1087773D01*
X77948127Y-1093171D01*
X78216150Y-1291951D01*
X78223660Y-1298114D01*
X78470921Y-1522218D01*
X78477781Y-1529078D01*
X78603484Y-1667770D01*
X78701885Y-1776339D01*
X78708048Y-1783849D01*
X78906828Y-2051872D01*
X78912226Y-2059950D01*
X79083781Y-2346173D01*
X79088361Y-2354741D01*
X79231036Y-2656402D01*
X79234754Y-2665378D01*
X79347175Y-2979571D01*
X79349995Y-2988868D01*
X79431077Y-3312567D01*
X79432972Y-3322096D01*
X79481934Y-3652170D01*
X79482887Y-3661838D01*
X79499381Y-3997577D01*
X79499500Y-4002435D01*
X79499500Y-49997564D01*
X79499381Y-50002422D01*
X79482887Y-50338161D01*
X79481934Y-50347829D01*
X79432972Y-50677903D01*
X79431077Y-50687432D01*
X79349995Y-51011131D01*
X79347175Y-51020428D01*
X79234754Y-51334621D01*
X79231036Y-51343597D01*
X79088361Y-51645258D01*
X79083781Y-51653826D01*
X78912226Y-51940049D01*
X78906828Y-51948127D01*
X78708048Y-52216150D01*
X78701885Y-52223660D01*
X78477786Y-52470916D01*
X78470916Y-52477786D01*
X78223660Y-52701885D01*
X78216150Y-52708048D01*
X77948127Y-52906828D01*
X77940049Y-52912226D01*
X77653826Y-53083781D01*
X77645258Y-53088361D01*
X77343597Y-53231036D01*
X77334621Y-53234754D01*
X77020428Y-53347175D01*
X77011131Y-53349995D01*
X76687432Y-53431077D01*
X76677903Y-53432972D01*
X76347829Y-53481934D01*
X76338161Y-53482887D01*
X76002422Y-53499381D01*
X75997564Y-53499500D01*
X4002436Y-53499500D01*
X3997578Y-53499381D01*
X3661838Y-53482887D01*
X3652170Y-53481934D01*
X3322096Y-53432972D01*
X3312567Y-53431077D01*
X2988868Y-53349995D01*
X2979571Y-53347175D01*
X2665378Y-53234754D01*
X2656402Y-53231036D01*
X2354741Y-53088361D01*
X2346173Y-53083781D01*
X2059950Y-52912226D01*
X2051872Y-52906828D01*
X1783849Y-52708048D01*
X1776339Y-52701885D01*
X1529083Y-52477786D01*
X1522218Y-52470921D01*
X1298114Y-52223660D01*
X1291951Y-52216150D01*
X1093171Y-51948127D01*
X1087773Y-51940049D01*
X958223Y-51723908D01*
X916216Y-51653823D01*
X911638Y-51645258D01*
X844629Y-51503580D01*
X768961Y-51343594D01*
X765245Y-51334621D01*
X744464Y-51276542D01*
X652820Y-51020415D01*
X650008Y-51011144D01*
X587351Y-50761004D01*
X21799500Y-50761004D01*
X21799500Y-50898995D01*
X21826420Y-51034327D01*
X21826420Y-51034329D01*
X21879222Y-51161806D01*
X21879228Y-51161817D01*
X21955885Y-51276541D01*
X22053458Y-51374114D01*
X22168182Y-51450771D01*
X22168193Y-51450777D01*
X22215283Y-51470282D01*
X22295672Y-51503580D01*
X22431007Y-51530500D01*
X22431008Y-51530500D01*
X22568992Y-51530500D01*
X22568993Y-51530500D01*
X22704328Y-51503580D01*
X22831811Y-51450775D01*
X22946542Y-51374114D01*
X23044114Y-51276542D01*
X23120775Y-51161811D01*
X23173580Y-51034328D01*
X23200500Y-50898993D01*
X23200500Y-50761007D01*
X23200499Y-50761004D01*
X24799500Y-50761004D01*
X24799500Y-50898995D01*
X24826420Y-51034327D01*
X24826420Y-51034329D01*
X24879222Y-51161806D01*
X24879228Y-51161817D01*
X24955885Y-51276541D01*
X25053458Y-51374114D01*
X25168182Y-51450771D01*
X25168193Y-51450777D01*
X25215283Y-51470282D01*
X25295672Y-51503580D01*
X25431007Y-51530500D01*
X25431008Y-51530500D01*
X25568992Y-51530500D01*
X25568993Y-51530500D01*
X25704328Y-51503580D01*
X25831811Y-51450775D01*
X25946542Y-51374114D01*
X26044114Y-51276542D01*
X26120775Y-51161811D01*
X26173580Y-51034328D01*
X26200500Y-50898993D01*
X26200500Y-50761007D01*
X26173580Y-50625672D01*
X26120775Y-50498189D01*
X26120774Y-50498187D01*
X26120771Y-50498182D01*
X26044114Y-50383458D01*
X25946541Y-50285885D01*
X25831817Y-50209228D01*
X25831806Y-50209222D01*
X25704328Y-50156420D01*
X25568995Y-50129500D01*
X25568993Y-50129500D01*
X25431007Y-50129500D01*
X25431004Y-50129500D01*
X25295672Y-50156420D01*
X25295670Y-50156420D01*
X25168193Y-50209222D01*
X25168182Y-50209228D01*
X25053458Y-50285885D01*
X24955885Y-50383458D01*
X24879228Y-50498182D01*
X24879222Y-50498193D01*
X24826420Y-50625670D01*
X24826420Y-50625672D01*
X24799500Y-50761004D01*
X23200499Y-50761004D01*
X23173580Y-50625672D01*
X23120775Y-50498189D01*
X23120774Y-50498187D01*
X23120771Y-50498182D01*
X23044114Y-50383458D01*
X22946541Y-50285885D01*
X22831817Y-50209228D01*
X22831806Y-50209222D01*
X22704328Y-50156420D01*
X22568995Y-50129500D01*
X22568993Y-50129500D01*
X22431007Y-50129500D01*
X22431004Y-50129500D01*
X22295672Y-50156420D01*
X22295670Y-50156420D01*
X22168193Y-50209222D01*
X22168182Y-50209228D01*
X22053458Y-50285885D01*
X21955885Y-50383458D01*
X21879228Y-50498182D01*
X21879222Y-50498193D01*
X21826420Y-50625670D01*
X21826420Y-50625672D01*
X21799500Y-50761004D01*
X587351Y-50761004D01*
X568919Y-50687421D01*
X567029Y-50677915D01*
X518063Y-50347815D01*
X517113Y-50338173D01*
X500619Y-50002421D01*
X500500Y-49997564D01*
X500500Y-47893709D01*
X3649500Y-47893709D01*
X3649500Y-48106290D01*
X3682752Y-48316238D01*
X3748443Y-48518412D01*
X3844948Y-48707815D01*
X3844950Y-48707819D01*
X3969891Y-48879786D01*
X3969893Y-48879788D01*
X3969896Y-48879792D01*
X4120208Y-49030104D01*
X4120211Y-49030106D01*
X4120213Y-49030108D01*
X4292180Y-49155049D01*
X4292184Y-49155051D01*
X4481588Y-49251557D01*
X4683757Y-49317246D01*
X4683758Y-49317246D01*
X4683761Y-49317247D01*
X4893710Y-49350500D01*
X4893713Y-49350500D01*
X5106290Y-49350500D01*
X5316238Y-49317247D01*
X5316239Y-49317246D01*
X5316243Y-49317246D01*
X5518412Y-49251557D01*
X5707816Y-49155051D01*
X5879792Y-49030104D01*
X6030104Y-48879792D01*
X6155051Y-48707816D01*
X6251557Y-48518412D01*
X6317246Y-48316243D01*
X6350500Y-48106287D01*
X6350500Y-47893713D01*
X6350500Y-47893709D01*
X6317247Y-47683761D01*
X6296281Y-47619234D01*
X6251557Y-47481588D01*
X6155051Y-47292184D01*
X6155049Y-47292180D01*
X6030108Y-47120213D01*
X6030106Y-47120211D01*
X6030104Y-47120208D01*
X5879792Y-46969896D01*
X5879788Y-46969893D01*
X5879786Y-46969891D01*
X5707819Y-46844950D01*
X5707815Y-46844948D01*
X5518412Y-46748443D01*
X5316238Y-46682752D01*
X5106290Y-46649500D01*
X5106287Y-46649500D01*
X4893713Y-46649500D01*
X4893710Y-46649500D01*
X4683761Y-46682752D01*
X4481587Y-46748443D01*
X4292184Y-46844948D01*
X4292180Y-46844950D01*
X4120213Y-46969891D01*
X3969891Y-47120213D01*
X3844950Y-47292180D01*
X3844948Y-47292184D01*
X3748443Y-47481587D01*
X3682752Y-47683761D01*
X3649500Y-47893709D01*
X500500Y-47893709D01*
X500500Y-44884691D01*
X13676000Y-44884691D01*
X13676000Y-45003309D01*
X13698909Y-45088807D01*
X13706702Y-45117890D01*
X13766007Y-45220608D01*
X13766009Y-45220610D01*
X13766011Y-45220613D01*
X13849887Y-45304489D01*
X13849889Y-45304490D01*
X13849891Y-45304492D01*
X13952610Y-45363797D01*
X13952611Y-45363797D01*
X13952614Y-45363799D01*
X14067191Y-45394500D01*
X14067193Y-45394500D01*
X14185807Y-45394500D01*
X14185809Y-45394500D01*
X14300386Y-45363799D01*
X14300388Y-45363797D01*
X14300390Y-45363797D01*
X14403108Y-45304492D01*
X14403108Y-45304491D01*
X14403113Y-45304489D01*
X14486989Y-45220613D01*
X14499583Y-45198800D01*
X14546297Y-45117890D01*
X14546297Y-45117888D01*
X14546299Y-45117886D01*
X14577000Y-45003309D01*
X14577000Y-44884691D01*
X14546299Y-44770114D01*
X14546297Y-44770111D01*
X14546297Y-44770109D01*
X14486992Y-44667391D01*
X14486990Y-44667389D01*
X14486989Y-44667387D01*
X14403113Y-44583511D01*
X14403110Y-44583509D01*
X14403108Y-44583507D01*
X14300389Y-44524202D01*
X14300390Y-44524202D01*
X14286851Y-44520574D01*
X14185809Y-44493500D01*
X14067191Y-44493500D01*
X13997067Y-44512289D01*
X13952609Y-44524202D01*
X13849891Y-44583507D01*
X13766007Y-44667391D01*
X13706702Y-44770109D01*
X13706701Y-44770114D01*
X13676000Y-44884691D01*
X500500Y-44884691D01*
X500500Y-35542391D01*
X9796800Y-35542391D01*
X9796800Y-35661009D01*
X9815445Y-35730593D01*
X9827502Y-35775590D01*
X9886807Y-35878308D01*
X9886809Y-35878310D01*
X9886811Y-35878313D01*
X9970687Y-35962189D01*
X9970689Y-35962190D01*
X9970691Y-35962192D01*
X10073410Y-36021497D01*
X10073411Y-36021497D01*
X10073414Y-36021499D01*
X10187991Y-36052200D01*
X10187993Y-36052200D01*
X10306607Y-36052200D01*
X10306609Y-36052200D01*
X10421186Y-36021499D01*
X10421188Y-36021497D01*
X10421190Y-36021497D01*
X10523908Y-35962192D01*
X10523908Y-35962191D01*
X10523913Y-35962189D01*
X10607789Y-35878313D01*
X10619456Y-35858105D01*
X10667097Y-35775590D01*
X10667097Y-35775588D01*
X10667099Y-35775586D01*
X10697800Y-35661009D01*
X10697800Y-35542391D01*
X10667099Y-35427814D01*
X10667097Y-35427811D01*
X10667097Y-35427809D01*
X10607792Y-35325091D01*
X10607790Y-35325089D01*
X10607789Y-35325087D01*
X10523913Y-35241211D01*
X10523910Y-35241209D01*
X10523908Y-35241207D01*
X10421189Y-35181902D01*
X10421190Y-35181902D01*
X10407651Y-35178274D01*
X10306609Y-35151200D01*
X10187991Y-35151200D01*
X10117867Y-35169989D01*
X10073409Y-35181902D01*
X9970691Y-35241207D01*
X9886807Y-35325091D01*
X9827502Y-35427809D01*
X9827501Y-35427814D01*
X9796800Y-35542391D01*
X500500Y-35542391D01*
X500500Y-33137891D01*
X8900000Y-33137891D01*
X8900000Y-33256509D01*
X8920492Y-33332986D01*
X8930702Y-33371090D01*
X8990007Y-33473808D01*
X8990009Y-33473810D01*
X8990011Y-33473813D01*
X9073887Y-33557689D01*
X9073889Y-33557690D01*
X9073891Y-33557692D01*
X9176610Y-33616997D01*
X9176611Y-33616997D01*
X9176614Y-33616999D01*
X9291191Y-33647700D01*
X9291193Y-33647700D01*
X9409807Y-33647700D01*
X9409809Y-33647700D01*
X9524386Y-33616999D01*
X9524388Y-33616997D01*
X9524390Y-33616997D01*
X9627108Y-33557692D01*
X9627108Y-33557691D01*
X9627113Y-33557689D01*
X9710989Y-33473813D01*
X9770299Y-33371086D01*
X9801000Y-33256509D01*
X9801000Y-33137891D01*
X9770299Y-33023314D01*
X9770297Y-33023311D01*
X9770297Y-33023309D01*
X9710992Y-32920591D01*
X9710990Y-32920589D01*
X9710989Y-32920587D01*
X9627113Y-32836711D01*
X9627110Y-32836709D01*
X9627108Y-32836707D01*
X9524389Y-32777402D01*
X9524390Y-32777402D01*
X9510851Y-32773774D01*
X9409809Y-32746700D01*
X9291191Y-32746700D01*
X9221067Y-32765489D01*
X9176609Y-32777402D01*
X9073891Y-32836707D01*
X8990007Y-32920591D01*
X8930702Y-33023309D01*
X8930701Y-33023314D01*
X8900000Y-33137891D01*
X500500Y-33137891D01*
X500500Y-29789491D01*
X7471300Y-29789491D01*
X7471300Y-29908109D01*
X7481055Y-29944514D01*
X7502002Y-30022690D01*
X7561307Y-30125408D01*
X7561309Y-30125410D01*
X7561311Y-30125413D01*
X7645187Y-30209289D01*
X7645189Y-30209290D01*
X7645191Y-30209292D01*
X7747910Y-30268597D01*
X7747911Y-30268597D01*
X7747914Y-30268599D01*
X7862491Y-30299300D01*
X7862493Y-30299300D01*
X7981107Y-30299300D01*
X7981109Y-30299300D01*
X8095686Y-30268599D01*
X8095688Y-30268597D01*
X8095690Y-30268597D01*
X8198408Y-30209292D01*
X8198408Y-30209291D01*
X8198413Y-30209289D01*
X8282289Y-30125413D01*
X8296793Y-30100292D01*
X8341597Y-30022690D01*
X8341597Y-30022688D01*
X8341599Y-30022686D01*
X8372300Y-29908109D01*
X8372300Y-29789491D01*
X8341599Y-29674914D01*
X8341597Y-29674911D01*
X8341597Y-29674909D01*
X8282292Y-29572191D01*
X8282290Y-29572189D01*
X8282289Y-29572187D01*
X8198413Y-29488311D01*
X8198410Y-29488309D01*
X8198408Y-29488307D01*
X8095689Y-29429002D01*
X8095690Y-29429002D01*
X8075425Y-29423572D01*
X7981109Y-29398300D01*
X7862491Y-29398300D01*
X7803768Y-29414035D01*
X7747909Y-29429002D01*
X7645191Y-29488307D01*
X7561307Y-29572191D01*
X7502002Y-29674909D01*
X7498559Y-29687759D01*
X7471300Y-29789491D01*
X500500Y-29789491D01*
X500500Y-26603391D01*
X8043300Y-26603391D01*
X8043300Y-26722009D01*
X8056053Y-26769602D01*
X8074002Y-26836590D01*
X8133307Y-26939308D01*
X8133309Y-26939310D01*
X8133311Y-26939313D01*
X8217187Y-27023189D01*
X8217189Y-27023190D01*
X8217191Y-27023192D01*
X8319910Y-27082497D01*
X8319911Y-27082497D01*
X8319914Y-27082499D01*
X8434491Y-27113200D01*
X8434493Y-27113200D01*
X8549031Y-27113200D01*
X8607222Y-27132107D01*
X8619035Y-27142196D01*
X8879804Y-27402965D01*
X8907581Y-27457482D01*
X8908800Y-27472969D01*
X8908800Y-28147765D01*
X8889893Y-28205956D01*
X8840393Y-28241920D01*
X8779207Y-28241920D01*
X8760300Y-28233501D01*
X8669889Y-28181302D01*
X8669890Y-28181302D01*
X8656351Y-28177674D01*
X8555309Y-28150600D01*
X8436691Y-28150600D01*
X8384551Y-28164571D01*
X8322109Y-28181302D01*
X8219391Y-28240607D01*
X8135507Y-28324491D01*
X8076202Y-28427209D01*
X8076201Y-28427214D01*
X8045500Y-28541791D01*
X8045500Y-28660409D01*
X8072574Y-28761451D01*
X8076202Y-28774990D01*
X8135507Y-28877708D01*
X8135509Y-28877710D01*
X8135511Y-28877713D01*
X8219387Y-28961589D01*
X8219389Y-28961590D01*
X8219391Y-28961592D01*
X8322110Y-29020897D01*
X8322111Y-29020897D01*
X8322114Y-29020899D01*
X8436691Y-29051600D01*
X8436693Y-29051600D01*
X8555307Y-29051600D01*
X8555309Y-29051600D01*
X8669886Y-29020899D01*
X8760300Y-28968697D01*
X8820147Y-28955976D01*
X8876043Y-28980862D01*
X8906636Y-29033850D01*
X8908800Y-29054434D01*
X8908800Y-29523228D01*
X8946934Y-29615294D01*
X8946935Y-29615295D01*
X8946936Y-29615297D01*
X26137305Y-46805666D01*
X26165081Y-46860181D01*
X26166300Y-46875668D01*
X26166300Y-46990209D01*
X26176294Y-47027507D01*
X26197002Y-47104790D01*
X26256307Y-47207508D01*
X26256309Y-47207510D01*
X26256311Y-47207513D01*
X26340187Y-47291389D01*
X26340189Y-47291390D01*
X26340191Y-47291392D01*
X26442910Y-47350697D01*
X26442911Y-47350697D01*
X26442914Y-47350699D01*
X26557491Y-47381400D01*
X26557493Y-47381400D01*
X26676107Y-47381400D01*
X26676109Y-47381400D01*
X26790686Y-47350699D01*
X26790688Y-47350697D01*
X26790690Y-47350697D01*
X26893408Y-47291392D01*
X26893408Y-47291391D01*
X26893413Y-47291389D01*
X26977289Y-47207513D01*
X27005460Y-47158720D01*
X27036597Y-47104790D01*
X27036597Y-47104788D01*
X27036599Y-47104786D01*
X27067300Y-46990209D01*
X27067300Y-46871591D01*
X27036599Y-46757014D01*
X27036597Y-46757011D01*
X27036597Y-46757009D01*
X26977292Y-46654291D01*
X26977290Y-46654289D01*
X26977289Y-46654287D01*
X26893413Y-46570411D01*
X26893410Y-46570409D01*
X26893408Y-46570407D01*
X26790689Y-46511102D01*
X26790690Y-46511102D01*
X26744752Y-46498793D01*
X26676109Y-46480400D01*
X26561569Y-46480400D01*
X26503378Y-46461493D01*
X26491565Y-46451404D01*
X9438796Y-29398635D01*
X9411019Y-29344118D01*
X9409800Y-29328631D01*
X9409800Y-28224838D01*
X9428707Y-28166647D01*
X9478207Y-28130683D01*
X9539393Y-28130683D01*
X9587342Y-28164571D01*
X9591206Y-28169607D01*
X9591209Y-28169610D01*
X9591211Y-28169613D01*
X9672205Y-28250607D01*
X9699981Y-28305122D01*
X9701200Y-28320609D01*
X9701200Y-28489428D01*
X9739334Y-28581494D01*
X9739335Y-28581495D01*
X9739336Y-28581497D01*
X28000805Y-46842966D01*
X28028581Y-46897481D01*
X28029800Y-46912968D01*
X28029800Y-47027509D01*
X28050508Y-47104790D01*
X28060502Y-47142090D01*
X28119807Y-47244808D01*
X28119809Y-47244810D01*
X28119811Y-47244813D01*
X28203687Y-47328689D01*
X28203689Y-47328690D01*
X28203691Y-47328692D01*
X28306410Y-47387997D01*
X28306411Y-47387997D01*
X28306414Y-47387999D01*
X28420991Y-47418700D01*
X28420993Y-47418700D01*
X28539607Y-47418700D01*
X28539609Y-47418700D01*
X28654186Y-47387999D01*
X28654188Y-47387997D01*
X28654190Y-47387997D01*
X28756908Y-47328692D01*
X28756908Y-47328691D01*
X28756913Y-47328689D01*
X28840789Y-47244813D01*
X28856962Y-47216801D01*
X28900097Y-47142090D01*
X28900097Y-47142088D01*
X28900099Y-47142086D01*
X28930800Y-47027509D01*
X28930800Y-46908891D01*
X28900099Y-46794314D01*
X28900097Y-46794311D01*
X28900097Y-46794309D01*
X28840792Y-46691591D01*
X28840790Y-46691589D01*
X28840789Y-46691587D01*
X28756913Y-46607711D01*
X28756910Y-46607709D01*
X28756908Y-46607707D01*
X28654189Y-46548402D01*
X28654190Y-46548402D01*
X28640651Y-46544774D01*
X28539609Y-46517700D01*
X28425069Y-46517700D01*
X28366878Y-46498793D01*
X28355065Y-46488704D01*
X14966152Y-33099791D01*
X18429300Y-33099791D01*
X18429300Y-33218409D01*
X18439509Y-33256509D01*
X18460002Y-33332990D01*
X18519307Y-33435708D01*
X18519309Y-33435710D01*
X18519311Y-33435713D01*
X18603187Y-33519589D01*
X18603189Y-33519590D01*
X18603191Y-33519592D01*
X18705910Y-33578897D01*
X18705911Y-33578897D01*
X18705914Y-33578899D01*
X18820491Y-33609600D01*
X18820493Y-33609600D01*
X18939107Y-33609600D01*
X18939109Y-33609600D01*
X19053686Y-33578899D01*
X19053688Y-33578897D01*
X19053690Y-33578897D01*
X19156408Y-33519592D01*
X19156408Y-33519591D01*
X19156413Y-33519589D01*
X19240289Y-33435713D01*
X19257444Y-33406000D01*
X19299597Y-33332990D01*
X19299597Y-33332988D01*
X19299599Y-33332986D01*
X19330300Y-33218409D01*
X19330300Y-33099791D01*
X19299599Y-32985214D01*
X19299597Y-32985211D01*
X19299597Y-32985209D01*
X19240292Y-32882491D01*
X19240290Y-32882489D01*
X19240289Y-32882487D01*
X19156413Y-32798611D01*
X19156410Y-32798609D01*
X19156408Y-32798607D01*
X19053689Y-32739302D01*
X19053690Y-32739302D01*
X19040151Y-32735674D01*
X18939109Y-32708600D01*
X18820491Y-32708600D01*
X18750367Y-32727389D01*
X18705909Y-32739302D01*
X18603191Y-32798607D01*
X18519307Y-32882491D01*
X18460002Y-32985209D01*
X18460001Y-32985214D01*
X18429300Y-33099791D01*
X14966152Y-33099791D01*
X11546852Y-29680491D01*
X18571000Y-29680491D01*
X18571000Y-29799109D01*
X18598074Y-29900151D01*
X18601702Y-29913690D01*
X18661007Y-30016408D01*
X18661009Y-30016410D01*
X18661011Y-30016413D01*
X18744887Y-30100289D01*
X18744889Y-30100290D01*
X18744891Y-30100292D01*
X18847610Y-30159597D01*
X18847611Y-30159597D01*
X18847614Y-30159599D01*
X18962191Y-30190300D01*
X18962193Y-30190300D01*
X19076731Y-30190300D01*
X19134922Y-30209207D01*
X19146735Y-30219296D01*
X38728035Y-49800595D01*
X38728036Y-49800597D01*
X38798503Y-49871064D01*
X38836640Y-49886860D01*
X38876021Y-49903173D01*
X38890570Y-49909200D01*
X38890573Y-49909201D01*
X38890576Y-49909201D01*
X39001751Y-49909201D01*
X39001759Y-49909200D01*
X51194529Y-49909200D01*
X51252585Y-49885151D01*
X51286597Y-49871064D01*
X53538425Y-47619234D01*
X56534500Y-47619234D01*
X56534500Y-47770766D01*
X56545143Y-47810486D01*
X56573720Y-47917139D01*
X56649481Y-48048360D01*
X56649483Y-48048362D01*
X56649485Y-48048365D01*
X56756635Y-48155515D01*
X56756637Y-48155516D01*
X56756639Y-48155518D01*
X56887861Y-48231279D01*
X56887859Y-48231279D01*
X56887863Y-48231280D01*
X56887865Y-48231281D01*
X57034234Y-48270500D01*
X57034236Y-48270500D01*
X57185764Y-48270500D01*
X57185766Y-48270500D01*
X57332135Y-48231281D01*
X57332137Y-48231279D01*
X57332139Y-48231279D01*
X57463360Y-48155518D01*
X57463360Y-48155517D01*
X57463365Y-48155515D01*
X57570515Y-48048365D01*
X57600118Y-47997092D01*
X57646279Y-47917139D01*
X57646279Y-47917137D01*
X57646281Y-47917135D01*
X57685500Y-47770766D01*
X57685500Y-47619234D01*
X62314500Y-47619234D01*
X62314500Y-47770766D01*
X62325143Y-47810486D01*
X62353720Y-47917139D01*
X62429481Y-48048360D01*
X62429483Y-48048362D01*
X62429485Y-48048365D01*
X62536635Y-48155515D01*
X62536637Y-48155516D01*
X62536639Y-48155518D01*
X62667861Y-48231279D01*
X62667859Y-48231279D01*
X62667863Y-48231280D01*
X62667865Y-48231281D01*
X62814234Y-48270500D01*
X62814236Y-48270500D01*
X62965764Y-48270500D01*
X62965766Y-48270500D01*
X63112135Y-48231281D01*
X63112137Y-48231279D01*
X63112139Y-48231279D01*
X63243360Y-48155518D01*
X63243360Y-48155517D01*
X63243365Y-48155515D01*
X63350515Y-48048365D01*
X63426281Y-47917135D01*
X63432558Y-47893709D01*
X73649500Y-47893709D01*
X73649500Y-48106290D01*
X73682752Y-48316238D01*
X73748443Y-48518412D01*
X73844948Y-48707815D01*
X73844950Y-48707819D01*
X73969891Y-48879786D01*
X73969893Y-48879788D01*
X73969896Y-48879792D01*
X74120208Y-49030104D01*
X74120211Y-49030106D01*
X74120213Y-49030108D01*
X74292180Y-49155049D01*
X74292184Y-49155051D01*
X74481588Y-49251557D01*
X74683757Y-49317246D01*
X74683758Y-49317246D01*
X74683761Y-49317247D01*
X74893710Y-49350500D01*
X74893713Y-49350500D01*
X75106290Y-49350500D01*
X75316238Y-49317247D01*
X75316239Y-49317246D01*
X75316243Y-49317246D01*
X75518412Y-49251557D01*
X75707816Y-49155051D01*
X75879792Y-49030104D01*
X76030104Y-48879792D01*
X76155051Y-48707816D01*
X76251557Y-48518412D01*
X76317246Y-48316243D01*
X76350500Y-48106287D01*
X76350500Y-47893713D01*
X76350500Y-47893709D01*
X76317247Y-47683761D01*
X76296281Y-47619234D01*
X76251557Y-47481588D01*
X76155051Y-47292184D01*
X76155049Y-47292180D01*
X76030108Y-47120213D01*
X76030106Y-47120211D01*
X76030104Y-47120208D01*
X75879792Y-46969896D01*
X75879788Y-46969893D01*
X75879786Y-46969891D01*
X75707819Y-46844950D01*
X75707815Y-46844948D01*
X75518412Y-46748443D01*
X75316238Y-46682752D01*
X75106290Y-46649500D01*
X75106287Y-46649500D01*
X74893713Y-46649500D01*
X74893710Y-46649500D01*
X74683761Y-46682752D01*
X74481587Y-46748443D01*
X74292184Y-46844948D01*
X74292180Y-46844950D01*
X74120213Y-46969891D01*
X73969891Y-47120213D01*
X73844950Y-47292180D01*
X73844948Y-47292184D01*
X73748443Y-47481587D01*
X73682752Y-47683761D01*
X73649500Y-47893709D01*
X63432558Y-47893709D01*
X63465500Y-47770766D01*
X63465500Y-47619234D01*
X63426281Y-47472865D01*
X63426279Y-47472862D01*
X63426279Y-47472860D01*
X63350518Y-47341639D01*
X63350516Y-47341637D01*
X63350515Y-47341635D01*
X63243365Y-47234485D01*
X63243362Y-47234483D01*
X63243360Y-47234481D01*
X63112138Y-47158720D01*
X63112140Y-47158720D01*
X63050059Y-47142086D01*
X62965766Y-47119500D01*
X62814234Y-47119500D01*
X62729941Y-47142086D01*
X62667860Y-47158720D01*
X62536639Y-47234481D01*
X62429481Y-47341639D01*
X62353720Y-47472860D01*
X62343403Y-47511365D01*
X62314500Y-47619234D01*
X57685500Y-47619234D01*
X57646281Y-47472865D01*
X57646279Y-47472862D01*
X57646279Y-47472860D01*
X57570518Y-47341639D01*
X57570516Y-47341637D01*
X57570515Y-47341635D01*
X57463365Y-47234485D01*
X57463362Y-47234483D01*
X57463360Y-47234481D01*
X57332138Y-47158720D01*
X57332140Y-47158720D01*
X57270059Y-47142086D01*
X57185766Y-47119500D01*
X57034234Y-47119500D01*
X56949941Y-47142086D01*
X56887860Y-47158720D01*
X56756639Y-47234481D01*
X56649481Y-47341639D01*
X56573720Y-47472860D01*
X56563403Y-47511365D01*
X56534500Y-47619234D01*
X53538425Y-47619234D01*
X54724863Y-46432795D01*
X54779380Y-46405019D01*
X54794867Y-46403800D01*
X54909407Y-46403800D01*
X54909409Y-46403800D01*
X55023986Y-46373099D01*
X55023988Y-46373097D01*
X55023990Y-46373097D01*
X55126708Y-46313792D01*
X55126708Y-46313791D01*
X55126713Y-46313789D01*
X55210589Y-46229913D01*
X55269899Y-46127186D01*
X55300600Y-46012609D01*
X55300600Y-45898066D01*
X55319507Y-45839875D01*
X55329597Y-45828062D01*
X55378246Y-45779414D01*
X55428864Y-45728796D01*
X55483380Y-45701019D01*
X55498867Y-45699800D01*
X60435791Y-45699800D01*
X60493982Y-45718707D01*
X60505788Y-45728790D01*
X60586787Y-45809789D01*
X60586789Y-45809790D01*
X60586791Y-45809792D01*
X60689510Y-45869097D01*
X60689511Y-45869097D01*
X60689514Y-45869099D01*
X60804091Y-45899800D01*
X60804093Y-45899800D01*
X60922707Y-45899800D01*
X60922709Y-45899800D01*
X61037286Y-45869099D01*
X61037288Y-45869097D01*
X61037290Y-45869097D01*
X61140008Y-45809792D01*
X61140008Y-45809791D01*
X61140013Y-45809789D01*
X61223889Y-45725913D01*
X61223892Y-45725908D01*
X61283197Y-45623190D01*
X61283197Y-45623188D01*
X61283199Y-45623186D01*
X61313900Y-45508609D01*
X61313900Y-45389991D01*
X61283199Y-45275414D01*
X61283197Y-45275411D01*
X61283197Y-45275409D01*
X61223892Y-45172691D01*
X61223890Y-45172689D01*
X61223889Y-45172687D01*
X61140013Y-45088811D01*
X61140010Y-45088809D01*
X61140008Y-45088807D01*
X61037289Y-45029502D01*
X61037290Y-45029502D01*
X61023751Y-45025874D01*
X60922709Y-44998800D01*
X60804091Y-44998800D01*
X60733967Y-45017589D01*
X60689509Y-45029502D01*
X60586791Y-45088807D01*
X60586790Y-45088808D01*
X60586787Y-45088810D01*
X60586787Y-45088811D01*
X60505792Y-45169805D01*
X60451278Y-45197581D01*
X60435791Y-45198800D01*
X55415459Y-45198800D01*
X55415451Y-45198799D01*
X55403928Y-45198799D01*
X55304273Y-45198799D01*
X55251610Y-45220613D01*
X55251609Y-45220613D01*
X55212203Y-45236935D01*
X55141735Y-45307402D01*
X55141736Y-45307403D01*
X54975335Y-45473804D01*
X54920818Y-45501581D01*
X54905331Y-45502800D01*
X54790791Y-45502800D01*
X54720667Y-45521589D01*
X54676209Y-45533502D01*
X54573491Y-45592807D01*
X54489607Y-45676691D01*
X54430302Y-45779409D01*
X54430301Y-45779414D01*
X54406271Y-45869097D01*
X54399600Y-45893992D01*
X54399600Y-46008531D01*
X54380693Y-46066722D01*
X54370604Y-46078535D01*
X51069935Y-49379204D01*
X51015418Y-49406981D01*
X50999931Y-49408200D01*
X47945068Y-49408200D01*
X47886877Y-49389293D01*
X47850913Y-49339793D01*
X47850913Y-49278607D01*
X47875062Y-49239198D01*
X57333568Y-39780691D01*
X72992500Y-39780691D01*
X72992500Y-39899309D01*
X73019574Y-40000351D01*
X73023202Y-40013890D01*
X73082507Y-40116608D01*
X73082509Y-40116610D01*
X73082511Y-40116613D01*
X73166387Y-40200489D01*
X73166389Y-40200490D01*
X73166391Y-40200492D01*
X73269110Y-40259797D01*
X73269111Y-40259797D01*
X73269114Y-40259799D01*
X73383691Y-40290500D01*
X73383693Y-40290500D01*
X73502307Y-40290500D01*
X73502309Y-40290500D01*
X73616886Y-40259799D01*
X73616888Y-40259797D01*
X73616890Y-40259797D01*
X73719608Y-40200492D01*
X73719608Y-40200491D01*
X73719613Y-40200489D01*
X73803489Y-40116613D01*
X73862799Y-40013886D01*
X73893500Y-39899309D01*
X73893500Y-39780691D01*
X73862799Y-39666114D01*
X73862797Y-39666111D01*
X73862797Y-39666109D01*
X73803492Y-39563391D01*
X73803490Y-39563389D01*
X73803489Y-39563387D01*
X73719613Y-39479511D01*
X73719610Y-39479509D01*
X73719608Y-39479507D01*
X73616889Y-39420202D01*
X73616890Y-39420202D01*
X73603351Y-39416574D01*
X73502309Y-39389500D01*
X73383691Y-39389500D01*
X73313567Y-39408289D01*
X73269109Y-39420202D01*
X73166391Y-39479507D01*
X73082507Y-39563391D01*
X73023202Y-39666109D01*
X73023201Y-39666114D01*
X72992500Y-39780691D01*
X57333568Y-39780691D01*
X67176963Y-29937295D01*
X67231480Y-29909519D01*
X67246967Y-29908300D01*
X67361507Y-29908300D01*
X67361509Y-29908300D01*
X67476086Y-29877599D01*
X67476088Y-29877597D01*
X67476090Y-29877597D01*
X67578808Y-29818292D01*
X67578808Y-29818291D01*
X67578813Y-29818289D01*
X67662689Y-29734413D01*
X67693821Y-29680491D01*
X67721997Y-29631690D01*
X67721997Y-29631688D01*
X67721999Y-29631686D01*
X67752700Y-29517109D01*
X67752700Y-29398491D01*
X67721999Y-29283914D01*
X67721997Y-29283911D01*
X67721997Y-29283909D01*
X67662692Y-29181191D01*
X67662690Y-29181189D01*
X67662689Y-29181187D01*
X67578813Y-29097311D01*
X67578810Y-29097309D01*
X67578808Y-29097307D01*
X67476089Y-29038002D01*
X67476090Y-29038002D01*
X67460594Y-29033850D01*
X67361509Y-29007300D01*
X67242891Y-29007300D01*
X67172767Y-29026089D01*
X67128309Y-29038002D01*
X67025591Y-29097307D01*
X66941707Y-29181191D01*
X66882402Y-29283909D01*
X66882401Y-29283914D01*
X66856841Y-29379307D01*
X66851700Y-29398492D01*
X66851700Y-29513031D01*
X66832793Y-29571222D01*
X66822704Y-29583035D01*
X47582135Y-48823604D01*
X47527618Y-48851381D01*
X47512131Y-48852600D01*
X46170709Y-48852600D01*
X46112518Y-48833693D01*
X46100711Y-48823609D01*
X46019713Y-48742611D01*
X46019710Y-48742609D01*
X46019708Y-48742607D01*
X45916989Y-48683302D01*
X45916990Y-48683302D01*
X45903451Y-48679674D01*
X45802409Y-48652600D01*
X45683791Y-48652600D01*
X45613667Y-48671389D01*
X45569209Y-48683302D01*
X45466491Y-48742607D01*
X45382607Y-48826491D01*
X45323302Y-48929209D01*
X45323301Y-48929214D01*
X45292600Y-49043791D01*
X45292600Y-49162409D01*
X45323301Y-49276986D01*
X45324981Y-49283254D01*
X45321945Y-49284067D01*
X45325765Y-49332258D01*
X45293825Y-49384445D01*
X45237310Y-49407891D01*
X45229488Y-49408200D01*
X39085168Y-49408200D01*
X39026977Y-49389293D01*
X39015164Y-49379204D01*
X24836281Y-35200320D01*
X24771133Y-35135172D01*
X28999500Y-35135172D01*
X28999500Y-36864827D01*
X29008232Y-36908720D01*
X29008233Y-36908722D01*
X29041496Y-36958504D01*
X29091278Y-36991767D01*
X29102327Y-36993964D01*
X29135172Y-37000499D01*
X29135178Y-37000499D01*
X29135180Y-37000500D01*
X29135181Y-37000500D01*
X30864819Y-37000500D01*
X30864820Y-37000500D01*
X30864821Y-37000499D01*
X30864827Y-37000499D01*
X30886623Y-36996162D01*
X30908722Y-36991767D01*
X30958504Y-36958504D01*
X30958506Y-36958500D01*
X30962545Y-36955802D01*
X31021433Y-36939193D01*
X31078837Y-36960370D01*
X31087552Y-36968113D01*
X41630804Y-47511365D01*
X41658581Y-47565882D01*
X41659800Y-47581369D01*
X41659800Y-47695909D01*
X41679858Y-47770766D01*
X41690502Y-47810490D01*
X41749807Y-47913208D01*
X41749809Y-47913210D01*
X41749811Y-47913213D01*
X41833687Y-47997089D01*
X41833689Y-47997090D01*
X41833691Y-47997092D01*
X41936410Y-48056397D01*
X41936411Y-48056397D01*
X41936414Y-48056399D01*
X42050991Y-48087100D01*
X42050993Y-48087100D01*
X42169607Y-48087100D01*
X42169609Y-48087100D01*
X42284186Y-48056399D01*
X42284188Y-48056397D01*
X42284190Y-48056397D01*
X42386908Y-47997092D01*
X42386908Y-47997091D01*
X42386913Y-47997089D01*
X42470789Y-47913213D01*
X42470792Y-47913208D01*
X42530097Y-47810490D01*
X42530097Y-47810488D01*
X42530099Y-47810486D01*
X42560800Y-47695909D01*
X42560800Y-47577291D01*
X42530099Y-47462714D01*
X42530097Y-47462711D01*
X42530097Y-47462709D01*
X42470792Y-47359991D01*
X42470790Y-47359989D01*
X42470789Y-47359987D01*
X42386913Y-47276111D01*
X42386910Y-47276109D01*
X42386908Y-47276107D01*
X42284189Y-47216802D01*
X42284190Y-47216802D01*
X42249504Y-47207508D01*
X42169609Y-47186100D01*
X42055069Y-47186100D01*
X41996878Y-47167193D01*
X41985065Y-47157104D01*
X31381196Y-36553235D01*
X31353419Y-36498718D01*
X31352200Y-36483231D01*
X31352200Y-36162085D01*
X31371107Y-36103894D01*
X31420607Y-36067930D01*
X31481793Y-36067930D01*
X31531293Y-36103894D01*
X31548297Y-36142770D01*
X31563202Y-36217700D01*
X31577949Y-36291834D01*
X31577949Y-36291836D01*
X31653367Y-36473913D01*
X31653368Y-36473914D01*
X31762861Y-36637782D01*
X31902218Y-36777139D01*
X32066086Y-36886632D01*
X32248165Y-36962051D01*
X32441459Y-37000500D01*
X32441460Y-37000500D01*
X32638540Y-37000500D01*
X32638541Y-37000500D01*
X32831835Y-36962051D01*
X33013914Y-36886632D01*
X33177782Y-36777139D01*
X33317139Y-36637782D01*
X33426632Y-36473914D01*
X33502051Y-36291835D01*
X33540500Y-36098541D01*
X33540500Y-35901459D01*
X33502051Y-35708165D01*
X33426632Y-35526086D01*
X33317139Y-35362218D01*
X33177782Y-35222861D01*
X33013914Y-35113368D01*
X33013912Y-35113367D01*
X32851614Y-35046141D01*
X32805089Y-35006404D01*
X32790500Y-34954677D01*
X32790500Y-34830369D01*
X32809407Y-34772178D01*
X32819496Y-34760366D01*
X32908512Y-34671349D01*
X32963028Y-34643571D01*
X33023461Y-34653142D01*
X33064252Y-34691851D01*
X33124909Y-34796910D01*
X33124911Y-34796913D01*
X33208787Y-34880789D01*
X33208789Y-34880790D01*
X33208791Y-34880792D01*
X33311510Y-34940097D01*
X33311511Y-34940097D01*
X33311514Y-34940099D01*
X33426091Y-34970800D01*
X33426093Y-34970800D01*
X33544707Y-34970800D01*
X33544709Y-34970800D01*
X33659286Y-34940099D01*
X33659288Y-34940097D01*
X33659290Y-34940097D01*
X33762008Y-34880792D01*
X33762008Y-34880791D01*
X33762013Y-34880789D01*
X33843007Y-34799794D01*
X33897522Y-34772019D01*
X33913009Y-34770800D01*
X33939729Y-34770800D01*
X33997785Y-34746751D01*
X34031797Y-34732664D01*
X44747282Y-24017177D01*
X44801797Y-23989402D01*
X44862229Y-23998973D01*
X44904044Y-24040788D01*
X44904256Y-24040667D01*
X44904710Y-24041454D01*
X44905494Y-24042238D01*
X44906803Y-24045080D01*
X44966807Y-24149008D01*
X44966809Y-24149010D01*
X44966811Y-24149013D01*
X45050687Y-24232889D01*
X45050689Y-24232890D01*
X45050691Y-24232892D01*
X45153410Y-24292197D01*
X45153411Y-24292197D01*
X45153414Y-24292199D01*
X45267991Y-24322900D01*
X45267993Y-24322900D01*
X45386608Y-24322900D01*
X45386609Y-24322900D01*
X45388889Y-24322289D01*
X45390576Y-24322377D01*
X45393041Y-24322053D01*
X45393101Y-24322509D01*
X45449989Y-24325488D01*
X45497541Y-24363990D01*
X45513381Y-24423090D01*
X45491457Y-24480213D01*
X45484520Y-24487918D01*
X34992057Y-34980380D01*
X34941368Y-35007474D01*
X34788163Y-35037949D01*
X34606086Y-35113367D01*
X34442218Y-35222861D01*
X34442214Y-35222864D01*
X34302864Y-35362214D01*
X34302861Y-35362218D01*
X34193367Y-35526086D01*
X34117949Y-35708163D01*
X34117949Y-35708165D01*
X34079500Y-35901456D01*
X34079500Y-36098543D01*
X34117949Y-36291834D01*
X34117949Y-36291836D01*
X34193367Y-36473913D01*
X34193368Y-36473914D01*
X34302861Y-36637782D01*
X34442218Y-36777139D01*
X34606086Y-36886632D01*
X34788165Y-36962051D01*
X34981459Y-37000500D01*
X34981460Y-37000500D01*
X35178540Y-37000500D01*
X35178541Y-37000500D01*
X35371835Y-36962051D01*
X35553914Y-36886632D01*
X35717782Y-36777139D01*
X35857139Y-36637782D01*
X35966632Y-36473914D01*
X36042051Y-36291835D01*
X36080500Y-36098541D01*
X36080500Y-35901459D01*
X36042051Y-35708165D01*
X35966632Y-35526086D01*
X35857139Y-35362218D01*
X35857134Y-35362213D01*
X35857131Y-35362209D01*
X35717780Y-35222859D01*
X35662415Y-35185865D01*
X35624536Y-35137815D01*
X35622134Y-35076677D01*
X35647411Y-35033548D01*
X40103268Y-30577691D01*
X42475700Y-30577691D01*
X42475700Y-30696309D01*
X42502774Y-30797351D01*
X42506402Y-30810890D01*
X42565707Y-30913608D01*
X42565709Y-30913610D01*
X42565711Y-30913613D01*
X42649587Y-30997489D01*
X42649589Y-30997490D01*
X42649591Y-30997492D01*
X42752310Y-31056797D01*
X42752311Y-31056797D01*
X42752314Y-31056799D01*
X42866891Y-31087500D01*
X42866893Y-31087500D01*
X42985507Y-31087500D01*
X42985509Y-31087500D01*
X43100086Y-31056799D01*
X43100088Y-31056797D01*
X43100090Y-31056797D01*
X43202808Y-30997492D01*
X43202808Y-30997491D01*
X43202813Y-30997489D01*
X43286689Y-30913613D01*
X43287455Y-30912286D01*
X43345997Y-30810890D01*
X43345997Y-30810888D01*
X43345999Y-30810886D01*
X43376700Y-30696309D01*
X43376700Y-30577691D01*
X43345999Y-30463114D01*
X43345997Y-30463111D01*
X43345997Y-30463109D01*
X43286692Y-30360391D01*
X43286690Y-30360389D01*
X43286689Y-30360387D01*
X43202813Y-30276511D01*
X43202810Y-30276509D01*
X43202808Y-30276507D01*
X43100089Y-30217202D01*
X43100090Y-30217202D01*
X43070252Y-30209207D01*
X42985509Y-30186500D01*
X42866891Y-30186500D01*
X42796767Y-30205289D01*
X42752309Y-30217202D01*
X42649591Y-30276507D01*
X42565707Y-30360391D01*
X42506402Y-30463109D01*
X42502173Y-30478892D01*
X42475700Y-30577691D01*
X40103268Y-30577691D01*
X44135968Y-26544991D01*
X45689200Y-26544991D01*
X45689200Y-26663609D01*
X45714603Y-26758413D01*
X45719902Y-26778190D01*
X45779207Y-26880908D01*
X45779209Y-26880910D01*
X45779211Y-26880913D01*
X45863087Y-26964789D01*
X45863089Y-26964790D01*
X45863091Y-26964792D01*
X45965810Y-27024097D01*
X45965811Y-27024097D01*
X45965814Y-27024099D01*
X46080391Y-27054800D01*
X46080393Y-27054800D01*
X46199007Y-27054800D01*
X46199009Y-27054800D01*
X46313586Y-27024099D01*
X46313588Y-27024097D01*
X46313590Y-27024097D01*
X46416308Y-26964792D01*
X46416308Y-26964791D01*
X46416313Y-26964789D01*
X46500189Y-26880913D01*
X46500192Y-26880908D01*
X46559497Y-26778190D01*
X46559497Y-26778188D01*
X46559499Y-26778186D01*
X46590200Y-26663609D01*
X46590200Y-26544991D01*
X46559499Y-26430414D01*
X46559497Y-26430411D01*
X46559497Y-26430409D01*
X46500192Y-26327691D01*
X46500190Y-26327689D01*
X46500189Y-26327687D01*
X46416313Y-26243811D01*
X46416310Y-26243809D01*
X46416308Y-26243807D01*
X46313589Y-26184502D01*
X46313590Y-26184502D01*
X46279785Y-26175444D01*
X46199009Y-26153800D01*
X46080391Y-26153800D01*
X46010267Y-26172589D01*
X45965809Y-26184502D01*
X45863091Y-26243807D01*
X45779207Y-26327691D01*
X45719902Y-26430409D01*
X45716504Y-26443090D01*
X45689200Y-26544991D01*
X44135968Y-26544991D01*
X52376535Y-18304424D01*
X52431050Y-18276649D01*
X52491482Y-18286220D01*
X52534747Y-18329485D01*
X52542164Y-18348807D01*
X52542700Y-18350807D01*
X52542700Y-18350809D01*
X52563866Y-18429800D01*
X52573402Y-18465390D01*
X52632707Y-18568108D01*
X52632709Y-18568110D01*
X52632711Y-18568113D01*
X52716587Y-18651989D01*
X52716589Y-18651990D01*
X52716591Y-18651992D01*
X52819310Y-18711297D01*
X52819308Y-18711297D01*
X52819312Y-18711298D01*
X52819314Y-18711299D01*
X52840541Y-18716986D01*
X52891854Y-18750310D01*
X52913781Y-18807432D01*
X52897945Y-18866532D01*
X52884921Y-18882617D01*
X50860103Y-20907436D01*
X50860102Y-20907435D01*
X50789635Y-20977903D01*
X50751500Y-21069971D01*
X50751500Y-22491191D01*
X50732593Y-22549382D01*
X50683093Y-22585346D01*
X50621907Y-22585346D01*
X50582498Y-22561196D01*
X50555513Y-22534211D01*
X50555510Y-22534209D01*
X50555508Y-22534207D01*
X50452789Y-22474902D01*
X50452790Y-22474902D01*
X50425923Y-22467703D01*
X50338209Y-22444200D01*
X50219591Y-22444200D01*
X50149467Y-22462989D01*
X50105009Y-22474902D01*
X50002291Y-22534207D01*
X49918407Y-22618091D01*
X49859102Y-22720809D01*
X49859101Y-22720814D01*
X49828400Y-22835391D01*
X49828400Y-22954009D01*
X49833700Y-22973787D01*
X49859102Y-23068590D01*
X49918407Y-23171308D01*
X49918409Y-23171310D01*
X49918411Y-23171313D01*
X50002287Y-23255189D01*
X50002289Y-23255190D01*
X50002291Y-23255192D01*
X50105010Y-23314497D01*
X50105011Y-23314497D01*
X50105014Y-23314499D01*
X50219591Y-23345200D01*
X50219593Y-23345200D01*
X50338207Y-23345200D01*
X50338209Y-23345200D01*
X50452786Y-23314499D01*
X50452788Y-23314497D01*
X50452790Y-23314497D01*
X50555508Y-23255192D01*
X50555508Y-23255191D01*
X50555513Y-23255189D01*
X50582498Y-23228203D01*
X50637013Y-23200428D01*
X50697445Y-23209999D01*
X50740710Y-23253264D01*
X50751500Y-23298209D01*
X50751500Y-25991803D01*
X50732593Y-26049994D01*
X50683093Y-26085958D01*
X50621907Y-26085958D01*
X50603000Y-26077539D01*
X50576089Y-26062002D01*
X50576090Y-26062002D01*
X50551481Y-26055408D01*
X50461509Y-26031300D01*
X50342891Y-26031300D01*
X50273124Y-26049994D01*
X50228309Y-26062002D01*
X50125591Y-26121307D01*
X50041707Y-26205191D01*
X49982402Y-26307909D01*
X49975494Y-26333692D01*
X49951700Y-26422491D01*
X49951700Y-26541109D01*
X49962469Y-26581299D01*
X49982402Y-26655690D01*
X50041707Y-26758408D01*
X50041709Y-26758410D01*
X50041711Y-26758413D01*
X50125587Y-26842289D01*
X50125589Y-26842290D01*
X50125591Y-26842292D01*
X50228310Y-26901597D01*
X50228311Y-26901597D01*
X50228314Y-26901599D01*
X50342891Y-26932300D01*
X50342893Y-26932300D01*
X50461507Y-26932300D01*
X50461509Y-26932300D01*
X50576086Y-26901599D01*
X50602998Y-26886060D01*
X50662846Y-26873338D01*
X50718742Y-26898223D01*
X50749336Y-26951210D01*
X50751500Y-26971796D01*
X50751500Y-27004631D01*
X50732593Y-27062822D01*
X50722504Y-27074635D01*
X50606403Y-27190736D01*
X50606402Y-27190735D01*
X50535935Y-27261203D01*
X50497800Y-27353271D01*
X50497800Y-36998128D01*
X50535935Y-37090196D01*
X50974169Y-37528431D01*
X51001946Y-37582947D01*
X50992375Y-37643379D01*
X50933788Y-37758362D01*
X50877828Y-37930593D01*
X50849500Y-38109450D01*
X50849500Y-38290549D01*
X50877828Y-38469406D01*
X50877829Y-38469409D01*
X50933789Y-38641639D01*
X51016004Y-38802994D01*
X51122447Y-38949501D01*
X51250499Y-39077553D01*
X51397006Y-39183996D01*
X51558361Y-39266211D01*
X51730591Y-39322171D01*
X51802136Y-39333502D01*
X51909451Y-39350500D01*
X51909454Y-39350500D01*
X52090549Y-39350500D01*
X52179977Y-39336335D01*
X52269409Y-39322171D01*
X52441639Y-39266211D01*
X52602994Y-39183996D01*
X52749501Y-39077553D01*
X52877553Y-38949501D01*
X52983996Y-38802994D01*
X53066211Y-38641639D01*
X53122171Y-38469409D01*
X53150500Y-38290546D01*
X53150500Y-38109454D01*
X53150500Y-38109450D01*
X53122171Y-37930593D01*
X53122171Y-37930591D01*
X53066211Y-37758361D01*
X52983996Y-37597006D01*
X52877553Y-37450499D01*
X52749501Y-37322447D01*
X52602994Y-37216004D01*
X52602993Y-37216003D01*
X52602991Y-37216002D01*
X52441637Y-37133788D01*
X52269406Y-37077828D01*
X52090549Y-37049500D01*
X52090546Y-37049500D01*
X51909454Y-37049500D01*
X51909451Y-37049500D01*
X51730593Y-37077828D01*
X51558362Y-37133788D01*
X51443379Y-37192375D01*
X51382947Y-37201946D01*
X51328430Y-37174169D01*
X51027796Y-36873535D01*
X51000019Y-36819018D01*
X50998800Y-36803531D01*
X50998800Y-34449500D01*
X51017707Y-34391309D01*
X51067207Y-34355345D01*
X51097800Y-34350500D01*
X53014819Y-34350500D01*
X53014820Y-34350500D01*
X53014821Y-34350499D01*
X53014827Y-34350499D01*
X53036623Y-34346162D01*
X53058722Y-34341767D01*
X53108504Y-34308504D01*
X53141767Y-34258722D01*
X53146162Y-34236623D01*
X53150499Y-34214827D01*
X53150500Y-34214818D01*
X53150500Y-32185181D01*
X53150499Y-32185172D01*
X53141767Y-32141279D01*
X53141765Y-32141275D01*
X53108505Y-32091498D01*
X53108504Y-32091496D01*
X53107840Y-32091052D01*
X53058724Y-32058234D01*
X53058720Y-32058232D01*
X53014827Y-32049500D01*
X53014820Y-32049500D01*
X52349500Y-32049500D01*
X52291309Y-32030593D01*
X52255345Y-31981093D01*
X52250500Y-31950500D01*
X52250500Y-23191091D01*
X55033100Y-23191091D01*
X55033100Y-23309709D01*
X55040904Y-23338834D01*
X55063802Y-23424290D01*
X55123107Y-23527008D01*
X55123109Y-23527010D01*
X55123111Y-23527013D01*
X55206987Y-23610889D01*
X55206989Y-23610890D01*
X55206991Y-23610892D01*
X55309710Y-23670197D01*
X55309711Y-23670197D01*
X55309714Y-23670199D01*
X55424291Y-23700900D01*
X55424293Y-23700900D01*
X55538831Y-23700900D01*
X55597022Y-23719807D01*
X55608835Y-23729896D01*
X56359153Y-24480213D01*
X57068435Y-25189495D01*
X57068436Y-25189497D01*
X57138903Y-25259964D01*
X57163886Y-25270312D01*
X57163887Y-25270313D01*
X57163888Y-25270313D01*
X57230973Y-25298101D01*
X57230974Y-25298101D01*
X57342151Y-25298101D01*
X57342159Y-25298100D01*
X58553653Y-25298100D01*
X58611844Y-25317007D01*
X58647808Y-25366507D01*
X58647808Y-25427693D01*
X58611844Y-25477193D01*
X58579278Y-25492725D01*
X58573684Y-25494224D01*
X58570409Y-25495102D01*
X58467691Y-25554407D01*
X58383807Y-25638291D01*
X58324502Y-25741009D01*
X58308935Y-25799107D01*
X58293800Y-25855591D01*
X58293800Y-25974209D01*
X58309098Y-26031300D01*
X58324502Y-26088790D01*
X58383807Y-26191508D01*
X58383809Y-26191510D01*
X58383811Y-26191513D01*
X58467687Y-26275389D01*
X58467689Y-26275390D01*
X58467691Y-26275392D01*
X58570410Y-26334697D01*
X58570411Y-26334697D01*
X58570414Y-26334699D01*
X58684991Y-26365400D01*
X58684993Y-26365400D01*
X58803607Y-26365400D01*
X58803609Y-26365400D01*
X58918186Y-26334699D01*
X58918188Y-26334697D01*
X58918190Y-26334697D01*
X59020908Y-26275392D01*
X59020908Y-26275391D01*
X59020913Y-26275389D01*
X59086411Y-26209891D01*
X59325400Y-26209891D01*
X59325400Y-26328509D01*
X59350583Y-26422491D01*
X59356102Y-26443090D01*
X59415407Y-26545808D01*
X59415409Y-26545810D01*
X59415411Y-26545813D01*
X59499287Y-26629689D01*
X59499289Y-26629690D01*
X59499291Y-26629692D01*
X59602010Y-26688997D01*
X59602011Y-26688997D01*
X59602014Y-26688999D01*
X59716591Y-26719700D01*
X59716593Y-26719700D01*
X59835207Y-26719700D01*
X59835209Y-26719700D01*
X59949786Y-26688999D01*
X59949788Y-26688997D01*
X59949790Y-26688997D01*
X60052508Y-26629692D01*
X60052508Y-26629691D01*
X60052513Y-26629689D01*
X60136389Y-26545813D01*
X60195699Y-26443086D01*
X60226400Y-26328509D01*
X60226400Y-26209891D01*
X60224471Y-26202691D01*
X61412000Y-26202691D01*
X61412000Y-26321309D01*
X61431421Y-26393787D01*
X61442702Y-26435890D01*
X61502007Y-26538608D01*
X61502009Y-26538610D01*
X61502011Y-26538613D01*
X61585887Y-26622489D01*
X61585889Y-26622490D01*
X61585891Y-26622492D01*
X61688610Y-26681797D01*
X61688611Y-26681797D01*
X61688614Y-26681799D01*
X61803191Y-26712500D01*
X61803193Y-26712500D01*
X61921807Y-26712500D01*
X61921809Y-26712500D01*
X62036386Y-26681799D01*
X62036388Y-26681797D01*
X62036390Y-26681797D01*
X62139108Y-26622492D01*
X62139108Y-26622491D01*
X62139113Y-26622489D01*
X62222989Y-26538613D01*
X62278142Y-26443086D01*
X62282297Y-26435890D01*
X62282297Y-26435888D01*
X62282299Y-26435886D01*
X62313000Y-26321309D01*
X62313000Y-26202691D01*
X62282299Y-26088114D01*
X62282297Y-26088111D01*
X62282297Y-26088109D01*
X62222992Y-25985391D01*
X62222990Y-25985389D01*
X62222989Y-25985387D01*
X62139113Y-25901511D01*
X62139110Y-25901509D01*
X62139108Y-25901507D01*
X62036389Y-25842202D01*
X62036390Y-25842202D01*
X62021107Y-25838107D01*
X61921809Y-25811500D01*
X61803191Y-25811500D01*
X61733067Y-25830289D01*
X61688609Y-25842202D01*
X61585891Y-25901507D01*
X61502007Y-25985391D01*
X61442702Y-26088109D01*
X61428989Y-26139289D01*
X61412000Y-26202691D01*
X60224471Y-26202691D01*
X60195699Y-26095314D01*
X60195697Y-26095311D01*
X60195697Y-26095309D01*
X60136392Y-25992591D01*
X60136390Y-25992589D01*
X60136389Y-25992587D01*
X60052513Y-25908711D01*
X60052510Y-25908709D01*
X60052508Y-25908707D01*
X59949789Y-25849402D01*
X59949790Y-25849402D01*
X59922915Y-25842201D01*
X59835209Y-25818700D01*
X59716591Y-25818700D01*
X59646467Y-25837489D01*
X59602009Y-25849402D01*
X59499291Y-25908707D01*
X59415409Y-25992589D01*
X59375257Y-26062132D01*
X59375254Y-26062139D01*
X59356101Y-26095314D01*
X59330095Y-26192369D01*
X59330094Y-26192372D01*
X59328426Y-26198599D01*
X59325400Y-26209891D01*
X59086411Y-26209891D01*
X59104789Y-26191513D01*
X59164099Y-26088786D01*
X59194800Y-25974209D01*
X59194800Y-25855591D01*
X59164099Y-25741014D01*
X59164097Y-25741011D01*
X59164097Y-25741009D01*
X59104792Y-25638291D01*
X59104790Y-25638289D01*
X59104789Y-25638287D01*
X59020913Y-25554411D01*
X59020910Y-25554409D01*
X59020908Y-25554407D01*
X58918189Y-25495102D01*
X58918191Y-25495102D01*
X58914915Y-25494224D01*
X58909322Y-25492726D01*
X58858010Y-25459403D01*
X58836083Y-25402282D01*
X58851918Y-25343181D01*
X58899468Y-25304676D01*
X58934947Y-25298100D01*
X62738491Y-25298100D01*
X62796682Y-25317007D01*
X62832646Y-25366507D01*
X62832646Y-25427693D01*
X62808496Y-25467101D01*
X62767698Y-25507900D01*
X62729108Y-25546490D01*
X62729107Y-25546491D01*
X62669802Y-25649209D01*
X62669801Y-25649214D01*
X62639100Y-25763791D01*
X62639100Y-25882409D01*
X62646147Y-25908707D01*
X62669802Y-25996990D01*
X62729107Y-26099708D01*
X62729109Y-26099710D01*
X62729111Y-26099713D01*
X62812987Y-26183589D01*
X62812989Y-26183590D01*
X62812991Y-26183592D01*
X62915710Y-26242897D01*
X62915711Y-26242897D01*
X62915714Y-26242899D01*
X63030291Y-26273600D01*
X63030293Y-26273600D01*
X63148907Y-26273600D01*
X63148909Y-26273600D01*
X63263486Y-26242899D01*
X63263488Y-26242897D01*
X63263490Y-26242897D01*
X63366208Y-26183592D01*
X63366208Y-26183591D01*
X63366213Y-26183589D01*
X63450089Y-26099713D01*
X63452632Y-26095309D01*
X63509397Y-25996990D01*
X63509397Y-25996988D01*
X63509399Y-25996986D01*
X63531664Y-25913891D01*
X63991800Y-25913891D01*
X63991800Y-26032509D01*
X64015595Y-26121311D01*
X64022502Y-26147090D01*
X64081807Y-26249808D01*
X64081809Y-26249810D01*
X64081811Y-26249813D01*
X64165687Y-26333689D01*
X64165689Y-26333690D01*
X64165691Y-26333692D01*
X64268410Y-26392997D01*
X64268411Y-26392997D01*
X64268414Y-26392999D01*
X64382991Y-26423700D01*
X64382993Y-26423700D01*
X64501607Y-26423700D01*
X64501609Y-26423700D01*
X64616186Y-26392999D01*
X64616188Y-26392997D01*
X64616190Y-26392997D01*
X64718908Y-26333692D01*
X64718908Y-26333691D01*
X64718913Y-26333689D01*
X64802789Y-26249813D01*
X64819536Y-26220807D01*
X64862097Y-26147090D01*
X64862097Y-26147088D01*
X64862099Y-26147086D01*
X64892800Y-26032509D01*
X64892800Y-25913891D01*
X64862099Y-25799314D01*
X64862097Y-25799311D01*
X64862097Y-25799309D01*
X64802792Y-25696591D01*
X64802790Y-25696589D01*
X64802789Y-25696587D01*
X64718913Y-25612711D01*
X64718910Y-25612709D01*
X64718908Y-25612707D01*
X64616189Y-25553402D01*
X64616190Y-25553402D01*
X64602651Y-25549774D01*
X64501609Y-25522700D01*
X64382991Y-25522700D01*
X64312867Y-25541489D01*
X64268409Y-25553402D01*
X64165691Y-25612707D01*
X64081807Y-25696591D01*
X64022502Y-25799309D01*
X64007421Y-25855592D01*
X63991800Y-25913891D01*
X63531664Y-25913891D01*
X63540100Y-25882409D01*
X63540100Y-25763791D01*
X63509399Y-25649214D01*
X63509397Y-25649211D01*
X63509397Y-25649209D01*
X63450092Y-25546491D01*
X63450090Y-25546489D01*
X63450089Y-25546487D01*
X63370703Y-25467101D01*
X63342928Y-25412587D01*
X63352499Y-25352155D01*
X63395764Y-25308890D01*
X63440709Y-25298100D01*
X64770231Y-25298100D01*
X64828422Y-25317007D01*
X64840235Y-25327096D01*
X69276404Y-29763265D01*
X69304181Y-29817782D01*
X69305400Y-29833269D01*
X69305400Y-29947809D01*
X69332474Y-30048851D01*
X69336102Y-30062390D01*
X69395407Y-30165108D01*
X69395409Y-30165110D01*
X69395411Y-30165113D01*
X69479287Y-30248989D01*
X69479289Y-30248990D01*
X69479291Y-30248992D01*
X69582010Y-30308297D01*
X69582011Y-30308297D01*
X69582014Y-30308299D01*
X69696591Y-30339000D01*
X69696593Y-30339000D01*
X69815207Y-30339000D01*
X69815209Y-30339000D01*
X69929786Y-30308299D01*
X69938096Y-30303500D01*
X69997944Y-30290777D01*
X70053841Y-30315661D01*
X70084436Y-30368648D01*
X70086600Y-30389235D01*
X70086600Y-34218130D01*
X70067693Y-34276321D01*
X70057604Y-34288134D01*
X67171568Y-37174169D01*
X67117051Y-37201946D01*
X67056620Y-37192375D01*
X67020889Y-37174169D01*
X66941640Y-37133789D01*
X66769406Y-37077828D01*
X66590549Y-37049500D01*
X66590546Y-37049500D01*
X66409454Y-37049500D01*
X66409451Y-37049500D01*
X66230593Y-37077828D01*
X66058362Y-37133788D01*
X65897008Y-37216002D01*
X65823752Y-37269225D01*
X65750499Y-37322447D01*
X65622447Y-37450499D01*
X65569225Y-37523752D01*
X65516002Y-37597008D01*
X65433788Y-37758362D01*
X65377828Y-37930593D01*
X65349500Y-38109450D01*
X65349500Y-38290549D01*
X65377828Y-38469406D01*
X65377829Y-38469409D01*
X65433789Y-38641639D01*
X65516004Y-38802994D01*
X65622447Y-38949501D01*
X65750499Y-39077553D01*
X65897006Y-39183996D01*
X66058361Y-39266211D01*
X66230591Y-39322171D01*
X66302136Y-39333502D01*
X66409451Y-39350500D01*
X66409454Y-39350500D01*
X66590549Y-39350500D01*
X66679977Y-39336335D01*
X66769409Y-39322171D01*
X66941639Y-39266211D01*
X67102994Y-39183996D01*
X67249501Y-39077553D01*
X67377553Y-38949501D01*
X67483996Y-38802994D01*
X67566211Y-38641639D01*
X67622171Y-38469409D01*
X67650500Y-38290546D01*
X67650500Y-38109454D01*
X67650500Y-38109450D01*
X67622171Y-37930593D01*
X67622171Y-37930591D01*
X67566211Y-37758361D01*
X67519974Y-37667616D01*
X67507624Y-37643378D01*
X67498053Y-37582946D01*
X67525830Y-37528430D01*
X67525830Y-37528429D01*
X69346368Y-35707891D01*
X74266600Y-35707891D01*
X74266600Y-35826509D01*
X74280480Y-35878308D01*
X74297302Y-35941090D01*
X74356607Y-36043808D01*
X74356609Y-36043810D01*
X74356611Y-36043813D01*
X74440487Y-36127689D01*
X74440489Y-36127690D01*
X74440491Y-36127692D01*
X74543210Y-36186997D01*
X74543211Y-36186997D01*
X74543214Y-36186999D01*
X74657791Y-36217700D01*
X74657793Y-36217700D01*
X74776407Y-36217700D01*
X74776409Y-36217700D01*
X74890986Y-36186999D01*
X74890988Y-36186997D01*
X74890990Y-36186997D01*
X74993708Y-36127692D01*
X74993708Y-36127691D01*
X74993713Y-36127689D01*
X75077589Y-36043813D01*
X75124341Y-35962837D01*
X75136897Y-35941090D01*
X75136897Y-35941088D01*
X75136899Y-35941086D01*
X75167600Y-35826509D01*
X75167600Y-35707891D01*
X75136899Y-35593314D01*
X75136897Y-35593311D01*
X75136897Y-35593309D01*
X75077592Y-35490591D01*
X75077590Y-35490589D01*
X75077589Y-35490587D01*
X74993713Y-35406711D01*
X74993710Y-35406709D01*
X74993708Y-35406707D01*
X74890989Y-35347402D01*
X74890990Y-35347402D01*
X74877451Y-35343774D01*
X74776409Y-35316700D01*
X74657791Y-35316700D01*
X74587667Y-35335489D01*
X74543209Y-35347402D01*
X74440491Y-35406707D01*
X74356607Y-35490591D01*
X74297302Y-35593309D01*
X74297301Y-35593314D01*
X74266600Y-35707891D01*
X69346368Y-35707891D01*
X70478995Y-34575264D01*
X70478997Y-34575264D01*
X70549464Y-34504797D01*
X70587600Y-34412728D01*
X70587600Y-29687759D01*
X70587601Y-29687750D01*
X70587601Y-29576573D01*
X70562970Y-29517109D01*
X70549465Y-29484505D01*
X70549464Y-29484504D01*
X70549464Y-29484503D01*
X70478997Y-29414036D01*
X70478995Y-29414035D01*
X67167152Y-26102191D01*
X69457000Y-26102191D01*
X69457000Y-26220809D01*
X69478811Y-26302209D01*
X69487702Y-26335390D01*
X69547007Y-26438108D01*
X69547009Y-26438110D01*
X69547011Y-26438113D01*
X69630887Y-26521989D01*
X69630889Y-26521990D01*
X69630891Y-26521992D01*
X69733610Y-26581297D01*
X69733611Y-26581297D01*
X69733614Y-26581299D01*
X69848191Y-26612000D01*
X69848193Y-26612000D01*
X69966807Y-26612000D01*
X69966809Y-26612000D01*
X70081386Y-26581299D01*
X70081388Y-26581297D01*
X70081390Y-26581297D01*
X70184108Y-26521992D01*
X70184108Y-26521991D01*
X70184113Y-26521989D01*
X70267989Y-26438113D01*
X70269089Y-26436208D01*
X70327297Y-26335390D01*
X70327297Y-26335388D01*
X70327299Y-26335386D01*
X70358000Y-26220809D01*
X70358000Y-26102191D01*
X70327299Y-25987614D01*
X70327297Y-25987611D01*
X70327297Y-25987609D01*
X70267992Y-25884891D01*
X70267990Y-25884889D01*
X70267989Y-25884887D01*
X70184113Y-25801011D01*
X70184110Y-25801009D01*
X70184108Y-25801007D01*
X70081389Y-25741702D01*
X70081390Y-25741702D01*
X70067851Y-25738074D01*
X69966809Y-25711000D01*
X69848191Y-25711000D01*
X69778067Y-25729789D01*
X69733609Y-25741702D01*
X69630891Y-25801007D01*
X69547007Y-25884891D01*
X69487702Y-25987609D01*
X69475995Y-26031300D01*
X69457000Y-26102191D01*
X67167152Y-26102191D01*
X65460952Y-24395991D01*
X68019200Y-24395991D01*
X68019200Y-24514609D01*
X68035087Y-24573900D01*
X68049902Y-24629190D01*
X68109207Y-24731908D01*
X68109209Y-24731910D01*
X68109211Y-24731913D01*
X68193087Y-24815789D01*
X68193089Y-24815790D01*
X68193091Y-24815792D01*
X68295810Y-24875097D01*
X68295811Y-24875097D01*
X68295814Y-24875099D01*
X68410391Y-24905800D01*
X68410393Y-24905800D01*
X68529007Y-24905800D01*
X68529009Y-24905800D01*
X68643586Y-24875099D01*
X68643588Y-24875097D01*
X68643590Y-24875097D01*
X68746308Y-24815792D01*
X68746308Y-24815791D01*
X68746313Y-24815789D01*
X68830189Y-24731913D01*
X68830192Y-24731908D01*
X68889497Y-24629190D01*
X68889497Y-24629188D01*
X68889499Y-24629186D01*
X68920200Y-24514609D01*
X68920200Y-24395991D01*
X68889499Y-24281414D01*
X68889497Y-24281411D01*
X68889497Y-24281409D01*
X68830192Y-24178691D01*
X68830190Y-24178689D01*
X68830189Y-24178687D01*
X68746313Y-24094811D01*
X68746310Y-24094809D01*
X68746308Y-24094807D01*
X68643589Y-24035502D01*
X68643590Y-24035502D01*
X68615185Y-24027891D01*
X68529009Y-24004800D01*
X68410391Y-24004800D01*
X68340267Y-24023589D01*
X68295809Y-24035502D01*
X68193091Y-24094807D01*
X68109207Y-24178691D01*
X68049902Y-24281409D01*
X68038785Y-24322899D01*
X68019200Y-24395991D01*
X65460952Y-24395991D01*
X63998152Y-22933191D01*
X68101700Y-22933191D01*
X68101700Y-23051809D01*
X68108320Y-23076514D01*
X68132402Y-23166390D01*
X68191707Y-23269108D01*
X68191709Y-23269110D01*
X68191711Y-23269113D01*
X68275587Y-23352989D01*
X68275589Y-23352990D01*
X68275591Y-23352992D01*
X68378310Y-23412297D01*
X68378311Y-23412297D01*
X68378314Y-23412299D01*
X68492891Y-23443000D01*
X68492893Y-23443000D01*
X68611507Y-23443000D01*
X68611509Y-23443000D01*
X68726086Y-23412299D01*
X68726088Y-23412297D01*
X68726090Y-23412297D01*
X68828808Y-23352992D01*
X68828808Y-23352991D01*
X68828813Y-23352989D01*
X68912689Y-23269113D01*
X68912692Y-23269108D01*
X68971997Y-23166390D01*
X68971997Y-23166388D01*
X68971999Y-23166386D01*
X69002700Y-23051809D01*
X69002700Y-22933191D01*
X68971999Y-22818614D01*
X68971997Y-22818611D01*
X68971997Y-22818609D01*
X68912692Y-22715891D01*
X68912690Y-22715889D01*
X68912689Y-22715887D01*
X68828813Y-22632011D01*
X68828810Y-22632009D01*
X68828808Y-22632007D01*
X68726089Y-22572702D01*
X68726090Y-22572702D01*
X68683145Y-22561195D01*
X68611509Y-22542000D01*
X68492891Y-22542000D01*
X68422767Y-22560789D01*
X68378309Y-22572702D01*
X68275591Y-22632007D01*
X68191707Y-22715891D01*
X68132402Y-22818609D01*
X68115237Y-22882669D01*
X68101700Y-22933191D01*
X63998152Y-22933191D01*
X62146497Y-21081536D01*
X62146495Y-21081535D01*
X62146494Y-21081534D01*
X62054429Y-21043400D01*
X62054428Y-21043400D01*
X58250409Y-21043400D01*
X58192218Y-21024493D01*
X58180411Y-21014409D01*
X58099413Y-20933411D01*
X58099410Y-20933409D01*
X58099408Y-20933407D01*
X57996689Y-20874102D01*
X57996690Y-20874102D01*
X57983151Y-20870474D01*
X57882109Y-20843400D01*
X57763491Y-20843400D01*
X57693367Y-20862189D01*
X57648909Y-20874102D01*
X57546191Y-20933407D01*
X57462307Y-21017291D01*
X57403002Y-21120009D01*
X57385837Y-21184069D01*
X57372300Y-21234591D01*
X57372300Y-21353209D01*
X57394513Y-21436107D01*
X57403002Y-21467790D01*
X57462307Y-21570508D01*
X57462309Y-21570510D01*
X57462311Y-21570513D01*
X57546187Y-21654389D01*
X57546189Y-21654390D01*
X57546191Y-21654392D01*
X57648910Y-21713697D01*
X57648911Y-21713697D01*
X57648914Y-21713699D01*
X57763491Y-21744400D01*
X57763493Y-21744400D01*
X57882107Y-21744400D01*
X57882109Y-21744400D01*
X57996686Y-21713699D01*
X57996688Y-21713697D01*
X57996690Y-21713697D01*
X58099408Y-21654392D01*
X58099408Y-21654391D01*
X58099413Y-21654389D01*
X58180407Y-21573394D01*
X58234922Y-21545619D01*
X58250409Y-21544400D01*
X61859831Y-21544400D01*
X61918022Y-21563307D01*
X61929835Y-21573396D01*
X64984535Y-24628096D01*
X65012312Y-24682613D01*
X65002741Y-24743045D01*
X64959476Y-24786310D01*
X64914531Y-24797100D01*
X57425568Y-24797100D01*
X57367377Y-24778193D01*
X57355564Y-24768104D01*
X56477215Y-23889754D01*
X56449438Y-23835237D01*
X56459009Y-23774805D01*
X56502274Y-23731540D01*
X56562706Y-23721969D01*
X56572830Y-23724120D01*
X56574991Y-23724700D01*
X56574994Y-23724700D01*
X56693607Y-23724700D01*
X56693609Y-23724700D01*
X56808186Y-23693999D01*
X56808188Y-23693997D01*
X56808190Y-23693997D01*
X56910908Y-23634692D01*
X56910908Y-23634691D01*
X56910913Y-23634689D01*
X56994789Y-23550813D01*
X57017252Y-23511907D01*
X57054097Y-23448090D01*
X57054097Y-23448088D01*
X57054099Y-23448086D01*
X57084800Y-23333509D01*
X57084800Y-23214891D01*
X57054099Y-23100314D01*
X57054097Y-23100311D01*
X57054097Y-23100309D01*
X56994792Y-22997591D01*
X56994790Y-22997589D01*
X56994789Y-22997587D01*
X56910913Y-22913711D01*
X56910910Y-22913709D01*
X56910908Y-22913707D01*
X56808189Y-22854402D01*
X56808190Y-22854402D01*
X56794651Y-22850774D01*
X56693609Y-22823700D01*
X56574991Y-22823700D01*
X56504867Y-22842489D01*
X56460409Y-22854402D01*
X56357691Y-22913707D01*
X56273807Y-22997591D01*
X56214502Y-23100309D01*
X56214501Y-23100314D01*
X56187676Y-23200428D01*
X56183800Y-23214892D01*
X56183800Y-23333508D01*
X56184376Y-23335658D01*
X56184292Y-23337249D01*
X56184647Y-23339941D01*
X56184148Y-23340006D01*
X56181173Y-23396759D01*
X56142668Y-23444309D01*
X56083567Y-23460144D01*
X56026446Y-23438217D01*
X56018745Y-23431284D01*
X55963096Y-23375635D01*
X55935319Y-23321118D01*
X55934100Y-23305631D01*
X55934100Y-23191092D01*
X55909776Y-23100314D01*
X55903399Y-23076514D01*
X55903397Y-23076511D01*
X55903397Y-23076509D01*
X55844092Y-22973791D01*
X55844090Y-22973789D01*
X55844089Y-22973787D01*
X55760213Y-22889911D01*
X55760210Y-22889909D01*
X55760208Y-22889907D01*
X55657489Y-22830602D01*
X55657490Y-22830602D01*
X55612750Y-22818614D01*
X55542909Y-22799900D01*
X55424291Y-22799900D01*
X55354468Y-22818609D01*
X55309709Y-22830602D01*
X55206991Y-22889907D01*
X55123107Y-22973791D01*
X55063802Y-23076509D01*
X55063801Y-23076514D01*
X55033100Y-23191091D01*
X52250500Y-23191091D01*
X52250500Y-22754367D01*
X52269407Y-22696176D01*
X52279490Y-22684369D01*
X55330768Y-19633091D01*
X63405400Y-19633091D01*
X63405400Y-19751709D01*
X63426110Y-19828999D01*
X63436102Y-19866290D01*
X63495407Y-19969008D01*
X63495409Y-19969010D01*
X63495411Y-19969013D01*
X63579287Y-20052889D01*
X63579289Y-20052890D01*
X63579291Y-20052892D01*
X63682010Y-20112197D01*
X63682011Y-20112197D01*
X63682014Y-20112199D01*
X63796591Y-20142900D01*
X63796593Y-20142900D01*
X63915207Y-20142900D01*
X63915209Y-20142900D01*
X64029786Y-20112199D01*
X64029788Y-20112197D01*
X64029790Y-20112197D01*
X64132508Y-20052892D01*
X64132508Y-20052891D01*
X64132513Y-20052889D01*
X64216389Y-19969013D01*
X64275699Y-19866286D01*
X64306400Y-19751709D01*
X64306400Y-19633091D01*
X64275699Y-19518514D01*
X64275697Y-19518511D01*
X64275697Y-19518509D01*
X64216392Y-19415791D01*
X64216390Y-19415789D01*
X64216389Y-19415787D01*
X64132513Y-19331911D01*
X64132510Y-19331909D01*
X64132508Y-19331907D01*
X64029789Y-19272602D01*
X64029790Y-19272602D01*
X64016251Y-19268974D01*
X63915209Y-19241900D01*
X63796591Y-19241900D01*
X63726467Y-19260689D01*
X63682009Y-19272602D01*
X63579291Y-19331907D01*
X63495407Y-19415791D01*
X63436102Y-19518509D01*
X63436101Y-19518514D01*
X63405400Y-19633091D01*
X55330768Y-19633091D01*
X56847095Y-18116764D01*
X56847097Y-18116764D01*
X56917564Y-18046297D01*
X56941794Y-17987800D01*
X56955701Y-17954227D01*
X56955701Y-17919991D01*
X57605300Y-17919991D01*
X57605300Y-18038609D01*
X57629972Y-18130685D01*
X57636002Y-18153190D01*
X57695307Y-18255908D01*
X57695309Y-18255910D01*
X57695311Y-18255913D01*
X57779187Y-18339789D01*
X57779189Y-18339790D01*
X57779191Y-18339792D01*
X57881910Y-18399097D01*
X57881911Y-18399097D01*
X57881914Y-18399099D01*
X57996491Y-18429800D01*
X57996493Y-18429800D01*
X58115107Y-18429800D01*
X58115109Y-18429800D01*
X58229686Y-18399099D01*
X58229688Y-18399097D01*
X58229690Y-18399097D01*
X58332408Y-18339792D01*
X58332408Y-18339791D01*
X58332413Y-18339789D01*
X58416289Y-18255913D01*
X58416292Y-18255908D01*
X58475597Y-18153190D01*
X58475597Y-18153188D01*
X58475599Y-18153186D01*
X58506300Y-18038609D01*
X58506300Y-17919991D01*
X58475599Y-17805414D01*
X58451741Y-17764091D01*
X69860100Y-17764091D01*
X69860100Y-17882709D01*
X69873043Y-17931011D01*
X69890802Y-17997290D01*
X69950107Y-18100008D01*
X69950109Y-18100010D01*
X69950111Y-18100013D01*
X70033987Y-18183889D01*
X70033989Y-18183890D01*
X70033991Y-18183892D01*
X70136710Y-18243197D01*
X70136711Y-18243197D01*
X70136714Y-18243199D01*
X70251291Y-18273900D01*
X70251293Y-18273900D01*
X70369907Y-18273900D01*
X70369909Y-18273900D01*
X70484486Y-18243199D01*
X70484488Y-18243197D01*
X70484490Y-18243197D01*
X70587208Y-18183892D01*
X70587208Y-18183891D01*
X70587213Y-18183889D01*
X70671089Y-18100013D01*
X70730399Y-17997286D01*
X70761100Y-17882709D01*
X70761100Y-17764091D01*
X70730399Y-17649514D01*
X70730397Y-17649511D01*
X70730397Y-17649509D01*
X70671092Y-17546791D01*
X70671090Y-17546789D01*
X70671089Y-17546787D01*
X70587213Y-17462911D01*
X70587210Y-17462909D01*
X70587208Y-17462907D01*
X70484489Y-17403602D01*
X70484490Y-17403602D01*
X70470951Y-17399974D01*
X70369909Y-17372900D01*
X70251291Y-17372900D01*
X70181167Y-17391689D01*
X70136709Y-17403602D01*
X70033991Y-17462907D01*
X69950107Y-17546791D01*
X69890802Y-17649509D01*
X69886389Y-17665979D01*
X69860100Y-17764091D01*
X58451741Y-17764091D01*
X58426405Y-17720208D01*
X58416292Y-17702691D01*
X58416290Y-17702689D01*
X58416289Y-17702687D01*
X58332413Y-17618811D01*
X58332410Y-17618809D01*
X58332408Y-17618807D01*
X58229689Y-17559502D01*
X58229690Y-17559502D01*
X58216151Y-17555874D01*
X58115109Y-17528800D01*
X57996491Y-17528800D01*
X57929363Y-17546787D01*
X57881909Y-17559502D01*
X57779191Y-17618807D01*
X57695307Y-17702691D01*
X57636002Y-17805409D01*
X57632676Y-17817822D01*
X57605300Y-17919991D01*
X56955701Y-17919991D01*
X56955701Y-17854572D01*
X56955701Y-17846598D01*
X56955700Y-17846584D01*
X56955700Y-14518371D01*
X56917564Y-14426303D01*
X56847097Y-14355835D01*
X56847097Y-14355836D01*
X56148296Y-13657035D01*
X56120519Y-13602518D01*
X56119300Y-13587031D01*
X56119300Y-13549992D01*
X56119300Y-13549991D01*
X56088599Y-13435414D01*
X56088597Y-13435411D01*
X56088597Y-13435409D01*
X56029292Y-13332691D01*
X56029290Y-13332689D01*
X56029289Y-13332687D01*
X55945413Y-13248811D01*
X55945410Y-13248809D01*
X55945408Y-13248807D01*
X55941126Y-13246335D01*
X55900186Y-13200865D01*
X55893792Y-13140014D01*
X55924386Y-13087027D01*
X55980282Y-13062142D01*
X55990628Y-13061600D01*
X72902391Y-13061600D01*
X72960582Y-13080507D01*
X72972388Y-13090590D01*
X73053387Y-13171589D01*
X73053389Y-13171590D01*
X73053391Y-13171592D01*
X73156110Y-13230897D01*
X73156111Y-13230897D01*
X73156114Y-13230899D01*
X73270691Y-13261600D01*
X73270693Y-13261600D01*
X73389307Y-13261600D01*
X73389309Y-13261600D01*
X73503886Y-13230899D01*
X73503888Y-13230897D01*
X73503890Y-13230897D01*
X73606608Y-13171592D01*
X73606608Y-13171591D01*
X73606613Y-13171589D01*
X73690489Y-13087713D01*
X73690885Y-13087027D01*
X73749797Y-12984990D01*
X73749797Y-12984988D01*
X73749799Y-12984986D01*
X73780500Y-12870409D01*
X73780500Y-12751791D01*
X73749799Y-12637214D01*
X73749797Y-12637211D01*
X73749797Y-12637209D01*
X73690492Y-12534491D01*
X73690490Y-12534489D01*
X73690489Y-12534487D01*
X73606613Y-12450611D01*
X73606610Y-12450609D01*
X73606608Y-12450607D01*
X73503889Y-12391302D01*
X73503890Y-12391302D01*
X73490351Y-12387674D01*
X73389309Y-12360600D01*
X73270691Y-12360600D01*
X73200567Y-12379389D01*
X73156109Y-12391302D01*
X73053391Y-12450607D01*
X73053390Y-12450608D01*
X73053387Y-12450610D01*
X73053387Y-12450611D01*
X72972392Y-12531605D01*
X72917878Y-12559381D01*
X72902391Y-12560600D01*
X55051971Y-12560600D01*
X54959905Y-12598734D01*
X53119302Y-14439336D01*
X53064785Y-14467113D01*
X53004353Y-14457542D01*
X52961088Y-14414277D01*
X52953673Y-14394960D01*
X52944899Y-14362214D01*
X52941216Y-14355835D01*
X52885592Y-14259491D01*
X52885590Y-14259489D01*
X52885589Y-14259487D01*
X52801713Y-14175611D01*
X52801710Y-14175609D01*
X52801708Y-14175607D01*
X52698989Y-14116302D01*
X52698990Y-14116302D01*
X52685451Y-14112674D01*
X52584409Y-14085600D01*
X52465791Y-14085600D01*
X52395667Y-14104389D01*
X52351209Y-14116302D01*
X52248491Y-14175607D01*
X52164607Y-14259491D01*
X52105302Y-14362209D01*
X52096528Y-14394954D01*
X52074600Y-14476791D01*
X52074600Y-14595409D01*
X52079913Y-14615236D01*
X52105302Y-14709990D01*
X52164607Y-14812708D01*
X52164609Y-14812710D01*
X52164611Y-14812713D01*
X52248487Y-14896589D01*
X52248489Y-14896590D01*
X52248491Y-14896592D01*
X52351210Y-14955897D01*
X52351211Y-14955897D01*
X52351214Y-14955899D01*
X52383955Y-14964672D01*
X52435269Y-14997994D01*
X52457196Y-15055116D01*
X52441361Y-15114216D01*
X52428336Y-15130302D01*
X41039223Y-26519415D01*
X40984706Y-26547192D01*
X40924274Y-26537621D01*
X40883482Y-26498911D01*
X40882099Y-26496516D01*
X40882099Y-26496514D01*
X40822789Y-26393787D01*
X40738913Y-26309911D01*
X40738910Y-26309909D01*
X40738908Y-26309907D01*
X40636189Y-26250602D01*
X40636190Y-26250602D01*
X40622651Y-26246974D01*
X40521609Y-26219900D01*
X40402991Y-26219900D01*
X40332867Y-26238689D01*
X40288409Y-26250602D01*
X40185691Y-26309907D01*
X40101807Y-26393791D01*
X40042502Y-26496509D01*
X40029511Y-26544992D01*
X40011800Y-26611091D01*
X40011800Y-26729709D01*
X40024791Y-26778190D01*
X40042502Y-26844290D01*
X40101807Y-26947008D01*
X40101809Y-26947010D01*
X40101811Y-26947013D01*
X40185687Y-27030889D01*
X40288414Y-27090199D01*
X40288416Y-27090199D01*
X40290811Y-27091582D01*
X40331752Y-27137052D01*
X40338148Y-27197902D01*
X40311315Y-27247323D01*
X36624496Y-30934142D01*
X36569979Y-30961919D01*
X36509547Y-30952348D01*
X36466282Y-30909083D01*
X36456711Y-30848651D01*
X36458866Y-30838514D01*
X36469799Y-30797711D01*
X36469800Y-30797708D01*
X36469800Y-30679092D01*
X36469800Y-30679091D01*
X36439099Y-30564514D01*
X36439097Y-30564511D01*
X36439097Y-30564509D01*
X36379792Y-30461791D01*
X36379790Y-30461789D01*
X36379789Y-30461787D01*
X36295913Y-30377911D01*
X36295910Y-30377909D01*
X36295908Y-30377907D01*
X36193189Y-30318602D01*
X36193190Y-30318602D01*
X36179651Y-30314974D01*
X36078609Y-30287900D01*
X35959991Y-30287900D01*
X35901768Y-30303501D01*
X35845409Y-30318602D01*
X35742691Y-30377907D01*
X35658807Y-30461791D01*
X35599502Y-30564509D01*
X35595970Y-30577691D01*
X35568800Y-30679091D01*
X35568800Y-30797709D01*
X35568801Y-30797711D01*
X35599502Y-30912290D01*
X35658807Y-31015008D01*
X35658809Y-31015010D01*
X35658811Y-31015013D01*
X35742687Y-31098889D01*
X35742689Y-31098890D01*
X35742691Y-31098892D01*
X35845410Y-31158197D01*
X35845411Y-31158197D01*
X35845414Y-31158199D01*
X35959991Y-31188900D01*
X35959993Y-31188900D01*
X36078608Y-31188900D01*
X36078609Y-31188900D01*
X36119414Y-31177966D01*
X36180515Y-31181167D01*
X36228066Y-31219672D01*
X36243902Y-31278772D01*
X36221976Y-31335894D01*
X36215042Y-31343596D01*
X33869535Y-33689104D01*
X33815018Y-33716881D01*
X33799531Y-33718100D01*
X33207171Y-33718100D01*
X33115105Y-33756234D01*
X32398103Y-34473236D01*
X32398102Y-34473235D01*
X32327635Y-34543703D01*
X32289500Y-34635771D01*
X32289500Y-34954677D01*
X32270593Y-35012868D01*
X32228386Y-35046141D01*
X32066085Y-35113368D01*
X31902218Y-35222861D01*
X31902214Y-35222864D01*
X31762864Y-35362214D01*
X31762861Y-35362218D01*
X31653367Y-35526086D01*
X31577949Y-35708163D01*
X31577949Y-35708165D01*
X31539500Y-35901456D01*
X31539500Y-35904646D01*
X31539049Y-35906031D01*
X31539024Y-35906295D01*
X31538966Y-35906289D01*
X31520593Y-35962837D01*
X31471093Y-35998801D01*
X31409907Y-35998801D01*
X31360407Y-35962837D01*
X31349036Y-35942532D01*
X31314065Y-35858105D01*
X31314064Y-35858104D01*
X31314064Y-35858103D01*
X31243597Y-35787636D01*
X31243595Y-35787635D01*
X31243594Y-35787634D01*
X31151529Y-35749500D01*
X31151528Y-35749500D01*
X31099500Y-35749500D01*
X31041309Y-35730593D01*
X31005345Y-35681093D01*
X31000500Y-35650500D01*
X31000500Y-35135181D01*
X31000499Y-35135172D01*
X30991767Y-35091279D01*
X30991765Y-35091275D01*
X30982011Y-35076677D01*
X30958504Y-35041496D01*
X30957840Y-35041052D01*
X30908724Y-35008234D01*
X30908720Y-35008232D01*
X30864827Y-34999500D01*
X30864820Y-34999500D01*
X29135180Y-34999500D01*
X29135172Y-34999500D01*
X29091279Y-35008232D01*
X29091275Y-35008234D01*
X29041498Y-35041494D01*
X29041494Y-35041498D01*
X29008234Y-35091275D01*
X29008232Y-35091279D01*
X28999500Y-35135172D01*
X24771133Y-35135172D01*
X23433152Y-33797191D01*
X27405400Y-33797191D01*
X27405400Y-33915809D01*
X27432474Y-34016851D01*
X27436102Y-34030390D01*
X27495407Y-34133108D01*
X27495409Y-34133110D01*
X27495411Y-34133113D01*
X27579287Y-34216989D01*
X27579289Y-34216990D01*
X27579291Y-34216992D01*
X27682010Y-34276297D01*
X27682011Y-34276297D01*
X27682014Y-34276299D01*
X27796591Y-34307000D01*
X27796593Y-34307000D01*
X27915207Y-34307000D01*
X27915209Y-34307000D01*
X28029786Y-34276299D01*
X28029788Y-34276297D01*
X28029790Y-34276297D01*
X28132508Y-34216992D01*
X28132508Y-34216991D01*
X28132513Y-34216989D01*
X28216389Y-34133113D01*
X28275699Y-34030386D01*
X28306400Y-33915809D01*
X28306400Y-33797191D01*
X28275699Y-33682614D01*
X28275697Y-33682611D01*
X28275697Y-33682609D01*
X28216392Y-33579891D01*
X28216390Y-33579889D01*
X28216389Y-33579887D01*
X28132513Y-33496011D01*
X28132510Y-33496009D01*
X28132508Y-33496007D01*
X28029789Y-33436702D01*
X28029790Y-33436702D01*
X28016251Y-33433074D01*
X27915209Y-33406000D01*
X27796591Y-33406000D01*
X27726467Y-33424789D01*
X27682009Y-33436702D01*
X27579291Y-33496007D01*
X27495407Y-33579891D01*
X27436102Y-33682609D01*
X27436101Y-33682614D01*
X27405400Y-33797191D01*
X23433152Y-33797191D01*
X19695052Y-30059091D01*
X24759700Y-30059091D01*
X24759700Y-30177709D01*
X24778800Y-30248989D01*
X24790402Y-30292290D01*
X24849707Y-30395008D01*
X24849709Y-30395010D01*
X24849711Y-30395013D01*
X24933587Y-30478889D01*
X24933589Y-30478890D01*
X24933591Y-30478892D01*
X25036310Y-30538197D01*
X25036311Y-30538197D01*
X25036314Y-30538199D01*
X25150891Y-30568900D01*
X25150893Y-30568900D01*
X25269507Y-30568900D01*
X25269509Y-30568900D01*
X25384086Y-30538199D01*
X25384088Y-30538197D01*
X25384090Y-30538197D01*
X25486808Y-30478892D01*
X25486808Y-30478891D01*
X25486813Y-30478889D01*
X25567807Y-30397894D01*
X25622322Y-30370119D01*
X25637809Y-30368900D01*
X26499529Y-30368900D01*
X26571713Y-30339000D01*
X26591597Y-30330764D01*
X31957269Y-24965091D01*
X33145900Y-24965091D01*
X33145900Y-25083709D01*
X33162218Y-25144607D01*
X33176602Y-25198290D01*
X33235907Y-25301008D01*
X33235909Y-25301010D01*
X33235911Y-25301013D01*
X33319787Y-25384889D01*
X33319789Y-25384890D01*
X33319791Y-25384892D01*
X33422510Y-25444197D01*
X33422511Y-25444197D01*
X33422514Y-25444199D01*
X33537091Y-25474900D01*
X33537093Y-25474900D01*
X33655707Y-25474900D01*
X33655709Y-25474900D01*
X33770286Y-25444199D01*
X33770288Y-25444197D01*
X33770290Y-25444197D01*
X33873008Y-25384892D01*
X33873008Y-25384891D01*
X33873013Y-25384889D01*
X33956889Y-25301013D01*
X33997144Y-25231290D01*
X34016197Y-25198290D01*
X34016197Y-25198288D01*
X34016199Y-25198286D01*
X34046900Y-25083709D01*
X34046900Y-24998091D01*
X36665300Y-24998091D01*
X36665300Y-25116709D01*
X36672776Y-25144609D01*
X36696002Y-25231290D01*
X36755307Y-25334008D01*
X36755309Y-25334010D01*
X36755311Y-25334013D01*
X36839187Y-25417889D01*
X36839189Y-25417890D01*
X36839191Y-25417892D01*
X36941910Y-25477197D01*
X36941911Y-25477197D01*
X36941914Y-25477199D01*
X37056491Y-25507900D01*
X37056493Y-25507900D01*
X37175107Y-25507900D01*
X37175109Y-25507900D01*
X37289686Y-25477199D01*
X37289688Y-25477197D01*
X37289690Y-25477197D01*
X37392408Y-25417892D01*
X37392408Y-25417891D01*
X37392413Y-25417889D01*
X37476289Y-25334013D01*
X37476292Y-25334008D01*
X37535597Y-25231290D01*
X37535597Y-25231288D01*
X37535599Y-25231286D01*
X37566300Y-25116709D01*
X37566300Y-24998091D01*
X37535599Y-24883514D01*
X37535597Y-24883511D01*
X37535597Y-24883509D01*
X37476292Y-24780791D01*
X37476290Y-24780789D01*
X37476289Y-24780787D01*
X37392413Y-24696911D01*
X37392410Y-24696909D01*
X37392408Y-24696907D01*
X37289689Y-24637602D01*
X37289690Y-24637602D01*
X37254213Y-24628096D01*
X37175109Y-24606900D01*
X37056491Y-24606900D01*
X36986367Y-24625689D01*
X36941909Y-24637602D01*
X36839191Y-24696907D01*
X36755307Y-24780791D01*
X36696002Y-24883509D01*
X36685186Y-24923875D01*
X36665300Y-24998091D01*
X34046900Y-24998091D01*
X34046900Y-24965091D01*
X34016199Y-24850514D01*
X34016197Y-24850511D01*
X34016197Y-24850509D01*
X33956892Y-24747791D01*
X33956890Y-24747789D01*
X33956889Y-24747787D01*
X33873013Y-24663911D01*
X33873010Y-24663909D01*
X33873008Y-24663907D01*
X33770289Y-24604602D01*
X33770290Y-24604602D01*
X33756751Y-24600974D01*
X33655709Y-24573900D01*
X33537091Y-24573900D01*
X33466967Y-24592689D01*
X33422509Y-24604602D01*
X33319791Y-24663907D01*
X33235907Y-24747791D01*
X33176602Y-24850509D01*
X33166396Y-24888598D01*
X33145900Y-24965091D01*
X31957269Y-24965091D01*
X38550069Y-18372291D01*
X45289600Y-18372291D01*
X45289600Y-18490909D01*
X45310286Y-18568108D01*
X45320302Y-18605490D01*
X45379607Y-18708208D01*
X45379609Y-18708210D01*
X45379611Y-18708213D01*
X45463487Y-18792089D01*
X45463489Y-18792090D01*
X45463491Y-18792092D01*
X45566210Y-18851397D01*
X45566211Y-18851397D01*
X45566214Y-18851399D01*
X45680791Y-18882100D01*
X45680793Y-18882100D01*
X45799407Y-18882100D01*
X45799409Y-18882100D01*
X45913986Y-18851399D01*
X45913988Y-18851397D01*
X45913990Y-18851397D01*
X46016708Y-18792092D01*
X46016708Y-18792091D01*
X46016713Y-18792089D01*
X46100589Y-18708213D01*
X46159899Y-18605486D01*
X46190600Y-18490909D01*
X46190600Y-18372291D01*
X46159899Y-18257714D01*
X46159897Y-18257711D01*
X46159897Y-18257709D01*
X46100592Y-18154991D01*
X46100590Y-18154989D01*
X46100589Y-18154987D01*
X46016713Y-18071111D01*
X46016710Y-18071109D01*
X46016708Y-18071107D01*
X45913989Y-18011802D01*
X45913990Y-18011802D01*
X45900451Y-18008174D01*
X45799409Y-17981100D01*
X45680791Y-17981100D01*
X45610667Y-17999889D01*
X45566209Y-18011802D01*
X45463491Y-18071107D01*
X45379607Y-18154991D01*
X45320302Y-18257709D01*
X45320301Y-18257714D01*
X45289600Y-18372291D01*
X38550069Y-18372291D01*
X45503864Y-11418495D01*
X45558381Y-11390719D01*
X45573868Y-11389500D01*
X55241191Y-11389500D01*
X55299382Y-11408407D01*
X55311188Y-11418490D01*
X55392187Y-11499489D01*
X55392189Y-11499490D01*
X55392191Y-11499492D01*
X55494910Y-11558797D01*
X55494911Y-11558797D01*
X55494914Y-11558799D01*
X55609491Y-11589500D01*
X55609493Y-11589500D01*
X55728107Y-11589500D01*
X55728109Y-11589500D01*
X55842686Y-11558799D01*
X55842688Y-11558797D01*
X55842690Y-11558797D01*
X55945408Y-11499492D01*
X55945408Y-11499491D01*
X55945413Y-11499489D01*
X56029289Y-11415613D01*
X56029292Y-11415608D01*
X56088597Y-11312890D01*
X56088597Y-11312888D01*
X56088599Y-11312886D01*
X56119300Y-11198309D01*
X56119300Y-11079691D01*
X56088599Y-10965114D01*
X56088597Y-10965111D01*
X56088597Y-10965109D01*
X56029292Y-10862391D01*
X56029290Y-10862389D01*
X56029289Y-10862387D01*
X55945413Y-10778511D01*
X55945410Y-10778509D01*
X55945408Y-10778507D01*
X55842689Y-10719202D01*
X55842690Y-10719202D01*
X55829151Y-10715574D01*
X55728109Y-10688500D01*
X55609491Y-10688500D01*
X55556918Y-10702587D01*
X55494909Y-10719202D01*
X55392191Y-10778507D01*
X55392190Y-10778508D01*
X55392187Y-10778510D01*
X55392187Y-10778511D01*
X55311192Y-10859505D01*
X55256678Y-10887281D01*
X55241191Y-10888500D01*
X45379271Y-10888500D01*
X45287203Y-10926635D01*
X45216735Y-10997102D01*
X45216736Y-10997103D01*
X45216735Y-10997104D01*
X41835183Y-14378655D01*
X41780666Y-14406432D01*
X41720234Y-14396861D01*
X41676969Y-14353596D01*
X41667398Y-14293164D01*
X41673717Y-14270761D01*
X41674601Y-14268627D01*
X41674601Y-14160998D01*
X41674600Y-14160984D01*
X41674600Y-10262909D01*
X41693507Y-10204718D01*
X41703590Y-10192911D01*
X41784589Y-10111913D01*
X41843899Y-10009186D01*
X41874600Y-9894609D01*
X41874600Y-9775991D01*
X41843899Y-9661414D01*
X41843897Y-9661411D01*
X41843897Y-9661409D01*
X41784592Y-9558691D01*
X41784590Y-9558689D01*
X41784589Y-9558687D01*
X41700713Y-9474811D01*
X41700710Y-9474809D01*
X41700708Y-9474807D01*
X41597989Y-9415502D01*
X41597990Y-9415502D01*
X41584451Y-9411874D01*
X41483409Y-9384800D01*
X41364791Y-9384800D01*
X41294667Y-9403589D01*
X41250209Y-9415502D01*
X41147491Y-9474807D01*
X41063607Y-9558691D01*
X41004302Y-9661409D01*
X40987137Y-9725469D01*
X40973600Y-9775991D01*
X40973600Y-9894609D01*
X41000674Y-9995651D01*
X41004302Y-10009190D01*
X41063607Y-10111908D01*
X41063609Y-10111910D01*
X41063611Y-10111913D01*
X41144605Y-10192907D01*
X41172381Y-10247422D01*
X41173600Y-10262909D01*
X41173600Y-14074030D01*
X41154693Y-14132221D01*
X41144604Y-14144034D01*
X40589634Y-14699004D01*
X40535117Y-14726781D01*
X40519630Y-14728000D01*
X40405091Y-14728000D01*
X40334967Y-14746789D01*
X40290509Y-14758702D01*
X40187791Y-14818007D01*
X40103907Y-14901891D01*
X40044602Y-15004609D01*
X40044601Y-15004614D01*
X40013900Y-15119191D01*
X40013900Y-15237809D01*
X40024696Y-15278100D01*
X40044602Y-15352390D01*
X40103907Y-15455108D01*
X40103909Y-15455110D01*
X40103911Y-15455113D01*
X40187787Y-15538989D01*
X40187789Y-15538990D01*
X40187791Y-15538992D01*
X40290510Y-15598297D01*
X40290511Y-15598297D01*
X40290514Y-15598299D01*
X40381222Y-15622604D01*
X40432537Y-15655929D01*
X40454463Y-15713050D01*
X40438627Y-15772151D01*
X40425603Y-15788235D01*
X26374935Y-29838904D01*
X26320418Y-29866681D01*
X26304931Y-29867900D01*
X25637809Y-29867900D01*
X25579618Y-29848993D01*
X25567811Y-29838909D01*
X25486813Y-29757911D01*
X25486810Y-29757909D01*
X25486808Y-29757907D01*
X25384089Y-29698602D01*
X25384090Y-29698602D01*
X25343623Y-29687759D01*
X25269509Y-29667900D01*
X25150891Y-29667900D01*
X25080767Y-29686689D01*
X25036309Y-29698602D01*
X24933591Y-29757907D01*
X24849707Y-29841791D01*
X24790402Y-29944509D01*
X24789518Y-29947809D01*
X24759700Y-30059091D01*
X19695052Y-30059091D01*
X19500996Y-29865035D01*
X19473219Y-29810518D01*
X19472000Y-29795031D01*
X19472000Y-29680492D01*
X19470858Y-29676230D01*
X19441299Y-29565914D01*
X19441297Y-29565911D01*
X19441297Y-29565909D01*
X19381992Y-29463191D01*
X19381990Y-29463189D01*
X19381989Y-29463187D01*
X19298113Y-29379311D01*
X19298110Y-29379309D01*
X19298108Y-29379307D01*
X19195389Y-29320002D01*
X19195390Y-29320002D01*
X19181851Y-29316374D01*
X19080809Y-29289300D01*
X18962191Y-29289300D01*
X18892067Y-29308089D01*
X18847609Y-29320002D01*
X18744891Y-29379307D01*
X18661007Y-29463191D01*
X18601702Y-29565909D01*
X18600020Y-29572187D01*
X18571000Y-29680491D01*
X11546852Y-29680491D01*
X10244085Y-28377724D01*
X10216308Y-28323207D01*
X10225879Y-28262775D01*
X10244082Y-28237719D01*
X10312189Y-28169613D01*
X10312192Y-28169608D01*
X10371497Y-28066890D01*
X10371497Y-28066888D01*
X10371499Y-28066886D01*
X10402200Y-27952309D01*
X10402200Y-27833691D01*
X10371499Y-27719114D01*
X10371497Y-27719111D01*
X10371497Y-27719109D01*
X10312192Y-27616391D01*
X10312190Y-27616389D01*
X10312189Y-27616387D01*
X10228313Y-27532511D01*
X10228310Y-27532509D01*
X10228308Y-27532507D01*
X10125589Y-27473202D01*
X10125590Y-27473202D01*
X10112051Y-27469574D01*
X10011009Y-27442500D01*
X9892391Y-27442500D01*
X9836478Y-27457482D01*
X9777809Y-27473202D01*
X9675091Y-27532507D01*
X9591205Y-27616393D01*
X9587339Y-27621432D01*
X9536913Y-27656085D01*
X9475749Y-27654481D01*
X9427209Y-27617232D01*
X9409800Y-27561161D01*
X9409800Y-27278371D01*
X9371664Y-27186303D01*
X9301197Y-27115835D01*
X9301197Y-27115836D01*
X8973296Y-26787935D01*
X8945519Y-26733418D01*
X8944300Y-26717931D01*
X8944300Y-26603392D01*
X8937871Y-26579399D01*
X8913599Y-26488814D01*
X8913597Y-26488811D01*
X8913597Y-26488809D01*
X8854292Y-26386091D01*
X8854290Y-26386089D01*
X8854289Y-26386087D01*
X8799384Y-26331182D01*
X8771609Y-26276668D01*
X8781180Y-26216236D01*
X8819888Y-26175445D01*
X8882513Y-26139289D01*
X8921511Y-26100291D01*
X9716700Y-26100291D01*
X9716700Y-26218909D01*
X9731834Y-26275389D01*
X9747402Y-26333490D01*
X9806707Y-26436208D01*
X9806709Y-26436210D01*
X9806711Y-26436213D01*
X9890587Y-26520089D01*
X9890589Y-26520090D01*
X9890591Y-26520092D01*
X9993310Y-26579397D01*
X9993311Y-26579397D01*
X9993314Y-26579399D01*
X10107891Y-26610100D01*
X10107893Y-26610100D01*
X10226507Y-26610100D01*
X10226509Y-26610100D01*
X10341086Y-26579399D01*
X10341088Y-26579397D01*
X10341090Y-26579397D01*
X10443808Y-26520092D01*
X10443808Y-26520091D01*
X10443813Y-26520089D01*
X10527689Y-26436213D01*
X10527692Y-26436208D01*
X10586997Y-26333490D01*
X10586997Y-26333488D01*
X10586999Y-26333486D01*
X10617700Y-26218909D01*
X10617700Y-26100291D01*
X10586999Y-25985714D01*
X10586997Y-25985711D01*
X10586997Y-25985709D01*
X10527692Y-25882991D01*
X10527690Y-25882989D01*
X10527689Y-25882987D01*
X10443813Y-25799111D01*
X10443810Y-25799109D01*
X10443808Y-25799107D01*
X10341089Y-25739802D01*
X10341090Y-25739802D01*
X10327551Y-25736174D01*
X10226509Y-25709100D01*
X10107891Y-25709100D01*
X10037767Y-25727889D01*
X9993309Y-25739802D01*
X9890591Y-25799107D01*
X9806707Y-25882991D01*
X9747402Y-25985709D01*
X9735186Y-26031300D01*
X9716700Y-26100291D01*
X8921511Y-26100291D01*
X8966389Y-26055413D01*
X9013274Y-25974207D01*
X9025697Y-25952690D01*
X9025697Y-25952688D01*
X9025699Y-25952686D01*
X9056400Y-25838109D01*
X9056400Y-25719491D01*
X9025699Y-25604914D01*
X9025697Y-25604911D01*
X9025697Y-25604909D01*
X8966392Y-25502191D01*
X8966390Y-25502189D01*
X8966389Y-25502187D01*
X8882513Y-25418311D01*
X8882510Y-25418309D01*
X8882508Y-25418307D01*
X8779789Y-25359002D01*
X8779790Y-25359002D01*
X8766251Y-25355374D01*
X8665209Y-25328300D01*
X8546591Y-25328300D01*
X8491055Y-25343181D01*
X8432009Y-25359002D01*
X8329291Y-25418307D01*
X8245407Y-25502191D01*
X8186102Y-25604909D01*
X8174232Y-25649209D01*
X8155400Y-25719491D01*
X8155400Y-25838109D01*
X8172388Y-25901507D01*
X8186102Y-25952690D01*
X8245407Y-26055408D01*
X8245409Y-26055410D01*
X8245411Y-26055413D01*
X8300314Y-26110316D01*
X8328090Y-26164831D01*
X8318519Y-26225263D01*
X8279810Y-26266054D01*
X8217189Y-26302209D01*
X8133307Y-26386091D01*
X8074002Y-26488809D01*
X8058948Y-26544991D01*
X8043300Y-26603391D01*
X500500Y-26603391D01*
X500500Y-25025991D01*
X28742200Y-25025991D01*
X28742200Y-25144609D01*
X28754228Y-25189497D01*
X28772902Y-25259190D01*
X28832207Y-25361908D01*
X28832209Y-25361910D01*
X28832211Y-25361913D01*
X28916087Y-25445789D01*
X28916089Y-25445790D01*
X28916091Y-25445792D01*
X29018810Y-25505097D01*
X29018811Y-25505097D01*
X29018814Y-25505099D01*
X29133391Y-25535800D01*
X29133393Y-25535800D01*
X29252007Y-25535800D01*
X29252009Y-25535800D01*
X29366586Y-25505099D01*
X29366588Y-25505097D01*
X29366590Y-25505097D01*
X29469308Y-25445792D01*
X29469308Y-25445791D01*
X29469313Y-25445789D01*
X29553189Y-25361913D01*
X29612499Y-25259186D01*
X29643200Y-25144609D01*
X29643200Y-25025991D01*
X29612499Y-24911414D01*
X29612497Y-24911411D01*
X29612497Y-24911409D01*
X29553192Y-24808691D01*
X29553190Y-24808689D01*
X29553189Y-24808687D01*
X29469313Y-24724811D01*
X29469310Y-24724809D01*
X29469308Y-24724807D01*
X29366589Y-24665502D01*
X29366590Y-24665502D01*
X29353051Y-24661874D01*
X29252009Y-24634800D01*
X29133391Y-24634800D01*
X29063267Y-24653589D01*
X29018809Y-24665502D01*
X28916091Y-24724807D01*
X28832207Y-24808691D01*
X28772902Y-24911409D01*
X28772901Y-24911414D01*
X28742200Y-25025991D01*
X500500Y-25025991D01*
X500500Y-24027891D01*
X8625500Y-24027891D01*
X8625500Y-24146509D01*
X8648646Y-24232889D01*
X8656202Y-24261090D01*
X8715507Y-24363808D01*
X8715509Y-24363810D01*
X8715511Y-24363813D01*
X8799387Y-24447689D01*
X8799389Y-24447690D01*
X8799391Y-24447692D01*
X8902110Y-24506997D01*
X8902111Y-24506997D01*
X8902114Y-24506999D01*
X9016691Y-24537700D01*
X9016693Y-24537700D01*
X9135307Y-24537700D01*
X9135309Y-24537700D01*
X9249886Y-24506999D01*
X9249888Y-24506997D01*
X9249890Y-24506997D01*
X9352608Y-24447692D01*
X9352608Y-24447691D01*
X9352613Y-24447689D01*
X9360011Y-24440291D01*
X27299500Y-24440291D01*
X27299500Y-24558909D01*
X27318039Y-24628096D01*
X27330202Y-24673490D01*
X27389507Y-24776208D01*
X27389509Y-24776210D01*
X27389511Y-24776213D01*
X27473387Y-24860089D01*
X27473389Y-24860090D01*
X27473391Y-24860092D01*
X27576110Y-24919397D01*
X27576111Y-24919397D01*
X27576114Y-24919399D01*
X27690691Y-24950100D01*
X27690693Y-24950100D01*
X27809307Y-24950100D01*
X27809309Y-24950100D01*
X27923886Y-24919399D01*
X28026613Y-24860089D01*
X28110489Y-24776213D01*
X28140169Y-24724807D01*
X28169797Y-24673490D01*
X28169797Y-24673488D01*
X28169799Y-24673486D01*
X28200500Y-24558909D01*
X28200500Y-24440291D01*
X28169799Y-24325714D01*
X28169797Y-24325711D01*
X28169797Y-24325709D01*
X28110492Y-24222991D01*
X28110490Y-24222989D01*
X28110489Y-24222987D01*
X28026613Y-24139111D01*
X28026610Y-24139109D01*
X28026608Y-24139107D01*
X27923889Y-24079802D01*
X27923890Y-24079802D01*
X27910351Y-24076174D01*
X27809309Y-24049100D01*
X27690691Y-24049100D01*
X27620567Y-24067889D01*
X27576109Y-24079802D01*
X27473391Y-24139107D01*
X27389507Y-24222991D01*
X27330202Y-24325709D01*
X27330201Y-24325714D01*
X27299500Y-24440291D01*
X9360011Y-24440291D01*
X9436489Y-24363813D01*
X9458616Y-24325488D01*
X9495797Y-24261090D01*
X9495797Y-24261088D01*
X9495799Y-24261086D01*
X9526500Y-24146509D01*
X9526500Y-24027891D01*
X9495799Y-23913314D01*
X9495797Y-23913311D01*
X9495797Y-23913309D01*
X9436492Y-23810591D01*
X9436490Y-23810589D01*
X9436489Y-23810587D01*
X9352613Y-23726711D01*
X9352610Y-23726709D01*
X9352608Y-23726707D01*
X9249889Y-23667402D01*
X9249890Y-23667402D01*
X9236351Y-23663774D01*
X9135309Y-23636700D01*
X9016691Y-23636700D01*
X8946567Y-23655489D01*
X8902109Y-23667402D01*
X8799391Y-23726707D01*
X8715507Y-23810591D01*
X8656202Y-23913309D01*
X8656201Y-23913314D01*
X8625500Y-24027891D01*
X500500Y-24027891D01*
X500500Y-21317491D01*
X21247200Y-21317491D01*
X21247200Y-21436109D01*
X21255688Y-21467786D01*
X21277902Y-21550690D01*
X21337207Y-21653408D01*
X21337209Y-21653410D01*
X21337211Y-21653413D01*
X21421087Y-21737289D01*
X21421089Y-21737290D01*
X21421091Y-21737292D01*
X21523810Y-21796597D01*
X21523811Y-21796597D01*
X21523814Y-21796599D01*
X21638391Y-21827300D01*
X21638393Y-21827300D01*
X21757007Y-21827300D01*
X21757009Y-21827300D01*
X21871586Y-21796599D01*
X21871588Y-21796597D01*
X21871590Y-21796597D01*
X21974308Y-21737292D01*
X21974308Y-21737291D01*
X21974313Y-21737289D01*
X22055307Y-21656294D01*
X22109822Y-21628519D01*
X22125309Y-21627300D01*
X23376529Y-21627300D01*
X23434585Y-21603251D01*
X23468597Y-21589164D01*
X26581464Y-18476297D01*
X26619600Y-18384228D01*
X26619600Y-18284573D01*
X26619600Y-14483791D01*
X28947100Y-14483791D01*
X28947100Y-14602409D01*
X28950537Y-14615236D01*
X28977802Y-14716990D01*
X29037107Y-14819708D01*
X29037109Y-14819710D01*
X29037111Y-14819713D01*
X29120987Y-14903589D01*
X29120989Y-14903590D01*
X29120991Y-14903592D01*
X29223710Y-14962897D01*
X29223711Y-14962897D01*
X29223714Y-14962899D01*
X29338291Y-14993600D01*
X29338293Y-14993600D01*
X29456907Y-14993600D01*
X29456909Y-14993600D01*
X29571486Y-14962899D01*
X29571489Y-14962896D01*
X29576616Y-14960774D01*
X29637613Y-14955975D01*
X29689782Y-14987945D01*
X29713195Y-15044474D01*
X29713500Y-15052239D01*
X29713500Y-17109690D01*
X29694593Y-17167881D01*
X29684504Y-17179693D01*
X29603511Y-17260686D01*
X29603507Y-17260691D01*
X29544202Y-17363409D01*
X29531916Y-17409261D01*
X29513500Y-17477991D01*
X29513500Y-17596609D01*
X29519448Y-17618807D01*
X29544202Y-17711190D01*
X29603507Y-17813908D01*
X29603509Y-17813910D01*
X29603511Y-17813913D01*
X29687387Y-17897789D01*
X29687389Y-17897790D01*
X29687391Y-17897792D01*
X29790110Y-17957097D01*
X29790111Y-17957097D01*
X29790114Y-17957099D01*
X29904691Y-17987800D01*
X29904693Y-17987800D01*
X30023307Y-17987800D01*
X30023309Y-17987800D01*
X30137886Y-17957099D01*
X30137888Y-17957097D01*
X30137890Y-17957097D01*
X30240608Y-17897792D01*
X30240608Y-17897791D01*
X30240613Y-17897789D01*
X30324489Y-17813913D01*
X30324492Y-17813908D01*
X30383797Y-17711190D01*
X30383797Y-17711188D01*
X30383799Y-17711186D01*
X30414500Y-17596609D01*
X30414500Y-17477991D01*
X30383799Y-17363414D01*
X30383797Y-17363411D01*
X30383797Y-17363409D01*
X30324492Y-17260691D01*
X30324488Y-17260686D01*
X30243496Y-17179693D01*
X30215719Y-17125176D01*
X30214500Y-17109690D01*
X30214500Y-13646791D01*
X31605800Y-13646791D01*
X31605800Y-13765409D01*
X31632874Y-13866451D01*
X31636502Y-13879990D01*
X31695807Y-13982708D01*
X31695809Y-13982710D01*
X31695811Y-13982713D01*
X31779687Y-14066589D01*
X31779689Y-14066590D01*
X31779691Y-14066592D01*
X31882410Y-14125897D01*
X31882411Y-14125897D01*
X31882414Y-14125899D01*
X31996991Y-14156600D01*
X31996993Y-14156600D01*
X32115607Y-14156600D01*
X32115609Y-14156600D01*
X32230186Y-14125899D01*
X32230188Y-14125897D01*
X32230190Y-14125897D01*
X32332908Y-14066592D01*
X32332908Y-14066591D01*
X32332913Y-14066589D01*
X32416789Y-13982713D01*
X32424251Y-13969789D01*
X32476097Y-13879990D01*
X32476097Y-13879988D01*
X32476099Y-13879986D01*
X32506800Y-13765409D01*
X32506800Y-13646791D01*
X32476099Y-13532214D01*
X32476097Y-13532211D01*
X32476097Y-13532209D01*
X32416792Y-13429491D01*
X32416790Y-13429489D01*
X32416789Y-13429487D01*
X32332913Y-13345611D01*
X32332910Y-13345609D01*
X32332908Y-13345607D01*
X32230189Y-13286302D01*
X32230190Y-13286302D01*
X32216651Y-13282674D01*
X32115609Y-13255600D01*
X31996991Y-13255600D01*
X31926867Y-13274389D01*
X31882409Y-13286302D01*
X31779691Y-13345607D01*
X31695807Y-13429491D01*
X31636502Y-13532209D01*
X31631737Y-13549992D01*
X31605800Y-13646791D01*
X30214500Y-13646791D01*
X30214500Y-13247368D01*
X30233407Y-13189177D01*
X30243490Y-13177370D01*
X30370969Y-13049891D01*
X37089000Y-13049891D01*
X37089000Y-13168509D01*
X37111764Y-13253465D01*
X37119702Y-13283090D01*
X37179007Y-13385808D01*
X37179009Y-13385810D01*
X37179011Y-13385813D01*
X37262887Y-13469689D01*
X37262889Y-13469690D01*
X37262891Y-13469692D01*
X37365610Y-13528997D01*
X37365611Y-13528997D01*
X37365614Y-13528999D01*
X37480191Y-13559700D01*
X37480193Y-13559700D01*
X37598807Y-13559700D01*
X37598809Y-13559700D01*
X37713386Y-13528999D01*
X37713388Y-13528997D01*
X37713390Y-13528997D01*
X37816108Y-13469692D01*
X37816108Y-13469691D01*
X37816113Y-13469689D01*
X37899989Y-13385813D01*
X37930662Y-13332687D01*
X37959297Y-13283090D01*
X37959297Y-13283088D01*
X37959299Y-13283086D01*
X37990000Y-13168509D01*
X37990000Y-13049891D01*
X37959299Y-12935314D01*
X37959297Y-12935311D01*
X37959297Y-12935309D01*
X37899992Y-12832591D01*
X37899990Y-12832589D01*
X37899989Y-12832587D01*
X37816113Y-12748711D01*
X37816110Y-12748709D01*
X37816108Y-12748707D01*
X37713389Y-12689402D01*
X37713390Y-12689402D01*
X37699851Y-12685774D01*
X37598809Y-12658700D01*
X37480191Y-12658700D01*
X37410067Y-12677489D01*
X37365609Y-12689402D01*
X37262891Y-12748707D01*
X37179007Y-12832591D01*
X37119702Y-12935309D01*
X37119701Y-12935314D01*
X37089000Y-13049891D01*
X30370969Y-13049891D01*
X30980169Y-12440691D01*
X31844200Y-12440691D01*
X31844200Y-12559309D01*
X31865073Y-12637209D01*
X31874902Y-12673890D01*
X31934207Y-12776608D01*
X31934209Y-12776610D01*
X31934211Y-12776613D01*
X32018087Y-12860489D01*
X32018089Y-12860490D01*
X32018091Y-12860492D01*
X32120810Y-12919797D01*
X32120811Y-12919797D01*
X32120814Y-12919799D01*
X32235391Y-12950500D01*
X32235393Y-12950500D01*
X32354007Y-12950500D01*
X32354009Y-12950500D01*
X32468586Y-12919799D01*
X32468588Y-12919797D01*
X32468590Y-12919797D01*
X32571308Y-12860492D01*
X32571308Y-12860491D01*
X32571313Y-12860489D01*
X32655189Y-12776613D01*
X32669520Y-12751791D01*
X32714497Y-12673890D01*
X32714497Y-12673888D01*
X32714499Y-12673886D01*
X32745200Y-12559309D01*
X32745200Y-12440691D01*
X32714499Y-12326114D01*
X32714497Y-12326111D01*
X32714497Y-12326109D01*
X32655192Y-12223391D01*
X32655190Y-12223389D01*
X32655189Y-12223387D01*
X32571313Y-12139511D01*
X32571310Y-12139509D01*
X32571308Y-12139507D01*
X32468589Y-12080202D01*
X32468590Y-12080202D01*
X32455051Y-12076574D01*
X32354009Y-12049500D01*
X32235391Y-12049500D01*
X32165267Y-12068289D01*
X32120809Y-12080202D01*
X32018091Y-12139507D01*
X31934207Y-12223391D01*
X31874902Y-12326109D01*
X31865786Y-12360130D01*
X31844200Y-12440691D01*
X30980169Y-12440691D01*
X31962164Y-11458695D01*
X32016681Y-11430919D01*
X32032168Y-11429700D01*
X32146707Y-11429700D01*
X32146709Y-11429700D01*
X32261286Y-11398999D01*
X32261288Y-11398997D01*
X32261290Y-11398997D01*
X32364008Y-11339692D01*
X32364008Y-11339691D01*
X32364013Y-11339689D01*
X32447889Y-11255813D01*
X32453246Y-11246535D01*
X32507197Y-11153090D01*
X32507197Y-11153088D01*
X32507199Y-11153086D01*
X32537900Y-11038509D01*
X32537900Y-10919891D01*
X32507199Y-10805314D01*
X32507197Y-10805311D01*
X32507197Y-10805309D01*
X32447892Y-10702591D01*
X32447890Y-10702589D01*
X32447889Y-10702587D01*
X32364013Y-10618711D01*
X32364010Y-10618709D01*
X32364008Y-10618707D01*
X32261289Y-10559402D01*
X32261290Y-10559402D01*
X32247751Y-10555774D01*
X32146709Y-10528700D01*
X32028091Y-10528700D01*
X31957967Y-10547489D01*
X31913509Y-10559402D01*
X31810791Y-10618707D01*
X31726907Y-10702591D01*
X31667602Y-10805309D01*
X31636900Y-10919892D01*
X31636900Y-11034430D01*
X31617993Y-11092621D01*
X31607904Y-11104434D01*
X29822103Y-12890236D01*
X29822102Y-12890235D01*
X29751635Y-12960703D01*
X29713500Y-13052771D01*
X29713500Y-14033960D01*
X29694593Y-14092151D01*
X29645093Y-14128115D01*
X29583907Y-14128115D01*
X29576623Y-14125428D01*
X29571490Y-14123302D01*
X29557951Y-14119674D01*
X29456909Y-14092600D01*
X29338291Y-14092600D01*
X29268167Y-14111389D01*
X29223709Y-14123302D01*
X29120991Y-14182607D01*
X29037107Y-14266491D01*
X28977802Y-14369209D01*
X28967461Y-14407802D01*
X28947100Y-14483791D01*
X26619600Y-14483791D01*
X26619600Y-9965391D01*
X34104900Y-9965391D01*
X34104900Y-10084009D01*
X34112376Y-10111908D01*
X34135602Y-10198590D01*
X34194907Y-10301308D01*
X34194909Y-10301310D01*
X34194911Y-10301313D01*
X34278787Y-10385189D01*
X34278789Y-10385190D01*
X34278791Y-10385192D01*
X34381510Y-10444497D01*
X34381511Y-10444497D01*
X34381514Y-10444499D01*
X34496091Y-10475200D01*
X34496093Y-10475200D01*
X34614707Y-10475200D01*
X34614709Y-10475200D01*
X34729286Y-10444499D01*
X34729288Y-10444497D01*
X34729290Y-10444497D01*
X34832008Y-10385192D01*
X34832008Y-10385191D01*
X34832013Y-10385189D01*
X34915889Y-10301313D01*
X34975199Y-10198586D01*
X35005900Y-10084009D01*
X35005900Y-9965391D01*
X34975199Y-9850814D01*
X34975197Y-9850811D01*
X34975197Y-9850809D01*
X34915892Y-9748091D01*
X34915890Y-9748089D01*
X34915889Y-9748087D01*
X34832013Y-9664211D01*
X34832010Y-9664209D01*
X34832008Y-9664207D01*
X34729289Y-9604902D01*
X34729290Y-9604902D01*
X34715751Y-9601274D01*
X34614709Y-9574200D01*
X34496091Y-9574200D01*
X34425967Y-9592989D01*
X34381509Y-9604902D01*
X34278791Y-9664207D01*
X34194907Y-9748091D01*
X34135602Y-9850809D01*
X34135601Y-9850814D01*
X34104900Y-9965391D01*
X26619600Y-9965391D01*
X26619600Y-9895668D01*
X26638507Y-9837477D01*
X26648590Y-9825670D01*
X27648269Y-8825991D01*
X28655600Y-8825991D01*
X28655600Y-8944609D01*
X28681099Y-9039771D01*
X28686302Y-9059190D01*
X28745607Y-9161908D01*
X28745609Y-9161910D01*
X28745611Y-9161913D01*
X28829487Y-9245789D01*
X28829489Y-9245790D01*
X28829491Y-9245792D01*
X28932210Y-9305097D01*
X28932211Y-9305097D01*
X28932214Y-9305099D01*
X29046791Y-9335800D01*
X29046793Y-9335800D01*
X29165407Y-9335800D01*
X29165409Y-9335800D01*
X29279986Y-9305099D01*
X29279988Y-9305097D01*
X29279990Y-9305097D01*
X29382708Y-9245792D01*
X29382708Y-9245791D01*
X29382713Y-9245789D01*
X29466589Y-9161913D01*
X29525899Y-9059186D01*
X29556600Y-8944609D01*
X29556600Y-8825991D01*
X29525899Y-8711414D01*
X29525897Y-8711411D01*
X29525897Y-8711409D01*
X29466592Y-8608691D01*
X29466590Y-8608689D01*
X29466589Y-8608687D01*
X29382713Y-8524811D01*
X29382710Y-8524809D01*
X29382708Y-8524807D01*
X29279989Y-8465502D01*
X29279990Y-8465502D01*
X29266451Y-8461874D01*
X29165409Y-8434800D01*
X29046791Y-8434800D01*
X28976667Y-8453589D01*
X28932209Y-8465502D01*
X28829491Y-8524807D01*
X28745607Y-8608691D01*
X28686302Y-8711409D01*
X28686301Y-8711414D01*
X28655600Y-8825991D01*
X27648269Y-8825991D01*
X30057977Y-6416282D01*
X30112492Y-6388507D01*
X30165862Y-6394823D01*
X30328165Y-6462051D01*
X30521459Y-6500500D01*
X30521460Y-6500500D01*
X30718540Y-6500500D01*
X30718541Y-6500500D01*
X30911835Y-6462051D01*
X31093914Y-6386632D01*
X31257782Y-6277139D01*
X31397139Y-6137782D01*
X31506632Y-5973914D01*
X31582051Y-5791835D01*
X31620500Y-5598541D01*
X31620500Y-5401459D01*
X31582051Y-5208165D01*
X31506632Y-5026086D01*
X31397139Y-4862218D01*
X31257782Y-4722861D01*
X31093914Y-4613368D01*
X31093915Y-4613368D01*
X31093913Y-4613367D01*
X30911835Y-4537949D01*
X30718543Y-4499500D01*
X30718541Y-4499500D01*
X30521459Y-4499500D01*
X30521456Y-4499500D01*
X30328165Y-4537949D01*
X30328163Y-4537949D01*
X30146086Y-4613367D01*
X29982218Y-4722861D01*
X29982214Y-4722864D01*
X29842864Y-4862214D01*
X29842861Y-4862218D01*
X29733367Y-5026086D01*
X29657949Y-5208163D01*
X29657949Y-5208165D01*
X29619500Y-5401456D01*
X29619500Y-5598543D01*
X29657949Y-5791834D01*
X29657949Y-5791836D01*
X29725174Y-5954134D01*
X29729974Y-6015131D01*
X29703714Y-6062023D01*
X26227203Y-9538536D01*
X26227202Y-9538535D01*
X26156735Y-9609003D01*
X26118600Y-9701071D01*
X26118600Y-18189631D01*
X26099693Y-18247822D01*
X26089604Y-18259635D01*
X25074501Y-19274737D01*
X25019984Y-19302514D01*
X24959552Y-19292943D01*
X24916287Y-19249678D01*
X24913019Y-19241165D01*
X24912681Y-19241306D01*
X24910197Y-19235310D01*
X24850892Y-19132591D01*
X24850888Y-19132586D01*
X24769896Y-19051593D01*
X24742119Y-18997076D01*
X24740900Y-18981590D01*
X24740900Y-9234368D01*
X24759807Y-9176177D01*
X24769890Y-9164370D01*
X27517977Y-6416282D01*
X27572492Y-6388507D01*
X27625862Y-6394823D01*
X27788165Y-6462051D01*
X27981459Y-6500500D01*
X27981460Y-6500500D01*
X28178540Y-6500500D01*
X28178541Y-6500500D01*
X28371835Y-6462051D01*
X28553914Y-6386632D01*
X28717782Y-6277139D01*
X28857139Y-6137782D01*
X28966632Y-5973914D01*
X29042051Y-5791835D01*
X29080500Y-5598541D01*
X29080500Y-5401459D01*
X29042051Y-5208165D01*
X28966632Y-5026086D01*
X28857139Y-4862218D01*
X28717782Y-4722861D01*
X28553914Y-4613368D01*
X28553915Y-4613368D01*
X28553913Y-4613367D01*
X28371835Y-4537949D01*
X28178543Y-4499500D01*
X28178541Y-4499500D01*
X27981459Y-4499500D01*
X27981456Y-4499500D01*
X27788165Y-4537949D01*
X27788163Y-4537949D01*
X27606086Y-4613367D01*
X27442218Y-4722861D01*
X27442214Y-4722864D01*
X27302864Y-4862214D01*
X27302861Y-4862218D01*
X27193367Y-5026086D01*
X27117949Y-5208163D01*
X27117949Y-5208165D01*
X27079500Y-5401456D01*
X27079500Y-5598543D01*
X27117949Y-5791834D01*
X27117949Y-5791836D01*
X27185174Y-5954134D01*
X27189974Y-6015131D01*
X27163714Y-6062023D01*
X24348503Y-8877236D01*
X24348502Y-8877235D01*
X24278035Y-8947703D01*
X24239900Y-9039771D01*
X24239900Y-18981590D01*
X24220993Y-19039781D01*
X24210904Y-19051593D01*
X24129911Y-19132586D01*
X24129907Y-19132591D01*
X24070602Y-19235309D01*
X24055159Y-19292943D01*
X24039900Y-19349891D01*
X24039900Y-19468509D01*
X24053298Y-19518509D01*
X24070602Y-19583090D01*
X24129907Y-19685808D01*
X24129909Y-19685810D01*
X24129911Y-19685813D01*
X24213787Y-19769689D01*
X24213789Y-19769690D01*
X24213791Y-19769692D01*
X24316510Y-19828997D01*
X24316511Y-19828997D01*
X24316514Y-19828999D01*
X24316516Y-19828999D01*
X24322506Y-19831481D01*
X24321428Y-19834081D01*
X24362870Y-19860994D01*
X24384797Y-19918115D01*
X24368962Y-19977215D01*
X24355937Y-19993301D01*
X23251935Y-21097304D01*
X23197418Y-21125081D01*
X23181931Y-21126300D01*
X22125309Y-21126300D01*
X22067118Y-21107393D01*
X22055311Y-21097309D01*
X21974313Y-21016311D01*
X21974310Y-21016309D01*
X21974308Y-21016307D01*
X21871589Y-20957002D01*
X21871590Y-20957002D01*
X21858051Y-20953374D01*
X21757009Y-20926300D01*
X21638391Y-20926300D01*
X21568267Y-20945089D01*
X21523809Y-20957002D01*
X21421091Y-21016307D01*
X21337207Y-21100191D01*
X21277902Y-21202909D01*
X21269413Y-21234591D01*
X21247200Y-21317491D01*
X500500Y-21317491D01*
X500500Y-16746532D01*
X10449500Y-16746532D01*
X10449500Y-16953467D01*
X10489869Y-17156418D01*
X10569058Y-17347597D01*
X10684020Y-17519651D01*
X10684023Y-17519655D01*
X10830345Y-17665977D01*
X11002402Y-17780941D01*
X11193580Y-17860130D01*
X11396535Y-17900500D01*
X11396536Y-17900500D01*
X12603464Y-17900500D01*
X12603465Y-17900500D01*
X12806420Y-17860130D01*
X12997598Y-17780941D01*
X13169655Y-17665977D01*
X13315977Y-17519655D01*
X13430941Y-17347598D01*
X13510130Y-17156420D01*
X13550500Y-16953465D01*
X13550500Y-16746535D01*
X13510130Y-16543580D01*
X13430941Y-16352402D01*
X13315977Y-16180345D01*
X13169655Y-16034023D01*
X13169651Y-16034020D01*
X12997597Y-15919058D01*
X12806418Y-15839869D01*
X12603467Y-15799500D01*
X12603465Y-15799500D01*
X11396535Y-15799500D01*
X11396532Y-15799500D01*
X11193581Y-15839869D01*
X11002402Y-15919058D01*
X10830348Y-16034020D01*
X10684020Y-16180348D01*
X10569058Y-16352402D01*
X10489869Y-16543581D01*
X10449500Y-16746532D01*
X500500Y-16746532D01*
X500500Y-11246532D01*
X10449500Y-11246532D01*
X10449500Y-11453467D01*
X10489869Y-11656418D01*
X10569058Y-11847597D01*
X10684020Y-12019651D01*
X10684023Y-12019655D01*
X10830345Y-12165977D01*
X11002402Y-12280941D01*
X11193580Y-12360130D01*
X11396535Y-12400500D01*
X11396536Y-12400500D01*
X12552158Y-12400500D01*
X12610349Y-12419407D01*
X12646313Y-12468907D01*
X12646313Y-12530093D01*
X12634474Y-12554501D01*
X12569058Y-12652402D01*
X12489869Y-12843581D01*
X12449500Y-13046532D01*
X12449500Y-13253467D01*
X12489869Y-13456418D01*
X12569058Y-13647597D01*
X12583098Y-13668609D01*
X12684023Y-13819655D01*
X12830345Y-13965977D01*
X13002402Y-14080941D01*
X13193580Y-14160130D01*
X13396535Y-14200500D01*
X13396536Y-14200500D01*
X14603464Y-14200500D01*
X14603465Y-14200500D01*
X14806420Y-14160130D01*
X14997598Y-14080941D01*
X15169655Y-13965977D01*
X15315977Y-13819655D01*
X15430941Y-13647598D01*
X15510130Y-13456420D01*
X15550500Y-13253465D01*
X15550500Y-13046535D01*
X15510130Y-12843580D01*
X15430941Y-12652402D01*
X15315977Y-12480345D01*
X15169655Y-12334023D01*
X15169651Y-12334020D01*
X14997597Y-12219058D01*
X14916015Y-12185266D01*
X14806418Y-12139869D01*
X14607444Y-12100291D01*
X23102200Y-12100291D01*
X23102200Y-12218909D01*
X23103400Y-12223387D01*
X23132902Y-12333490D01*
X23192207Y-12436208D01*
X23192209Y-12436210D01*
X23192211Y-12436213D01*
X23276087Y-12520089D01*
X23276089Y-12520090D01*
X23276091Y-12520092D01*
X23378810Y-12579397D01*
X23378811Y-12579397D01*
X23378814Y-12579399D01*
X23493391Y-12610100D01*
X23493393Y-12610100D01*
X23612007Y-12610100D01*
X23612009Y-12610100D01*
X23726586Y-12579399D01*
X23726588Y-12579397D01*
X23726590Y-12579397D01*
X23829308Y-12520092D01*
X23829308Y-12520091D01*
X23829313Y-12520089D01*
X23913189Y-12436213D01*
X23972499Y-12333486D01*
X24003200Y-12218909D01*
X24003200Y-12100291D01*
X23972499Y-11985714D01*
X23972497Y-11985711D01*
X23972497Y-11985709D01*
X23913192Y-11882991D01*
X23913190Y-11882989D01*
X23913189Y-11882987D01*
X23829313Y-11799111D01*
X23829310Y-11799109D01*
X23829308Y-11799107D01*
X23726589Y-11739802D01*
X23726590Y-11739802D01*
X23713051Y-11736174D01*
X23612009Y-11709100D01*
X23493391Y-11709100D01*
X23423267Y-11727889D01*
X23378809Y-11739802D01*
X23276091Y-11799107D01*
X23192207Y-11882991D01*
X23132902Y-11985709D01*
X23123806Y-12019655D01*
X23102200Y-12100291D01*
X14607444Y-12100291D01*
X14603467Y-12099500D01*
X14603465Y-12099500D01*
X13447842Y-12099500D01*
X13389651Y-12080593D01*
X13353687Y-12031093D01*
X13353687Y-11969907D01*
X13365526Y-11945499D01*
X13407295Y-11882987D01*
X13430941Y-11847598D01*
X13510130Y-11656420D01*
X13550500Y-11453465D01*
X13550500Y-11246535D01*
X13510130Y-11043580D01*
X13430941Y-10852402D01*
X13315977Y-10680345D01*
X13169655Y-10534023D01*
X12997598Y-10419059D01*
X12997599Y-10419059D01*
X12997597Y-10419058D01*
X12806418Y-10339869D01*
X12603467Y-10299500D01*
X12603465Y-10299500D01*
X11396535Y-10299500D01*
X11396532Y-10299500D01*
X11193581Y-10339869D01*
X11002402Y-10419058D01*
X10830348Y-10534020D01*
X10684020Y-10680348D01*
X10569058Y-10852402D01*
X10489869Y-11043581D01*
X10449500Y-11246532D01*
X500500Y-11246532D01*
X500500Y-7546532D01*
X12449500Y-7546532D01*
X12449500Y-7753467D01*
X12489869Y-7956418D01*
X12569058Y-8147597D01*
X12569059Y-8147598D01*
X12684023Y-8319655D01*
X12830345Y-8465977D01*
X13002402Y-8580941D01*
X13193580Y-8660130D01*
X13396535Y-8700500D01*
X13396536Y-8700500D01*
X14603464Y-8700500D01*
X14603465Y-8700500D01*
X14806420Y-8660130D01*
X14997598Y-8580941D01*
X15169655Y-8465977D01*
X15315977Y-8319655D01*
X15430941Y-8147598D01*
X15510130Y-7956420D01*
X15550500Y-7753465D01*
X15550500Y-7546535D01*
X15510130Y-7343580D01*
X15430941Y-7152402D01*
X15315977Y-6980345D01*
X15169655Y-6834023D01*
X14997598Y-6719059D01*
X14997599Y-6719059D01*
X14997597Y-6719058D01*
X14806418Y-6639869D01*
X14603467Y-6599500D01*
X14603465Y-6599500D01*
X13396535Y-6599500D01*
X13396532Y-6599500D01*
X13193581Y-6639869D01*
X13002402Y-6719058D01*
X12830348Y-6834020D01*
X12684020Y-6980348D01*
X12569058Y-7152402D01*
X12489869Y-7343581D01*
X12449500Y-7546532D01*
X500500Y-7546532D01*
X500500Y-4893709D01*
X3649500Y-4893709D01*
X3649500Y-5106290D01*
X3682752Y-5316238D01*
X3748443Y-5518412D01*
X3844948Y-5707815D01*
X3844950Y-5707819D01*
X3969891Y-5879786D01*
X3969893Y-5879788D01*
X3969896Y-5879792D01*
X4120208Y-6030104D01*
X4120211Y-6030106D01*
X4120213Y-6030108D01*
X4292180Y-6155049D01*
X4292184Y-6155051D01*
X4481588Y-6251557D01*
X4683757Y-6317246D01*
X4683758Y-6317246D01*
X4683761Y-6317247D01*
X4893710Y-6350500D01*
X4893713Y-6350500D01*
X5106290Y-6350500D01*
X5316238Y-6317247D01*
X5316239Y-6317246D01*
X5316243Y-6317246D01*
X5518412Y-6251557D01*
X5707816Y-6155051D01*
X5879792Y-6030104D01*
X6030104Y-5879792D01*
X6155051Y-5707816D01*
X6251557Y-5518412D01*
X6289558Y-5401456D01*
X24539500Y-5401456D01*
X24539500Y-5598543D01*
X24577949Y-5791834D01*
X24577949Y-5791836D01*
X24653367Y-5973913D01*
X24653368Y-5973914D01*
X24762861Y-6137782D01*
X24902218Y-6277139D01*
X25066086Y-6386632D01*
X25248165Y-6462051D01*
X25441459Y-6500500D01*
X25441460Y-6500500D01*
X25638540Y-6500500D01*
X25638541Y-6500500D01*
X25831835Y-6462051D01*
X26013914Y-6386632D01*
X26177782Y-6277139D01*
X26317139Y-6137782D01*
X26426632Y-5973914D01*
X26502051Y-5791835D01*
X26540500Y-5598541D01*
X26540500Y-5401459D01*
X26502051Y-5208165D01*
X26426632Y-5026086D01*
X26317139Y-4862218D01*
X26177782Y-4722861D01*
X26013914Y-4613368D01*
X26013915Y-4613368D01*
X26013913Y-4613367D01*
X25831835Y-4537949D01*
X25638543Y-4499500D01*
X25638541Y-4499500D01*
X25441459Y-4499500D01*
X25441456Y-4499500D01*
X25248165Y-4537949D01*
X25248163Y-4537949D01*
X25066086Y-4613367D01*
X24902218Y-4722861D01*
X24902214Y-4722864D01*
X24762864Y-4862214D01*
X24762861Y-4862218D01*
X24653367Y-5026086D01*
X24577949Y-5208163D01*
X24577949Y-5208165D01*
X24539500Y-5401456D01*
X6289558Y-5401456D01*
X6317246Y-5316243D01*
X6334364Y-5208165D01*
X6350500Y-5106290D01*
X6350500Y-4893709D01*
X6317247Y-4683761D01*
X6294375Y-4613368D01*
X6251557Y-4481588D01*
X6155051Y-4292184D01*
X6155049Y-4292180D01*
X6030108Y-4120213D01*
X6030106Y-4120211D01*
X6030104Y-4120208D01*
X5879792Y-3969896D01*
X5879788Y-3969893D01*
X5879786Y-3969891D01*
X5707819Y-3844950D01*
X5707815Y-3844948D01*
X5518412Y-3748443D01*
X5316238Y-3682752D01*
X5106290Y-3649500D01*
X5106287Y-3649500D01*
X4893713Y-3649500D01*
X4893710Y-3649500D01*
X4683761Y-3682752D01*
X4481587Y-3748443D01*
X4292184Y-3844948D01*
X4292180Y-3844950D01*
X4120213Y-3969891D01*
X3969891Y-4120213D01*
X3844950Y-4292180D01*
X3844948Y-4292184D01*
X3748443Y-4481587D01*
X3682752Y-4683761D01*
X3649500Y-4893709D01*
X500500Y-4893709D01*
X500500Y-4002435D01*
X500619Y-3997578D01*
X512858Y-3748443D01*
X517113Y-3661824D01*
X518063Y-3652186D01*
X567029Y-3322080D01*
X568918Y-3312582D01*
X650009Y-2988849D01*
X652818Y-2979590D01*
X765249Y-2665367D01*
X768958Y-2656412D01*
X911644Y-2354728D01*
X916211Y-2346185D01*
X1087780Y-2059938D01*
X1093163Y-2051883D01*
X1291957Y-1783841D01*
X1298107Y-1776346D01*
X1522228Y-1529067D01*
X1529067Y-1522228D01*
X1776346Y-1298107D01*
X1783841Y-1291957D01*
X2051883Y-1093163D01*
X2059938Y-1087780D01*
X2346185Y-916211D01*
X2354728Y-911644D01*
X2656412Y-768958D01*
X2665367Y-765249D01*
X2979590Y-652818D01*
X2988849Y-650009D01*
X3312582Y-568918D01*
X3322080Y-567029D01*
X3652186Y-518063D01*
X3661824Y-517113D01*
X3970606Y-501944D01*
X3997579Y-500619D01*
X4002436Y-500500D01*
X4065892Y-500500D01*
X51401000Y-500500D01*
X51459191Y-519407D01*
G37*
%TD.AperFunction*%
%TD*%
M02*
