M48
; DRILL file KiCad 10.0.6-1.fc44 date 2026-09-10T12:49:52
; FORMAT={-:-/ absolute / metric / decimal}
; #@! TF.CreationDate,2026-09-10T12:49:52+07:00
; #@! TF.GenerationSoftware,Kicad,Pcbnew,10.0.6-1.fc44
; #@! TF.FileFunction,MixedPlating,1,4
FMAT,2
METRIC
; #@! TA.AperFunction,Plated,PTH,ViaDrill
T1C0.200
; #@! TA.AperFunction,Plated,PTH,ComponentDrill
T2C0.200
; #@! TA.AperFunction,Plated,PTH,ViaDrill
T3C0.250
; #@! TA.AperFunction,Plated,PTH,ComponentDrill
T4C0.600
; #@! TA.AperFunction,Plated,PTH,ComponentDrill
T5C1.000
; #@! TA.AperFunction,Plated,PTH,ComponentDrill
T6C1.500
; #@! TA.AperFunction,NonPlated,NPTH,ComponentDrill
T7C0.650
; #@! TA.AperFunction,NonPlated,NPTH,ComponentDrill
T8C0.900
; #@! TA.AperFunction,NonPlated,NPTH,ComponentDrill
T9C2.200
%
G90
G05
T1
X8.383Y-28.406
X12.501Y-24.573
X14.874Y-22.939
X16.026Y-27.822
X21.149Y-19.237
X22.843Y-13.925
X23.992Y-10.301
X27.214Y-28.913
X28.952Y-32.916
X29.037Y-9.764
X30.199Y-25.426
X35.095Y-12.751
X44.416Y-8.054
X49.95Y-18.154
X51.632Y-9.6
X52.458Y-45.1
X74.405Y-35.776
T2
X60.1Y-16.76
X60.1Y-18.16
X60.8Y-16.06
X60.8Y-17.46
X60.8Y-18.86
X61.5Y-16.76
X61.5Y-18.16
X62.2Y-16.06
X62.2Y-17.46
X62.2Y-18.86
X62.9Y-16.76
X62.9Y-18.16
X73.525Y-32.0
X74.5Y-31.275
X74.5Y-32.0
X74.5Y-32.725
X75.475Y-32.0
T3
X1.2Y-3.8
X1.2Y-6.4
X1.2Y-9.0
X1.2Y-11.6
X1.2Y-14.2
X1.2Y-16.8
X1.2Y-19.4
X1.2Y-22.0
X1.2Y-24.6
X1.2Y-29.8
X1.2Y-32.4
X1.2Y-35.0
X1.2Y-37.6
X1.2Y-40.2
X1.2Y-42.8
X1.2Y-45.4
X1.2Y-48.0
X1.2Y-50.6
X3.8Y-1.2
X3.8Y-9.0
X3.8Y-11.6
X3.8Y-14.2
X3.8Y-16.8
X3.8Y-19.4
X3.8Y-22.0
X3.8Y-27.2
X3.8Y-35.0
X3.8Y-37.6
X3.8Y-40.2
X3.8Y-42.8
X3.8Y-45.4
X3.8Y-50.6
X4.53Y-29.608
X4.594Y-30.376
X5.368Y-22.489
X6.4Y-1.2
X6.4Y-9.0
X6.4Y-11.6
X6.4Y-14.2
X6.4Y-16.8
X6.4Y-19.4
X6.4Y-50.6
X7.398Y-32.235
X7.399Y-25.663
X7.502Y-29.96
X8.785Y-31.132
X9.0Y-1.2
X9.0Y-3.8
X9.0Y-6.4
X9.0Y-9.0
X9.0Y-11.6
X9.0Y-14.2
X9.0Y-16.8
X9.0Y-19.4
X10.412Y-24.105
X10.443Y-26.195
X11.6Y-1.2
X11.6Y-3.8
X11.6Y-9.0
X11.6Y-14.2
X11.6Y-19.4
X11.6Y-50.6
X13.963Y-25.596
X14.2Y-1.2
X14.2Y-3.8
X14.2Y-11.6
X14.2Y-19.4
X16.8Y-1.2
X16.8Y-9.0
X16.8Y-11.6
X16.8Y-14.2
X16.8Y-19.4
X16.8Y-50.6
X17.018Y-28.969
X19.4Y-1.2
X19.4Y-9.0
X19.4Y-11.6
X19.4Y-14.2
X20.148Y-33.709
X20.477Y-46.379
X21.712Y-47.268
X22.0Y-1.2
X22.026Y-20.152
X23.622Y-30.321
X24.6Y-1.2
X25.852Y-20.243
X26.267Y-47.856
X26.293Y-11.543
X27.2Y-1.2
X27.219Y-27.853
X29.423Y-16.959
X29.549Y-9.318
X29.8Y-1.2
X32.062Y-11.644
X32.131Y-29.731
X32.149Y-26.453
X32.4Y-1.2
X32.4Y-6.4
X32.4Y-50.6
X33.228Y-46.83
X33.642Y-12.541
X34.425Y-12.845
X34.426Y-14.093
X34.546Y-15.111
X34.715Y-24.054
X35.0Y-1.2
X35.0Y-37.6
X35.0Y-40.2
X35.141Y-47.684
X35.25Y-32.013
X35.819Y-47.879
X37.312Y-25.511
X37.6Y-1.2
X37.6Y-50.6
X38.072Y-13.434
X38.488Y-30.913
X39.913Y-23.3
X40.0Y-17.251
X40.2Y-1.2
X40.2Y-3.8
X40.2Y-6.4
X40.683Y-50.556
X41.583Y-10.355
X42.8Y-1.2
X42.8Y-3.8
X42.8Y-6.4
X43.213Y-23.148
X44.018Y-22.44
X45.4Y-1.2
X45.4Y-3.8
X45.4Y-6.4
X45.671Y-49.536
X46.553Y-17.689
X48.0Y-1.2
X48.0Y-3.8
X48.0Y-6.4
X50.294Y-27.976
X50.42Y-17.771
X50.6Y-1.2
X50.6Y-3.8
X50.6Y-6.4
X52.032Y-19.24
X52.624Y-22.383
X52.626Y-23.5
X52.907Y-17.73
X52.97Y-19.147
X53.098Y-16.679
X53.919Y-27.495
X54.597Y-43.383
X54.74Y-45.812
X55.091Y-44.862
X55.248Y-40.711
X55.459Y-24.9
X56.083Y-15.221
X56.375Y-18.01
X56.472Y-19.17
X56.779Y-16.031
X57.014Y-22.973
X57.504Y-25.477
X57.855Y-15.402
X58.4Y-16.8
X58.4Y-35.0
X58.4Y-37.6
X58.4Y-50.6
X60.077Y-45.432
X60.27Y-25.257
X61.0Y-50.6
X61.665Y-23.64
X61.677Y-25.765
X62.69Y-25.305
X62.926Y-26.011
X65.241Y-25.646
X66.2Y-22.0
X66.2Y-29.8
X66.2Y-50.6
X66.229Y-13.556
X66.736Y-10.985
X67.473Y-28.856
X68.8Y-22.0
X68.8Y-32.4
X68.8Y-35.0
X68.8Y-37.6
X68.8Y-45.4
X68.8Y-48.0
X68.8Y-50.6
X68.911Y-16.139
X69.166Y-21.036
X71.341Y-30.381
X71.4Y-45.4
X71.4Y-48.0
X71.4Y-50.6
X74.0Y-11.6
X74.0Y-14.2
X74.0Y-16.8
X74.0Y-19.4
X74.0Y-22.0
X74.0Y-24.6
X74.0Y-27.2
X74.0Y-45.4
X74.0Y-50.6
X76.6Y-1.2
X76.6Y-9.0
X76.6Y-11.6
X76.6Y-14.2
X76.6Y-16.8
X76.6Y-19.4
X76.6Y-22.0
X76.6Y-24.6
X76.6Y-27.2
X76.6Y-42.8
X76.6Y-45.4
X76.6Y-50.6
T5
X23.0Y-5.5
X25.54Y-5.5
X28.08Y-5.5
X30.0Y-36.0
X30.62Y-5.5
X32.54Y-36.0
X35.08Y-36.0
X37.62Y-36.0
X52.0Y-33.2
X52.0Y-35.7
X52.0Y-38.2
X66.5Y-33.2
X66.5Y-38.2
T7
X57.11Y-47.695
X62.89Y-47.695
T8
X22.5Y-50.83
X25.5Y-50.83
T9
X5.0Y-5.0
X5.0Y-48.0
X75.0Y-5.0
X75.0Y-48.0
T4
X55.68Y-46.645G85X55.68Y-47.745
G05
X55.68Y-51.075G85X55.68Y-51.675
G05
X64.32Y-46.645G85X64.32Y-47.745
G05
X64.32Y-51.075G85X64.32Y-51.675
G05
T5
X11.5Y-5.25G85X12.5Y-5.25
G05
X11.5Y-11.35G85X12.5Y-11.35
G05
X11.5Y-16.85G85X12.5Y-16.85
G05
X13.5Y-7.65G85X14.5Y-7.65
G05
X13.5Y-13.15G85X14.5Y-13.15
G05
T6
X58.85Y-30.1G85X60.15Y-30.1
G05
X58.85Y-41.3G85X60.15Y-41.3
G05
M30
