%TF.GenerationSoftware,KiCad,Pcbnew,10.0.6-1.fc44*%
%TF.CreationDate,2026-09-14T18:45:27+07:00*%
%TF.ProjectId,poket,706f6b65-742e-46b6-9963-61645f706362,rev?*%
%TF.SameCoordinates,Original*%
%TF.FileFunction,Drillmap*%
%TF.FilePolarity,Positive*%
%FSLAX45Y45*%
G04 Gerber Fmt 4.5, Leading zero omitted, Abs format (unit mm)*
G04 Created by KiCad (PCBNEW 10.0.6-1.fc44) date 2026-09-14 18:45:27*
%MOMM*%
%LPD*%
G01*
G04 APERTURE LIST*
%ADD10C,0.100000*%
%ADD11C,0.200000*%
%ADD12C,0.150000*%
%ADD13C,0.220000*%
G04 APERTURE END LIST*
D10*
X0Y-400000D02*
G75*
G02*
X400000Y0I400000J0D01*
G01*
X0Y-5000000D02*
X0Y-400000D01*
X400000Y0D02*
X7600000Y0D01*
X400000Y-5400000D02*
G75*
G02*
X0Y-5000000I0J400000D01*
G01*
X7600000Y0D02*
G75*
G02*
X8000000Y-400000I0J-400000D01*
G01*
X7600000Y-5400000D02*
X400000Y-5400000D01*
X8000000Y-400000D02*
X8000000Y-5000000D01*
X8000000Y-5000000D02*
G75*
G02*
X7600000Y-5400000I-400000J0D01*
G01*
D11*
D10*
X6000000Y-1441000D02*
X6020000Y-1461000D01*
X6020000Y-1441000D02*
X6000000Y-1461000D01*
X6000000Y-1581000D02*
X6020000Y-1601000D01*
X6020000Y-1581000D02*
X6000000Y-1601000D01*
X6070000Y-1371000D02*
X6090000Y-1391000D01*
X6090000Y-1371000D02*
X6070000Y-1391000D01*
X6070000Y-1511000D02*
X6090000Y-1531000D01*
X6090000Y-1511000D02*
X6070000Y-1531000D01*
X6070000Y-1651000D02*
X6090000Y-1671000D01*
X6090000Y-1651000D02*
X6070000Y-1671000D01*
X6140000Y-1441000D02*
X6160000Y-1461000D01*
X6160000Y-1441000D02*
X6140000Y-1461000D01*
X6140000Y-1581000D02*
X6160000Y-1601000D01*
X6160000Y-1581000D02*
X6140000Y-1601000D01*
X6210000Y-1371000D02*
X6230000Y-1391000D01*
X6230000Y-1371000D02*
X6210000Y-1391000D01*
X6210000Y-1511000D02*
X6230000Y-1531000D01*
X6230000Y-1511000D02*
X6210000Y-1531000D01*
X6210000Y-1651000D02*
X6230000Y-1671000D01*
X6230000Y-1651000D02*
X6210000Y-1671000D01*
X6280000Y-1441000D02*
X6300000Y-1461000D01*
X6300000Y-1441000D02*
X6280000Y-1461000D01*
X6280000Y-1581000D02*
X6300000Y-1601000D01*
X6300000Y-1581000D02*
X6280000Y-1601000D01*
X7342500Y-3190000D02*
X7362500Y-3210000D01*
X7362500Y-3190000D02*
X7342500Y-3210000D01*
X7440000Y-3117500D02*
X7460000Y-3137500D01*
X7460000Y-3117500D02*
X7440000Y-3137500D01*
X7440000Y-3190000D02*
X7460000Y-3210000D01*
X7460000Y-3190000D02*
X7440000Y-3210000D01*
X7440000Y-3262500D02*
X7460000Y-3282500D01*
X7460000Y-3262500D02*
X7440000Y-3282500D01*
X7537500Y-3190000D02*
X7557500Y-3210000D01*
X7557500Y-3190000D02*
X7537500Y-3210000D01*
X132500Y-370000D02*
G75*
G02*
X107500Y-370000I-12500J0D01*
G01*
X107500Y-370000D02*
G75*
G02*
X132500Y-370000I12500J0D01*
G01*
X132500Y-620000D02*
G75*
G02*
X107500Y-620000I-12500J0D01*
G01*
X107500Y-620000D02*
G75*
G02*
X132500Y-620000I12500J0D01*
G01*
X132500Y-870000D02*
G75*
G02*
X107500Y-870000I-12500J0D01*
G01*
X107500Y-870000D02*
G75*
G02*
X132500Y-870000I12500J0D01*
G01*
X132500Y-1120000D02*
G75*
G02*
X107500Y-1120000I-12500J0D01*
G01*
X107500Y-1120000D02*
G75*
G02*
X132500Y-1120000I12500J0D01*
G01*
X132500Y-1370000D02*
G75*
G02*
X107500Y-1370000I-12500J0D01*
G01*
X107500Y-1370000D02*
G75*
G02*
X132500Y-1370000I12500J0D01*
G01*
X132500Y-1620000D02*
G75*
G02*
X107500Y-1620000I-12500J0D01*
G01*
X107500Y-1620000D02*
G75*
G02*
X132500Y-1620000I12500J0D01*
G01*
X132500Y-1870000D02*
G75*
G02*
X107500Y-1870000I-12500J0D01*
G01*
X107500Y-1870000D02*
G75*
G02*
X132500Y-1870000I12500J0D01*
G01*
X132500Y-2120000D02*
G75*
G02*
X107500Y-2120000I-12500J0D01*
G01*
X107500Y-2120000D02*
G75*
G02*
X132500Y-2120000I12500J0D01*
G01*
X132500Y-3120000D02*
G75*
G02*
X107500Y-3120000I-12500J0D01*
G01*
X107500Y-3120000D02*
G75*
G02*
X132500Y-3120000I12500J0D01*
G01*
X132500Y-3370000D02*
G75*
G02*
X107500Y-3370000I-12500J0D01*
G01*
X107500Y-3370000D02*
G75*
G02*
X132500Y-3370000I12500J0D01*
G01*
X132500Y-3620000D02*
G75*
G02*
X107500Y-3620000I-12500J0D01*
G01*
X107500Y-3620000D02*
G75*
G02*
X132500Y-3620000I12500J0D01*
G01*
X132500Y-3870000D02*
G75*
G02*
X107500Y-3870000I-12500J0D01*
G01*
X107500Y-3870000D02*
G75*
G02*
X132500Y-3870000I12500J0D01*
G01*
X132500Y-4120000D02*
G75*
G02*
X107500Y-4120000I-12500J0D01*
G01*
X107500Y-4120000D02*
G75*
G02*
X132500Y-4120000I12500J0D01*
G01*
X132500Y-4370000D02*
G75*
G02*
X107500Y-4370000I-12500J0D01*
G01*
X107500Y-4370000D02*
G75*
G02*
X132500Y-4370000I12500J0D01*
G01*
X132500Y-4620000D02*
G75*
G02*
X107500Y-4620000I-12500J0D01*
G01*
X107500Y-4620000D02*
G75*
G02*
X132500Y-4620000I12500J0D01*
G01*
X132500Y-4870000D02*
G75*
G02*
X107500Y-4870000I-12500J0D01*
G01*
X107500Y-4870000D02*
G75*
G02*
X132500Y-4870000I12500J0D01*
G01*
X132500Y-5120000D02*
G75*
G02*
X107500Y-5120000I-12500J0D01*
G01*
X107500Y-5120000D02*
G75*
G02*
X132500Y-5120000I12500J0D01*
G01*
X357450Y-3027230D02*
G75*
G02*
X332450Y-3027230I-12500J0D01*
G01*
X332450Y-3027230D02*
G75*
G02*
X357450Y-3027230I12500J0D01*
G01*
X366800Y-2586010D02*
G75*
G02*
X341800Y-2586010I-12500J0D01*
G01*
X341800Y-2586010D02*
G75*
G02*
X366800Y-2586010I12500J0D01*
G01*
X382500Y-120000D02*
G75*
G02*
X357500Y-120000I-12500J0D01*
G01*
X357500Y-120000D02*
G75*
G02*
X382500Y-120000I12500J0D01*
G01*
X382500Y-870000D02*
G75*
G02*
X357500Y-870000I-12500J0D01*
G01*
X357500Y-870000D02*
G75*
G02*
X382500Y-870000I12500J0D01*
G01*
X382500Y-1120000D02*
G75*
G02*
X357500Y-1120000I-12500J0D01*
G01*
X357500Y-1120000D02*
G75*
G02*
X382500Y-1120000I12500J0D01*
G01*
X382500Y-1370000D02*
G75*
G02*
X357500Y-1370000I-12500J0D01*
G01*
X357500Y-1370000D02*
G75*
G02*
X382500Y-1370000I12500J0D01*
G01*
X382500Y-1620000D02*
G75*
G02*
X357500Y-1620000I-12500J0D01*
G01*
X357500Y-1620000D02*
G75*
G02*
X382500Y-1620000I12500J0D01*
G01*
X382500Y-1870000D02*
G75*
G02*
X357500Y-1870000I-12500J0D01*
G01*
X357500Y-1870000D02*
G75*
G02*
X382500Y-1870000I12500J0D01*
G01*
X382500Y-2120000D02*
G75*
G02*
X357500Y-2120000I-12500J0D01*
G01*
X357500Y-2120000D02*
G75*
G02*
X382500Y-2120000I12500J0D01*
G01*
X382500Y-3370000D02*
G75*
G02*
X357500Y-3370000I-12500J0D01*
G01*
X357500Y-3370000D02*
G75*
G02*
X382500Y-3370000I12500J0D01*
G01*
X382500Y-3620000D02*
G75*
G02*
X357500Y-3620000I-12500J0D01*
G01*
X357500Y-3620000D02*
G75*
G02*
X382500Y-3620000I12500J0D01*
G01*
X382500Y-3870000D02*
G75*
G02*
X357500Y-3870000I-12500J0D01*
G01*
X357500Y-3870000D02*
G75*
G02*
X382500Y-3870000I12500J0D01*
G01*
X382500Y-4120000D02*
G75*
G02*
X357500Y-4120000I-12500J0D01*
G01*
X357500Y-4120000D02*
G75*
G02*
X382500Y-4120000I12500J0D01*
G01*
X382500Y-4370000D02*
G75*
G02*
X357500Y-4370000I-12500J0D01*
G01*
X357500Y-4370000D02*
G75*
G02*
X382500Y-4370000I12500J0D01*
G01*
X382500Y-5120000D02*
G75*
G02*
X357500Y-5120000I-12500J0D01*
G01*
X357500Y-5120000D02*
G75*
G02*
X382500Y-5120000I12500J0D01*
G01*
X464880Y-2550710D02*
G75*
G02*
X439880Y-2550710I-12500J0D01*
G01*
X439880Y-2550710D02*
G75*
G02*
X464880Y-2550710I12500J0D01*
G01*
X524290Y-3335000D02*
G75*
G02*
X499290Y-3335000I-12500J0D01*
G01*
X499290Y-3335000D02*
G75*
G02*
X524290Y-3335000I12500J0D01*
G01*
X632500Y-120000D02*
G75*
G02*
X607500Y-120000I-12500J0D01*
G01*
X607500Y-120000D02*
G75*
G02*
X632500Y-120000I12500J0D01*
G01*
X632500Y-870000D02*
G75*
G02*
X607500Y-870000I-12500J0D01*
G01*
X607500Y-870000D02*
G75*
G02*
X632500Y-870000I12500J0D01*
G01*
X632500Y-1120000D02*
G75*
G02*
X607500Y-1120000I-12500J0D01*
G01*
X607500Y-1120000D02*
G75*
G02*
X632500Y-1120000I12500J0D01*
G01*
X632500Y-1370000D02*
G75*
G02*
X607500Y-1370000I-12500J0D01*
G01*
X607500Y-1370000D02*
G75*
G02*
X632500Y-1370000I12500J0D01*
G01*
X632500Y-1620000D02*
G75*
G02*
X607500Y-1620000I-12500J0D01*
G01*
X607500Y-1620000D02*
G75*
G02*
X632500Y-1620000I12500J0D01*
G01*
X632500Y-1870000D02*
G75*
G02*
X607500Y-1870000I-12500J0D01*
G01*
X607500Y-1870000D02*
G75*
G02*
X632500Y-1870000I12500J0D01*
G01*
X632500Y-2120000D02*
G75*
G02*
X607500Y-2120000I-12500J0D01*
G01*
X607500Y-2120000D02*
G75*
G02*
X632500Y-2120000I12500J0D01*
G01*
X632500Y-3620000D02*
G75*
G02*
X607500Y-3620000I-12500J0D01*
G01*
X607500Y-3620000D02*
G75*
G02*
X632500Y-3620000I12500J0D01*
G01*
X632500Y-3870000D02*
G75*
G02*
X607500Y-3870000I-12500J0D01*
G01*
X607500Y-3870000D02*
G75*
G02*
X632500Y-3870000I12500J0D01*
G01*
X632500Y-4120000D02*
G75*
G02*
X607500Y-4120000I-12500J0D01*
G01*
X607500Y-4120000D02*
G75*
G02*
X632500Y-4120000I12500J0D01*
G01*
X632500Y-4370000D02*
G75*
G02*
X607500Y-4370000I-12500J0D01*
G01*
X607500Y-4370000D02*
G75*
G02*
X632500Y-4370000I12500J0D01*
G01*
X632500Y-5120000D02*
G75*
G02*
X607500Y-5120000I-12500J0D01*
G01*
X607500Y-5120000D02*
G75*
G02*
X632500Y-5120000I12500J0D01*
G01*
X745190Y-3185080D02*
G75*
G02*
X720190Y-3185080I-12500J0D01*
G01*
X720190Y-3185080D02*
G75*
G02*
X745190Y-3185080I12500J0D01*
G01*
X746050Y-2565250D02*
G75*
G02*
X721050Y-2565250I-12500J0D01*
G01*
X721050Y-2565250D02*
G75*
G02*
X746050Y-2565250I12500J0D01*
G01*
X809040Y-3010620D02*
G75*
G02*
X784040Y-3010620I-12500J0D01*
G01*
X784040Y-3010620D02*
G75*
G02*
X809040Y-3010620I12500J0D01*
G01*
X853140Y-4547700D02*
G75*
G02*
X828140Y-4547700I-12500J0D01*
G01*
X828140Y-4547700D02*
G75*
G02*
X853140Y-4547700I12500J0D01*
G01*
X862500Y-2479280D02*
G75*
G02*
X837500Y-2479280I-12500J0D01*
G01*
X837500Y-2479280D02*
G75*
G02*
X862500Y-2479280I12500J0D01*
G01*
X862500Y-2670340D02*
G75*
G02*
X837500Y-2670340I-12500J0D01*
G01*
X837500Y-2670340D02*
G75*
G02*
X862500Y-2670340I12500J0D01*
G01*
X882500Y-120000D02*
G75*
G02*
X857500Y-120000I-12500J0D01*
G01*
X857500Y-120000D02*
G75*
G02*
X882500Y-120000I12500J0D01*
G01*
X882500Y-370000D02*
G75*
G02*
X857500Y-370000I-12500J0D01*
G01*
X857500Y-370000D02*
G75*
G02*
X882500Y-370000I12500J0D01*
G01*
X882500Y-620000D02*
G75*
G02*
X857500Y-620000I-12500J0D01*
G01*
X857500Y-620000D02*
G75*
G02*
X882500Y-620000I12500J0D01*
G01*
X882500Y-870000D02*
G75*
G02*
X857500Y-870000I-12500J0D01*
G01*
X857500Y-870000D02*
G75*
G02*
X882500Y-870000I12500J0D01*
G01*
X882500Y-1120000D02*
G75*
G02*
X857500Y-1120000I-12500J0D01*
G01*
X857500Y-1120000D02*
G75*
G02*
X882500Y-1120000I12500J0D01*
G01*
X882500Y-1370000D02*
G75*
G02*
X857500Y-1370000I-12500J0D01*
G01*
X857500Y-1370000D02*
G75*
G02*
X882500Y-1370000I12500J0D01*
G01*
X882500Y-1620000D02*
G75*
G02*
X857500Y-1620000I-12500J0D01*
G01*
X857500Y-1620000D02*
G75*
G02*
X882500Y-1620000I12500J0D01*
G01*
X882500Y-1870000D02*
G75*
G02*
X857500Y-1870000I-12500J0D01*
G01*
X857500Y-1870000D02*
G75*
G02*
X882500Y-1870000I12500J0D01*
G01*
X882500Y-2120000D02*
G75*
G02*
X857500Y-2120000I-12500J0D01*
G01*
X857500Y-2120000D02*
G75*
G02*
X882500Y-2120000I12500J0D01*
G01*
X882500Y-3620000D02*
G75*
G02*
X857500Y-3620000I-12500J0D01*
G01*
X857500Y-3620000D02*
G75*
G02*
X882500Y-3620000I12500J0D01*
G01*
X882500Y-3870000D02*
G75*
G02*
X857500Y-3870000I-12500J0D01*
G01*
X857500Y-3870000D02*
G75*
G02*
X882500Y-3870000I12500J0D01*
G01*
X882500Y-4120000D02*
G75*
G02*
X857500Y-4120000I-12500J0D01*
G01*
X857500Y-4120000D02*
G75*
G02*
X882500Y-4120000I12500J0D01*
G01*
X882500Y-4370000D02*
G75*
G02*
X857500Y-4370000I-12500J0D01*
G01*
X857500Y-4370000D02*
G75*
G02*
X882500Y-4370000I12500J0D01*
G01*
X882500Y-4870000D02*
G75*
G02*
X857500Y-4870000I-12500J0D01*
G01*
X857500Y-4870000D02*
G75*
G02*
X882500Y-4870000I12500J0D01*
G01*
X894860Y-2403030D02*
G75*
G02*
X869860Y-2403030I-12500J0D01*
G01*
X869860Y-2403030D02*
G75*
G02*
X894860Y-2403030I12500J0D01*
G01*
X908610Y-3334710D02*
G75*
G02*
X883610Y-3334710I-12500J0D01*
G01*
X883610Y-3334710D02*
G75*
G02*
X908610Y-3334710I12500J0D01*
G01*
X912980Y-3023280D02*
G75*
G02*
X887980Y-3023280I-12500J0D01*
G01*
X887980Y-3023280D02*
G75*
G02*
X912980Y-3023280I12500J0D01*
G01*
X1018530Y-4720490D02*
G75*
G02*
X993530Y-4720490I-12500J0D01*
G01*
X993530Y-4720490D02*
G75*
G02*
X1018530Y-4720490I12500J0D01*
G01*
X1075030Y-3206950D02*
G75*
G02*
X1050030Y-3206950I-12500J0D01*
G01*
X1050030Y-3206950D02*
G75*
G02*
X1075030Y-3206950I12500J0D01*
G01*
X1132500Y-120000D02*
G75*
G02*
X1107500Y-120000I-12500J0D01*
G01*
X1107500Y-120000D02*
G75*
G02*
X1132500Y-120000I12500J0D01*
G01*
X1132500Y-370000D02*
G75*
G02*
X1107500Y-370000I-12500J0D01*
G01*
X1107500Y-370000D02*
G75*
G02*
X1132500Y-370000I12500J0D01*
G01*
X1132500Y-870000D02*
G75*
G02*
X1107500Y-870000I-12500J0D01*
G01*
X1107500Y-870000D02*
G75*
G02*
X1132500Y-870000I12500J0D01*
G01*
X1132500Y-1370000D02*
G75*
G02*
X1107500Y-1370000I-12500J0D01*
G01*
X1107500Y-1370000D02*
G75*
G02*
X1132500Y-1370000I12500J0D01*
G01*
X1132500Y-1870000D02*
G75*
G02*
X1107500Y-1870000I-12500J0D01*
G01*
X1107500Y-1870000D02*
G75*
G02*
X1132500Y-1870000I12500J0D01*
G01*
X1132500Y-2120000D02*
G75*
G02*
X1107500Y-2120000I-12500J0D01*
G01*
X1107500Y-2120000D02*
G75*
G02*
X1132500Y-2120000I12500J0D01*
G01*
X1132500Y-5120000D02*
G75*
G02*
X1107500Y-5120000I-12500J0D01*
G01*
X1107500Y-5120000D02*
G75*
G02*
X1132500Y-5120000I12500J0D01*
G01*
X1299430Y-4843670D02*
G75*
G02*
X1274430Y-4843670I-12500J0D01*
G01*
X1274430Y-4843670D02*
G75*
G02*
X1299430Y-4843670I12500J0D01*
G01*
X1382500Y-120000D02*
G75*
G02*
X1357500Y-120000I-12500J0D01*
G01*
X1357500Y-120000D02*
G75*
G02*
X1382500Y-120000I12500J0D01*
G01*
X1382500Y-370000D02*
G75*
G02*
X1357500Y-370000I-12500J0D01*
G01*
X1357500Y-370000D02*
G75*
G02*
X1382500Y-370000I12500J0D01*
G01*
X1382500Y-1870000D02*
G75*
G02*
X1357500Y-1870000I-12500J0D01*
G01*
X1357500Y-1870000D02*
G75*
G02*
X1382500Y-1870000I12500J0D01*
G01*
X1382500Y-2120000D02*
G75*
G02*
X1357500Y-2120000I-12500J0D01*
G01*
X1357500Y-2120000D02*
G75*
G02*
X1382500Y-2120000I12500J0D01*
G01*
X1382500Y-5120000D02*
G75*
G02*
X1357500Y-5120000I-12500J0D01*
G01*
X1357500Y-5120000D02*
G75*
G02*
X1382500Y-5120000I12500J0D01*
G01*
X1406150Y-4764570D02*
G75*
G02*
X1381150Y-4764570I-12500J0D01*
G01*
X1381150Y-4764570D02*
G75*
G02*
X1406150Y-4764570I12500J0D01*
G01*
X1438450Y-3049530D02*
G75*
G02*
X1413450Y-3049530I-12500J0D01*
G01*
X1413450Y-3049530D02*
G75*
G02*
X1438450Y-3049530I12500J0D01*
G01*
X1563710Y-3343310D02*
G75*
G02*
X1538710Y-3343310I-12500J0D01*
G01*
X1538710Y-3343310D02*
G75*
G02*
X1563710Y-3343310I12500J0D01*
G01*
X1582260Y-4301330D02*
G75*
G02*
X1557260Y-4301330I-12500J0D01*
G01*
X1557260Y-4301330D02*
G75*
G02*
X1582260Y-4301330I12500J0D01*
G01*
X1632500Y-120000D02*
G75*
G02*
X1607500Y-120000I-12500J0D01*
G01*
X1607500Y-120000D02*
G75*
G02*
X1632500Y-120000I12500J0D01*
G01*
X1632500Y-370000D02*
G75*
G02*
X1607500Y-370000I-12500J0D01*
G01*
X1607500Y-370000D02*
G75*
G02*
X1632500Y-370000I12500J0D01*
G01*
X1632500Y-620000D02*
G75*
G02*
X1607500Y-620000I-12500J0D01*
G01*
X1607500Y-620000D02*
G75*
G02*
X1632500Y-620000I12500J0D01*
G01*
X1632500Y-870000D02*
G75*
G02*
X1607500Y-870000I-12500J0D01*
G01*
X1607500Y-870000D02*
G75*
G02*
X1632500Y-870000I12500J0D01*
G01*
X1632500Y-1120000D02*
G75*
G02*
X1607500Y-1120000I-12500J0D01*
G01*
X1607500Y-1120000D02*
G75*
G02*
X1632500Y-1120000I12500J0D01*
G01*
X1632500Y-1870000D02*
G75*
G02*
X1607500Y-1870000I-12500J0D01*
G01*
X1607500Y-1870000D02*
G75*
G02*
X1632500Y-1870000I12500J0D01*
G01*
X1783010Y-2788250D02*
G75*
G02*
X1758010Y-2788250I-12500J0D01*
G01*
X1758010Y-2788250D02*
G75*
G02*
X1783010Y-2788250I12500J0D01*
G01*
X1882500Y-120000D02*
G75*
G02*
X1857500Y-120000I-12500J0D01*
G01*
X1857500Y-120000D02*
G75*
G02*
X1882500Y-120000I12500J0D01*
G01*
X1882500Y-370000D02*
G75*
G02*
X1857500Y-370000I-12500J0D01*
G01*
X1857500Y-370000D02*
G75*
G02*
X1882500Y-370000I12500J0D01*
G01*
X1882500Y-620000D02*
G75*
G02*
X1857500Y-620000I-12500J0D01*
G01*
X1857500Y-620000D02*
G75*
G02*
X1882500Y-620000I12500J0D01*
G01*
X1882500Y-870000D02*
G75*
G02*
X1857500Y-870000I-12500J0D01*
G01*
X1857500Y-870000D02*
G75*
G02*
X1882500Y-870000I12500J0D01*
G01*
X1882500Y-1120000D02*
G75*
G02*
X1857500Y-1120000I-12500J0D01*
G01*
X1857500Y-1120000D02*
G75*
G02*
X1882500Y-1120000I12500J0D01*
G01*
X1882500Y-1870000D02*
G75*
G02*
X1857500Y-1870000I-12500J0D01*
G01*
X1857500Y-1870000D02*
G75*
G02*
X1882500Y-1870000I12500J0D01*
G01*
X1882500Y-4620000D02*
G75*
G02*
X1857500Y-4620000I-12500J0D01*
G01*
X1857500Y-4620000D02*
G75*
G02*
X1882500Y-4620000I12500J0D01*
G01*
X1882500Y-5120000D02*
G75*
G02*
X1857500Y-5120000I-12500J0D01*
G01*
X1857500Y-5120000D02*
G75*
G02*
X1882500Y-5120000I12500J0D01*
G01*
X2132500Y-120000D02*
G75*
G02*
X2107500Y-120000I-12500J0D01*
G01*
X2107500Y-120000D02*
G75*
G02*
X2132500Y-120000I12500J0D01*
G01*
X2132500Y-370000D02*
G75*
G02*
X2107500Y-370000I-12500J0D01*
G01*
X2107500Y-370000D02*
G75*
G02*
X2132500Y-370000I12500J0D01*
G01*
X2132500Y-620000D02*
G75*
G02*
X2107500Y-620000I-12500J0D01*
G01*
X2107500Y-620000D02*
G75*
G02*
X2132500Y-620000I12500J0D01*
G01*
X2132500Y-4620000D02*
G75*
G02*
X2107500Y-4620000I-12500J0D01*
G01*
X2107500Y-4620000D02*
G75*
G02*
X2132500Y-4620000I12500J0D01*
G01*
X2158060Y-2172970D02*
G75*
G02*
X2133060Y-2172970I-12500J0D01*
G01*
X2133060Y-2172970D02*
G75*
G02*
X2158060Y-2172970I12500J0D01*
G01*
X2311380Y-4614290D02*
G75*
G02*
X2286380Y-4614290I-12500J0D01*
G01*
X2286380Y-4614290D02*
G75*
G02*
X2311380Y-4614290I12500J0D01*
G01*
X2370150Y-1154120D02*
G75*
G02*
X2345150Y-1154120I-12500J0D01*
G01*
X2345150Y-1154120D02*
G75*
G02*
X2370150Y-1154120I12500J0D01*
G01*
X2382500Y-120000D02*
G75*
G02*
X2357500Y-120000I-12500J0D01*
G01*
X2357500Y-120000D02*
G75*
G02*
X2382500Y-120000I12500J0D01*
G01*
X2382500Y-370000D02*
G75*
G02*
X2357500Y-370000I-12500J0D01*
G01*
X2357500Y-370000D02*
G75*
G02*
X2382500Y-370000I12500J0D01*
G01*
X2382500Y-1870000D02*
G75*
G02*
X2357500Y-1870000I-12500J0D01*
G01*
X2357500Y-1870000D02*
G75*
G02*
X2382500Y-1870000I12500J0D01*
G01*
X2382500Y-3370000D02*
G75*
G02*
X2357500Y-3370000I-12500J0D01*
G01*
X2357500Y-3370000D02*
G75*
G02*
X2382500Y-3370000I12500J0D01*
G01*
X2382500Y-3620000D02*
G75*
G02*
X2357500Y-3620000I-12500J0D01*
G01*
X2357500Y-3620000D02*
G75*
G02*
X2382500Y-3620000I12500J0D01*
G01*
X2382500Y-5120000D02*
G75*
G02*
X2357500Y-5120000I-12500J0D01*
G01*
X2357500Y-5120000D02*
G75*
G02*
X2382500Y-5120000I12500J0D01*
G01*
X2422440Y-1024384D02*
G75*
G02*
X2397440Y-1024384I-12500J0D01*
G01*
X2397440Y-1024384D02*
G75*
G02*
X2422440Y-1024384I12500J0D01*
G01*
X2556620Y-1848130D02*
G75*
G02*
X2531620Y-1848130I-12500J0D01*
G01*
X2531620Y-1848130D02*
G75*
G02*
X2556620Y-1848130I12500J0D01*
G01*
X2612500Y-2393330D02*
G75*
G02*
X2587500Y-2393330I-12500J0D01*
G01*
X2587500Y-2393330D02*
G75*
G02*
X2612500Y-2393330I12500J0D01*
G01*
X2627250Y-3071080D02*
G75*
G02*
X2602250Y-3071080I-12500J0D01*
G01*
X2602250Y-3071080D02*
G75*
G02*
X2627250Y-3071080I12500J0D01*
G01*
X2632500Y-120000D02*
G75*
G02*
X2607500Y-120000I-12500J0D01*
G01*
X2607500Y-120000D02*
G75*
G02*
X2632500Y-120000I12500J0D01*
G01*
X2632500Y-3370000D02*
G75*
G02*
X2607500Y-3370000I-12500J0D01*
G01*
X2607500Y-3370000D02*
G75*
G02*
X2632500Y-3370000I12500J0D01*
G01*
X2632500Y-3620000D02*
G75*
G02*
X2607500Y-3620000I-12500J0D01*
G01*
X2607500Y-3620000D02*
G75*
G02*
X2632500Y-3620000I12500J0D01*
G01*
X2632500Y-4120000D02*
G75*
G02*
X2607500Y-4120000I-12500J0D01*
G01*
X2607500Y-4120000D02*
G75*
G02*
X2632500Y-4120000I12500J0D01*
G01*
X2646350Y-1007260D02*
G75*
G02*
X2621350Y-1007260I-12500J0D01*
G01*
X2621350Y-1007260D02*
G75*
G02*
X2646350Y-1007260I12500J0D01*
G01*
X2743220Y-1396540D02*
G75*
G02*
X2718220Y-1396540I-12500J0D01*
G01*
X2718220Y-1396540D02*
G75*
G02*
X2743220Y-1396540I12500J0D01*
G01*
X2777570Y-2373500D02*
G75*
G02*
X2752570Y-2373500I-12500J0D01*
G01*
X2752570Y-2373500D02*
G75*
G02*
X2777570Y-2373500I12500J0D01*
G01*
X2812500Y-2009830D02*
G75*
G02*
X2787500Y-2009830I-12500J0D01*
G01*
X2787500Y-2009830D02*
G75*
G02*
X2812500Y-2009830I12500J0D01*
G01*
X2826610Y-1452610D02*
G75*
G02*
X2801610Y-1452610I-12500J0D01*
G01*
X2801610Y-1452610D02*
G75*
G02*
X2826610Y-1452610I12500J0D01*
G01*
X2882500Y-120000D02*
G75*
G02*
X2857500Y-120000I-12500J0D01*
G01*
X2857500Y-120000D02*
G75*
G02*
X2882500Y-120000I12500J0D01*
G01*
X2882500Y-4120000D02*
G75*
G02*
X2857500Y-4120000I-12500J0D01*
G01*
X2857500Y-4120000D02*
G75*
G02*
X2882500Y-4120000I12500J0D01*
G01*
X2894780Y-955150D02*
G75*
G02*
X2869780Y-955150I-12500J0D01*
G01*
X2869780Y-955150D02*
G75*
G02*
X2894780Y-955150I12500J0D01*
G01*
X2945050Y-1532518D02*
G75*
G02*
X2920050Y-1532518I-12500J0D01*
G01*
X2920050Y-1532518D02*
G75*
G02*
X2945050Y-1532518I12500J0D01*
G01*
X3040500Y-4761650D02*
G75*
G02*
X3015500Y-4761650I-12500J0D01*
G01*
X3015500Y-4761650D02*
G75*
G02*
X3040500Y-4761650I12500J0D01*
G01*
X3090390Y-1673740D02*
G75*
G02*
X3065390Y-1673740I-12500J0D01*
G01*
X3065390Y-1673740D02*
G75*
G02*
X3090390Y-1673740I12500J0D01*
G01*
X3132500Y-120000D02*
G75*
G02*
X3107500Y-120000I-12500J0D01*
G01*
X3107500Y-120000D02*
G75*
G02*
X3132500Y-120000I12500J0D01*
G01*
X3132500Y-4120000D02*
G75*
G02*
X3107500Y-4120000I-12500J0D01*
G01*
X3107500Y-4120000D02*
G75*
G02*
X3132500Y-4120000I12500J0D01*
G01*
X3132500Y-4620000D02*
G75*
G02*
X3107500Y-4620000I-12500J0D01*
G01*
X3107500Y-4620000D02*
G75*
G02*
X3132500Y-4620000I12500J0D01*
G01*
X3184020Y-1563050D02*
G75*
G02*
X3159020Y-1563050I-12500J0D01*
G01*
X3159020Y-1563050D02*
G75*
G02*
X3184020Y-1563050I12500J0D01*
G01*
X3216020Y-1718520D02*
G75*
G02*
X3191020Y-1718520I-12500J0D01*
G01*
X3191020Y-1718520D02*
G75*
G02*
X3216020Y-1718520I12500J0D01*
G01*
X3216200Y-1153350D02*
G75*
G02*
X3191200Y-1153350I-12500J0D01*
G01*
X3191200Y-1153350D02*
G75*
G02*
X3216200Y-1153350I12500J0D01*
G01*
X3216680Y-1250490D02*
G75*
G02*
X3191680Y-1250490I-12500J0D01*
G01*
X3191680Y-1250490D02*
G75*
G02*
X3216680Y-1250490I12500J0D01*
G01*
X3223270Y-1015790D02*
G75*
G02*
X3198270Y-1015790I-12500J0D01*
G01*
X3198270Y-1015790D02*
G75*
G02*
X3223270Y-1015790I12500J0D01*
G01*
X3262330Y-2579810D02*
G75*
G02*
X3237330Y-2579810I-12500J0D01*
G01*
X3237330Y-2579810D02*
G75*
G02*
X3262330Y-2579810I12500J0D01*
G01*
X3277781Y-1125050D02*
G75*
G02*
X3252781Y-1125050I-12500J0D01*
G01*
X3252781Y-1125050D02*
G75*
G02*
X3277781Y-1125050I12500J0D01*
G01*
X3283540Y-4301330D02*
G75*
G02*
X3258540Y-4301330I-12500J0D01*
G01*
X3258540Y-4301330D02*
G75*
G02*
X3283540Y-4301330I12500J0D01*
G01*
X3283540Y-4547700D02*
G75*
G02*
X3258540Y-4547700I-12500J0D01*
G01*
X3258540Y-4547700D02*
G75*
G02*
X3283540Y-4547700I12500J0D01*
G01*
X3362500Y-3214240D02*
G75*
G02*
X3337500Y-3214240I-12500J0D01*
G01*
X3337500Y-3214240D02*
G75*
G02*
X3362500Y-3214240I12500J0D01*
G01*
X3382500Y-120000D02*
G75*
G02*
X3357500Y-120000I-12500J0D01*
G01*
X3357500Y-120000D02*
G75*
G02*
X3382500Y-120000I12500J0D01*
G01*
X3382500Y-370000D02*
G75*
G02*
X3357500Y-370000I-12500J0D01*
G01*
X3357500Y-370000D02*
G75*
G02*
X3382500Y-370000I12500J0D01*
G01*
X3442850Y-1261560D02*
G75*
G02*
X3417850Y-1261560I-12500J0D01*
G01*
X3417850Y-1261560D02*
G75*
G02*
X3442850Y-1261560I12500J0D01*
G01*
X3490440Y-1427140D02*
G75*
G02*
X3465440Y-1427140I-12500J0D01*
G01*
X3465440Y-1427140D02*
G75*
G02*
X3490440Y-1427140I12500J0D01*
G01*
X3509830Y-1361210D02*
G75*
G02*
X3484830Y-1361210I-12500J0D01*
G01*
X3484830Y-1361210D02*
G75*
G02*
X3509830Y-1361210I12500J0D01*
G01*
X3526580Y-4614290D02*
G75*
G02*
X3501580Y-4614290I-12500J0D01*
G01*
X3501580Y-4614290D02*
G75*
G02*
X3526580Y-4614290I12500J0D01*
G01*
X3543160Y-3232440D02*
G75*
G02*
X3518160Y-3232440I-12500J0D01*
G01*
X3518160Y-3232440D02*
G75*
G02*
X3543160Y-3232440I12500J0D01*
G01*
X3574960Y-3348950D02*
G75*
G02*
X3549960Y-3348950I-12500J0D01*
G01*
X3549960Y-3348950D02*
G75*
G02*
X3574960Y-3348950I12500J0D01*
G01*
X3591550Y-4098560D02*
G75*
G02*
X3566550Y-4098560I-12500J0D01*
G01*
X3566550Y-4098560D02*
G75*
G02*
X3591550Y-4098560I12500J0D01*
G01*
X3632500Y-120000D02*
G75*
G02*
X3607500Y-120000I-12500J0D01*
G01*
X3607500Y-120000D02*
G75*
G02*
X3632500Y-120000I12500J0D01*
G01*
X3632500Y-370000D02*
G75*
G02*
X3607500Y-370000I-12500J0D01*
G01*
X3607500Y-370000D02*
G75*
G02*
X3632500Y-370000I12500J0D01*
G01*
X3703860Y-2576740D02*
G75*
G02*
X3678860Y-2576740I-12500J0D01*
G01*
X3678860Y-2576740D02*
G75*
G02*
X3703860Y-2576740I12500J0D01*
G01*
X3747360Y-4451190D02*
G75*
G02*
X3722360Y-4451190I-12500J0D01*
G01*
X3722360Y-4451190D02*
G75*
G02*
X3747360Y-4451190I12500J0D01*
G01*
X3754010Y-3868240D02*
G75*
G02*
X3729010Y-3868240I-12500J0D01*
G01*
X3729010Y-3868240D02*
G75*
G02*
X3754010Y-3868240I12500J0D01*
G01*
X3762340Y-4306020D02*
G75*
G02*
X3737340Y-4306020I-12500J0D01*
G01*
X3737340Y-4306020D02*
G75*
G02*
X3762340Y-4306020I12500J0D01*
G01*
X3767540Y-1293100D02*
G75*
G02*
X3742540Y-1293100I-12500J0D01*
G01*
X3742540Y-1293100D02*
G75*
G02*
X3767540Y-1293100I12500J0D01*
G01*
X3769620Y-3343470D02*
G75*
G02*
X3744620Y-3343470I-12500J0D01*
G01*
X3744620Y-3343470D02*
G75*
G02*
X3769620Y-3343470I12500J0D01*
G01*
X3793140Y-1722460D02*
G75*
G02*
X3768140Y-1722460I-12500J0D01*
G01*
X3768140Y-1722460D02*
G75*
G02*
X3793140Y-1722460I12500J0D01*
G01*
X3800620Y-1419640D02*
G75*
G02*
X3775620Y-1419640I-12500J0D01*
G01*
X3775620Y-1419640D02*
G75*
G02*
X3800620Y-1419640I12500J0D01*
G01*
X3829040Y-3942330D02*
G75*
G02*
X3804040Y-3942330I-12500J0D01*
G01*
X3804040Y-3942330D02*
G75*
G02*
X3829040Y-3942330I12500J0D01*
G01*
X3848760Y-4456850D02*
G75*
G02*
X3823760Y-4456850I-12500J0D01*
G01*
X3823760Y-4456850D02*
G75*
G02*
X3848760Y-4456850I12500J0D01*
G01*
X3880770Y-1043910D02*
G75*
G02*
X3855770Y-1043910I-12500J0D01*
G01*
X3855770Y-1043910D02*
G75*
G02*
X3880770Y-1043910I12500J0D01*
G01*
X3882500Y-3370000D02*
G75*
G02*
X3857500Y-3370000I-12500J0D01*
G01*
X3857500Y-3370000D02*
G75*
G02*
X3882500Y-3370000I12500J0D01*
G01*
X3895140Y-3810970D02*
G75*
G02*
X3870140Y-3810970I-12500J0D01*
G01*
X3870140Y-3810970D02*
G75*
G02*
X3895140Y-3810970I12500J0D01*
G01*
X3935130Y-4610070D02*
G75*
G02*
X3910130Y-4610070I-12500J0D01*
G01*
X3910130Y-4610070D02*
G75*
G02*
X3935130Y-4610070I12500J0D01*
G01*
X3967830Y-1798190D02*
G75*
G02*
X3942830Y-1798190I-12500J0D01*
G01*
X3942830Y-1798190D02*
G75*
G02*
X3967830Y-1798190I12500J0D01*
G01*
X3989120Y-3796250D02*
G75*
G02*
X3964120Y-3796250I-12500J0D01*
G01*
X3964120Y-3796250D02*
G75*
G02*
X3989120Y-3796250I12500J0D01*
G01*
X4083130Y-3748350D02*
G75*
G02*
X4058130Y-3748350I-12500J0D01*
G01*
X4058130Y-3748350D02*
G75*
G02*
X4083130Y-3748350I12500J0D01*
G01*
X4091360Y-5086810D02*
G75*
G02*
X4066360Y-5086810I-12500J0D01*
G01*
X4066360Y-5086810D02*
G75*
G02*
X4091360Y-5086810I12500J0D01*
G01*
X4132500Y-3370000D02*
G75*
G02*
X4107500Y-3370000I-12500J0D01*
G01*
X4107500Y-3370000D02*
G75*
G02*
X4132500Y-3370000I12500J0D01*
G01*
X4132500Y-3620000D02*
G75*
G02*
X4107500Y-3620000I-12500J0D01*
G01*
X4107500Y-3620000D02*
G75*
G02*
X4132500Y-3620000I12500J0D01*
G01*
X4171780Y-4390180D02*
G75*
G02*
X4146780Y-4390180I-12500J0D01*
G01*
X4146780Y-4390180D02*
G75*
G02*
X4171780Y-4390180I12500J0D01*
G01*
X4187500Y-2378600D02*
G75*
G02*
X4162500Y-2378600I-12500J0D01*
G01*
X4162500Y-2378600D02*
G75*
G02*
X4187500Y-2378600I12500J0D01*
G01*
X4217340Y-1029960D02*
G75*
G02*
X4192340Y-1029960I-12500J0D01*
G01*
X4192340Y-1029960D02*
G75*
G02*
X4217340Y-1029960I12500J0D01*
G01*
X4224550Y-864190D02*
G75*
G02*
X4199550Y-864190I-12500J0D01*
G01*
X4199550Y-864190D02*
G75*
G02*
X4224550Y-864190I12500J0D01*
G01*
X4228490Y-4426810D02*
G75*
G02*
X4203490Y-4426810I-12500J0D01*
G01*
X4203490Y-4426810D02*
G75*
G02*
X4228490Y-4426810I12500J0D01*
G01*
X4237500Y-2767300D02*
G75*
G02*
X4212500Y-2767300I-12500J0D01*
G01*
X4212500Y-2767300D02*
G75*
G02*
X4237500Y-2767300I12500J0D01*
G01*
X4255000Y-4748790D02*
G75*
G02*
X4230000Y-4748790I-12500J0D01*
G01*
X4230000Y-4748790D02*
G75*
G02*
X4255000Y-4748790I12500J0D01*
G01*
X4263600Y-1280320D02*
G75*
G02*
X4238600Y-1280320I-12500J0D01*
G01*
X4238600Y-1280320D02*
G75*
G02*
X4263600Y-1280320I12500J0D01*
G01*
X4353270Y-4423540D02*
G75*
G02*
X4328270Y-4423540I-12500J0D01*
G01*
X4328270Y-4423540D02*
G75*
G02*
X4353270Y-4423540I12500J0D01*
G01*
X4382500Y-3620000D02*
G75*
G02*
X4357500Y-3620000I-12500J0D01*
G01*
X4357500Y-3620000D02*
G75*
G02*
X4382500Y-3620000I12500J0D01*
G01*
X4382500Y-5120000D02*
G75*
G02*
X4357500Y-5120000I-12500J0D01*
G01*
X4357500Y-5120000D02*
G75*
G02*
X4382500Y-5120000I12500J0D01*
G01*
X4422950Y-4923270D02*
G75*
G02*
X4397950Y-4923270I-12500J0D01*
G01*
X4397950Y-4923270D02*
G75*
G02*
X4422950Y-4923270I12500J0D01*
G01*
X4459830Y-4067380D02*
G75*
G02*
X4434830Y-4067380I-12500J0D01*
G01*
X4434830Y-4067380D02*
G75*
G02*
X4459830Y-4067380I12500J0D01*
G01*
X4481360Y-2127780D02*
G75*
G02*
X4456360Y-2127780I-12500J0D01*
G01*
X4456360Y-2127780D02*
G75*
G02*
X4481360Y-2127780I12500J0D01*
G01*
X4545050Y-3807530D02*
G75*
G02*
X4520050Y-3807530I-12500J0D01*
G01*
X4520050Y-3807530D02*
G75*
G02*
X4545050Y-3807530I12500J0D01*
G01*
X4552670Y-2352920D02*
G75*
G02*
X4527670Y-2352920I-12500J0D01*
G01*
X4527670Y-2352920D02*
G75*
G02*
X4552670Y-2352920I12500J0D01*
G01*
X4579520Y-4862150D02*
G75*
G02*
X4554520Y-4862150I-12500J0D01*
G01*
X4554520Y-4862150D02*
G75*
G02*
X4579520Y-4862150I12500J0D01*
G01*
X4580130Y-4418809D02*
G75*
G02*
X4555130Y-4418809I-12500J0D01*
G01*
X4555130Y-4418809D02*
G75*
G02*
X4580130Y-4418809I12500J0D01*
G01*
X4640130Y-4624470D02*
G75*
G02*
X4615130Y-4624470I-12500J0D01*
G01*
X4615130Y-4624470D02*
G75*
G02*
X4640130Y-4624470I12500J0D01*
G01*
X4648920Y-1701370D02*
G75*
G02*
X4623920Y-1701370I-12500J0D01*
G01*
X4623920Y-1701370D02*
G75*
G02*
X4648920Y-1701370I12500J0D01*
G01*
X4745650Y-4263060D02*
G75*
G02*
X4720650Y-4263060I-12500J0D01*
G01*
X4720650Y-4263060D02*
G75*
G02*
X4745650Y-4263060I12500J0D01*
G01*
X4746650Y-4627590D02*
G75*
G02*
X4721650Y-4627590I-12500J0D01*
G01*
X4721650Y-4627590D02*
G75*
G02*
X4746650Y-4627590I12500J0D01*
G01*
X4828530Y-4480980D02*
G75*
G02*
X4803530Y-4480980I-12500J0D01*
G01*
X4803530Y-4480980D02*
G75*
G02*
X4828530Y-4480980I12500J0D01*
G01*
X4882500Y-5120000D02*
G75*
G02*
X4857500Y-5120000I-12500J0D01*
G01*
X4857500Y-5120000D02*
G75*
G02*
X4882500Y-5120000I12500J0D01*
G01*
X4921100Y-4256430D02*
G75*
G02*
X4896100Y-4256430I-12500J0D01*
G01*
X4896100Y-4256430D02*
G75*
G02*
X4921100Y-4256430I12500J0D01*
G01*
X4926560Y-4653630D02*
G75*
G02*
X4901560Y-4653630I-12500J0D01*
G01*
X4901560Y-4653630D02*
G75*
G02*
X4926560Y-4653630I12500J0D01*
G01*
X4951600Y-1170350D02*
G75*
G02*
X4926600Y-1170350I-12500J0D01*
G01*
X4926600Y-1170350D02*
G75*
G02*
X4951600Y-1170350I12500J0D01*
G01*
X4962870Y-2576740D02*
G75*
G02*
X4937870Y-2576740I-12500J0D01*
G01*
X4937870Y-2576740D02*
G75*
G02*
X4962870Y-2576740I12500J0D01*
G01*
X5007660Y-4580470D02*
G75*
G02*
X4982660Y-4580470I-12500J0D01*
G01*
X4982660Y-4580470D02*
G75*
G02*
X5007660Y-4580470I12500J0D01*
G01*
X5087377Y-1034169D02*
G75*
G02*
X5062377Y-1034169I-12500J0D01*
G01*
X5062377Y-1034169D02*
G75*
G02*
X5087377Y-1034169I12500J0D01*
G01*
X5092250Y-1780950D02*
G75*
G02*
X5067250Y-1780950I-12500J0D01*
G01*
X5067250Y-1780950D02*
G75*
G02*
X5092250Y-1780950I12500J0D01*
G01*
X5228270Y-1297341D02*
G75*
G02*
X5203270Y-1297341I-12500J0D01*
G01*
X5203270Y-1297341D02*
G75*
G02*
X5228270Y-1297341I12500J0D01*
G01*
X5235940Y-1419640D02*
G75*
G02*
X5210940Y-1419640I-12500J0D01*
G01*
X5210940Y-1419640D02*
G75*
G02*
X5235940Y-1419640I12500J0D01*
G01*
X5254900Y-1591070D02*
G75*
G02*
X5229900Y-1591070I-12500J0D01*
G01*
X5229900Y-1591070D02*
G75*
G02*
X5254900Y-1591070I12500J0D01*
G01*
X5258890Y-2021560D02*
G75*
G02*
X5233890Y-2021560I-12500J0D01*
G01*
X5233890Y-2021560D02*
G75*
G02*
X5258890Y-2021560I12500J0D01*
G01*
X5282420Y-1865540D02*
G75*
G02*
X5257420Y-1865540I-12500J0D01*
G01*
X5257420Y-1865540D02*
G75*
G02*
X5282420Y-1865540I12500J0D01*
G01*
X5293220Y-1108990D02*
G75*
G02*
X5268220Y-1108990I-12500J0D01*
G01*
X5268220Y-1108990D02*
G75*
G02*
X5293220Y-1108990I12500J0D01*
G01*
X5308880Y-1029740D02*
G75*
G02*
X5283880Y-1029740I-12500J0D01*
G01*
X5283880Y-1029740D02*
G75*
G02*
X5308880Y-1029740I12500J0D01*
G01*
X5382500Y-2870000D02*
G75*
G02*
X5357500Y-2870000I-12500J0D01*
G01*
X5357500Y-2870000D02*
G75*
G02*
X5382500Y-2870000I12500J0D01*
G01*
X5382500Y-3370000D02*
G75*
G02*
X5357500Y-3370000I-12500J0D01*
G01*
X5357500Y-3370000D02*
G75*
G02*
X5382500Y-3370000I12500J0D01*
G01*
X5382500Y-3620000D02*
G75*
G02*
X5357500Y-3620000I-12500J0D01*
G01*
X5357500Y-3620000D02*
G75*
G02*
X5382500Y-3620000I12500J0D01*
G01*
X5382500Y-5120000D02*
G75*
G02*
X5357500Y-5120000I-12500J0D01*
G01*
X5357500Y-5120000D02*
G75*
G02*
X5382500Y-5120000I12500J0D01*
G01*
X5438700Y-4850100D02*
G75*
G02*
X5413700Y-4850100I-12500J0D01*
G01*
X5413700Y-4850100D02*
G75*
G02*
X5438700Y-4850100I12500J0D01*
G01*
X5501940Y-4548120D02*
G75*
G02*
X5476940Y-4548120I-12500J0D01*
G01*
X5476940Y-4548120D02*
G75*
G02*
X5501940Y-4548120I12500J0D01*
G01*
X5552460Y-1574500D02*
G75*
G02*
X5527460Y-1574500I-12500J0D01*
G01*
X5527460Y-1574500D02*
G75*
G02*
X5552460Y-1574500I12500J0D01*
G01*
X5632500Y-1120000D02*
G75*
G02*
X5607500Y-1120000I-12500J0D01*
G01*
X5607500Y-1120000D02*
G75*
G02*
X5632500Y-1120000I12500J0D01*
G01*
X5632500Y-2870000D02*
G75*
G02*
X5607500Y-2870000I-12500J0D01*
G01*
X5607500Y-2870000D02*
G75*
G02*
X5632500Y-2870000I12500J0D01*
G01*
X5632500Y-3370000D02*
G75*
G02*
X5607500Y-3370000I-12500J0D01*
G01*
X5607500Y-3370000D02*
G75*
G02*
X5632500Y-3370000I12500J0D01*
G01*
X5632500Y-3620000D02*
G75*
G02*
X5607500Y-3620000I-12500J0D01*
G01*
X5607500Y-3620000D02*
G75*
G02*
X5632500Y-3620000I12500J0D01*
G01*
X5632500Y-3870000D02*
G75*
G02*
X5607500Y-3870000I-12500J0D01*
G01*
X5607500Y-3870000D02*
G75*
G02*
X5632500Y-3870000I12500J0D01*
G01*
X5632500Y-4120000D02*
G75*
G02*
X5607500Y-4120000I-12500J0D01*
G01*
X5607500Y-4120000D02*
G75*
G02*
X5632500Y-4120000I12500J0D01*
G01*
X5648070Y-2017300D02*
G75*
G02*
X5623070Y-2017300I-12500J0D01*
G01*
X5623070Y-2017300D02*
G75*
G02*
X5648070Y-2017300I12500J0D01*
G01*
X5648180Y-1816400D02*
G75*
G02*
X5623180Y-1816400I-12500J0D01*
G01*
X5623180Y-1816400D02*
G75*
G02*
X5648180Y-1816400I12500J0D01*
G01*
X5713940Y-1591260D02*
G75*
G02*
X5688940Y-1591260I-12500J0D01*
G01*
X5688940Y-1591260D02*
G75*
G02*
X5713940Y-1591260I12500J0D01*
G01*
X5737110Y-4455780D02*
G75*
G02*
X5712110Y-4455780I-12500J0D01*
G01*
X5712110Y-4455780D02*
G75*
G02*
X5737110Y-4455780I12500J0D01*
G01*
X5822470Y-3151330D02*
G75*
G02*
X5797470Y-3151330I-12500J0D01*
G01*
X5797470Y-3151330D02*
G75*
G02*
X5822470Y-3151330I12500J0D01*
G01*
X5882500Y-1120000D02*
G75*
G02*
X5857500Y-1120000I-12500J0D01*
G01*
X5857500Y-1120000D02*
G75*
G02*
X5882500Y-1120000I12500J0D01*
G01*
X5882500Y-1620000D02*
G75*
G02*
X5857500Y-1620000I-12500J0D01*
G01*
X5857500Y-1620000D02*
G75*
G02*
X5882500Y-1620000I12500J0D01*
G01*
X5882500Y-3620000D02*
G75*
G02*
X5857500Y-3620000I-12500J0D01*
G01*
X5857500Y-3620000D02*
G75*
G02*
X5882500Y-3620000I12500J0D01*
G01*
X5882500Y-3870000D02*
G75*
G02*
X5857500Y-3870000I-12500J0D01*
G01*
X5857500Y-3870000D02*
G75*
G02*
X5882500Y-3870000I12500J0D01*
G01*
X5882500Y-5120000D02*
G75*
G02*
X5857500Y-5120000I-12500J0D01*
G01*
X5857500Y-5120000D02*
G75*
G02*
X5882500Y-5120000I12500J0D01*
G01*
X6019890Y-1278740D02*
G75*
G02*
X5994890Y-1278740I-12500J0D01*
G01*
X5994890Y-1278740D02*
G75*
G02*
X6019890Y-1278740I12500J0D01*
G01*
X6034270Y-4548750D02*
G75*
G02*
X6009270Y-4548750I-12500J0D01*
G01*
X6009270Y-4548750D02*
G75*
G02*
X6034270Y-4548750I12500J0D01*
G01*
X6132500Y-1120000D02*
G75*
G02*
X6107500Y-1120000I-12500J0D01*
G01*
X6107500Y-1120000D02*
G75*
G02*
X6132500Y-1120000I12500J0D01*
G01*
X6132500Y-5120000D02*
G75*
G02*
X6107500Y-5120000I-12500J0D01*
G01*
X6107500Y-5120000D02*
G75*
G02*
X6132500Y-5120000I12500J0D01*
G01*
X6149340Y-3368200D02*
G75*
G02*
X6124340Y-3368200I-12500J0D01*
G01*
X6124340Y-3368200D02*
G75*
G02*
X6149340Y-3368200I12500J0D01*
G01*
X6200020Y-2172560D02*
G75*
G02*
X6175020Y-2172560I-12500J0D01*
G01*
X6175020Y-2172560D02*
G75*
G02*
X6200020Y-2172560I12500J0D01*
G01*
X6382500Y-1120000D02*
G75*
G02*
X6357500Y-1120000I-12500J0D01*
G01*
X6357500Y-1120000D02*
G75*
G02*
X6382500Y-1120000I12500J0D01*
G01*
X6382500Y-2870000D02*
G75*
G02*
X6357500Y-2870000I-12500J0D01*
G01*
X6357500Y-2870000D02*
G75*
G02*
X6382500Y-2870000I12500J0D01*
G01*
X6382500Y-4120000D02*
G75*
G02*
X6357500Y-4120000I-12500J0D01*
G01*
X6357500Y-4120000D02*
G75*
G02*
X6382500Y-4120000I12500J0D01*
G01*
X6443060Y-2012100D02*
G75*
G02*
X6418060Y-2012100I-12500J0D01*
G01*
X6418060Y-2012100D02*
G75*
G02*
X6443060Y-2012100I12500J0D01*
G01*
X6574310Y-2293070D02*
G75*
G02*
X6549310Y-2293070I-12500J0D01*
G01*
X6549310Y-2293070D02*
G75*
G02*
X6574310Y-2293070I12500J0D01*
G01*
X6632500Y-1120000D02*
G75*
G02*
X6607500Y-1120000I-12500J0D01*
G01*
X6607500Y-1120000D02*
G75*
G02*
X6632500Y-1120000I12500J0D01*
G01*
X6632500Y-1370000D02*
G75*
G02*
X6607500Y-1370000I-12500J0D01*
G01*
X6607500Y-1370000D02*
G75*
G02*
X6632500Y-1370000I12500J0D01*
G01*
X6632500Y-2870000D02*
G75*
G02*
X6607500Y-2870000I-12500J0D01*
G01*
X6607500Y-2870000D02*
G75*
G02*
X6632500Y-2870000I12500J0D01*
G01*
X6686100Y-5040440D02*
G75*
G02*
X6661100Y-5040440I-12500J0D01*
G01*
X6661100Y-5040440D02*
G75*
G02*
X6686100Y-5040440I12500J0D01*
G01*
X6863380Y-2649800D02*
G75*
G02*
X6838380Y-2649800I-12500J0D01*
G01*
X6838380Y-2649800D02*
G75*
G02*
X6863380Y-2649800I12500J0D01*
G01*
X6863540Y-2106790D02*
G75*
G02*
X6838540Y-2106790I-12500J0D01*
G01*
X6838540Y-2106790D02*
G75*
G02*
X6863540Y-2106790I12500J0D01*
G01*
X6882500Y-5120000D02*
G75*
G02*
X6857500Y-5120000I-12500J0D01*
G01*
X6857500Y-5120000D02*
G75*
G02*
X6882500Y-5120000I12500J0D01*
G01*
X6928890Y-1098680D02*
G75*
G02*
X6903890Y-1098680I-12500J0D01*
G01*
X6903890Y-1098680D02*
G75*
G02*
X6928890Y-1098680I12500J0D01*
G01*
X6929140Y-4096490D02*
G75*
G02*
X6904140Y-4096490I-12500J0D01*
G01*
X6904140Y-4096490D02*
G75*
G02*
X6929140Y-4096490I12500J0D01*
G01*
X6962020Y-1837630D02*
G75*
G02*
X6937020Y-1837630I-12500J0D01*
G01*
X6937020Y-1837630D02*
G75*
G02*
X6962020Y-1837630I12500J0D01*
G01*
X6993320Y-787140D02*
G75*
G02*
X6968320Y-787140I-12500J0D01*
G01*
X6968320Y-787140D02*
G75*
G02*
X6993320Y-787140I12500J0D01*
G01*
X7004110Y-894360D02*
G75*
G02*
X6979110Y-894360I-12500J0D01*
G01*
X6979110Y-894360D02*
G75*
G02*
X7004110Y-894360I12500J0D01*
G01*
X7064000Y-2474790D02*
G75*
G02*
X7039000Y-2474790I-12500J0D01*
G01*
X7039000Y-2474790D02*
G75*
G02*
X7064000Y-2474790I12500J0D01*
G01*
X7132500Y-4120000D02*
G75*
G02*
X7107500Y-4120000I-12500J0D01*
G01*
X7107500Y-4120000D02*
G75*
G02*
X7132500Y-4120000I12500J0D01*
G01*
X7132500Y-4370000D02*
G75*
G02*
X7107500Y-4370000I-12500J0D01*
G01*
X7107500Y-4370000D02*
G75*
G02*
X7132500Y-4370000I12500J0D01*
G01*
X7132500Y-4620000D02*
G75*
G02*
X7107500Y-4620000I-12500J0D01*
G01*
X7107500Y-4620000D02*
G75*
G02*
X7132500Y-4620000I12500J0D01*
G01*
X7132500Y-4870000D02*
G75*
G02*
X7107500Y-4870000I-12500J0D01*
G01*
X7107500Y-4870000D02*
G75*
G02*
X7132500Y-4870000I12500J0D01*
G01*
X7132500Y-5120000D02*
G75*
G02*
X7107500Y-5120000I-12500J0D01*
G01*
X7107500Y-5120000D02*
G75*
G02*
X7132500Y-5120000I12500J0D01*
G01*
X7146570Y-3059300D02*
G75*
G02*
X7121570Y-3059300I-12500J0D01*
G01*
X7121570Y-3059300D02*
G75*
G02*
X7146570Y-3059300I12500J0D01*
G01*
X7268090Y-3018140D02*
G75*
G02*
X7243090Y-3018140I-12500J0D01*
G01*
X7243090Y-3018140D02*
G75*
G02*
X7268090Y-3018140I12500J0D01*
G01*
X7329900Y-1298260D02*
G75*
G02*
X7304900Y-1298260I-12500J0D01*
G01*
X7304900Y-1298260D02*
G75*
G02*
X7329900Y-1298260I12500J0D01*
G01*
X7376800Y-4054960D02*
G75*
G02*
X7351800Y-4054960I-12500J0D01*
G01*
X7351800Y-4054960D02*
G75*
G02*
X7376800Y-4054960I12500J0D01*
G01*
X7382500Y-4370000D02*
G75*
G02*
X7357500Y-4370000I-12500J0D01*
G01*
X7357500Y-4370000D02*
G75*
G02*
X7382500Y-4370000I12500J0D01*
G01*
X7382500Y-5120000D02*
G75*
G02*
X7357500Y-5120000I-12500J0D01*
G01*
X7357500Y-5120000D02*
G75*
G02*
X7382500Y-5120000I12500J0D01*
G01*
X7415220Y-1344890D02*
G75*
G02*
X7390220Y-1344890I-12500J0D01*
G01*
X7390220Y-1344890D02*
G75*
G02*
X7415220Y-1344890I12500J0D01*
G01*
X7560880Y-3390040D02*
G75*
G02*
X7535880Y-3390040I-12500J0D01*
G01*
X7535880Y-3390040D02*
G75*
G02*
X7560880Y-3390040I12500J0D01*
G01*
X7632500Y-870000D02*
G75*
G02*
X7607500Y-870000I-12500J0D01*
G01*
X7607500Y-870000D02*
G75*
G02*
X7632500Y-870000I12500J0D01*
G01*
X7632500Y-1120000D02*
G75*
G02*
X7607500Y-1120000I-12500J0D01*
G01*
X7607500Y-1120000D02*
G75*
G02*
X7632500Y-1120000I12500J0D01*
G01*
X7632500Y-1370000D02*
G75*
G02*
X7607500Y-1370000I-12500J0D01*
G01*
X7607500Y-1370000D02*
G75*
G02*
X7632500Y-1370000I12500J0D01*
G01*
X7632500Y-1620000D02*
G75*
G02*
X7607500Y-1620000I-12500J0D01*
G01*
X7607500Y-1620000D02*
G75*
G02*
X7632500Y-1620000I12500J0D01*
G01*
X7632500Y-1870000D02*
G75*
G02*
X7607500Y-1870000I-12500J0D01*
G01*
X7607500Y-1870000D02*
G75*
G02*
X7632500Y-1870000I12500J0D01*
G01*
X7632500Y-2120000D02*
G75*
G02*
X7607500Y-2120000I-12500J0D01*
G01*
X7607500Y-2120000D02*
G75*
G02*
X7632500Y-2120000I12500J0D01*
G01*
X7632500Y-2370000D02*
G75*
G02*
X7607500Y-2370000I-12500J0D01*
G01*
X7607500Y-2370000D02*
G75*
G02*
X7632500Y-2370000I12500J0D01*
G01*
X7632500Y-2620000D02*
G75*
G02*
X7607500Y-2620000I-12500J0D01*
G01*
X7607500Y-2620000D02*
G75*
G02*
X7632500Y-2620000I12500J0D01*
G01*
X7632500Y-2870000D02*
G75*
G02*
X7607500Y-2870000I-12500J0D01*
G01*
X7607500Y-2870000D02*
G75*
G02*
X7632500Y-2870000I12500J0D01*
G01*
X7632500Y-4370000D02*
G75*
G02*
X7607500Y-4370000I-12500J0D01*
G01*
X7607500Y-4370000D02*
G75*
G02*
X7632500Y-4370000I12500J0D01*
G01*
X7632500Y-5120000D02*
G75*
G02*
X7607500Y-5120000I-12500J0D01*
G01*
X7607500Y-5120000D02*
G75*
G02*
X7632500Y-5120000I12500J0D01*
G01*
X7882500Y-870000D02*
G75*
G02*
X7857500Y-870000I-12500J0D01*
G01*
X7857500Y-870000D02*
G75*
G02*
X7882500Y-870000I12500J0D01*
G01*
X7882500Y-1120000D02*
G75*
G02*
X7857500Y-1120000I-12500J0D01*
G01*
X7857500Y-1120000D02*
G75*
G02*
X7882500Y-1120000I12500J0D01*
G01*
X7882500Y-1370000D02*
G75*
G02*
X7857500Y-1370000I-12500J0D01*
G01*
X7857500Y-1370000D02*
G75*
G02*
X7882500Y-1370000I12500J0D01*
G01*
X7882500Y-1620000D02*
G75*
G02*
X7857500Y-1620000I-12500J0D01*
G01*
X7857500Y-1620000D02*
G75*
G02*
X7882500Y-1620000I12500J0D01*
G01*
X7882500Y-1870000D02*
G75*
G02*
X7857500Y-1870000I-12500J0D01*
G01*
X7857500Y-1870000D02*
G75*
G02*
X7882500Y-1870000I12500J0D01*
G01*
X7882500Y-2120000D02*
G75*
G02*
X7857500Y-2120000I-12500J0D01*
G01*
X7857500Y-2120000D02*
G75*
G02*
X7882500Y-2120000I12500J0D01*
G01*
X7882500Y-2370000D02*
G75*
G02*
X7857500Y-2370000I-12500J0D01*
G01*
X7857500Y-2370000D02*
G75*
G02*
X7882500Y-2370000I12500J0D01*
G01*
X7882500Y-2620000D02*
G75*
G02*
X7857500Y-2620000I-12500J0D01*
G01*
X7857500Y-2620000D02*
G75*
G02*
X7882500Y-2620000I12500J0D01*
G01*
X7882500Y-2870000D02*
G75*
G02*
X7857500Y-2870000I-12500J0D01*
G01*
X7857500Y-2870000D02*
G75*
G02*
X7882500Y-2870000I12500J0D01*
G01*
X7882500Y-3120000D02*
G75*
G02*
X7857500Y-3120000I-12500J0D01*
G01*
X7857500Y-3120000D02*
G75*
G02*
X7882500Y-3120000I12500J0D01*
G01*
X7882500Y-3370000D02*
G75*
G02*
X7857500Y-3370000I-12500J0D01*
G01*
X7857500Y-3370000D02*
G75*
G02*
X7882500Y-3370000I12500J0D01*
G01*
X7882500Y-3620000D02*
G75*
G02*
X7857500Y-3620000I-12500J0D01*
G01*
X7857500Y-3620000D02*
G75*
G02*
X7882500Y-3620000I12500J0D01*
G01*
X7882500Y-4370000D02*
G75*
G02*
X7857500Y-4370000I-12500J0D01*
G01*
X7857500Y-4370000D02*
G75*
G02*
X7882500Y-4370000I12500J0D01*
G01*
X7882500Y-4620000D02*
G75*
G02*
X7857500Y-4620000I-12500J0D01*
G01*
X7857500Y-4620000D02*
G75*
G02*
X7882500Y-4620000I12500J0D01*
G01*
X7882500Y-4870000D02*
G75*
G02*
X7857500Y-4870000I-12500J0D01*
G01*
X7857500Y-4870000D02*
G75*
G02*
X7882500Y-4870000I12500J0D01*
G01*
X7882500Y-5120000D02*
G75*
G02*
X7857500Y-5120000I-12500J0D01*
G01*
X7857500Y-5120000D02*
G75*
G02*
X7882500Y-5120000I12500J0D01*
G01*
X5568000Y-4689500D02*
X5568000Y-4749500D01*
X5538000Y-4719500D02*
X5598000Y-4719500D01*
X5538000Y-4664500D02*
X5538000Y-4774500D01*
X5598000Y-4774500D02*
G75*
G02*
X5538000Y-4774500I-30000J0D01*
G01*
X5598000Y-4774500D02*
X5598000Y-4664500D01*
X5598000Y-4664500D02*
G75*
G03*
X5538000Y-4664500I-30000J0D01*
G01*
X5568000Y-5107500D02*
X5568000Y-5167500D01*
X5538000Y-5137500D02*
X5598000Y-5137500D01*
X5538000Y-5107500D02*
X5538000Y-5167500D01*
X5598000Y-5167500D02*
G75*
G02*
X5538000Y-5167500I-30000J0D01*
G01*
X5598000Y-5167500D02*
X5598000Y-5107500D01*
X5598000Y-5107500D02*
G75*
G03*
X5538000Y-5107500I-30000J0D01*
G01*
X6432000Y-4689500D02*
X6432000Y-4749500D01*
X6402000Y-4719500D02*
X6462000Y-4719500D01*
X6402000Y-4664500D02*
X6402000Y-4774500D01*
X6462000Y-4774500D02*
G75*
G02*
X6402000Y-4774500I-30000J0D01*
G01*
X6462000Y-4774500D02*
X6462000Y-4664500D01*
X6462000Y-4664500D02*
G75*
G03*
X6402000Y-4664500I-30000J0D01*
G01*
X6432000Y-5107500D02*
X6432000Y-5167500D01*
X6402000Y-5137500D02*
X6462000Y-5137500D01*
X6402000Y-5107500D02*
X6402000Y-5167500D01*
X6462000Y-5167500D02*
G75*
G02*
X6402000Y-5167500I-30000J0D01*
G01*
X6462000Y-5167500D02*
X6462000Y-5107500D01*
X6462000Y-5107500D02*
G75*
G03*
X6402000Y-5107500I-30000J0D01*
G01*
X1235356Y-560356D02*
X1235356Y-489644D01*
X1164644Y-489644D01*
X1164644Y-560356D01*
X1235356Y-560356D01*
X1150000Y-575000D02*
X1250000Y-575000D01*
X1250000Y-475000D02*
G75*
G02*
X1250000Y-575000I0J-50000D01*
G01*
X1250000Y-475000D02*
X1150000Y-475000D01*
X1150000Y-475000D02*
G75*
G03*
X1150000Y-575000I0J-50000D01*
G01*
X1235356Y-1170356D02*
X1235356Y-1099644D01*
X1164644Y-1099644D01*
X1164644Y-1170356D01*
X1235356Y-1170356D01*
X1150000Y-1185000D02*
X1250000Y-1185000D01*
X1250000Y-1085000D02*
G75*
G02*
X1250000Y-1185000I0J-50000D01*
G01*
X1250000Y-1085000D02*
X1150000Y-1085000D01*
X1150000Y-1085000D02*
G75*
G03*
X1150000Y-1185000I0J-50000D01*
G01*
X1235356Y-1720356D02*
X1235356Y-1649644D01*
X1164644Y-1649644D01*
X1164644Y-1720356D01*
X1235356Y-1720356D01*
X1150000Y-1735000D02*
X1250000Y-1735000D01*
X1250000Y-1635000D02*
G75*
G02*
X1250000Y-1735000I0J-50000D01*
G01*
X1250000Y-1635000D02*
X1150000Y-1635000D01*
X1150000Y-1635000D02*
G75*
G03*
X1150000Y-1735000I0J-50000D01*
G01*
X1435356Y-800356D02*
X1435356Y-729644D01*
X1364644Y-729644D01*
X1364644Y-800356D01*
X1435356Y-800356D01*
X1350000Y-815000D02*
X1450000Y-815000D01*
X1450000Y-715000D02*
G75*
G02*
X1450000Y-815000I0J-50000D01*
G01*
X1450000Y-715000D02*
X1350000Y-715000D01*
X1350000Y-715000D02*
G75*
G03*
X1350000Y-815000I0J-50000D01*
G01*
X1435356Y-1350356D02*
X1435356Y-1279644D01*
X1364644Y-1279644D01*
X1364644Y-1350356D01*
X1435356Y-1350356D01*
X1350000Y-1365000D02*
X1450000Y-1365000D01*
X1450000Y-1265000D02*
G75*
G02*
X1450000Y-1365000I0J-50000D01*
G01*
X1450000Y-1265000D02*
X1350000Y-1265000D01*
X1350000Y-1265000D02*
G75*
G03*
X1350000Y-1365000I0J-50000D01*
G01*
X2335356Y-585356D02*
X2335356Y-514644D01*
X2264644Y-514644D01*
X2264644Y-585356D01*
X2335356Y-585356D01*
X2589356Y-585356D02*
X2589356Y-514644D01*
X2518644Y-514644D01*
X2518644Y-585356D01*
X2589356Y-585356D01*
X2843356Y-585356D02*
X2843356Y-514644D01*
X2772644Y-514644D01*
X2772644Y-585356D01*
X2843356Y-585356D01*
X3035356Y-3635356D02*
X3035356Y-3564644D01*
X2964644Y-3564644D01*
X2964644Y-3635356D01*
X3035356Y-3635356D01*
X3097356Y-585356D02*
X3097356Y-514644D01*
X3026644Y-514644D01*
X3026644Y-585356D01*
X3097356Y-585356D01*
X3289356Y-3635356D02*
X3289356Y-3564644D01*
X3218644Y-3564644D01*
X3218644Y-3635356D01*
X3289356Y-3635356D01*
X3543356Y-3635356D02*
X3543356Y-3564644D01*
X3472644Y-3564644D01*
X3472644Y-3635356D01*
X3543356Y-3635356D01*
X3797356Y-3635356D02*
X3797356Y-3564644D01*
X3726644Y-3564644D01*
X3726644Y-3635356D01*
X3797356Y-3635356D01*
X5235356Y-3355356D02*
X5235356Y-3284644D01*
X5164644Y-3284644D01*
X5164644Y-3355356D01*
X5235356Y-3355356D01*
X5235356Y-3605356D02*
X5235356Y-3534644D01*
X5164644Y-3534644D01*
X5164644Y-3605356D01*
X5235356Y-3605356D01*
X5235356Y-3855356D02*
X5235356Y-3784644D01*
X5164644Y-3784644D01*
X5164644Y-3855356D01*
X5235356Y-3855356D01*
X6685356Y-3355356D02*
X6685356Y-3284644D01*
X6614644Y-3284644D01*
X6614644Y-3355356D01*
X6685356Y-3355356D01*
X6685356Y-3855356D02*
X6685356Y-3784644D01*
X6614644Y-3784644D01*
X6614644Y-3855356D01*
X6685356Y-3855356D01*
D12*
X5950000Y-3085000D02*
X6025000Y-3010000D01*
X5950000Y-2935000D01*
X5875000Y-3010000D01*
X5950000Y-3085000D01*
D10*
X5885000Y-3085000D02*
X6015000Y-3085000D01*
X6015000Y-2935000D02*
G75*
G02*
X6015000Y-3085000I0J-75000D01*
G01*
X6015000Y-2935000D02*
X5885000Y-2935000D01*
X5885000Y-2935000D02*
G75*
G03*
X5885000Y-3085000I0J-75000D01*
G01*
D12*
X5950000Y-4205000D02*
X6025000Y-4130000D01*
X5950000Y-4055000D01*
X5875000Y-4130000D01*
X5950000Y-4205000D01*
D10*
X5885000Y-4205000D02*
X6015000Y-4205000D01*
X6015000Y-4055000D02*
G75*
G02*
X6015000Y-4205000I0J-75000D01*
G01*
X6015000Y-4055000D02*
X5885000Y-4055000D01*
X5885000Y-4055000D02*
G75*
G03*
X5885000Y-4205000I0J-75000D01*
G01*
X5678500Y-4737000D02*
X5743500Y-4802000D01*
X5743500Y-4737000D02*
X5678500Y-4802000D01*
X5743500Y-4769500D02*
G75*
G02*
X5678500Y-4769500I-32500J0D01*
G01*
X5678500Y-4769500D02*
G75*
G02*
X5743500Y-4769500I32500J0D01*
G01*
X6256500Y-4737000D02*
X6321500Y-4802000D01*
X6321500Y-4737000D02*
X6256500Y-4802000D01*
X6321500Y-4769500D02*
G75*
G02*
X6256500Y-4769500I-32500J0D01*
G01*
X6256500Y-4769500D02*
G75*
G02*
X6321500Y-4769500I32500J0D01*
G01*
X2205000Y-5038000D02*
X2295000Y-5128000D01*
X2295000Y-5038000D02*
X2205000Y-5128000D01*
X2250000Y-5038000D02*
X2250000Y-5128000D01*
X2205000Y-5083000D02*
X2295000Y-5083000D01*
X2505000Y-5038000D02*
X2595000Y-5128000D01*
X2595000Y-5038000D02*
X2505000Y-5128000D01*
X2550000Y-5038000D02*
X2550000Y-5128000D01*
X2505000Y-5083000D02*
X2595000Y-5083000D01*
D13*
X390000Y-390000D02*
X610000Y-610000D01*
X610000Y-390000D02*
X390000Y-610000D01*
X577783Y-577783D02*
X577783Y-422217D01*
X422217Y-422217D01*
X422217Y-577783D01*
X577783Y-577783D01*
X390000Y-4690000D02*
X610000Y-4910000D01*
X610000Y-4690000D02*
X390000Y-4910000D01*
X577783Y-4877783D02*
X577783Y-4722218D01*
X422217Y-4722218D01*
X422217Y-4877783D01*
X577783Y-4877783D01*
X7390000Y-390000D02*
X7610000Y-610000D01*
X7610000Y-390000D02*
X7390000Y-610000D01*
X7577782Y-577783D02*
X7577782Y-422217D01*
X7422217Y-422217D01*
X7422217Y-577783D01*
X7577782Y-577783D01*
X7390000Y-4690000D02*
X7610000Y-4910000D01*
X7610000Y-4690000D02*
X7390000Y-4910000D01*
X7577782Y-4877783D02*
X7577782Y-4722218D01*
X7422217Y-4722218D01*
X7422217Y-4877783D01*
X7577782Y-4877783D01*
D11*
X255777Y-5716484D02*
X255777Y-5516484D01*
X255777Y-5516484D02*
X303396Y-5516484D01*
X303396Y-5516484D02*
X331967Y-5526008D01*
X331967Y-5526008D02*
X351015Y-5545055D01*
X351015Y-5545055D02*
X360539Y-5564103D01*
X360539Y-5564103D02*
X370062Y-5602198D01*
X370062Y-5602198D02*
X370062Y-5630769D01*
X370062Y-5630769D02*
X360539Y-5668865D01*
X360539Y-5668865D02*
X351015Y-5687912D01*
X351015Y-5687912D02*
X331967Y-5706960D01*
X331967Y-5706960D02*
X303396Y-5716484D01*
X303396Y-5716484D02*
X255777Y-5716484D01*
X455777Y-5716484D02*
X455777Y-5583150D01*
X455777Y-5621246D02*
X465301Y-5602198D01*
X465301Y-5602198D02*
X474824Y-5592674D01*
X474824Y-5592674D02*
X493872Y-5583150D01*
X493872Y-5583150D02*
X512920Y-5583150D01*
X579586Y-5716484D02*
X579586Y-5583150D01*
X579586Y-5516484D02*
X570063Y-5526008D01*
X570063Y-5526008D02*
X579586Y-5535531D01*
X579586Y-5535531D02*
X589110Y-5526008D01*
X589110Y-5526008D02*
X579586Y-5516484D01*
X579586Y-5516484D02*
X579586Y-5535531D01*
X703396Y-5716484D02*
X684348Y-5706960D01*
X684348Y-5706960D02*
X674824Y-5687912D01*
X674824Y-5687912D02*
X674824Y-5516484D01*
X808158Y-5716484D02*
X789110Y-5706960D01*
X789110Y-5706960D02*
X779586Y-5687912D01*
X779586Y-5687912D02*
X779586Y-5516484D01*
X1036729Y-5716484D02*
X1036729Y-5516484D01*
X1036729Y-5516484D02*
X1103396Y-5659341D01*
X1103396Y-5659341D02*
X1170063Y-5516484D01*
X1170063Y-5516484D02*
X1170063Y-5716484D01*
X1351015Y-5716484D02*
X1351015Y-5611722D01*
X1351015Y-5611722D02*
X1341491Y-5592674D01*
X1341491Y-5592674D02*
X1322444Y-5583150D01*
X1322444Y-5583150D02*
X1284348Y-5583150D01*
X1284348Y-5583150D02*
X1265301Y-5592674D01*
X1351015Y-5706960D02*
X1331967Y-5716484D01*
X1331967Y-5716484D02*
X1284348Y-5716484D01*
X1284348Y-5716484D02*
X1265301Y-5706960D01*
X1265301Y-5706960D02*
X1255777Y-5687912D01*
X1255777Y-5687912D02*
X1255777Y-5668865D01*
X1255777Y-5668865D02*
X1265301Y-5649817D01*
X1265301Y-5649817D02*
X1284348Y-5640293D01*
X1284348Y-5640293D02*
X1331967Y-5640293D01*
X1331967Y-5640293D02*
X1351015Y-5630769D01*
X1446253Y-5583150D02*
X1446253Y-5783150D01*
X1446253Y-5592674D02*
X1465301Y-5583150D01*
X1465301Y-5583150D02*
X1503396Y-5583150D01*
X1503396Y-5583150D02*
X1522443Y-5592674D01*
X1522443Y-5592674D02*
X1531967Y-5602198D01*
X1531967Y-5602198D02*
X1541491Y-5621246D01*
X1541491Y-5621246D02*
X1541491Y-5678388D01*
X1541491Y-5678388D02*
X1531967Y-5697436D01*
X1531967Y-5697436D02*
X1522443Y-5706960D01*
X1522443Y-5706960D02*
X1503396Y-5716484D01*
X1503396Y-5716484D02*
X1465301Y-5716484D01*
X1465301Y-5716484D02*
X1446253Y-5706960D01*
X1627205Y-5697436D02*
X1636729Y-5706960D01*
X1636729Y-5706960D02*
X1627205Y-5716484D01*
X1627205Y-5716484D02*
X1617682Y-5706960D01*
X1617682Y-5706960D02*
X1627205Y-5697436D01*
X1627205Y-5697436D02*
X1627205Y-5716484D01*
X1627205Y-5592674D02*
X1636729Y-5602198D01*
X1636729Y-5602198D02*
X1627205Y-5611722D01*
X1627205Y-5611722D02*
X1617682Y-5602198D01*
X1617682Y-5602198D02*
X1627205Y-5592674D01*
X1627205Y-5592674D02*
X1627205Y-5611722D01*
D10*
X-25000Y-6035000D02*
X-5000Y-6055000D01*
X-5000Y-6035000D02*
X-25000Y-6055000D01*
D11*
X293872Y-5936484D02*
X312920Y-5936484D01*
X312920Y-5936484D02*
X331967Y-5946008D01*
X331967Y-5946008D02*
X341491Y-5955531D01*
X341491Y-5955531D02*
X351015Y-5974579D01*
X351015Y-5974579D02*
X360539Y-6012674D01*
X360539Y-6012674D02*
X360539Y-6060293D01*
X360539Y-6060293D02*
X351015Y-6098388D01*
X351015Y-6098388D02*
X341491Y-6117436D01*
X341491Y-6117436D02*
X331967Y-6126960D01*
X331967Y-6126960D02*
X312920Y-6136484D01*
X312920Y-6136484D02*
X293872Y-6136484D01*
X293872Y-6136484D02*
X274824Y-6126960D01*
X274824Y-6126960D02*
X265301Y-6117436D01*
X265301Y-6117436D02*
X255777Y-6098388D01*
X255777Y-6098388D02*
X246253Y-6060293D01*
X246253Y-6060293D02*
X246253Y-6012674D01*
X246253Y-6012674D02*
X255777Y-5974579D01*
X255777Y-5974579D02*
X265301Y-5955531D01*
X265301Y-5955531D02*
X274824Y-5946008D01*
X274824Y-5946008D02*
X293872Y-5936484D01*
X446253Y-6117436D02*
X455777Y-6126960D01*
X455777Y-6126960D02*
X446253Y-6136484D01*
X446253Y-6136484D02*
X436729Y-6126960D01*
X436729Y-6126960D02*
X446253Y-6117436D01*
X446253Y-6117436D02*
X446253Y-6136484D01*
X531967Y-5955531D02*
X541491Y-5946008D01*
X541491Y-5946008D02*
X560539Y-5936484D01*
X560539Y-5936484D02*
X608158Y-5936484D01*
X608158Y-5936484D02*
X627205Y-5946008D01*
X627205Y-5946008D02*
X636729Y-5955531D01*
X636729Y-5955531D02*
X646253Y-5974579D01*
X646253Y-5974579D02*
X646253Y-5993627D01*
X646253Y-5993627D02*
X636729Y-6022198D01*
X636729Y-6022198D02*
X522443Y-6136484D01*
X522443Y-6136484D02*
X646253Y-6136484D01*
X770062Y-5936484D02*
X789110Y-5936484D01*
X789110Y-5936484D02*
X808158Y-5946008D01*
X808158Y-5946008D02*
X817682Y-5955531D01*
X817682Y-5955531D02*
X827205Y-5974579D01*
X827205Y-5974579D02*
X836729Y-6012674D01*
X836729Y-6012674D02*
X836729Y-6060293D01*
X836729Y-6060293D02*
X827205Y-6098388D01*
X827205Y-6098388D02*
X817682Y-6117436D01*
X817682Y-6117436D02*
X808158Y-6126960D01*
X808158Y-6126960D02*
X789110Y-6136484D01*
X789110Y-6136484D02*
X770062Y-6136484D01*
X770062Y-6136484D02*
X751015Y-6126960D01*
X751015Y-6126960D02*
X741491Y-6117436D01*
X741491Y-6117436D02*
X731967Y-6098388D01*
X731967Y-6098388D02*
X722443Y-6060293D01*
X722443Y-6060293D02*
X722443Y-6012674D01*
X722443Y-6012674D02*
X731967Y-5974579D01*
X731967Y-5974579D02*
X741491Y-5955531D01*
X741491Y-5955531D02*
X751015Y-5946008D01*
X751015Y-5946008D02*
X770062Y-5936484D01*
X960539Y-5936484D02*
X979586Y-5936484D01*
X979586Y-5936484D02*
X998634Y-5946008D01*
X998634Y-5946008D02*
X1008158Y-5955531D01*
X1008158Y-5955531D02*
X1017682Y-5974579D01*
X1017682Y-5974579D02*
X1027205Y-6012674D01*
X1027205Y-6012674D02*
X1027205Y-6060293D01*
X1027205Y-6060293D02*
X1017682Y-6098388D01*
X1017682Y-6098388D02*
X1008158Y-6117436D01*
X1008158Y-6117436D02*
X998634Y-6126960D01*
X998634Y-6126960D02*
X979586Y-6136484D01*
X979586Y-6136484D02*
X960539Y-6136484D01*
X960539Y-6136484D02*
X941491Y-6126960D01*
X941491Y-6126960D02*
X931967Y-6117436D01*
X931967Y-6117436D02*
X922443Y-6098388D01*
X922443Y-6098388D02*
X912920Y-6060293D01*
X912920Y-6060293D02*
X912920Y-6012674D01*
X912920Y-6012674D02*
X922443Y-5974579D01*
X922443Y-5974579D02*
X931967Y-5955531D01*
X931967Y-5955531D02*
X941491Y-5946008D01*
X941491Y-5946008D02*
X960539Y-5936484D01*
X1112920Y-6136484D02*
X1112920Y-6003150D01*
X1112920Y-6022198D02*
X1122444Y-6012674D01*
X1122444Y-6012674D02*
X1141491Y-6003150D01*
X1141491Y-6003150D02*
X1170063Y-6003150D01*
X1170063Y-6003150D02*
X1189110Y-6012674D01*
X1189110Y-6012674D02*
X1198634Y-6031722D01*
X1198634Y-6031722D02*
X1198634Y-6136484D01*
X1198634Y-6031722D02*
X1208158Y-6012674D01*
X1208158Y-6012674D02*
X1227205Y-6003150D01*
X1227205Y-6003150D02*
X1255777Y-6003150D01*
X1255777Y-6003150D02*
X1274825Y-6012674D01*
X1274825Y-6012674D02*
X1284348Y-6031722D01*
X1284348Y-6031722D02*
X1284348Y-6136484D01*
X1379586Y-6136484D02*
X1379586Y-6003150D01*
X1379586Y-6022198D02*
X1389110Y-6012674D01*
X1389110Y-6012674D02*
X1408158Y-6003150D01*
X1408158Y-6003150D02*
X1436729Y-6003150D01*
X1436729Y-6003150D02*
X1455777Y-6012674D01*
X1455777Y-6012674D02*
X1465301Y-6031722D01*
X1465301Y-6031722D02*
X1465301Y-6136484D01*
X1465301Y-6031722D02*
X1474824Y-6012674D01*
X1474824Y-6012674D02*
X1493872Y-6003150D01*
X1493872Y-6003150D02*
X1522443Y-6003150D01*
X1522443Y-6003150D02*
X1541491Y-6012674D01*
X1541491Y-6012674D02*
X1551015Y-6031722D01*
X1551015Y-6031722D02*
X1551015Y-6136484D01*
X1941491Y-5926960D02*
X1770063Y-6184103D01*
X2198634Y-5936484D02*
X2217682Y-5936484D01*
X2217682Y-5936484D02*
X2236729Y-5946008D01*
X2236729Y-5946008D02*
X2246253Y-5955531D01*
X2246253Y-5955531D02*
X2255777Y-5974579D01*
X2255777Y-5974579D02*
X2265301Y-6012674D01*
X2265301Y-6012674D02*
X2265301Y-6060293D01*
X2265301Y-6060293D02*
X2255777Y-6098388D01*
X2255777Y-6098388D02*
X2246253Y-6117436D01*
X2246253Y-6117436D02*
X2236729Y-6126960D01*
X2236729Y-6126960D02*
X2217682Y-6136484D01*
X2217682Y-6136484D02*
X2198634Y-6136484D01*
X2198634Y-6136484D02*
X2179587Y-6126960D01*
X2179587Y-6126960D02*
X2170063Y-6117436D01*
X2170063Y-6117436D02*
X2160539Y-6098388D01*
X2160539Y-6098388D02*
X2151015Y-6060293D01*
X2151015Y-6060293D02*
X2151015Y-6012674D01*
X2151015Y-6012674D02*
X2160539Y-5974579D01*
X2160539Y-5974579D02*
X2170063Y-5955531D01*
X2170063Y-5955531D02*
X2179587Y-5946008D01*
X2179587Y-5946008D02*
X2198634Y-5936484D01*
X2351015Y-6117436D02*
X2360539Y-6126960D01*
X2360539Y-6126960D02*
X2351015Y-6136484D01*
X2351015Y-6136484D02*
X2341491Y-6126960D01*
X2341491Y-6126960D02*
X2351015Y-6117436D01*
X2351015Y-6117436D02*
X2351015Y-6136484D01*
X2484348Y-5936484D02*
X2503396Y-5936484D01*
X2503396Y-5936484D02*
X2522444Y-5946008D01*
X2522444Y-5946008D02*
X2531968Y-5955531D01*
X2531968Y-5955531D02*
X2541491Y-5974579D01*
X2541491Y-5974579D02*
X2551015Y-6012674D01*
X2551015Y-6012674D02*
X2551015Y-6060293D01*
X2551015Y-6060293D02*
X2541491Y-6098388D01*
X2541491Y-6098388D02*
X2531968Y-6117436D01*
X2531968Y-6117436D02*
X2522444Y-6126960D01*
X2522444Y-6126960D02*
X2503396Y-6136484D01*
X2503396Y-6136484D02*
X2484348Y-6136484D01*
X2484348Y-6136484D02*
X2465301Y-6126960D01*
X2465301Y-6126960D02*
X2455777Y-6117436D01*
X2455777Y-6117436D02*
X2446253Y-6098388D01*
X2446253Y-6098388D02*
X2436729Y-6060293D01*
X2436729Y-6060293D02*
X2436729Y-6012674D01*
X2436729Y-6012674D02*
X2446253Y-5974579D01*
X2446253Y-5974579D02*
X2455777Y-5955531D01*
X2455777Y-5955531D02*
X2465301Y-5946008D01*
X2465301Y-5946008D02*
X2484348Y-5936484D01*
X2674825Y-5936484D02*
X2693872Y-5936484D01*
X2693872Y-5936484D02*
X2712920Y-5946008D01*
X2712920Y-5946008D02*
X2722444Y-5955531D01*
X2722444Y-5955531D02*
X2731968Y-5974579D01*
X2731968Y-5974579D02*
X2741491Y-6012674D01*
X2741491Y-6012674D02*
X2741491Y-6060293D01*
X2741491Y-6060293D02*
X2731968Y-6098388D01*
X2731968Y-6098388D02*
X2722444Y-6117436D01*
X2722444Y-6117436D02*
X2712920Y-6126960D01*
X2712920Y-6126960D02*
X2693872Y-6136484D01*
X2693872Y-6136484D02*
X2674825Y-6136484D01*
X2674825Y-6136484D02*
X2655777Y-6126960D01*
X2655777Y-6126960D02*
X2646253Y-6117436D01*
X2646253Y-6117436D02*
X2636729Y-6098388D01*
X2636729Y-6098388D02*
X2627206Y-6060293D01*
X2627206Y-6060293D02*
X2627206Y-6012674D01*
X2627206Y-6012674D02*
X2636729Y-5974579D01*
X2636729Y-5974579D02*
X2646253Y-5955531D01*
X2646253Y-5955531D02*
X2655777Y-5946008D01*
X2655777Y-5946008D02*
X2674825Y-5936484D01*
X2808158Y-5936484D02*
X2941491Y-5936484D01*
X2941491Y-5936484D02*
X2855777Y-6136484D01*
X3027206Y-6136484D02*
X3065301Y-6136484D01*
X3065301Y-6136484D02*
X3084348Y-6126960D01*
X3084348Y-6126960D02*
X3093872Y-6117436D01*
X3093872Y-6117436D02*
X3112920Y-6088865D01*
X3112920Y-6088865D02*
X3122444Y-6050769D01*
X3122444Y-6050769D02*
X3122444Y-5974579D01*
X3122444Y-5974579D02*
X3112920Y-5955531D01*
X3112920Y-5955531D02*
X3103396Y-5946008D01*
X3103396Y-5946008D02*
X3084348Y-5936484D01*
X3084348Y-5936484D02*
X3046253Y-5936484D01*
X3046253Y-5936484D02*
X3027206Y-5946008D01*
X3027206Y-5946008D02*
X3017682Y-5955531D01*
X3017682Y-5955531D02*
X3008158Y-5974579D01*
X3008158Y-5974579D02*
X3008158Y-6022198D01*
X3008158Y-6022198D02*
X3017682Y-6041246D01*
X3017682Y-6041246D02*
X3027206Y-6050769D01*
X3027206Y-6050769D02*
X3046253Y-6060293D01*
X3046253Y-6060293D02*
X3084348Y-6060293D01*
X3084348Y-6060293D02*
X3103396Y-6050769D01*
X3103396Y-6050769D02*
X3112920Y-6041246D01*
X3112920Y-6041246D02*
X3122444Y-6022198D01*
X3198634Y-5936484D02*
X3198634Y-5974579D01*
X3274825Y-5936484D02*
X3274825Y-5974579D01*
X3570063Y-6212674D02*
X3560539Y-6203150D01*
X3560539Y-6203150D02*
X3541491Y-6174579D01*
X3541491Y-6174579D02*
X3531968Y-6155531D01*
X3531968Y-6155531D02*
X3522444Y-6126960D01*
X3522444Y-6126960D02*
X3512920Y-6079341D01*
X3512920Y-6079341D02*
X3512920Y-6041246D01*
X3512920Y-6041246D02*
X3522444Y-5993627D01*
X3522444Y-5993627D02*
X3531968Y-5965055D01*
X3531968Y-5965055D02*
X3541491Y-5946008D01*
X3541491Y-5946008D02*
X3560539Y-5917436D01*
X3560539Y-5917436D02*
X3570063Y-5907912D01*
X3751015Y-6136484D02*
X3636729Y-6136484D01*
X3693872Y-6136484D02*
X3693872Y-5936484D01*
X3693872Y-5936484D02*
X3674825Y-5965055D01*
X3674825Y-5965055D02*
X3655777Y-5984103D01*
X3655777Y-5984103D02*
X3636729Y-5993627D01*
X3817682Y-5936484D02*
X3951015Y-5936484D01*
X3951015Y-5936484D02*
X3865301Y-6136484D01*
X4179587Y-6136484D02*
X4179587Y-5936484D01*
X4265301Y-6136484D02*
X4265301Y-6031722D01*
X4265301Y-6031722D02*
X4255777Y-6012674D01*
X4255777Y-6012674D02*
X4236730Y-6003150D01*
X4236730Y-6003150D02*
X4208158Y-6003150D01*
X4208158Y-6003150D02*
X4189110Y-6012674D01*
X4189110Y-6012674D02*
X4179587Y-6022198D01*
X4389111Y-6136484D02*
X4370063Y-6126960D01*
X4370063Y-6126960D02*
X4360539Y-6117436D01*
X4360539Y-6117436D02*
X4351015Y-6098388D01*
X4351015Y-6098388D02*
X4351015Y-6041246D01*
X4351015Y-6041246D02*
X4360539Y-6022198D01*
X4360539Y-6022198D02*
X4370063Y-6012674D01*
X4370063Y-6012674D02*
X4389111Y-6003150D01*
X4389111Y-6003150D02*
X4417682Y-6003150D01*
X4417682Y-6003150D02*
X4436730Y-6012674D01*
X4436730Y-6012674D02*
X4446253Y-6022198D01*
X4446253Y-6022198D02*
X4455777Y-6041246D01*
X4455777Y-6041246D02*
X4455777Y-6098388D01*
X4455777Y-6098388D02*
X4446253Y-6117436D01*
X4446253Y-6117436D02*
X4436730Y-6126960D01*
X4436730Y-6126960D02*
X4417682Y-6136484D01*
X4417682Y-6136484D02*
X4389111Y-6136484D01*
X4570063Y-6136484D02*
X4551015Y-6126960D01*
X4551015Y-6126960D02*
X4541492Y-6107912D01*
X4541492Y-6107912D02*
X4541492Y-5936484D01*
X4722444Y-6126960D02*
X4703396Y-6136484D01*
X4703396Y-6136484D02*
X4665301Y-6136484D01*
X4665301Y-6136484D02*
X4646253Y-6126960D01*
X4646253Y-6126960D02*
X4636730Y-6107912D01*
X4636730Y-6107912D02*
X4636730Y-6031722D01*
X4636730Y-6031722D02*
X4646253Y-6012674D01*
X4646253Y-6012674D02*
X4665301Y-6003150D01*
X4665301Y-6003150D02*
X4703396Y-6003150D01*
X4703396Y-6003150D02*
X4722444Y-6012674D01*
X4722444Y-6012674D02*
X4731968Y-6031722D01*
X4731968Y-6031722D02*
X4731968Y-6050769D01*
X4731968Y-6050769D02*
X4636730Y-6069817D01*
X4808158Y-6126960D02*
X4827206Y-6136484D01*
X4827206Y-6136484D02*
X4865301Y-6136484D01*
X4865301Y-6136484D02*
X4884349Y-6126960D01*
X4884349Y-6126960D02*
X4893873Y-6107912D01*
X4893873Y-6107912D02*
X4893873Y-6098388D01*
X4893873Y-6098388D02*
X4884349Y-6079341D01*
X4884349Y-6079341D02*
X4865301Y-6069817D01*
X4865301Y-6069817D02*
X4836730Y-6069817D01*
X4836730Y-6069817D02*
X4817682Y-6060293D01*
X4817682Y-6060293D02*
X4808158Y-6041246D01*
X4808158Y-6041246D02*
X4808158Y-6031722D01*
X4808158Y-6031722D02*
X4817682Y-6012674D01*
X4817682Y-6012674D02*
X4836730Y-6003150D01*
X4836730Y-6003150D02*
X4865301Y-6003150D01*
X4865301Y-6003150D02*
X4884349Y-6012674D01*
X4960539Y-6212674D02*
X4970063Y-6203150D01*
X4970063Y-6203150D02*
X4989111Y-6174579D01*
X4989111Y-6174579D02*
X4998634Y-6155531D01*
X4998634Y-6155531D02*
X5008158Y-6126960D01*
X5008158Y-6126960D02*
X5017682Y-6079341D01*
X5017682Y-6079341D02*
X5017682Y-6041246D01*
X5017682Y-6041246D02*
X5008158Y-5993627D01*
X5008158Y-5993627D02*
X4998634Y-5965055D01*
X4998634Y-5965055D02*
X4989111Y-5946008D01*
X4989111Y-5946008D02*
X4970063Y-5917436D01*
X4970063Y-5917436D02*
X4960539Y-5907912D01*
D10*
X-5000Y-6309000D02*
G75*
G02*
X-30000Y-6309000I-12500J0D01*
G01*
X-30000Y-6309000D02*
G75*
G02*
X-5000Y-6309000I12500J0D01*
G01*
D11*
X293872Y-6200484D02*
X312920Y-6200484D01*
X312920Y-6200484D02*
X331967Y-6210008D01*
X331967Y-6210008D02*
X341491Y-6219531D01*
X341491Y-6219531D02*
X351015Y-6238579D01*
X351015Y-6238579D02*
X360539Y-6276674D01*
X360539Y-6276674D02*
X360539Y-6324293D01*
X360539Y-6324293D02*
X351015Y-6362388D01*
X351015Y-6362388D02*
X341491Y-6381436D01*
X341491Y-6381436D02*
X331967Y-6390960D01*
X331967Y-6390960D02*
X312920Y-6400484D01*
X312920Y-6400484D02*
X293872Y-6400484D01*
X293872Y-6400484D02*
X274824Y-6390960D01*
X274824Y-6390960D02*
X265301Y-6381436D01*
X265301Y-6381436D02*
X255777Y-6362388D01*
X255777Y-6362388D02*
X246253Y-6324293D01*
X246253Y-6324293D02*
X246253Y-6276674D01*
X246253Y-6276674D02*
X255777Y-6238579D01*
X255777Y-6238579D02*
X265301Y-6219531D01*
X265301Y-6219531D02*
X274824Y-6210008D01*
X274824Y-6210008D02*
X293872Y-6200484D01*
X446253Y-6381436D02*
X455777Y-6390960D01*
X455777Y-6390960D02*
X446253Y-6400484D01*
X446253Y-6400484D02*
X436729Y-6390960D01*
X436729Y-6390960D02*
X446253Y-6381436D01*
X446253Y-6381436D02*
X446253Y-6400484D01*
X531967Y-6219531D02*
X541491Y-6210008D01*
X541491Y-6210008D02*
X560539Y-6200484D01*
X560539Y-6200484D02*
X608158Y-6200484D01*
X608158Y-6200484D02*
X627205Y-6210008D01*
X627205Y-6210008D02*
X636729Y-6219531D01*
X636729Y-6219531D02*
X646253Y-6238579D01*
X646253Y-6238579D02*
X646253Y-6257627D01*
X646253Y-6257627D02*
X636729Y-6286198D01*
X636729Y-6286198D02*
X522443Y-6400484D01*
X522443Y-6400484D02*
X646253Y-6400484D01*
X827205Y-6200484D02*
X731967Y-6200484D01*
X731967Y-6200484D02*
X722443Y-6295722D01*
X722443Y-6295722D02*
X731967Y-6286198D01*
X731967Y-6286198D02*
X751015Y-6276674D01*
X751015Y-6276674D02*
X798634Y-6276674D01*
X798634Y-6276674D02*
X817682Y-6286198D01*
X817682Y-6286198D02*
X827205Y-6295722D01*
X827205Y-6295722D02*
X836729Y-6314769D01*
X836729Y-6314769D02*
X836729Y-6362388D01*
X836729Y-6362388D02*
X827205Y-6381436D01*
X827205Y-6381436D02*
X817682Y-6390960D01*
X817682Y-6390960D02*
X798634Y-6400484D01*
X798634Y-6400484D02*
X751015Y-6400484D01*
X751015Y-6400484D02*
X731967Y-6390960D01*
X731967Y-6390960D02*
X722443Y-6381436D01*
X960539Y-6200484D02*
X979586Y-6200484D01*
X979586Y-6200484D02*
X998634Y-6210008D01*
X998634Y-6210008D02*
X1008158Y-6219531D01*
X1008158Y-6219531D02*
X1017682Y-6238579D01*
X1017682Y-6238579D02*
X1027205Y-6276674D01*
X1027205Y-6276674D02*
X1027205Y-6324293D01*
X1027205Y-6324293D02*
X1017682Y-6362388D01*
X1017682Y-6362388D02*
X1008158Y-6381436D01*
X1008158Y-6381436D02*
X998634Y-6390960D01*
X998634Y-6390960D02*
X979586Y-6400484D01*
X979586Y-6400484D02*
X960539Y-6400484D01*
X960539Y-6400484D02*
X941491Y-6390960D01*
X941491Y-6390960D02*
X931967Y-6381436D01*
X931967Y-6381436D02*
X922443Y-6362388D01*
X922443Y-6362388D02*
X912920Y-6324293D01*
X912920Y-6324293D02*
X912920Y-6276674D01*
X912920Y-6276674D02*
X922443Y-6238579D01*
X922443Y-6238579D02*
X931967Y-6219531D01*
X931967Y-6219531D02*
X941491Y-6210008D01*
X941491Y-6210008D02*
X960539Y-6200484D01*
X1112920Y-6400484D02*
X1112920Y-6267150D01*
X1112920Y-6286198D02*
X1122444Y-6276674D01*
X1122444Y-6276674D02*
X1141491Y-6267150D01*
X1141491Y-6267150D02*
X1170063Y-6267150D01*
X1170063Y-6267150D02*
X1189110Y-6276674D01*
X1189110Y-6276674D02*
X1198634Y-6295722D01*
X1198634Y-6295722D02*
X1198634Y-6400484D01*
X1198634Y-6295722D02*
X1208158Y-6276674D01*
X1208158Y-6276674D02*
X1227205Y-6267150D01*
X1227205Y-6267150D02*
X1255777Y-6267150D01*
X1255777Y-6267150D02*
X1274825Y-6276674D01*
X1274825Y-6276674D02*
X1284348Y-6295722D01*
X1284348Y-6295722D02*
X1284348Y-6400484D01*
X1379586Y-6400484D02*
X1379586Y-6267150D01*
X1379586Y-6286198D02*
X1389110Y-6276674D01*
X1389110Y-6276674D02*
X1408158Y-6267150D01*
X1408158Y-6267150D02*
X1436729Y-6267150D01*
X1436729Y-6267150D02*
X1455777Y-6276674D01*
X1455777Y-6276674D02*
X1465301Y-6295722D01*
X1465301Y-6295722D02*
X1465301Y-6400484D01*
X1465301Y-6295722D02*
X1474824Y-6276674D01*
X1474824Y-6276674D02*
X1493872Y-6267150D01*
X1493872Y-6267150D02*
X1522443Y-6267150D01*
X1522443Y-6267150D02*
X1541491Y-6276674D01*
X1541491Y-6276674D02*
X1551015Y-6295722D01*
X1551015Y-6295722D02*
X1551015Y-6400484D01*
X1941491Y-6190960D02*
X1770063Y-6448103D01*
X2198634Y-6200484D02*
X2217682Y-6200484D01*
X2217682Y-6200484D02*
X2236729Y-6210008D01*
X2236729Y-6210008D02*
X2246253Y-6219531D01*
X2246253Y-6219531D02*
X2255777Y-6238579D01*
X2255777Y-6238579D02*
X2265301Y-6276674D01*
X2265301Y-6276674D02*
X2265301Y-6324293D01*
X2265301Y-6324293D02*
X2255777Y-6362388D01*
X2255777Y-6362388D02*
X2246253Y-6381436D01*
X2246253Y-6381436D02*
X2236729Y-6390960D01*
X2236729Y-6390960D02*
X2217682Y-6400484D01*
X2217682Y-6400484D02*
X2198634Y-6400484D01*
X2198634Y-6400484D02*
X2179587Y-6390960D01*
X2179587Y-6390960D02*
X2170063Y-6381436D01*
X2170063Y-6381436D02*
X2160539Y-6362388D01*
X2160539Y-6362388D02*
X2151015Y-6324293D01*
X2151015Y-6324293D02*
X2151015Y-6276674D01*
X2151015Y-6276674D02*
X2160539Y-6238579D01*
X2160539Y-6238579D02*
X2170063Y-6219531D01*
X2170063Y-6219531D02*
X2179587Y-6210008D01*
X2179587Y-6210008D02*
X2198634Y-6200484D01*
X2351015Y-6381436D02*
X2360539Y-6390960D01*
X2360539Y-6390960D02*
X2351015Y-6400484D01*
X2351015Y-6400484D02*
X2341491Y-6390960D01*
X2341491Y-6390960D02*
X2351015Y-6381436D01*
X2351015Y-6381436D02*
X2351015Y-6400484D01*
X2484348Y-6200484D02*
X2503396Y-6200484D01*
X2503396Y-6200484D02*
X2522444Y-6210008D01*
X2522444Y-6210008D02*
X2531968Y-6219531D01*
X2531968Y-6219531D02*
X2541491Y-6238579D01*
X2541491Y-6238579D02*
X2551015Y-6276674D01*
X2551015Y-6276674D02*
X2551015Y-6324293D01*
X2551015Y-6324293D02*
X2541491Y-6362388D01*
X2541491Y-6362388D02*
X2531968Y-6381436D01*
X2531968Y-6381436D02*
X2522444Y-6390960D01*
X2522444Y-6390960D02*
X2503396Y-6400484D01*
X2503396Y-6400484D02*
X2484348Y-6400484D01*
X2484348Y-6400484D02*
X2465301Y-6390960D01*
X2465301Y-6390960D02*
X2455777Y-6381436D01*
X2455777Y-6381436D02*
X2446253Y-6362388D01*
X2446253Y-6362388D02*
X2436729Y-6324293D01*
X2436729Y-6324293D02*
X2436729Y-6276674D01*
X2436729Y-6276674D02*
X2446253Y-6238579D01*
X2446253Y-6238579D02*
X2455777Y-6219531D01*
X2455777Y-6219531D02*
X2465301Y-6210008D01*
X2465301Y-6210008D02*
X2484348Y-6200484D01*
X2674825Y-6200484D02*
X2693872Y-6200484D01*
X2693872Y-6200484D02*
X2712920Y-6210008D01*
X2712920Y-6210008D02*
X2722444Y-6219531D01*
X2722444Y-6219531D02*
X2731968Y-6238579D01*
X2731968Y-6238579D02*
X2741491Y-6276674D01*
X2741491Y-6276674D02*
X2741491Y-6324293D01*
X2741491Y-6324293D02*
X2731968Y-6362388D01*
X2731968Y-6362388D02*
X2722444Y-6381436D01*
X2722444Y-6381436D02*
X2712920Y-6390960D01*
X2712920Y-6390960D02*
X2693872Y-6400484D01*
X2693872Y-6400484D02*
X2674825Y-6400484D01*
X2674825Y-6400484D02*
X2655777Y-6390960D01*
X2655777Y-6390960D02*
X2646253Y-6381436D01*
X2646253Y-6381436D02*
X2636729Y-6362388D01*
X2636729Y-6362388D02*
X2627206Y-6324293D01*
X2627206Y-6324293D02*
X2627206Y-6276674D01*
X2627206Y-6276674D02*
X2636729Y-6238579D01*
X2636729Y-6238579D02*
X2646253Y-6219531D01*
X2646253Y-6219531D02*
X2655777Y-6210008D01*
X2655777Y-6210008D02*
X2674825Y-6200484D01*
X2836729Y-6400484D02*
X2874825Y-6400484D01*
X2874825Y-6400484D02*
X2893872Y-6390960D01*
X2893872Y-6390960D02*
X2903396Y-6381436D01*
X2903396Y-6381436D02*
X2922444Y-6352865D01*
X2922444Y-6352865D02*
X2931967Y-6314769D01*
X2931967Y-6314769D02*
X2931967Y-6238579D01*
X2931967Y-6238579D02*
X2922444Y-6219531D01*
X2922444Y-6219531D02*
X2912920Y-6210008D01*
X2912920Y-6210008D02*
X2893872Y-6200484D01*
X2893872Y-6200484D02*
X2855777Y-6200484D01*
X2855777Y-6200484D02*
X2836729Y-6210008D01*
X2836729Y-6210008D02*
X2827206Y-6219531D01*
X2827206Y-6219531D02*
X2817682Y-6238579D01*
X2817682Y-6238579D02*
X2817682Y-6286198D01*
X2817682Y-6286198D02*
X2827206Y-6305246D01*
X2827206Y-6305246D02*
X2836729Y-6314769D01*
X2836729Y-6314769D02*
X2855777Y-6324293D01*
X2855777Y-6324293D02*
X2893872Y-6324293D01*
X2893872Y-6324293D02*
X2912920Y-6314769D01*
X2912920Y-6314769D02*
X2922444Y-6305246D01*
X2922444Y-6305246D02*
X2931967Y-6286198D01*
X3046253Y-6286198D02*
X3027206Y-6276674D01*
X3027206Y-6276674D02*
X3017682Y-6267150D01*
X3017682Y-6267150D02*
X3008158Y-6248103D01*
X3008158Y-6248103D02*
X3008158Y-6238579D01*
X3008158Y-6238579D02*
X3017682Y-6219531D01*
X3017682Y-6219531D02*
X3027206Y-6210008D01*
X3027206Y-6210008D02*
X3046253Y-6200484D01*
X3046253Y-6200484D02*
X3084348Y-6200484D01*
X3084348Y-6200484D02*
X3103396Y-6210008D01*
X3103396Y-6210008D02*
X3112920Y-6219531D01*
X3112920Y-6219531D02*
X3122444Y-6238579D01*
X3122444Y-6238579D02*
X3122444Y-6248103D01*
X3122444Y-6248103D02*
X3112920Y-6267150D01*
X3112920Y-6267150D02*
X3103396Y-6276674D01*
X3103396Y-6276674D02*
X3084348Y-6286198D01*
X3084348Y-6286198D02*
X3046253Y-6286198D01*
X3046253Y-6286198D02*
X3027206Y-6295722D01*
X3027206Y-6295722D02*
X3017682Y-6305246D01*
X3017682Y-6305246D02*
X3008158Y-6324293D01*
X3008158Y-6324293D02*
X3008158Y-6362388D01*
X3008158Y-6362388D02*
X3017682Y-6381436D01*
X3017682Y-6381436D02*
X3027206Y-6390960D01*
X3027206Y-6390960D02*
X3046253Y-6400484D01*
X3046253Y-6400484D02*
X3084348Y-6400484D01*
X3084348Y-6400484D02*
X3103396Y-6390960D01*
X3103396Y-6390960D02*
X3112920Y-6381436D01*
X3112920Y-6381436D02*
X3122444Y-6362388D01*
X3122444Y-6362388D02*
X3122444Y-6324293D01*
X3122444Y-6324293D02*
X3112920Y-6305246D01*
X3112920Y-6305246D02*
X3103396Y-6295722D01*
X3103396Y-6295722D02*
X3084348Y-6286198D01*
X3198634Y-6200484D02*
X3198634Y-6238579D01*
X3274825Y-6200484D02*
X3274825Y-6238579D01*
X3570063Y-6476674D02*
X3560539Y-6467150D01*
X3560539Y-6467150D02*
X3541491Y-6438579D01*
X3541491Y-6438579D02*
X3531968Y-6419531D01*
X3531968Y-6419531D02*
X3522444Y-6390960D01*
X3522444Y-6390960D02*
X3512920Y-6343341D01*
X3512920Y-6343341D02*
X3512920Y-6305246D01*
X3512920Y-6305246D02*
X3522444Y-6257627D01*
X3522444Y-6257627D02*
X3531968Y-6229055D01*
X3531968Y-6229055D02*
X3541491Y-6210008D01*
X3541491Y-6210008D02*
X3560539Y-6181436D01*
X3560539Y-6181436D02*
X3570063Y-6171912D01*
X3627206Y-6200484D02*
X3751015Y-6200484D01*
X3751015Y-6200484D02*
X3684348Y-6276674D01*
X3684348Y-6276674D02*
X3712920Y-6276674D01*
X3712920Y-6276674D02*
X3731968Y-6286198D01*
X3731968Y-6286198D02*
X3741491Y-6295722D01*
X3741491Y-6295722D02*
X3751015Y-6314769D01*
X3751015Y-6314769D02*
X3751015Y-6362388D01*
X3751015Y-6362388D02*
X3741491Y-6381436D01*
X3741491Y-6381436D02*
X3731968Y-6390960D01*
X3731968Y-6390960D02*
X3712920Y-6400484D01*
X3712920Y-6400484D02*
X3655777Y-6400484D01*
X3655777Y-6400484D02*
X3636729Y-6390960D01*
X3636729Y-6390960D02*
X3627206Y-6381436D01*
X3874825Y-6200484D02*
X3893872Y-6200484D01*
X3893872Y-6200484D02*
X3912920Y-6210008D01*
X3912920Y-6210008D02*
X3922444Y-6219531D01*
X3922444Y-6219531D02*
X3931968Y-6238579D01*
X3931968Y-6238579D02*
X3941491Y-6276674D01*
X3941491Y-6276674D02*
X3941491Y-6324293D01*
X3941491Y-6324293D02*
X3931968Y-6362388D01*
X3931968Y-6362388D02*
X3922444Y-6381436D01*
X3922444Y-6381436D02*
X3912920Y-6390960D01*
X3912920Y-6390960D02*
X3893872Y-6400484D01*
X3893872Y-6400484D02*
X3874825Y-6400484D01*
X3874825Y-6400484D02*
X3855777Y-6390960D01*
X3855777Y-6390960D02*
X3846253Y-6381436D01*
X3846253Y-6381436D02*
X3836729Y-6362388D01*
X3836729Y-6362388D02*
X3827206Y-6324293D01*
X3827206Y-6324293D02*
X3827206Y-6276674D01*
X3827206Y-6276674D02*
X3836729Y-6238579D01*
X3836729Y-6238579D02*
X3846253Y-6219531D01*
X3846253Y-6219531D02*
X3855777Y-6210008D01*
X3855777Y-6210008D02*
X3874825Y-6200484D01*
X4112920Y-6267150D02*
X4112920Y-6400484D01*
X4065301Y-6190960D02*
X4017682Y-6333817D01*
X4017682Y-6333817D02*
X4141491Y-6333817D01*
X4370063Y-6400484D02*
X4370063Y-6200484D01*
X4455777Y-6400484D02*
X4455777Y-6295722D01*
X4455777Y-6295722D02*
X4446253Y-6276674D01*
X4446253Y-6276674D02*
X4427206Y-6267150D01*
X4427206Y-6267150D02*
X4398634Y-6267150D01*
X4398634Y-6267150D02*
X4379587Y-6276674D01*
X4379587Y-6276674D02*
X4370063Y-6286198D01*
X4579587Y-6400484D02*
X4560539Y-6390960D01*
X4560539Y-6390960D02*
X4551015Y-6381436D01*
X4551015Y-6381436D02*
X4541492Y-6362388D01*
X4541492Y-6362388D02*
X4541492Y-6305246D01*
X4541492Y-6305246D02*
X4551015Y-6286198D01*
X4551015Y-6286198D02*
X4560539Y-6276674D01*
X4560539Y-6276674D02*
X4579587Y-6267150D01*
X4579587Y-6267150D02*
X4608158Y-6267150D01*
X4608158Y-6267150D02*
X4627206Y-6276674D01*
X4627206Y-6276674D02*
X4636730Y-6286198D01*
X4636730Y-6286198D02*
X4646253Y-6305246D01*
X4646253Y-6305246D02*
X4646253Y-6362388D01*
X4646253Y-6362388D02*
X4636730Y-6381436D01*
X4636730Y-6381436D02*
X4627206Y-6390960D01*
X4627206Y-6390960D02*
X4608158Y-6400484D01*
X4608158Y-6400484D02*
X4579587Y-6400484D01*
X4760539Y-6400484D02*
X4741492Y-6390960D01*
X4741492Y-6390960D02*
X4731968Y-6371912D01*
X4731968Y-6371912D02*
X4731968Y-6200484D01*
X4912920Y-6390960D02*
X4893873Y-6400484D01*
X4893873Y-6400484D02*
X4855777Y-6400484D01*
X4855777Y-6400484D02*
X4836730Y-6390960D01*
X4836730Y-6390960D02*
X4827206Y-6371912D01*
X4827206Y-6371912D02*
X4827206Y-6295722D01*
X4827206Y-6295722D02*
X4836730Y-6276674D01*
X4836730Y-6276674D02*
X4855777Y-6267150D01*
X4855777Y-6267150D02*
X4893873Y-6267150D01*
X4893873Y-6267150D02*
X4912920Y-6276674D01*
X4912920Y-6276674D02*
X4922444Y-6295722D01*
X4922444Y-6295722D02*
X4922444Y-6314769D01*
X4922444Y-6314769D02*
X4827206Y-6333817D01*
X4998634Y-6390960D02*
X5017682Y-6400484D01*
X5017682Y-6400484D02*
X5055777Y-6400484D01*
X5055777Y-6400484D02*
X5074825Y-6390960D01*
X5074825Y-6390960D02*
X5084349Y-6371912D01*
X5084349Y-6371912D02*
X5084349Y-6362388D01*
X5084349Y-6362388D02*
X5074825Y-6343341D01*
X5074825Y-6343341D02*
X5055777Y-6333817D01*
X5055777Y-6333817D02*
X5027206Y-6333817D01*
X5027206Y-6333817D02*
X5008158Y-6324293D01*
X5008158Y-6324293D02*
X4998634Y-6305246D01*
X4998634Y-6305246D02*
X4998634Y-6295722D01*
X4998634Y-6295722D02*
X5008158Y-6276674D01*
X5008158Y-6276674D02*
X5027206Y-6267150D01*
X5027206Y-6267150D02*
X5055777Y-6267150D01*
X5055777Y-6267150D02*
X5074825Y-6276674D01*
X5151015Y-6476674D02*
X5160539Y-6467150D01*
X5160539Y-6467150D02*
X5179587Y-6438579D01*
X5179587Y-6438579D02*
X5189111Y-6419531D01*
X5189111Y-6419531D02*
X5198634Y-6390960D01*
X5198634Y-6390960D02*
X5208158Y-6343341D01*
X5208158Y-6343341D02*
X5208158Y-6305246D01*
X5208158Y-6305246D02*
X5198634Y-6257627D01*
X5198634Y-6257627D02*
X5189111Y-6229055D01*
X5189111Y-6229055D02*
X5179587Y-6210008D01*
X5179587Y-6210008D02*
X5160539Y-6181436D01*
X5160539Y-6181436D02*
X5151015Y-6171912D01*
D10*
X-35000Y-6543000D02*
X-35000Y-6603000D01*
X-65000Y-6573000D02*
X-5000Y-6573000D01*
D11*
X293872Y-6464484D02*
X312920Y-6464484D01*
X312920Y-6464484D02*
X331967Y-6474008D01*
X331967Y-6474008D02*
X341491Y-6483531D01*
X341491Y-6483531D02*
X351015Y-6502579D01*
X351015Y-6502579D02*
X360539Y-6540674D01*
X360539Y-6540674D02*
X360539Y-6588293D01*
X360539Y-6588293D02*
X351015Y-6626388D01*
X351015Y-6626388D02*
X341491Y-6645436D01*
X341491Y-6645436D02*
X331967Y-6654960D01*
X331967Y-6654960D02*
X312920Y-6664484D01*
X312920Y-6664484D02*
X293872Y-6664484D01*
X293872Y-6664484D02*
X274824Y-6654960D01*
X274824Y-6654960D02*
X265301Y-6645436D01*
X265301Y-6645436D02*
X255777Y-6626388D01*
X255777Y-6626388D02*
X246253Y-6588293D01*
X246253Y-6588293D02*
X246253Y-6540674D01*
X246253Y-6540674D02*
X255777Y-6502579D01*
X255777Y-6502579D02*
X265301Y-6483531D01*
X265301Y-6483531D02*
X274824Y-6474008D01*
X274824Y-6474008D02*
X293872Y-6464484D01*
X446253Y-6645436D02*
X455777Y-6654960D01*
X455777Y-6654960D02*
X446253Y-6664484D01*
X446253Y-6664484D02*
X436729Y-6654960D01*
X436729Y-6654960D02*
X446253Y-6645436D01*
X446253Y-6645436D02*
X446253Y-6664484D01*
X627205Y-6464484D02*
X589110Y-6464484D01*
X589110Y-6464484D02*
X570063Y-6474008D01*
X570063Y-6474008D02*
X560539Y-6483531D01*
X560539Y-6483531D02*
X541491Y-6512103D01*
X541491Y-6512103D02*
X531967Y-6550198D01*
X531967Y-6550198D02*
X531967Y-6626388D01*
X531967Y-6626388D02*
X541491Y-6645436D01*
X541491Y-6645436D02*
X551015Y-6654960D01*
X551015Y-6654960D02*
X570063Y-6664484D01*
X570063Y-6664484D02*
X608158Y-6664484D01*
X608158Y-6664484D02*
X627205Y-6654960D01*
X627205Y-6654960D02*
X636729Y-6645436D01*
X636729Y-6645436D02*
X646253Y-6626388D01*
X646253Y-6626388D02*
X646253Y-6578769D01*
X646253Y-6578769D02*
X636729Y-6559722D01*
X636729Y-6559722D02*
X627205Y-6550198D01*
X627205Y-6550198D02*
X608158Y-6540674D01*
X608158Y-6540674D02*
X570063Y-6540674D01*
X570063Y-6540674D02*
X551015Y-6550198D01*
X551015Y-6550198D02*
X541491Y-6559722D01*
X541491Y-6559722D02*
X531967Y-6578769D01*
X770062Y-6464484D02*
X789110Y-6464484D01*
X789110Y-6464484D02*
X808158Y-6474008D01*
X808158Y-6474008D02*
X817682Y-6483531D01*
X817682Y-6483531D02*
X827205Y-6502579D01*
X827205Y-6502579D02*
X836729Y-6540674D01*
X836729Y-6540674D02*
X836729Y-6588293D01*
X836729Y-6588293D02*
X827205Y-6626388D01*
X827205Y-6626388D02*
X817682Y-6645436D01*
X817682Y-6645436D02*
X808158Y-6654960D01*
X808158Y-6654960D02*
X789110Y-6664484D01*
X789110Y-6664484D02*
X770062Y-6664484D01*
X770062Y-6664484D02*
X751015Y-6654960D01*
X751015Y-6654960D02*
X741491Y-6645436D01*
X741491Y-6645436D02*
X731967Y-6626388D01*
X731967Y-6626388D02*
X722443Y-6588293D01*
X722443Y-6588293D02*
X722443Y-6540674D01*
X722443Y-6540674D02*
X731967Y-6502579D01*
X731967Y-6502579D02*
X741491Y-6483531D01*
X741491Y-6483531D02*
X751015Y-6474008D01*
X751015Y-6474008D02*
X770062Y-6464484D01*
X960539Y-6464484D02*
X979586Y-6464484D01*
X979586Y-6464484D02*
X998634Y-6474008D01*
X998634Y-6474008D02*
X1008158Y-6483531D01*
X1008158Y-6483531D02*
X1017682Y-6502579D01*
X1017682Y-6502579D02*
X1027205Y-6540674D01*
X1027205Y-6540674D02*
X1027205Y-6588293D01*
X1027205Y-6588293D02*
X1017682Y-6626388D01*
X1017682Y-6626388D02*
X1008158Y-6645436D01*
X1008158Y-6645436D02*
X998634Y-6654960D01*
X998634Y-6654960D02*
X979586Y-6664484D01*
X979586Y-6664484D02*
X960539Y-6664484D01*
X960539Y-6664484D02*
X941491Y-6654960D01*
X941491Y-6654960D02*
X931967Y-6645436D01*
X931967Y-6645436D02*
X922443Y-6626388D01*
X922443Y-6626388D02*
X912920Y-6588293D01*
X912920Y-6588293D02*
X912920Y-6540674D01*
X912920Y-6540674D02*
X922443Y-6502579D01*
X922443Y-6502579D02*
X931967Y-6483531D01*
X931967Y-6483531D02*
X941491Y-6474008D01*
X941491Y-6474008D02*
X960539Y-6464484D01*
X1112920Y-6664484D02*
X1112920Y-6531150D01*
X1112920Y-6550198D02*
X1122444Y-6540674D01*
X1122444Y-6540674D02*
X1141491Y-6531150D01*
X1141491Y-6531150D02*
X1170063Y-6531150D01*
X1170063Y-6531150D02*
X1189110Y-6540674D01*
X1189110Y-6540674D02*
X1198634Y-6559722D01*
X1198634Y-6559722D02*
X1198634Y-6664484D01*
X1198634Y-6559722D02*
X1208158Y-6540674D01*
X1208158Y-6540674D02*
X1227205Y-6531150D01*
X1227205Y-6531150D02*
X1255777Y-6531150D01*
X1255777Y-6531150D02*
X1274825Y-6540674D01*
X1274825Y-6540674D02*
X1284348Y-6559722D01*
X1284348Y-6559722D02*
X1284348Y-6664484D01*
X1379586Y-6664484D02*
X1379586Y-6531150D01*
X1379586Y-6550198D02*
X1389110Y-6540674D01*
X1389110Y-6540674D02*
X1408158Y-6531150D01*
X1408158Y-6531150D02*
X1436729Y-6531150D01*
X1436729Y-6531150D02*
X1455777Y-6540674D01*
X1455777Y-6540674D02*
X1465301Y-6559722D01*
X1465301Y-6559722D02*
X1465301Y-6664484D01*
X1465301Y-6559722D02*
X1474824Y-6540674D01*
X1474824Y-6540674D02*
X1493872Y-6531150D01*
X1493872Y-6531150D02*
X1522443Y-6531150D01*
X1522443Y-6531150D02*
X1541491Y-6540674D01*
X1541491Y-6540674D02*
X1551015Y-6559722D01*
X1551015Y-6559722D02*
X1551015Y-6664484D01*
X1941491Y-6454960D02*
X1770063Y-6712103D01*
X2198634Y-6464484D02*
X2217682Y-6464484D01*
X2217682Y-6464484D02*
X2236729Y-6474008D01*
X2236729Y-6474008D02*
X2246253Y-6483531D01*
X2246253Y-6483531D02*
X2255777Y-6502579D01*
X2255777Y-6502579D02*
X2265301Y-6540674D01*
X2265301Y-6540674D02*
X2265301Y-6588293D01*
X2265301Y-6588293D02*
X2255777Y-6626388D01*
X2255777Y-6626388D02*
X2246253Y-6645436D01*
X2246253Y-6645436D02*
X2236729Y-6654960D01*
X2236729Y-6654960D02*
X2217682Y-6664484D01*
X2217682Y-6664484D02*
X2198634Y-6664484D01*
X2198634Y-6664484D02*
X2179587Y-6654960D01*
X2179587Y-6654960D02*
X2170063Y-6645436D01*
X2170063Y-6645436D02*
X2160539Y-6626388D01*
X2160539Y-6626388D02*
X2151015Y-6588293D01*
X2151015Y-6588293D02*
X2151015Y-6540674D01*
X2151015Y-6540674D02*
X2160539Y-6502579D01*
X2160539Y-6502579D02*
X2170063Y-6483531D01*
X2170063Y-6483531D02*
X2179587Y-6474008D01*
X2179587Y-6474008D02*
X2198634Y-6464484D01*
X2351015Y-6645436D02*
X2360539Y-6654960D01*
X2360539Y-6654960D02*
X2351015Y-6664484D01*
X2351015Y-6664484D02*
X2341491Y-6654960D01*
X2341491Y-6654960D02*
X2351015Y-6645436D01*
X2351015Y-6645436D02*
X2351015Y-6664484D01*
X2484348Y-6464484D02*
X2503396Y-6464484D01*
X2503396Y-6464484D02*
X2522444Y-6474008D01*
X2522444Y-6474008D02*
X2531968Y-6483531D01*
X2531968Y-6483531D02*
X2541491Y-6502579D01*
X2541491Y-6502579D02*
X2551015Y-6540674D01*
X2551015Y-6540674D02*
X2551015Y-6588293D01*
X2551015Y-6588293D02*
X2541491Y-6626388D01*
X2541491Y-6626388D02*
X2531968Y-6645436D01*
X2531968Y-6645436D02*
X2522444Y-6654960D01*
X2522444Y-6654960D02*
X2503396Y-6664484D01*
X2503396Y-6664484D02*
X2484348Y-6664484D01*
X2484348Y-6664484D02*
X2465301Y-6654960D01*
X2465301Y-6654960D02*
X2455777Y-6645436D01*
X2455777Y-6645436D02*
X2446253Y-6626388D01*
X2446253Y-6626388D02*
X2436729Y-6588293D01*
X2436729Y-6588293D02*
X2436729Y-6540674D01*
X2436729Y-6540674D02*
X2446253Y-6502579D01*
X2446253Y-6502579D02*
X2455777Y-6483531D01*
X2455777Y-6483531D02*
X2465301Y-6474008D01*
X2465301Y-6474008D02*
X2484348Y-6464484D01*
X2627206Y-6483531D02*
X2636729Y-6474008D01*
X2636729Y-6474008D02*
X2655777Y-6464484D01*
X2655777Y-6464484D02*
X2703396Y-6464484D01*
X2703396Y-6464484D02*
X2722444Y-6474008D01*
X2722444Y-6474008D02*
X2731968Y-6483531D01*
X2731968Y-6483531D02*
X2741491Y-6502579D01*
X2741491Y-6502579D02*
X2741491Y-6521627D01*
X2741491Y-6521627D02*
X2731968Y-6550198D01*
X2731968Y-6550198D02*
X2617682Y-6664484D01*
X2617682Y-6664484D02*
X2741491Y-6664484D01*
X2808158Y-6464484D02*
X2931967Y-6464484D01*
X2931967Y-6464484D02*
X2865301Y-6540674D01*
X2865301Y-6540674D02*
X2893872Y-6540674D01*
X2893872Y-6540674D02*
X2912920Y-6550198D01*
X2912920Y-6550198D02*
X2922444Y-6559722D01*
X2922444Y-6559722D02*
X2931967Y-6578769D01*
X2931967Y-6578769D02*
X2931967Y-6626388D01*
X2931967Y-6626388D02*
X2922444Y-6645436D01*
X2922444Y-6645436D02*
X2912920Y-6654960D01*
X2912920Y-6654960D02*
X2893872Y-6664484D01*
X2893872Y-6664484D02*
X2836729Y-6664484D01*
X2836729Y-6664484D02*
X2817682Y-6654960D01*
X2817682Y-6654960D02*
X2808158Y-6645436D01*
X3103396Y-6464484D02*
X3065301Y-6464484D01*
X3065301Y-6464484D02*
X3046253Y-6474008D01*
X3046253Y-6474008D02*
X3036729Y-6483531D01*
X3036729Y-6483531D02*
X3017682Y-6512103D01*
X3017682Y-6512103D02*
X3008158Y-6550198D01*
X3008158Y-6550198D02*
X3008158Y-6626388D01*
X3008158Y-6626388D02*
X3017682Y-6645436D01*
X3017682Y-6645436D02*
X3027206Y-6654960D01*
X3027206Y-6654960D02*
X3046253Y-6664484D01*
X3046253Y-6664484D02*
X3084348Y-6664484D01*
X3084348Y-6664484D02*
X3103396Y-6654960D01*
X3103396Y-6654960D02*
X3112920Y-6645436D01*
X3112920Y-6645436D02*
X3122444Y-6626388D01*
X3122444Y-6626388D02*
X3122444Y-6578769D01*
X3122444Y-6578769D02*
X3112920Y-6559722D01*
X3112920Y-6559722D02*
X3103396Y-6550198D01*
X3103396Y-6550198D02*
X3084348Y-6540674D01*
X3084348Y-6540674D02*
X3046253Y-6540674D01*
X3046253Y-6540674D02*
X3027206Y-6550198D01*
X3027206Y-6550198D02*
X3017682Y-6559722D01*
X3017682Y-6559722D02*
X3008158Y-6578769D01*
X3198634Y-6464484D02*
X3198634Y-6502579D01*
X3274825Y-6464484D02*
X3274825Y-6502579D01*
X3570063Y-6740674D02*
X3560539Y-6731150D01*
X3560539Y-6731150D02*
X3541491Y-6702579D01*
X3541491Y-6702579D02*
X3531968Y-6683531D01*
X3531968Y-6683531D02*
X3522444Y-6654960D01*
X3522444Y-6654960D02*
X3512920Y-6607341D01*
X3512920Y-6607341D02*
X3512920Y-6569246D01*
X3512920Y-6569246D02*
X3522444Y-6521627D01*
X3522444Y-6521627D02*
X3531968Y-6493055D01*
X3531968Y-6493055D02*
X3541491Y-6474008D01*
X3541491Y-6474008D02*
X3560539Y-6445436D01*
X3560539Y-6445436D02*
X3570063Y-6435912D01*
X3684348Y-6464484D02*
X3703396Y-6464484D01*
X3703396Y-6464484D02*
X3722444Y-6474008D01*
X3722444Y-6474008D02*
X3731968Y-6483531D01*
X3731968Y-6483531D02*
X3741491Y-6502579D01*
X3741491Y-6502579D02*
X3751015Y-6540674D01*
X3751015Y-6540674D02*
X3751015Y-6588293D01*
X3751015Y-6588293D02*
X3741491Y-6626388D01*
X3741491Y-6626388D02*
X3731968Y-6645436D01*
X3731968Y-6645436D02*
X3722444Y-6654960D01*
X3722444Y-6654960D02*
X3703396Y-6664484D01*
X3703396Y-6664484D02*
X3684348Y-6664484D01*
X3684348Y-6664484D02*
X3665301Y-6654960D01*
X3665301Y-6654960D02*
X3655777Y-6645436D01*
X3655777Y-6645436D02*
X3646253Y-6626388D01*
X3646253Y-6626388D02*
X3636729Y-6588293D01*
X3636729Y-6588293D02*
X3636729Y-6540674D01*
X3636729Y-6540674D02*
X3646253Y-6502579D01*
X3646253Y-6502579D02*
X3655777Y-6483531D01*
X3655777Y-6483531D02*
X3665301Y-6474008D01*
X3665301Y-6474008D02*
X3684348Y-6464484D01*
X3989110Y-6664484D02*
X3989110Y-6464484D01*
X4074825Y-6664484D02*
X4074825Y-6559722D01*
X4074825Y-6559722D02*
X4065301Y-6540674D01*
X4065301Y-6540674D02*
X4046253Y-6531150D01*
X4046253Y-6531150D02*
X4017682Y-6531150D01*
X4017682Y-6531150D02*
X3998634Y-6540674D01*
X3998634Y-6540674D02*
X3989110Y-6550198D01*
X4198634Y-6664484D02*
X4179587Y-6654960D01*
X4179587Y-6654960D02*
X4170063Y-6645436D01*
X4170063Y-6645436D02*
X4160539Y-6626388D01*
X4160539Y-6626388D02*
X4160539Y-6569246D01*
X4160539Y-6569246D02*
X4170063Y-6550198D01*
X4170063Y-6550198D02*
X4179587Y-6540674D01*
X4179587Y-6540674D02*
X4198634Y-6531150D01*
X4198634Y-6531150D02*
X4227206Y-6531150D01*
X4227206Y-6531150D02*
X4246253Y-6540674D01*
X4246253Y-6540674D02*
X4255777Y-6550198D01*
X4255777Y-6550198D02*
X4265301Y-6569246D01*
X4265301Y-6569246D02*
X4265301Y-6626388D01*
X4265301Y-6626388D02*
X4255777Y-6645436D01*
X4255777Y-6645436D02*
X4246253Y-6654960D01*
X4246253Y-6654960D02*
X4227206Y-6664484D01*
X4227206Y-6664484D02*
X4198634Y-6664484D01*
X4379587Y-6664484D02*
X4360539Y-6654960D01*
X4360539Y-6654960D02*
X4351015Y-6635912D01*
X4351015Y-6635912D02*
X4351015Y-6464484D01*
X4531968Y-6654960D02*
X4512920Y-6664484D01*
X4512920Y-6664484D02*
X4474825Y-6664484D01*
X4474825Y-6664484D02*
X4455777Y-6654960D01*
X4455777Y-6654960D02*
X4446253Y-6635912D01*
X4446253Y-6635912D02*
X4446253Y-6559722D01*
X4446253Y-6559722D02*
X4455777Y-6540674D01*
X4455777Y-6540674D02*
X4474825Y-6531150D01*
X4474825Y-6531150D02*
X4512920Y-6531150D01*
X4512920Y-6531150D02*
X4531968Y-6540674D01*
X4531968Y-6540674D02*
X4541492Y-6559722D01*
X4541492Y-6559722D02*
X4541492Y-6578769D01*
X4541492Y-6578769D02*
X4446253Y-6597817D01*
X4617682Y-6654960D02*
X4636730Y-6664484D01*
X4636730Y-6664484D02*
X4674825Y-6664484D01*
X4674825Y-6664484D02*
X4693873Y-6654960D01*
X4693873Y-6654960D02*
X4703396Y-6635912D01*
X4703396Y-6635912D02*
X4703396Y-6626388D01*
X4703396Y-6626388D02*
X4693873Y-6607341D01*
X4693873Y-6607341D02*
X4674825Y-6597817D01*
X4674825Y-6597817D02*
X4646253Y-6597817D01*
X4646253Y-6597817D02*
X4627206Y-6588293D01*
X4627206Y-6588293D02*
X4617682Y-6569246D01*
X4617682Y-6569246D02*
X4617682Y-6559722D01*
X4617682Y-6559722D02*
X4627206Y-6540674D01*
X4627206Y-6540674D02*
X4646253Y-6531150D01*
X4646253Y-6531150D02*
X4674825Y-6531150D01*
X4674825Y-6531150D02*
X4693873Y-6540674D01*
X4941492Y-6588293D02*
X5093873Y-6588293D01*
X5017682Y-6664484D02*
X5017682Y-6512103D01*
X5427206Y-6531150D02*
X5427206Y-6664484D01*
X5379587Y-6454960D02*
X5331968Y-6597817D01*
X5331968Y-6597817D02*
X5455777Y-6597817D01*
X5674825Y-6654960D02*
X5693873Y-6664484D01*
X5693873Y-6664484D02*
X5731968Y-6664484D01*
X5731968Y-6664484D02*
X5751015Y-6654960D01*
X5751015Y-6654960D02*
X5760539Y-6635912D01*
X5760539Y-6635912D02*
X5760539Y-6626388D01*
X5760539Y-6626388D02*
X5751015Y-6607341D01*
X5751015Y-6607341D02*
X5731968Y-6597817D01*
X5731968Y-6597817D02*
X5703396Y-6597817D01*
X5703396Y-6597817D02*
X5684349Y-6588293D01*
X5684349Y-6588293D02*
X5674825Y-6569246D01*
X5674825Y-6569246D02*
X5674825Y-6559722D01*
X5674825Y-6559722D02*
X5684349Y-6540674D01*
X5684349Y-6540674D02*
X5703396Y-6531150D01*
X5703396Y-6531150D02*
X5731968Y-6531150D01*
X5731968Y-6531150D02*
X5751015Y-6540674D01*
X5874825Y-6664484D02*
X5855777Y-6654960D01*
X5855777Y-6654960D02*
X5846254Y-6635912D01*
X5846254Y-6635912D02*
X5846254Y-6464484D01*
X5979587Y-6664484D02*
X5960539Y-6654960D01*
X5960539Y-6654960D02*
X5951015Y-6645436D01*
X5951015Y-6645436D02*
X5941492Y-6626388D01*
X5941492Y-6626388D02*
X5941492Y-6569246D01*
X5941492Y-6569246D02*
X5951015Y-6550198D01*
X5951015Y-6550198D02*
X5960539Y-6540674D01*
X5960539Y-6540674D02*
X5979587Y-6531150D01*
X5979587Y-6531150D02*
X6008158Y-6531150D01*
X6008158Y-6531150D02*
X6027206Y-6540674D01*
X6027206Y-6540674D02*
X6036730Y-6550198D01*
X6036730Y-6550198D02*
X6046254Y-6569246D01*
X6046254Y-6569246D02*
X6046254Y-6626388D01*
X6046254Y-6626388D02*
X6036730Y-6645436D01*
X6036730Y-6645436D02*
X6027206Y-6654960D01*
X6027206Y-6654960D02*
X6008158Y-6664484D01*
X6008158Y-6664484D02*
X5979587Y-6664484D01*
X6103396Y-6531150D02*
X6179587Y-6531150D01*
X6131968Y-6464484D02*
X6131968Y-6635912D01*
X6131968Y-6635912D02*
X6141492Y-6654960D01*
X6141492Y-6654960D02*
X6160539Y-6664484D01*
X6160539Y-6664484D02*
X6179587Y-6664484D01*
X6236730Y-6654960D02*
X6255777Y-6664484D01*
X6255777Y-6664484D02*
X6293873Y-6664484D01*
X6293873Y-6664484D02*
X6312920Y-6654960D01*
X6312920Y-6654960D02*
X6322444Y-6635912D01*
X6322444Y-6635912D02*
X6322444Y-6626388D01*
X6322444Y-6626388D02*
X6312920Y-6607341D01*
X6312920Y-6607341D02*
X6293873Y-6597817D01*
X6293873Y-6597817D02*
X6265301Y-6597817D01*
X6265301Y-6597817D02*
X6246254Y-6588293D01*
X6246254Y-6588293D02*
X6236730Y-6569246D01*
X6236730Y-6569246D02*
X6236730Y-6559722D01*
X6236730Y-6559722D02*
X6246254Y-6540674D01*
X6246254Y-6540674D02*
X6265301Y-6531150D01*
X6265301Y-6531150D02*
X6293873Y-6531150D01*
X6293873Y-6531150D02*
X6312920Y-6540674D01*
X6389111Y-6740674D02*
X6398635Y-6731150D01*
X6398635Y-6731150D02*
X6417682Y-6702579D01*
X6417682Y-6702579D02*
X6427206Y-6683531D01*
X6427206Y-6683531D02*
X6436730Y-6654960D01*
X6436730Y-6654960D02*
X6446254Y-6607341D01*
X6446254Y-6607341D02*
X6446254Y-6569246D01*
X6446254Y-6569246D02*
X6436730Y-6521627D01*
X6436730Y-6521627D02*
X6427206Y-6493055D01*
X6427206Y-6493055D02*
X6417682Y-6474008D01*
X6417682Y-6474008D02*
X6398635Y-6445436D01*
X6398635Y-6445436D02*
X6389111Y-6435912D01*
D10*
X-19644Y-6872356D02*
X-19644Y-6801644D01*
X-90356Y-6801644D01*
X-90356Y-6872356D01*
X-19644Y-6872356D01*
D11*
X360539Y-6928484D02*
X246253Y-6928484D01*
X303396Y-6928484D02*
X303396Y-6728484D01*
X303396Y-6728484D02*
X284348Y-6757055D01*
X284348Y-6757055D02*
X265301Y-6776103D01*
X265301Y-6776103D02*
X246253Y-6785627D01*
X446253Y-6909436D02*
X455777Y-6918960D01*
X455777Y-6918960D02*
X446253Y-6928484D01*
X446253Y-6928484D02*
X436729Y-6918960D01*
X436729Y-6918960D02*
X446253Y-6909436D01*
X446253Y-6909436D02*
X446253Y-6928484D01*
X579586Y-6728484D02*
X598634Y-6728484D01*
X598634Y-6728484D02*
X617682Y-6738008D01*
X617682Y-6738008D02*
X627205Y-6747531D01*
X627205Y-6747531D02*
X636729Y-6766579D01*
X636729Y-6766579D02*
X646253Y-6804674D01*
X646253Y-6804674D02*
X646253Y-6852293D01*
X646253Y-6852293D02*
X636729Y-6890388D01*
X636729Y-6890388D02*
X627205Y-6909436D01*
X627205Y-6909436D02*
X617682Y-6918960D01*
X617682Y-6918960D02*
X598634Y-6928484D01*
X598634Y-6928484D02*
X579586Y-6928484D01*
X579586Y-6928484D02*
X560539Y-6918960D01*
X560539Y-6918960D02*
X551015Y-6909436D01*
X551015Y-6909436D02*
X541491Y-6890388D01*
X541491Y-6890388D02*
X531967Y-6852293D01*
X531967Y-6852293D02*
X531967Y-6804674D01*
X531967Y-6804674D02*
X541491Y-6766579D01*
X541491Y-6766579D02*
X551015Y-6747531D01*
X551015Y-6747531D02*
X560539Y-6738008D01*
X560539Y-6738008D02*
X579586Y-6728484D01*
X770062Y-6728484D02*
X789110Y-6728484D01*
X789110Y-6728484D02*
X808158Y-6738008D01*
X808158Y-6738008D02*
X817682Y-6747531D01*
X817682Y-6747531D02*
X827205Y-6766579D01*
X827205Y-6766579D02*
X836729Y-6804674D01*
X836729Y-6804674D02*
X836729Y-6852293D01*
X836729Y-6852293D02*
X827205Y-6890388D01*
X827205Y-6890388D02*
X817682Y-6909436D01*
X817682Y-6909436D02*
X808158Y-6918960D01*
X808158Y-6918960D02*
X789110Y-6928484D01*
X789110Y-6928484D02*
X770062Y-6928484D01*
X770062Y-6928484D02*
X751015Y-6918960D01*
X751015Y-6918960D02*
X741491Y-6909436D01*
X741491Y-6909436D02*
X731967Y-6890388D01*
X731967Y-6890388D02*
X722443Y-6852293D01*
X722443Y-6852293D02*
X722443Y-6804674D01*
X722443Y-6804674D02*
X731967Y-6766579D01*
X731967Y-6766579D02*
X741491Y-6747531D01*
X741491Y-6747531D02*
X751015Y-6738008D01*
X751015Y-6738008D02*
X770062Y-6728484D01*
X960539Y-6728484D02*
X979586Y-6728484D01*
X979586Y-6728484D02*
X998634Y-6738008D01*
X998634Y-6738008D02*
X1008158Y-6747531D01*
X1008158Y-6747531D02*
X1017682Y-6766579D01*
X1017682Y-6766579D02*
X1027205Y-6804674D01*
X1027205Y-6804674D02*
X1027205Y-6852293D01*
X1027205Y-6852293D02*
X1017682Y-6890388D01*
X1017682Y-6890388D02*
X1008158Y-6909436D01*
X1008158Y-6909436D02*
X998634Y-6918960D01*
X998634Y-6918960D02*
X979586Y-6928484D01*
X979586Y-6928484D02*
X960539Y-6928484D01*
X960539Y-6928484D02*
X941491Y-6918960D01*
X941491Y-6918960D02*
X931967Y-6909436D01*
X931967Y-6909436D02*
X922443Y-6890388D01*
X922443Y-6890388D02*
X912920Y-6852293D01*
X912920Y-6852293D02*
X912920Y-6804674D01*
X912920Y-6804674D02*
X922443Y-6766579D01*
X922443Y-6766579D02*
X931967Y-6747531D01*
X931967Y-6747531D02*
X941491Y-6738008D01*
X941491Y-6738008D02*
X960539Y-6728484D01*
X1112920Y-6928484D02*
X1112920Y-6795150D01*
X1112920Y-6814198D02*
X1122444Y-6804674D01*
X1122444Y-6804674D02*
X1141491Y-6795150D01*
X1141491Y-6795150D02*
X1170063Y-6795150D01*
X1170063Y-6795150D02*
X1189110Y-6804674D01*
X1189110Y-6804674D02*
X1198634Y-6823722D01*
X1198634Y-6823722D02*
X1198634Y-6928484D01*
X1198634Y-6823722D02*
X1208158Y-6804674D01*
X1208158Y-6804674D02*
X1227205Y-6795150D01*
X1227205Y-6795150D02*
X1255777Y-6795150D01*
X1255777Y-6795150D02*
X1274825Y-6804674D01*
X1274825Y-6804674D02*
X1284348Y-6823722D01*
X1284348Y-6823722D02*
X1284348Y-6928484D01*
X1379586Y-6928484D02*
X1379586Y-6795150D01*
X1379586Y-6814198D02*
X1389110Y-6804674D01*
X1389110Y-6804674D02*
X1408158Y-6795150D01*
X1408158Y-6795150D02*
X1436729Y-6795150D01*
X1436729Y-6795150D02*
X1455777Y-6804674D01*
X1455777Y-6804674D02*
X1465301Y-6823722D01*
X1465301Y-6823722D02*
X1465301Y-6928484D01*
X1465301Y-6823722D02*
X1474824Y-6804674D01*
X1474824Y-6804674D02*
X1493872Y-6795150D01*
X1493872Y-6795150D02*
X1522443Y-6795150D01*
X1522443Y-6795150D02*
X1541491Y-6804674D01*
X1541491Y-6804674D02*
X1551015Y-6823722D01*
X1551015Y-6823722D02*
X1551015Y-6928484D01*
X1941491Y-6718960D02*
X1770063Y-6976103D01*
X2198634Y-6728484D02*
X2217682Y-6728484D01*
X2217682Y-6728484D02*
X2236729Y-6738008D01*
X2236729Y-6738008D02*
X2246253Y-6747531D01*
X2246253Y-6747531D02*
X2255777Y-6766579D01*
X2255777Y-6766579D02*
X2265301Y-6804674D01*
X2265301Y-6804674D02*
X2265301Y-6852293D01*
X2265301Y-6852293D02*
X2255777Y-6890388D01*
X2255777Y-6890388D02*
X2246253Y-6909436D01*
X2246253Y-6909436D02*
X2236729Y-6918960D01*
X2236729Y-6918960D02*
X2217682Y-6928484D01*
X2217682Y-6928484D02*
X2198634Y-6928484D01*
X2198634Y-6928484D02*
X2179587Y-6918960D01*
X2179587Y-6918960D02*
X2170063Y-6909436D01*
X2170063Y-6909436D02*
X2160539Y-6890388D01*
X2160539Y-6890388D02*
X2151015Y-6852293D01*
X2151015Y-6852293D02*
X2151015Y-6804674D01*
X2151015Y-6804674D02*
X2160539Y-6766579D01*
X2160539Y-6766579D02*
X2170063Y-6747531D01*
X2170063Y-6747531D02*
X2179587Y-6738008D01*
X2179587Y-6738008D02*
X2198634Y-6728484D01*
X2351015Y-6909436D02*
X2360539Y-6918960D01*
X2360539Y-6918960D02*
X2351015Y-6928484D01*
X2351015Y-6928484D02*
X2341491Y-6918960D01*
X2341491Y-6918960D02*
X2351015Y-6909436D01*
X2351015Y-6909436D02*
X2351015Y-6928484D01*
X2484348Y-6728484D02*
X2503396Y-6728484D01*
X2503396Y-6728484D02*
X2522444Y-6738008D01*
X2522444Y-6738008D02*
X2531968Y-6747531D01*
X2531968Y-6747531D02*
X2541491Y-6766579D01*
X2541491Y-6766579D02*
X2551015Y-6804674D01*
X2551015Y-6804674D02*
X2551015Y-6852293D01*
X2551015Y-6852293D02*
X2541491Y-6890388D01*
X2541491Y-6890388D02*
X2531968Y-6909436D01*
X2531968Y-6909436D02*
X2522444Y-6918960D01*
X2522444Y-6918960D02*
X2503396Y-6928484D01*
X2503396Y-6928484D02*
X2484348Y-6928484D01*
X2484348Y-6928484D02*
X2465301Y-6918960D01*
X2465301Y-6918960D02*
X2455777Y-6909436D01*
X2455777Y-6909436D02*
X2446253Y-6890388D01*
X2446253Y-6890388D02*
X2436729Y-6852293D01*
X2436729Y-6852293D02*
X2436729Y-6804674D01*
X2436729Y-6804674D02*
X2446253Y-6766579D01*
X2446253Y-6766579D02*
X2455777Y-6747531D01*
X2455777Y-6747531D02*
X2465301Y-6738008D01*
X2465301Y-6738008D02*
X2484348Y-6728484D01*
X2617682Y-6728484D02*
X2741491Y-6728484D01*
X2741491Y-6728484D02*
X2674825Y-6804674D01*
X2674825Y-6804674D02*
X2703396Y-6804674D01*
X2703396Y-6804674D02*
X2722444Y-6814198D01*
X2722444Y-6814198D02*
X2731968Y-6823722D01*
X2731968Y-6823722D02*
X2741491Y-6842769D01*
X2741491Y-6842769D02*
X2741491Y-6890388D01*
X2741491Y-6890388D02*
X2731968Y-6909436D01*
X2731968Y-6909436D02*
X2722444Y-6918960D01*
X2722444Y-6918960D02*
X2703396Y-6928484D01*
X2703396Y-6928484D02*
X2646253Y-6928484D01*
X2646253Y-6928484D02*
X2627206Y-6918960D01*
X2627206Y-6918960D02*
X2617682Y-6909436D01*
X2836729Y-6928484D02*
X2874825Y-6928484D01*
X2874825Y-6928484D02*
X2893872Y-6918960D01*
X2893872Y-6918960D02*
X2903396Y-6909436D01*
X2903396Y-6909436D02*
X2922444Y-6880865D01*
X2922444Y-6880865D02*
X2931967Y-6842769D01*
X2931967Y-6842769D02*
X2931967Y-6766579D01*
X2931967Y-6766579D02*
X2922444Y-6747531D01*
X2922444Y-6747531D02*
X2912920Y-6738008D01*
X2912920Y-6738008D02*
X2893872Y-6728484D01*
X2893872Y-6728484D02*
X2855777Y-6728484D01*
X2855777Y-6728484D02*
X2836729Y-6738008D01*
X2836729Y-6738008D02*
X2827206Y-6747531D01*
X2827206Y-6747531D02*
X2817682Y-6766579D01*
X2817682Y-6766579D02*
X2817682Y-6814198D01*
X2817682Y-6814198D02*
X2827206Y-6833246D01*
X2827206Y-6833246D02*
X2836729Y-6842769D01*
X2836729Y-6842769D02*
X2855777Y-6852293D01*
X2855777Y-6852293D02*
X2893872Y-6852293D01*
X2893872Y-6852293D02*
X2912920Y-6842769D01*
X2912920Y-6842769D02*
X2922444Y-6833246D01*
X2922444Y-6833246D02*
X2931967Y-6814198D01*
X3103396Y-6795150D02*
X3103396Y-6928484D01*
X3055777Y-6718960D02*
X3008158Y-6861817D01*
X3008158Y-6861817D02*
X3131967Y-6861817D01*
X3198634Y-6728484D02*
X3198634Y-6766579D01*
X3274825Y-6728484D02*
X3274825Y-6766579D01*
X3570063Y-7004674D02*
X3560539Y-6995150D01*
X3560539Y-6995150D02*
X3541491Y-6966579D01*
X3541491Y-6966579D02*
X3531968Y-6947531D01*
X3531968Y-6947531D02*
X3522444Y-6918960D01*
X3522444Y-6918960D02*
X3512920Y-6871341D01*
X3512920Y-6871341D02*
X3512920Y-6833246D01*
X3512920Y-6833246D02*
X3522444Y-6785627D01*
X3522444Y-6785627D02*
X3531968Y-6757055D01*
X3531968Y-6757055D02*
X3541491Y-6738008D01*
X3541491Y-6738008D02*
X3560539Y-6709436D01*
X3560539Y-6709436D02*
X3570063Y-6699912D01*
X3751015Y-6928484D02*
X3636729Y-6928484D01*
X3693872Y-6928484D02*
X3693872Y-6728484D01*
X3693872Y-6728484D02*
X3674825Y-6757055D01*
X3674825Y-6757055D02*
X3655777Y-6776103D01*
X3655777Y-6776103D02*
X3636729Y-6785627D01*
X3817682Y-6728484D02*
X3941491Y-6728484D01*
X3941491Y-6728484D02*
X3874825Y-6804674D01*
X3874825Y-6804674D02*
X3903396Y-6804674D01*
X3903396Y-6804674D02*
X3922444Y-6814198D01*
X3922444Y-6814198D02*
X3931968Y-6823722D01*
X3931968Y-6823722D02*
X3941491Y-6842769D01*
X3941491Y-6842769D02*
X3941491Y-6890388D01*
X3941491Y-6890388D02*
X3931968Y-6909436D01*
X3931968Y-6909436D02*
X3922444Y-6918960D01*
X3922444Y-6918960D02*
X3903396Y-6928484D01*
X3903396Y-6928484D02*
X3846253Y-6928484D01*
X3846253Y-6928484D02*
X3827206Y-6918960D01*
X3827206Y-6918960D02*
X3817682Y-6909436D01*
X4179587Y-6928484D02*
X4179587Y-6728484D01*
X4265301Y-6928484D02*
X4265301Y-6823722D01*
X4265301Y-6823722D02*
X4255777Y-6804674D01*
X4255777Y-6804674D02*
X4236730Y-6795150D01*
X4236730Y-6795150D02*
X4208158Y-6795150D01*
X4208158Y-6795150D02*
X4189110Y-6804674D01*
X4189110Y-6804674D02*
X4179587Y-6814198D01*
X4389111Y-6928484D02*
X4370063Y-6918960D01*
X4370063Y-6918960D02*
X4360539Y-6909436D01*
X4360539Y-6909436D02*
X4351015Y-6890388D01*
X4351015Y-6890388D02*
X4351015Y-6833246D01*
X4351015Y-6833246D02*
X4360539Y-6814198D01*
X4360539Y-6814198D02*
X4370063Y-6804674D01*
X4370063Y-6804674D02*
X4389111Y-6795150D01*
X4389111Y-6795150D02*
X4417682Y-6795150D01*
X4417682Y-6795150D02*
X4436730Y-6804674D01*
X4436730Y-6804674D02*
X4446253Y-6814198D01*
X4446253Y-6814198D02*
X4455777Y-6833246D01*
X4455777Y-6833246D02*
X4455777Y-6890388D01*
X4455777Y-6890388D02*
X4446253Y-6909436D01*
X4446253Y-6909436D02*
X4436730Y-6918960D01*
X4436730Y-6918960D02*
X4417682Y-6928484D01*
X4417682Y-6928484D02*
X4389111Y-6928484D01*
X4570063Y-6928484D02*
X4551015Y-6918960D01*
X4551015Y-6918960D02*
X4541492Y-6899912D01*
X4541492Y-6899912D02*
X4541492Y-6728484D01*
X4722444Y-6918960D02*
X4703396Y-6928484D01*
X4703396Y-6928484D02*
X4665301Y-6928484D01*
X4665301Y-6928484D02*
X4646253Y-6918960D01*
X4646253Y-6918960D02*
X4636730Y-6899912D01*
X4636730Y-6899912D02*
X4636730Y-6823722D01*
X4636730Y-6823722D02*
X4646253Y-6804674D01*
X4646253Y-6804674D02*
X4665301Y-6795150D01*
X4665301Y-6795150D02*
X4703396Y-6795150D01*
X4703396Y-6795150D02*
X4722444Y-6804674D01*
X4722444Y-6804674D02*
X4731968Y-6823722D01*
X4731968Y-6823722D02*
X4731968Y-6842769D01*
X4731968Y-6842769D02*
X4636730Y-6861817D01*
X4808158Y-6918960D02*
X4827206Y-6928484D01*
X4827206Y-6928484D02*
X4865301Y-6928484D01*
X4865301Y-6928484D02*
X4884349Y-6918960D01*
X4884349Y-6918960D02*
X4893873Y-6899912D01*
X4893873Y-6899912D02*
X4893873Y-6890388D01*
X4893873Y-6890388D02*
X4884349Y-6871341D01*
X4884349Y-6871341D02*
X4865301Y-6861817D01*
X4865301Y-6861817D02*
X4836730Y-6861817D01*
X4836730Y-6861817D02*
X4817682Y-6852293D01*
X4817682Y-6852293D02*
X4808158Y-6833246D01*
X4808158Y-6833246D02*
X4808158Y-6823722D01*
X4808158Y-6823722D02*
X4817682Y-6804674D01*
X4817682Y-6804674D02*
X4836730Y-6795150D01*
X4836730Y-6795150D02*
X4865301Y-6795150D01*
X4865301Y-6795150D02*
X4884349Y-6804674D01*
X5131968Y-6852293D02*
X5284349Y-6852293D01*
X5208158Y-6928484D02*
X5208158Y-6776103D01*
X5627206Y-6728484D02*
X5531968Y-6728484D01*
X5531968Y-6728484D02*
X5522444Y-6823722D01*
X5522444Y-6823722D02*
X5531968Y-6814198D01*
X5531968Y-6814198D02*
X5551015Y-6804674D01*
X5551015Y-6804674D02*
X5598634Y-6804674D01*
X5598634Y-6804674D02*
X5617682Y-6814198D01*
X5617682Y-6814198D02*
X5627206Y-6823722D01*
X5627206Y-6823722D02*
X5636730Y-6842769D01*
X5636730Y-6842769D02*
X5636730Y-6890388D01*
X5636730Y-6890388D02*
X5627206Y-6909436D01*
X5627206Y-6909436D02*
X5617682Y-6918960D01*
X5617682Y-6918960D02*
X5598634Y-6928484D01*
X5598634Y-6928484D02*
X5551015Y-6928484D01*
X5551015Y-6928484D02*
X5531968Y-6918960D01*
X5531968Y-6918960D02*
X5522444Y-6909436D01*
X5865301Y-6918960D02*
X5884349Y-6928484D01*
X5884349Y-6928484D02*
X5922444Y-6928484D01*
X5922444Y-6928484D02*
X5941492Y-6918960D01*
X5941492Y-6918960D02*
X5951015Y-6899912D01*
X5951015Y-6899912D02*
X5951015Y-6890388D01*
X5951015Y-6890388D02*
X5941492Y-6871341D01*
X5941492Y-6871341D02*
X5922444Y-6861817D01*
X5922444Y-6861817D02*
X5893873Y-6861817D01*
X5893873Y-6861817D02*
X5874825Y-6852293D01*
X5874825Y-6852293D02*
X5865301Y-6833246D01*
X5865301Y-6833246D02*
X5865301Y-6823722D01*
X5865301Y-6823722D02*
X5874825Y-6804674D01*
X5874825Y-6804674D02*
X5893873Y-6795150D01*
X5893873Y-6795150D02*
X5922444Y-6795150D01*
X5922444Y-6795150D02*
X5941492Y-6804674D01*
X6065301Y-6928484D02*
X6046254Y-6918960D01*
X6046254Y-6918960D02*
X6036730Y-6899912D01*
X6036730Y-6899912D02*
X6036730Y-6728484D01*
X6170063Y-6928484D02*
X6151015Y-6918960D01*
X6151015Y-6918960D02*
X6141492Y-6909436D01*
X6141492Y-6909436D02*
X6131968Y-6890388D01*
X6131968Y-6890388D02*
X6131968Y-6833246D01*
X6131968Y-6833246D02*
X6141492Y-6814198D01*
X6141492Y-6814198D02*
X6151015Y-6804674D01*
X6151015Y-6804674D02*
X6170063Y-6795150D01*
X6170063Y-6795150D02*
X6198635Y-6795150D01*
X6198635Y-6795150D02*
X6217682Y-6804674D01*
X6217682Y-6804674D02*
X6227206Y-6814198D01*
X6227206Y-6814198D02*
X6236730Y-6833246D01*
X6236730Y-6833246D02*
X6236730Y-6890388D01*
X6236730Y-6890388D02*
X6227206Y-6909436D01*
X6227206Y-6909436D02*
X6217682Y-6918960D01*
X6217682Y-6918960D02*
X6198635Y-6928484D01*
X6198635Y-6928484D02*
X6170063Y-6928484D01*
X6293873Y-6795150D02*
X6370063Y-6795150D01*
X6322444Y-6728484D02*
X6322444Y-6899912D01*
X6322444Y-6899912D02*
X6331968Y-6918960D01*
X6331968Y-6918960D02*
X6351015Y-6928484D01*
X6351015Y-6928484D02*
X6370063Y-6928484D01*
X6427206Y-6918960D02*
X6446254Y-6928484D01*
X6446254Y-6928484D02*
X6484349Y-6928484D01*
X6484349Y-6928484D02*
X6503396Y-6918960D01*
X6503396Y-6918960D02*
X6512920Y-6899912D01*
X6512920Y-6899912D02*
X6512920Y-6890388D01*
X6512920Y-6890388D02*
X6503396Y-6871341D01*
X6503396Y-6871341D02*
X6484349Y-6861817D01*
X6484349Y-6861817D02*
X6455777Y-6861817D01*
X6455777Y-6861817D02*
X6436730Y-6852293D01*
X6436730Y-6852293D02*
X6427206Y-6833246D01*
X6427206Y-6833246D02*
X6427206Y-6823722D01*
X6427206Y-6823722D02*
X6436730Y-6804674D01*
X6436730Y-6804674D02*
X6455777Y-6795150D01*
X6455777Y-6795150D02*
X6484349Y-6795150D01*
X6484349Y-6795150D02*
X6503396Y-6804674D01*
X6579587Y-7004674D02*
X6589111Y-6995150D01*
X6589111Y-6995150D02*
X6608158Y-6966579D01*
X6608158Y-6966579D02*
X6617682Y-6947531D01*
X6617682Y-6947531D02*
X6627206Y-6918960D01*
X6627206Y-6918960D02*
X6636730Y-6871341D01*
X6636730Y-6871341D02*
X6636730Y-6833246D01*
X6636730Y-6833246D02*
X6627206Y-6785627D01*
X6627206Y-6785627D02*
X6617682Y-6757055D01*
X6617682Y-6757055D02*
X6608158Y-6738008D01*
X6608158Y-6738008D02*
X6589111Y-6709436D01*
X6589111Y-6709436D02*
X6579587Y-6699912D01*
D12*
X-80000Y-7176000D02*
X-5000Y-7101000D01*
X-80000Y-7026000D01*
X-155000Y-7101000D01*
X-80000Y-7176000D01*
D11*
X360539Y-7192484D02*
X246253Y-7192484D01*
X303396Y-7192484D02*
X303396Y-6992484D01*
X303396Y-6992484D02*
X284348Y-7021055D01*
X284348Y-7021055D02*
X265301Y-7040103D01*
X265301Y-7040103D02*
X246253Y-7049627D01*
X446253Y-7173436D02*
X455777Y-7182960D01*
X455777Y-7182960D02*
X446253Y-7192484D01*
X446253Y-7192484D02*
X436729Y-7182960D01*
X436729Y-7182960D02*
X446253Y-7173436D01*
X446253Y-7173436D02*
X446253Y-7192484D01*
X636729Y-6992484D02*
X541491Y-6992484D01*
X541491Y-6992484D02*
X531967Y-7087722D01*
X531967Y-7087722D02*
X541491Y-7078198D01*
X541491Y-7078198D02*
X560539Y-7068674D01*
X560539Y-7068674D02*
X608158Y-7068674D01*
X608158Y-7068674D02*
X627205Y-7078198D01*
X627205Y-7078198D02*
X636729Y-7087722D01*
X636729Y-7087722D02*
X646253Y-7106769D01*
X646253Y-7106769D02*
X646253Y-7154388D01*
X646253Y-7154388D02*
X636729Y-7173436D01*
X636729Y-7173436D02*
X627205Y-7182960D01*
X627205Y-7182960D02*
X608158Y-7192484D01*
X608158Y-7192484D02*
X560539Y-7192484D01*
X560539Y-7192484D02*
X541491Y-7182960D01*
X541491Y-7182960D02*
X531967Y-7173436D01*
X770062Y-6992484D02*
X789110Y-6992484D01*
X789110Y-6992484D02*
X808158Y-7002008D01*
X808158Y-7002008D02*
X817682Y-7011531D01*
X817682Y-7011531D02*
X827205Y-7030579D01*
X827205Y-7030579D02*
X836729Y-7068674D01*
X836729Y-7068674D02*
X836729Y-7116293D01*
X836729Y-7116293D02*
X827205Y-7154388D01*
X827205Y-7154388D02*
X817682Y-7173436D01*
X817682Y-7173436D02*
X808158Y-7182960D01*
X808158Y-7182960D02*
X789110Y-7192484D01*
X789110Y-7192484D02*
X770062Y-7192484D01*
X770062Y-7192484D02*
X751015Y-7182960D01*
X751015Y-7182960D02*
X741491Y-7173436D01*
X741491Y-7173436D02*
X731967Y-7154388D01*
X731967Y-7154388D02*
X722443Y-7116293D01*
X722443Y-7116293D02*
X722443Y-7068674D01*
X722443Y-7068674D02*
X731967Y-7030579D01*
X731967Y-7030579D02*
X741491Y-7011531D01*
X741491Y-7011531D02*
X751015Y-7002008D01*
X751015Y-7002008D02*
X770062Y-6992484D01*
X960539Y-6992484D02*
X979586Y-6992484D01*
X979586Y-6992484D02*
X998634Y-7002008D01*
X998634Y-7002008D02*
X1008158Y-7011531D01*
X1008158Y-7011531D02*
X1017682Y-7030579D01*
X1017682Y-7030579D02*
X1027205Y-7068674D01*
X1027205Y-7068674D02*
X1027205Y-7116293D01*
X1027205Y-7116293D02*
X1017682Y-7154388D01*
X1017682Y-7154388D02*
X1008158Y-7173436D01*
X1008158Y-7173436D02*
X998634Y-7182960D01*
X998634Y-7182960D02*
X979586Y-7192484D01*
X979586Y-7192484D02*
X960539Y-7192484D01*
X960539Y-7192484D02*
X941491Y-7182960D01*
X941491Y-7182960D02*
X931967Y-7173436D01*
X931967Y-7173436D02*
X922443Y-7154388D01*
X922443Y-7154388D02*
X912920Y-7116293D01*
X912920Y-7116293D02*
X912920Y-7068674D01*
X912920Y-7068674D02*
X922443Y-7030579D01*
X922443Y-7030579D02*
X931967Y-7011531D01*
X931967Y-7011531D02*
X941491Y-7002008D01*
X941491Y-7002008D02*
X960539Y-6992484D01*
X1112920Y-7192484D02*
X1112920Y-7059150D01*
X1112920Y-7078198D02*
X1122444Y-7068674D01*
X1122444Y-7068674D02*
X1141491Y-7059150D01*
X1141491Y-7059150D02*
X1170063Y-7059150D01*
X1170063Y-7059150D02*
X1189110Y-7068674D01*
X1189110Y-7068674D02*
X1198634Y-7087722D01*
X1198634Y-7087722D02*
X1198634Y-7192484D01*
X1198634Y-7087722D02*
X1208158Y-7068674D01*
X1208158Y-7068674D02*
X1227205Y-7059150D01*
X1227205Y-7059150D02*
X1255777Y-7059150D01*
X1255777Y-7059150D02*
X1274825Y-7068674D01*
X1274825Y-7068674D02*
X1284348Y-7087722D01*
X1284348Y-7087722D02*
X1284348Y-7192484D01*
X1379586Y-7192484D02*
X1379586Y-7059150D01*
X1379586Y-7078198D02*
X1389110Y-7068674D01*
X1389110Y-7068674D02*
X1408158Y-7059150D01*
X1408158Y-7059150D02*
X1436729Y-7059150D01*
X1436729Y-7059150D02*
X1455777Y-7068674D01*
X1455777Y-7068674D02*
X1465301Y-7087722D01*
X1465301Y-7087722D02*
X1465301Y-7192484D01*
X1465301Y-7087722D02*
X1474824Y-7068674D01*
X1474824Y-7068674D02*
X1493872Y-7059150D01*
X1493872Y-7059150D02*
X1522443Y-7059150D01*
X1522443Y-7059150D02*
X1541491Y-7068674D01*
X1541491Y-7068674D02*
X1551015Y-7087722D01*
X1551015Y-7087722D02*
X1551015Y-7192484D01*
X1941491Y-6982960D02*
X1770063Y-7240103D01*
X2198634Y-6992484D02*
X2217682Y-6992484D01*
X2217682Y-6992484D02*
X2236729Y-7002008D01*
X2236729Y-7002008D02*
X2246253Y-7011531D01*
X2246253Y-7011531D02*
X2255777Y-7030579D01*
X2255777Y-7030579D02*
X2265301Y-7068674D01*
X2265301Y-7068674D02*
X2265301Y-7116293D01*
X2265301Y-7116293D02*
X2255777Y-7154388D01*
X2255777Y-7154388D02*
X2246253Y-7173436D01*
X2246253Y-7173436D02*
X2236729Y-7182960D01*
X2236729Y-7182960D02*
X2217682Y-7192484D01*
X2217682Y-7192484D02*
X2198634Y-7192484D01*
X2198634Y-7192484D02*
X2179587Y-7182960D01*
X2179587Y-7182960D02*
X2170063Y-7173436D01*
X2170063Y-7173436D02*
X2160539Y-7154388D01*
X2160539Y-7154388D02*
X2151015Y-7116293D01*
X2151015Y-7116293D02*
X2151015Y-7068674D01*
X2151015Y-7068674D02*
X2160539Y-7030579D01*
X2160539Y-7030579D02*
X2170063Y-7011531D01*
X2170063Y-7011531D02*
X2179587Y-7002008D01*
X2179587Y-7002008D02*
X2198634Y-6992484D01*
X2351015Y-7173436D02*
X2360539Y-7182960D01*
X2360539Y-7182960D02*
X2351015Y-7192484D01*
X2351015Y-7192484D02*
X2341491Y-7182960D01*
X2341491Y-7182960D02*
X2351015Y-7173436D01*
X2351015Y-7173436D02*
X2351015Y-7192484D01*
X2484348Y-6992484D02*
X2503396Y-6992484D01*
X2503396Y-6992484D02*
X2522444Y-7002008D01*
X2522444Y-7002008D02*
X2531968Y-7011531D01*
X2531968Y-7011531D02*
X2541491Y-7030579D01*
X2541491Y-7030579D02*
X2551015Y-7068674D01*
X2551015Y-7068674D02*
X2551015Y-7116293D01*
X2551015Y-7116293D02*
X2541491Y-7154388D01*
X2541491Y-7154388D02*
X2531968Y-7173436D01*
X2531968Y-7173436D02*
X2522444Y-7182960D01*
X2522444Y-7182960D02*
X2503396Y-7192484D01*
X2503396Y-7192484D02*
X2484348Y-7192484D01*
X2484348Y-7192484D02*
X2465301Y-7182960D01*
X2465301Y-7182960D02*
X2455777Y-7173436D01*
X2455777Y-7173436D02*
X2446253Y-7154388D01*
X2446253Y-7154388D02*
X2436729Y-7116293D01*
X2436729Y-7116293D02*
X2436729Y-7068674D01*
X2436729Y-7068674D02*
X2446253Y-7030579D01*
X2446253Y-7030579D02*
X2455777Y-7011531D01*
X2455777Y-7011531D02*
X2465301Y-7002008D01*
X2465301Y-7002008D02*
X2484348Y-6992484D01*
X2731968Y-6992484D02*
X2636729Y-6992484D01*
X2636729Y-6992484D02*
X2627206Y-7087722D01*
X2627206Y-7087722D02*
X2636729Y-7078198D01*
X2636729Y-7078198D02*
X2655777Y-7068674D01*
X2655777Y-7068674D02*
X2703396Y-7068674D01*
X2703396Y-7068674D02*
X2722444Y-7078198D01*
X2722444Y-7078198D02*
X2731968Y-7087722D01*
X2731968Y-7087722D02*
X2741491Y-7106769D01*
X2741491Y-7106769D02*
X2741491Y-7154388D01*
X2741491Y-7154388D02*
X2731968Y-7173436D01*
X2731968Y-7173436D02*
X2722444Y-7182960D01*
X2722444Y-7182960D02*
X2703396Y-7192484D01*
X2703396Y-7192484D02*
X2655777Y-7192484D01*
X2655777Y-7192484D02*
X2636729Y-7182960D01*
X2636729Y-7182960D02*
X2627206Y-7173436D01*
X2836729Y-7192484D02*
X2874825Y-7192484D01*
X2874825Y-7192484D02*
X2893872Y-7182960D01*
X2893872Y-7182960D02*
X2903396Y-7173436D01*
X2903396Y-7173436D02*
X2922444Y-7144865D01*
X2922444Y-7144865D02*
X2931967Y-7106769D01*
X2931967Y-7106769D02*
X2931967Y-7030579D01*
X2931967Y-7030579D02*
X2922444Y-7011531D01*
X2922444Y-7011531D02*
X2912920Y-7002008D01*
X2912920Y-7002008D02*
X2893872Y-6992484D01*
X2893872Y-6992484D02*
X2855777Y-6992484D01*
X2855777Y-6992484D02*
X2836729Y-7002008D01*
X2836729Y-7002008D02*
X2827206Y-7011531D01*
X2827206Y-7011531D02*
X2817682Y-7030579D01*
X2817682Y-7030579D02*
X2817682Y-7078198D01*
X2817682Y-7078198D02*
X2827206Y-7097246D01*
X2827206Y-7097246D02*
X2836729Y-7106769D01*
X2836729Y-7106769D02*
X2855777Y-7116293D01*
X2855777Y-7116293D02*
X2893872Y-7116293D01*
X2893872Y-7116293D02*
X2912920Y-7106769D01*
X2912920Y-7106769D02*
X2922444Y-7097246D01*
X2922444Y-7097246D02*
X2931967Y-7078198D01*
X3122444Y-7192484D02*
X3008158Y-7192484D01*
X3065301Y-7192484D02*
X3065301Y-6992484D01*
X3065301Y-6992484D02*
X3046253Y-7021055D01*
X3046253Y-7021055D02*
X3027206Y-7040103D01*
X3027206Y-7040103D02*
X3008158Y-7049627D01*
X3198634Y-6992484D02*
X3198634Y-7030579D01*
X3274825Y-6992484D02*
X3274825Y-7030579D01*
X3570063Y-7268674D02*
X3560539Y-7259150D01*
X3560539Y-7259150D02*
X3541491Y-7230579D01*
X3541491Y-7230579D02*
X3531968Y-7211531D01*
X3531968Y-7211531D02*
X3522444Y-7182960D01*
X3522444Y-7182960D02*
X3512920Y-7135341D01*
X3512920Y-7135341D02*
X3512920Y-7097246D01*
X3512920Y-7097246D02*
X3522444Y-7049627D01*
X3522444Y-7049627D02*
X3531968Y-7021055D01*
X3531968Y-7021055D02*
X3541491Y-7002008D01*
X3541491Y-7002008D02*
X3560539Y-6973436D01*
X3560539Y-6973436D02*
X3570063Y-6963912D01*
X3684348Y-6992484D02*
X3703396Y-6992484D01*
X3703396Y-6992484D02*
X3722444Y-7002008D01*
X3722444Y-7002008D02*
X3731968Y-7011531D01*
X3731968Y-7011531D02*
X3741491Y-7030579D01*
X3741491Y-7030579D02*
X3751015Y-7068674D01*
X3751015Y-7068674D02*
X3751015Y-7116293D01*
X3751015Y-7116293D02*
X3741491Y-7154388D01*
X3741491Y-7154388D02*
X3731968Y-7173436D01*
X3731968Y-7173436D02*
X3722444Y-7182960D01*
X3722444Y-7182960D02*
X3703396Y-7192484D01*
X3703396Y-7192484D02*
X3684348Y-7192484D01*
X3684348Y-7192484D02*
X3665301Y-7182960D01*
X3665301Y-7182960D02*
X3655777Y-7173436D01*
X3655777Y-7173436D02*
X3646253Y-7154388D01*
X3646253Y-7154388D02*
X3636729Y-7116293D01*
X3636729Y-7116293D02*
X3636729Y-7068674D01*
X3636729Y-7068674D02*
X3646253Y-7030579D01*
X3646253Y-7030579D02*
X3655777Y-7011531D01*
X3655777Y-7011531D02*
X3665301Y-7002008D01*
X3665301Y-7002008D02*
X3684348Y-6992484D01*
X3989110Y-7192484D02*
X3989110Y-6992484D01*
X4074825Y-7192484D02*
X4074825Y-7087722D01*
X4074825Y-7087722D02*
X4065301Y-7068674D01*
X4065301Y-7068674D02*
X4046253Y-7059150D01*
X4046253Y-7059150D02*
X4017682Y-7059150D01*
X4017682Y-7059150D02*
X3998634Y-7068674D01*
X3998634Y-7068674D02*
X3989110Y-7078198D01*
X4198634Y-7192484D02*
X4179587Y-7182960D01*
X4179587Y-7182960D02*
X4170063Y-7173436D01*
X4170063Y-7173436D02*
X4160539Y-7154388D01*
X4160539Y-7154388D02*
X4160539Y-7097246D01*
X4160539Y-7097246D02*
X4170063Y-7078198D01*
X4170063Y-7078198D02*
X4179587Y-7068674D01*
X4179587Y-7068674D02*
X4198634Y-7059150D01*
X4198634Y-7059150D02*
X4227206Y-7059150D01*
X4227206Y-7059150D02*
X4246253Y-7068674D01*
X4246253Y-7068674D02*
X4255777Y-7078198D01*
X4255777Y-7078198D02*
X4265301Y-7097246D01*
X4265301Y-7097246D02*
X4265301Y-7154388D01*
X4265301Y-7154388D02*
X4255777Y-7173436D01*
X4255777Y-7173436D02*
X4246253Y-7182960D01*
X4246253Y-7182960D02*
X4227206Y-7192484D01*
X4227206Y-7192484D02*
X4198634Y-7192484D01*
X4379587Y-7192484D02*
X4360539Y-7182960D01*
X4360539Y-7182960D02*
X4351015Y-7163912D01*
X4351015Y-7163912D02*
X4351015Y-6992484D01*
X4531968Y-7182960D02*
X4512920Y-7192484D01*
X4512920Y-7192484D02*
X4474825Y-7192484D01*
X4474825Y-7192484D02*
X4455777Y-7182960D01*
X4455777Y-7182960D02*
X4446253Y-7163912D01*
X4446253Y-7163912D02*
X4446253Y-7087722D01*
X4446253Y-7087722D02*
X4455777Y-7068674D01*
X4455777Y-7068674D02*
X4474825Y-7059150D01*
X4474825Y-7059150D02*
X4512920Y-7059150D01*
X4512920Y-7059150D02*
X4531968Y-7068674D01*
X4531968Y-7068674D02*
X4541492Y-7087722D01*
X4541492Y-7087722D02*
X4541492Y-7106769D01*
X4541492Y-7106769D02*
X4446253Y-7125817D01*
X4617682Y-7182960D02*
X4636730Y-7192484D01*
X4636730Y-7192484D02*
X4674825Y-7192484D01*
X4674825Y-7192484D02*
X4693873Y-7182960D01*
X4693873Y-7182960D02*
X4703396Y-7163912D01*
X4703396Y-7163912D02*
X4703396Y-7154388D01*
X4703396Y-7154388D02*
X4693873Y-7135341D01*
X4693873Y-7135341D02*
X4674825Y-7125817D01*
X4674825Y-7125817D02*
X4646253Y-7125817D01*
X4646253Y-7125817D02*
X4627206Y-7116293D01*
X4627206Y-7116293D02*
X4617682Y-7097246D01*
X4617682Y-7097246D02*
X4617682Y-7087722D01*
X4617682Y-7087722D02*
X4627206Y-7068674D01*
X4627206Y-7068674D02*
X4646253Y-7059150D01*
X4646253Y-7059150D02*
X4674825Y-7059150D01*
X4674825Y-7059150D02*
X4693873Y-7068674D01*
X4941492Y-7116293D02*
X5093873Y-7116293D01*
X5017682Y-7192484D02*
X5017682Y-7040103D01*
X5331968Y-7011531D02*
X5341492Y-7002008D01*
X5341492Y-7002008D02*
X5360539Y-6992484D01*
X5360539Y-6992484D02*
X5408158Y-6992484D01*
X5408158Y-6992484D02*
X5427206Y-7002008D01*
X5427206Y-7002008D02*
X5436730Y-7011531D01*
X5436730Y-7011531D02*
X5446254Y-7030579D01*
X5446254Y-7030579D02*
X5446254Y-7049627D01*
X5446254Y-7049627D02*
X5436730Y-7078198D01*
X5436730Y-7078198D02*
X5322444Y-7192484D01*
X5322444Y-7192484D02*
X5446254Y-7192484D01*
X5674825Y-7182960D02*
X5693873Y-7192484D01*
X5693873Y-7192484D02*
X5731968Y-7192484D01*
X5731968Y-7192484D02*
X5751015Y-7182960D01*
X5751015Y-7182960D02*
X5760539Y-7163912D01*
X5760539Y-7163912D02*
X5760539Y-7154388D01*
X5760539Y-7154388D02*
X5751015Y-7135341D01*
X5751015Y-7135341D02*
X5731968Y-7125817D01*
X5731968Y-7125817D02*
X5703396Y-7125817D01*
X5703396Y-7125817D02*
X5684349Y-7116293D01*
X5684349Y-7116293D02*
X5674825Y-7097246D01*
X5674825Y-7097246D02*
X5674825Y-7087722D01*
X5674825Y-7087722D02*
X5684349Y-7068674D01*
X5684349Y-7068674D02*
X5703396Y-7059150D01*
X5703396Y-7059150D02*
X5731968Y-7059150D01*
X5731968Y-7059150D02*
X5751015Y-7068674D01*
X5874825Y-7192484D02*
X5855777Y-7182960D01*
X5855777Y-7182960D02*
X5846254Y-7163912D01*
X5846254Y-7163912D02*
X5846254Y-6992484D01*
X5979587Y-7192484D02*
X5960539Y-7182960D01*
X5960539Y-7182960D02*
X5951015Y-7173436D01*
X5951015Y-7173436D02*
X5941492Y-7154388D01*
X5941492Y-7154388D02*
X5941492Y-7097246D01*
X5941492Y-7097246D02*
X5951015Y-7078198D01*
X5951015Y-7078198D02*
X5960539Y-7068674D01*
X5960539Y-7068674D02*
X5979587Y-7059150D01*
X5979587Y-7059150D02*
X6008158Y-7059150D01*
X6008158Y-7059150D02*
X6027206Y-7068674D01*
X6027206Y-7068674D02*
X6036730Y-7078198D01*
X6036730Y-7078198D02*
X6046254Y-7097246D01*
X6046254Y-7097246D02*
X6046254Y-7154388D01*
X6046254Y-7154388D02*
X6036730Y-7173436D01*
X6036730Y-7173436D02*
X6027206Y-7182960D01*
X6027206Y-7182960D02*
X6008158Y-7192484D01*
X6008158Y-7192484D02*
X5979587Y-7192484D01*
X6103396Y-7059150D02*
X6179587Y-7059150D01*
X6131968Y-6992484D02*
X6131968Y-7163912D01*
X6131968Y-7163912D02*
X6141492Y-7182960D01*
X6141492Y-7182960D02*
X6160539Y-7192484D01*
X6160539Y-7192484D02*
X6179587Y-7192484D01*
X6236730Y-7182960D02*
X6255777Y-7192484D01*
X6255777Y-7192484D02*
X6293873Y-7192484D01*
X6293873Y-7192484D02*
X6312920Y-7182960D01*
X6312920Y-7182960D02*
X6322444Y-7163912D01*
X6322444Y-7163912D02*
X6322444Y-7154388D01*
X6322444Y-7154388D02*
X6312920Y-7135341D01*
X6312920Y-7135341D02*
X6293873Y-7125817D01*
X6293873Y-7125817D02*
X6265301Y-7125817D01*
X6265301Y-7125817D02*
X6246254Y-7116293D01*
X6246254Y-7116293D02*
X6236730Y-7097246D01*
X6236730Y-7097246D02*
X6236730Y-7087722D01*
X6236730Y-7087722D02*
X6246254Y-7068674D01*
X6246254Y-7068674D02*
X6265301Y-7059150D01*
X6265301Y-7059150D02*
X6293873Y-7059150D01*
X6293873Y-7059150D02*
X6312920Y-7068674D01*
X6389111Y-7268674D02*
X6398635Y-7259150D01*
X6398635Y-7259150D02*
X6417682Y-7230579D01*
X6417682Y-7230579D02*
X6427206Y-7211531D01*
X6427206Y-7211531D02*
X6436730Y-7182960D01*
X6436730Y-7182960D02*
X6446254Y-7135341D01*
X6446254Y-7135341D02*
X6446254Y-7097246D01*
X6446254Y-7097246D02*
X6436730Y-7049627D01*
X6436730Y-7049627D02*
X6427206Y-7021055D01*
X6427206Y-7021055D02*
X6417682Y-7002008D01*
X6417682Y-7002008D02*
X6398635Y-6973436D01*
X6398635Y-6973436D02*
X6389111Y-6963912D01*
D10*
X-70000Y-7338500D02*
X-5000Y-7403500D01*
X-5000Y-7338500D02*
X-70000Y-7403500D01*
X-5000Y-7371000D02*
G75*
G02*
X-70000Y-7371000I-32500J0D01*
G01*
X-70000Y-7371000D02*
G75*
G02*
X-5000Y-7371000I32500J0D01*
G01*
D11*
X293872Y-7262484D02*
X312920Y-7262484D01*
X312920Y-7262484D02*
X331967Y-7272008D01*
X331967Y-7272008D02*
X341491Y-7281531D01*
X341491Y-7281531D02*
X351015Y-7300579D01*
X351015Y-7300579D02*
X360539Y-7338674D01*
X360539Y-7338674D02*
X360539Y-7386293D01*
X360539Y-7386293D02*
X351015Y-7424388D01*
X351015Y-7424388D02*
X341491Y-7443436D01*
X341491Y-7443436D02*
X331967Y-7452960D01*
X331967Y-7452960D02*
X312920Y-7462484D01*
X312920Y-7462484D02*
X293872Y-7462484D01*
X293872Y-7462484D02*
X274824Y-7452960D01*
X274824Y-7452960D02*
X265301Y-7443436D01*
X265301Y-7443436D02*
X255777Y-7424388D01*
X255777Y-7424388D02*
X246253Y-7386293D01*
X246253Y-7386293D02*
X246253Y-7338674D01*
X246253Y-7338674D02*
X255777Y-7300579D01*
X255777Y-7300579D02*
X265301Y-7281531D01*
X265301Y-7281531D02*
X274824Y-7272008D01*
X274824Y-7272008D02*
X293872Y-7262484D01*
X446253Y-7443436D02*
X455777Y-7452960D01*
X455777Y-7452960D02*
X446253Y-7462484D01*
X446253Y-7462484D02*
X436729Y-7452960D01*
X436729Y-7452960D02*
X446253Y-7443436D01*
X446253Y-7443436D02*
X446253Y-7462484D01*
X627205Y-7262484D02*
X589110Y-7262484D01*
X589110Y-7262484D02*
X570063Y-7272008D01*
X570063Y-7272008D02*
X560539Y-7281531D01*
X560539Y-7281531D02*
X541491Y-7310103D01*
X541491Y-7310103D02*
X531967Y-7348198D01*
X531967Y-7348198D02*
X531967Y-7424388D01*
X531967Y-7424388D02*
X541491Y-7443436D01*
X541491Y-7443436D02*
X551015Y-7452960D01*
X551015Y-7452960D02*
X570063Y-7462484D01*
X570063Y-7462484D02*
X608158Y-7462484D01*
X608158Y-7462484D02*
X627205Y-7452960D01*
X627205Y-7452960D02*
X636729Y-7443436D01*
X636729Y-7443436D02*
X646253Y-7424388D01*
X646253Y-7424388D02*
X646253Y-7376769D01*
X646253Y-7376769D02*
X636729Y-7357722D01*
X636729Y-7357722D02*
X627205Y-7348198D01*
X627205Y-7348198D02*
X608158Y-7338674D01*
X608158Y-7338674D02*
X570063Y-7338674D01*
X570063Y-7338674D02*
X551015Y-7348198D01*
X551015Y-7348198D02*
X541491Y-7357722D01*
X541491Y-7357722D02*
X531967Y-7376769D01*
X827205Y-7262484D02*
X731967Y-7262484D01*
X731967Y-7262484D02*
X722443Y-7357722D01*
X722443Y-7357722D02*
X731967Y-7348198D01*
X731967Y-7348198D02*
X751015Y-7338674D01*
X751015Y-7338674D02*
X798634Y-7338674D01*
X798634Y-7338674D02*
X817682Y-7348198D01*
X817682Y-7348198D02*
X827205Y-7357722D01*
X827205Y-7357722D02*
X836729Y-7376769D01*
X836729Y-7376769D02*
X836729Y-7424388D01*
X836729Y-7424388D02*
X827205Y-7443436D01*
X827205Y-7443436D02*
X817682Y-7452960D01*
X817682Y-7452960D02*
X798634Y-7462484D01*
X798634Y-7462484D02*
X751015Y-7462484D01*
X751015Y-7462484D02*
X731967Y-7452960D01*
X731967Y-7452960D02*
X722443Y-7443436D01*
X960539Y-7262484D02*
X979586Y-7262484D01*
X979586Y-7262484D02*
X998634Y-7272008D01*
X998634Y-7272008D02*
X1008158Y-7281531D01*
X1008158Y-7281531D02*
X1017682Y-7300579D01*
X1017682Y-7300579D02*
X1027205Y-7338674D01*
X1027205Y-7338674D02*
X1027205Y-7386293D01*
X1027205Y-7386293D02*
X1017682Y-7424388D01*
X1017682Y-7424388D02*
X1008158Y-7443436D01*
X1008158Y-7443436D02*
X998634Y-7452960D01*
X998634Y-7452960D02*
X979586Y-7462484D01*
X979586Y-7462484D02*
X960539Y-7462484D01*
X960539Y-7462484D02*
X941491Y-7452960D01*
X941491Y-7452960D02*
X931967Y-7443436D01*
X931967Y-7443436D02*
X922443Y-7424388D01*
X922443Y-7424388D02*
X912920Y-7386293D01*
X912920Y-7386293D02*
X912920Y-7338674D01*
X912920Y-7338674D02*
X922443Y-7300579D01*
X922443Y-7300579D02*
X931967Y-7281531D01*
X931967Y-7281531D02*
X941491Y-7272008D01*
X941491Y-7272008D02*
X960539Y-7262484D01*
X1112920Y-7462484D02*
X1112920Y-7329150D01*
X1112920Y-7348198D02*
X1122444Y-7338674D01*
X1122444Y-7338674D02*
X1141491Y-7329150D01*
X1141491Y-7329150D02*
X1170063Y-7329150D01*
X1170063Y-7329150D02*
X1189110Y-7338674D01*
X1189110Y-7338674D02*
X1198634Y-7357722D01*
X1198634Y-7357722D02*
X1198634Y-7462484D01*
X1198634Y-7357722D02*
X1208158Y-7338674D01*
X1208158Y-7338674D02*
X1227205Y-7329150D01*
X1227205Y-7329150D02*
X1255777Y-7329150D01*
X1255777Y-7329150D02*
X1274825Y-7338674D01*
X1274825Y-7338674D02*
X1284348Y-7357722D01*
X1284348Y-7357722D02*
X1284348Y-7462484D01*
X1379586Y-7462484D02*
X1379586Y-7329150D01*
X1379586Y-7348198D02*
X1389110Y-7338674D01*
X1389110Y-7338674D02*
X1408158Y-7329150D01*
X1408158Y-7329150D02*
X1436729Y-7329150D01*
X1436729Y-7329150D02*
X1455777Y-7338674D01*
X1455777Y-7338674D02*
X1465301Y-7357722D01*
X1465301Y-7357722D02*
X1465301Y-7462484D01*
X1465301Y-7357722D02*
X1474824Y-7338674D01*
X1474824Y-7338674D02*
X1493872Y-7329150D01*
X1493872Y-7329150D02*
X1522443Y-7329150D01*
X1522443Y-7329150D02*
X1541491Y-7338674D01*
X1541491Y-7338674D02*
X1551015Y-7357722D01*
X1551015Y-7357722D02*
X1551015Y-7462484D01*
X1941491Y-7252960D02*
X1770063Y-7510103D01*
X2198634Y-7262484D02*
X2217682Y-7262484D01*
X2217682Y-7262484D02*
X2236729Y-7272008D01*
X2236729Y-7272008D02*
X2246253Y-7281531D01*
X2246253Y-7281531D02*
X2255777Y-7300579D01*
X2255777Y-7300579D02*
X2265301Y-7338674D01*
X2265301Y-7338674D02*
X2265301Y-7386293D01*
X2265301Y-7386293D02*
X2255777Y-7424388D01*
X2255777Y-7424388D02*
X2246253Y-7443436D01*
X2246253Y-7443436D02*
X2236729Y-7452960D01*
X2236729Y-7452960D02*
X2217682Y-7462484D01*
X2217682Y-7462484D02*
X2198634Y-7462484D01*
X2198634Y-7462484D02*
X2179587Y-7452960D01*
X2179587Y-7452960D02*
X2170063Y-7443436D01*
X2170063Y-7443436D02*
X2160539Y-7424388D01*
X2160539Y-7424388D02*
X2151015Y-7386293D01*
X2151015Y-7386293D02*
X2151015Y-7338674D01*
X2151015Y-7338674D02*
X2160539Y-7300579D01*
X2160539Y-7300579D02*
X2170063Y-7281531D01*
X2170063Y-7281531D02*
X2179587Y-7272008D01*
X2179587Y-7272008D02*
X2198634Y-7262484D01*
X2351015Y-7443436D02*
X2360539Y-7452960D01*
X2360539Y-7452960D02*
X2351015Y-7462484D01*
X2351015Y-7462484D02*
X2341491Y-7452960D01*
X2341491Y-7452960D02*
X2351015Y-7443436D01*
X2351015Y-7443436D02*
X2351015Y-7462484D01*
X2484348Y-7262484D02*
X2503396Y-7262484D01*
X2503396Y-7262484D02*
X2522444Y-7272008D01*
X2522444Y-7272008D02*
X2531968Y-7281531D01*
X2531968Y-7281531D02*
X2541491Y-7300579D01*
X2541491Y-7300579D02*
X2551015Y-7338674D01*
X2551015Y-7338674D02*
X2551015Y-7386293D01*
X2551015Y-7386293D02*
X2541491Y-7424388D01*
X2541491Y-7424388D02*
X2531968Y-7443436D01*
X2531968Y-7443436D02*
X2522444Y-7452960D01*
X2522444Y-7452960D02*
X2503396Y-7462484D01*
X2503396Y-7462484D02*
X2484348Y-7462484D01*
X2484348Y-7462484D02*
X2465301Y-7452960D01*
X2465301Y-7452960D02*
X2455777Y-7443436D01*
X2455777Y-7443436D02*
X2446253Y-7424388D01*
X2446253Y-7424388D02*
X2436729Y-7386293D01*
X2436729Y-7386293D02*
X2436729Y-7338674D01*
X2436729Y-7338674D02*
X2446253Y-7300579D01*
X2446253Y-7300579D02*
X2455777Y-7281531D01*
X2455777Y-7281531D02*
X2465301Y-7272008D01*
X2465301Y-7272008D02*
X2484348Y-7262484D01*
X2627206Y-7281531D02*
X2636729Y-7272008D01*
X2636729Y-7272008D02*
X2655777Y-7262484D01*
X2655777Y-7262484D02*
X2703396Y-7262484D01*
X2703396Y-7262484D02*
X2722444Y-7272008D01*
X2722444Y-7272008D02*
X2731968Y-7281531D01*
X2731968Y-7281531D02*
X2741491Y-7300579D01*
X2741491Y-7300579D02*
X2741491Y-7319627D01*
X2741491Y-7319627D02*
X2731968Y-7348198D01*
X2731968Y-7348198D02*
X2617682Y-7462484D01*
X2617682Y-7462484D02*
X2741491Y-7462484D01*
X2922444Y-7262484D02*
X2827206Y-7262484D01*
X2827206Y-7262484D02*
X2817682Y-7357722D01*
X2817682Y-7357722D02*
X2827206Y-7348198D01*
X2827206Y-7348198D02*
X2846253Y-7338674D01*
X2846253Y-7338674D02*
X2893872Y-7338674D01*
X2893872Y-7338674D02*
X2912920Y-7348198D01*
X2912920Y-7348198D02*
X2922444Y-7357722D01*
X2922444Y-7357722D02*
X2931967Y-7376769D01*
X2931967Y-7376769D02*
X2931967Y-7424388D01*
X2931967Y-7424388D02*
X2922444Y-7443436D01*
X2922444Y-7443436D02*
X2912920Y-7452960D01*
X2912920Y-7452960D02*
X2893872Y-7462484D01*
X2893872Y-7462484D02*
X2846253Y-7462484D01*
X2846253Y-7462484D02*
X2827206Y-7452960D01*
X2827206Y-7452960D02*
X2817682Y-7443436D01*
X3103396Y-7262484D02*
X3065301Y-7262484D01*
X3065301Y-7262484D02*
X3046253Y-7272008D01*
X3046253Y-7272008D02*
X3036729Y-7281531D01*
X3036729Y-7281531D02*
X3017682Y-7310103D01*
X3017682Y-7310103D02*
X3008158Y-7348198D01*
X3008158Y-7348198D02*
X3008158Y-7424388D01*
X3008158Y-7424388D02*
X3017682Y-7443436D01*
X3017682Y-7443436D02*
X3027206Y-7452960D01*
X3027206Y-7452960D02*
X3046253Y-7462484D01*
X3046253Y-7462484D02*
X3084348Y-7462484D01*
X3084348Y-7462484D02*
X3103396Y-7452960D01*
X3103396Y-7452960D02*
X3112920Y-7443436D01*
X3112920Y-7443436D02*
X3122444Y-7424388D01*
X3122444Y-7424388D02*
X3122444Y-7376769D01*
X3122444Y-7376769D02*
X3112920Y-7357722D01*
X3112920Y-7357722D02*
X3103396Y-7348198D01*
X3103396Y-7348198D02*
X3084348Y-7338674D01*
X3084348Y-7338674D02*
X3046253Y-7338674D01*
X3046253Y-7338674D02*
X3027206Y-7348198D01*
X3027206Y-7348198D02*
X3017682Y-7357722D01*
X3017682Y-7357722D02*
X3008158Y-7376769D01*
X3198634Y-7262484D02*
X3198634Y-7300579D01*
X3274825Y-7262484D02*
X3274825Y-7300579D01*
X3570063Y-7538674D02*
X3560539Y-7529150D01*
X3560539Y-7529150D02*
X3541491Y-7500579D01*
X3541491Y-7500579D02*
X3531968Y-7481531D01*
X3531968Y-7481531D02*
X3522444Y-7452960D01*
X3522444Y-7452960D02*
X3512920Y-7405341D01*
X3512920Y-7405341D02*
X3512920Y-7367246D01*
X3512920Y-7367246D02*
X3522444Y-7319627D01*
X3522444Y-7319627D02*
X3531968Y-7291055D01*
X3531968Y-7291055D02*
X3541491Y-7272008D01*
X3541491Y-7272008D02*
X3560539Y-7243436D01*
X3560539Y-7243436D02*
X3570063Y-7233912D01*
X3636729Y-7281531D02*
X3646253Y-7272008D01*
X3646253Y-7272008D02*
X3665301Y-7262484D01*
X3665301Y-7262484D02*
X3712920Y-7262484D01*
X3712920Y-7262484D02*
X3731968Y-7272008D01*
X3731968Y-7272008D02*
X3741491Y-7281531D01*
X3741491Y-7281531D02*
X3751015Y-7300579D01*
X3751015Y-7300579D02*
X3751015Y-7319627D01*
X3751015Y-7319627D02*
X3741491Y-7348198D01*
X3741491Y-7348198D02*
X3627206Y-7462484D01*
X3627206Y-7462484D02*
X3751015Y-7462484D01*
X3989110Y-7462484D02*
X3989110Y-7262484D01*
X4074825Y-7462484D02*
X4074825Y-7357722D01*
X4074825Y-7357722D02*
X4065301Y-7338674D01*
X4065301Y-7338674D02*
X4046253Y-7329150D01*
X4046253Y-7329150D02*
X4017682Y-7329150D01*
X4017682Y-7329150D02*
X3998634Y-7338674D01*
X3998634Y-7338674D02*
X3989110Y-7348198D01*
X4198634Y-7462484D02*
X4179587Y-7452960D01*
X4179587Y-7452960D02*
X4170063Y-7443436D01*
X4170063Y-7443436D02*
X4160539Y-7424388D01*
X4160539Y-7424388D02*
X4160539Y-7367246D01*
X4160539Y-7367246D02*
X4170063Y-7348198D01*
X4170063Y-7348198D02*
X4179587Y-7338674D01*
X4179587Y-7338674D02*
X4198634Y-7329150D01*
X4198634Y-7329150D02*
X4227206Y-7329150D01*
X4227206Y-7329150D02*
X4246253Y-7338674D01*
X4246253Y-7338674D02*
X4255777Y-7348198D01*
X4255777Y-7348198D02*
X4265301Y-7367246D01*
X4265301Y-7367246D02*
X4265301Y-7424388D01*
X4265301Y-7424388D02*
X4255777Y-7443436D01*
X4255777Y-7443436D02*
X4246253Y-7452960D01*
X4246253Y-7452960D02*
X4227206Y-7462484D01*
X4227206Y-7462484D02*
X4198634Y-7462484D01*
X4379587Y-7462484D02*
X4360539Y-7452960D01*
X4360539Y-7452960D02*
X4351015Y-7433912D01*
X4351015Y-7433912D02*
X4351015Y-7262484D01*
X4531968Y-7452960D02*
X4512920Y-7462484D01*
X4512920Y-7462484D02*
X4474825Y-7462484D01*
X4474825Y-7462484D02*
X4455777Y-7452960D01*
X4455777Y-7452960D02*
X4446253Y-7433912D01*
X4446253Y-7433912D02*
X4446253Y-7357722D01*
X4446253Y-7357722D02*
X4455777Y-7338674D01*
X4455777Y-7338674D02*
X4474825Y-7329150D01*
X4474825Y-7329150D02*
X4512920Y-7329150D01*
X4512920Y-7329150D02*
X4531968Y-7338674D01*
X4531968Y-7338674D02*
X4541492Y-7357722D01*
X4541492Y-7357722D02*
X4541492Y-7376769D01*
X4541492Y-7376769D02*
X4446253Y-7395817D01*
X4617682Y-7452960D02*
X4636730Y-7462484D01*
X4636730Y-7462484D02*
X4674825Y-7462484D01*
X4674825Y-7462484D02*
X4693873Y-7452960D01*
X4693873Y-7452960D02*
X4703396Y-7433912D01*
X4703396Y-7433912D02*
X4703396Y-7424388D01*
X4703396Y-7424388D02*
X4693873Y-7405341D01*
X4693873Y-7405341D02*
X4674825Y-7395817D01*
X4674825Y-7395817D02*
X4646253Y-7395817D01*
X4646253Y-7395817D02*
X4627206Y-7386293D01*
X4627206Y-7386293D02*
X4617682Y-7367246D01*
X4617682Y-7367246D02*
X4617682Y-7357722D01*
X4617682Y-7357722D02*
X4627206Y-7338674D01*
X4627206Y-7338674D02*
X4646253Y-7329150D01*
X4646253Y-7329150D02*
X4674825Y-7329150D01*
X4674825Y-7329150D02*
X4693873Y-7338674D01*
X4770063Y-7538674D02*
X4779587Y-7529150D01*
X4779587Y-7529150D02*
X4798634Y-7500579D01*
X4798634Y-7500579D02*
X4808158Y-7481531D01*
X4808158Y-7481531D02*
X4817682Y-7452960D01*
X4817682Y-7452960D02*
X4827206Y-7405341D01*
X4827206Y-7405341D02*
X4827206Y-7367246D01*
X4827206Y-7367246D02*
X4817682Y-7319627D01*
X4817682Y-7319627D02*
X4808158Y-7291055D01*
X4808158Y-7291055D02*
X4798634Y-7272008D01*
X4798634Y-7272008D02*
X4779587Y-7243436D01*
X4779587Y-7243436D02*
X4770063Y-7233912D01*
X5131968Y-7538674D02*
X5122444Y-7529150D01*
X5122444Y-7529150D02*
X5103396Y-7500579D01*
X5103396Y-7500579D02*
X5093873Y-7481531D01*
X5093873Y-7481531D02*
X5084349Y-7452960D01*
X5084349Y-7452960D02*
X5074825Y-7405341D01*
X5074825Y-7405341D02*
X5074825Y-7367246D01*
X5074825Y-7367246D02*
X5084349Y-7319627D01*
X5084349Y-7319627D02*
X5093873Y-7291055D01*
X5093873Y-7291055D02*
X5103396Y-7272008D01*
X5103396Y-7272008D02*
X5122444Y-7243436D01*
X5122444Y-7243436D02*
X5131968Y-7233912D01*
X5208158Y-7329150D02*
X5208158Y-7462484D01*
X5208158Y-7348198D02*
X5217682Y-7338674D01*
X5217682Y-7338674D02*
X5236730Y-7329150D01*
X5236730Y-7329150D02*
X5265301Y-7329150D01*
X5265301Y-7329150D02*
X5284349Y-7338674D01*
X5284349Y-7338674D02*
X5293873Y-7357722D01*
X5293873Y-7357722D02*
X5293873Y-7462484D01*
X5417682Y-7462484D02*
X5398634Y-7452960D01*
X5398634Y-7452960D02*
X5389111Y-7443436D01*
X5389111Y-7443436D02*
X5379587Y-7424388D01*
X5379587Y-7424388D02*
X5379587Y-7367246D01*
X5379587Y-7367246D02*
X5389111Y-7348198D01*
X5389111Y-7348198D02*
X5398634Y-7338674D01*
X5398634Y-7338674D02*
X5417682Y-7329150D01*
X5417682Y-7329150D02*
X5446254Y-7329150D01*
X5446254Y-7329150D02*
X5465301Y-7338674D01*
X5465301Y-7338674D02*
X5474825Y-7348198D01*
X5474825Y-7348198D02*
X5484349Y-7367246D01*
X5484349Y-7367246D02*
X5484349Y-7424388D01*
X5484349Y-7424388D02*
X5474825Y-7443436D01*
X5474825Y-7443436D02*
X5465301Y-7452960D01*
X5465301Y-7452960D02*
X5446254Y-7462484D01*
X5446254Y-7462484D02*
X5417682Y-7462484D01*
X5541492Y-7329150D02*
X5617682Y-7329150D01*
X5570063Y-7262484D02*
X5570063Y-7433912D01*
X5570063Y-7433912D02*
X5579587Y-7452960D01*
X5579587Y-7452960D02*
X5598634Y-7462484D01*
X5598634Y-7462484D02*
X5617682Y-7462484D01*
X5836730Y-7329150D02*
X5836730Y-7529150D01*
X5836730Y-7338674D02*
X5855777Y-7329150D01*
X5855777Y-7329150D02*
X5893873Y-7329150D01*
X5893873Y-7329150D02*
X5912920Y-7338674D01*
X5912920Y-7338674D02*
X5922444Y-7348198D01*
X5922444Y-7348198D02*
X5931968Y-7367246D01*
X5931968Y-7367246D02*
X5931968Y-7424388D01*
X5931968Y-7424388D02*
X5922444Y-7443436D01*
X5922444Y-7443436D02*
X5912920Y-7452960D01*
X5912920Y-7452960D02*
X5893873Y-7462484D01*
X5893873Y-7462484D02*
X5855777Y-7462484D01*
X5855777Y-7462484D02*
X5836730Y-7452960D01*
X6046253Y-7462484D02*
X6027206Y-7452960D01*
X6027206Y-7452960D02*
X6017682Y-7433912D01*
X6017682Y-7433912D02*
X6017682Y-7262484D01*
X6208158Y-7462484D02*
X6208158Y-7357722D01*
X6208158Y-7357722D02*
X6198634Y-7338674D01*
X6198634Y-7338674D02*
X6179587Y-7329150D01*
X6179587Y-7329150D02*
X6141492Y-7329150D01*
X6141492Y-7329150D02*
X6122444Y-7338674D01*
X6208158Y-7452960D02*
X6189111Y-7462484D01*
X6189111Y-7462484D02*
X6141492Y-7462484D01*
X6141492Y-7462484D02*
X6122444Y-7452960D01*
X6122444Y-7452960D02*
X6112920Y-7433912D01*
X6112920Y-7433912D02*
X6112920Y-7414865D01*
X6112920Y-7414865D02*
X6122444Y-7395817D01*
X6122444Y-7395817D02*
X6141492Y-7386293D01*
X6141492Y-7386293D02*
X6189111Y-7386293D01*
X6189111Y-7386293D02*
X6208158Y-7376769D01*
X6274825Y-7329150D02*
X6351015Y-7329150D01*
X6303396Y-7262484D02*
X6303396Y-7433912D01*
X6303396Y-7433912D02*
X6312920Y-7452960D01*
X6312920Y-7452960D02*
X6331968Y-7462484D01*
X6331968Y-7462484D02*
X6351015Y-7462484D01*
X6493873Y-7452960D02*
X6474825Y-7462484D01*
X6474825Y-7462484D02*
X6436730Y-7462484D01*
X6436730Y-7462484D02*
X6417682Y-7452960D01*
X6417682Y-7452960D02*
X6408158Y-7433912D01*
X6408158Y-7433912D02*
X6408158Y-7357722D01*
X6408158Y-7357722D02*
X6417682Y-7338674D01*
X6417682Y-7338674D02*
X6436730Y-7329150D01*
X6436730Y-7329150D02*
X6474825Y-7329150D01*
X6474825Y-7329150D02*
X6493873Y-7338674D01*
X6493873Y-7338674D02*
X6503396Y-7357722D01*
X6503396Y-7357722D02*
X6503396Y-7376769D01*
X6503396Y-7376769D02*
X6408158Y-7395817D01*
X6674825Y-7462484D02*
X6674825Y-7262484D01*
X6674825Y-7452960D02*
X6655777Y-7462484D01*
X6655777Y-7462484D02*
X6617682Y-7462484D01*
X6617682Y-7462484D02*
X6598634Y-7452960D01*
X6598634Y-7452960D02*
X6589111Y-7443436D01*
X6589111Y-7443436D02*
X6579587Y-7424388D01*
X6579587Y-7424388D02*
X6579587Y-7367246D01*
X6579587Y-7367246D02*
X6589111Y-7348198D01*
X6589111Y-7348198D02*
X6598634Y-7338674D01*
X6598634Y-7338674D02*
X6617682Y-7329150D01*
X6617682Y-7329150D02*
X6655777Y-7329150D01*
X6655777Y-7329150D02*
X6674825Y-7338674D01*
X6751015Y-7538674D02*
X6760539Y-7529150D01*
X6760539Y-7529150D02*
X6779587Y-7500579D01*
X6779587Y-7500579D02*
X6789111Y-7481531D01*
X6789111Y-7481531D02*
X6798634Y-7452960D01*
X6798634Y-7452960D02*
X6808158Y-7405341D01*
X6808158Y-7405341D02*
X6808158Y-7367246D01*
X6808158Y-7367246D02*
X6798634Y-7319627D01*
X6798634Y-7319627D02*
X6789111Y-7291055D01*
X6789111Y-7291055D02*
X6779587Y-7272008D01*
X6779587Y-7272008D02*
X6760539Y-7243436D01*
X6760539Y-7243436D02*
X6751015Y-7233912D01*
D10*
X-95000Y-7590000D02*
X-5000Y-7680000D01*
X-5000Y-7590000D02*
X-95000Y-7680000D01*
X-50000Y-7590000D02*
X-50000Y-7680000D01*
X-95000Y-7635000D02*
X-5000Y-7635000D01*
D11*
X293872Y-7526484D02*
X312920Y-7526484D01*
X312920Y-7526484D02*
X331967Y-7536008D01*
X331967Y-7536008D02*
X341491Y-7545531D01*
X341491Y-7545531D02*
X351015Y-7564579D01*
X351015Y-7564579D02*
X360539Y-7602674D01*
X360539Y-7602674D02*
X360539Y-7650293D01*
X360539Y-7650293D02*
X351015Y-7688388D01*
X351015Y-7688388D02*
X341491Y-7707436D01*
X341491Y-7707436D02*
X331967Y-7716960D01*
X331967Y-7716960D02*
X312920Y-7726484D01*
X312920Y-7726484D02*
X293872Y-7726484D01*
X293872Y-7726484D02*
X274824Y-7716960D01*
X274824Y-7716960D02*
X265301Y-7707436D01*
X265301Y-7707436D02*
X255777Y-7688388D01*
X255777Y-7688388D02*
X246253Y-7650293D01*
X246253Y-7650293D02*
X246253Y-7602674D01*
X246253Y-7602674D02*
X255777Y-7564579D01*
X255777Y-7564579D02*
X265301Y-7545531D01*
X265301Y-7545531D02*
X274824Y-7536008D01*
X274824Y-7536008D02*
X293872Y-7526484D01*
X446253Y-7707436D02*
X455777Y-7716960D01*
X455777Y-7716960D02*
X446253Y-7726484D01*
X446253Y-7726484D02*
X436729Y-7716960D01*
X436729Y-7716960D02*
X446253Y-7707436D01*
X446253Y-7707436D02*
X446253Y-7726484D01*
X551015Y-7726484D02*
X589110Y-7726484D01*
X589110Y-7726484D02*
X608158Y-7716960D01*
X608158Y-7716960D02*
X617682Y-7707436D01*
X617682Y-7707436D02*
X636729Y-7678865D01*
X636729Y-7678865D02*
X646253Y-7640769D01*
X646253Y-7640769D02*
X646253Y-7564579D01*
X646253Y-7564579D02*
X636729Y-7545531D01*
X636729Y-7545531D02*
X627205Y-7536008D01*
X627205Y-7536008D02*
X608158Y-7526484D01*
X608158Y-7526484D02*
X570063Y-7526484D01*
X570063Y-7526484D02*
X551015Y-7536008D01*
X551015Y-7536008D02*
X541491Y-7545531D01*
X541491Y-7545531D02*
X531967Y-7564579D01*
X531967Y-7564579D02*
X531967Y-7612198D01*
X531967Y-7612198D02*
X541491Y-7631246D01*
X541491Y-7631246D02*
X551015Y-7640769D01*
X551015Y-7640769D02*
X570063Y-7650293D01*
X570063Y-7650293D02*
X608158Y-7650293D01*
X608158Y-7650293D02*
X627205Y-7640769D01*
X627205Y-7640769D02*
X636729Y-7631246D01*
X636729Y-7631246D02*
X646253Y-7612198D01*
X770062Y-7526484D02*
X789110Y-7526484D01*
X789110Y-7526484D02*
X808158Y-7536008D01*
X808158Y-7536008D02*
X817682Y-7545531D01*
X817682Y-7545531D02*
X827205Y-7564579D01*
X827205Y-7564579D02*
X836729Y-7602674D01*
X836729Y-7602674D02*
X836729Y-7650293D01*
X836729Y-7650293D02*
X827205Y-7688388D01*
X827205Y-7688388D02*
X817682Y-7707436D01*
X817682Y-7707436D02*
X808158Y-7716960D01*
X808158Y-7716960D02*
X789110Y-7726484D01*
X789110Y-7726484D02*
X770062Y-7726484D01*
X770062Y-7726484D02*
X751015Y-7716960D01*
X751015Y-7716960D02*
X741491Y-7707436D01*
X741491Y-7707436D02*
X731967Y-7688388D01*
X731967Y-7688388D02*
X722443Y-7650293D01*
X722443Y-7650293D02*
X722443Y-7602674D01*
X722443Y-7602674D02*
X731967Y-7564579D01*
X731967Y-7564579D02*
X741491Y-7545531D01*
X741491Y-7545531D02*
X751015Y-7536008D01*
X751015Y-7536008D02*
X770062Y-7526484D01*
X960539Y-7526484D02*
X979586Y-7526484D01*
X979586Y-7526484D02*
X998634Y-7536008D01*
X998634Y-7536008D02*
X1008158Y-7545531D01*
X1008158Y-7545531D02*
X1017682Y-7564579D01*
X1017682Y-7564579D02*
X1027205Y-7602674D01*
X1027205Y-7602674D02*
X1027205Y-7650293D01*
X1027205Y-7650293D02*
X1017682Y-7688388D01*
X1017682Y-7688388D02*
X1008158Y-7707436D01*
X1008158Y-7707436D02*
X998634Y-7716960D01*
X998634Y-7716960D02*
X979586Y-7726484D01*
X979586Y-7726484D02*
X960539Y-7726484D01*
X960539Y-7726484D02*
X941491Y-7716960D01*
X941491Y-7716960D02*
X931967Y-7707436D01*
X931967Y-7707436D02*
X922443Y-7688388D01*
X922443Y-7688388D02*
X912920Y-7650293D01*
X912920Y-7650293D02*
X912920Y-7602674D01*
X912920Y-7602674D02*
X922443Y-7564579D01*
X922443Y-7564579D02*
X931967Y-7545531D01*
X931967Y-7545531D02*
X941491Y-7536008D01*
X941491Y-7536008D02*
X960539Y-7526484D01*
X1112920Y-7726484D02*
X1112920Y-7593150D01*
X1112920Y-7612198D02*
X1122444Y-7602674D01*
X1122444Y-7602674D02*
X1141491Y-7593150D01*
X1141491Y-7593150D02*
X1170063Y-7593150D01*
X1170063Y-7593150D02*
X1189110Y-7602674D01*
X1189110Y-7602674D02*
X1198634Y-7621722D01*
X1198634Y-7621722D02*
X1198634Y-7726484D01*
X1198634Y-7621722D02*
X1208158Y-7602674D01*
X1208158Y-7602674D02*
X1227205Y-7593150D01*
X1227205Y-7593150D02*
X1255777Y-7593150D01*
X1255777Y-7593150D02*
X1274825Y-7602674D01*
X1274825Y-7602674D02*
X1284348Y-7621722D01*
X1284348Y-7621722D02*
X1284348Y-7726484D01*
X1379586Y-7726484D02*
X1379586Y-7593150D01*
X1379586Y-7612198D02*
X1389110Y-7602674D01*
X1389110Y-7602674D02*
X1408158Y-7593150D01*
X1408158Y-7593150D02*
X1436729Y-7593150D01*
X1436729Y-7593150D02*
X1455777Y-7602674D01*
X1455777Y-7602674D02*
X1465301Y-7621722D01*
X1465301Y-7621722D02*
X1465301Y-7726484D01*
X1465301Y-7621722D02*
X1474824Y-7602674D01*
X1474824Y-7602674D02*
X1493872Y-7593150D01*
X1493872Y-7593150D02*
X1522443Y-7593150D01*
X1522443Y-7593150D02*
X1541491Y-7602674D01*
X1541491Y-7602674D02*
X1551015Y-7621722D01*
X1551015Y-7621722D02*
X1551015Y-7726484D01*
X1941491Y-7516960D02*
X1770063Y-7774103D01*
X2198634Y-7526484D02*
X2217682Y-7526484D01*
X2217682Y-7526484D02*
X2236729Y-7536008D01*
X2236729Y-7536008D02*
X2246253Y-7545531D01*
X2246253Y-7545531D02*
X2255777Y-7564579D01*
X2255777Y-7564579D02*
X2265301Y-7602674D01*
X2265301Y-7602674D02*
X2265301Y-7650293D01*
X2265301Y-7650293D02*
X2255777Y-7688388D01*
X2255777Y-7688388D02*
X2246253Y-7707436D01*
X2246253Y-7707436D02*
X2236729Y-7716960D01*
X2236729Y-7716960D02*
X2217682Y-7726484D01*
X2217682Y-7726484D02*
X2198634Y-7726484D01*
X2198634Y-7726484D02*
X2179587Y-7716960D01*
X2179587Y-7716960D02*
X2170063Y-7707436D01*
X2170063Y-7707436D02*
X2160539Y-7688388D01*
X2160539Y-7688388D02*
X2151015Y-7650293D01*
X2151015Y-7650293D02*
X2151015Y-7602674D01*
X2151015Y-7602674D02*
X2160539Y-7564579D01*
X2160539Y-7564579D02*
X2170063Y-7545531D01*
X2170063Y-7545531D02*
X2179587Y-7536008D01*
X2179587Y-7536008D02*
X2198634Y-7526484D01*
X2351015Y-7707436D02*
X2360539Y-7716960D01*
X2360539Y-7716960D02*
X2351015Y-7726484D01*
X2351015Y-7726484D02*
X2341491Y-7716960D01*
X2341491Y-7716960D02*
X2351015Y-7707436D01*
X2351015Y-7707436D02*
X2351015Y-7726484D01*
X2484348Y-7526484D02*
X2503396Y-7526484D01*
X2503396Y-7526484D02*
X2522444Y-7536008D01*
X2522444Y-7536008D02*
X2531968Y-7545531D01*
X2531968Y-7545531D02*
X2541491Y-7564579D01*
X2541491Y-7564579D02*
X2551015Y-7602674D01*
X2551015Y-7602674D02*
X2551015Y-7650293D01*
X2551015Y-7650293D02*
X2541491Y-7688388D01*
X2541491Y-7688388D02*
X2531968Y-7707436D01*
X2531968Y-7707436D02*
X2522444Y-7716960D01*
X2522444Y-7716960D02*
X2503396Y-7726484D01*
X2503396Y-7726484D02*
X2484348Y-7726484D01*
X2484348Y-7726484D02*
X2465301Y-7716960D01*
X2465301Y-7716960D02*
X2455777Y-7707436D01*
X2455777Y-7707436D02*
X2446253Y-7688388D01*
X2446253Y-7688388D02*
X2436729Y-7650293D01*
X2436729Y-7650293D02*
X2436729Y-7602674D01*
X2436729Y-7602674D02*
X2446253Y-7564579D01*
X2446253Y-7564579D02*
X2455777Y-7545531D01*
X2455777Y-7545531D02*
X2465301Y-7536008D01*
X2465301Y-7536008D02*
X2484348Y-7526484D01*
X2617682Y-7526484D02*
X2741491Y-7526484D01*
X2741491Y-7526484D02*
X2674825Y-7602674D01*
X2674825Y-7602674D02*
X2703396Y-7602674D01*
X2703396Y-7602674D02*
X2722444Y-7612198D01*
X2722444Y-7612198D02*
X2731968Y-7621722D01*
X2731968Y-7621722D02*
X2741491Y-7640769D01*
X2741491Y-7640769D02*
X2741491Y-7688388D01*
X2741491Y-7688388D02*
X2731968Y-7707436D01*
X2731968Y-7707436D02*
X2722444Y-7716960D01*
X2722444Y-7716960D02*
X2703396Y-7726484D01*
X2703396Y-7726484D02*
X2646253Y-7726484D01*
X2646253Y-7726484D02*
X2627206Y-7716960D01*
X2627206Y-7716960D02*
X2617682Y-7707436D01*
X2922444Y-7526484D02*
X2827206Y-7526484D01*
X2827206Y-7526484D02*
X2817682Y-7621722D01*
X2817682Y-7621722D02*
X2827206Y-7612198D01*
X2827206Y-7612198D02*
X2846253Y-7602674D01*
X2846253Y-7602674D02*
X2893872Y-7602674D01*
X2893872Y-7602674D02*
X2912920Y-7612198D01*
X2912920Y-7612198D02*
X2922444Y-7621722D01*
X2922444Y-7621722D02*
X2931967Y-7640769D01*
X2931967Y-7640769D02*
X2931967Y-7688388D01*
X2931967Y-7688388D02*
X2922444Y-7707436D01*
X2922444Y-7707436D02*
X2912920Y-7716960D01*
X2912920Y-7716960D02*
X2893872Y-7726484D01*
X2893872Y-7726484D02*
X2846253Y-7726484D01*
X2846253Y-7726484D02*
X2827206Y-7716960D01*
X2827206Y-7716960D02*
X2817682Y-7707436D01*
X3103396Y-7593150D02*
X3103396Y-7726484D01*
X3055777Y-7516960D02*
X3008158Y-7659817D01*
X3008158Y-7659817D02*
X3131967Y-7659817D01*
X3198634Y-7526484D02*
X3198634Y-7564579D01*
X3274825Y-7526484D02*
X3274825Y-7564579D01*
X3570063Y-7802674D02*
X3560539Y-7793150D01*
X3560539Y-7793150D02*
X3541491Y-7764579D01*
X3541491Y-7764579D02*
X3531968Y-7745531D01*
X3531968Y-7745531D02*
X3522444Y-7716960D01*
X3522444Y-7716960D02*
X3512920Y-7669341D01*
X3512920Y-7669341D02*
X3512920Y-7631246D01*
X3512920Y-7631246D02*
X3522444Y-7583627D01*
X3522444Y-7583627D02*
X3531968Y-7555055D01*
X3531968Y-7555055D02*
X3541491Y-7536008D01*
X3541491Y-7536008D02*
X3560539Y-7507436D01*
X3560539Y-7507436D02*
X3570063Y-7497912D01*
X3636729Y-7545531D02*
X3646253Y-7536008D01*
X3646253Y-7536008D02*
X3665301Y-7526484D01*
X3665301Y-7526484D02*
X3712920Y-7526484D01*
X3712920Y-7526484D02*
X3731968Y-7536008D01*
X3731968Y-7536008D02*
X3741491Y-7545531D01*
X3741491Y-7545531D02*
X3751015Y-7564579D01*
X3751015Y-7564579D02*
X3751015Y-7583627D01*
X3751015Y-7583627D02*
X3741491Y-7612198D01*
X3741491Y-7612198D02*
X3627206Y-7726484D01*
X3627206Y-7726484D02*
X3751015Y-7726484D01*
X3989110Y-7726484D02*
X3989110Y-7526484D01*
X4074825Y-7726484D02*
X4074825Y-7621722D01*
X4074825Y-7621722D02*
X4065301Y-7602674D01*
X4065301Y-7602674D02*
X4046253Y-7593150D01*
X4046253Y-7593150D02*
X4017682Y-7593150D01*
X4017682Y-7593150D02*
X3998634Y-7602674D01*
X3998634Y-7602674D02*
X3989110Y-7612198D01*
X4198634Y-7726484D02*
X4179587Y-7716960D01*
X4179587Y-7716960D02*
X4170063Y-7707436D01*
X4170063Y-7707436D02*
X4160539Y-7688388D01*
X4160539Y-7688388D02*
X4160539Y-7631246D01*
X4160539Y-7631246D02*
X4170063Y-7612198D01*
X4170063Y-7612198D02*
X4179587Y-7602674D01*
X4179587Y-7602674D02*
X4198634Y-7593150D01*
X4198634Y-7593150D02*
X4227206Y-7593150D01*
X4227206Y-7593150D02*
X4246253Y-7602674D01*
X4246253Y-7602674D02*
X4255777Y-7612198D01*
X4255777Y-7612198D02*
X4265301Y-7631246D01*
X4265301Y-7631246D02*
X4265301Y-7688388D01*
X4265301Y-7688388D02*
X4255777Y-7707436D01*
X4255777Y-7707436D02*
X4246253Y-7716960D01*
X4246253Y-7716960D02*
X4227206Y-7726484D01*
X4227206Y-7726484D02*
X4198634Y-7726484D01*
X4379587Y-7726484D02*
X4360539Y-7716960D01*
X4360539Y-7716960D02*
X4351015Y-7697912D01*
X4351015Y-7697912D02*
X4351015Y-7526484D01*
X4531968Y-7716960D02*
X4512920Y-7726484D01*
X4512920Y-7726484D02*
X4474825Y-7726484D01*
X4474825Y-7726484D02*
X4455777Y-7716960D01*
X4455777Y-7716960D02*
X4446253Y-7697912D01*
X4446253Y-7697912D02*
X4446253Y-7621722D01*
X4446253Y-7621722D02*
X4455777Y-7602674D01*
X4455777Y-7602674D02*
X4474825Y-7593150D01*
X4474825Y-7593150D02*
X4512920Y-7593150D01*
X4512920Y-7593150D02*
X4531968Y-7602674D01*
X4531968Y-7602674D02*
X4541492Y-7621722D01*
X4541492Y-7621722D02*
X4541492Y-7640769D01*
X4541492Y-7640769D02*
X4446253Y-7659817D01*
X4617682Y-7716960D02*
X4636730Y-7726484D01*
X4636730Y-7726484D02*
X4674825Y-7726484D01*
X4674825Y-7726484D02*
X4693873Y-7716960D01*
X4693873Y-7716960D02*
X4703396Y-7697912D01*
X4703396Y-7697912D02*
X4703396Y-7688388D01*
X4703396Y-7688388D02*
X4693873Y-7669341D01*
X4693873Y-7669341D02*
X4674825Y-7659817D01*
X4674825Y-7659817D02*
X4646253Y-7659817D01*
X4646253Y-7659817D02*
X4627206Y-7650293D01*
X4627206Y-7650293D02*
X4617682Y-7631246D01*
X4617682Y-7631246D02*
X4617682Y-7621722D01*
X4617682Y-7621722D02*
X4627206Y-7602674D01*
X4627206Y-7602674D02*
X4646253Y-7593150D01*
X4646253Y-7593150D02*
X4674825Y-7593150D01*
X4674825Y-7593150D02*
X4693873Y-7602674D01*
X4770063Y-7802674D02*
X4779587Y-7793150D01*
X4779587Y-7793150D02*
X4798634Y-7764579D01*
X4798634Y-7764579D02*
X4808158Y-7745531D01*
X4808158Y-7745531D02*
X4817682Y-7716960D01*
X4817682Y-7716960D02*
X4827206Y-7669341D01*
X4827206Y-7669341D02*
X4827206Y-7631246D01*
X4827206Y-7631246D02*
X4817682Y-7583627D01*
X4817682Y-7583627D02*
X4808158Y-7555055D01*
X4808158Y-7555055D02*
X4798634Y-7536008D01*
X4798634Y-7536008D02*
X4779587Y-7507436D01*
X4779587Y-7507436D02*
X4770063Y-7497912D01*
X5131968Y-7802674D02*
X5122444Y-7793150D01*
X5122444Y-7793150D02*
X5103396Y-7764579D01*
X5103396Y-7764579D02*
X5093873Y-7745531D01*
X5093873Y-7745531D02*
X5084349Y-7716960D01*
X5084349Y-7716960D02*
X5074825Y-7669341D01*
X5074825Y-7669341D02*
X5074825Y-7631246D01*
X5074825Y-7631246D02*
X5084349Y-7583627D01*
X5084349Y-7583627D02*
X5093873Y-7555055D01*
X5093873Y-7555055D02*
X5103396Y-7536008D01*
X5103396Y-7536008D02*
X5122444Y-7507436D01*
X5122444Y-7507436D02*
X5131968Y-7497912D01*
X5208158Y-7593150D02*
X5208158Y-7726484D01*
X5208158Y-7612198D02*
X5217682Y-7602674D01*
X5217682Y-7602674D02*
X5236730Y-7593150D01*
X5236730Y-7593150D02*
X5265301Y-7593150D01*
X5265301Y-7593150D02*
X5284349Y-7602674D01*
X5284349Y-7602674D02*
X5293873Y-7621722D01*
X5293873Y-7621722D02*
X5293873Y-7726484D01*
X5417682Y-7726484D02*
X5398634Y-7716960D01*
X5398634Y-7716960D02*
X5389111Y-7707436D01*
X5389111Y-7707436D02*
X5379587Y-7688388D01*
X5379587Y-7688388D02*
X5379587Y-7631246D01*
X5379587Y-7631246D02*
X5389111Y-7612198D01*
X5389111Y-7612198D02*
X5398634Y-7602674D01*
X5398634Y-7602674D02*
X5417682Y-7593150D01*
X5417682Y-7593150D02*
X5446254Y-7593150D01*
X5446254Y-7593150D02*
X5465301Y-7602674D01*
X5465301Y-7602674D02*
X5474825Y-7612198D01*
X5474825Y-7612198D02*
X5484349Y-7631246D01*
X5484349Y-7631246D02*
X5484349Y-7688388D01*
X5484349Y-7688388D02*
X5474825Y-7707436D01*
X5474825Y-7707436D02*
X5465301Y-7716960D01*
X5465301Y-7716960D02*
X5446254Y-7726484D01*
X5446254Y-7726484D02*
X5417682Y-7726484D01*
X5541492Y-7593150D02*
X5617682Y-7593150D01*
X5570063Y-7526484D02*
X5570063Y-7697912D01*
X5570063Y-7697912D02*
X5579587Y-7716960D01*
X5579587Y-7716960D02*
X5598634Y-7726484D01*
X5598634Y-7726484D02*
X5617682Y-7726484D01*
X5836730Y-7593150D02*
X5836730Y-7793150D01*
X5836730Y-7602674D02*
X5855777Y-7593150D01*
X5855777Y-7593150D02*
X5893873Y-7593150D01*
X5893873Y-7593150D02*
X5912920Y-7602674D01*
X5912920Y-7602674D02*
X5922444Y-7612198D01*
X5922444Y-7612198D02*
X5931968Y-7631246D01*
X5931968Y-7631246D02*
X5931968Y-7688388D01*
X5931968Y-7688388D02*
X5922444Y-7707436D01*
X5922444Y-7707436D02*
X5912920Y-7716960D01*
X5912920Y-7716960D02*
X5893873Y-7726484D01*
X5893873Y-7726484D02*
X5855777Y-7726484D01*
X5855777Y-7726484D02*
X5836730Y-7716960D01*
X6046253Y-7726484D02*
X6027206Y-7716960D01*
X6027206Y-7716960D02*
X6017682Y-7697912D01*
X6017682Y-7697912D02*
X6017682Y-7526484D01*
X6208158Y-7726484D02*
X6208158Y-7621722D01*
X6208158Y-7621722D02*
X6198634Y-7602674D01*
X6198634Y-7602674D02*
X6179587Y-7593150D01*
X6179587Y-7593150D02*
X6141492Y-7593150D01*
X6141492Y-7593150D02*
X6122444Y-7602674D01*
X6208158Y-7716960D02*
X6189111Y-7726484D01*
X6189111Y-7726484D02*
X6141492Y-7726484D01*
X6141492Y-7726484D02*
X6122444Y-7716960D01*
X6122444Y-7716960D02*
X6112920Y-7697912D01*
X6112920Y-7697912D02*
X6112920Y-7678865D01*
X6112920Y-7678865D02*
X6122444Y-7659817D01*
X6122444Y-7659817D02*
X6141492Y-7650293D01*
X6141492Y-7650293D02*
X6189111Y-7650293D01*
X6189111Y-7650293D02*
X6208158Y-7640769D01*
X6274825Y-7593150D02*
X6351015Y-7593150D01*
X6303396Y-7526484D02*
X6303396Y-7697912D01*
X6303396Y-7697912D02*
X6312920Y-7716960D01*
X6312920Y-7716960D02*
X6331968Y-7726484D01*
X6331968Y-7726484D02*
X6351015Y-7726484D01*
X6493873Y-7716960D02*
X6474825Y-7726484D01*
X6474825Y-7726484D02*
X6436730Y-7726484D01*
X6436730Y-7726484D02*
X6417682Y-7716960D01*
X6417682Y-7716960D02*
X6408158Y-7697912D01*
X6408158Y-7697912D02*
X6408158Y-7621722D01*
X6408158Y-7621722D02*
X6417682Y-7602674D01*
X6417682Y-7602674D02*
X6436730Y-7593150D01*
X6436730Y-7593150D02*
X6474825Y-7593150D01*
X6474825Y-7593150D02*
X6493873Y-7602674D01*
X6493873Y-7602674D02*
X6503396Y-7621722D01*
X6503396Y-7621722D02*
X6503396Y-7640769D01*
X6503396Y-7640769D02*
X6408158Y-7659817D01*
X6674825Y-7726484D02*
X6674825Y-7526484D01*
X6674825Y-7716960D02*
X6655777Y-7726484D01*
X6655777Y-7726484D02*
X6617682Y-7726484D01*
X6617682Y-7726484D02*
X6598634Y-7716960D01*
X6598634Y-7716960D02*
X6589111Y-7707436D01*
X6589111Y-7707436D02*
X6579587Y-7688388D01*
X6579587Y-7688388D02*
X6579587Y-7631246D01*
X6579587Y-7631246D02*
X6589111Y-7612198D01*
X6589111Y-7612198D02*
X6598634Y-7602674D01*
X6598634Y-7602674D02*
X6617682Y-7593150D01*
X6617682Y-7593150D02*
X6655777Y-7593150D01*
X6655777Y-7593150D02*
X6674825Y-7602674D01*
X6751015Y-7802674D02*
X6760539Y-7793150D01*
X6760539Y-7793150D02*
X6779587Y-7764579D01*
X6779587Y-7764579D02*
X6789111Y-7745531D01*
X6789111Y-7745531D02*
X6798634Y-7716960D01*
X6798634Y-7716960D02*
X6808158Y-7669341D01*
X6808158Y-7669341D02*
X6808158Y-7631246D01*
X6808158Y-7631246D02*
X6798634Y-7583627D01*
X6798634Y-7583627D02*
X6789111Y-7555055D01*
X6789111Y-7555055D02*
X6779587Y-7536008D01*
X6779587Y-7536008D02*
X6760539Y-7507436D01*
X6760539Y-7507436D02*
X6751015Y-7497912D01*
X-205000Y-7799000D02*
X-5000Y-7999000D01*
X-5000Y-7799000D02*
X-205000Y-7999000D01*
X-34289Y-7969711D02*
X-34289Y-7828289D01*
X-175711Y-7828289D01*
X-175711Y-7969711D01*
X-34289Y-7969711D01*
X246253Y-7809531D02*
X255777Y-7800008D01*
X255777Y-7800008D02*
X274824Y-7790484D01*
X274824Y-7790484D02*
X322444Y-7790484D01*
X322444Y-7790484D02*
X341491Y-7800008D01*
X341491Y-7800008D02*
X351015Y-7809531D01*
X351015Y-7809531D02*
X360539Y-7828579D01*
X360539Y-7828579D02*
X360539Y-7847627D01*
X360539Y-7847627D02*
X351015Y-7876198D01*
X351015Y-7876198D02*
X236729Y-7990484D01*
X236729Y-7990484D02*
X360539Y-7990484D01*
X446253Y-7971436D02*
X455777Y-7980960D01*
X455777Y-7980960D02*
X446253Y-7990484D01*
X446253Y-7990484D02*
X436729Y-7980960D01*
X436729Y-7980960D02*
X446253Y-7971436D01*
X446253Y-7971436D02*
X446253Y-7990484D01*
X531967Y-7809531D02*
X541491Y-7800008D01*
X541491Y-7800008D02*
X560539Y-7790484D01*
X560539Y-7790484D02*
X608158Y-7790484D01*
X608158Y-7790484D02*
X627205Y-7800008D01*
X627205Y-7800008D02*
X636729Y-7809531D01*
X636729Y-7809531D02*
X646253Y-7828579D01*
X646253Y-7828579D02*
X646253Y-7847627D01*
X646253Y-7847627D02*
X636729Y-7876198D01*
X636729Y-7876198D02*
X522443Y-7990484D01*
X522443Y-7990484D02*
X646253Y-7990484D01*
X770062Y-7790484D02*
X789110Y-7790484D01*
X789110Y-7790484D02*
X808158Y-7800008D01*
X808158Y-7800008D02*
X817682Y-7809531D01*
X817682Y-7809531D02*
X827205Y-7828579D01*
X827205Y-7828579D02*
X836729Y-7866674D01*
X836729Y-7866674D02*
X836729Y-7914293D01*
X836729Y-7914293D02*
X827205Y-7952388D01*
X827205Y-7952388D02*
X817682Y-7971436D01*
X817682Y-7971436D02*
X808158Y-7980960D01*
X808158Y-7980960D02*
X789110Y-7990484D01*
X789110Y-7990484D02*
X770062Y-7990484D01*
X770062Y-7990484D02*
X751015Y-7980960D01*
X751015Y-7980960D02*
X741491Y-7971436D01*
X741491Y-7971436D02*
X731967Y-7952388D01*
X731967Y-7952388D02*
X722443Y-7914293D01*
X722443Y-7914293D02*
X722443Y-7866674D01*
X722443Y-7866674D02*
X731967Y-7828579D01*
X731967Y-7828579D02*
X741491Y-7809531D01*
X741491Y-7809531D02*
X751015Y-7800008D01*
X751015Y-7800008D02*
X770062Y-7790484D01*
X960539Y-7790484D02*
X979586Y-7790484D01*
X979586Y-7790484D02*
X998634Y-7800008D01*
X998634Y-7800008D02*
X1008158Y-7809531D01*
X1008158Y-7809531D02*
X1017682Y-7828579D01*
X1017682Y-7828579D02*
X1027205Y-7866674D01*
X1027205Y-7866674D02*
X1027205Y-7914293D01*
X1027205Y-7914293D02*
X1017682Y-7952388D01*
X1017682Y-7952388D02*
X1008158Y-7971436D01*
X1008158Y-7971436D02*
X998634Y-7980960D01*
X998634Y-7980960D02*
X979586Y-7990484D01*
X979586Y-7990484D02*
X960539Y-7990484D01*
X960539Y-7990484D02*
X941491Y-7980960D01*
X941491Y-7980960D02*
X931967Y-7971436D01*
X931967Y-7971436D02*
X922443Y-7952388D01*
X922443Y-7952388D02*
X912920Y-7914293D01*
X912920Y-7914293D02*
X912920Y-7866674D01*
X912920Y-7866674D02*
X922443Y-7828579D01*
X922443Y-7828579D02*
X931967Y-7809531D01*
X931967Y-7809531D02*
X941491Y-7800008D01*
X941491Y-7800008D02*
X960539Y-7790484D01*
X1112920Y-7990484D02*
X1112920Y-7857150D01*
X1112920Y-7876198D02*
X1122444Y-7866674D01*
X1122444Y-7866674D02*
X1141491Y-7857150D01*
X1141491Y-7857150D02*
X1170063Y-7857150D01*
X1170063Y-7857150D02*
X1189110Y-7866674D01*
X1189110Y-7866674D02*
X1198634Y-7885722D01*
X1198634Y-7885722D02*
X1198634Y-7990484D01*
X1198634Y-7885722D02*
X1208158Y-7866674D01*
X1208158Y-7866674D02*
X1227205Y-7857150D01*
X1227205Y-7857150D02*
X1255777Y-7857150D01*
X1255777Y-7857150D02*
X1274825Y-7866674D01*
X1274825Y-7866674D02*
X1284348Y-7885722D01*
X1284348Y-7885722D02*
X1284348Y-7990484D01*
X1379586Y-7990484D02*
X1379586Y-7857150D01*
X1379586Y-7876198D02*
X1389110Y-7866674D01*
X1389110Y-7866674D02*
X1408158Y-7857150D01*
X1408158Y-7857150D02*
X1436729Y-7857150D01*
X1436729Y-7857150D02*
X1455777Y-7866674D01*
X1455777Y-7866674D02*
X1465301Y-7885722D01*
X1465301Y-7885722D02*
X1465301Y-7990484D01*
X1465301Y-7885722D02*
X1474824Y-7866674D01*
X1474824Y-7866674D02*
X1493872Y-7857150D01*
X1493872Y-7857150D02*
X1522443Y-7857150D01*
X1522443Y-7857150D02*
X1541491Y-7866674D01*
X1541491Y-7866674D02*
X1551015Y-7885722D01*
X1551015Y-7885722D02*
X1551015Y-7990484D01*
X1941491Y-7780960D02*
X1770063Y-8038103D01*
X2198634Y-7790484D02*
X2217682Y-7790484D01*
X2217682Y-7790484D02*
X2236729Y-7800008D01*
X2236729Y-7800008D02*
X2246253Y-7809531D01*
X2246253Y-7809531D02*
X2255777Y-7828579D01*
X2255777Y-7828579D02*
X2265301Y-7866674D01*
X2265301Y-7866674D02*
X2265301Y-7914293D01*
X2265301Y-7914293D02*
X2255777Y-7952388D01*
X2255777Y-7952388D02*
X2246253Y-7971436D01*
X2246253Y-7971436D02*
X2236729Y-7980960D01*
X2236729Y-7980960D02*
X2217682Y-7990484D01*
X2217682Y-7990484D02*
X2198634Y-7990484D01*
X2198634Y-7990484D02*
X2179587Y-7980960D01*
X2179587Y-7980960D02*
X2170063Y-7971436D01*
X2170063Y-7971436D02*
X2160539Y-7952388D01*
X2160539Y-7952388D02*
X2151015Y-7914293D01*
X2151015Y-7914293D02*
X2151015Y-7866674D01*
X2151015Y-7866674D02*
X2160539Y-7828579D01*
X2160539Y-7828579D02*
X2170063Y-7809531D01*
X2170063Y-7809531D02*
X2179587Y-7800008D01*
X2179587Y-7800008D02*
X2198634Y-7790484D01*
X2351015Y-7971436D02*
X2360539Y-7980960D01*
X2360539Y-7980960D02*
X2351015Y-7990484D01*
X2351015Y-7990484D02*
X2341491Y-7980960D01*
X2341491Y-7980960D02*
X2351015Y-7971436D01*
X2351015Y-7971436D02*
X2351015Y-7990484D01*
X2484348Y-7790484D02*
X2503396Y-7790484D01*
X2503396Y-7790484D02*
X2522444Y-7800008D01*
X2522444Y-7800008D02*
X2531968Y-7809531D01*
X2531968Y-7809531D02*
X2541491Y-7828579D01*
X2541491Y-7828579D02*
X2551015Y-7866674D01*
X2551015Y-7866674D02*
X2551015Y-7914293D01*
X2551015Y-7914293D02*
X2541491Y-7952388D01*
X2541491Y-7952388D02*
X2531968Y-7971436D01*
X2531968Y-7971436D02*
X2522444Y-7980960D01*
X2522444Y-7980960D02*
X2503396Y-7990484D01*
X2503396Y-7990484D02*
X2484348Y-7990484D01*
X2484348Y-7990484D02*
X2465301Y-7980960D01*
X2465301Y-7980960D02*
X2455777Y-7971436D01*
X2455777Y-7971436D02*
X2446253Y-7952388D01*
X2446253Y-7952388D02*
X2436729Y-7914293D01*
X2436729Y-7914293D02*
X2436729Y-7866674D01*
X2436729Y-7866674D02*
X2446253Y-7828579D01*
X2446253Y-7828579D02*
X2455777Y-7809531D01*
X2455777Y-7809531D02*
X2465301Y-7800008D01*
X2465301Y-7800008D02*
X2484348Y-7790484D01*
X2665301Y-7876198D02*
X2646253Y-7866674D01*
X2646253Y-7866674D02*
X2636729Y-7857150D01*
X2636729Y-7857150D02*
X2627206Y-7838103D01*
X2627206Y-7838103D02*
X2627206Y-7828579D01*
X2627206Y-7828579D02*
X2636729Y-7809531D01*
X2636729Y-7809531D02*
X2646253Y-7800008D01*
X2646253Y-7800008D02*
X2665301Y-7790484D01*
X2665301Y-7790484D02*
X2703396Y-7790484D01*
X2703396Y-7790484D02*
X2722444Y-7800008D01*
X2722444Y-7800008D02*
X2731968Y-7809531D01*
X2731968Y-7809531D02*
X2741491Y-7828579D01*
X2741491Y-7828579D02*
X2741491Y-7838103D01*
X2741491Y-7838103D02*
X2731968Y-7857150D01*
X2731968Y-7857150D02*
X2722444Y-7866674D01*
X2722444Y-7866674D02*
X2703396Y-7876198D01*
X2703396Y-7876198D02*
X2665301Y-7876198D01*
X2665301Y-7876198D02*
X2646253Y-7885722D01*
X2646253Y-7885722D02*
X2636729Y-7895246D01*
X2636729Y-7895246D02*
X2627206Y-7914293D01*
X2627206Y-7914293D02*
X2627206Y-7952388D01*
X2627206Y-7952388D02*
X2636729Y-7971436D01*
X2636729Y-7971436D02*
X2646253Y-7980960D01*
X2646253Y-7980960D02*
X2665301Y-7990484D01*
X2665301Y-7990484D02*
X2703396Y-7990484D01*
X2703396Y-7990484D02*
X2722444Y-7980960D01*
X2722444Y-7980960D02*
X2731968Y-7971436D01*
X2731968Y-7971436D02*
X2741491Y-7952388D01*
X2741491Y-7952388D02*
X2741491Y-7914293D01*
X2741491Y-7914293D02*
X2731968Y-7895246D01*
X2731968Y-7895246D02*
X2722444Y-7885722D01*
X2722444Y-7885722D02*
X2703396Y-7876198D01*
X2912920Y-7790484D02*
X2874825Y-7790484D01*
X2874825Y-7790484D02*
X2855777Y-7800008D01*
X2855777Y-7800008D02*
X2846253Y-7809531D01*
X2846253Y-7809531D02*
X2827206Y-7838103D01*
X2827206Y-7838103D02*
X2817682Y-7876198D01*
X2817682Y-7876198D02*
X2817682Y-7952388D01*
X2817682Y-7952388D02*
X2827206Y-7971436D01*
X2827206Y-7971436D02*
X2836729Y-7980960D01*
X2836729Y-7980960D02*
X2855777Y-7990484D01*
X2855777Y-7990484D02*
X2893872Y-7990484D01*
X2893872Y-7990484D02*
X2912920Y-7980960D01*
X2912920Y-7980960D02*
X2922444Y-7971436D01*
X2922444Y-7971436D02*
X2931967Y-7952388D01*
X2931967Y-7952388D02*
X2931967Y-7904769D01*
X2931967Y-7904769D02*
X2922444Y-7885722D01*
X2922444Y-7885722D02*
X2912920Y-7876198D01*
X2912920Y-7876198D02*
X2893872Y-7866674D01*
X2893872Y-7866674D02*
X2855777Y-7866674D01*
X2855777Y-7866674D02*
X2836729Y-7876198D01*
X2836729Y-7876198D02*
X2827206Y-7885722D01*
X2827206Y-7885722D02*
X2817682Y-7904769D01*
X3103396Y-7790484D02*
X3065301Y-7790484D01*
X3065301Y-7790484D02*
X3046253Y-7800008D01*
X3046253Y-7800008D02*
X3036729Y-7809531D01*
X3036729Y-7809531D02*
X3017682Y-7838103D01*
X3017682Y-7838103D02*
X3008158Y-7876198D01*
X3008158Y-7876198D02*
X3008158Y-7952388D01*
X3008158Y-7952388D02*
X3017682Y-7971436D01*
X3017682Y-7971436D02*
X3027206Y-7980960D01*
X3027206Y-7980960D02*
X3046253Y-7990484D01*
X3046253Y-7990484D02*
X3084348Y-7990484D01*
X3084348Y-7990484D02*
X3103396Y-7980960D01*
X3103396Y-7980960D02*
X3112920Y-7971436D01*
X3112920Y-7971436D02*
X3122444Y-7952388D01*
X3122444Y-7952388D02*
X3122444Y-7904769D01*
X3122444Y-7904769D02*
X3112920Y-7885722D01*
X3112920Y-7885722D02*
X3103396Y-7876198D01*
X3103396Y-7876198D02*
X3084348Y-7866674D01*
X3084348Y-7866674D02*
X3046253Y-7866674D01*
X3046253Y-7866674D02*
X3027206Y-7876198D01*
X3027206Y-7876198D02*
X3017682Y-7885722D01*
X3017682Y-7885722D02*
X3008158Y-7904769D01*
X3198634Y-7790484D02*
X3198634Y-7828579D01*
X3274825Y-7790484D02*
X3274825Y-7828579D01*
X3570063Y-8066674D02*
X3560539Y-8057150D01*
X3560539Y-8057150D02*
X3541491Y-8028579D01*
X3541491Y-8028579D02*
X3531968Y-8009531D01*
X3531968Y-8009531D02*
X3522444Y-7980960D01*
X3522444Y-7980960D02*
X3512920Y-7933341D01*
X3512920Y-7933341D02*
X3512920Y-7895246D01*
X3512920Y-7895246D02*
X3522444Y-7847627D01*
X3522444Y-7847627D02*
X3531968Y-7819055D01*
X3531968Y-7819055D02*
X3541491Y-7800008D01*
X3541491Y-7800008D02*
X3560539Y-7771436D01*
X3560539Y-7771436D02*
X3570063Y-7761912D01*
X3731968Y-7857150D02*
X3731968Y-7990484D01*
X3684348Y-7780960D02*
X3636729Y-7923817D01*
X3636729Y-7923817D02*
X3760539Y-7923817D01*
X3989110Y-7990484D02*
X3989110Y-7790484D01*
X4074825Y-7990484D02*
X4074825Y-7885722D01*
X4074825Y-7885722D02*
X4065301Y-7866674D01*
X4065301Y-7866674D02*
X4046253Y-7857150D01*
X4046253Y-7857150D02*
X4017682Y-7857150D01*
X4017682Y-7857150D02*
X3998634Y-7866674D01*
X3998634Y-7866674D02*
X3989110Y-7876198D01*
X4198634Y-7990484D02*
X4179587Y-7980960D01*
X4179587Y-7980960D02*
X4170063Y-7971436D01*
X4170063Y-7971436D02*
X4160539Y-7952388D01*
X4160539Y-7952388D02*
X4160539Y-7895246D01*
X4160539Y-7895246D02*
X4170063Y-7876198D01*
X4170063Y-7876198D02*
X4179587Y-7866674D01*
X4179587Y-7866674D02*
X4198634Y-7857150D01*
X4198634Y-7857150D02*
X4227206Y-7857150D01*
X4227206Y-7857150D02*
X4246253Y-7866674D01*
X4246253Y-7866674D02*
X4255777Y-7876198D01*
X4255777Y-7876198D02*
X4265301Y-7895246D01*
X4265301Y-7895246D02*
X4265301Y-7952388D01*
X4265301Y-7952388D02*
X4255777Y-7971436D01*
X4255777Y-7971436D02*
X4246253Y-7980960D01*
X4246253Y-7980960D02*
X4227206Y-7990484D01*
X4227206Y-7990484D02*
X4198634Y-7990484D01*
X4379587Y-7990484D02*
X4360539Y-7980960D01*
X4360539Y-7980960D02*
X4351015Y-7961912D01*
X4351015Y-7961912D02*
X4351015Y-7790484D01*
X4531968Y-7980960D02*
X4512920Y-7990484D01*
X4512920Y-7990484D02*
X4474825Y-7990484D01*
X4474825Y-7990484D02*
X4455777Y-7980960D01*
X4455777Y-7980960D02*
X4446253Y-7961912D01*
X4446253Y-7961912D02*
X4446253Y-7885722D01*
X4446253Y-7885722D02*
X4455777Y-7866674D01*
X4455777Y-7866674D02*
X4474825Y-7857150D01*
X4474825Y-7857150D02*
X4512920Y-7857150D01*
X4512920Y-7857150D02*
X4531968Y-7866674D01*
X4531968Y-7866674D02*
X4541492Y-7885722D01*
X4541492Y-7885722D02*
X4541492Y-7904769D01*
X4541492Y-7904769D02*
X4446253Y-7923817D01*
X4617682Y-7980960D02*
X4636730Y-7990484D01*
X4636730Y-7990484D02*
X4674825Y-7990484D01*
X4674825Y-7990484D02*
X4693873Y-7980960D01*
X4693873Y-7980960D02*
X4703396Y-7961912D01*
X4703396Y-7961912D02*
X4703396Y-7952388D01*
X4703396Y-7952388D02*
X4693873Y-7933341D01*
X4693873Y-7933341D02*
X4674825Y-7923817D01*
X4674825Y-7923817D02*
X4646253Y-7923817D01*
X4646253Y-7923817D02*
X4627206Y-7914293D01*
X4627206Y-7914293D02*
X4617682Y-7895246D01*
X4617682Y-7895246D02*
X4617682Y-7885722D01*
X4617682Y-7885722D02*
X4627206Y-7866674D01*
X4627206Y-7866674D02*
X4646253Y-7857150D01*
X4646253Y-7857150D02*
X4674825Y-7857150D01*
X4674825Y-7857150D02*
X4693873Y-7866674D01*
X4770063Y-8066674D02*
X4779587Y-8057150D01*
X4779587Y-8057150D02*
X4798634Y-8028579D01*
X4798634Y-8028579D02*
X4808158Y-8009531D01*
X4808158Y-8009531D02*
X4817682Y-7980960D01*
X4817682Y-7980960D02*
X4827206Y-7933341D01*
X4827206Y-7933341D02*
X4827206Y-7895246D01*
X4827206Y-7895246D02*
X4817682Y-7847627D01*
X4817682Y-7847627D02*
X4808158Y-7819055D01*
X4808158Y-7819055D02*
X4798634Y-7800008D01*
X4798634Y-7800008D02*
X4779587Y-7771436D01*
X4779587Y-7771436D02*
X4770063Y-7761912D01*
X5131968Y-8066674D02*
X5122444Y-8057150D01*
X5122444Y-8057150D02*
X5103396Y-8028579D01*
X5103396Y-8028579D02*
X5093873Y-8009531D01*
X5093873Y-8009531D02*
X5084349Y-7980960D01*
X5084349Y-7980960D02*
X5074825Y-7933341D01*
X5074825Y-7933341D02*
X5074825Y-7895246D01*
X5074825Y-7895246D02*
X5084349Y-7847627D01*
X5084349Y-7847627D02*
X5093873Y-7819055D01*
X5093873Y-7819055D02*
X5103396Y-7800008D01*
X5103396Y-7800008D02*
X5122444Y-7771436D01*
X5122444Y-7771436D02*
X5131968Y-7761912D01*
X5208158Y-7857150D02*
X5208158Y-7990484D01*
X5208158Y-7876198D02*
X5217682Y-7866674D01*
X5217682Y-7866674D02*
X5236730Y-7857150D01*
X5236730Y-7857150D02*
X5265301Y-7857150D01*
X5265301Y-7857150D02*
X5284349Y-7866674D01*
X5284349Y-7866674D02*
X5293873Y-7885722D01*
X5293873Y-7885722D02*
X5293873Y-7990484D01*
X5417682Y-7990484D02*
X5398634Y-7980960D01*
X5398634Y-7980960D02*
X5389111Y-7971436D01*
X5389111Y-7971436D02*
X5379587Y-7952388D01*
X5379587Y-7952388D02*
X5379587Y-7895246D01*
X5379587Y-7895246D02*
X5389111Y-7876198D01*
X5389111Y-7876198D02*
X5398634Y-7866674D01*
X5398634Y-7866674D02*
X5417682Y-7857150D01*
X5417682Y-7857150D02*
X5446254Y-7857150D01*
X5446254Y-7857150D02*
X5465301Y-7866674D01*
X5465301Y-7866674D02*
X5474825Y-7876198D01*
X5474825Y-7876198D02*
X5484349Y-7895246D01*
X5484349Y-7895246D02*
X5484349Y-7952388D01*
X5484349Y-7952388D02*
X5474825Y-7971436D01*
X5474825Y-7971436D02*
X5465301Y-7980960D01*
X5465301Y-7980960D02*
X5446254Y-7990484D01*
X5446254Y-7990484D02*
X5417682Y-7990484D01*
X5541492Y-7857150D02*
X5617682Y-7857150D01*
X5570063Y-7790484D02*
X5570063Y-7961912D01*
X5570063Y-7961912D02*
X5579587Y-7980960D01*
X5579587Y-7980960D02*
X5598634Y-7990484D01*
X5598634Y-7990484D02*
X5617682Y-7990484D01*
X5836730Y-7857150D02*
X5836730Y-8057150D01*
X5836730Y-7866674D02*
X5855777Y-7857150D01*
X5855777Y-7857150D02*
X5893873Y-7857150D01*
X5893873Y-7857150D02*
X5912920Y-7866674D01*
X5912920Y-7866674D02*
X5922444Y-7876198D01*
X5922444Y-7876198D02*
X5931968Y-7895246D01*
X5931968Y-7895246D02*
X5931968Y-7952388D01*
X5931968Y-7952388D02*
X5922444Y-7971436D01*
X5922444Y-7971436D02*
X5912920Y-7980960D01*
X5912920Y-7980960D02*
X5893873Y-7990484D01*
X5893873Y-7990484D02*
X5855777Y-7990484D01*
X5855777Y-7990484D02*
X5836730Y-7980960D01*
X6046253Y-7990484D02*
X6027206Y-7980960D01*
X6027206Y-7980960D02*
X6017682Y-7961912D01*
X6017682Y-7961912D02*
X6017682Y-7790484D01*
X6208158Y-7990484D02*
X6208158Y-7885722D01*
X6208158Y-7885722D02*
X6198634Y-7866674D01*
X6198634Y-7866674D02*
X6179587Y-7857150D01*
X6179587Y-7857150D02*
X6141492Y-7857150D01*
X6141492Y-7857150D02*
X6122444Y-7866674D01*
X6208158Y-7980960D02*
X6189111Y-7990484D01*
X6189111Y-7990484D02*
X6141492Y-7990484D01*
X6141492Y-7990484D02*
X6122444Y-7980960D01*
X6122444Y-7980960D02*
X6112920Y-7961912D01*
X6112920Y-7961912D02*
X6112920Y-7942865D01*
X6112920Y-7942865D02*
X6122444Y-7923817D01*
X6122444Y-7923817D02*
X6141492Y-7914293D01*
X6141492Y-7914293D02*
X6189111Y-7914293D01*
X6189111Y-7914293D02*
X6208158Y-7904769D01*
X6274825Y-7857150D02*
X6351015Y-7857150D01*
X6303396Y-7790484D02*
X6303396Y-7961912D01*
X6303396Y-7961912D02*
X6312920Y-7980960D01*
X6312920Y-7980960D02*
X6331968Y-7990484D01*
X6331968Y-7990484D02*
X6351015Y-7990484D01*
X6493873Y-7980960D02*
X6474825Y-7990484D01*
X6474825Y-7990484D02*
X6436730Y-7990484D01*
X6436730Y-7990484D02*
X6417682Y-7980960D01*
X6417682Y-7980960D02*
X6408158Y-7961912D01*
X6408158Y-7961912D02*
X6408158Y-7885722D01*
X6408158Y-7885722D02*
X6417682Y-7866674D01*
X6417682Y-7866674D02*
X6436730Y-7857150D01*
X6436730Y-7857150D02*
X6474825Y-7857150D01*
X6474825Y-7857150D02*
X6493873Y-7866674D01*
X6493873Y-7866674D02*
X6503396Y-7885722D01*
X6503396Y-7885722D02*
X6503396Y-7904769D01*
X6503396Y-7904769D02*
X6408158Y-7923817D01*
X6674825Y-7990484D02*
X6674825Y-7790484D01*
X6674825Y-7980960D02*
X6655777Y-7990484D01*
X6655777Y-7990484D02*
X6617682Y-7990484D01*
X6617682Y-7990484D02*
X6598634Y-7980960D01*
X6598634Y-7980960D02*
X6589111Y-7971436D01*
X6589111Y-7971436D02*
X6579587Y-7952388D01*
X6579587Y-7952388D02*
X6579587Y-7895246D01*
X6579587Y-7895246D02*
X6589111Y-7876198D01*
X6589111Y-7876198D02*
X6598634Y-7866674D01*
X6598634Y-7866674D02*
X6617682Y-7857150D01*
X6617682Y-7857150D02*
X6655777Y-7857150D01*
X6655777Y-7857150D02*
X6674825Y-7866674D01*
X6751015Y-8066674D02*
X6760539Y-8057150D01*
X6760539Y-8057150D02*
X6779587Y-8028579D01*
X6779587Y-8028579D02*
X6789111Y-8009531D01*
X6789111Y-8009531D02*
X6798634Y-7980960D01*
X6798634Y-7980960D02*
X6808158Y-7933341D01*
X6808158Y-7933341D02*
X6808158Y-7895246D01*
X6808158Y-7895246D02*
X6798634Y-7847627D01*
X6798634Y-7847627D02*
X6789111Y-7819055D01*
X6789111Y-7819055D02*
X6779587Y-7800008D01*
X6779587Y-7800008D02*
X6760539Y-7771436D01*
X6760539Y-7771436D02*
X6751015Y-7761912D01*
M02*
